<svg xmlns="http://www.w3.org/2000/svg" width="167" height="217" fill="none" viewBox="0 0 167 217"><g clip-path="url(#clip0_17_28)"><path fill="#69E2BA" d="M5.07935 93.3397C-4.97262 72.7709 1.20404 53.6552 12.2279 36.2957C36.4784 -1.90052 94.7889 -11.7531 130.815 15.4136C135.726 19.1238 140.368 23.2132 142.515 29.335C126.153 35.7083 116.494 48.1724 109.912 64.0231C106.261 72.8162 109.612 75.504 117.593 76.7037C129.983 78.5588 142.31 80.8652 154.663 82.98C156.535 86.583 158.397 90.1943 160.279 93.7849C170.368 113.072 169.591 109.586 154.601 122.308C119.65 132.253 83.7219 137.097 47.9585 142.788L48.0345 142.864C54.9796 137.979 55.8837 128.104 62.2905 122.592C76.7849 110.122 89.8245 102.393 96.1944 83.1099C98.3169 76.6315 105.135 73.9623 98.5245 72.9213C88.4561 71.3425 78.3877 69.139 68.2638 68.8092C43.9249 68.0177 23.1634 77.4375 5.07935 93.3397Z"/><path fill="#409FB0" d="M47.9585 142.796C83.722 137.105 119.65 132.262 154.602 122.316C154.624 129.531 154.83 136.763 154.63 143.978C154.326 154.993 150.706 158.703 139.61 159.138C133.446 159.379 127.281 158.963 121.105 158.829C102.891 158.439 85.6884 162.219 69.9406 171.633C52.5612 182.013 45.0346 193.758 40.7422 217C32.8662 214.702 31.6683 208.388 31.6272 201.811C31.545 188.413 31.6642 174.984 32.0751 161.58C32.5909 144.821 28.6703 129.838 17.8971 116.454C12.4355 109.667 6.80133 102.438 5.07532 93.3398C23.1574 77.4376 43.923 68.0178 68.2618 68.8114C78.3837 69.1412 88.4603 71.3446 98.5225 72.9235C105.133 73.9541 103.783 74.4365 101.648 80.9128C95.2945 100.2 83.272 115.632 68.7714 128.102C62.3625 133.616 54.9715 137.977 48.0181 142.862L47.5188 143.687L47.9585 142.796Z"/><path fill="#A2FDA4" d="M154.663 82.9781C142.31 80.8633 127.254 78.5444 114.77 76.5265C103.279 74.6714 101.278 78.7403 104.929 69.9451C111.505 54.0964 125.703 34.8509 142.515 29.3393C149.654 38.1344 153.406 48.1313 153.139 59.5442C152.952 67.3974 152.567 75.2692 154.663 82.9781Z"/></g><defs><clipPath id="clip0_17_28"><rect width="167" height="217" fill="#fff"/></clipPath></defs></svg>