<svg width="1080" height="514" viewBox="0 0 1080 514" fill="none" xmlns="http://www.w3.org/2000/svg">
<g clip-path="url(#clip0_50_455)">
<mask id="mask0_50_455" style="mask-type:alpha" maskUnits="userSpaceOnUse" x="-6" y="18" width="1080" height="593">
<rect x="-6" y="18" width="1080" height="593" fill="black"/>
</mask>
<g mask="url(#mask0_50_455)">
<path d="M745.769 398.606H745.212C745.014 398.493 744.844 398.326 744.72 398.12C744.596 397.915 744.522 397.679 744.503 397.433L742.934 375.094C742.919 374.846 742.962 374.597 743.06 374.372C743.158 374.147 743.306 373.953 743.491 373.81C743.683 373.687 743.902 373.623 744.124 373.623C744.346 373.623 744.564 373.687 744.757 373.81L762.982 383.471C763.187 383.559 763.364 383.713 763.49 383.911C763.616 384.11 763.686 384.346 763.691 384.588C763.716 384.833 763.683 385.08 763.594 385.306C763.505 385.531 763.364 385.727 763.185 385.873L746.478 398.494C746.258 398.612 746.01 398.651 745.769 398.606ZM745.769 377.272L747.035 394.696L760.096 384.812L745.769 377.272Z" fill="#2C3742" fill-opacity="0.18"/>
<path d="M356.654 467.854C356.489 467.907 356.313 467.907 356.148 467.854L330.43 456.294C330.226 456.213 330.047 456.07 329.913 455.883C329.779 455.696 329.695 455.471 329.67 455.233C329.634 454.994 329.657 454.748 329.737 454.521C329.817 454.295 329.952 454.097 330.126 453.949L352.098 435.129C352.283 435.011 352.492 434.949 352.705 434.949C352.919 434.949 353.128 435.011 353.313 435.129C353.527 435.217 353.715 435.367 353.857 435.564C354 435.761 354.092 435.996 354.123 436.246L357.92 466.291C357.946 466.535 357.912 466.783 357.823 467.008C357.734 467.234 357.593 467.429 357.414 467.575C357.191 467.75 356.927 467.847 356.654 467.854ZM333.417 454.507L355.085 464.28L351.895 438.703L333.417 454.507Z" fill="#2C3742" fill-opacity="0.18"/>
<path d="M82.5121 203.145C82.3638 203.196 82.2048 203.196 82.0565 203.145L42.1629 186.391C41.9546 186.293 41.7716 186.14 41.6302 185.945C41.4888 185.75 41.3935 185.52 41.3529 185.274C41.3215 185.035 41.347 184.791 41.4269 184.565C41.5067 184.34 41.6382 184.142 41.8085 183.99L75.0194 154.335C75.2002 154.206 75.4113 154.137 75.627 154.137C75.8427 154.137 76.0537 154.206 76.2345 154.335C76.4507 154.402 76.6437 154.538 76.7882 154.728C76.9328 154.917 77.0221 155.15 77.0445 155.396L83.7778 201.916C83.8085 202.164 83.7829 202.416 83.7034 202.65C83.6238 202.884 83.4928 203.092 83.3222 203.256C83.048 203.301 82.7679 203.263 82.5121 203.145ZM45.1499 184.436L80.8921 199.571L74.9182 157.63L45.1499 184.436Z" fill="#2C3742" fill-opacity="0.18"/>
<path d="M911.52 70.2315C911.372 70.283 911.212 70.283 911.064 70.2315C910.86 70.1432 910.678 69.9999 910.537 69.8146C910.395 69.6293 910.298 69.4078 910.254 69.1704L905.192 33.3732C905.154 33.1388 905.172 32.8977 905.243 32.6729C905.314 32.4481 905.435 32.247 905.597 32.0888C905.789 31.9662 906.007 31.9017 906.229 31.9017C906.452 31.9017 906.67 31.9662 906.862 32.0888L937.592 44.9892C937.797 45.0774 937.978 45.2208 938.12 45.4061C938.261 45.5914 938.358 45.8129 938.403 46.0502C938.439 46.2898 938.416 46.5358 938.336 46.7621C938.256 46.9883 938.121 47.1862 937.947 47.3347L912.634 70.2315C912.458 70.3178 912.269 70.3623 912.077 70.3623C911.885 70.3623 911.695 70.3178 911.52 70.2315ZM907.875 35.2161L912.431 66.2106L934.504 46.3853L907.875 35.2161Z" fill="#2C3742" fill-opacity="0.18"/>
<path d="M416.14 112.451H415.786C415.566 112.389 415.366 112.263 415.206 112.086C415.045 111.909 414.931 111.688 414.875 111.446L411.736 97.4844C411.671 97.2516 411.666 97.0039 411.719 96.7678C411.773 96.5316 411.883 96.316 412.04 96.1441C412.206 95.972 412.41 95.8507 412.632 95.7919C412.854 95.7332 413.086 95.7391 413.305 95.809L425.861 99.7741C426.073 99.8395 426.266 99.9677 426.417 100.145C426.569 100.322 426.674 100.541 426.721 100.779C426.774 101.017 426.769 101.267 426.707 101.502C426.645 101.737 426.527 101.95 426.367 102.12L417.001 112.116C416.885 112.233 416.749 112.323 416.602 112.38C416.454 112.438 416.297 112.462 416.14 112.451ZM414.723 99.1039L416.798 108.374L423.025 101.785L414.723 99.1039Z" fill="#2C3742" fill-opacity="0.18"/>
<path d="M36.4422 488.797C36.1236 488.777 35.8204 488.639 35.5816 488.406L25.9625 478.298C25.7975 478.132 25.6772 477.919 25.6146 477.683C25.5521 477.446 25.5499 477.195 25.6081 476.957C25.6552 476.719 25.7602 476.5 25.9119 476.323C26.0635 476.146 26.2561 476.018 26.4688 475.952L39.2266 471.82C39.4363 471.735 39.6642 471.721 39.8809 471.781C40.0976 471.841 40.293 471.971 40.4417 472.155C40.6067 472.321 40.7271 472.533 40.7896 472.77C40.8521 473.006 40.8543 473.257 40.7961 473.495L37.6572 487.736C37.6008 487.969 37.4926 488.183 37.3423 488.359C37.1921 488.534 37.0045 488.666 36.7966 488.741L36.4422 488.797ZM29.3039 477.628L35.7334 484.441L37.8091 474.891L29.3039 477.628Z" fill="#2C3742" fill-opacity="0.18"/>
<path d="M144.479 171.983H144.125C143.908 171.907 143.714 171.769 143.562 171.582C143.411 171.396 143.308 171.168 143.264 170.922L131.62 114.685C131.572 114.447 131.58 114.199 131.641 113.965C131.703 113.73 131.818 113.517 131.974 113.345C132.141 113.173 132.345 113.051 132.567 112.992C132.789 112.934 133.021 112.94 133.24 113.01L183.158 129.763C183.374 129.839 183.568 129.977 183.72 130.164C183.871 130.35 183.974 130.579 184.018 130.824C184.061 131.063 184.052 131.309 183.99 131.543C183.928 131.776 183.816 131.989 183.664 132.165L145.289 171.592C145.064 171.814 144.78 171.951 144.479 171.983ZM134.354 116.416L145.289 167.906L180.373 131.941L134.354 116.416Z" fill="#2C3742" fill-opacity="0.18"/>
<path d="M582.246 182.984C582.064 183.042 581.871 183.042 581.689 182.984L554.351 167.627C554.152 167.514 553.982 167.347 553.858 167.142C553.734 166.937 553.66 166.7 553.642 166.454C553.636 166.208 553.689 165.965 553.796 165.75C553.903 165.534 554.059 165.353 554.249 165.225L579.967 146.796C580.15 146.673 580.361 146.608 580.575 146.608C580.789 146.608 581 146.673 581.183 146.796C581.388 146.9 581.563 147.065 581.688 147.272C581.813 147.479 581.884 147.72 581.891 147.969L583.511 181.477C583.517 181.724 583.47 181.97 583.373 182.193C583.276 182.416 583.133 182.611 582.954 182.761C582.734 182.887 582.493 182.963 582.246 182.984ZM557.439 166.231L580.676 179.243L579.259 150.259L557.439 166.231Z" fill="#2C3742" fill-opacity="0.18"/>
<path d="M1079.45 224.255H1079.04C1078.84 224.167 1078.66 224.023 1078.52 223.838C1078.37 223.653 1078.28 223.431 1078.23 223.194L1062.39 139.76C1062.33 139.517 1062.34 139.263 1062.42 139.026C1062.49 138.789 1062.62 138.579 1062.79 138.42C1062.96 138.252 1063.17 138.138 1063.39 138.089C1063.61 138.04 1063.84 138.057 1064.06 138.14L1137.57 164.723C1137.78 164.783 1137.98 164.909 1138.13 165.087C1138.28 165.265 1138.39 165.488 1138.43 165.728C1138.48 165.971 1138.47 166.225 1138.4 166.462C1138.33 166.699 1138.2 166.909 1138.02 167.069L1080.31 223.92C1080.07 224.137 1079.76 224.255 1079.45 224.255ZM1065.32 141.491L1080.51 220.234L1134.83 166.622L1065.32 141.491Z" fill="#2C3742" fill-opacity="0.18"/>
<path d="M236.72 383.304C236.52 383.354 236.313 383.354 236.113 383.304L213.533 369.845C213.337 369.72 213.173 369.541 213.058 369.326C212.943 369.111 212.88 368.866 212.875 368.616C212.869 368.371 212.923 368.128 213.029 367.912C213.136 367.696 213.292 367.515 213.483 367.388L235.353 352.589C235.546 352.466 235.764 352.401 235.986 352.401C236.208 352.401 236.427 352.466 236.619 352.589C236.815 352.713 236.979 352.892 237.094 353.107C237.21 353.323 237.273 353.567 237.277 353.817L237.986 382.075C237.987 382.32 237.931 382.561 237.825 382.776C237.719 382.99 237.565 383.172 237.378 383.304C237.164 383.377 236.935 383.377 236.72 383.304ZM216.47 368.337L235.201 379.506L234.594 356.051L216.47 368.337Z" fill="#2C3742" fill-opacity="0.18"/>
<path d="M467.779 64.3122C467.577 64.3158 467.377 64.2611 467.199 64.1533C467.022 64.0456 466.873 63.8886 466.767 63.6978L450.82 38.3438C450.721 38.127 450.67 37.888 450.67 37.6457C450.67 37.4034 450.721 37.1644 450.82 36.9476C450.922 36.7284 451.073 36.5417 451.259 36.4049C451.445 36.2681 451.66 36.1858 451.883 36.1658L479.423 33.6527C479.65 33.6241 479.88 33.6666 480.086 33.7752C480.292 33.8839 480.466 34.0543 480.588 34.267C480.699 34.4793 480.757 34.72 480.757 34.9651C480.757 35.2102 480.699 35.4509 480.588 35.6632L468.64 63.5862C468.538 63.8053 468.386 63.9921 468.2 64.1289C468.014 64.2657 467.8 64.348 467.577 64.368L467.779 64.3122ZM454.11 38.7347L467.526 60.1237L477.652 36.6126L454.11 38.7347Z" fill="#2C3742" fill-opacity="0.18"/>
<path d="M133.898 46.9996H133.291C133.106 46.9021 132.948 46.7527 132.832 46.5664C132.717 46.3801 132.648 46.1636 132.632 45.9385L132.075 30.8601C131.966 30.5541 131.962 30.2143 132.064 29.9053C132.167 29.5964 132.369 29.3399 132.632 29.1847C132.825 29.0622 133.043 28.9977 133.265 28.9977C133.487 28.9977 133.706 29.0622 133.898 29.1847L145.998 36.1655C146.196 36.2785 146.366 36.4454 146.49 36.6506C146.614 36.8558 146.688 37.0924 146.707 37.3382C146.711 37.5914 146.658 37.8417 146.552 38.0662C146.446 38.2907 146.29 38.4821 146.099 38.6227L134.556 46.7762C134.353 46.9003 134.129 46.9763 133.898 46.9996ZM134.657 32.8706L135.164 43.0904L143.011 37.5058L134.657 32.8706Z" fill="#2C3742" fill-opacity="0.18"/>
<path d="M513.495 528.28L483.777 526.213C483.554 526.193 483.34 526.111 483.154 525.974C482.968 525.837 482.816 525.651 482.714 525.432C482.603 525.219 482.544 524.979 482.544 524.733C482.544 524.488 482.603 524.248 482.714 524.035L499.168 496.727C499.28 496.518 499.439 496.346 499.63 496.226C499.821 496.106 500.036 496.043 500.256 496.043C500.476 496.043 500.691 496.106 500.882 496.226C501.073 496.346 501.232 496.518 501.344 496.727L514.862 526.213C514.973 526.426 515.031 526.666 515.031 526.911C515.031 527.157 514.973 527.397 514.862 527.61C514.734 527.873 514.531 528.083 514.283 528.204C514.035 528.326 513.758 528.352 513.495 528.28ZM486.106 523.533L511.419 525.32L500.129 500.301L486.106 523.533Z" fill="#2C3742" fill-opacity="0.18"/>
<path d="M792.953 304.729H792.649C792.427 304.672 792.224 304.548 792.063 304.37C791.902 304.192 791.789 303.968 791.738 303.723L786.675 281.999C786.628 281.761 786.635 281.513 786.697 281.279C786.759 281.045 786.873 280.831 787.03 280.659C787.205 280.525 787.407 280.439 787.619 280.41C787.83 280.381 788.045 280.409 788.245 280.491L807.736 286.634C807.958 286.691 808.161 286.815 808.322 286.993C808.483 287.171 808.596 287.395 808.647 287.64C808.686 287.878 808.675 288.123 808.613 288.356C808.552 288.588 808.442 288.802 808.293 288.98L793.712 304.561C793.483 304.707 793.216 304.766 792.953 304.729ZM789.814 283.619L793.662 300.373L805.103 288.142L789.814 283.619Z" fill="#2C3742" fill-opacity="0.18"/>
<path d="M517.343 263.738C517.12 263.689 516.913 263.575 516.744 263.408C516.574 263.241 516.449 263.027 516.381 262.788L507.065 229.281C507.002 229.039 506.997 228.783 507.05 228.538C507.103 228.294 507.213 228.068 507.369 227.885C507.526 227.712 507.719 227.586 507.931 227.517C508.144 227.449 508.368 227.441 508.584 227.494L539.466 235.312C539.685 235.358 539.886 235.472 540.048 235.64C540.209 235.808 540.324 236.024 540.378 236.262C540.448 236.489 540.462 236.734 540.418 236.97C540.373 237.206 540.272 237.424 540.125 237.602L518.304 263.738C517.994 263.866 517.653 263.866 517.343 263.738ZM509.799 230.956L517.798 259.773L536.429 237.714L509.799 230.956Z" fill="#2C3742" fill-opacity="0.18"/>
<path d="M246.542 267.591L189.84 263.738C189.617 263.718 189.403 263.635 189.217 263.499C189.031 263.362 188.879 263.175 188.777 262.956C188.666 262.744 188.607 262.503 188.607 262.258C188.607 262.013 188.666 261.772 188.777 261.56L220.014 209.176C220.136 208.963 220.31 208.793 220.516 208.684C220.722 208.576 220.951 208.533 221.178 208.562C221.399 208.559 221.617 208.626 221.805 208.754C221.994 208.883 222.145 209.068 222.241 209.288L247.554 265.134C247.65 265.349 247.694 265.588 247.682 265.827C247.669 266.066 247.601 266.298 247.484 266.5C247.367 266.702 247.205 266.868 247.014 266.98C246.822 267.093 246.607 267.15 246.39 267.144L246.542 267.591ZM192.169 261.281L244.517 264.687L221.229 212.918L192.169 261.281Z" fill="#2C3742" fill-opacity="0.18"/>
<path d="M996.269 259.884H995.762L984.017 254.579C983.816 254.478 983.64 254.323 983.508 254.128C983.375 253.933 983.289 253.704 983.258 253.462C983.221 253.222 983.244 252.976 983.324 252.75C983.404 252.524 983.539 252.326 983.713 252.178L993.839 243.633C994.031 243.511 994.249 243.446 994.471 243.446C994.694 243.446 994.912 243.511 995.104 243.633C995.306 243.734 995.481 243.889 995.614 244.084C995.746 244.279 995.832 244.508 995.864 244.75L997.585 258.656C997.606 258.899 997.57 259.145 997.481 259.37C997.393 259.594 997.254 259.79 997.079 259.94C996.81 260.012 996.527 259.993 996.269 259.884ZM987.004 252.568L994.699 256.087L993.585 246.984L987.004 252.568Z" fill="#2C3742" fill-opacity="0.18"/>
<path d="M813.811 197.784C813.443 197.76 813.098 197.58 812.849 197.281L771.892 146.126C771.753 145.932 771.657 145.704 771.613 145.462C771.569 145.219 771.578 144.968 771.639 144.73C771.719 144.504 771.849 144.304 772.017 144.148C772.185 143.992 772.386 143.885 772.601 143.836L833.353 130.322C833.573 130.264 833.803 130.275 834.018 130.354C834.233 130.433 834.423 130.577 834.568 130.769C834.72 130.943 834.825 131.161 834.87 131.398C834.915 131.636 834.898 131.882 834.821 132.109L815.026 196.723C814.958 196.961 814.832 197.176 814.663 197.343C814.494 197.51 814.287 197.623 814.064 197.672L813.811 197.784ZM775.284 146.07L813.558 193.595L831.834 133.505L775.284 146.07Z" fill="#2C3742" fill-opacity="0.18"/>
<path d="M557.489 325.671H556.983C556.776 325.58 556.595 325.427 556.461 325.23C556.327 325.033 556.245 324.799 556.224 324.554L554.553 308.917C554.522 308.672 554.553 308.423 554.642 308.196C554.731 307.969 554.876 307.774 555.059 307.633C555.247 307.525 555.455 307.469 555.667 307.469C555.878 307.469 556.087 307.525 556.274 307.633L569.387 313.831C569.592 313.941 569.769 314.106 569.902 314.311C570.034 314.516 570.118 314.754 570.146 315.004C570.168 315.24 570.132 315.478 570.043 315.694C569.954 315.91 569.815 316.096 569.64 316.233L558.198 325.168C558.024 325.424 557.772 325.602 557.489 325.671ZM557.489 310.872L558.654 321.706L566.552 315.172L557.489 310.872Z" fill="#2C3742" fill-opacity="0.18"/>
<path d="M985.688 175.557H985.333C985.117 175.481 984.923 175.343 984.771 175.156C984.62 174.97 984.517 174.741 984.473 174.496L980.625 156.122C980.573 155.88 980.583 155.625 980.655 155.389C980.726 155.152 980.856 154.942 981.03 154.782C981.192 154.619 981.387 154.503 981.599 154.445C981.811 154.386 982.033 154.387 982.245 154.447L998.547 160.032C998.764 160.107 998.958 160.245 999.109 160.432C999.261 160.619 999.364 160.847 999.408 161.093C999.466 161.33 999.464 161.581 999.401 161.818C999.339 162.054 999.218 162.267 999.053 162.433L986.549 175.222C986.307 175.443 986.002 175.562 985.688 175.557ZM983.41 157.63L986.245 171.257L995.509 161.707L983.41 157.63Z" fill="#2C3742" fill-opacity="0.18"/>
<path d="M772.449 49.7919C772.192 49.7839 771.944 49.6861 771.74 49.5127L758.375 39.6279C758.182 39.4932 758.028 39.3012 757.929 39.074C757.831 38.8468 757.792 38.5937 757.818 38.3435C757.816 38.099 757.883 37.86 758.01 37.6597C758.137 37.4595 758.318 37.308 758.527 37.2266L773.057 29.1847C773.249 29.0622 773.467 28.9977 773.69 28.9977C773.912 28.9977 774.13 29.0622 774.322 29.1847C774.511 29.3104 774.664 29.4925 774.762 29.71C774.861 29.9275 774.901 30.1714 774.879 30.4133L773.816 48.1724C773.798 48.4182 773.723 48.6548 773.599 48.86C773.475 49.0652 773.306 49.2321 773.107 49.3451C772.94 49.5724 772.708 49.73 772.449 49.7919ZM761.564 38.6227L771.335 45.9385L772.145 32.9823L761.564 38.6227Z" fill="#2C3742" fill-opacity="0.18"/>
<path d="M1084.56 58.783C1084.34 58.7789 1084.12 58.7158 1083.93 58.5991C1083.74 58.4824 1083.57 58.3155 1083.45 58.1129L1073.63 40.3538C1073.51 40.1416 1073.46 39.9008 1073.46 39.6558C1073.46 39.4107 1073.51 39.1699 1073.63 38.9577C1073.72 38.7377 1073.87 38.5525 1074.06 38.4239C1074.25 38.2953 1074.47 38.2286 1074.69 38.2317L1093.52 37.6732C1093.74 37.6669 1093.96 37.7256 1094.16 37.8432C1094.36 37.9609 1094.52 38.1334 1094.64 38.3434C1094.75 38.5556 1094.81 38.7964 1094.81 39.0414C1094.81 39.2865 1094.75 39.5273 1094.64 39.7395L1085.67 58.0012C1085.56 58.2177 1085.4 58.3983 1085.2 58.5255C1085.01 58.6527 1084.79 58.7222 1084.56 58.7272V58.783ZM1076.82 41.024L1084.36 54.5946L1091.34 40.3538L1076.82 41.024Z" fill="#2C3742" fill-opacity="0.18"/>
<path d="M620.064 279.542C619.842 279.543 619.623 279.482 619.429 279.365C619.234 279.248 619.069 279.078 618.95 278.872L611.71 264.743C611.588 264.535 611.523 264.293 611.523 264.045C611.523 263.797 611.588 263.555 611.71 263.347C611.809 263.133 611.962 262.955 612.151 262.836C612.34 262.717 612.556 262.662 612.773 262.677H627.455C627.676 262.681 627.893 262.744 628.087 262.86C628.281 262.977 628.446 263.144 628.569 263.347C628.68 263.559 628.738 263.8 628.738 264.045C628.738 264.29 628.68 264.531 628.569 264.743L621.177 278.872C621.076 279.095 620.914 279.279 620.715 279.399C620.516 279.519 620.289 279.569 620.064 279.542ZM615.001 265.469L620.064 275.354L625.126 265.525L615.001 265.469Z" fill="#2C3742" fill-opacity="0.18"/>
<path d="M887.675 328.687H887.27C886.953 328.56 886.693 328.304 886.542 327.971C886.391 327.639 886.362 327.255 886.46 326.9C887.877 322.264 882.663 317.35 877.6 312.659C872.537 307.968 866.007 301.825 867.981 295.347C869.956 288.868 877.6 288.422 885.093 287.919C891.674 287.528 898.509 287.081 899.926 282.334C901.344 277.588 896.129 272.841 891.067 268.094C886.004 263.347 879.473 257.315 881.397 250.837C883.321 244.359 891.067 243.912 898.509 243.41C905.141 243.019 911.976 242.572 913.393 237.825C914.811 233.078 909.748 228.387 904.685 223.696C899.623 219.005 893.092 212.862 895.016 206.384C896.939 199.906 904.685 199.459 912.127 199.012C918.76 198.621 925.543 198.175 926.961 193.428C927.076 193.078 927.308 192.791 927.61 192.625C927.911 192.458 928.259 192.426 928.581 192.534C928.742 192.591 928.891 192.683 929.019 192.804C929.147 192.925 929.252 193.073 929.327 193.24C929.403 193.406 929.447 193.588 929.458 193.773C929.469 193.959 929.446 194.145 929.391 194.321C927.417 200.744 919.721 201.246 912.279 201.693C905.647 202.084 898.813 202.531 897.446 207.278C896.079 212.024 901.243 216.827 906.305 221.518C911.368 226.209 917.899 232.352 915.924 238.83C913.95 245.309 906.255 245.755 898.813 246.202C892.231 246.649 885.397 247.04 883.979 251.787C882.562 256.534 887.776 261.336 892.839 266.027C897.901 270.719 904.432 276.862 902.508 283.284C900.585 289.706 892.839 290.265 885.397 290.711C878.765 291.158 871.93 291.605 870.512 296.296C869.095 300.987 874.309 305.846 879.372 310.593C884.435 315.339 890.966 321.427 888.991 327.849C888.899 328.139 888.715 328.384 888.474 328.537C888.232 328.691 887.949 328.744 887.675 328.687Z" fill="#2C3742" fill-opacity="0.18"/>
<path d="M137.847 327.123C137.542 327.124 137.247 326.998 137.022 326.771C136.797 326.543 136.657 326.23 136.632 325.894C136.328 323.716 132.886 322.767 129.544 321.929C125.443 320.812 121.14 319.695 120.583 315.619C120.026 311.542 123.874 309.085 127.519 306.739C131.164 304.394 133.544 302.886 133.24 300.652C132.936 298.418 129.494 297.524 126.203 296.687C122.052 295.57 117.799 294.453 117.242 290.376C116.685 286.299 120.482 283.842 124.178 281.497C127.874 279.151 130.101 277.643 130.101 275.465C130.101 273.287 126.355 272.338 123.013 271.444C118.913 270.383 114.609 269.266 114.103 265.19C113.597 261.113 117.343 258.656 121.039 256.31C123.975 254.411 127.013 252.457 126.709 250.279C126.655 249.908 126.737 249.53 126.937 249.226C127.136 248.922 127.437 248.718 127.772 248.659C128.108 248.6 128.451 248.69 128.727 248.91C129.002 249.13 129.187 249.462 129.24 249.832C129.747 253.909 125.95 256.366 122.305 258.712C118.66 261.057 116.28 262.565 116.584 264.743C116.888 266.921 120.33 267.87 123.621 268.764C127.772 269.825 132.025 270.942 132.582 275.019C133.139 279.095 129.342 281.553 125.646 283.898C122.507 286.076 119.47 287.751 119.976 289.985C120.482 292.219 123.722 293.113 127.064 293.95C130.405 294.788 135.468 296.184 136.024 300.261C136.581 304.338 132.734 306.795 129.089 309.14C125.443 311.486 123.064 312.994 123.368 315.228C123.672 317.461 127.064 318.355 130.405 319.193C134.556 320.31 138.809 321.427 139.366 325.503C139.395 325.687 139.39 325.875 139.352 326.057C139.314 326.238 139.243 326.409 139.144 326.56C139.045 326.711 138.919 326.839 138.775 326.935C138.63 327.032 138.47 327.096 138.303 327.123H137.847Z" fill="#2C3742" fill-opacity="0.18"/>
<path d="M469.906 336.002C468.526 336.017 467.184 335.504 466.109 334.55C462.109 331.144 463.83 324.554 465.501 318.243C466.919 312.659 468.387 307.074 465.501 304.896C462.615 302.718 458.312 305.622 453.857 308.47C449.402 311.319 443.377 315.228 439.378 311.821C435.378 308.415 437.1 301.825 438.77 295.514C440.188 289.93 441.707 284.345 439.074 282.167C436.442 279.989 431.835 282.837 427.43 285.741C423.026 288.645 416.9 292.498 412.9 289.092C408.901 285.685 410.673 279.095 412.343 272.785C413.761 267.2 415.229 261.616 412.343 259.438C412.123 259.17 412.001 258.822 412.001 258.46C412.001 258.099 412.123 257.75 412.343 257.483C412.457 257.349 412.594 257.243 412.747 257.17C412.899 257.097 413.063 257.06 413.229 257.06C413.395 257.06 413.56 257.097 413.712 257.17C413.864 257.243 414.002 257.349 414.115 257.483C418.115 260.89 416.393 267.424 414.723 273.79C413.305 279.375 411.786 284.959 414.419 287.137C417.052 289.315 421.659 286.411 426.063 283.563C431.126 280.212 436.593 276.75 440.542 280.212C444.491 283.675 442.82 290.153 441.15 296.519C439.732 302.104 438.264 307.689 441.15 309.811C444.036 311.933 448.339 309.141 452.794 306.292C457.249 303.444 463.274 299.479 467.273 302.886C471.273 306.292 469.551 312.882 467.881 319.249C466.463 324.833 464.995 330.418 467.881 332.596C470.766 334.774 475.12 331.87 479.525 329.022C483.929 326.174 490.055 322.264 494.004 325.671C494.272 325.893 494.45 326.224 494.497 326.59C494.545 326.957 494.458 327.329 494.257 327.626C494.056 327.922 493.756 328.118 493.423 328.17C493.091 328.222 492.754 328.127 492.485 327.905C489.852 325.615 485.245 328.575 480.79 331.423C477.55 333.896 473.816 335.468 469.906 336.002Z" fill="#2C3742" fill-opacity="0.18"/>
<path d="M1016.06 113.289C1015.82 113.297 1015.57 113.221 1015.36 113.072C1015.15 112.922 1014.99 112.705 1014.9 112.451C1013.03 107.927 1016.87 103.571 1020.57 99.3271C1024.27 95.0828 1026.85 92.123 1025.63 89.3307C1024.42 86.5384 1019.81 86.7059 1015.51 86.8735C1010.44 87.1527 1004.72 87.3761 1002.9 82.7967C1001.08 78.2173 1004.82 73.9172 1008.52 69.6729C1012.22 65.4286 1014.85 62.4688 1013.58 59.6765C1012.32 56.8842 1007.81 56.9959 1003.46 57.2193C998.142 57.4985 992.674 57.7219 990.801 53.1425C988.928 48.5631 992.775 44.2072 996.471 40.0187C1000.17 35.8303 1002.8 32.8146 1001.53 29.9664C1000.27 27.1183 995.762 27.2858 991.408 27.5092C986.093 27.5092 980.625 28.0118 978.752 23.4325C978.682 23.2638 978.643 23.0816 978.637 22.8963C978.631 22.711 978.658 22.5262 978.717 22.3525C978.836 22.0016 979.076 21.7171 979.385 21.5616C979.693 21.4061 980.046 21.3923 980.364 21.5232C980.682 21.6541 980.94 21.919 981.081 22.2597C982.245 25.1637 986.852 24.9403 991.206 24.7169C996.269 24.7169 1001.99 24.2143 1003.86 28.7937C1005.74 33.373 1001.94 37.729 998.243 41.9733C994.547 46.2176 991.915 49.1775 993.18 52.0256C994.446 54.8737 998.952 54.6504 1003.31 54.427C1008.62 54.427 1014.09 53.9244 1015.96 58.5037C1017.84 63.0831 1013.99 67.4391 1010.29 71.6275C1006.6 75.816 1003.96 78.8316 1005.23 81.6798C1006.5 84.5279 1011 84.3045 1015.35 84.0812C1020.42 84.0812 1026.14 83.5786 1028.01 88.1579C1029.88 92.7373 1026.04 97.0933 1022.34 101.282C1018.65 105.47 1016.06 108.486 1017.28 111.334C1017.42 111.668 1017.43 112.048 1017.32 112.393C1017.2 112.738 1016.97 113.019 1016.67 113.177L1016.06 113.289Z" fill="#2C3742" fill-opacity="0.18"/>
<path d="M717.368 504.155C716.406 504.14 715.464 503.852 714.634 503.317C710.786 500.804 711.596 494.884 712.355 489.132C713.014 484.329 713.722 479.359 711.292 477.963C708.862 476.567 705.318 479.471 701.825 482.43C698.332 485.39 693.421 489.635 689.523 487.122C685.625 484.608 686.485 478.689 687.295 472.992C687.954 468.19 688.612 463.219 686.232 461.823C683.853 460.427 680.258 463.387 676.765 466.347C673.272 469.307 668.361 473.551 664.463 471.038C660.565 468.525 661.425 462.605 662.185 456.909C662.893 452.106 663.552 447.136 661.172 445.74C661.011 445.659 660.866 445.542 660.749 445.397C660.631 445.251 660.542 445.079 660.488 444.893C660.434 444.707 660.416 444.511 660.435 444.316C660.454 444.122 660.51 443.935 660.599 443.766C660.688 443.597 660.808 443.45 660.952 443.336C661.095 443.222 661.259 443.142 661.432 443.101C661.606 443.061 661.785 443.061 661.958 443.102C662.131 443.143 662.295 443.223 662.438 443.338C666.336 445.851 665.526 451.771 664.716 457.523C664.058 462.27 663.349 467.24 665.729 468.692C668.108 470.144 671.753 467.185 675.196 464.169C678.638 461.153 683.65 456.965 687.498 459.478C691.346 461.991 690.586 467.91 689.776 473.663C689.118 478.41 688.409 483.38 690.839 484.832C693.269 486.284 696.813 483.324 700.306 480.364C703.8 477.404 708.71 473.104 712.609 475.617C716.507 478.13 715.646 484.05 714.887 489.802C714.229 494.605 713.52 499.575 715.899 500.971C718.279 502.367 721.924 499.408 725.417 496.448C728.91 493.488 733.872 489.244 737.719 491.757C737.973 491.96 738.149 492.26 738.213 492.598C738.278 492.936 738.227 493.289 738.069 493.588C737.912 493.886 737.659 494.11 737.361 494.215C737.062 494.321 736.739 494.3 736.454 494.158C734.024 492.594 730.429 495.666 726.936 498.682C724.321 501.531 720.985 503.439 717.368 504.155Z" fill="#2C3742" fill-opacity="0.18"/>
<path d="M555.363 475.394C555.154 475.391 554.949 475.335 554.764 475.228C554.579 475.121 554.42 474.967 554.3 474.779C551.718 470.312 555.11 465.062 558.401 459.98C561.691 454.898 564.071 451.156 562.4 448.252C560.729 445.348 555.819 446.465 551.06 447.471C545.491 448.699 539.77 449.984 537.138 445.516C534.505 441.048 537.948 435.743 541.188 430.661C544.428 425.579 546.858 421.837 545.187 418.989C543.517 416.141 538.606 417.202 533.897 418.207C528.329 419.436 522.557 420.665 519.975 416.197C517.393 411.729 520.735 406.48 524.025 401.342C526.81 397.042 529.695 392.518 527.974 389.67C526.253 386.822 521.393 387.827 516.684 388.888C511.116 390.061 505.344 391.29 502.762 386.878C502.584 386.564 502.521 386.186 502.587 385.823C502.653 385.459 502.843 385.138 503.117 384.923C503.401 384.727 503.744 384.658 504.073 384.73C504.402 384.803 504.694 385.012 504.889 385.314C506.559 388.218 511.47 387.157 516.178 386.152C521.747 384.923 527.519 383.695 530.1 388.162C532.682 392.63 529.341 397.879 526.101 402.961C522.861 408.043 520.431 411.785 522.101 414.689C523.772 417.593 528.683 416.476 533.391 415.471C538.96 414.242 544.732 413.014 547.313 417.481C549.895 421.949 546.554 427.199 543.263 432.28C539.973 437.362 537.593 441.104 539.264 444.008C540.935 446.912 545.845 445.795 550.604 444.734C556.122 443.561 561.894 442.277 564.526 446.745C567.159 451.212 563.716 456.462 560.426 461.544C557.135 466.626 554.756 470.367 556.426 473.271C556.52 473.42 556.585 473.589 556.618 473.766C556.65 473.944 556.65 474.127 556.617 474.304C556.584 474.482 556.519 474.65 556.425 474.799C556.331 474.948 556.211 475.074 556.072 475.17C555.864 475.327 555.615 475.406 555.363 475.394Z" fill="#2C3742" fill-opacity="0.18"/>
<path d="M332.607 587.644C332.355 587.636 332.11 587.554 331.896 587.407C331.683 587.26 331.509 587.053 331.392 586.806C329.519 581.78 322.026 581.948 314.736 582.115C306.686 582.115 298.333 582.45 295.7 575.693C293.068 568.936 299.092 562.458 304.813 556.203C310.534 549.948 315.292 545.034 313.369 539.728C311.445 534.423 303.952 534.87 296.713 535.037C288.663 535.037 280.259 535.428 277.677 528.671C275.095 521.913 281.069 515.435 286.79 509.181C292.511 502.926 297.168 497.62 295.143 492.706C293.118 487.792 285.777 487.847 278.538 488.015C270.438 488.015 262.084 488.406 259.502 481.649C256.92 474.891 262.844 468.469 268.615 462.158C274.386 455.848 279.095 450.989 277.171 445.795C277.049 445.453 277.049 445.073 277.171 444.731C277.293 444.389 277.528 444.111 277.829 443.953C277.982 443.879 278.146 443.839 278.313 443.835C278.48 443.832 278.646 443.865 278.801 443.932C278.957 444 279.098 444.1 279.218 444.228C279.338 444.356 279.434 444.509 279.5 444.679C282.082 451.436 276.158 457.914 270.387 464.169C264.615 470.423 259.907 475.338 261.831 480.587C263.755 485.837 271.248 485.446 278.487 485.223C286.537 485.223 294.89 484.888 297.523 491.589C300.155 498.291 294.131 504.825 288.41 511.135C282.689 517.446 277.93 522.304 279.803 527.554C281.677 532.803 289.22 532.357 296.459 532.189C304.56 532.189 312.913 531.854 315.495 538.611C318.077 545.369 312.154 551.847 306.382 558.102C300.611 564.356 295.903 569.271 297.826 574.855C299.75 580.44 307.243 579.714 314.482 579.546C322.583 579.546 330.936 579.156 333.569 585.913C333.687 586.262 333.68 586.648 333.548 586.991C333.416 587.334 333.17 587.608 332.86 587.756L332.607 587.644Z" fill="#2C3742" fill-opacity="0.18"/>
<path d="M267.602 131.829C267.309 131.826 267.025 131.714 266.795 131.511C266.566 131.309 266.405 131.028 266.337 130.713C265.679 127.027 260.363 125.91 255.199 124.849C249.174 123.62 242.998 122.336 241.985 116.807C240.973 111.278 246.542 107.369 251.604 103.795C256.667 100.221 260.515 97.3725 259.857 93.6308C259.198 89.8891 253.883 88.8839 248.719 88.0462C242.694 86.8176 236.518 85.5332 235.505 80.0044C234.493 74.4757 239.809 70.6781 244.922 66.9923C250.035 63.3065 253.832 60.57 253.174 56.8842C252.516 53.1984 247.2 52.0814 242.036 51.2996C236.012 50.071 229.835 48.8424 228.823 43.2578C227.81 37.6732 233.126 33.9315 238.239 30.3015C243.352 26.6715 246.997 23.6 246.542 19.6908C246.505 19.5111 246.5 19.325 246.528 19.1432C246.556 18.9615 246.617 18.7877 246.706 18.632C246.796 18.4762 246.912 18.3415 247.049 18.2357C247.186 18.1299 247.341 18.055 247.504 18.0154C247.837 17.9624 248.177 18.0471 248.457 18.2532C248.737 18.4594 248.939 18.7724 249.023 19.1323C249.984 24.7169 244.719 28.4586 239.606 32.1444C234.493 35.8303 230.443 38.5109 231.354 42.2526C232.265 45.9942 237.378 46.9995 242.542 47.8372C248.516 49.0658 254.743 50.3502 255.705 55.879C256.667 61.4077 251.453 65.2052 246.339 68.8911C241.226 72.5769 237.125 75.5367 237.783 79.446C238.442 83.3552 243.808 84.2487 248.972 85.0305C254.946 86.2592 261.122 87.4878 262.135 93.0724C263.147 98.657 257.882 102.399 252.769 106.084C247.656 109.77 243.808 112.507 244.466 116.193C245.124 119.878 250.491 120.995 255.655 122.056C261.629 123.285 267.856 124.569 268.817 130.098C268.855 130.278 268.859 130.464 268.831 130.646C268.803 130.828 268.742 131.001 268.653 131.157C268.564 131.313 268.447 131.447 268.31 131.553C268.173 131.659 268.019 131.734 267.856 131.774L267.602 131.829Z" fill="#2C3742" fill-opacity="0.18"/>
<path d="M984.22 451.045C983.906 451.045 983.602 450.927 983.359 450.71C979.511 446.912 981.688 440.378 983.764 433.956C985.586 428.371 987.409 422.787 984.878 420.385C982.346 417.984 977.486 420.385 972.778 423.122C968.07 425.858 961.691 429.265 957.894 425.467C954.097 421.67 956.172 415.192 958.299 408.714C960.425 402.236 961.944 397.544 959.362 395.143C956.78 392.742 951.97 395.143 947.262 397.88C942.554 400.616 936.226 403.967 932.378 400.169C928.53 396.372 930.707 389.894 932.783 383.415C934.859 376.937 936.428 372.246 933.846 369.789C931.264 367.332 926.455 369.789 921.746 372.525C916.279 375.541 910.659 378.613 906.559 374.871C906.323 374.601 906.192 374.24 906.192 373.866C906.192 373.491 906.323 373.131 906.559 372.861C906.795 372.605 907.113 372.461 907.445 372.461C907.776 372.461 908.094 372.605 908.33 372.861C910.912 375.429 915.773 372.861 920.481 370.18C925.189 367.499 931.568 364.037 935.365 367.834C939.162 371.632 937.086 378.166 935.011 384.588C933.188 390.173 931.366 395.757 933.897 398.159C936.428 400.56 941.288 398.159 945.997 395.422C951.464 392.407 957.084 389.335 960.931 393.077C964.779 396.818 962.602 403.408 960.526 409.831C958.704 415.415 956.881 421 959.413 423.401C961.944 425.802 966.804 423.401 971.512 420.665C976.98 417.649 982.599 414.577 986.396 418.319C990.193 422.061 988.067 428.595 985.991 435.073C983.916 441.551 982.346 446.242 984.878 448.643C985 448.774 985.098 448.93 985.164 449.103C985.231 449.275 985.265 449.461 985.265 449.649C985.265 449.836 985.231 450.022 985.164 450.195C985.098 450.368 985 450.524 984.878 450.654C984.699 450.854 984.47 450.991 984.22 451.045Z" fill="#2C3742" fill-opacity="0.18"/>
<path d="M720.608 238.495C719.189 238.512 717.797 238.065 716.608 237.211C711.546 233.525 713.115 225.427 714.583 217.553C715.849 210.628 717.165 203.48 713.571 200.799C709.976 198.119 704.559 202.363 699.294 206.384C694.029 210.405 687.194 215.71 682.132 211.968C677.069 208.227 678.638 200.241 680.107 192.367C681.372 185.442 682.689 178.238 679.145 175.613C675.601 172.988 670.083 177.176 664.817 181.197C659.552 185.218 652.718 190.468 647.706 186.782C642.694 183.096 644.162 175.054 645.63 167.18C646.946 160.255 648.263 153.107 644.668 150.426C644.528 150.324 644.409 150.192 644.315 150.038C644.222 149.884 644.157 149.711 644.124 149.53C644.091 149.348 644.091 149.162 644.123 148.98C644.156 148.798 644.221 148.626 644.314 148.472C644.407 148.318 644.526 148.185 644.666 148.082C644.805 147.979 644.962 147.908 645.126 147.871C645.291 147.835 645.46 147.835 645.625 147.871C645.789 147.907 645.946 147.978 646.086 148.081C651.148 151.767 649.579 159.864 648.111 167.683C646.845 174.608 645.478 181.812 649.073 184.436C652.667 187.061 658.135 182.873 663.4 178.852C668.665 174.831 675.5 169.526 680.512 173.267C685.524 177.009 684.005 185.051 682.587 192.869C681.271 199.794 679.955 206.998 683.549 209.623C687.144 212.248 692.561 208.059 697.826 204.038C703.091 200.017 709.976 194.712 714.988 198.454C720 202.195 718.481 210.237 717.064 218.056C715.646 225.874 714.431 232.185 718.026 234.809C721.62 237.434 727.088 233.246 732.353 229.225C737.618 225.204 744.453 219.954 749.515 223.64C749.797 223.848 749.993 224.17 750.06 224.537C750.126 224.903 750.058 225.284 749.87 225.595C749.682 225.906 749.39 226.122 749.057 226.195C748.725 226.268 748.38 226.193 748.098 225.986C744.503 223.361 739.036 227.549 733.771 231.57C730.045 235.172 725.49 237.569 720.608 238.495Z" fill="#2C3742" fill-opacity="0.18"/>
<path d="M-1.52774 286.076C-2.15997 286.066 -2.78882 285.972 -3.40092 285.797C-9.77985 284.066 -10.9443 275.019 -12.0074 266.307C-13.0199 258.488 -14.0325 250.391 -18.7407 249.106C-23.449 247.822 -27.7522 254.691 -31.9036 260.834C-36.055 266.977 -41.3708 275.41 -47.7497 273.678C-54.1286 271.947 -55.293 262.9 -56.3562 254.188C-57.3181 246.37 -58.3306 238.272 -63.0389 236.988C-67.7471 235.703 -72.0504 242.572 -76.2524 248.771C-80.4544 254.97 -85.7701 263.124 -92.1491 261.336C-98.528 259.549 -99.6418 250.614 -100.705 241.846C-101.667 234.028 -102.781 225.986 -107.388 224.646C-107.55 224.607 -107.703 224.532 -107.838 224.425C-107.973 224.318 -108.086 224.182 -108.172 224.025C-108.257 223.868 -108.313 223.694 -108.334 223.512C-108.356 223.331 -108.344 223.146 -108.299 222.97C-108.263 222.79 -108.195 222.62 -108.099 222.469C-108.003 222.318 -107.881 222.189 -107.74 222.091C-107.599 221.992 -107.441 221.925 -107.276 221.894C-107.112 221.863 -106.943 221.868 -106.78 221.909C-100.401 223.64 -99.2874 232.688 -98.2242 241.399C-97.2117 249.218 -96.2498 257.316 -91.5416 258.6C-86.8333 259.884 -82.53 253.295 -78.3281 246.984C-74.1261 240.673 -68.8609 232.408 -62.482 234.139C-56.103 235.871 -54.9893 244.918 -53.9261 253.63C-52.9136 261.448 -51.9011 269.49 -47.1928 270.774C-42.4845 272.059 -38.1813 265.19 -34.0299 259.047C-29.8785 252.904 -24.5628 244.471 -18.1838 246.202C-11.8049 247.933 -10.6911 256.98 -9.57734 265.748C-8.56481 273.567 -7.55228 281.609 -2.84402 282.893C1.86423 284.177 6.16748 277.308 10.3695 271.165C14.5715 265.022 19.8366 256.59 26.2155 258.321C26.3797 258.366 26.5339 258.447 26.6691 258.559C26.8043 258.672 26.9177 258.813 27.0027 258.974C27.0876 259.135 27.1424 259.314 27.1637 259.499C27.185 259.684 27.1725 259.872 27.1268 260.052C27.0432 260.405 26.8373 260.709 26.5534 260.897C26.2695 261.084 25.9301 261.142 25.608 261.057C20.8998 259.773 16.5965 266.642 12.3945 272.785C8.19254 278.928 3.88929 286.076 -1.52774 286.076Z" fill="#2C3742" fill-opacity="0.18"/>
<path d="M431.075 197.17C428.847 197.17 427.987 194.377 427.278 192.255C426.924 191.082 426.316 189.239 425.81 189.239C425.304 189.239 424.544 190.971 424.089 192.143C423.228 194.21 422.165 196.723 419.937 196.667C417.71 196.611 416.849 193.93 416.14 191.752C415.786 190.58 415.178 188.737 414.672 188.737C414.115 188.737 413.406 190.468 412.951 191.641C412.495 192.814 411.078 196.22 408.951 196.22C406.724 196.22 405.863 193.484 405.154 191.362C404.8 190.133 404.192 188.346 403.635 188.29C403.079 188.234 402.42 190.021 401.914 191.194C401.104 193.26 400.092 195.773 397.915 195.773C397.748 195.766 397.585 195.723 397.434 195.646C397.283 195.569 397.147 195.46 397.034 195.325C396.921 195.19 396.834 195.032 396.776 194.86C396.719 194.688 396.693 194.505 396.7 194.321C396.706 194.138 396.745 193.958 396.815 193.791C396.885 193.624 396.984 193.475 397.106 193.35C397.228 193.226 397.371 193.129 397.528 193.066C397.684 193.002 397.85 192.974 398.016 192.981C398.573 192.981 399.231 191.25 399.737 190.077C400.547 188.011 401.61 185.498 403.838 185.498C406.066 185.498 406.977 188.29 407.635 190.412C408.04 191.641 408.648 193.428 409.154 193.428C409.66 193.428 410.419 191.697 410.875 190.58C411.736 188.458 412.748 185.944 415.026 186C417.305 186.056 418.115 188.737 418.823 190.915C419.178 192.088 419.785 193.93 420.292 193.93C420.849 193.93 421.557 192.199 422.013 191.026C422.874 188.96 423.987 186.503 426.164 186.503C428.341 186.503 429.253 189.239 429.961 191.362C430.316 192.59 430.923 194.377 431.429 194.433C431.598 194.432 431.765 194.47 431.919 194.545C432.073 194.619 432.212 194.728 432.326 194.864C432.441 195.001 432.528 195.162 432.583 195.338C432.638 195.513 432.659 195.7 432.644 195.885C432.635 196.091 432.584 196.292 432.496 196.473C432.408 196.655 432.285 196.813 432.135 196.936C431.985 197.059 431.812 197.143 431.629 197.184C431.445 197.224 431.256 197.219 431.075 197.17Z" fill="#2C3742" fill-opacity="0.18"/>
<path d="M189.486 466.291C189.289 466.291 189.096 466.24 188.92 466.143C188.744 466.046 188.591 465.906 188.473 465.732L155.111 416.085L149.39 458.361C149.371 458.632 149.272 458.889 149.107 459.091C148.942 459.293 148.721 459.429 148.479 459.478C148.239 459.553 147.984 459.545 147.749 459.455C147.513 459.365 147.308 459.197 147.162 458.975L108.382 401.342C108.285 401.192 108.216 401.022 108.179 400.842C108.141 400.663 108.137 400.477 108.165 400.295C108.193 400.113 108.254 399.939 108.343 399.784C108.433 399.628 108.549 399.493 108.686 399.387C108.923 399.132 109.241 398.988 109.572 398.988C109.903 398.988 110.221 399.132 110.458 399.387L147.365 454.284L153.035 412.064C153.081 411.79 153.195 411.535 153.365 411.328C153.535 411.121 153.754 410.97 153.997 410.892C154.237 410.824 154.489 410.836 154.723 410.925C154.957 411.015 155.162 411.178 155.313 411.394L190.752 463.778C190.873 463.903 190.969 464.054 191.035 464.223C191.101 464.391 191.135 464.572 191.135 464.755C191.135 464.938 191.101 465.119 191.035 465.287C190.969 465.456 190.873 465.607 190.752 465.732C190.603 465.939 190.408 466.1 190.186 466.198C189.964 466.296 189.723 466.328 189.486 466.291Z" fill="#2C3742" fill-opacity="0.18"/>
<path d="M346.377 278.034C346.149 278.035 345.926 277.968 345.73 277.84C345.534 277.712 345.373 277.529 345.263 277.308L328.557 243.298L321.773 268.596C321.688 268.855 321.538 269.081 321.341 269.249C321.143 269.417 320.907 269.52 320.659 269.546C320.412 269.593 320.158 269.547 319.937 269.416C319.717 269.284 319.543 269.074 319.444 268.82L299.193 228.164C299.106 228.005 299.049 227.827 299.028 227.642C299.006 227.458 299.019 227.27 299.067 227.091C299.115 226.913 299.195 226.747 299.304 226.605C299.413 226.462 299.548 226.347 299.7 226.265C299.849 226.179 300.012 226.126 300.18 226.11C300.348 226.094 300.517 226.116 300.677 226.173C300.838 226.23 300.986 226.322 301.114 226.443C301.241 226.565 301.346 226.713 301.421 226.879L319.95 264.575L326.734 239.277C326.831 239.025 326.994 238.811 327.201 238.66C327.408 238.509 327.65 238.428 327.898 238.428C328.147 238.428 328.389 238.509 328.596 238.66C328.803 238.811 328.966 239.025 329.063 239.277L347.238 276.247C347.387 276.576 347.417 276.954 347.323 277.306C347.229 277.659 347.018 277.959 346.732 278.146C346.609 278.127 346.49 278.089 346.377 278.034Z" fill="#2C3742" fill-opacity="0.18"/>
<path d="M879.372 527.554C879.123 527.625 878.862 527.625 878.613 527.554C878.492 527.429 878.395 527.277 878.329 527.109C878.263 526.941 878.229 526.76 878.229 526.577C878.229 526.394 878.263 526.212 878.329 526.044C878.395 525.876 878.492 525.725 878.613 525.599L899.623 494.94L876.385 498.514C876.137 498.569 875.879 498.534 875.65 498.413C875.422 498.292 875.236 498.092 875.12 497.844C874.971 497.616 874.891 497.343 874.891 497.062C874.891 496.782 874.971 496.508 875.12 496.28L900.028 459.98C900.141 459.847 900.279 459.74 900.431 459.668C900.583 459.595 900.748 459.557 900.914 459.557C901.08 459.557 901.244 459.595 901.396 459.668C901.549 459.74 901.686 459.847 901.8 459.98C902.032 460.241 902.161 460.592 902.161 460.958C902.161 461.323 902.032 461.674 901.8 461.935L878.714 495.443L901.952 491.924C902.2 491.869 902.458 491.904 902.686 492.025C902.915 492.146 903.101 492.346 903.217 492.594C903.361 492.814 903.439 493.078 903.439 493.348C903.439 493.619 903.361 493.883 903.217 494.102L880.587 527.163C880.431 527.336 880.237 527.462 880.025 527.53C879.813 527.599 879.588 527.607 879.372 527.554Z" fill="#2C3742" fill-opacity="0.18"/>
<path d="M1060.01 535.763C1059.67 535.763 1059.35 535.616 1059.11 535.354C1058.87 535.092 1058.74 534.737 1058.74 534.367L1057.78 496.336L1043.3 513.09C1043.13 513.297 1042.91 513.445 1042.67 513.515C1042.43 513.585 1042.17 513.573 1041.93 513.481C1041.7 513.38 1041.49 513.204 1041.35 512.975C1041.21 512.746 1041.13 512.475 1041.12 512.196L1040.16 474.556C1040.15 474.373 1040.18 474.19 1040.24 474.017C1040.3 473.845 1040.38 473.687 1040.5 473.552C1040.61 473.417 1040.75 473.308 1040.9 473.231C1041.05 473.154 1041.21 473.111 1041.38 473.104C1041.71 473.128 1042.02 473.282 1042.27 473.537C1042.51 473.793 1042.66 474.134 1042.69 474.5L1043.55 508.734L1058.03 491.98C1058.2 491.772 1058.42 491.624 1058.66 491.555C1058.91 491.485 1059.16 491.497 1059.4 491.589C1059.63 491.695 1059.83 491.873 1059.97 492.101C1060.12 492.328 1060.2 492.596 1060.21 492.873L1061.27 534.311C1061.28 534.495 1061.25 534.678 1061.2 534.85C1061.14 535.022 1061.05 535.18 1060.94 535.315C1060.83 535.45 1060.69 535.559 1060.54 535.636C1060.39 535.713 1060.22 535.756 1060.06 535.763H1060.01Z" fill="#2C3742" fill-opacity="0.18"/>
<path d="M843.174 68.2771C843.009 68.2507 842.85 68.1869 842.707 68.0896C842.565 67.9922 842.442 67.8635 842.347 67.7114C842.252 67.5593 842.187 67.3872 842.155 67.2058C842.123 67.0245 842.125 66.8378 842.162 66.6575L845.503 45.1569L834.821 53.5338C834.614 53.6974 834.367 53.7854 834.112 53.7854C833.858 53.7854 833.61 53.6974 833.404 53.5338C833.188 53.3972 833.017 53.188 832.917 52.9367C832.817 52.6855 832.792 52.4054 832.847 52.1376L837.099 24.829C837.137 24.4884 837.286 24.175 837.52 23.9484C837.753 23.7217 838.054 23.5979 838.365 23.6003C838.693 23.6682 838.984 23.8766 839.174 24.18C839.363 24.4834 839.437 24.8572 839.377 25.2199L835.631 49.2336L846.313 40.9126C846.525 40.7634 846.771 40.6841 847.022 40.6841C847.273 40.6841 847.519 40.7634 847.731 40.9126C847.946 41.0532 848.118 41.2608 848.226 41.5092C848.334 41.7577 848.373 42.0358 848.338 42.3087L844.44 67.1602C844.372 67.4754 844.211 67.7566 843.982 67.959C843.752 68.1614 843.468 68.2733 843.174 68.2771Z" fill="#2C3742" fill-opacity="0.18"/>
<path d="M906.204 134.063H905.698L889.143 126.077C888.985 126.011 888.842 125.909 888.721 125.778C888.601 125.647 888.507 125.49 888.445 125.316C888.383 125.143 888.355 124.957 888.362 124.771C888.368 124.584 888.41 124.402 888.485 124.235C888.628 123.903 888.883 123.647 889.196 123.521C889.508 123.396 889.853 123.411 890.156 123.564L903.875 130.154L900.787 121.386C900.683 121.133 900.656 120.848 900.71 120.576C900.765 120.304 900.899 120.06 901.091 119.879C901.295 119.734 901.532 119.657 901.774 119.657C902.017 119.657 902.254 119.734 902.458 119.879L917.646 127.083C917.946 127.241 918.182 127.519 918.304 127.861C918.426 128.203 918.426 128.584 918.304 128.926C918.244 129.1 918.151 129.258 918.032 129.391C917.913 129.523 917.771 129.627 917.614 129.695C917.456 129.764 917.288 129.795 917.119 129.788C916.95 129.78 916.785 129.734 916.633 129.652L904.382 123.788L907.52 132.556C907.61 132.812 907.629 133.092 907.575 133.36C907.521 133.628 907.396 133.873 907.217 134.063C907.059 134.147 906.886 134.191 906.71 134.191C906.535 134.191 906.362 134.147 906.204 134.063Z" fill="#2C3742" fill-opacity="0.18"/>
<path d="M1002.85 339.13C1002.53 339.117 1002.22 338.973 1001.99 338.726C1001.75 338.479 1001.61 338.145 1001.58 337.79C1001.57 337.604 1001.59 337.418 1001.65 337.242C1001.7 337.067 1001.79 336.905 1001.9 336.769C1002.02 336.632 1002.16 336.523 1002.31 336.449C1002.46 336.375 1002.63 336.337 1002.8 336.338L1063.55 332.317L1035.1 304.394C1034.92 304.202 1034.79 303.96 1034.73 303.694C1034.67 303.428 1034.67 303.149 1034.74 302.886C1034.83 302.619 1034.99 302.387 1035.2 302.219C1035.41 302.05 1035.65 301.952 1035.91 301.936L1093.83 298.139C1094 298.124 1094.17 298.147 1094.33 298.207C1094.49 298.266 1094.64 298.362 1094.77 298.487C1094.9 298.612 1095 298.765 1095.07 298.935C1095.15 299.106 1095.19 299.291 1095.19 299.479C1095.2 299.663 1095.17 299.846 1095.12 300.018C1095.06 300.19 1094.97 300.348 1094.86 300.483C1094.75 300.618 1094.61 300.727 1094.46 300.804C1094.31 300.881 1094.14 300.924 1093.98 300.931L1039.1 304.561L1067.5 332.484C1067.69 332.668 1067.82 332.91 1067.89 333.178C1067.95 333.447 1067.94 333.73 1067.85 333.992C1067.77 334.25 1067.62 334.477 1067.42 334.645C1067.23 334.813 1066.99 334.916 1066.74 334.941L1002.95 339.074L1002.85 339.13Z" fill="#2C3742" fill-opacity="0.18"/>
<path d="M122.052 526.772C121.733 526.773 121.425 526.641 121.191 526.403C120.956 526.165 120.811 525.838 120.786 525.488L119.672 511.359L114.609 518.283C114.449 518.501 114.232 518.66 113.988 518.739C113.745 518.819 113.485 518.816 113.242 518.73C113.005 518.642 112.796 518.479 112.643 518.26C112.49 518.041 112.399 517.777 112.382 517.502L110.661 498.291C110.632 497.929 110.732 497.569 110.94 497.288C111.148 497.006 111.447 496.825 111.774 496.783C111.941 496.768 112.108 496.789 112.267 496.845C112.426 496.901 112.573 496.992 112.7 497.111C112.827 497.231 112.931 497.377 113.007 497.541C113.083 497.705 113.128 497.884 113.141 498.067L114.407 513.928L119.47 507.003C119.63 506.785 119.847 506.626 120.091 506.547C120.334 506.467 120.594 506.47 120.836 506.556C121.071 506.65 121.276 506.815 121.428 507.033C121.581 507.25 121.674 507.511 121.697 507.784L123.115 525.264C123.13 525.631 123.018 525.991 122.802 526.271C122.586 526.551 122.281 526.73 121.95 526.772H122.052Z" fill="#2C3742" fill-opacity="0.18"/>
<path d="M-14.9437 418.599C-15.1779 418.6 -15.4076 418.528 -15.6052 418.389C-15.8028 418.25 -15.9599 418.052 -16.0574 417.817C-16.1427 417.658 -16.1961 417.481 -16.2139 417.298C-16.2318 417.115 -16.2136 416.93 -16.1608 416.755C-16.108 416.58 -16.0217 416.42 -15.9078 416.285C-15.7938 416.15 -15.655 416.044 -15.5006 415.974L31.6833 390.005L-2.84394 377.273C-3.0781 377.179 -3.28329 377.013 -3.43564 376.796C-3.588 376.578 -3.68126 376.318 -3.70459 376.044C-3.70766 375.771 -3.64334 375.502 -3.51849 375.265C-3.39365 375.029 -3.21299 374.835 -2.99582 374.704L51.9845 344.491C52.2808 344.334 52.6208 344.31 52.9326 344.425C53.2444 344.54 53.5035 344.784 53.6552 345.105C53.741 345.268 53.7948 345.449 53.813 345.636C53.8312 345.823 53.8135 346.013 53.7609 346.192C53.7084 346.371 53.6222 346.536 53.5081 346.676C53.3939 346.816 53.2543 346.928 53.0983 347.004L0.902416 375.709L35.379 388.442C35.6166 388.53 35.8252 388.693 35.9784 388.912C36.1317 389.131 36.2226 389.395 36.2397 389.67C36.2621 389.947 36.206 390.225 36.079 390.465C35.952 390.705 35.7605 390.896 35.5309 391.011L-14.3868 418.487C-14.5606 418.576 -14.7524 418.615 -14.9437 418.599Z" fill="#2C3742" fill-opacity="0.18"/>
<path d="M559.109 61.6869C558.791 61.6881 558.483 61.5564 558.248 61.3183C558.014 61.0801 557.869 60.7531 557.844 60.4025L556.629 43.9279L551.06 51.0762C550.907 51.2889 550.699 51.4454 550.464 51.5252C550.229 51.605 549.978 51.6042 549.743 51.523C549.5 51.4379 549.284 51.2764 549.122 51.0582C548.96 50.84 548.86 50.5746 548.832 50.2944L547.516 32.2561C547.502 32.0727 547.521 31.888 547.572 31.7128C547.623 31.5375 547.705 31.3751 547.814 31.235C547.922 31.0949 548.054 30.9797 548.203 30.8962C548.352 30.8127 548.514 30.7624 548.68 30.7483C548.847 30.733 549.014 30.7542 549.173 30.8106C549.332 30.867 549.479 30.9575 549.606 31.0768C549.733 31.1962 549.837 31.3421 549.913 31.5062C549.989 31.6703 550.034 31.8492 550.047 32.0328L551.11 46.7202L556.679 39.5161C556.828 39.2993 557.039 39.1433 557.277 39.0726C557.515 39.0018 557.768 39.0203 557.996 39.1252C558.235 39.2001 558.45 39.3513 558.612 39.5599C558.774 39.7685 558.876 40.0253 558.907 40.298L560.426 60.1791C560.441 60.5463 560.329 60.9062 560.113 61.186C559.897 61.4659 559.592 61.6449 559.261 61.6869H559.109Z" fill="#2C3742" fill-opacity="0.18"/>
<path d="M608.065 395.869C607.768 395.866 607.481 395.747 607.255 395.534C607.02 395.264 606.889 394.903 606.889 394.529C606.889 394.154 607.02 393.794 607.255 393.523L619.912 377.161L608.47 378.166C608.222 378.186 607.974 378.125 607.757 377.991C607.54 377.856 607.364 377.654 607.25 377.41C607.137 377.166 607.091 376.89 607.119 376.617C607.147 376.344 607.247 376.086 607.407 375.876L620.57 358.676C620.807 358.42 621.125 358.277 621.456 358.277C621.787 358.277 622.105 358.42 622.342 358.676C622.577 358.946 622.708 359.306 622.708 359.681C622.708 360.056 622.577 360.416 622.342 360.686L611.052 375.094L622.443 374.089C622.689 374.051 622.94 374.101 623.159 374.232C623.377 374.362 623.552 374.567 623.658 374.815C623.807 375.043 623.886 375.316 623.886 375.597C623.886 375.877 623.807 376.151 623.658 376.379L609.027 395.366C608.909 395.522 608.762 395.648 608.596 395.735C608.43 395.821 608.249 395.867 608.065 395.869Z" fill="#2C3742" fill-opacity="0.18"/>
<path d="M61.1985 82.3502C60.9328 82.3457 60.6745 82.2526 60.4576 82.0832C60.2407 81.9137 60.0754 81.6758 59.9835 81.4008L50.4151 49.0101L40.9479 69.6173C40.8362 69.8601 40.6601 70.0597 40.4431 70.1894C40.226 70.3191 39.9783 70.3727 39.7329 70.3433C39.4788 70.3408 39.2323 70.2467 39.0312 70.0752C38.8301 69.9038 38.6854 69.6645 38.6191 69.3939L27.0256 30.3017C26.9295 29.9536 26.9604 29.5779 27.1117 29.2545C27.263 28.9312 27.5227 28.6857 27.8357 28.5705C27.9911 28.5012 28.1584 28.4697 28.3259 28.4782C28.4934 28.4867 28.6573 28.535 28.8063 28.6199C28.9554 28.7047 29.086 28.8241 29.1894 28.9698C29.2927 29.1155 29.3663 29.2841 29.4051 29.4641L40.0366 65.373L49.5544 44.8217C49.652 44.563 49.8235 44.3467 50.0428 44.2055C50.2622 44.0644 50.5174 44.0062 50.7695 44.0398C51.0175 44.0656 51.2539 44.1685 51.451 44.3365C51.6482 44.5046 51.7981 44.7309 51.8832 44.9892L62.4135 80.5631C62.4688 80.739 62.4917 80.9253 62.4807 81.1111C62.4698 81.2968 62.4252 81.4783 62.3498 81.6448C62.2743 81.8113 62.1694 81.9595 62.0412 82.0806C61.9131 82.2018 61.7643 82.2934 61.6035 82.3502H61.1985Z" fill="#2C3742" fill-opacity="0.18"/>
<path d="M797.762 488.741C797.48 488.739 797.208 488.62 797.003 488.406C796.771 488.145 796.641 487.794 796.641 487.428C796.641 487.063 796.771 486.712 797.003 486.451L838.567 427.366L796.446 432.951C796.198 433.006 795.94 432.971 795.712 432.85C795.483 432.729 795.297 432.529 795.18 432.281C795.045 432.047 794.973 431.776 794.973 431.499C794.973 431.222 795.045 430.95 795.18 430.717L834.619 374.592C834.732 374.458 834.869 374.352 835.022 374.279C835.174 374.206 835.338 374.169 835.505 374.169C835.671 374.169 835.835 374.206 835.987 374.279C836.14 374.352 836.277 374.458 836.39 374.592C836.659 374.814 836.836 375.145 836.884 375.511C836.931 375.878 836.845 376.25 836.644 376.546L799.079 429.991L841.2 424.406C841.448 424.351 841.706 424.386 841.935 424.507C842.163 424.628 842.349 424.828 842.466 425.077C842.601 425.31 842.673 425.581 842.673 425.858C842.673 426.135 842.601 426.407 842.466 426.64L799.028 488.406C798.862 488.578 798.657 488.699 798.435 488.758C798.214 488.817 797.982 488.811 797.762 488.741Z" fill="#2C3742" fill-opacity="0.18"/>
<path d="M333.467 47.1671C333.132 47.1671 332.81 47.02 332.572 46.7582C332.335 46.4964 332.202 46.1412 332.202 45.771C332.202 45.4007 332.335 45.0456 332.572 44.7837C332.81 44.5219 333.132 44.3748 333.467 44.3748H354.224L344.099 33.7641C343.907 33.5831 343.773 33.3381 343.719 33.0661C343.664 32.7942 343.691 32.5099 343.795 32.2562C343.886 31.996 344.046 31.7719 344.253 31.6126C344.461 31.4534 344.707 31.3663 344.96 31.3627L371.133 30.9718C371.465 30.9856 371.78 31.1371 372.014 31.396C372.249 31.6549 372.387 32.0021 372.399 32.3679C372.399 32.7382 372.266 33.0933 372.028 33.3551C371.791 33.617 371.469 33.7641 371.133 33.7641L347.997 34.0991L358.122 44.7099C358.292 44.9077 358.409 45.1522 358.463 45.4176C358.516 45.6831 358.503 45.9595 358.426 46.2177C358.33 46.4738 358.169 46.694 357.962 46.8523C357.756 47.0107 357.513 47.1005 357.262 47.1113L333.467 47.4463V47.1671Z" fill="#2C3742" fill-opacity="0.18"/>
<path d="M681.524 91.3972H681.069L610.698 63.8093C610.381 63.6824 610.12 63.4264 609.97 63.0939C609.819 62.7614 609.79 62.3779 609.888 62.0222C610.002 61.6743 610.237 61.3906 610.541 61.2335C610.844 61.0764 611.192 61.0588 611.508 61.1845L679.043 87.5997L659.755 42.9229C659.606 42.6951 659.527 42.4216 659.527 42.1411C659.527 41.8606 659.606 41.5871 659.755 41.3592C659.917 41.1623 660.128 41.0209 660.361 40.9516C660.594 40.8823 660.841 40.8881 661.071 40.9683L725.063 66.0431C725.369 66.1764 725.617 66.4362 725.752 66.7675C725.888 67.0987 725.901 67.4752 725.789 67.817C725.677 68.1587 725.449 68.4388 725.152 68.5977C724.856 68.7566 724.515 68.7818 724.202 68.6679L663.349 44.6541L682.638 89.3309C682.786 89.5588 682.866 89.8322 682.866 90.1127C682.866 90.3933 682.786 90.6667 682.638 90.8946C682.505 91.0738 682.333 91.2135 682.139 91.3013C681.944 91.389 681.733 91.422 681.524 91.3972Z" fill="#2C3742" fill-opacity="0.18"/>
<path d="M441.808 463.498C441.527 463.495 441.256 463.389 441.036 463.197C440.816 463.005 440.66 462.738 440.593 462.437L426.063 392.183L404.192 430.493C404.055 430.718 403.862 430.893 403.637 430.998C403.411 431.104 403.163 431.135 402.922 431.087C402.68 431.04 402.457 430.917 402.278 430.732C402.099 430.547 401.973 430.309 401.914 430.047L388.093 363.032C388.056 362.852 388.051 362.666 388.079 362.484C388.108 362.302 388.168 362.129 388.258 361.973C388.347 361.817 388.464 361.682 388.601 361.576C388.737 361.471 388.892 361.396 389.055 361.356C389.218 361.307 389.389 361.295 389.557 361.323C389.724 361.351 389.884 361.416 390.027 361.516C390.17 361.616 390.293 361.748 390.387 361.903C390.481 362.058 390.545 362.233 390.574 362.417L403.484 425.691L425.354 387.436C425.482 387.199 425.67 387.009 425.895 386.89C426.12 386.771 426.373 386.728 426.62 386.766C426.862 386.82 427.085 386.949 427.264 387.136C427.443 387.324 427.571 387.563 427.632 387.827L442.82 461.656C442.897 462.011 442.845 462.385 442.675 462.698C442.504 463.012 442.229 463.239 441.909 463.331L441.808 463.498Z" fill="#2C3742" fill-opacity="0.18"/>
<path d="M684.562 370.404C684.345 370.461 684.12 370.461 683.903 370.404C683.613 370.207 683.402 369.893 683.317 369.528C683.232 369.163 683.279 368.776 683.448 368.449L701.015 336.338L680.765 341.922C680.52 341.976 680.266 341.953 680.033 341.854C679.8 341.755 679.597 341.585 679.448 341.364C679.3 341.136 679.22 340.862 679.22 340.582C679.22 340.301 679.3 340.028 679.448 339.8L697.117 307.912C697.294 307.604 697.574 307.386 697.895 307.302C698.217 307.219 698.555 307.277 698.838 307.465C699.126 307.652 699.335 307.956 699.42 308.311C699.505 308.667 699.46 309.045 699.294 309.364L683.498 338.236L703.749 332.652C703.989 332.577 704.244 332.584 704.479 332.674C704.714 332.764 704.919 332.932 705.065 333.154C705.201 333.388 705.273 333.659 705.273 333.936C705.273 334.213 705.201 334.485 705.065 334.718L685.625 369.845C685.505 370.03 685.345 370.178 685.159 370.276C684.973 370.374 684.767 370.418 684.562 370.404Z" fill="#2C3742" fill-opacity="0.18"/>
<path d="M311.799 359.346C311.534 359.427 311.254 359.427 310.989 359.346L299.345 349.182C299.11 348.911 298.979 348.551 298.979 348.176C298.979 347.802 299.11 347.442 299.345 347.171C299.588 346.928 299.903 346.793 300.231 346.793C300.559 346.793 300.875 346.928 301.117 347.171L310.382 355.269L309.42 347.506C309.4 347.238 309.45 346.968 309.566 346.731C309.682 346.493 309.857 346.298 310.071 346.168C310.285 346.038 310.529 345.979 310.773 345.999C311.017 346.018 311.25 346.115 311.445 346.278L322.076 355.492C322.307 355.732 322.448 356.059 322.47 356.408C322.493 356.757 322.396 357.103 322.198 357.376C322.001 357.65 321.718 357.832 321.405 357.887C321.091 357.941 320.771 357.864 320.507 357.67L312.356 350.634L313.116 357.782C313.139 358.06 313.09 358.339 312.973 358.587C312.856 358.835 312.677 359.04 312.457 359.178L311.799 359.346Z" fill="#2C3742" fill-opacity="0.18"/>
<path d="M311.344 158.412C311.008 158.412 310.686 158.265 310.449 158.003C310.211 157.742 310.078 157.386 310.078 157.016C310.078 156.646 310.211 156.291 310.449 156.029C310.686 155.767 311.008 155.62 311.344 155.62L340.15 148.695L323.342 136.8C323.062 136.699 322.822 136.492 322.665 136.217C322.508 135.942 322.443 135.615 322.481 135.292C322.531 135.025 322.647 134.779 322.817 134.581C322.987 134.384 323.204 134.243 323.443 134.175L358.477 125.742C358.806 125.668 359.148 125.741 359.428 125.946C359.708 126.15 359.903 126.469 359.97 126.831C360.037 127.194 359.971 127.572 359.786 127.881C359.601 128.19 359.312 128.405 358.983 128.479L327.038 136.241L343.846 148.137C344.051 148.298 344.212 148.52 344.31 148.776C344.408 149.032 344.44 149.313 344.403 149.589C344.353 149.856 344.237 150.102 344.067 150.299C343.897 150.497 343.68 150.638 343.441 150.706L311.597 158.356L311.344 158.412Z" fill="#2C3742" fill-opacity="0.18"/>
<path d="M494.611 143.11H494.308L478.816 139.257C478.653 139.218 478.498 139.143 478.361 139.037C478.224 138.931 478.108 138.796 478.018 138.641C477.929 138.485 477.868 138.311 477.84 138.129C477.812 137.948 477.817 137.761 477.854 137.582C477.938 137.225 478.142 136.918 478.424 136.721C478.706 136.524 479.045 136.452 479.373 136.521L491.877 139.648L488.03 133.002C487.895 132.769 487.823 132.498 487.823 132.221C487.823 131.943 487.895 131.672 488.03 131.439C488.169 131.206 488.371 131.027 488.607 130.927C488.843 130.827 489.101 130.811 489.346 130.88L503.42 134.343C503.739 134.423 504.018 134.637 504.197 134.939C504.376 135.241 504.443 135.607 504.382 135.962C504.353 136.146 504.289 136.321 504.195 136.476C504.101 136.632 503.979 136.763 503.836 136.863C503.693 136.963 503.532 137.029 503.365 137.057C503.197 137.084 503.027 137.073 502.863 137.023L491.776 134.343L495.624 140.877C495.74 141.087 495.804 141.327 495.808 141.573C495.813 141.819 495.759 142.063 495.651 142.278C495.543 142.494 495.385 142.674 495.194 142.8C495.002 142.927 494.784 142.995 494.561 142.999L494.611 143.11Z" fill="#2C3742" fill-opacity="0.18"/>
<path d="M1082.74 410.501H1082.43L1054.89 402.85C1054.57 402.745 1054.29 402.507 1054.12 402.185C1053.95 401.863 1053.9 401.481 1053.98 401.118C1054.07 400.765 1054.27 400.462 1054.56 400.274C1054.84 400.086 1055.18 400.028 1055.5 400.113L1080.06 406.926L1072.31 392.574C1072.16 392.346 1072.08 392.073 1072.08 391.792C1072.08 391.512 1072.16 391.238 1072.31 391.01C1072.46 390.794 1072.67 390.631 1072.9 390.541C1073.13 390.452 1073.39 390.44 1073.63 390.508L1098.64 397.433C1098.96 397.537 1099.23 397.775 1099.4 398.097C1099.57 398.42 1099.62 398.801 1099.55 399.164C1099.46 399.517 1099.26 399.82 1098.97 400.008C1098.69 400.196 1098.35 400.254 1098.03 400.169L1075.95 394.026L1083.75 408.378C1083.89 408.612 1083.96 408.883 1083.96 409.16C1083.96 409.437 1083.89 409.709 1083.75 409.942C1083.63 410.116 1083.48 410.256 1083.3 410.353C1083.13 410.45 1082.93 410.501 1082.74 410.501Z" fill="#2C3742" fill-opacity="0.18"/>
</g>
</g>
<defs>
<clipPath id="clip0_50_455">
<rect width="1094" height="1081" fill="white" transform="translate(-6 -567)"/>
</clipPath>
</defs>
</svg>
