<svg xmlns="http://www.w3.org/2000/svg" width="404" height="138" fill="none" viewBox="0 0 404 138"><path fill="#00CC8D" d="M403.519 14.9008C402.833 15.2962 402.089 16.297 401.346 15.6545C400.775 15.2242 400.125 14.93 399.441 14.7915C398.756 14.6531 398.052 14.6735 397.376 14.8514C392.628 15.4692 387.949 14.8514 383.247 14.3943C376.005 13.6776 368.763 12.8498 361.51 12.8127C349.417 12.8127 337.313 12.9363 325.22 13.0104H318.562C318.647 13.1591 318.759 13.2881 318.89 13.3899C319.022 13.4917 319.171 13.5643 319.328 13.6035C323.447 14.7032 327.554 15.8646 331.604 17.2113C343.296 21.1404 355.011 25.0201 365.766 31.5562C374.06 36.5973 381.714 42.5033 386.988 51.3252C388.901 54.3669 390.207 57.8045 390.826 61.4202C391.444 65.0359 391.361 68.7509 390.58 72.3298C388.978 79.5702 384.482 84.8708 379.174 89.0593C371.52 95.1012 362.94 99.4628 354.165 103.293C341.362 108.666 328.246 113.124 314.901 116.637C301.893 120.282 288.771 123.42 275.603 126.349C259.368 129.944 242.974 132.526 226.511 134.615C213.538 136.233 200.495 137.012 187.453 137.506C168.702 138.222 149.951 138.111 131.2 137.506C111.076 136.764 90.9179 136.493 70.8626 134.293C55.4407 132.563 40.2134 129.66 25.5695 123.976C17.2636 120.702 9.48406 116.501 3.52354 109.026C-0.320485 104.195 -0.858191 99.0427 1.1439 93.3714C3.146 87.7002 6.65825 83.1286 10.6052 78.9524C16.2241 73.3131 22.4056 68.3653 29.036 64.1998C46.5201 52.62 65.2956 43.4861 84.9116 37.0174C96.9356 33.0389 109.108 29.6658 121.338 26.5398C132.401 23.7104 143.499 21.0045 154.71 18.9535C170.567 16.0499 186.458 13.307 202.44 11.3054C203.264 11.2065 204.076 11.0212 204.889 10.8729C204.506 10.6044 204.05 10.4825 203.596 10.527C179.487 10.4775 155.404 11.3012 131.349 12.9981C114.954 14.1348 98.5716 15.4692 82.1544 16.7048C69.5698 17.6191 56.9852 18.5334 44.3091 17.9403C40.385 17.755 36.4609 17.5326 32.2164 17.3226C32.6473 16.8381 33.2315 16.5468 33.8524 16.5071C39.2066 15.4198 44.5608 14.3078 49.8692 13.3193C59.7538 11.4783 69.6842 10.0327 79.6146 8.90837C91.5013 7.58632 103.377 6.10364 115.298 5.20168C126.155 4.3615 137.035 3.32362 147.857 2.56993C158.68 1.81624 169.697 1.23553 180.612 0.691879C195.198 -0.0494537 209.797 -0.247147 224.395 0.444763C238.787 1.12433 253.156 2.10042 267.491 3.65723C271.507 4.08968 275.5 5.00398 279.561 4.89279C287.741 4.70746 295.932 4.44798 304.112 4.37386C310.805 4.37386 317.498 4.37386 324.191 4.52213C331.276 4.45343 338.358 4.83713 345.401 5.6712C358.924 7.62338 372.538 8.57477 386.107 9.9586C389.287 10.0941 392.448 10.5616 395.545 11.3548C397.723 12.1972 399.978 12.7854 402.272 13.1093C402.902 13.1093 403.554 13.2823 403.828 14.0236C404.126 14.4437 403.851 14.7402 403.519 14.9008ZM297.786 19.6207C288.359 17.6932 278.886 16.0746 269.356 14.9379C265.558 14.4931 261.748 15.0615 257.916 15.1974C242.368 16.0376 226.877 17.6685 211.433 19.633C195.015 21.6964 178.655 24.1676 162.33 26.9352C148.899 29.221 135.582 32.0628 122.288 35.1641C110.561 37.9194 98.8347 40.8847 87.2798 44.5914C71.0113 49.8055 55.0746 56.0327 40.0418 64.7064C33.4371 68.3908 27.2873 72.957 21.7369 78.2976C17.1607 82.8321 13.4768 88.1821 12.1383 95.0147C11.6192 97.2009 11.7349 99.5064 12.4695 101.619C13.2042 103.732 14.5223 105.55 16.2454 106.827C20.8216 110.632 26.0729 113.005 31.4499 114.994C44.0212 119.548 57.027 122.561 70.2219 123.976C86.6048 125.978 103.068 126.447 119.531 126.88C131.944 127.189 144.368 127.597 156.793 127.856C166.711 128.066 176.619 127.856 186.538 127.572C196.457 127.288 206.662 126.843 216.707 125.978C227.644 125.051 238.558 123.766 249.427 121.987C259.471 120.344 269.539 118.812 279.538 116.822C290.155 114.722 300.703 112.288 311.206 109.619C318.939 107.655 326.639 105.517 334.258 103.095C346.008 99.3886 357.666 95.3113 368.385 88.7628C374.643 84.9325 379.014 79.1625 380.341 71.3784C381.759 63.026 378.968 56.008 373.259 50.3739C366.532 43.7018 358.592 39.1673 350.184 35.5471C333.263 28.0349 315.667 23.278 297.786 19.6207Z"/></svg>