<svg xmlns="http://www.w3.org/2000/svg" width="166" height="70" fill="none" viewBox="0 0 166 70"><path fill="#00CC8D" d="M0 0H131C150.33 0 166 15.67 166 35C166 54.33 150.33 70 131 70H0V0Z"/><path fill="#fff" d="M35.84 20.04C37.68 18.44 39.9067 17.64 42.52 17.64C45.0533 17.64 47.2267 18.4 49.04 19.92C50.88 21.44 51.8 23.5733 51.8 26.32C51.8 28.5867 50.6133 30.9733 48.24 33.48L40.6 41.56H52L51.96 46H33.48V42.8L44.92 30.68C46.3867 29.0533 47.1467 27.64 47.2 26.44C47.2 26.36 47.2 26.28 47.2 26.2C47.2 24.9733 46.76 23.9333 45.88 23.08C45.0267 22.2267 43.9067 21.8 42.52 21.8C41.1067 21.8 39.9333 22.2667 39 23.2C38.0933 24.1333 37.6133 25.28 37.56 26.64H32.96C33.04 23.84 34 21.64 35.84 20.04ZM67.1463 24.8H71.7463V27.52C73.2663 25.4667 75.2263 24.44 77.6263 24.44C79.0129 24.44 80.2929 24.7867 81.4663 25.48C82.6663 26.1467 83.6129 27.1333 84.3063 28.44C85.0796 27.1867 86.1063 26.2133 87.3863 25.52C88.6929 24.8 90.0529 24.44 91.4663 24.44C93.6263 24.44 95.4929 25.2133 97.0663 26.76C98.6396 28.28 99.4263 30.36 99.4263 33V46H94.8263V34.12C94.8263 32.4133 94.4529 31.08 93.7063 30.12C92.9596 29.1333 91.9063 28.64 90.5463 28.64C89.0263 28.64 87.8396 29.1467 86.9863 30.16C86.1596 31.1733 85.6929 32.4533 85.5863 34V46H80.9863V34.12C80.9863 32.4133 80.6129 31.08 79.8663 30.12C79.1196 29.1333 78.0796 28.64 76.7463 28.64C75.0929 28.64 73.8396 29.2133 72.9863 30.36C72.1596 31.5067 71.7463 32.9333 71.7463 34.64V46H67.1463V24.8ZM108.273 24.8V46H103.673V24.8H108.273ZM103.913 17.4C104.5 16.84 105.207 16.56 106.033 16.56C106.86 16.56 107.553 16.84 108.113 17.4C108.7 17.9333 108.993 18.6133 108.993 19.44C108.993 20.2667 108.713 20.9467 108.153 21.48C107.567 22.04 106.86 22.32 106.033 22.32C105.207 22.32 104.5 22.0533 103.913 21.52C103.327 20.96 103.033 20.2667 103.033 19.44C103.033 18.64 103.327 17.96 103.913 17.4ZM112.808 24.8H117.408V27.6C119.034 25.4933 121.234 24.44 124.008 24.44C126.434 24.44 128.514 25.2267 130.248 26.8C132.008 28.3467 132.888 30.4133 132.888 33V46H128.288V34.24C128.288 32.56 127.781 31.2267 126.768 30.24C125.781 29.2267 124.554 28.72 123.088 28.72C121.408 28.72 120.034 29.3333 118.968 30.56C117.928 31.76 117.408 33.2667 117.408 35.08V46H112.808V24.8Z"/></svg>