<svg xmlns="http://www.w3.org/2000/svg" width="234" height="292" fill="none" viewBox="0 0 234 292"><path fill="#000" d="M117 0C52.3809 0 0 17.4389 0 38.9333C0 38.9333 0 91.3767 0 149.244C0 182.221 35.2168 273.066 117 292C198.783 273.066 234 182.221 234 149.244C234 91.3767 234 38.9333 234 38.9333C234 17.4389 181.619 0 117 0ZM65 58.4C87.3438 58.4 98.7695 78.3483 101.156 80.7056C104.965 84.5076 104.965 90.6924 101.156 94.4691C97.3477 98.2712 91.1524 98.2712 87.3691 94.4691C84.6777 91.8076 75.9688 71.3778 58.5 71.3778C49.4863 71.3778 38.6953 75.5347 26 84.3556C38.0605 64.1031 52.0254 58.4 65 58.4ZM84.5 107.067C78.5332 112.947 69.1641 116.8 58.5 116.8C47.8359 116.8 38.4668 112.947 32.5 107.067C38.4668 101.186 47.8359 97.3333 58.5 97.3333C69.1641 97.3333 78.5332 101.186 84.5 107.067ZM130 266.044L117 279.022L104 266.044V233.6H130V266.044ZM175.5 207.644H130L117 194.667L104 207.644H58.5L26 155.733L65 188.178H91L110.5 168.711H123.5L143 188.178H169L208 155.733L175.5 207.644ZM149.5 107.067C155.467 101.186 164.836 97.3333 175.5 97.3333C186.164 97.3333 195.533 101.186 201.5 107.067C195.533 112.947 186.164 116.8 175.5 116.8C164.836 116.8 155.467 112.947 149.5 107.067ZM175.5 71.3778C158.031 71.3778 149.322 91.8076 146.656 94.4944C142.848 98.2965 136.652 98.2965 132.869 94.4944C129.061 90.6924 129.061 84.5076 132.869 80.7309C135.23 78.3483 146.656 58.4 169 58.4C181.975 58.4 195.939 64.1031 208 84.3556C195.305 75.5347 184.514 71.3778 175.5 71.3778Z"/></svg>