<svg xmlns="http://www.w3.org/2000/svg" width="75" height="75" fill="none" viewBox="0 0 75 75"><path fill="#C4C4C4" d="M37.5 0C16.7888 0 0 16.7888 0 37.5C0 58.2112 16.7888 75 37.5 75C58.2112 75 75 58.2112 75 37.5C75 16.7888 58.2112 0 37.5 0ZM37.5 56.8548C34.8281 56.8548 32.6613 54.688 32.6613 52.0161C32.6613 49.3443 34.8281 47.1774 37.5 47.1774C40.1719 47.1774 42.3387 49.3443 42.3387 52.0161C42.3387 54.688 40.1719 56.8548 37.5 56.8548ZM37.5 37.5C29.4829 37.5 22.9839 43.999 22.9839 52.0161C22.9839 60.0333 29.4829 66.5323 37.5 66.5323C21.4657 66.5323 8.46774 53.5343 8.46774 37.5C8.46774 21.4657 21.4657 8.46774 37.5 8.46774C45.5171 8.46774 52.0161 14.9667 52.0161 22.9839C52.0161 31.001 45.5171 37.5 37.5 37.5ZM37.5 18.1452C34.8281 18.1452 32.6613 20.312 32.6613 22.9839C32.6613 25.6557 34.8281 27.8226 37.5 27.8226C40.1719 27.8226 42.3387 25.6557 42.3387 22.9839C42.3387 20.312 40.1719 18.1452 37.5 18.1452Z"/></svg>