<svg xmlns="http://www.w3.org/2000/svg" width="102" height="116" fill="none" viewBox="0 0 102 116"><path fill="#000" d="M99.2679 36.25H2.73214C1.22332 36.25 0 35.0327 0 33.5312V25.375C0 19.3688 4.89281 14.5 10.9286 14.5H21.8571V2.71875C21.8571 1.21732 23.0805 0 24.5893 0H33.6964C35.2053 0 36.4286 1.21732 36.4286 2.71875V14.5H65.5714V2.71875C65.5714 1.21732 66.7947 0 68.3036 0H77.4107C78.9195 0 80.1429 1.21732 80.1429 2.71875V14.5H91.0714C97.1072 14.5 102 19.3688 102 25.375V33.5312C102 35.0327 100.777 36.25 99.2679 36.25ZM2.73214 43.5H99.2679C100.777 43.5 102 44.7173 102 46.2188V105.125C102 111.131 97.1072 116 91.0714 116H10.9286C4.89281 116 0 111.131 0 105.125V46.2188C0 44.7173 1.22332 43.5 2.73214 43.5ZM78.6165 65.238L72.203 58.8041C71.1404 57.7381 69.4105 57.7311 68.3393 58.7887L44.197 82.6194L33.7283 72.1178C32.6657 71.0518 30.9356 71.0448 29.8644 72.1024L23.399 78.4846C22.3278 79.542 22.3207 81.2634 23.3835 82.3294L42.19 101.195C43.2526 102.261 44.9825 102.268 46.0537 101.21L78.601 69.0828C79.6722 68.0254 79.6793 66.304 78.6165 65.238Z"/></svg>