<svg xmlns="http://www.w3.org/2000/svg" width="90" height="90" fill="none" viewBox="0 0 90 90"><path fill="#00CC8D" d="M87.7623 31.0717C90.8915 40.6883 90.6912 51.079 87.1936 60.5678C83.696 70.0566 77.1051 78.0902 68.4839 83.3729C59.8627 88.6555 49.714 90.8792 39.6747 89.6852C29.6353 88.4912 20.2907 83.9492 13.1481 76.7918C6.00552 69.6343 1.48138 60.2788 0.305418 50.2342C-0.87054 40.1896 1.37025 30.0415 6.66637 21.4269C11.9625 12.8123 20.0051 6.23339 29.497 2.75136C38.9889 -0.730663 49.3767 -0.912801 58.9847 2.23433L53.0909 8.12444C52.7647 8.4451 52.4722 8.79952 52.2023 9.16519C44.5093 7.61194 36.5208 8.57658 29.4183 11.9164C22.3157 15.2563 16.4763 20.794 12.7636 27.7106C9.05088 34.6272 7.66201 42.5555 8.80239 50.3228C9.94277 58.0901 13.5519 65.2841 19.0959 70.8408C24.6399 76.3975 31.8245 80.0218 39.5871 81.1778C47.3497 82.3338 55.2781 80.9601 62.1998 77.2598C69.1215 73.5595 74.6689 67.729 78.0217 60.6308C81.3744 53.5326 82.3544 45.5435 80.8167 37.845C81.2015 37.5719 81.5627 37.2671 81.8965 36.9336L87.7567 31.0717H87.7623ZM72.5496 39.4033C73.757 45.3281 73.0237 51.4843 70.4584 56.9593C67.8931 62.4344 63.6324 66.9368 58.3079 69.7991C52.9834 72.6614 46.8785 73.7313 40.8984 72.85C34.9183 71.9687 29.3812 69.1833 25.1081 64.9066C20.835 60.6299 18.0533 55.0897 17.1753 49.1072C16.2974 43.1247 17.37 37.0185 20.2342 31.6938C23.0983 26.3691 27.6015 22.1093 33.0761 19.546C38.5507 16.9827 44.7054 16.2523 50.6276 17.4631V26.1604C46.4302 24.907 41.9348 25.0899 37.8531 26.6803C33.7714 28.2706 30.3366 31.1774 28.0926 34.9405C25.8485 38.7037 24.9234 43.108 25.4637 47.4564C26.004 51.8047 27.9789 55.8485 31.0757 58.9476C34.1724 62.0466 38.2141 64.0238 42.5608 64.5662C46.9075 65.1085 51.3109 64.185 55.0738 61.9418C58.8367 59.6986 61.744 56.264 63.3356 52.1816C64.9271 48.0993 65.1119 43.6026 63.8607 39.4033H72.5496ZM44.9925 53.4676C46.2862 53.4682 47.5627 53.1713 48.7234 52.5996C49.884 52.0279 50.8977 51.1968 51.686 50.1707C52.4742 49.1445 53.016 47.9507 53.2694 46.6816C53.5227 45.4126 53.4809 44.1022 53.1471 42.8519L62.0441 33.9464L62.2129 33.7776H75.9352C76.3047 33.7783 76.6707 33.7061 77.0123 33.5652C77.354 33.4242 77.6644 33.2173 77.9261 32.9563L89.1739 21.7049C89.5682 21.3115 89.8368 20.8098 89.9457 20.2635C90.0546 19.7172 89.9989 19.1509 89.7857 18.6363C89.5724 18.1217 89.2112 17.682 88.7479 17.373C88.2845 17.064 87.7399 16.8995 87.183 16.9005H73.1232V2.83628C73.1231 2.28038 72.9583 1.73697 72.6497 1.27469C72.3411 0.812396 71.9024 0.451953 71.3891 0.238871C70.8759 0.0257888 70.311 -0.0303782 69.7658 0.0774625C69.2206 0.185303 68.7196 0.452316 68.326 0.844784L57.0782 12.0962C56.8163 12.3574 56.6084 12.6678 56.4665 13.0095C56.3247 13.3513 56.2516 13.7176 56.2515 14.0877V27.8144C56.1937 27.8691 56.1375 27.9253 56.0828 27.9832L47.1858 36.8718C45.9348 36.536 44.6234 36.4927 43.353 36.7451C42.0827 36.9976 40.8874 37.5392 39.8598 38.3278C38.8322 39.1164 37.9997 40.131 37.4269 41.2931C36.8541 42.4551 36.5563 43.7334 36.5566 45.029C36.5566 47.2671 37.4454 49.4134 39.0274 50.996C40.6094 52.5785 42.7551 53.4676 44.9925 53.4676Z"/></svg>