<svg xmlns="http://www.w3.org/2000/svg" width="84" height="65" fill="none" viewBox="0 0 84 65"><path fill="#C4C4C4" d="M40.8863 16.8627L14.0011 38.897V62.6783C14.0011 63.2941 14.2469 63.8846 14.6845 64.32C15.122 64.7554 15.7155 65 16.3343 65L32.6751 64.9579C33.2919 64.9548 33.8823 64.7089 34.3173 64.2738C34.7524 63.8388 34.9966 63.25 34.9966 62.6362V48.7482C34.9966 48.1324 35.2424 47.5419 35.6799 47.1065C36.1175 46.6711 36.7109 46.4265 37.3297 46.4265H46.6623C47.2811 46.4265 47.8746 46.6711 48.3121 47.1065C48.7497 47.5419 48.9955 48.1324 48.9955 48.7482V62.6261C48.9945 62.9316 49.0542 63.2343 49.171 63.5168C49.2878 63.7993 49.4595 64.0561 49.6763 64.2725C49.893 64.4888 50.1506 64.6605 50.4341 64.7776C50.7176 64.8947 51.0216 64.955 51.3286 64.955L67.6636 65C68.2824 65 68.8759 64.7554 69.3134 64.32C69.751 63.8846 69.9968 63.2941 69.9968 62.6783V38.881L43.1174 16.8627C42.8014 16.6092 42.4077 16.471 42.0019 16.471C41.596 16.471 41.2023 16.6092 40.8863 16.8627ZM83.3541 31.839L71.1634 21.8398V1.74127C71.1634 1.27945 70.979 0.836556 70.6508 0.510005C70.3227 0.183455 69.8776 0 69.4135 0H61.2475C60.7834 0 60.3383 0.183455 60.0101 0.510005C59.682 0.836556 59.4976 1.27945 59.4976 1.74127V12.2774L46.4421 1.58891C45.1893 0.562979 43.6171 0.00205084 41.9946 0.00205084C40.372 0.00205084 38.7999 0.562979 37.547 1.58891L0.635053 31.839C0.457861 31.9848 0.311263 32.1638 0.203635 32.366C0.0960062 32.5681 0.0294572 32.7893 0.00779004 33.0171C-0.0138771 33.2448 0.00976229 33.4746 0.0773575 33.6932C0.144953 33.9118 0.255179 34.1151 0.401738 34.2913L4.1202 38.7896C4.26636 38.9664 4.44614 39.1129 4.64924 39.2205C4.85234 39.3281 5.07478 39.3948 5.30383 39.4168C5.53287 39.4388 5.76402 39.4156 5.98404 39.3485C6.20406 39.2815 6.40864 39.1719 6.58605 39.0261L40.8863 10.9134C41.2023 10.6599 41.596 10.5217 42.0019 10.5217C42.4077 10.5217 42.8014 10.6599 43.1174 10.9134L77.4191 39.0261C77.5962 39.172 77.8005 39.2816 78.0202 39.3489C78.2399 39.4162 78.4708 39.4397 78.6997 39.4181C78.9285 39.3966 79.1509 39.3303 79.354 39.2233C79.5571 39.1161 79.7371 38.9703 79.8835 38.794L83.602 34.2957C83.7484 34.1184 83.8582 33.9141 83.925 33.6945C83.9918 33.4749 84.0143 33.2444 83.9912 33.0161C83.9682 32.7878 83.9001 32.5663 83.7907 32.3643C83.6814 32.1623 83.533 31.9838 83.3541 31.839Z"/></svg>