<svg xmlns="http://www.w3.org/2000/svg" width="156" height="155" fill="none" viewBox="0 0 156 155"><g clip-path="url(#clip0_154_1378)"><path fill="#000" d="M49.0039 101.43C49.0039 100.149 49.5128 98.9206 50.4186 98.0148C51.3244 97.109 52.5529 96.6001 53.8339 96.6001H73.1539C74.4349 96.6001 75.6634 97.109 76.5692 98.0148C77.475 98.9206 77.9839 100.149 77.9839 101.43C77.9839 102.711 77.475 103.94 76.5692 104.845C75.6634 105.751 74.4349 106.26 73.1539 106.26H53.8339C52.5529 106.26 51.3244 105.751 50.4186 104.845C49.5128 103.94 49.0039 102.711 49.0039 101.43ZM49.0039 82.1101C49.0039 80.8291 49.5128 79.6006 50.4186 78.6948C51.3244 77.789 52.5529 77.2801 53.8339 77.2801H102.134C103.415 77.2801 104.643 77.789 105.549 78.6948C106.455 79.6006 106.964 80.8291 106.964 82.1101C106.964 83.3911 106.455 84.6197 105.549 85.5255C104.643 86.4313 103.415 86.9401 102.134 86.9401H53.8339C52.5529 86.9401 51.3244 86.4313 50.4186 85.5255C49.5128 84.6197 49.0039 83.3911 49.0039 82.1101ZM49.0039 62.7901C49.0039 61.5091 49.5128 60.2806 50.4186 59.3748C51.3244 58.469 52.5529 57.9601 53.8339 57.9601H102.134C103.415 57.9601 104.643 58.469 105.549 59.3748C106.455 60.2806 106.964 61.5091 106.964 62.7901C106.964 64.0711 106.455 65.2997 105.549 66.2055C104.643 67.1113 103.415 67.6201 102.134 67.6201H53.8339C52.5529 67.6201 51.3244 67.1113 50.4186 66.2055C49.5128 65.2997 49.0039 64.0711 49.0039 62.7901ZM49.0039 43.4701C49.0039 42.1891 49.5128 40.9606 50.4186 40.0548C51.3244 39.149 52.5529 38.6401 53.8339 38.6401H102.134C103.415 38.6401 104.643 39.149 105.549 40.0548C106.455 40.9606 106.964 42.1891 106.964 43.4701C106.964 44.7511 106.455 45.9797 105.549 46.8855C104.643 47.7913 103.415 48.3001 102.134 48.3001H53.8339C52.5529 48.3001 51.3244 47.7913 50.4186 46.8855C49.5128 45.9797 49.0039 44.7511 49.0039 43.4701Z"/><path fill="#000" d="M29.6838 0H126.284C131.408 0 136.322 2.03549 139.945 5.6587C143.568 9.2819 145.604 14.196 145.604 19.32V135.24C145.604 140.364 143.568 145.278 139.945 148.901C136.322 152.525 131.408 154.56 126.284 154.56H29.6838C24.5598 154.56 19.6457 152.525 16.0225 148.901C12.3993 145.278 10.3638 140.364 10.3638 135.24V125.58H20.0238V135.24C20.0238 137.802 21.0415 140.259 22.8531 142.071C24.6647 143.882 27.1218 144.9 29.6838 144.9H126.284C128.846 144.9 131.303 143.882 133.114 142.071C134.926 140.259 135.944 137.802 135.944 135.24V19.32C135.944 16.758 134.926 14.3009 133.114 12.4893C131.303 10.6777 128.846 9.66 126.284 9.66H29.6838C27.1218 9.66 24.6647 10.6777 22.8531 12.4893C21.0415 14.3009 20.0238 16.758 20.0238 19.32V28.98H10.3638V19.32C10.3638 14.196 12.3993 9.2819 16.0225 5.6587C19.6457 2.03549 24.5598 0 29.6838 0V0Z"/><path fill="#000" d="M10.3639 48.3001V43.4701C10.3639 42.1891 10.8727 40.9606 11.7785 40.0548C12.6843 39.149 13.9129 38.6401 15.1939 38.6401C16.4749 38.6401 17.7034 39.149 18.6092 40.0548C19.515 40.9606 20.0239 42.1891 20.0239 43.4701V48.3001H24.8539C26.1349 48.3001 27.3634 48.809 28.2692 49.7148C29.175 50.6206 29.6839 51.8491 29.6839 53.1301C29.6839 54.4111 29.175 55.6397 28.2692 56.5455C27.3634 57.4513 26.1349 57.9601 24.8539 57.9601H5.53386C4.25286 57.9601 3.02433 57.4513 2.11853 56.5455C1.21273 55.6397 0.703857 54.4111 0.703857 53.1301C0.703857 51.8491 1.21273 50.6206 2.11853 49.7148C3.02433 48.809 4.25286 48.3001 5.53386 48.3001H10.3639ZM10.3639 77.2801V72.4501C10.3639 71.1691 10.8727 69.9406 11.7785 69.0348C12.6843 68.129 13.9129 67.6201 15.1939 67.6201C16.4749 67.6201 17.7034 68.129 18.6092 69.0348C19.515 69.9406 20.0239 71.1691 20.0239 72.4501V77.2801H24.8539C26.1349 77.2801 27.3634 77.789 28.2692 78.6948C29.175 79.6006 29.6839 80.8291 29.6839 82.1101C29.6839 83.3911 29.175 84.6197 28.2692 85.5255C27.3634 86.4313 26.1349 86.9401 24.8539 86.9401H5.53386C4.25286 86.9401 3.02433 86.4313 2.11853 85.5255C1.21273 84.6197 0.703857 83.3911 0.703857 82.1101C0.703857 80.8291 1.21273 79.6006 2.11853 78.6948C3.02433 77.789 4.25286 77.2801 5.53386 77.2801H10.3639ZM10.3639 106.26V101.43C10.3639 100.149 10.8727 98.9206 11.7785 98.0148C12.6843 97.109 13.9129 96.6001 15.1939 96.6001C16.4749 96.6001 17.7034 97.109 18.6092 98.0148C19.515 98.9206 20.0239 100.149 20.0239 101.43V106.26H24.8539C26.1349 106.26 27.3634 106.769 28.2692 107.675C29.175 108.581 29.6839 109.809 29.6839 111.09C29.6839 112.371 29.175 113.6 28.2692 114.505C27.3634 115.411 26.1349 115.92 24.8539 115.92H5.53386C4.25286 115.92 3.02433 115.411 2.11853 114.505C1.21273 113.6 0.703857 112.371 0.703857 111.09C0.703857 109.809 1.21273 108.581 2.11853 107.675C3.02433 106.769 4.25286 106.26 5.53386 106.26H10.3639Z"/></g><defs><clipPath id="clip0_154_1378"><rect width="154.56" height="154.56" fill="#fff" transform="translate(0.703857)"/></clipPath></defs></svg>