<svg xmlns="http://www.w3.org/2000/svg" width="481" height="481" fill="none" viewBox="0 0 481 481"><path fill="#000" d="M9.2777 388.832L0.254607 451.917C-0.303025 455.833 0.0582267 459.825 1.30978 463.577C2.56132 467.329 4.66883 470.738 7.46554 473.534C10.2623 476.331 13.6714 478.439 17.4234 479.69C21.1753 480.942 25.167 481.303 29.0826 480.745L92.1678 471.722C101.726 470.371 125.686 406.037 125.686 406.037C125.686 406.037 137.717 416.36 142.636 417.915C153.137 421.229 163.358 410.931 166.799 400.481L176.664 355.314C176.664 355.314 191.371 362.757 196.698 363.853C203.478 365.255 210.054 361.075 214.719 356.385C217.521 353.591 219.625 350.177 220.862 346.419L227.642 304.336C227.642 304.336 244.847 309.103 250.735 309.791C257.438 310.556 263.963 307.14 268.755 302.323L297.762 273.342C322.315 281.298 348.588 282.324 373.688 276.307C398.787 270.29 421.739 257.462 440.016 239.238C466.261 212.924 481 177.276 481 140.111C481 102.946 466.261 67.298 440.016 40.9845C413.702 14.7389 378.054 0 340.889 0C303.724 0 268.076 14.7389 241.762 40.9845C223.533 59.2582 210.702 82.21 204.685 107.31C198.667 132.411 199.696 158.685 207.658 183.238L16.4656 374.406C12.5631 378.304 10.0393 383.369 9.2777 388.832ZM393.422 87.5783C407.327 101.525 415.136 120.416 415.136 140.111C415.136 159.806 407.327 178.697 393.422 192.644L288.356 87.5783C302.303 73.6726 321.194 65.8639 340.889 65.8639C360.584 65.8639 379.475 73.6726 393.422 87.5783Z"/></svg>