<svg xmlns="http://www.w3.org/2000/svg" width="224" height="223" fill="none" viewBox="0 0 224 223"><path fill="#000" d="M216.89 106.535C216.11 105.117 215.04 103.88 213.749 102.904C212.458 101.929 210.976 101.236 209.399 100.873C200.884 98.7509 192.038 98.3071 183.353 99.5662C186.663 83.1026 184.137 70.2104 181.611 62.5448C180.702 59.6667 178.752 57.2317 176.141 55.717C173.531 54.2023 170.449 53.7171 167.499 54.3565C158.98 56.2429 150.886 59.6991 143.631 64.5483C138.153 52.3027 129.711 41.6148 119.067 33.4502C116.95 31.8803 114.385 31.0327 111.749 31.0327C109.114 31.0327 106.549 31.8803 104.432 33.4502C93.7879 41.6148 85.3453 52.3027 79.8673 64.5483C72.6128 59.6991 64.5189 56.2429 55.9994 54.3565C53.0498 53.7171 49.9678 54.2023 47.3573 55.717C44.7469 57.2317 42.7962 59.6667 41.8876 62.5448C39.3615 70.2104 36.8353 83.1026 40.1455 99.5662C31.461 98.3071 22.6145 98.7509 14.0998 100.873C12.5229 101.236 11.0406 101.929 9.7497 102.904C8.45878 103.88 7.38833 105.117 6.60835 106.535C5.794 107.929 5.2666 109.471 5.05717 111.072C4.84773 112.673 4.96049 114.299 5.38882 115.856C8.43765 126.657 17.6712 147.128 45.6333 163.243C73.5955 179.358 98.4216 179.446 111.749 179.446C125.077 179.446 149.903 179.446 177.865 163.243C205.827 147.041 215.061 126.657 218.11 115.856C218.538 114.299 218.651 112.673 218.442 111.072C218.232 109.471 217.705 107.929 216.89 106.535ZM169.677 64.5483C170.103 64.4656 170.544 64.5448 170.915 64.7704C171.285 64.9959 171.558 65.3516 171.681 65.7678C174.207 73.3463 176.559 86.8483 171.419 104.27C171.32 104.521 171.261 104.785 171.245 105.054C169.1 111.732 166.238 118.157 162.708 124.218C156.754 134.446 149.162 143.627 140.234 151.396C146.68 139.985 151.82 124.567 151.82 104.531C151.872 94.3815 150.404 84.2809 147.464 74.5658C154.129 69.7826 161.68 66.3769 169.677 64.5483ZM110.704 41.8127C111.006 41.5865 111.372 41.4643 111.749 41.4643C112.126 41.4643 112.493 41.5865 112.795 41.8127C121.418 48.2588 141.367 67.1615 141.367 104.531C141.367 143.992 119.415 162.721 111.749 168.034C104.258 162.721 82.1322 143.731 82.1322 104.531C82.1322 67.1615 102.08 48.2588 110.704 41.8127ZM51.8181 65.7678C51.9403 65.3516 52.2134 64.9959 52.5839 64.7704C52.9544 64.5448 53.3958 64.4656 53.8216 64.5483C61.8185 66.3769 69.3701 69.7826 76.0345 74.5658C73.0948 84.2809 71.6267 94.3815 71.679 104.531C71.679 124.567 76.8185 139.985 83.2646 151.396C74.3371 143.627 66.7449 134.446 60.7904 124.218C57.2412 118.167 54.3779 111.74 52.2537 105.054C52.2378 104.785 52.179 104.521 52.0794 104.27C46.94 86.8483 49.2919 73.3463 51.8181 65.7678ZM15.4935 113.068C15.3754 112.635 15.406 112.175 15.5806 111.762C15.6925 111.567 15.8429 111.397 16.0226 111.262C16.2023 111.127 16.4076 111.03 16.6259 110.978C22.3751 109.497 31.4345 108.364 43.1072 110.629C45.3324 117.179 48.2221 123.483 51.731 129.445C60.4061 144.441 72.2716 157.348 86.4876 167.25C73.9336 165.08 61.8681 160.684 50.8599 154.271C26.0337 139.898 18.0197 122.302 15.4935 113.068ZM208.005 113.068C205.479 122.302 197.465 139.898 172.639 154.271C161.631 160.684 149.565 165.08 137.011 167.25C151.227 157.348 163.093 144.441 171.768 129.445C175.277 123.483 178.166 117.179 180.392 110.629C192.064 108.364 201.124 109.497 206.873 110.978C207.091 111.03 207.296 111.127 207.476 111.262C207.656 111.397 207.806 111.567 207.918 111.762C208.093 112.175 208.123 112.635 208.005 113.068Z"/></svg>