<svg xmlns="http://www.w3.org/2000/svg" width="217" height="216" fill="none" viewBox="0 0 217 216"><path fill="#000" fill-rule="evenodd" d="M104.056 27H113.056V92.25C113.056 98.541 115.594 100.989 117.574 102.145C117.794 102.271 118.015 102.388 118.24 102.496L118.222 100.809V100.8C118.051 84.924 117.722 54 142.193 54C175.718 54 199.672 171.027 185.303 182.97C170.93 194.913 142.193 187.744 127.825 173.416C116.224 161.847 117.227 134.811 117.947 115.407V115.398C117.992 114.219 118.037 113.067 118.073 111.946C116.308 111.513 114.612 110.831 113.038 109.921C111.34 108.935 109.824 107.664 108.556 106.164C107.219 107.748 105.676 108.981 104.074 109.917C102.274 110.97 100.501 111.582 99.034 111.946L99.1645 115.402C99.8845 134.811 100.888 161.847 89.287 173.416C74.9185 187.749 46.177 194.913 31.8085 182.97C17.44 171.031 41.3935 54 74.9185 54C99.394 54 99.061 84.924 98.89 100.8C98.8843 101.365 98.8783 101.931 98.872 102.496C99.097 102.388 99.322 102.271 99.538 102.145C101.518 100.989 104.056 98.541 104.056 92.25V27ZM142.193 63C137.9 63 135.488 64.35 133.796 66.0915C131.843 68.0985 130.214 71.3295 129.071 75.8925C127.069 83.88 127.154 93.069 127.226 100.48C127.235 101.763 127.244 102.991 127.244 104.152C127.244 107.572 127.096 111.667 126.934 115.929L126.754 121.005C126.556 127.197 126.439 133.677 126.74 139.941C127.037 146.241 127.744 152.023 129.062 156.87C130.399 161.766 132.185 165.051 134.179 167.04C139.934 172.777 149.015 177.412 158.276 179.208C167.434 180.985 174.805 179.671 179.125 176.386L179.197 176.206C179.611 175.058 179.898 173.867 180.052 172.656C180.578 169.168 180.713 164.304 180.358 158.31C179.651 146.385 177.086 131.26 173.023 116.37C168.955 101.43 163.532 87.3 157.39 77.121C154.316 72.027 151.283 68.301 148.471 65.9385C145.69 63.5985 143.629 63 142.193 63ZM74.9185 63C79.2115 63 81.6235 64.35 83.3155 66.0915C85.2685 68.0985 86.8975 71.3295 88.0405 75.8925C90.043 83.88 89.9575 93.069 89.8855 100.485C89.8765 101.767 89.8675 102.996 89.8675 104.157C89.8675 107.577 90.016 111.672 90.178 115.929L90.358 121.009C90.556 127.197 90.673 133.677 90.376 139.945C90.0745 146.245 89.368 152.028 88.0495 156.865C86.713 161.77 84.9265 165.055 82.933 167.044C77.1775 172.782 68.0965 177.412 58.8355 179.212C49.678 180.985 42.307 179.671 37.987 176.386C37.5353 175.183 37.2243 173.931 37.06 172.656C36.5335 169.173 36.3985 164.308 36.754 158.314C37.4605 146.389 40.0255 131.26 44.089 116.374C48.1615 101.43 53.5795 87.3045 59.722 77.1255C62.7955 72.027 65.8285 68.3055 68.641 65.943C71.422 63.603 73.483 63 74.9185 63Z" clip-rule="evenodd"/></svg>