<svg xmlns="http://www.w3.org/2000/svg" width="155" height="155" fill="none" viewBox="0 0 155 155"><path stroke="#000" stroke-linecap="round" stroke-linejoin="round" stroke-width="10" d="M95.6216 99.085C105.643 99.085 113.766 90.9614 113.766 80.9404C113.766 70.9195 105.643 62.7959 95.6216 62.7959C85.6006 62.7959 77.4771 70.9195 77.4771 80.9404C77.4771 90.9614 85.6006 99.085 95.6216 99.085Z"/><path stroke="#000" stroke-linecap="round" stroke-linejoin="round" stroke-width="10" d="M113.766 80.9403C113.766 53.5673 96.8968 44.9732 81.9368 44.9732C66.9768 44.9732 45.3321 52.611 45.3321 80.9403C45.3321 109.27 59.6546 128.683 95.6249 128.683C129.683 128.683 146.871 101.947 146.871 80.9403C146.868 60.8863 143.896 8.0498 78.2177 8.0498C21.4592 8.0498 8.40869 57.7018 8.40869 80.9403C9.53608 102.845 18.0653 123.717 32.6003 140.143"/></svg>