<svg xmlns="http://www.w3.org/2000/svg" width="452" height="385" fill="none" viewBox="0 0 452 385"><path fill="#000" d="M70.086 239.496L64.5935 250.614L52.3047 252.403C50.101 252.722 49.2178 255.434 50.8159 256.988L59.7066 265.637L57.6038 277.855C57.2253 280.064 59.5552 281.718 61.5066 280.685L72.5 274.916L83.4934 280.685C85.4448 281.71 87.7747 280.064 87.3962 277.855L85.2934 265.637L94.1841 256.988C95.7822 255.434 94.899 252.722 92.6953 252.403L80.4065 250.614L74.914 239.496C73.9299 237.514 71.0785 237.489 70.086 239.496Z"/><path fill="#000" d="M65.6224 116.148L61.3505 124.68L51.7926 126.053C50.0785 126.298 49.3916 128.38 50.6346 129.572L57.5496 136.21L55.914 145.586C55.6196 147.281 57.4318 148.551 58.9495 147.758L67.5 143.331L76.0505 147.758C77.5682 148.545 79.3804 147.281 79.086 145.586L77.4505 136.21L84.3654 129.572C85.6084 128.38 84.9215 126.298 83.2075 126.053L73.6495 124.68L69.3776 116.148C68.6122 114.627 66.3944 114.608 65.6224 116.148Z"/><path fill="#000" d="M25.8886 166.948L18.8094 181.427L2.97051 183.757C0.130145 184.172 -1.00817 187.705 1.05164 189.728L12.5107 200.992L9.80041 216.904C9.31256 219.781 12.3155 221.935 14.8307 220.59L29 213.077L43.1693 220.59C45.6845 221.924 48.6874 219.781 48.1996 216.904L45.4893 200.992L56.9484 189.728C59.0082 187.705 57.8699 184.172 55.0295 183.757L39.1906 181.427L32.1114 166.948C30.843 164.367 27.1679 164.334 25.8886 166.948Z"/><path fill="#000" d="M300.457 385C359.819 385 414.035 357.986 449.954 313.721C455.268 307.173 449.474 297.607 441.262 299.171C347.888 316.957 262.14 245.349 262.14 151.07C262.14 96.7628 291.206 46.8234 338.445 19.9343C345.727 15.7895 343.895 4.74708 335.621 3.21836C324.022 1.079 312.252 0.00175682 300.457 0C194.223 0 108 86.1069 108 192.5C108 298.758 194.087 385 300.457 385Z"/></svg>