<svg xmlns="http://www.w3.org/2000/svg" width="162" height="161" fill="none" viewBox="0 0 162 161"><path fill="#000" d="M82.5796 16.277C81.9775 16.0918 81.3404 16.0505 80.7195 16.1564C80.0985 16.2623 79.5111 16.5125 79.0045 16.8868C78.4979 17.2611 78.0862 17.7491 77.8025 18.3115C77.5188 18.8739 77.3711 19.495 77.3712 20.1249V99.8602C72.9753 95.6427 67.2454 93.0915 61.1698 92.6465C55.0942 92.2015 49.0538 93.8906 44.0903 97.4225C39.1268 100.954 35.5514 106.108 33.9807 111.994C32.4101 117.88 32.9426 124.129 35.4866 129.664C38.0305 135.2 42.4263 139.674 47.9159 142.315C53.4054 144.956 59.6446 145.599 65.5573 144.132C71.47 142.666 76.6855 139.182 80.3045 134.281C83.9234 129.381 85.7188 123.371 85.381 117.288C85.4074 117.102 85.4208 116.913 85.4212 116.725V57.7748L132.538 72.2648C133.139 72.4498 133.776 72.4912 134.396 72.3857C135.016 72.2802 135.603 72.0308 136.11 71.6574C136.616 71.284 137.028 70.7971 137.312 70.2357C137.596 69.6743 137.745 69.0541 137.746 68.4249V48.1148C137.747 43.8099 136.368 39.6183 133.81 36.1554C131.253 32.6925 127.653 30.1409 123.538 28.8753L82.5796 16.277ZM129.696 62.9751L85.4212 49.3545V25.5748L121.171 36.5711C123.64 37.3304 125.8 38.8614 127.335 40.9391C128.869 43.0169 129.697 45.5319 129.696 48.1148V62.9751ZM41.1462 118.737C41.1462 113.934 43.0545 109.327 46.4512 105.93C49.848 102.533 54.455 100.625 59.2587 100.625C64.0624 100.625 68.6694 102.533 72.0662 105.93C75.4629 109.327 77.3712 113.934 77.3712 118.737C77.3712 123.541 75.4629 128.148 72.0662 131.545C68.6694 134.942 64.0624 136.85 59.2587 136.85C54.455 136.85 49.848 134.942 46.4512 131.545C43.0545 128.148 41.1462 123.541 41.1462 118.737Z"/></svg>