<svg xmlns="http://www.w3.org/2000/svg" width="209" height="219" fill="none" viewBox="0 0 209 219"><path fill="#000" d="M52.5 110C47.3283 110 42.3684 107.946 38.7114 104.289C35.0545 100.632 33 95.6717 33 90.5V54.5C33 49.3283 35.0545 44.3684 38.7114 40.7114C42.3684 37.0545 47.3283 35 52.5 35H152.6C157.772 35 162.732 37.0545 166.389 40.7114C170.046 44.3684 172.1 49.3283 172.1 54.5V90.5C172.1 95.6717 170.046 100.632 166.389 104.289C162.732 107.946 157.772 110 152.6 110H52.5ZM39.925 54.5V90.5063C39.925 97.45 45.55 103.075 52.4937 103.075H152.6C155.932 103.072 159.126 101.746 161.482 99.3897C163.837 97.0331 165.161 93.8381 165.163 90.5063V54.4937C165.163 47.5562 159.537 41.9313 152.6 41.925H52.4937C50.843 41.9242 49.2082 42.2487 47.6829 42.8801C46.1576 43.5114 44.7717 44.4372 43.6045 45.6045C42.4372 46.7718 41.5114 48.1576 40.8801 49.6829C40.2487 51.2082 39.9242 52.843 39.925 54.4937V54.5ZM56.6625 94.5438C54.4894 94.5438 52.4053 93.6805 50.8686 92.1439C49.332 90.6072 48.4687 88.5231 48.4687 86.35V58.6625C48.4687 54.1375 52.1375 50.4687 56.6625 50.4687H73.5875C78.1125 50.4687 81.775 54.1375 81.775 58.6625V86.3438C81.7668 88.5143 80.9009 90.5937 79.366 92.1285C77.8312 93.6634 75.7518 94.5293 73.5812 94.5375L56.6625 94.5438ZM174.6 60.6938C179.531 62.4438 183 67.0688 183 72.5C183 77.9313 179.531 82.5562 174.688 84.2812L174.6 84.3063V60.6938Z"/><path fill="#000" d="M22.5213 177V181.4H7.32125V188.84H20.9213V193.16H7.32125V200.6H22.5213V205H2.60125V177H22.5213ZM25.5791 205L32.4991 194.4L25.5791 183.8H30.6991L36.0991 191.92L41.4591 183.8H46.5791L39.6591 194.4L46.5791 205H41.4591L36.0991 196.88L30.6991 205H25.5791ZM49.5916 177H54.1916V186.6C55.8449 184.493 58.0582 183.44 60.8316 183.44C63.2582 183.44 65.3382 184.227 67.0716 185.8C68.8316 187.347 69.7116 189.413 69.7116 192V205H65.1116V193.24C65.1116 191.56 64.6049 190.227 63.5916 189.24C62.5782 188.227 61.3516 187.72 59.9116 187.72C58.2316 187.72 56.8582 188.333 55.7916 189.56C54.7249 190.76 54.1916 192.267 54.1916 194.08V205H49.5916V177ZM76.1703 186.64C78.2236 184.507 80.717 183.44 83.6503 183.44C86.5036 183.44 88.7703 184.507 90.4503 186.64V183.8H95.0503V205H90.4503V202.16C88.7703 204.267 86.5036 205.32 83.6503 205.32C80.7436 205.32 78.2503 204.253 76.1703 202.12C74.117 199.96 73.0903 197.387 73.0903 194.4C73.0903 191.36 74.117 188.773 76.1703 186.64ZM77.3703 194.4C77.3703 196.267 78.0103 197.867 79.2903 199.2C80.597 200.507 82.1836 201.16 84.0503 201.16C85.8903 201.16 87.4636 200.493 88.7703 199.16C90.1036 197.827 90.7703 196.24 90.7703 194.4C90.7703 192.56 90.1036 190.973 88.7703 189.64C87.4636 188.28 85.8903 187.6 84.0503 187.6C82.1836 187.6 80.597 188.267 79.2903 189.6C78.0103 190.933 77.3703 192.533 77.3703 194.4ZM99.3125 183.8H103.913V195.52C103.913 197.2 104.406 198.547 105.393 199.56C106.406 200.573 107.646 201.08 109.113 201.08C110.793 201.08 112.153 200.48 113.193 199.28C114.259 198.053 114.793 196.52 114.793 194.68V183.8H119.393V205H114.793V202.2C113.166 204.307 110.966 205.36 108.193 205.36C105.766 205.36 103.673 204.587 101.913 203.04C100.179 201.467 99.3125 199.387 99.3125 196.8V183.8ZM123.248 189.84C123.248 187.84 124.061 186.28 125.688 185.16C127.314 184.013 129.394 183.44 131.928 183.44C134.941 183.44 137.674 184.173 140.128 185.64V190.08C137.034 188.293 134.301 187.4 131.928 187.4C130.754 187.4 129.794 187.627 129.048 188.08C128.328 188.507 127.968 189.08 127.968 189.8C127.968 190.04 128.008 190.267 128.088 190.48C128.194 190.667 128.354 190.84 128.568 191C128.808 191.16 129.034 191.293 129.248 191.4C129.488 191.507 129.821 191.627 130.248 191.76C130.674 191.867 131.034 191.96 131.328 192.04C131.621 192.093 132.048 192.187 132.608 192.32C133.194 192.453 133.661 192.56 134.008 192.64C136.461 193.227 138.234 194.053 139.328 195.12C140.448 196.187 141.021 197.493 141.048 199.04C141.048 200.48 140.594 201.693 139.688 202.68C138.808 203.667 137.754 204.36 136.528 204.76C135.301 205.133 133.954 205.32 132.488 205.32C129.474 205.32 126.541 204.4 123.688 202.56V197.88C124.648 198.707 125.968 199.48 127.648 200.2C129.328 200.92 130.941 201.28 132.488 201.28C133.528 201.28 134.421 201.08 135.168 200.68C135.941 200.253 136.328 199.693 136.328 199C136.328 198.28 135.888 197.693 135.008 197.24C134.128 196.76 132.754 196.333 130.888 195.96C128.274 195.427 126.341 194.693 125.088 193.76C123.861 192.8 123.248 191.493 123.248 189.84ZM142.808 187.8V183.8H146.808V178.72L151.328 177.4V183.8H157.848V187.8H151.328V198.12C151.328 199.427 151.702 200.24 152.448 200.56C153.222 200.88 153.915 201.04 154.528 201.04C155.488 201.04 156.648 200.827 158.008 200.4V204.84C156.568 205.24 155.248 205.44 154.048 205.44C152.475 205.44 150.875 204.987 149.248 204.08C147.622 203.147 146.808 201.173 146.808 198.16V187.8H142.808ZM163.361 186.64C165.494 184.507 168.054 183.44 171.041 183.44C173.707 183.44 176.027 184.307 178.001 186.04C180.001 187.747 181.227 189.893 181.681 192.48C181.841 193.12 181.921 193.76 181.921 194.4C181.921 194.96 181.854 195.52 181.721 196.08H164.681C164.947 197.653 165.667 198.907 166.841 199.84C168.041 200.773 169.441 201.24 171.041 201.24C173.494 201.24 175.454 200.36 176.921 198.6L181.001 199.68C180.147 201.387 178.774 202.76 176.881 203.8C175.014 204.813 173.067 205.32 171.041 205.32C167.974 205.32 165.387 204.253 163.281 202.12C161.201 199.987 160.161 197.413 160.161 194.4C160.161 191.36 161.227 188.773 163.361 186.64ZM164.681 192.56H177.241C176.974 191.147 176.267 189.96 175.121 189C174.001 188.013 172.627 187.52 171.001 187.52C169.374 187.52 167.987 188.013 166.841 189C165.694 189.96 164.974 191.147 164.681 192.56ZM187.577 186.64C189.63 184.507 192.123 183.44 195.057 183.44C197.91 183.44 200.177 184.507 201.857 186.64V177H206.457V205H201.857V202.2C200.177 204.28 197.91 205.32 195.057 205.32C192.15 205.32 189.657 204.253 187.577 202.12C185.523 199.96 184.497 197.387 184.497 194.4C184.497 191.36 185.523 188.773 187.577 186.64ZM188.777 194.4C188.777 196.267 189.417 197.867 190.697 199.2C191.977 200.507 193.563 201.16 195.457 201.16C197.297 201.16 198.87 200.493 200.177 199.16C201.51 197.827 202.177 196.24 202.177 194.4C202.177 192.56 201.51 190.973 200.177 189.64C198.87 188.28 197.297 187.6 195.457 187.6C193.59 187.6 192.003 188.267 190.697 189.6C189.417 190.933 188.777 192.533 188.777 194.4Z"/></svg>