<svg xmlns="http://www.w3.org/2000/svg" width="193" height="210" fill="none" viewBox="0 0 193 210"><path fill="#000" d="M4.67234 171.56C6.69901 168.947 9.44568 167.64 12.9123 167.64C16.4323 167.64 19.2057 168.947 21.2323 171.56C23.259 174.173 24.2723 177.653 24.2723 182C24.2723 186.32 23.2457 189.787 21.1923 192.4C19.1657 195.013 16.4057 196.32 12.9123 196.32C9.39234 196.32 6.63234 195.027 4.63234 192.44C2.63234 189.853 1.63234 186.387 1.63234 182.04C1.63234 177.667 2.64568 174.173 4.67234 171.56ZM8.07234 189.16C9.27234 190.973 10.8857 191.88 12.9123 191.88C14.9923 191.88 16.6323 190.96 17.8323 189.12C19.059 187.28 19.6723 184.907 19.6723 182C19.6723 179.067 19.059 176.68 17.8323 174.84C16.6057 173 14.9657 172.08 12.9123 172.08C10.8323 172.08 9.19234 173 7.99234 174.84C6.81901 176.68 6.23234 179.08 6.23234 182.04C6.23234 185 6.84568 187.373 8.07234 189.16ZM38.9939 174.8H43.5939V177.52C45.1139 175.467 47.0739 174.44 49.4739 174.44C50.8606 174.44 52.1406 174.787 53.3139 175.48C54.5139 176.147 55.4606 177.133 56.1539 178.44C56.9272 177.187 57.9539 176.213 59.2339 175.52C60.5406 174.8 61.9006 174.44 63.3139 174.44C65.4739 174.44 67.3406 175.213 68.9139 176.76C70.4872 178.28 71.2739 180.36 71.2739 183V196H66.6739V184.12C66.6739 182.413 66.3006 181.08 65.5539 180.12C64.8072 179.133 63.7539 178.64 62.3939 178.64C60.8739 178.64 59.6872 179.147 58.8339 180.16C58.0072 181.173 57.5406 182.453 57.4339 184V196H52.8339V184.12C52.8339 182.413 52.4606 181.08 51.7139 180.12C50.9672 179.133 49.9272 178.64 48.5939 178.64C46.9406 178.64 45.6872 179.213 44.8339 180.36C44.0072 181.507 43.5939 182.933 43.5939 184.64V196H38.9939V174.8ZM80.1211 174.8V196H75.5211V174.8H80.1211ZM75.7611 167.4C76.3478 166.84 77.0544 166.56 77.8811 166.56C78.7078 166.56 79.4011 166.84 79.9611 167.4C80.5478 167.933 80.8411 168.613 80.8411 169.44C80.8411 170.267 80.5611 170.947 80.0011 171.48C79.4144 172.04 78.7078 172.32 77.8811 172.32C77.0544 172.32 76.3478 172.053 75.7611 171.52C75.1744 170.96 74.8811 170.267 74.8811 169.44C74.8811 168.64 75.1744 167.96 75.7611 167.4ZM84.6552 174.8H89.2552V177.6C90.8818 175.493 93.0818 174.44 95.8552 174.44C98.2818 174.44 100.362 175.227 102.095 176.8C103.855 178.347 104.735 180.413 104.735 183V196H100.135V184.24C100.135 182.56 99.6285 181.227 98.6152 180.24C97.6285 179.227 96.4018 178.72 94.9352 178.72C93.2552 178.72 91.8818 179.333 90.8152 180.56C89.7752 181.76 89.2552 183.267 89.2552 185.08V196H84.6552V174.8ZM108.598 174.8H113.198V186.52C113.198 188.2 113.691 189.547 114.678 190.56C115.691 191.573 116.931 192.08 118.398 192.08C120.078 192.08 121.438 191.48 122.478 190.28C123.544 189.053 124.078 187.52 124.078 185.68V174.8H128.678V196H124.078V193.2C122.451 195.307 120.251 196.36 117.478 196.36C115.051 196.36 112.958 195.587 111.198 194.04C109.464 192.467 108.598 190.387 108.598 187.8V174.8ZM132.133 178.8V174.8H136.133V169.72L140.653 168.4V174.8H147.173V178.8H140.653V189.12C140.653 190.427 141.026 191.24 141.773 191.56C142.546 191.88 143.239 192.04 143.853 192.04C144.813 192.04 145.973 191.827 147.333 191.4V195.84C145.893 196.24 144.573 196.44 143.373 196.44C141.799 196.44 140.199 195.987 138.573 195.08C136.946 194.147 136.133 192.173 136.133 189.16V178.8H132.133ZM152.685 177.64C154.818 175.507 157.378 174.44 160.365 174.44C163.032 174.44 165.352 175.307 167.325 177.04C169.325 178.747 170.552 180.893 171.005 183.48C171.165 184.12 171.245 184.76 171.245 185.4C171.245 185.96 171.178 186.52 171.045 187.08H154.005C154.272 188.653 154.992 189.907 156.165 190.84C157.365 191.773 158.765 192.24 160.365 192.24C162.818 192.24 164.778 191.36 166.245 189.6L170.325 190.68C169.472 192.387 168.098 193.76 166.205 194.8C164.338 195.813 162.392 196.32 160.365 196.32C157.298 196.32 154.712 195.253 152.605 193.12C150.525 190.987 149.485 188.413 149.485 185.4C149.485 182.36 150.552 179.773 152.685 177.64ZM154.005 183.56H166.565C166.298 182.147 165.592 180.96 164.445 180C163.325 179.013 161.952 178.52 160.325 178.52C158.698 178.52 157.312 179.013 156.165 180C155.018 180.96 154.298 182.147 154.005 183.56ZM174.056 180.84C174.056 178.84 174.869 177.28 176.496 176.16C178.123 175.013 180.203 174.44 182.736 174.44C185.749 174.44 188.483 175.173 190.936 176.64V181.08C187.843 179.293 185.109 178.4 182.736 178.4C181.563 178.4 180.603 178.627 179.856 179.08C179.136 179.507 178.776 180.08 178.776 180.8C178.776 181.04 178.816 181.267 178.896 181.48C179.003 181.667 179.163 181.84 179.376 182C179.616 182.16 179.843 182.293 180.056 182.4C180.296 182.507 180.629 182.627 181.056 182.76C181.483 182.867 181.843 182.96 182.136 183.04C182.429 183.093 182.856 183.187 183.416 183.32C184.003 183.453 184.469 183.56 184.816 183.64C187.269 184.227 189.043 185.053 190.136 186.12C191.256 187.187 191.829 188.493 191.856 190.04C191.856 191.48 191.403 192.693 190.496 193.68C189.616 194.667 188.563 195.36 187.336 195.76C186.109 196.133 184.763 196.32 183.296 196.32C180.283 196.32 177.349 195.4 174.496 193.56V188.88C175.456 189.707 176.776 190.48 178.456 191.2C180.136 191.92 181.749 192.28 183.296 192.28C184.336 192.28 185.229 192.08 185.976 191.68C186.749 191.253 187.136 190.693 187.136 190C187.136 189.28 186.696 188.693 185.816 188.24C184.936 187.76 183.563 187.333 181.696 186.96C179.083 186.427 177.149 185.693 175.896 184.76C174.669 183.8 174.056 182.493 174.056 180.84Z"/><path fill="#000" d="M113.3 53.9053L100.681 79.1976C99.1581 82.2764 94.7404 82.1747 93.344 79.0449L78.8975 46.9079L71.2808 65.1519H47.3896L93.7248 112.607C95.5274 114.464 98.4472 114.464 100.25 112.607L146.61 65.1519H118.911L113.3 53.9053ZM152.272 10.6742L151.663 10.0381C138.587 -3.34602 117.184 -3.34602 104.084 10.0381L97 17.3153L89.9164 10.0635C76.841 -3.34602 55.4126 -3.34602 42.3372 10.0635L41.7278 10.6742C29.3633 23.3458 28.8301 43.5237 39.8744 57.0095H65.8729L74.9876 35.0759C76.3586 31.7935 80.9794 31.7172 82.452 34.9742L97.2285 67.8746L109.669 42.9639C111.167 39.9614 115.433 39.9614 116.93 42.9639L123.938 57.0095H154.126C165.17 43.5237 164.637 23.3458 152.272 10.6742Z"/></svg>