<svg xmlns="http://www.w3.org/2000/svg" width="155" height="219" fill="none" viewBox="0 0 155 219"><g clip-path="url(#clip0_149_841)"><path fill="#000" d="M21.5 110C16.3283 110 11.3684 107.946 7.71142 104.289C4.05446 100.632 2 95.6717 2 90.5V54.5C2 49.3283 4.05446 44.3684 7.71142 40.7114C11.3684 37.0545 16.3283 35 21.5 35H121.6C126.772 35 131.732 37.0545 135.389 40.7114C139.046 44.3684 141.1 49.3283 141.1 54.5V90.5C141.1 95.6717 139.046 100.632 135.389 104.289C131.732 107.946 126.772 110 121.6 110H21.5ZM8.925 54.5V90.5C8.925 97.4375 14.55 103.062 21.4875 103.062H121.6C124.927 103.056 128.116 101.729 130.467 99.3742C132.817 97.019 134.138 93.8274 134.137 90.5V54.5C134.134 51.1703 132.81 47.9779 130.457 45.6228C128.103 43.2678 124.911 41.9425 121.581 41.9375H21.4875C14.55 41.9375 8.925 47.5625 8.91875 54.5H8.925ZM25.6625 94.5C24.5868 94.5 23.5216 94.288 22.5278 93.8762C21.5341 93.4643 20.6312 92.8607 19.8709 92.0997C19.1105 91.3388 18.5075 90.4355 18.0964 89.4414C17.6853 88.4473 17.4742 87.382 17.475 86.3062V58.6625C17.4742 57.5868 17.6853 56.5214 18.0964 55.5274C18.5075 54.5333 19.1105 53.63 19.8709 52.869C20.6312 52.1081 21.5341 51.5044 22.5278 51.0926C23.5216 50.6807 24.5868 50.4687 25.6625 50.4687H94.325C96.4943 50.4721 98.5736 51.3361 100.106 52.8712C101.639 54.4063 102.5 56.487 102.5 58.6563V86.3312C102.485 88.4943 101.619 90.5644 100.089 92.0933C98.5588 93.6223 96.488 94.4869 94.325 94.5H25.6625ZM143.606 60.6875C148.537 62.4375 152.006 67.0625 152.006 72.4938C152.006 77.925 148.537 82.55 143.694 84.275L143.606 84.3V60.6875Z"/></g><path fill="#000" d="M5.98969 180.88C8.76302 178.107 12.123 176.72 16.0697 176.72C19.963 176.72 23.2964 178.12 26.0697 180.92C28.843 183.72 30.2297 186.12 30.2297 188.12C30.2564 190.093 30.2697 191.107 30.2697 191.16C30.2697 195.053 28.8964 198.373 26.1497 201.12C23.3764 203.92 20.0164 205.32 16.0697 205.32C12.123 205.32 8.76302 203.92 5.98969 201.12C3.21635 198.32 1.82969 194.96 1.82969 191.04C1.82969 187.067 3.21635 183.68 5.98969 180.88ZM6.58969 191.04C6.58969 193.76 7.48302 196.08 9.26969 198C11.083 199.893 13.3497 200.84 16.0697 200.84C18.763 200.84 21.003 199.893 22.7897 198C24.603 196.08 25.5097 193.76 25.5097 191.04C25.5097 188.293 24.603 185.96 22.7897 184.04C20.9764 182.12 18.7364 181.16 16.0697 181.16C13.3764 181.16 11.123 182.12 9.30969 184.04C7.49635 185.96 6.58969 188.293 6.58969 191.04ZM33.7997 183.8H38.3997V186.6C40.0797 184.52 42.3464 183.48 45.1997 183.48C48.1064 183.48 50.5864 184.56 52.6397 186.72C54.7197 188.853 55.7597 191.413 55.7597 194.4C55.7597 197.44 54.733 200.027 52.6797 202.16C50.6264 204.267 48.133 205.32 45.1997 205.32C42.3464 205.32 40.0797 204.253 38.3997 202.12V213.4H33.7997V183.8ZM38.0797 194.4C38.0797 196.24 38.733 197.827 40.0397 199.16C41.373 200.493 42.9597 201.16 44.7997 201.16C46.6664 201.16 48.2397 200.507 49.5197 199.2C50.8264 197.867 51.4797 196.267 51.4797 194.4C51.4797 192.533 50.8397 190.947 49.5597 189.64C48.2797 188.307 46.693 187.64 44.7997 187.64C42.9597 187.64 41.373 188.307 40.0397 189.64C38.733 190.973 38.0797 192.56 38.0797 194.4ZM57.6444 187.8V183.8H61.6444V178.72L66.1644 177.4V183.8H72.6844V187.8H66.1644V198.12C66.1644 199.427 66.5377 200.24 67.2844 200.56C68.0577 200.88 68.751 201.04 69.3644 201.04C70.3244 201.04 71.4844 200.827 72.8444 200.4V204.84C71.4044 205.24 70.0844 205.44 68.8844 205.44C67.311 205.44 65.711 204.987 64.0844 204.08C62.4577 203.147 61.6444 201.173 61.6444 198.16V187.8H57.6444ZM81.2578 183.8V205H76.6578V183.8H81.2578ZM76.8978 176.4C77.4845 175.84 78.1911 175.56 79.0178 175.56C79.8445 175.56 80.5378 175.84 81.0978 176.4C81.6845 176.933 81.9778 177.613 81.9778 178.44C81.9778 179.267 81.6978 179.947 81.1378 180.48C80.5511 181.04 79.8445 181.32 79.0178 181.32C78.1911 181.32 77.4845 181.053 76.8978 180.52C76.3111 179.96 76.0178 179.267 76.0178 178.44C76.0178 177.64 76.3111 176.96 76.8978 176.4ZM85.9119 183.8H90.5119V186.52C92.0319 184.467 93.9919 183.44 96.3919 183.44C97.7785 183.44 99.0585 183.787 100.232 184.48C101.432 185.147 102.379 186.133 103.072 187.44C103.845 186.187 104.872 185.213 106.152 184.52C107.459 183.8 108.819 183.44 110.232 183.44C112.392 183.44 114.259 184.213 115.832 185.76C117.405 187.28 118.192 189.36 118.192 192V205H113.592V193.12C113.592 191.413 113.219 190.08 112.472 189.12C111.725 188.133 110.672 187.64 109.312 187.64C107.792 187.64 106.605 188.147 105.752 189.16C104.925 190.173 104.459 191.453 104.352 193V205H99.7519V193.12C99.7519 191.413 99.3785 190.08 98.6319 189.12C97.8852 188.133 96.8452 187.64 95.5119 187.64C93.8585 187.64 92.6052 188.213 91.7519 189.36C90.9252 190.507 90.5119 191.933 90.5119 193.64V205H85.9119V183.8ZM124.444 186.64C126.497 184.507 128.99 183.44 131.924 183.44C134.777 183.44 137.044 184.507 138.724 186.64V183.8H143.324V205H138.724V202.16C137.044 204.267 134.777 205.32 131.924 205.32C129.017 205.32 126.524 204.253 124.444 202.12C122.39 199.96 121.364 197.387 121.364 194.4C121.364 191.36 122.39 188.773 124.444 186.64ZM125.644 194.4C125.644 196.267 126.284 197.867 127.564 199.2C128.87 200.507 130.457 201.16 132.324 201.16C134.164 201.16 135.737 200.493 137.044 199.16C138.377 197.827 139.044 196.24 139.044 194.4C139.044 192.56 138.377 190.973 137.044 189.64C135.737 188.28 134.164 187.6 132.324 187.6C130.457 187.6 128.87 188.267 127.564 189.6C126.284 190.933 125.644 192.533 125.644 194.4ZM147.786 205V177H152.386V205H147.786Z"/><defs><clipPath id="clip0_149_841"><rect width="150" height="150" fill="#fff" transform="translate(2)"/></clipPath></defs></svg>