<svg xmlns="http://www.w3.org/2000/svg" width="171" height="266" fill="none" viewBox="0 0 171 266"><path fill="#000" d="M168.117 123.212C165.219 120.313 161.29 119.585 158.692 121.098C151.298 125.405 135.941 114.436 118.389 131.987C100.838 149.538 111.808 164.895 107.501 172.289C105.987 174.888 106.715 178.816 109.614 181.715C112.513 184.614 116.441 185.342 119.04 183.828C126.433 179.521 141.791 190.491 159.342 172.94C176.893 155.389 165.924 140.031 170.23 132.637C171.744 130.039 171.016 126.11 168.117 123.212ZM137.344 132.319C130.04 134.145 120.548 143.636 118.722 150.942C118.494 151.854 117.675 152.464 116.775 152.464C116.614 152.464 116.45 152.444 116.286 152.403C115.21 152.134 114.556 151.044 114.825 149.968C117.012 141.22 127.608 130.613 136.37 128.423C137.446 128.154 138.537 128.808 138.806 129.884C139.074 130.96 138.42 132.05 137.344 132.319Z"/><path fill="#000" d="M30.4839 122.097V107.014L39.3518 102.942C49.1831 114.64 52.858 145.11 76.6594 145.11C79.1562 145.11 81.5508 146.101 83.3163 147.867C85.0819 149.633 86.0737 152.027 86.0737 154.524C86.0737 157.021 85.0819 159.416 83.3163 161.181C81.5508 162.947 79.1562 163.939 76.6594 163.939C40.9119 163.939 14.3484 143.282 6.18994 128.577L12.4185 122.097H30.4839ZM8.44601 100.516C3.03951 90.4555 5.85371 82.3135 8.97388 78.366C9.0929 78.2184 9.2418 78.0976 9.41079 78.0116C9.57978 77.9256 9.76505 77.8762 9.95444 77.8669C10.1438 77.8575 10.3331 77.8883 10.5097 77.9572C10.6864 78.0262 10.8465 78.1317 10.9795 78.2668L14.8292 82.1336C15.0502 82.3581 15.1861 82.6527 15.2134 82.9666C15.2407 83.2805 15.1578 83.5941 14.9789 83.8534C13.8256 85.5952 12.1125 89.7544 15.2142 96.0119C18.2447 94.687 21.5162 94.0025 24.8236 94.0012C29.5307 94.0012 33.9016 95.4369 37.6573 97.799L25.1043 103.564V116.717H10.1271L0.934738 126.28C0.386688 124.158 3.05176e-05 121.971 3.05176e-05 119.671C-0.00330353 116.066 0.746223 112.5 2.20062 109.202C3.65501 105.903 5.78222 102.945 8.44601 100.516Z"/><path fill="#000" d="M87.5378 120.502C95.0808 127.22 145.684 97.4342 153.177 84.8875C156.773 78.8611 152.527 70.0191 145.584 62.9554C153.477 57.7688 160.42 73.9214 167.014 70.5131C170.011 68.9324 171.959 64.0421 170.511 61.0289C167.913 55.6941 159.271 55.6941 153.427 55.052C157.573 54.064 167.513 49.8653 167.713 43.9377C167.913 39.3933 162.069 34.2066 157.473 34.75C151.428 35.4415 149.23 44.0365 147.182 49.569C146.933 46.0618 146.183 38.3559 142.287 34.997C137.092 30.5019 130.848 34.75 130.698 40.1836C130.498 46.7533 144.785 50.4087 140.289 58.3121C132.696 52.5327 123.754 49.3714 118.009 52.6809C115.562 54.2122 112.764 57.176 109.867 61.0289C114.313 65.6722 120.457 71.254 125.303 74.4648C126.302 75.1564 126.601 76.5395 125.852 77.5274C125.153 78.5647 123.754 78.8117 122.755 78.1202C117.81 74.8106 111.765 69.3276 107.269 64.7337C105.022 68.0433 102.724 71.7974 100.576 75.7491C104.822 79.9972 110.217 84.7887 114.513 87.6537C115.512 88.3452 115.762 89.7283 115.062 90.7163C114.363 91.7536 112.964 92.0006 111.915 91.309C107.669 88.444 102.624 83.9983 98.3777 79.849C89.5359 97.0884 83.042 116.551 87.5378 120.502Z"/><path fill="#000" fill-rule="evenodd" d="M47.2489 73.7934C47.6102 74.5346 48.2224 75.3486 48.8729 75.909C49.6679 76.5939 50.6584 77.0782 51.7068 77.467C52.4387 77.7385 53.4058 77.9751 54.1879 78.1158C54.9984 78.2617 55.9937 78.2591 56.9318 78.2488C58.5986 78.2305 59.9142 78.075 61.399 77.7127C62.3345 77.4843 63.2231 77.2308 63.9444 76.9465C65.3063 76.4096 66.1746 75.8135 66.3557 75.4268C66.2198 74.7875 66.0059 73.7808 65.8466 72.876C65.7046 72.0645 65.5867 71.2489 65.493 70.4304C65.289 68.6575 65.394 67.41 65.6201 65.3478C65.9531 62.3104 66.6005 60.9268 67.5459 59.1219C68.4487 57.3979 69.9391 54.9884 71.0876 53.4364C72.285 51.8181 75.2829 48.6556 76.3764 47.4804C76.7578 47.5935 77.4943 47.8396 78.6335 48.0649C79.5015 48.2365 80.5123 48.4412 81.7843 48.3982C84.8129 48.2961 85.9154 47.716 87.6771 46.5652C89.2756 45.5214 90.8049 43.4324 91.6057 41.4305C92.2214 39.8914 92.4109 38.3242 92.143 36.4851C91.9627 35.2481 91.5637 33.7831 91.2449 32.8144C90.898 31.7608 90.3535 30.6289 89.8963 29.7725C89.8963 29.7725 91.7347 27.5716 92.4705 25.7358C93.1039 24.1548 93.3993 22.1205 93.2725 20.8491C93.141 19.5295 92.0229 17.1085 91.3201 16.2445C90.3942 15.1062 89.4891 13.926 88.3454 13.0007C87.2245 12.0935 85.9549 11.351 84.6254 10.7945C83.2477 10.218 81.5994 9.88418 80.2931 9.65431C80.0969 8.60585 79.8266 7.87482 79.1065 6.6133C78.2074 4.99322 77.2197 4.26143 75.6675 3.12279C73.7415 1.71011 71.0571 0.252806 68.4516 0.0531994C67.3291 -0.0326954 65.6837 -0.0681538 63.6144 0.377674C61.8152 0.765271 60.0416 1.49767 58.693 2.18804C55.9852 1.14905 53.4553 1.3025 51.4596 1.84553C49.7765 2.30328 49.4174 2.57808 47.8775 3.48594C46.3657 4.14023 44.7232 5.66173 43.4515 7.42334C38.7146 7.55799 34.7715 9.22729 31.9642 10.8234C28.7712 12.6388 25.9057 16.1088 24.7839 18.3161C23.5317 20.7795 22.281 24.2641 23.3376 29.653C16.3595 33.9512 17.0771 40.8266 21 44.6656C24.4405 48.0326 30.1401 49.0816 35.5385 48.5361C37.1513 50.1741 43.2526 57.5795 43.2526 57.5795C43.2526 57.5795 49.3983 64.5182 47.2489 73.7934ZM40.6282 45.0703C41.4633 44.2339 42.1791 43.0387 42.7358 42.1224C43.3675 42.1576 44.6648 42.2428 45.9405 42.1842C47.2195 42.1252 48.575 41.9359 49.1168 41.6187C49.2689 42.0756 50.3274 45.8611 50.3945 48.1873C50.4827 51.237 50.3978 51.7776 49.9058 52.8481C49.638 52.975 49.3774 53.0303 49.0486 52.912C47.8775 52.4908 45.9258 51.0255 44.5266 49.7177C42.3596 47.6926 40.6282 45.0703 40.6282 45.0703ZM64.7513 44.4261C64.7093 44.7966 64.6825 46.1264 64.8611 47.288C65.0428 48.4678 65.221 49.5639 65.6651 49.9897C67.2257 49.708 68.3156 48.705 69.2576 48.0007C69.2576 48.0007 72.3148 45.6092 72.9053 45.0601C72.4555 44.6516 71.8228 43.6937 71.5979 43.1163C71.5979 43.1163 69.4465 43.7477 68.3638 43.9731C67.0002 44.2689 65.398 44.398 64.7513 44.4261Z" clip-rule="evenodd"/><path fill="#000" d="M63.6703 242.917C63.857 244.357 64.4703 245.503 65.5103 246.357C66.577 247.183 67.817 247.597 69.2303 247.597C70.8303 247.597 72.1236 247.063 73.1103 245.997C74.1236 244.903 74.6436 243.583 74.6703 242.037C74.6703 241.957 74.6703 241.877 74.6703 241.797C74.6703 240.277 74.1503 238.997 73.1103 237.957C72.0703 236.89 70.7103 236.357 69.0303 236.357C68.0436 236.357 67.097 236.557 66.1903 236.957C65.3103 237.357 64.617 237.89 64.1103 238.557H59.5103L59.9103 223.597H78.1903L78.2303 227.957H64.3103L64.1503 234.797C65.6703 233.25 67.617 232.477 69.9903 232.477C70.017 232.477 70.057 232.477 70.1103 232.477C72.777 232.503 74.9636 233.45 76.6703 235.317C78.4036 237.157 79.2703 239.37 79.2703 241.957C79.2703 242.037 79.2703 242.117 79.2703 242.197C79.2703 244.943 78.3636 247.25 76.5503 249.117C74.7636 250.983 72.457 251.917 69.6303 251.917C69.497 251.917 69.377 251.917 69.2703 251.917C66.6836 251.917 64.4036 251.13 62.4303 249.557C60.4836 247.983 59.337 245.77 58.9903 242.917H63.6703ZM83.1794 238.117H89.9794V231.557H94.1394V238.117H100.939V242.237H94.1394V248.757H90.0194V242.237H83.1794V238.117Z"/></svg>