<svg xmlns="http://www.w3.org/2000/svg" width="204" height="258" fill="none" viewBox="0 0 204 258"><path fill="#000" d="M4.82266 225.237C6.87599 223.103 9.36932 222.037 12.3027 222.037C15.156 222.037 17.4227 223.103 19.1027 225.237V222.397H23.7027V243.597H19.1027V240.757C17.4227 242.863 15.156 243.917 12.3027 243.917C9.39599 243.917 6.90266 242.85 4.82266 240.717C2.76932 238.557 1.74266 235.983 1.74266 232.997C1.74266 229.957 2.76932 227.37 4.82266 225.237ZM6.02266 232.997C6.02266 234.863 6.66266 236.463 7.94266 237.797C9.24932 239.103 10.836 239.757 12.7027 239.757C14.5427 239.757 16.116 239.09 17.4227 237.757C18.756 236.423 19.4227 234.837 19.4227 232.997C19.4227 231.157 18.756 229.57 17.4227 228.237C16.116 226.877 14.5427 226.197 12.7027 226.197C10.836 226.197 9.24932 226.863 7.94266 228.197C6.66266 229.53 6.02266 231.13 6.02266 232.997ZM28.2048 215.597H32.8048V225.277C34.5382 223.143 36.8182 222.063 39.6448 222.037C39.6715 222.037 39.7115 222.037 39.7648 222.037C42.6715 222.037 45.1382 223.103 47.1648 225.237C49.1915 227.343 50.2048 229.93 50.2048 232.997C50.2048 236.037 49.2048 238.623 47.2048 240.757C45.2048 242.863 42.6848 243.917 39.6448 243.917C36.8182 243.917 34.5382 242.877 32.8048 240.797V243.597H28.2048V215.597ZM34.5248 237.757C35.8315 239.09 37.4048 239.757 39.2448 239.757C41.0848 239.757 42.6448 239.09 43.9248 237.757C45.2315 236.423 45.8848 234.837 45.8848 232.997C45.8848 231.157 45.2315 229.57 43.9248 228.237C42.6448 226.877 41.0848 226.197 39.2448 226.197C37.4048 226.197 35.8182 226.877 34.4848 228.237C33.1782 229.57 32.5248 231.157 32.5248 232.997C32.5248 234.837 33.1915 236.423 34.5248 237.757ZM53.0717 228.437C53.0717 226.437 53.8851 224.877 55.5117 223.757C57.1384 222.61 59.2184 222.037 61.7517 222.037C64.7651 222.037 67.4984 222.77 69.9517 224.237V228.677C66.8584 226.89 64.1251 225.997 61.7517 225.997C60.5784 225.997 59.6184 226.223 58.8717 226.677C58.1517 227.103 57.7917 227.677 57.7917 228.397C57.7917 228.637 57.8317 228.863 57.9117 229.077C58.0184 229.263 58.1784 229.437 58.3917 229.597C58.6317 229.757 58.8584 229.89 59.0717 229.997C59.3117 230.103 59.6451 230.223 60.0717 230.357C60.4984 230.463 60.8584 230.557 61.1517 230.637C61.4451 230.69 61.8717 230.783 62.4317 230.917C63.0184 231.05 63.4851 231.157 63.8317 231.237C66.2851 231.823 68.0584 232.65 69.1517 233.717C70.2717 234.783 70.8451 236.09 70.8717 237.637C70.8717 239.077 70.4184 240.29 69.5117 241.277C68.6317 242.263 67.5784 242.957 66.3517 243.357C65.1251 243.73 63.7784 243.917 62.3117 243.917C59.2984 243.917 56.3651 242.997 53.5117 241.157V236.477C54.4717 237.303 55.7917 238.077 57.4717 238.797C59.1517 239.517 60.7651 239.877 62.3117 239.877C63.3517 239.877 64.2451 239.677 64.9917 239.277C65.7651 238.85 66.1517 238.29 66.1517 237.597C66.1517 236.877 65.7117 236.29 64.8317 235.837C63.9517 235.357 62.5784 234.93 60.7117 234.557C58.0984 234.023 56.1651 233.29 54.9117 232.357C53.6851 231.397 53.0717 230.09 53.0717 228.437ZM76.268 225.237C78.4013 223.103 80.9746 222.037 83.988 222.037C87.0013 222.037 89.5613 223.117 91.668 225.277C93.8013 227.41 94.868 229.97 94.868 232.957C94.868 235.97 93.8013 238.557 91.668 240.717C89.5346 242.85 86.9746 243.917 83.988 243.917C80.9746 243.917 78.4013 242.85 76.268 240.717C74.1346 238.557 73.068 235.97 73.068 232.957C73.068 229.943 74.1346 227.37 76.268 225.237ZM77.388 232.957C77.388 234.797 78.028 236.383 79.308 237.717C80.588 239.05 82.148 239.717 83.988 239.717C85.8013 239.717 87.348 239.05 88.628 237.717C89.908 236.383 90.548 234.797 90.548 232.957C90.548 231.117 89.908 229.543 88.628 228.237C87.3746 226.903 85.828 226.237 83.988 226.237C82.148 226.237 80.588 226.903 79.308 228.237C78.028 229.543 77.388 231.117 77.388 232.957ZM98.4773 243.597V215.597H103.077V243.597H98.4773ZM107.262 222.397H111.862V234.117C111.862 235.797 112.355 237.143 113.342 238.157C114.355 239.17 115.595 239.677 117.062 239.677C118.742 239.677 120.102 239.077 121.142 237.877C122.208 236.65 122.742 235.117 122.742 233.277V222.397H127.342V243.597H122.742V240.797C121.115 242.903 118.915 243.957 116.142 243.957C113.715 243.957 111.622 243.183 109.862 241.637C108.128 240.063 107.262 237.983 107.262 235.397V222.397ZM130.797 226.397V222.397H134.797V217.317L139.317 215.997V222.397H145.837V226.397H139.317V236.717C139.317 238.023 139.69 238.837 140.437 239.157C141.21 239.477 141.903 239.637 142.517 239.637C143.477 239.637 144.637 239.423 145.997 238.997V243.437C144.557 243.837 143.237 244.037 142.037 244.037C140.463 244.037 138.863 243.583 137.237 242.677C135.61 241.743 134.797 239.77 134.797 236.757V226.397H130.797ZM151.349 225.237C153.482 223.103 156.042 222.037 159.029 222.037C161.696 222.037 164.016 222.903 165.989 224.637C167.989 226.343 169.216 228.49 169.669 231.077C169.829 231.717 169.909 232.357 169.909 232.997C169.909 233.557 169.842 234.117 169.709 234.677H152.669C152.936 236.25 153.656 237.503 154.829 238.437C156.029 239.37 157.429 239.837 159.029 239.837C161.482 239.837 163.442 238.957 164.909 237.197L168.989 238.277C168.136 239.983 166.762 241.357 164.869 242.397C163.002 243.41 161.056 243.917 159.029 243.917C155.962 243.917 153.376 242.85 151.269 240.717C149.189 238.583 148.149 236.01 148.149 232.997C148.149 229.957 149.216 227.37 151.349 225.237ZM152.669 231.157H165.229C164.962 229.743 164.256 228.557 163.109 227.597C161.989 226.61 160.616 226.117 158.989 226.117C157.362 226.117 155.976 226.61 154.829 227.597C153.682 228.557 152.962 229.743 152.669 231.157ZM173.555 243.597V215.597H178.155V243.597H173.555ZM180.86 222.397H185.78L192.06 238.077L198.06 222.397H202.98L191.1 251.997H186.3L189.7 243.477L180.86 222.397Z"/><path fill="#000" d="M172.619 48.5009C166.507 32.6109 156.847 18.9289 141.765 10.629C134.706 6.81731 127.157 3.99151 119.33 2.23056C115.387 1.30397 111.346 0.574526 107.304 0.0422304C103.756 -0.430921 98.1171 3.21629 103.243 3.7683C104.11 3.7683 104.958 3.96545 105.826 4.08374C110.301 6.0552 119.626 10.3924 120.395 8.26325C124.969 8.97297 126.191 11.9499 132.342 11.5359C134.589 12.5808 136.738 13.7045 138.828 14.9268C138.828 15.7351 140.208 16.3463 141.923 16.8983C143.402 17.8446 144.841 18.8697 146.221 19.9146L145.984 20.0329C147.04 21.1038 148.257 22.002 149.592 22.6944C151.981 24.7682 154.221 27.0081 156.295 29.3974C156.295 31.3688 159.016 33.3403 160.238 34.2669C160.613 34.7795 160.987 35.292 161.342 35.8243C162.919 39.7673 165.285 50.5315 168.853 49.7823C169.149 50.4921 169.425 51.2215 169.701 51.9509C169.405 53.9156 169.452 55.9167 169.839 57.8653C171.14 57.1162 171.14 57.6682 171.712 57.9639L171.83 58.3779C169.524 59.5805 172.185 63.0109 172.047 65.3175L173.289 63.9572C173.467 64.6866 173.605 65.4358 173.762 66.1849C173.249 65.9311 172.678 65.8155 172.106 65.8498C172.538 67.6879 172.854 69.5513 173.053 71.429C173.267 71.2468 173.524 71.1222 173.8 71.067C174.076 71.0118 174.362 71.0278 174.63 71.1136C174.63 71.4685 174.63 71.8036 174.768 72.1585C174.254 72.3166 173.704 72.3166 173.191 72.1585C172.047 77.0477 172.652 78.5592 175.004 76.6928C175.089 76.7034 175.176 76.7034 175.261 76.6928C175.261 77.5011 175.261 78.2897 175.399 79.098C174.871 78.7759 174.325 78.4862 173.762 78.2306C173.762 79.8669 172.579 85.1701 175.418 84.145V84.2633C175.082 84.5567 174.807 84.9141 174.609 85.3147C174.412 85.7153 174.296 86.1511 174.269 86.5968C174.241 87.0425 174.303 87.4892 174.449 87.911C174.596 88.3328 174.825 88.7213 175.123 89.0539C174.985 90.3551 174.807 91.6563 174.61 92.9969C172.915 93.5883 171.357 94.4755 172.816 97.0581C173.116 96.6207 173.553 96.2949 174.058 96.1315C173.664 98.103 173.21 99.897 172.698 101.73C170.975 104.134 169.645 106.796 168.755 109.616L169.721 110.03C169.583 110.346 169.465 110.681 169.307 110.996H169.169C169.179 111.141 169.179 111.286 169.169 111.43C168.262 113.402 167.197 115.373 166.212 117.344L165.66 117.778H165.955C165.423 118.744 164.871 119.75 164.28 120.617C164.15 120.403 164.005 120.199 163.846 120.006C162.486 122.194 161.303 124.639 159.903 126.906C150.824 138.635 138.669 147.617 124.791 152.851L122.82 153.56C121.144 154.171 119.429 154.664 117.714 155.118C116.432 155.118 115.289 155.335 114.894 155.394C115.163 155.425 115.424 155.505 115.663 155.63C112.452 156.396 109.191 156.936 105.904 157.247C105.412 156.734 104.505 156.537 102.237 156.596C102.488 156.834 102.671 157.133 102.77 157.464C100.043 157.582 97.3108 157.543 94.5882 157.346C92.7745 156.182 85.3223 155.019 84.2183 155.689C83.4889 155.512 82.7397 155.315 82.0103 155.098C81.1822 153.127 79.5459 151.155 77.5942 153.679L76.5099 153.265C74.2427 151.431 69.3732 148.08 67.5594 148.888C67.4816 148.906 67.4006 148.906 67.3228 148.888L65.9822 148.099C64.0108 146.68 60.9156 143.88 60.3044 143.328C59.4283 142.467 58.3172 141.884 57.1106 141.653C55.3363 140.135 53.6014 138.538 51.906 136.783C50.2105 135.029 48.7319 133.313 47.2533 131.5C48.8502 130.494 47.687 130.08 46.0113 129.942C45.3607 129.114 44.7495 128.247 44.1581 127.399C44.513 127.534 44.8559 127.699 45.1833 127.892C44.6273 127.141 43.9629 126.476 43.2118 125.92C40.2558 121.512 37.74 116.823 35.7005 111.923C34.4191 104.964 33.1179 96.4272 30.555 94.0023C30.2001 91.9323 29.9044 89.8228 29.7072 87.733C29.7464 87.6248 29.7464 87.5062 29.7072 87.3979C29.2637 82.4792 29.2637 77.5306 29.7072 72.6119C29.9833 71.0347 30.3775 69.9504 30.9493 69.8519C32.1913 57.1753 33.0785 52.6015 39.466 40.5361C39.466 40.5361 39.328 40.5361 39.2689 40.5361L39.7617 39.6096C39.7692 39.6751 39.7692 39.7412 39.7617 39.8067C42.017 35.7209 44.8083 31.9549 48.0616 28.6088C47.7856 28.6088 47.549 28.6088 47.2927 28.4708L48.3573 27.2288C49.5205 27.1105 50.4471 26.1247 52.5368 24.1927C55.1983 21.7481 58.3329 20.7623 56.9135 18.9486C57.2683 18.6726 57.6429 18.3769 58.0372 18.1009L58.4907 18.8106C60.4621 17.1743 65.1345 15.2225 65.3119 13.0933L66.416 12.5808C66.4926 12.8044 66.4926 13.0471 66.416 13.2708L68.3874 12.0682L67.8748 11.6345L68.8409 11.0824C68.9055 11.2933 68.9387 11.5125 68.9394 11.733C77.1999 7.3958 86.2883 7.2578 94.2136 3.17686C95.3965 2.52628 94.0165 1.97427 91.8281 1.73769C92.818 1.54487 93.8188 1.41319 94.8248 1.3434C93.6222 1.3434 92.4393 1.52083 91.2761 1.65883C88.6219 1.31841 85.948 1.15376 83.272 1.16597C81.2071 1.37055 79.2 1.96599 77.3576 2.92057L80.0782 2.72342C78.7573 3.92602 77.7716 4.20202 77.1407 3.57116C77.0378 3.45472 76.9454 3.32937 76.8647 3.19658C75.4835 4.08974 74.166 5.07785 72.9218 6.15378C70.6258 7.0688 68.3816 8.10866 66.1991 9.26869C65.8048 9.11098 65.2528 8.97297 65.5288 8.08581C63.7545 9.03212 54.8434 14.6902 55.2969 14.9465C55.7503 15.2028 58.2738 13.1131 58.8455 12.975C55.4349 15.2817 44.3158 21.4326 43.7441 25.6319L45.3213 26.4402L44.7298 27.1696C44.3327 26.768 43.9882 26.3175 43.7047 25.829C41.3192 33.3403 32.6053 41.995 29.5495 52.4241C28.4849 56.0713 23.2408 71.981 25.6066 74.8791C25.4489 74.6819 25.9417 73.5582 26.4149 72.3359C26.4149 73.5188 26.4149 74.9579 26.4149 76.5745C26.1354 81.5511 26.2607 86.5422 26.7895 91.4986C27.0063 96.4272 27.2429 100.429 27.4006 101.356C27.7275 101.144 28.009 100.869 28.2286 100.548C28.9019 103.757 29.7643 106.923 30.8113 110.03C30.9256 110.628 31.0904 111.215 31.3041 111.785C31.2682 111.524 31.2088 111.267 31.1267 111.016C31.2174 111.242 31.2963 111.472 31.3633 111.706C31.8794 114.377 32.9397 116.914 34.4782 119.158C35.2668 120.854 36.1342 122.529 37.0608 124.146C37.8691 129.489 46.5633 137.69 48.791 139.918C51.986 142.764 54.7842 146.026 57.1106 149.617C58.3132 151.589 62.4533 151.135 63.9713 152.18C62.5913 151.234 61.6647 150.643 61.0536 150.209L61.2901 150.327C63.2616 151.569 65.2331 152.673 67.106 153.738C68.5648 154.546 70.1815 155.315 71.4826 155.867L71.7586 155.985C72.6655 156.38 73.3555 156.675 73.7301 156.833C74.4536 157.237 75.24 157.517 76.0564 157.661C88.1035 161.904 101.022 163.059 113.631 161.02C126.24 158.981 138.136 153.814 148.232 145.99C178.257 122.608 185.985 83.0607 172.619 48.5009ZM71.3052 10.4713L70.6743 10.0573L71.4629 9.62356C71.0489 9.86013 71.6995 10.6684 71.3052 10.4713ZM60.5016 12.699L59.8115 13.1919C59.6218 13.1118 59.4374 13.0196 59.2595 12.9159L60.5016 12.699ZM47.2533 131.421L46.4056 130.336C46.7013 130.396 47.0167 130.711 47.2533 131.421ZM27.1838 95.0472V95.1655V95.0472ZM163.215 40.2996L163.708 39.5504L164.122 40.2601C163.813 40.2325 163.501 40.2457 163.195 40.2996H163.215Z"/><path fill="#000" d="M71.8969 70.5033L72.9812 71.3905C73.1586 71.7256 73.3361 72.0608 73.4938 72.4157C73.1586 72.4157 73.3558 72.5142 73.4938 72.5931C74.657 75.2743 75.2878 78.3301 77.6339 79.3158L78.107 79.4932C78.3072 79.653 78.4981 79.8242 78.6787 80.0058C78.6663 79.8764 78.6331 79.7499 78.5802 79.6312C82.5231 80.6367 81.1234 74.8997 80.3545 72.9282C77.1607 64.6481 66.9288 57.7085 58.0572 62.3218C53.8363 64.4559 50.5663 68.0916 48.8899 72.5142C48.6735 74.1835 48.7469 75.8775 49.1068 77.5218C49.0581 77.677 49.0186 77.835 48.9885 77.9949H49.087V78.2709H48.9885C48.7519 79.4735 48.9885 80.2424 50.1713 80.2424C47.3916 80.4395 50.9796 80.2424 49.4025 81.0113C50.9796 80.3015 51.9062 80.7747 52.5568 79.9467C51.9457 80.7155 54.134 75.6094 55.7506 72.7311C56.1646 72.1199 56.5786 71.5285 57.0123 70.9568C57.1701 70.9568 57.2883 70.9568 57.3081 70.9568C57.3278 70.9568 57.1701 70.7991 57.032 70.9568L57.4855 70.4048C58.5905 69.8595 59.6346 69.1986 60.6004 68.4333C56.9138 70.6019 62.7296 67.073 61.9607 67.0927C62.1579 67.0927 66.2585 68.1376 67.2442 68.4333C68.6637 68.4333 68.644 68.2362 67.2442 67.6841C67.1457 68.1376 67.0274 68.1376 66.8894 67.6841L67.3034 67.349C67.6583 67.4673 68.0328 67.6053 68.4468 67.7827C68.3088 68.3544 68.8806 68.9853 69.61 69.5176C70.2123 69.9609 70.8765 70.313 71.5815 70.5625C71.5815 70.6808 71.7195 70.7793 71.5815 70.8385C71.6176 70.8016 71.6378 70.7521 71.6378 70.7005C71.6378 70.6489 71.6176 70.5993 71.5815 70.5625C71.8772 70.5822 71.9363 70.5625 71.8969 70.5033ZM50.4276 79.8284V79.5721C50.5174 79.6008 50.6139 79.6008 50.7036 79.5721C51.0388 79.7889 50.9205 79.8678 50.4276 79.8284ZM52.616 77.4626C52.616 77.3246 52.7934 77.1866 52.892 77.0486C52.8565 77.2169 52.7577 77.3651 52.616 77.4626ZM66.3965 67.7827C66.5542 67.3884 66.6528 67.3884 66.6331 67.7827H66.3965ZM69.2551 68.1967C69.2354 68.2953 69.2157 68.2559 69.2551 68.1376V68.1967ZM70.3 69.6162C69.1369 69.419 69.748 69.1036 70.3 69.6162V69.6162ZM70.9703 69.7345C70.9703 69.7345 70.9703 69.6359 70.9703 69.7345C71.128 69.1825 71.3055 69.7542 70.9703 69.6753V69.7345Z"/><path fill="#000" d="M70.6348 70.976C70.6348 70.976 69.8068 70.6606 69.5703 71.1338C69.3337 71.6069 70.6743 70.976 70.6348 70.976Z"/><path fill="#000" d="M65.4696 69.2212C65.1936 70.7787 66.751 68.8663 66.7313 68.9255C66.7116 68.9846 65.5681 68.6495 65.4696 69.2212Z"/><path fill="#000" d="M57.8797 71.568C58.1162 71.6863 58.1951 71.1146 57.8797 71.016C57.8402 70.9766 57.5839 71.4497 57.8797 71.568Z"/><path fill="#000" d="M142.774 68.8041L143.858 69.6913C144.036 70.0264 144.213 70.3616 144.371 70.7164C144.036 70.7164 144.233 70.815 144.371 70.8939C145.534 73.5751 146.165 76.6308 148.511 77.6166L148.984 77.794C149.184 77.9538 149.375 78.1249 149.556 78.3066C149.543 78.1772 149.51 78.0507 149.457 77.932C153.4 78.9375 152 73.2005 151.231 71.229C148.038 62.9489 137.806 56.0093 128.934 60.6225C124.713 62.7566 121.443 66.3923 119.767 70.815C119.551 72.4842 119.624 74.1783 119.984 75.8225C119.935 75.9778 119.896 76.1358 119.865 76.2957H119.964V76.5717H119.865C119.629 77.7743 119.865 78.5432 121.048 78.5432C118.269 78.7403 121.857 78.5432 120.279 79.312C121.857 78.6023 122.783 79.0755 123.434 78.2474C122.823 79.0163 125.011 73.9102 126.628 71.0319C127.042 70.4207 127.456 69.8293 127.889 69.2576C128.047 69.2576 128.165 69.2576 128.185 69.2576C128.205 69.2576 128.047 69.0998 127.909 69.2576L128.362 68.7055C129.467 68.1602 130.512 67.4994 131.477 66.7341C127.791 68.9027 133.607 65.3738 132.838 65.3935C133.035 65.3935 137.135 66.4384 138.121 66.7341C139.541 66.7341 139.521 66.5369 138.121 65.9849C138.023 66.4384 137.904 66.4384 137.766 65.9849L138.18 65.6498C138.535 65.7681 138.91 65.9061 139.324 66.0835C139.186 66.6552 139.758 67.2861 140.487 67.8184C141.089 68.2617 141.754 68.6137 142.458 68.8633C142.458 68.9816 142.596 69.0801 142.458 69.1393C142.495 69.1024 142.515 69.0529 142.515 69.0013C142.515 68.9497 142.495 68.9001 142.458 68.8633C142.754 68.883 142.813 68.8633 142.774 68.8041ZM121.305 78.1292V77.8729C121.394 77.9016 121.491 77.9016 121.581 77.8729C121.916 78.0897 121.797 78.1686 121.305 78.1292ZM123.493 75.7634C123.493 75.6254 123.67 75.4874 123.769 75.3494C123.733 75.5177 123.635 75.6659 123.493 75.7634ZM137.273 66.0835C137.431 65.6892 137.53 65.6892 137.51 66.0835H137.273ZM140.132 66.4975C140.112 66.5961 140.093 66.5567 140.132 66.4384V66.4975ZM141.177 67.917C140.014 67.7198 140.625 67.4044 141.177 67.917V67.917ZM141.847 68.0352C141.847 68.0352 141.847 67.9367 141.847 68.0352C142.005 67.4832 142.182 68.055 141.847 67.9761V68.0352Z"/><path fill="#000" d="M141.512 69.2768C141.512 69.2768 140.684 68.9614 140.447 69.4345C140.211 69.9077 141.551 69.2768 141.512 69.2768Z"/><path fill="#000" d="M136.347 67.522C136.071 69.0795 137.628 67.1671 137.608 67.2263C137.589 67.2854 136.445 66.9503 136.347 67.522Z"/><path fill="#000" d="M128.757 69.8688C128.993 69.9871 129.072 69.4154 128.757 69.3168C128.717 69.2774 128.461 69.7505 128.757 69.8688Z"/><path fill="#000" d="M134.648 100.37C134.746 100.294 134.826 100.197 134.881 100.086C134.935 99.9749 134.964 99.8527 134.964 99.7289C134.964 99.6051 134.935 99.4829 134.881 99.3718C134.826 99.2607 134.746 99.1637 134.648 99.0882C133.879 98.1419 130.409 97.8264 126.033 97.8067L126.25 97.5701C126.04 97.6143 125.84 97.6943 125.658 97.8067C123.963 97.8067 122.149 97.8067 120.316 97.8067C120.178 97.4519 119.921 97.5701 119.783 97.8067C112.745 98.0433 105.411 98.5953 103.105 98.4573L100.561 98.3193C100.68 98.3193 100.759 98.3193 100.778 98.1419C100.486 98.2135 100.19 98.2662 99.8912 98.2996H98.9054C97.3904 98.0091 95.9102 97.5597 94.4894 96.959C94.2134 97.8264 93.6022 97.8264 94.3711 96.959C93.5431 96.959 92.3996 97.1167 90.9801 97.1758C90.9801 97.1758 90.9801 97.0576 90.9801 97.0181C90.9801 96.9787 90.7436 97.0181 90.6056 97.1956C86.0911 97.1262 81.5792 97.4495 77.1207 98.1616H76.7856C75.3859 98.5756 74.5776 99.1867 74.8141 100.133C74.6628 99.6362 74.3841 99.1877 74.0058 98.8319C74.2621 99.9359 74.2227 100.212 73.8875 99.6205C74.0717 99.9371 74.2173 100.275 74.3213 100.626L74.0058 100.744C73.2172 99.5022 72.6258 98.9107 72.9018 100.33C72.9018 100.626 73.0201 100.902 73.0792 101.178C72.9686 101.2 72.8547 101.2 72.7441 101.178C72.6712 102.1 72.5328 103.016 72.3301 103.918C72.3301 106.028 83.3703 124.974 86.9189 124.678C87.2738 124.678 86.5641 123.909 86.1303 123.377C88.4753 125.321 91.0591 126.957 93.8191 128.246H93.2276C97.762 130.218 96.9931 129.922 94.8639 128.798C97.8378 130.071 100.978 130.914 104.189 131.302C106.665 131.6 109.174 131.459 111.602 130.888C110.88 131.126 110.21 131.501 109.63 131.992C109.926 133.963 112.311 130.868 112.587 130.691H112.193C117.303 129.256 121.924 126.454 125.56 122.588C125.575 122.666 125.617 122.735 125.678 122.785C126.131 123.179 126.329 122.332 126.329 121.799C126.959 121.09 127.571 120.341 128.162 119.591C128.162 119.887 128.537 120.005 129.148 119.434C129.404 118.823 129.325 118.527 128.951 118.527C130.327 116.605 131.497 114.543 132.44 112.376C132.834 112.376 133.11 112.534 132.933 112.691C133.406 112.238 133.11 111.962 132.696 111.725C133.332 110.142 133.827 108.506 134.175 106.836C134.609 106.461 134.688 105.062 134.628 103.524C134.706 102.474 134.712 101.42 134.648 100.37ZM75.3267 108.906C75.6861 110.049 76.1756 111.147 76.7856 112.179C76.2799 111.806 75.8796 111.309 75.6239 110.735C75.3681 110.161 75.2658 109.531 75.3267 108.906ZM80.5708 98.9305H80.1765C80.1765 98.753 80.3145 98.5362 80.4328 98.2602C81.1031 97.7081 80.8862 98.1024 80.5708 98.9305ZM81.3594 98.7333C81.3594 98.4573 81.458 98.3784 81.5565 98.4179V98.6939L81.3594 98.7333ZM82.5226 98.477L82.1874 98.5756C82.1874 98.1419 82.3648 97.6293 82.6803 98.3587L82.5226 98.477ZM120.71 103.977C120.534 104.103 120.342 104.202 120.138 104.273C118.78 106.842 116.486 108.791 113.731 109.714C113.442 109.949 113.139 110.166 112.824 110.365C110.991 110.621 107.54 111.252 106.436 111.37C106.614 111.4 106.779 111.483 106.91 111.607C105.549 113.164 100.581 111.43 96.2045 109.202C92.2616 107.23 88.7524 104.707 89.0087 103.879C89.2937 103.726 89.5643 103.548 89.817 103.347C89.6813 103.191 89.5561 103.026 89.4424 102.854H90.3296H93.0699C93.1882 102.716 93.2868 102.735 93.4248 102.854H93.9965H94.1739L94.0162 102.519C93.9858 102.587 93.97 102.661 93.97 102.735C93.97 102.81 93.9858 102.884 94.0162 102.952C92.8406 102.729 91.6398 102.669 90.4479 102.775H89.5015L90.369 102.617V102.479C90.5267 102.479 90.6056 102.479 90.6253 102.578C92.3405 102.282 95.5342 101.829 95.1202 102.578C95.5038 102.497 95.8998 102.497 96.2834 102.578C96.2553 102.622 96.2404 102.673 96.2404 102.726C96.2404 102.778 96.2553 102.829 96.2834 102.873C96.4608 102.873 96.5397 102.676 96.5397 102.597L97.3086 102.696H98.2746C98.4204 102.402 98.5265 102.091 98.59 101.769C99.2209 101.355 98.8266 102.696 99.2012 102.834C101.705 103.8 112.055 100.291 115.387 103.445L115.131 103.544H116.984L117.871 103.327C117.023 103.189 114.066 102.657 117.28 102.933C118.403 102.795 120.67 102.933 121.558 102.933C121.109 103.132 120.685 103.383 120.296 103.682C120.225 103.773 120.166 103.872 120.118 103.977H120.71Z"/></svg>