<svg xmlns="http://www.w3.org/2000/svg" width="156" height="247" fill="none" viewBox="0 0 156 247"><path fill="#000" d="M23.7019 232.577V208.937H16.6619V204.577H28.3019V232.577H23.7019ZM43.7947 204.577H48.3947V214.177C50.048 212.07 52.2614 211.017 55.0347 211.017C57.4614 211.017 59.5414 211.804 61.2747 213.377C63.0347 214.924 63.9147 216.99 63.9147 219.577V232.577H59.3147V220.817C59.3147 219.137 58.808 217.804 57.7947 216.817C56.7814 215.804 55.5547 215.297 54.1147 215.297C52.4347 215.297 51.0614 215.91 49.9947 217.137C48.928 218.337 48.3947 219.844 48.3947 221.657V232.577H43.7947V204.577ZM70.3734 214.217C72.5068 212.084 75.0801 211.017 78.0934 211.017C81.1068 211.017 83.6668 212.097 85.7734 214.257C87.9068 216.39 88.9734 218.95 88.9734 221.937C88.9734 224.95 87.9068 227.537 85.7734 229.697C83.6401 231.83 81.0801 232.897 78.0934 232.897C75.0801 232.897 72.5068 231.83 70.3734 229.697C68.2401 227.537 67.1734 224.95 67.1734 221.937C67.1734 218.924 68.2401 216.35 70.3734 214.217ZM71.4934 221.937C71.4934 223.777 72.1334 225.364 73.4134 226.697C74.6934 228.03 76.2534 228.697 78.0934 228.697C79.9068 228.697 81.4534 228.03 82.7334 226.697C84.0134 225.364 84.6534 223.777 84.6534 221.937C84.6534 220.097 84.0134 218.524 82.7334 217.217C81.4801 215.884 79.9334 215.217 78.0934 215.217C76.2534 215.217 74.6934 215.884 73.4134 217.217C72.1334 218.524 71.4934 220.097 71.4934 221.937ZM92.1875 211.377H96.7875V223.097C96.7875 224.777 97.2808 226.124 98.2675 227.137C99.2808 228.15 100.521 228.657 101.988 228.657C103.668 228.657 105.028 228.057 106.068 226.857C107.134 225.63 107.668 224.097 107.668 222.257V211.377H112.268V232.577H107.668V229.777C106.041 231.884 103.841 232.937 101.068 232.937C98.6408 232.937 96.5475 232.164 94.7875 230.617C93.0542 229.044 92.1875 226.964 92.1875 224.377V211.377ZM116.683 211.377H121.283V214.857C121.949 213.524 122.856 212.577 124.003 212.017C125.176 211.43 126.376 211.137 127.603 211.137C128.189 211.137 128.803 211.19 129.443 211.297V216.217C128.616 215.95 127.829 215.817 127.083 215.817C125.883 215.817 124.616 216.257 123.283 217.137C121.949 218.017 121.283 219.577 121.283 221.817V232.577H116.683V211.377Z"/><path fill="#000" d="M81.2998 91.9111L68.6814 117.203C67.1581 120.282 62.7404 120.181 61.344 117.051L46.8975 84.9137L39.2808 103.158H15.3896L61.7248 150.613C63.5274 152.47 66.4472 152.47 68.2498 150.613L114.61 103.158H86.9108L81.2998 91.9111ZM120.272 48.68L119.663 48.0439C106.587 34.6598 85.1844 34.6598 72.0836 48.0439L65 55.3212L57.9164 48.0694C44.841 34.6598 23.4126 34.6598 10.3372 48.0694L9.72782 48.68C-2.6367 61.3517 -3.16987 81.5295 7.87441 95.0154H33.8729L42.9876 73.0818C44.3586 69.7994 48.9794 69.7231 50.452 72.98L65.2285 105.88L77.6692 80.9698C79.1671 77.9672 83.4325 77.9672 84.9305 80.9698L91.9379 95.0154H122.126C133.17 81.5295 132.637 61.3517 120.272 48.68Z"/><path stroke="#000" stroke-width="6" d="M67.9998 2.99969C79.1345 2.99969 90.16 5.19282 100.447 9.45385C110.734 13.7149 120.081 19.9604 127.955 27.8337C135.828 35.7071 142.073 45.0541 146.334 55.3412C150.595 65.6282 152.789 76.6538 152.789 87.7884C152.789 98.923 150.595 109.949 146.334 120.236C142.073 130.523 135.828 139.87 127.955 147.743C120.081 155.616 110.734 161.862 100.447 166.123C90.16 170.384 79.1345 172.577 67.9998 172.577"/></svg>