<svg xmlns="http://www.w3.org/2000/svg" width="204" height="218" fill="none" viewBox="0 0 204 218"><path fill="#000" stroke="#000" stroke-miterlimit="10" stroke-width="8" d="M107.225 4H96.7853H59L76.901 130H98.7738H105.236H127.104L145 4H107.225Z"/><path fill="#000" d="M44.7848 24.8479C44.9059 24.7914 45.037 24.7593 45.1707 24.7535C45.3044 24.7476 45.438 24.768 45.564 24.8136C45.6899 24.8592 45.8057 24.9291 45.9046 25.0192C46.0035 25.1093 46.0837 25.2179 46.1406 25.3388C46.7906 26.72 48.1719 30.5197 49.0907 34.8131C49.9997 39.0621 50.5111 44.0501 49.2004 47.6698C47.929 51.1809 45.8782 53.6861 43.2724 55.0083C40.6627 56.3355 37.6261 56.4011 34.5317 55.2806C31.4392 54.1608 29.1486 52.1662 27.9917 49.4751C26.8348 46.7904 26.8654 43.5536 28.1368 40.0425C29.4482 36.4209 33.0332 32.9206 36.4526 30.2368C39.908 27.5251 43.4005 25.4946 44.7848 24.8479Z"/><path fill="#000" d="M157.894 11.0052C157.831 10.9758 157.763 10.9591 157.693 10.956C157.624 10.9529 157.554 10.9636 157.488 10.9874C157.423 11.0111 157.362 11.0475 157.311 11.0945C157.259 11.1415 157.217 11.198 157.188 11.261C156.849 11.9808 156.129 13.9609 155.65 16.1983C155.177 18.4125 154.91 21.0119 155.593 22.8981C156.256 24.7279 157.325 26.0334 158.682 26.7224C160.042 27.414 161.625 27.4482 163.237 26.8643C164.849 26.2807 166.043 25.2413 166.646 23.8389C167.248 22.4399 167.232 20.7531 166.57 18.9234C165.887 17.0362 164.018 15.212 162.236 13.8135C160.436 12.4004 158.616 11.3422 157.894 11.0052Z"/><line x1="67.972" x2="76.489" y1="11.953" y2="69.82" stroke="#fff" stroke-linecap="round" stroke-width="7"/><path fill="#000" d="M5.23847 179.6C7.2118 176.96 9.8518 175.64 13.1585 175.64C15.6118 175.64 17.7451 176.373 19.5585 177.84C21.3718 179.307 22.5718 181.24 23.1585 183.64H18.4385C18.1185 182.6 17.4651 181.707 16.4785 180.96C15.5185 180.187 14.3851 179.8 13.0785 179.8C11.0518 179.8 9.46514 180.68 8.31847 182.44C7.1718 184.173 6.59847 186.213 6.59847 188.56L6.63847 189.56C7.22513 188.333 8.14513 187.32 9.39847 186.52C10.6518 185.72 12.1318 185.32 13.8385 185.32C13.8918 185.32 13.9451 185.32 13.9985 185.32C16.7185 185.347 18.9451 186.28 20.6785 188.12C22.4385 189.933 23.3185 192.093 23.3185 194.6C23.3185 197.32 22.4118 199.627 20.5985 201.52C18.8118 203.387 16.3851 204.32 13.3185 204.32C9.95847 204.32 7.26514 203.08 5.23847 200.6C3.23847 198.12 2.23847 194.64 2.23847 190.16C2.23847 185.76 3.23847 182.24 5.23847 179.6ZM9.07847 198.56C10.1451 199.627 11.4651 200.16 13.0385 200.16C14.6385 200.16 15.9718 199.64 17.0385 198.6C18.1051 197.56 18.6385 196.253 18.6385 194.68C18.6385 193.107 18.0918 191.787 16.9985 190.72C15.9318 189.653 14.6118 189.12 13.0385 189.12C11.4651 189.12 10.1318 189.653 9.03847 190.72C7.9718 191.76 7.43847 193.08 7.43847 194.68C7.43847 196.227 7.98514 197.52 9.07847 198.56ZM27.1716 190.52H33.9716V183.96H38.1316V190.52H44.9316V194.64H38.1316V201.16H34.0116V194.64H27.1716V190.52ZM59.4185 193.08C59.4185 190.013 60.4185 187.48 62.4185 185.48C64.4185 183.453 66.8585 182.44 69.7385 182.44C69.8185 182.44 69.8985 182.44 69.9785 182.44C72.8318 182.467 75.0985 183.52 76.7785 185.6V182.8H81.3785V202.4C81.3785 205.76 80.3651 208.4 78.3385 210.32C76.3385 212.24 73.8585 213.2 70.8985 213.2C68.4451 213.2 66.2318 212.52 64.2585 211.16C62.2851 209.8 60.9918 207.813 60.3785 205.2H64.9785C65.4318 206.48 66.2051 207.413 67.2985 208C68.4185 208.613 69.6051 208.92 70.8585 208.92C72.5918 208.92 74.0051 208.387 75.0985 207.32C76.1918 206.253 76.7518 204.64 76.7785 202.48V200.76C75.1251 202.733 72.8585 203.72 69.9785 203.72C66.9385 203.72 64.4185 202.707 62.4185 200.68C60.4185 198.627 59.4185 196.093 59.4185 193.08ZM63.6985 193.08C63.6985 194.92 64.3518 196.467 65.6585 197.72C66.9651 198.973 68.5385 199.6 70.3785 199.6C72.2185 199.6 73.7918 198.973 75.0985 197.72C76.4318 196.44 77.0985 194.893 77.0985 193.08C77.0985 191.267 76.4451 189.733 75.1385 188.48C73.8318 187.2 72.2451 186.56 70.3785 186.56C68.5118 186.56 66.9251 187.187 65.6185 188.44C64.3385 189.693 63.6985 191.24 63.6985 193.08ZM85.6844 204V176H90.2844V204H85.6844ZM97.0688 185.64C99.1221 183.507 101.615 182.44 104.549 182.44C107.402 182.44 109.669 183.507 111.349 185.64V182.8H115.949V204H111.349V201.16C109.669 203.267 107.402 204.32 104.549 204.32C101.642 204.32 99.1488 203.253 97.0688 201.12C95.0154 198.96 93.9888 196.387 93.9888 193.4C93.9888 190.36 95.0154 187.773 97.0688 185.64ZM98.2688 193.4C98.2688 195.267 98.9088 196.867 100.189 198.2C101.495 199.507 103.082 200.16 104.949 200.16C106.789 200.16 108.362 199.493 109.669 198.16C111.002 196.827 111.669 195.24 111.669 193.4C111.669 191.56 111.002 189.973 109.669 188.64C108.362 187.28 106.789 186.6 104.949 186.6C103.082 186.6 101.495 187.267 100.189 188.6C98.9088 189.933 98.2688 191.533 98.2688 193.4ZM119.771 188.84C119.771 186.84 120.584 185.28 122.211 184.16C123.838 183.013 125.918 182.44 128.451 182.44C131.464 182.44 134.198 183.173 136.651 184.64V189.08C133.558 187.293 130.824 186.4 128.451 186.4C127.278 186.4 126.318 186.627 125.571 187.08C124.851 187.507 124.491 188.08 124.491 188.8C124.491 189.04 124.531 189.267 124.611 189.48C124.718 189.667 124.878 189.84 125.091 190C125.331 190.16 125.558 190.293 125.771 190.4C126.011 190.507 126.344 190.627 126.771 190.76C127.198 190.867 127.558 190.96 127.851 191.04C128.144 191.093 128.571 191.187 129.131 191.32C129.718 191.453 130.184 191.56 130.531 191.64C132.984 192.227 134.758 193.053 135.851 194.12C136.971 195.187 137.544 196.493 137.571 198.04C137.571 199.48 137.118 200.693 136.211 201.68C135.331 202.667 134.278 203.36 133.051 203.76C131.824 204.133 130.478 204.32 129.011 204.32C125.998 204.32 123.064 203.4 120.211 201.56V196.88C121.171 197.707 122.491 198.48 124.171 199.2C125.851 199.92 127.464 200.28 129.011 200.28C130.051 200.28 130.944 200.08 131.691 199.68C132.464 199.253 132.851 198.693 132.851 198C132.851 197.28 132.411 196.693 131.531 196.24C130.651 195.76 129.278 195.333 127.411 194.96C124.798 194.427 122.864 193.693 121.611 192.76C120.384 191.8 119.771 190.493 119.771 188.84ZM140.123 188.84C140.123 186.84 140.936 185.28 142.563 184.16C144.189 183.013 146.269 182.44 148.803 182.44C151.816 182.44 154.549 183.173 157.003 184.64V189.08C153.909 187.293 151.176 186.4 148.803 186.4C147.629 186.4 146.669 186.627 145.923 187.08C145.203 187.507 144.843 188.08 144.843 188.8C144.843 189.04 144.883 189.267 144.963 189.48C145.069 189.667 145.229 189.84 145.443 190C145.683 190.16 145.909 190.293 146.123 190.4C146.363 190.507 146.696 190.627 147.123 190.76C147.549 190.867 147.909 190.96 148.203 191.04C148.496 191.093 148.923 191.187 149.483 191.32C150.069 191.453 150.536 191.56 150.883 191.64C153.336 192.227 155.109 193.053 156.203 194.12C157.323 195.187 157.896 196.493 157.923 198.04C157.923 199.48 157.469 200.693 156.563 201.68C155.683 202.667 154.629 203.36 153.403 203.76C152.176 204.133 150.829 204.32 149.363 204.32C146.349 204.32 143.416 203.4 140.563 201.56V196.88C141.523 197.707 142.843 198.48 144.523 199.2C146.203 199.92 147.816 200.28 149.363 200.28C150.403 200.28 151.296 200.08 152.043 199.68C152.816 199.253 153.203 198.693 153.203 198C153.203 197.28 152.763 196.693 151.883 196.24C151.003 195.76 149.629 195.333 147.763 194.96C145.149 194.427 143.216 193.693 141.963 192.76C140.736 191.8 140.123 190.493 140.123 188.84ZM163.439 185.64C165.572 183.507 168.132 182.44 171.119 182.44C173.785 182.44 176.105 183.307 178.079 185.04C180.079 186.747 181.305 188.893 181.759 191.48C181.919 192.12 181.999 192.76 181.999 193.4C181.999 193.96 181.932 194.52 181.799 195.08H164.759C165.025 196.653 165.745 197.907 166.919 198.84C168.119 199.773 169.519 200.24 171.119 200.24C173.572 200.24 175.532 199.36 176.999 197.6L181.079 198.68C180.225 200.387 178.852 201.76 176.959 202.8C175.092 203.813 173.145 204.32 171.119 204.32C168.052 204.32 165.465 203.253 163.359 201.12C161.279 198.987 160.239 196.413 160.239 193.4C160.239 190.36 161.305 187.773 163.439 185.64ZM164.759 191.56H177.319C177.052 190.147 176.345 188.96 175.199 188C174.079 187.013 172.705 186.52 171.079 186.52C169.452 186.52 168.065 187.013 166.919 188C165.772 188.96 165.052 190.147 164.759 191.56ZM184.81 188.84C184.81 186.84 185.623 185.28 187.25 184.16C188.877 183.013 190.957 182.44 193.49 182.44C196.503 182.44 199.237 183.173 201.69 184.64V189.08C198.597 187.293 195.863 186.4 193.49 186.4C192.317 186.4 191.357 186.627 190.61 187.08C189.89 187.507 189.53 188.08 189.53 188.8C189.53 189.04 189.57 189.267 189.65 189.48C189.757 189.667 189.917 189.84 190.13 190C190.37 190.16 190.597 190.293 190.81 190.4C191.05 190.507 191.383 190.627 191.81 190.76C192.237 190.867 192.597 190.96 192.89 191.04C193.183 191.093 193.61 191.187 194.17 191.32C194.757 191.453 195.223 191.56 195.57 191.64C198.023 192.227 199.797 193.053 200.89 194.12C202.01 195.187 202.583 196.493 202.61 198.04C202.61 199.48 202.157 200.693 201.25 201.68C200.37 202.667 199.317 203.36 198.09 203.76C196.863 204.133 195.517 204.32 194.05 204.32C191.037 204.32 188.103 203.4 185.25 201.56V196.88C186.21 197.707 187.53 198.48 189.21 199.2C190.89 199.92 192.503 200.28 194.05 200.28C195.09 200.28 195.983 200.08 196.73 199.68C197.503 199.253 197.89 198.693 197.89 198C197.89 197.28 197.45 196.693 196.57 196.24C195.69 195.76 194.317 195.333 192.45 194.96C189.837 194.427 187.903 193.693 186.65 192.76C185.423 191.8 184.81 190.493 184.81 188.84Z"/></svg>