<svg xmlns="http://www.w3.org/2000/svg" width="273" height="229" fill="none" viewBox="0 0 273 229"><path fill="#000" d="M8.39328 215V191.36H1.35328V187H12.9933V215H8.39328ZM21.8695 206.32C22.0562 207.76 22.6695 208.907 23.7095 209.76C24.7762 210.587 26.0162 211 27.4295 211C29.0295 211 30.3229 210.467 31.3095 209.4C32.3229 208.307 32.8429 206.987 32.8695 205.44C32.8695 205.36 32.8695 205.28 32.8695 205.2C32.8695 203.68 32.3495 202.4 31.3095 201.36C30.2695 200.293 28.9095 199.76 27.2295 199.76C26.2429 199.76 25.2962 199.96 24.3895 200.36C23.5095 200.76 22.8162 201.293 22.3095 201.96H17.7095L18.1095 187H36.3895L36.4295 191.36H22.5095L22.3495 198.2C23.8695 196.653 25.8162 195.88 28.1895 195.88C28.2162 195.88 28.2562 195.88 28.3095 195.88C30.9762 195.907 33.1629 196.853 34.8695 198.72C36.6029 200.56 37.4695 202.773 37.4695 205.36C37.4695 205.44 37.4695 205.52 37.4695 205.6C37.4695 208.347 36.5629 210.653 34.7495 212.52C32.9629 214.387 30.6562 215.32 27.8295 215.32C27.6962 215.32 27.5762 215.32 27.4695 215.32C24.8829 215.32 22.6029 214.533 20.6295 212.96C18.6829 211.387 17.5362 209.173 17.1895 206.32H21.8695ZM40.6986 205.6V201.48H55.2186V205.6H40.6986ZM63.2302 206.32C63.3102 207.733 63.8435 208.893 64.8302 209.8C65.8168 210.707 67.0568 211.16 68.5502 211.16C70.1235 211.16 71.3768 210.72 72.3102 209.84C73.2702 208.96 73.7502 207.84 73.7502 206.48C73.7502 204.587 73.0702 203.253 71.7102 202.48C70.3502 201.707 68.9635 201.32 67.5502 201.32C66.7502 201.32 65.8968 201.413 64.9902 201.6L63.3502 199.48L72.0702 191.36H59.2702V187H77.6302L77.6702 192.08L70.7502 198.36C72.9635 198.6 74.7768 199.4 76.1902 200.76C77.6302 202.12 78.3502 203.973 78.3502 206.32C78.3502 209.173 77.3768 211.387 75.4302 212.96C73.4835 214.533 71.1902 215.32 68.5502 215.32C65.8568 215.32 63.5368 214.453 61.5902 212.72C59.6435 210.96 58.6302 208.827 58.5502 206.32H63.2302ZM84.7114 190.56C86.7381 187.947 89.4847 186.64 92.9514 186.64C96.4714 186.64 99.2447 187.947 101.271 190.56C103.298 193.173 104.311 196.653 104.311 201C104.311 205.32 103.285 208.787 101.231 211.4C99.2047 214.013 96.4447 215.32 92.9514 215.32C89.4314 215.32 86.6714 214.027 84.6714 211.44C82.6714 208.853 81.6714 205.387 81.6714 201.04C81.6714 196.667 82.6847 193.173 84.7114 190.56ZM88.1114 208.16C89.3114 209.973 90.9247 210.88 92.9514 210.88C95.0314 210.88 96.6714 209.96 97.8714 208.12C99.0981 206.28 99.7114 203.907 99.7114 201C99.7114 198.067 99.0981 195.68 97.8714 193.84C96.6447 192 95.0047 191.08 92.9514 191.08C90.8714 191.08 89.2314 192 88.0314 193.84C86.8581 195.68 86.2714 198.08 86.2714 201.04C86.2714 204 86.8847 206.373 88.1114 208.16ZM119.033 193.8H123.633V196.52C125.153 194.467 127.113 193.44 129.513 193.44C130.9 193.44 132.18 193.787 133.353 194.48C134.553 195.147 135.5 196.133 136.193 197.44C136.966 196.187 137.993 195.213 139.273 194.52C140.58 193.8 141.94 193.44 143.353 193.44C145.513 193.44 147.38 194.213 148.953 195.76C150.526 197.28 151.313 199.36 151.313 202V215H146.713V203.12C146.713 201.413 146.34 200.08 145.593 199.12C144.846 198.133 143.793 197.64 142.433 197.64C140.913 197.64 139.726 198.147 138.873 199.16C138.046 200.173 137.58 201.453 137.473 203V215H132.873V203.12C132.873 201.413 132.5 200.08 131.753 199.12C131.006 198.133 129.966 197.64 128.633 197.64C126.98 197.64 125.726 198.213 124.873 199.36C124.046 200.507 123.633 201.933 123.633 203.64V215H119.033V193.8ZM160.16 193.8V215H155.56V193.8H160.16ZM155.8 186.4C156.387 185.84 157.093 185.56 157.92 185.56C158.747 185.56 159.44 185.84 160 186.4C160.587 186.933 160.88 187.613 160.88 188.44C160.88 189.267 160.6 189.947 160.04 190.48C159.453 191.04 158.747 191.32 157.92 191.32C157.093 191.32 156.387 191.053 155.8 190.52C155.213 189.96 154.92 189.267 154.92 188.44C154.92 187.64 155.213 186.96 155.8 186.4ZM164.694 193.8H169.294V196.6C170.921 194.493 173.121 193.44 175.894 193.44C178.321 193.44 180.401 194.227 182.134 195.8C183.894 197.347 184.774 199.413 184.774 202V215H180.174V203.24C180.174 201.56 179.668 200.227 178.654 199.24C177.668 198.227 176.441 197.72 174.974 197.72C173.294 197.72 171.921 198.333 170.854 199.56C169.814 200.76 169.294 202.267 169.294 204.08V215H164.694V193.8ZM188.637 193.8H193.237V205.52C193.237 207.2 193.73 208.547 194.717 209.56C195.73 210.573 196.97 211.08 198.437 211.08C200.117 211.08 201.477 210.48 202.517 209.28C203.583 208.053 204.117 206.52 204.117 204.68V193.8H208.717V215H204.117V212.2C202.49 214.307 200.29 215.36 197.517 215.36C195.09 215.36 192.997 214.587 191.237 213.04C189.503 211.467 188.637 209.387 188.637 206.8V193.8ZM212.172 197.8V193.8H216.172V188.72L220.692 187.4V193.8H227.212V197.8H220.692V208.12C220.692 209.427 221.065 210.24 221.812 210.56C222.585 210.88 223.278 211.04 223.892 211.04C224.852 211.04 226.012 210.827 227.372 210.4V214.84C225.932 215.24 224.612 215.44 223.412 215.44C221.838 215.44 220.238 214.987 218.612 214.08C216.985 213.147 216.172 211.173 216.172 208.16V197.8H212.172ZM232.724 196.64C234.857 194.507 237.417 193.44 240.404 193.44C243.071 193.44 245.391 194.307 247.364 196.04C249.364 197.747 250.591 199.893 251.044 202.48C251.204 203.12 251.284 203.76 251.284 204.4C251.284 204.96 251.217 205.52 251.084 206.08H234.044C234.311 207.653 235.031 208.907 236.204 209.84C237.404 210.773 238.804 211.24 240.404 211.24C242.857 211.24 244.817 210.36 246.284 208.6L250.364 209.68C249.511 211.387 248.137 212.76 246.244 213.8C244.377 214.813 242.431 215.32 240.404 215.32C237.337 215.32 234.751 214.253 232.644 212.12C230.564 209.987 229.524 207.413 229.524 204.4C229.524 201.36 230.591 198.773 232.724 196.64ZM234.044 202.56H246.604C246.337 201.147 245.631 199.96 244.484 199C243.364 198.013 241.991 197.52 240.364 197.52C238.737 197.52 237.351 198.013 236.204 199C235.057 199.96 234.337 201.147 234.044 202.56ZM254.095 199.84C254.095 197.84 254.908 196.28 256.535 195.16C258.162 194.013 260.242 193.44 262.775 193.44C265.788 193.44 268.522 194.173 270.975 195.64V200.08C267.882 198.293 265.148 197.4 262.775 197.4C261.602 197.4 260.642 197.627 259.895 198.08C259.175 198.507 258.815 199.08 258.815 199.8C258.815 200.04 258.855 200.267 258.935 200.48C259.042 200.667 259.202 200.84 259.415 201C259.655 201.16 259.882 201.293 260.095 201.4C260.335 201.507 260.668 201.627 261.095 201.76C261.522 201.867 261.882 201.96 262.175 202.04C262.468 202.093 262.895 202.187 263.455 202.32C264.042 202.453 264.508 202.56 264.855 202.64C267.308 203.227 269.082 204.053 270.175 205.12C271.295 206.187 271.868 207.493 271.895 209.04C271.895 210.48 271.442 211.693 270.535 212.68C269.655 213.667 268.602 214.36 267.375 214.76C266.148 215.133 264.802 215.32 263.335 215.32C260.322 215.32 257.388 214.4 254.535 212.56V207.88C255.495 208.707 256.815 209.48 258.495 210.2C260.175 210.92 261.788 211.28 263.335 211.28C264.375 211.28 265.268 211.08 266.015 210.68C266.788 210.253 267.175 209.693 267.175 209C267.175 208.28 266.735 207.693 265.855 207.24C264.975 206.76 263.602 206.333 261.735 205.96C259.122 205.427 257.188 204.693 255.935 203.76C254.708 202.8 254.095 201.493 254.095 199.84Z"/><path fill="#000" d="M153.3 89.9053L140.681 115.198C139.158 118.276 134.74 118.175 133.344 115.045L118.898 82.9079L111.281 101.152H87.3896L133.725 148.607C135.527 150.464 138.447 150.464 140.25 148.607L186.61 101.152H158.911L153.3 89.9053ZM192.272 46.6742L191.663 46.0381C178.587 32.654 157.184 32.654 144.084 46.0381L137 53.3153L129.916 46.0635C116.841 32.654 95.4126 32.654 82.3372 46.0635L81.7278 46.6742C69.3633 59.3458 68.8301 79.5237 79.8744 93.0095H105.873L114.988 71.0759C116.359 67.7935 120.979 67.7172 122.452 70.9742L137.229 103.875L149.669 78.9639C151.167 75.9614 155.433 75.9614 156.93 78.9639L163.938 93.0095H194.126C205.17 79.5237 204.637 59.3458 192.272 46.6742Z"/><path stroke="#000" stroke-width="6" d="M235.812 92.812C235.812 81.0177 233.489 69.3389 228.975 58.4424C224.462 47.5459 217.846 37.6451 209.507 29.3053C201.167 20.9655 191.266 14.35 180.37 9.83652C169.473 5.32305 157.794 3 146 3"/></svg>