<svg xmlns="http://www.w3.org/2000/svg" width="213" height="218" fill="none" viewBox="0 0 213 218"><path fill="#000" d="M77.3916 92.1C77.3916 92.1 93.7962 86.76 106.721 94.22C108.878 95.5007 111.179 96.5163 113.576 97.245C118.483 98.67 126.218 99.82 133.958 96.51L129.926 127.51H82.1191L77.3916 92.1Z"/><path fill="#000" fill-rule="evenodd" d="M58.3915 0H153.608L134.576 134H77.429L58.3915 0ZM67.6084 8L84.3728 126H127.632L144.392 8H67.6084Z" clip-rule="evenodd"/><path fill="#000" d="M8.47141 204V180.36H1.43141V176H13.0714V204H8.47141ZM16.9877 194.6V190.48H31.5077V194.6H16.9877ZM38.0392 178.04C39.8792 176.44 42.1059 175.64 44.7192 175.64C47.2526 175.64 49.4259 176.4 51.2392 177.92C53.0792 179.44 53.9992 181.573 53.9992 184.32C53.9992 186.587 52.8126 188.973 50.4392 191.48L42.7992 199.56H54.1992L54.1592 204H35.6792V200.8L47.1192 188.68C48.5859 187.053 49.3459 185.64 49.3992 184.44C49.3992 184.36 49.3992 184.28 49.3992 184.2C49.3992 182.973 48.9592 181.933 48.0792 181.08C47.2259 180.227 46.1059 179.8 44.7192 179.8C43.3059 179.8 42.1326 180.267 41.1992 181.2C40.2926 182.133 39.8126 183.28 39.7592 184.64H35.1592C35.2392 181.84 36.1992 179.64 38.0392 178.04ZM68.6255 193.08C68.6255 190.013 69.6255 187.48 71.6255 185.48C73.6255 183.453 76.0655 182.44 78.9455 182.44C79.0255 182.44 79.1055 182.44 79.1855 182.44C82.0388 182.467 84.3055 183.52 85.9855 185.6V182.8H90.5855V202.4C90.5855 205.76 89.5721 208.4 87.5455 210.32C85.5455 212.24 83.0655 213.2 80.1055 213.2C77.6521 213.2 75.4388 212.52 73.4655 211.16C71.4921 209.8 70.1988 207.813 69.5855 205.2H74.1855C74.6388 206.48 75.4121 207.413 76.5055 208C77.6255 208.613 78.8121 208.92 80.0655 208.92C81.7988 208.92 83.2121 208.387 84.3055 207.32C85.3988 206.253 85.9588 204.64 85.9855 202.48V200.76C84.3321 202.733 82.0655 203.72 79.1855 203.72C76.1455 203.72 73.6255 202.707 71.6255 200.68C69.6255 198.627 68.6255 196.093 68.6255 193.08ZM72.9055 193.08C72.9055 194.92 73.5588 196.467 74.8655 197.72C76.1721 198.973 77.7455 199.6 79.5855 199.6C81.4255 199.6 82.9988 198.973 84.3055 197.72C85.6388 196.44 86.3055 194.893 86.3055 193.08C86.3055 191.267 85.6521 189.733 84.3455 188.48C83.0388 187.2 81.4521 186.56 79.5855 186.56C77.7188 186.56 76.1321 187.187 74.8255 188.44C73.5455 189.693 72.9055 191.24 72.9055 193.08ZM94.8914 204V176H99.4914V204H94.8914ZM106.276 185.64C108.329 183.507 110.822 182.44 113.756 182.44C116.609 182.44 118.876 183.507 120.556 185.64V182.8H125.156V204H120.556V201.16C118.876 203.267 116.609 204.32 113.756 204.32C110.849 204.32 108.356 203.253 106.276 201.12C104.222 198.96 103.196 196.387 103.196 193.4C103.196 190.36 104.222 187.773 106.276 185.64ZM107.476 193.4C107.476 195.267 108.116 196.867 109.396 198.2C110.702 199.507 112.289 200.16 114.156 200.16C115.996 200.16 117.569 199.493 118.876 198.16C120.209 196.827 120.876 195.24 120.876 193.4C120.876 191.56 120.209 189.973 118.876 188.64C117.569 187.28 115.996 186.6 114.156 186.6C112.289 186.6 110.702 187.267 109.396 188.6C108.116 189.933 107.476 191.533 107.476 193.4ZM128.978 188.84C128.978 186.84 129.791 185.28 131.418 184.16C133.045 183.013 135.125 182.44 137.658 182.44C140.671 182.44 143.405 183.173 145.858 184.64V189.08C142.765 187.293 140.031 186.4 137.658 186.4C136.485 186.4 135.525 186.627 134.778 187.08C134.058 187.507 133.698 188.08 133.698 188.8C133.698 189.04 133.738 189.267 133.818 189.48C133.925 189.667 134.085 189.84 134.298 190C134.538 190.16 134.765 190.293 134.978 190.4C135.218 190.507 135.551 190.627 135.978 190.76C136.405 190.867 136.765 190.96 137.058 191.04C137.351 191.093 137.778 191.187 138.338 191.32C138.925 191.453 139.391 191.56 139.738 191.64C142.191 192.227 143.965 193.053 145.058 194.12C146.178 195.187 146.751 196.493 146.778 198.04C146.778 199.48 146.325 200.693 145.418 201.68C144.538 202.667 143.485 203.36 142.258 203.76C141.031 204.133 139.685 204.32 138.218 204.32C135.205 204.32 132.271 203.4 129.418 201.56V196.88C130.378 197.707 131.698 198.48 133.378 199.2C135.058 199.92 136.671 200.28 138.218 200.28C139.258 200.28 140.151 200.08 140.898 199.68C141.671 199.253 142.058 198.693 142.058 198C142.058 197.28 141.618 196.693 140.738 196.24C139.858 195.76 138.485 195.333 136.618 194.96C134.005 194.427 132.071 193.693 130.818 192.76C129.591 191.8 128.978 190.493 128.978 188.84ZM149.33 188.84C149.33 186.84 150.143 185.28 151.77 184.16C153.396 183.013 155.476 182.44 158.01 182.44C161.023 182.44 163.756 183.173 166.21 184.64V189.08C163.116 187.293 160.383 186.4 158.01 186.4C156.836 186.4 155.876 186.627 155.13 187.08C154.41 187.507 154.05 188.08 154.05 188.8C154.05 189.04 154.09 189.267 154.17 189.48C154.276 189.667 154.436 189.84 154.65 190C154.89 190.16 155.116 190.293 155.33 190.4C155.57 190.507 155.903 190.627 156.33 190.76C156.756 190.867 157.116 190.96 157.41 191.04C157.703 191.093 158.13 191.187 158.69 191.32C159.276 191.453 159.743 191.56 160.09 191.64C162.543 192.227 164.316 193.053 165.41 194.12C166.53 195.187 167.103 196.493 167.13 198.04C167.13 199.48 166.676 200.693 165.77 201.68C164.89 202.667 163.836 203.36 162.61 203.76C161.383 204.133 160.036 204.32 158.57 204.32C155.556 204.32 152.623 203.4 149.77 201.56V196.88C150.73 197.707 152.05 198.48 153.73 199.2C155.41 199.92 157.023 200.28 158.57 200.28C159.61 200.28 160.503 200.08 161.25 199.68C162.023 199.253 162.41 198.693 162.41 198C162.41 197.28 161.97 196.693 161.09 196.24C160.21 195.76 158.836 195.333 156.97 194.96C154.356 194.427 152.423 193.693 151.17 192.76C149.943 191.8 149.33 190.493 149.33 188.84ZM172.646 185.64C174.779 183.507 177.339 182.44 180.326 182.44C182.992 182.44 185.312 183.307 187.286 185.04C189.286 186.747 190.512 188.893 190.966 191.48C191.126 192.12 191.206 192.76 191.206 193.4C191.206 193.96 191.139 194.52 191.006 195.08H173.966C174.232 196.653 174.952 197.907 176.126 198.84C177.326 199.773 178.726 200.24 180.326 200.24C182.779 200.24 184.739 199.36 186.206 197.6L190.286 198.68C189.432 200.387 188.059 201.76 186.166 202.8C184.299 203.813 182.352 204.32 180.326 204.32C177.259 204.32 174.672 203.253 172.566 201.12C170.486 198.987 169.446 196.413 169.446 193.4C169.446 190.36 170.512 187.773 172.646 185.64ZM173.966 191.56H186.526C186.259 190.147 185.552 188.96 184.406 188C183.286 187.013 181.912 186.52 180.286 186.52C178.659 186.52 177.272 187.013 176.126 188C174.979 188.96 174.259 190.147 173.966 191.56ZM194.017 188.84C194.017 186.84 194.83 185.28 196.457 184.16C198.084 183.013 200.164 182.44 202.697 182.44C205.71 182.44 208.444 183.173 210.897 184.64V189.08C207.804 187.293 205.07 186.4 202.697 186.4C201.524 186.4 200.564 186.627 199.817 187.08C199.097 187.507 198.737 188.08 198.737 188.8C198.737 189.04 198.777 189.267 198.857 189.48C198.964 189.667 199.124 189.84 199.337 190C199.577 190.16 199.804 190.293 200.017 190.4C200.257 190.507 200.59 190.627 201.017 190.76C201.444 190.867 201.804 190.96 202.097 191.04C202.39 191.093 202.817 191.187 203.377 191.32C203.964 191.453 204.43 191.56 204.777 191.64C207.23 192.227 209.004 193.053 210.097 194.12C211.217 195.187 211.79 196.493 211.817 198.04C211.817 199.48 211.364 200.693 210.457 201.68C209.577 202.667 208.524 203.36 207.297 203.76C206.07 204.133 204.724 204.32 203.257 204.32C200.244 204.32 197.31 203.4 194.457 201.56V196.88C195.417 197.707 196.737 198.48 198.417 199.2C200.097 199.92 201.71 200.28 203.257 200.28C204.297 200.28 205.19 200.08 205.937 199.68C206.71 199.253 207.097 198.693 207.097 198C207.097 197.28 206.657 196.693 205.777 196.24C204.897 195.76 203.524 195.333 201.657 194.96C199.044 194.427 197.11 193.693 195.857 192.76C194.63 191.8 194.017 190.493 194.017 188.84Z"/></svg>