<svg xmlns="http://www.w3.org/2000/svg" width="191" height="217" fill="none" viewBox="0 0 191 217"><path fill="#000" d="M118.421 88.1745L113.444 98.7187L102.307 100.415C100.31 100.718 99.5099 103.29 100.958 104.763L109.015 112.966L107.11 124.554C106.767 126.648 108.878 128.217 110.646 127.238L120.609 121.766L130.572 127.238C132.34 128.209 134.451 126.648 134.108 124.554L132.203 112.966L140.26 104.763C141.708 103.29 140.908 100.718 138.911 100.415L127.774 98.7187L122.797 88.1745C121.905 86.295 119.321 86.2711 118.421 88.1745Z"/><path fill="#000" d="M112.589 1.04528L108.66 8.81475L99.8676 10.0647C98.291 10.2877 97.6591 12.1831 98.8025 13.2687L105.163 19.3129L103.659 27.8511C103.388 29.3944 105.055 30.5505 106.451 29.8287L114.316 25.7973L122.182 29.8287C123.578 30.5446 125.245 29.3944 124.974 27.8511L123.469 19.3129L129.83 13.2687C130.973 12.1831 130.342 10.2877 128.765 10.0647L119.973 8.81475L116.043 1.04528C115.339 -0.33961 113.299 -0.357215 112.589 1.04528Z"/><path fill="#000" d="M74.9508 36.0116L68.4014 49.3307L53.7482 51.4734C51.1204 51.8557 50.0673 55.105 51.9729 56.9661L62.5742 67.3276L60.0668 81.9645C59.6155 84.6102 62.3937 86.592 64.7206 85.3546L77.8293 78.4436L90.938 85.3546C93.2649 86.5819 96.0431 84.6102 95.5917 81.9645L93.0843 67.3276L103.686 56.9661C105.591 55.105 104.538 51.8557 101.91 51.4734L87.2571 49.3307L80.7078 36.0116C79.5343 33.6375 76.1343 33.6074 74.9508 36.0116Z"/><path fill="#000" d="M5.00047 178.56C7.02714 175.947 9.7738 174.64 13.2405 174.64C16.7605 174.64 19.5338 175.947 21.5605 178.56C23.5871 181.173 24.6005 184.653 24.6005 189C24.6005 193.32 23.5738 196.787 21.5205 199.4C19.4938 202.013 16.7338 203.32 13.2405 203.32C9.72047 203.32 6.96047 202.027 4.96047 199.44C2.96047 196.853 1.96047 193.387 1.96047 189.04C1.96047 184.667 2.9738 181.173 5.00047 178.56ZM8.40047 196.16C9.60047 197.973 11.2138 198.88 13.2405 198.88C15.3205 198.88 16.9605 197.96 18.1605 196.12C19.3871 194.28 20.0005 191.907 20.0005 189C20.0005 186.067 19.3871 183.68 18.1605 181.84C16.9338 180 15.2938 179.08 13.2405 179.08C11.1605 179.08 9.52047 180 8.32047 181.84C7.14714 183.68 6.56047 186.08 6.56047 189.04C6.56047 192 7.1738 194.373 8.40047 196.16ZM27.7455 193.6V189.48H42.2655V193.6H27.7455ZM57.3345 175H64.9345V193.76H68.5745V197.76H64.9345V203H60.3345V197.76H46.2545V194.36L57.3345 175ZM60.3345 193.76L60.2945 178.2L51.2945 193.76H60.3345ZM83.3845 175H87.9845V184.6C89.6379 182.493 91.8512 181.44 94.6245 181.44C97.0512 181.44 99.1312 182.227 100.865 183.8C102.625 185.347 103.505 187.413 103.505 190V203H98.9045V191.24C98.9045 189.56 98.3979 188.227 97.3845 187.24C96.3712 186.227 95.1445 185.72 93.7045 185.72C92.0245 185.72 90.6512 186.333 89.5845 187.56C88.5179 188.76 87.9845 190.267 87.9845 192.08V203H83.3845V175ZM109.963 184.64C112.097 182.507 114.67 181.44 117.683 181.44C120.697 181.44 123.257 182.52 125.363 184.68C127.497 186.813 128.563 189.373 128.563 192.36C128.563 195.373 127.497 197.96 125.363 200.12C123.23 202.253 120.67 203.32 117.683 203.32C114.67 203.32 112.097 202.253 109.963 200.12C107.83 197.96 106.763 195.373 106.763 192.36C106.763 189.347 107.83 186.773 109.963 184.64ZM111.083 192.36C111.083 194.2 111.723 195.787 113.003 197.12C114.283 198.453 115.843 199.12 117.683 199.12C119.497 199.12 121.043 198.453 122.323 197.12C123.603 195.787 124.243 194.2 124.243 192.36C124.243 190.52 123.603 188.947 122.323 187.64C121.07 186.307 119.523 185.64 117.683 185.64C115.843 185.64 114.283 186.307 113.003 187.64C111.723 188.947 111.083 190.52 111.083 192.36ZM131.777 181.8H136.377V193.52C136.377 195.2 136.871 196.547 137.857 197.56C138.871 198.573 140.111 199.08 141.577 199.08C143.257 199.08 144.617 198.48 145.657 197.28C146.724 196.053 147.257 194.52 147.257 192.68V181.8H151.857V203H147.257V200.2C145.631 202.307 143.431 203.36 140.657 203.36C138.231 203.36 136.137 202.587 134.377 201.04C132.644 199.467 131.777 197.387 131.777 194.8V181.8ZM156.272 181.8H160.872V185.28C161.539 183.947 162.446 183 163.592 182.44C164.766 181.853 165.966 181.56 167.192 181.56C167.779 181.56 168.392 181.613 169.032 181.72V186.64C168.206 186.373 167.419 186.24 166.672 186.24C165.472 186.24 164.206 186.68 162.872 187.56C161.539 188.44 160.872 190 160.872 192.24V203H156.272V181.8ZM171.728 187.84C171.728 185.84 172.541 184.28 174.168 183.16C175.795 182.013 177.875 181.44 180.408 181.44C183.421 181.44 186.155 182.173 188.608 183.64V188.08C185.515 186.293 182.781 185.4 180.408 185.4C179.235 185.4 178.275 185.627 177.528 186.08C176.808 186.507 176.448 187.08 176.448 187.8C176.448 188.04 176.488 188.267 176.568 188.48C176.675 188.667 176.835 188.84 177.048 189C177.288 189.16 177.515 189.293 177.728 189.4C177.968 189.507 178.301 189.627 178.728 189.76C179.155 189.867 179.515 189.96 179.808 190.04C180.101 190.093 180.528 190.187 181.088 190.32C181.675 190.453 182.141 190.56 182.488 190.64C184.941 191.227 186.715 192.053 187.808 193.12C188.928 194.187 189.501 195.493 189.528 197.04C189.528 198.48 189.075 199.693 188.168 200.68C187.288 201.667 186.235 202.36 185.008 202.76C183.781 203.133 182.435 203.32 180.968 203.32C177.955 203.32 175.021 202.4 172.168 200.56V195.88C173.128 196.707 174.448 197.48 176.128 198.2C177.808 198.92 179.421 199.28 180.968 199.28C182.008 199.28 182.901 199.08 183.648 198.68C184.421 198.253 184.808 197.693 184.808 197C184.808 196.28 184.368 195.693 183.488 195.24C182.608 194.76 181.235 194.333 179.368 193.96C176.755 193.427 174.821 192.693 173.568 191.76C172.341 190.8 171.728 189.493 171.728 187.84Z"/></svg>