<svg xmlns="http://www.w3.org/2000/svg" width="175" height="264" fill="none" viewBox="0 0 175 264"><path fill="#000" d="M2.29578 228.564H6.89578V231.364C8.52245 229.257 10.7224 228.204 13.4958 228.204C15.9224 228.204 18.0024 228.99 19.7358 230.564C21.4958 232.11 22.3758 234.177 22.3758 236.764V249.764H17.7758V238.004C17.7758 236.324 17.2691 234.99 16.2558 234.004C15.2691 232.99 14.0424 232.484 12.5758 232.484C10.8958 232.484 9.52245 233.097 8.45578 234.324C7.41578 235.524 6.89578 237.03 6.89578 238.844V249.764H2.29578V228.564ZM28.643 231.404C30.7763 229.27 33.3496 228.204 36.363 228.204C39.3763 228.204 41.9363 229.284 44.043 231.444C46.1763 233.577 47.243 236.137 47.243 239.124C47.243 242.137 46.1763 244.724 44.043 246.884C41.9096 249.017 39.3496 250.084 36.363 250.084C33.3496 250.084 30.7763 249.017 28.643 246.884C26.5096 244.724 25.443 242.137 25.443 239.124C25.443 236.11 26.5096 233.537 28.643 231.404ZM29.763 239.124C29.763 240.964 30.403 242.55 31.683 243.884C32.963 245.217 34.523 245.884 36.363 245.884C38.1763 245.884 39.723 245.217 41.003 243.884C42.283 242.55 42.923 240.964 42.923 239.124C42.923 237.284 42.283 235.71 41.003 234.404C39.7496 233.07 38.203 232.404 36.363 232.404C34.523 232.404 32.963 233.07 31.683 234.404C30.403 235.71 29.763 237.284 29.763 239.124ZM49.0311 232.564V228.564H53.0311V223.484L57.5511 222.164V228.564H64.0711V232.564H57.5511V242.884C57.5511 244.19 57.9244 245.004 58.6711 245.324C59.4444 245.644 60.1378 245.804 60.7511 245.804C61.7111 245.804 62.8711 245.59 64.2311 245.164V249.604C62.7911 250.004 61.4711 250.204 60.2711 250.204C58.6978 250.204 57.0978 249.75 55.4711 248.844C53.8444 247.91 53.0311 245.937 53.0311 242.924V232.564H49.0311ZM81.2211 231.404C83.2744 229.27 85.7678 228.204 88.7011 228.204C91.5544 228.204 93.8211 229.27 95.5011 231.404V228.564H100.101V249.764H95.5011V246.924C93.8211 249.03 91.5544 250.084 88.7011 250.084C85.7944 250.084 83.3011 249.017 81.2211 246.884C79.1678 244.724 78.1411 242.15 78.1411 239.164C78.1411 236.124 79.1678 233.537 81.2211 231.404ZM82.4211 239.164C82.4211 241.03 83.0611 242.63 84.3411 243.964C85.6478 245.27 87.2344 245.924 89.1011 245.924C90.9411 245.924 92.5144 245.257 93.8211 243.924C95.1544 242.59 95.8211 241.004 95.8211 239.164C95.8211 237.324 95.1544 235.737 93.8211 234.404C92.5144 233.044 90.9411 232.364 89.1011 232.364C87.2344 232.364 85.6478 233.03 84.3411 234.364C83.0611 235.697 82.4211 237.297 82.4211 239.164ZM103.523 232.564V228.564H107.523V223.484L112.043 222.164V228.564H118.563V232.564H112.043V242.884C112.043 244.19 112.417 245.004 113.163 245.324C113.937 245.644 114.63 245.804 115.243 245.804C116.203 245.804 117.363 245.59 118.723 245.164V249.604C117.283 250.004 115.963 250.204 114.763 250.204C113.19 250.204 111.59 249.75 109.963 248.844C108.337 247.91 107.523 245.937 107.523 242.924V232.564H103.523ZM135.713 231.404C137.767 229.27 140.26 228.204 143.193 228.204C146.047 228.204 148.313 229.27 149.993 231.404V228.564H154.593V249.764H149.993V246.924C148.313 249.03 146.047 250.084 143.193 250.084C140.287 250.084 137.793 249.017 135.713 246.884C133.66 244.724 132.633 242.15 132.633 239.164C132.633 236.124 133.66 233.537 135.713 231.404ZM136.913 239.164C136.913 241.03 137.553 242.63 138.833 243.964C140.14 245.27 141.727 245.924 143.593 245.924C145.433 245.924 147.007 245.257 148.313 243.924C149.647 242.59 150.313 241.004 150.313 239.164C150.313 237.324 149.647 235.737 148.313 234.404C147.007 233.044 145.433 232.364 143.593 232.364C141.727 232.364 140.14 233.03 138.833 234.364C137.553 235.697 136.913 237.297 136.913 239.164ZM159.055 249.764V221.764H163.655V249.764H159.055ZM168.04 249.764V221.764H172.64V249.764H168.04Z"/><path fill="#000" d="M136.44 70.9078C135.006 76.1923 132.722 81.9929 128.007 85.2132C125.838 86.8624 123.11 87.6099 120.397 87.2979C117.684 86.986 115.2 85.639 113.467 83.5412C112.719 82.6948 105.657 71.3206 104.453 73.7978C101.96 78.8965 105.304 84.8417 109.936 88.7638C111.182 90.3946 112.221 91.5506 112.595 91.468C112.969 91.3854 112.595 90.9313 112.366 90.5597C112.657 90.7455 112.948 90.9519 113.239 91.1171C113.239 91.5919 115.17 92.8098 116.687 93.6561C121.256 94.069 123.853 95.0805 128.152 92.6653C130.541 91.3029 127.093 92.335 127.217 92.4176C127.944 92.0873 128.63 91.7776 129.294 91.4267C131.995 92.5001 132.639 90.2914 133.096 88.7638C133.303 88.578 133.469 88.3716 133.656 88.1858C133.822 88.3509 134.072 88.1858 134.134 88.0413C134.053 88.0159 133.966 88.0159 133.885 88.0413C134.625 87.3148 135.319 86.5426 135.962 85.7293C135.837 85.9151 135.962 85.8325 136.232 85.4609C136.126 85.5334 136.035 85.6243 135.962 85.7293C136.871 84.5633 137.697 83.3355 138.434 82.0549C138.704 82.0549 138.911 82.0549 138.828 81.9517C138.745 81.8485 138.828 81.9517 138.558 81.8278C138.911 81.2085 139.244 80.5686 139.555 79.9493C139.555 80.1557 139.701 80.4241 139.742 80.548C139.784 80.6718 139.742 80.0112 139.742 79.7429C140.869 77.4246 141.773 75.0055 142.442 72.5179C142.597 71.7474 142.452 70.9472 142.035 70.2794C141.619 69.6116 140.962 69.1262 140.199 68.9214C139.436 68.7167 138.623 68.808 137.925 69.1768C137.227 69.5456 136.696 70.1644 136.44 70.9078ZM116.043 92.5208H116.188L116.064 92.6859C115.939 92.7066 115.98 92.6034 116.043 92.5208ZM125.203 93.0781C125.212 93.1812 125.212 93.2848 125.203 93.3878C125.203 93.3878 125.244 93.2226 125.203 93.0781ZM127.01 92.7891L126.698 92.9336C126.69 92.8444 126.69 92.7546 126.698 92.6653H126.844C126.912 92.7304 126.969 92.8073 127.01 92.8924V92.7891ZM131.849 90.3533C130.894 91.4886 130.832 90.8281 131.849 90.3533V90.3533ZM132.369 89.6514C132.369 89.5276 132.369 89.4863 132.369 89.4656C132.369 89.445 132.431 89.5689 132.369 89.6514Z"/><path fill="#000" d="M59.9411 93.0789C61.0419 92.8931 62.1428 91.4894 62.9113 90.1889C63.6374 89.5787 64.3307 88.931 64.9884 88.2484C65.2584 88.2484 65.4661 88.2484 65.4038 88.2484C65.3415 88.2484 65.4038 88.2484 65.1753 88.1246C65.5492 87.7117 65.923 87.2989 66.2761 86.8654C69.2048 83.3561 70.6172 79.4133 68.3532 76.2137C65.0922 71.7961 58.1756 89.5283 51.2797 89.9412C48.9147 90.0833 46.5636 89.4924 44.5509 88.25C42.5381 87.0076 40.963 85.1751 40.0428 83.0052C39.6897 82.2414 35.4733 68.9681 33.4793 73.881C31.4853 78.794 33.0846 83.48 36.3664 87.5259C37.5088 90.1889 38.5889 92.4802 39.0043 92.3976C39.4197 92.3151 37.8411 89.6522 40.1051 91.9848C38.5473 91.9848 41.0398 93.8426 42.7638 95.0399C47.3125 95.8863 48.6419 98.0538 53.5645 96.8565C56.057 96.423 53.066 96.1959 52.796 96.3404C52.896 96.0681 53.0212 95.8055 53.1699 95.556L54.1045 95.3083H54.2084C54.5707 95.0985 54.9535 94.9256 55.3508 94.7922C55.3508 94.7922 55.3508 94.7922 55.5585 95.1225C55.5585 96.0721 55.2885 95.3083 55.2677 94.8954C55.007 95.1477 54.7896 95.4405 54.6238 95.7624C58.2379 98.9208 59.1103 93.244 59.9411 93.0789ZM39.1704 90.4985H39.2951H39.0874C39.0874 90.4985 39.1704 90.5398 39.1912 90.4985H39.1704ZM42.1199 93.9871C41.7875 93.8014 42.7845 93.4091 42.1199 93.9871V93.9871ZM42.743 93.9871C42.7455 93.9049 42.7755 93.8258 42.8281 93.7623C42.8807 93.6988 42.9531 93.6545 43.0338 93.6362C43.0338 94.0491 42.9299 94.1729 42.7638 94.0904L42.743 93.9871ZM47.8733 95.3702C47.8733 95.3702 47.7695 95.3702 47.7695 95.1638H47.9149C47.9564 95.4115 47.9564 95.4941 47.8941 95.4734L47.8733 95.3702ZM52.069 96.5056C52.069 96.0514 52.2352 96.0308 52.4013 96.5056H52.069ZM55.6831 94.7096C55.6733 94.6759 55.6733 94.6401 55.6831 94.6064L56.0154 94.4619C56.0154 94.5858 56.1401 94.7509 56.2231 94.9574C56.3062 95.1638 55.7454 94.9573 55.7039 94.7922L55.6831 94.7096ZM56.5139 94.2555L56.9917 94.0078C56.9917 94.0078 56.8878 94.1936 56.8047 94.3381C56.7216 94.4826 56.5555 94.5858 56.5347 94.3381L56.5139 94.2555ZM57.594 95.3909C56.7632 96.134 56.1401 95.8863 57.594 95.3909V95.3909ZM58.2171 94.8129C57.8433 94.5032 58.5702 94.6064 58.2379 94.9574L58.2171 94.8129Z"/><path fill="#000" d="M105.201 125.756C105.458 124.322 105.153 122.845 104.349 121.627C104.779 122.14 105.123 122.719 105.367 123.341C103.849 119.741 101.475 116.561 98.4501 114.072C97.8062 113.824 96.7676 113.473 95.5837 113.102C94.841 112.854 94.0852 112.647 93.3197 112.482C91.7293 112.119 90.217 111.475 88.854 110.583C88.854 110.459 88.854 110.356 89.1863 110.294C87.1025 110.243 85.018 110.368 82.9552 110.666C83.2667 110.666 83.6198 110.377 83.4121 110.336C83.2044 110.294 82.2905 110.625 82.6021 110.707C80.6204 110.939 78.6826 111.453 76.8486 112.235C75.0623 112.586 71.8221 115.661 69.6619 117.499C70.015 117.87 69.4335 117.788 69.4335 117.726C69.4335 117.664 68.8311 118.18 68.5819 118.366C68.6857 118.035 68.3326 118.366 68.1872 118.634C68.0144 118.769 67.8042 118.848 67.5849 118.861C66.9606 120.193 66.4465 121.574 66.0478 122.99C66.0478 123.175 65.8609 123.341 65.7778 123.526C65.3382 124.467 65.0173 125.459 64.8224 126.478C64.1993 129.637 66.1725 128.873 67.6056 127.737C70.4093 126.95 73.1238 125.878 75.7062 124.538C76.8486 124.29 77.7833 124.022 77.7833 123.691H77.6171L78.0533 123.506H79.1126C78.6748 123.706 78.2574 123.948 77.8663 124.228C78.0948 124.228 78.7387 123.795 79.3411 123.485C81.7788 123.272 84.2264 123.189 86.6731 123.237C86.6731 123.691 88.0232 123.63 87.6493 123.402L87.3793 123.258H87.8155C90.5157 124.208 93.0497 125.756 96.1237 126.87C102.064 128.935 104.307 127.242 104.266 124.331C104.468 124.828 104.468 125.383 104.266 125.88C104.037 126.396 103.892 126.705 103.83 126.891C103.352 127.159 102.874 127.325 102.916 127.51C103.385 127.506 103.845 127.383 104.252 127.151C104.66 126.92 105 126.589 105.242 126.189C105.637 125.591 105.512 125.591 105.201 125.756ZM97.8685 114.32C97.9516 114.32 97.9723 114.34 97.8685 114.32V114.32ZM82.519 111.677C82.3113 111.925 82.1866 111.925 82.1451 111.677H82.519ZM82.519 111.822C82.7267 111.822 82.7059 111.822 82.519 112.09C82.332 112.359 82.0412 111.925 82.4982 111.822H82.519ZM80.8573 111.636C81.1689 111.636 81.1689 111.863 80.8573 112.09C80.5458 112.317 80.5042 111.904 80.8573 111.636ZM79.9434 112.07L79.6319 112.317C79.1334 112.565 79.5488 112.09 79.9226 112.07H79.9434ZM78.3233 112.359C78.1779 112.544 77.9287 112.359 78.3233 112.359V112.359ZM75.3116 113.804C75.5193 113.804 75.54 113.804 75.3116 114.01C75.0831 114.216 75.0415 114.051 75.2908 113.804H75.3116ZM74.273 114.671C73.463 114.836 73.6914 114.505 74.273 114.671V114.671ZM72.9645 115.455C72.9645 115.703 72.7568 115.723 72.5491 115.765C72.7568 115.29 72.9229 115.187 72.9437 115.434L72.9645 115.455ZM71.012 116.838C70.8506 116.981 70.7044 117.14 70.5758 117.313C70.0773 117.375 70.7836 116.776 70.9913 116.817L71.012 116.838ZM68.3534 118.902C68.3534 118.902 68.6649 118.758 68.3534 118.902V118.902ZM104.474 124.166L104.328 123.63C104.372 123.648 104.411 123.676 104.442 123.712C104.473 123.748 104.496 123.791 104.508 123.836C104.52 123.882 104.521 123.93 104.512 123.977C104.502 124.023 104.482 124.067 104.453 124.104L104.474 124.166ZM104.64 124.827C105.117 125.776 104.494 126.334 103.83 126.705C104.166 126.09 104.431 125.439 104.619 124.765L104.64 124.827ZM104.494 126.581C104.619 126.581 104.951 126.458 104.494 126.581V126.581Z"/><path fill="#000" d="M146.721 25.1636C138.472 17.4427 128.804 11.3732 118.244 7.28691C108.732 3.50928 97.1207 2.72485 88.7709 0C90.848 0.701855 93.0704 1.42435 95.189 2.18814C93.9638 1.73713 92.6732 1.48617 91.3672 1.445C91.3672 1.445 91.3672 1.65142 91.5542 1.77528H91.2426C90.4806 1.45263 89.6615 1.2842 88.8332 1.27985C89.2094 1.42463 89.571 1.60432 89.9133 1.81657H88.7917C85.9779 1.06864 83.1198 0.496404 80.2342 0.103214C80.0057 0.103214 70.2227 -0.330285 71.282 0.681213C68.6649 1.05278 66.4632 3.24092 64.0746 4.47949L60.7721 5.20199C60.7721 4.74785 59.3804 4.66527 60.0866 3.48863C58.0096 4.12856 47.2504 7.94748 47.6242 8.25712C49.0335 7.91343 50.4207 7.48605 51.7784 6.97727C47.7489 8.58741 34.2687 12.943 33.0848 17.2987L33.7079 17.7528L33.3133 18.0831C33.2202 17.8903 33.1438 17.6901 33.0848 17.4845C32.7092 18.1908 32.2489 18.8493 31.7139 19.4455C31.0908 19.9822 30.4885 20.5396 29.8861 21.0969C27.6221 22.769 25.2335 23.7392 23.6549 27.7646C16.7989 36.2106 11.612 45.8692 8.36771 56.231C7.41764 58.9219 6.68149 61.6828 6.16602 64.4881C5.21552 68.9222 4.6045 73.4214 4.3382 77.9472C3.52814 79.9083 4.3382 93.0991 5.0444 95.2459C6.51534 104.616 9.52565 113.682 13.955 122.082C15.1389 126.21 19.2723 131.474 22.2633 134.963C24.6734 138.025 27.2896 140.922 30.0938 143.633C31.4362 145.3 32.638 147.074 33.6871 148.938C34.601 150.507 37.3428 150.816 39.2952 151.374C53.771 161.989 71.2798 167.731 89.2694 167.764C135.588 167.764 170.815 128.956 169.963 83.6446C169.652 62.3413 162.299 40.1503 146.721 25.1636ZM153.804 43.4737C153.852 43.561 153.907 43.6438 153.97 43.7215H153.617L153.804 43.4737ZM91.5542 1.77528C91.6749 1.87953 91.8073 1.96958 91.9488 2.04364L91.2426 1.79592L91.5542 1.77528ZM76.7032 1.07343C75.0415 2.08492 73.9614 2.18814 73.4422 1.38307C73.282 1.17026 73.1752 0.922586 73.1306 0.66057L76.7032 1.07343ZM66.1101 6.44056C65.5493 6.64698 66.1101 7.6172 65.7155 7.30755C65.7155 7.12177 65.5078 7.0392 65.7155 7.30755C65.5538 7.15843 65.4012 6.99989 65.2585 6.83277L66.1101 6.44056ZM53.8554 7.12177L52.7961 7.49334L52.173 7.0392L53.8554 7.12177ZM165.394 85.0484C164.999 84.8213 164.584 84.5736 164.065 84.3052C163.876 87.3839 164.107 90.4738 164.75 93.4913C164.459 95.7826 164.085 98.0533 163.608 100.283C161.946 100.819 160.596 101.728 161.884 104.411C162.128 104.085 162.449 103.823 162.818 103.648C162.257 105.877 161.572 108.044 160.741 110.191C159.14 112.506 157.75 114.959 156.587 117.519L157.501 117.953L157.003 118.964C155.839 121.318 154.635 123.527 153.326 125.653C153.139 125.777 152.994 125.9 152.807 126.004H153.077C152.454 127.015 151.81 128.068 151.145 128.997C151.006 128.737 150.847 128.488 150.667 128.254C148.676 131.639 146.448 134.881 144 137.956C142.878 139.215 141.695 140.371 140.49 141.527C140.482 141.465 140.482 141.403 140.49 141.341C135.381 145.891 129.813 149.903 123.873 153.314L123.998 153.5C119.277 156.1 114.283 158.177 109.105 159.693V159.383C107.402 159.796 103.518 160.684 102.999 160.952L103.123 161.138C101.836 161.385 100.548 161.613 99.2393 161.798C97.8971 161.727 96.552 161.727 95.2098 161.798C95.5583 161.859 95.8825 162.016 96.1445 162.252C92.5353 162.611 88.9041 162.701 85.2814 162.521C84.783 161.984 83.8067 161.695 81.522 161.489C81.7222 161.718 81.8582 161.996 81.9166 162.294C80.6496 162.294 79.3618 162.046 78.0948 161.86C76.1839 161.571 74.3145 161.22 72.466 160.807C69.4702 159.359 66.2446 158.437 62.9322 158.083C61.9145 157.732 60.8551 157.319 59.8789 156.927C59.409 156.41 58.8264 156.008 58.1757 155.75C57.506 155.28 56.74 154.963 55.9325 154.821C54.7486 154.243 53.5854 153.665 52.443 153.046C50.366 151.312 47.8527 148.215 45.4433 148.917C44.1555 148.05 42.8885 147.163 41.6631 146.234C39.9599 144.665 38.2151 142.951 37.7374 142.518C37.0045 141.759 36.1297 141.149 35.1619 140.722C31.3191 137.111 27.8408 133.136 24.7765 128.852C25.4827 128.274 24.9427 127.903 23.9249 127.634C23.3433 126.809 22.7825 125.942 22.2217 125.095H22.3464C22.1802 124.868 22.0348 124.662 21.8686 124.476C17.805 118.038 14.6791 111.06 12.5841 103.751C12.0857 98.0533 11.5872 92.1908 10.0086 89.1563C9.48731 82.6872 9.81547 76.1782 10.9848 69.7933C11.2964 68.0387 11.6702 66.346 12.0857 64.6533C12.1087 64.6436 12.1334 64.6386 12.1583 64.6386C12.1833 64.6386 12.208 64.6436 12.231 64.6533C12.5634 63.2289 12.8334 61.9078 13.1657 60.6279C18.312 41.9559 30.329 25.887 46.835 15.606C47.4859 15.347 48.0737 14.9529 48.5589 14.45C50.096 13.5004 51.6745 12.6334 53.2946 11.787C54.4271 11.3886 55.5247 10.8984 56.5764 10.3214C57.6565 9.80533 58.6535 9.33055 59.8166 8.87641C59.8329 8.97898 59.8329 9.08347 59.8166 9.18605L62.1637 8.25712L61.8521 7.86491L62.8699 7.4727C62.8898 7.66486 62.8898 7.85853 62.8699 8.05069C72.549 5.32584 82.4774 7.24562 91.5957 3.8602C92.9666 3.32349 91.3465 2.60099 88.9371 1.91978H89.9756C93.652 3.98406 105.284 11.4774 106.592 8.89705C111.39 10.0324 112.823 13.81 119.678 13.3146C121.921 14.5738 124.123 15.8743 126.262 17.2574C126.262 18.0831 127.508 18.7024 129.191 19.2185C135.462 23.4653 141.219 28.418 146.347 33.9781C146.779 34.6221 147.296 35.2053 147.884 35.7121C149.421 37.4873 150.875 39.3245 152.246 41.2237C153.97 46.0541 156.4 53.919 159.474 53.8364C159.89 54.7654 160.263 55.7149 160.658 56.6851C160.249 58.5764 160.249 60.5326 160.658 62.4238C161.323 60.8343 161.925 61.3711 162.527 61.9903C162.527 62.3413 162.714 62.7128 162.818 63.0638C160.367 64.3023 163.13 68.018 162.818 70.4745L164.148 69.1121C164.293 69.8553 164.397 70.5984 164.521 71.3622C164.01 71.1206 163.446 71.0072 162.881 71.0319C163.213 73.0962 163.483 75.016 163.691 77.0183C164.109 76.7113 164.628 76.5714 165.145 76.6261C165.145 77.0596 165.145 77.4725 165.248 77.9266C164.758 78.0498 164.244 78.0498 163.753 77.9266C162.299 82.9841 162.86 84.6355 165.415 82.9221C165.456 83.5621 165.415 84.3052 165.394 85.0484Z"/></svg>