<svg xmlns="http://www.w3.org/2000/svg" width="183" height="227" fill="none" viewBox="0 0 183 227"><path fill="#000" d="M76.4431 89.0946L71.3414 99.9019L59.9271 101.641C57.8802 101.951 57.0598 104.587 58.5442 106.097L66.8022 114.505L64.8491 126.382C64.4975 128.528 66.6616 130.136 68.4741 129.132L78.6853 123.525L88.8964 129.132C90.709 130.128 92.8731 128.528 92.5215 126.382L90.5684 114.505L98.8263 106.097C100.311 104.587 99.4904 101.951 97.4435 101.641L86.0292 99.9019L80.9275 89.0946C80.0134 87.1682 77.365 87.1437 76.4431 89.0946Z"/><path fill="#000" d="M127.054 10.3765L123.598 17.349L115.866 18.4707C114.479 18.6708 113.923 20.3718 114.929 21.3461L120.523 26.7702L119.2 34.4326C118.962 35.8176 120.428 36.855 121.656 36.2073L128.573 32.5894L135.49 36.2073C136.718 36.8498 138.184 35.8176 137.946 34.4326L136.623 26.7702L142.217 21.3461C143.222 20.3718 142.667 18.6708 141.28 18.4707L133.548 17.349L130.092 10.3765C129.472 9.1337 127.678 9.11791 127.054 10.3765Z"/><path fill="#000" d="M139.379 62.3633L133.29 74.9137L119.667 76.9328C117.224 77.293 116.245 80.3548 118.016 82.1084L127.873 91.872L125.541 105.664C125.122 108.157 127.705 110.025 129.868 108.859L142.056 102.346L154.243 108.859C156.407 110.015 158.99 108.157 158.57 105.664L156.239 91.872L166.095 82.1084C167.867 80.3548 166.888 77.293 164.445 76.9328L150.821 74.9137L144.732 62.3633C143.641 60.1262 140.48 60.0978 139.379 62.3633Z"/><path fill="#000" d="M83.2082 72.8091C94.3765 72.8091 104.577 67.7004 111.334 59.3292C112.334 58.0909 111.244 56.2817 109.699 56.5775C92.1319 59.9412 75.9996 46.399 75.9996 28.5696C75.9996 18.2993 81.4678 8.85498 90.3553 3.76986C91.7253 2.98603 91.3807 0.897742 89.824 0.608639C87.6417 0.204055 85.4273 0.00033224 83.2082 0C63.2217 0 47 16.2841 47 36.4046C47 56.4995 63.1963 72.8091 83.2082 72.8091Z"/><path fill="#000" d="M15.0956 189.44H1.45563V185H19.6956L19.7356 190L9.09563 213H3.97563L15.0956 189.44ZM21.6166 203.6V199.48H36.1366V203.6H21.6166ZM39.5481 204.84C39.5481 203.187 40.0148 201.827 40.9481 200.76C41.8815 199.667 43.0415 198.867 44.4281 198.36C41.5215 197.08 40.0681 195.013 40.0681 192.16C40.0681 189.867 41.0681 188.04 43.0681 186.68C45.0948 185.32 47.4815 184.64 50.2281 184.64C52.9748 184.64 55.3481 185.32 57.3481 186.68C59.3748 188.04 60.3881 189.867 60.3881 192.16C60.3881 195.013 58.9348 197.08 56.0281 198.36C57.4148 198.867 58.5748 199.667 59.5081 200.76C60.4681 201.827 60.9481 203.187 60.9481 204.84C60.9481 207.213 59.9615 209.213 57.9881 210.84C55.9881 212.493 53.4015 213.32 50.2281 213.32C47.0548 213.32 44.4815 212.507 42.5081 210.88C40.5348 209.227 39.5481 207.213 39.5481 204.84ZM44.2681 204.72C44.2681 206.107 44.8415 207.213 45.9881 208.04C47.1348 208.867 48.5481 209.28 50.2281 209.28C51.9081 209.28 53.3215 208.867 54.4681 208.04C55.6148 207.213 56.1881 206.107 56.1881 204.72C56.1881 203.387 55.6415 202.267 54.5481 201.36C53.4815 200.453 52.0415 200 50.2281 200C48.3881 200 46.9348 200.453 45.8681 201.36C44.8015 202.267 44.2681 203.387 44.2681 204.72ZM44.7881 192.64C44.7881 193.813 45.3081 194.813 46.3481 195.64C47.3881 196.493 48.6815 196.92 50.2281 196.92C51.7748 196.92 53.0548 196.507 54.0681 195.68C55.1081 194.853 55.6281 193.84 55.6281 192.64C55.6281 191.44 55.1081 190.48 54.0681 189.76C53.0281 189.04 51.7481 188.68 50.2281 188.68C48.7081 188.68 47.4148 189.053 46.3481 189.8C45.3081 190.52 44.7881 191.467 44.7881 192.64ZM75.8494 185H80.4494V194.6C82.1027 192.493 84.316 191.44 87.0894 191.44C89.516 191.44 91.596 192.227 93.3294 193.8C95.0894 195.347 95.9694 197.413 95.9694 200V213H91.3694V201.24C91.3694 199.56 90.8627 198.227 89.8494 197.24C88.836 196.227 87.6094 195.72 86.1694 195.72C84.4894 195.72 83.116 196.333 82.0494 197.56C80.9827 198.76 80.4494 200.267 80.4494 202.08V213H75.8494V185ZM102.428 194.64C104.561 192.507 107.135 191.44 110.148 191.44C113.161 191.44 115.721 192.52 117.828 194.68C119.961 196.813 121.028 199.373 121.028 202.36C121.028 205.373 119.961 207.96 117.828 210.12C115.695 212.253 113.135 213.32 110.148 213.32C107.135 213.32 104.561 212.253 102.428 210.12C100.295 207.96 99.2281 205.373 99.2281 202.36C99.2281 199.347 100.295 196.773 102.428 194.64ZM103.548 202.36C103.548 204.2 104.188 205.787 105.468 207.12C106.748 208.453 108.308 209.12 110.148 209.12C111.961 209.12 113.508 208.453 114.788 207.12C116.068 205.787 116.708 204.2 116.708 202.36C116.708 200.52 116.068 198.947 114.788 197.64C113.535 196.307 111.988 195.64 110.148 195.64C108.308 195.64 106.748 196.307 105.468 197.64C104.188 198.947 103.548 200.52 103.548 202.36ZM124.242 191.8H128.842V203.52C128.842 205.2 129.336 206.547 130.322 207.56C131.336 208.573 132.576 209.08 134.042 209.08C135.722 209.08 137.082 208.48 138.122 207.28C139.189 206.053 139.722 204.52 139.722 202.68V191.8H144.322V213H139.722V210.2C138.096 212.307 135.896 213.36 133.122 213.36C130.696 213.36 128.602 212.587 126.842 211.04C125.109 209.467 124.242 207.387 124.242 204.8V191.8ZM148.737 191.8H153.337V195.28C154.004 193.947 154.911 193 156.057 192.44C157.231 191.853 158.431 191.56 159.657 191.56C160.244 191.56 160.857 191.613 161.497 191.72V196.64C160.671 196.373 159.884 196.24 159.137 196.24C157.937 196.24 156.671 196.68 155.337 197.56C154.004 198.44 153.337 200 153.337 202.24V213H148.737V191.8ZM164.193 197.84C164.193 195.84 165.006 194.28 166.633 193.16C168.259 192.013 170.339 191.44 172.873 191.44C175.886 191.44 178.619 192.173 181.073 193.64V198.08C177.979 196.293 175.246 195.4 172.873 195.4C171.699 195.4 170.739 195.627 169.993 196.08C169.273 196.507 168.913 197.08 168.913 197.8C168.913 198.04 168.953 198.267 169.033 198.48C169.139 198.667 169.299 198.84 169.513 199C169.753 199.16 169.979 199.293 170.193 199.4C170.433 199.507 170.766 199.627 171.193 199.76C171.619 199.867 171.979 199.96 172.273 200.04C172.566 200.093 172.993 200.187 173.553 200.32C174.139 200.453 174.606 200.56 174.953 200.64C177.406 201.227 179.179 202.053 180.273 203.12C181.393 204.187 181.966 205.493 181.993 207.04C181.993 208.48 181.539 209.693 180.633 210.68C179.753 211.667 178.699 212.36 177.473 212.76C176.246 213.133 174.899 213.32 173.433 213.32C170.419 213.32 167.486 212.4 164.633 210.56V205.88C165.593 206.707 166.913 207.48 168.593 208.2C170.273 208.92 171.886 209.28 173.433 209.28C174.473 209.28 175.366 209.08 176.113 208.68C176.886 208.253 177.273 207.693 177.273 207C177.273 206.28 176.833 205.693 175.953 205.24C175.073 204.76 173.699 204.333 171.833 203.96C169.219 203.427 167.286 202.693 166.033 201.76C164.806 200.8 164.193 199.493 164.193 197.84Z"/></svg>