<svg xmlns="http://www.w3.org/2000/svg" width="178" height="253" fill="none" viewBox="0 0 178 253"><path fill="#000" d="M27.6667 239V215.36H20.6267V211H32.2667V239H27.6667ZM36.863 225.52H43.663V218.96H47.823V225.52H54.623V229.64H47.823V236.16H43.703V229.64H36.863V225.52ZM69.8298 211H74.4298V220.6C76.0832 218.493 78.2965 217.44 81.0698 217.44C83.4965 217.44 85.5765 218.227 87.3098 219.8C89.0698 221.347 89.9498 223.413 89.9498 226V239H85.3498V227.24C85.3498 225.56 84.8432 224.227 83.8298 223.24C82.8165 222.227 81.5898 221.72 80.1498 221.72C78.4698 221.72 77.0965 222.333 76.0298 223.56C74.9632 224.76 74.4298 226.267 74.4298 228.08V239H69.8298V211ZM96.4086 220.64C98.5419 218.507 101.115 217.44 104.129 217.44C107.142 217.44 109.702 218.52 111.809 220.68C113.942 222.813 115.009 225.373 115.009 228.36C115.009 231.373 113.942 233.96 111.809 236.12C109.675 238.253 107.115 239.32 104.129 239.32C101.115 239.32 98.5419 238.253 96.4086 236.12C94.2753 233.96 93.2086 231.373 93.2086 228.36C93.2086 225.347 94.2753 222.773 96.4086 220.64ZM97.5286 228.36C97.5286 230.2 98.1686 231.787 99.4486 233.12C100.729 234.453 102.289 235.12 104.129 235.12C105.942 235.12 107.489 234.453 108.769 233.12C110.049 231.787 110.689 230.2 110.689 228.36C110.689 226.52 110.049 224.947 108.769 223.64C107.515 222.307 105.969 221.64 104.129 221.64C102.289 221.64 100.729 222.307 99.4486 223.64C98.1686 224.947 97.5286 226.52 97.5286 228.36ZM118.223 217.8H122.823V229.52C122.823 231.2 123.316 232.547 124.303 233.56C125.316 234.573 126.556 235.08 128.023 235.08C129.703 235.08 131.063 234.48 132.103 233.28C133.169 232.053 133.703 230.52 133.703 228.68V217.8H138.303V239H133.703V236.2C132.076 238.307 129.876 239.36 127.103 239.36C124.676 239.36 122.583 238.587 120.823 237.04C119.089 235.467 118.223 233.387 118.223 230.8V217.8ZM142.718 217.8H147.318V221.28C147.984 219.947 148.891 219 150.038 218.44C151.211 217.853 152.411 217.56 153.638 217.56C154.224 217.56 154.838 217.613 155.478 217.72V222.64C154.651 222.373 153.864 222.24 153.118 222.24C151.918 222.24 150.651 222.68 149.318 223.56C147.984 224.44 147.318 226 147.318 228.24V239H142.718V217.8Z"/><path fill="#000" d="M105.3 91.9053L92.6814 117.198C91.1581 120.276 86.7404 120.175 85.344 117.045L70.8975 84.9079L63.2808 103.152H39.3896L85.7248 150.607C87.5274 152.464 90.4472 152.464 92.2498 150.607L138.61 103.152H110.911L105.3 91.9053ZM144.272 48.6742L143.663 48.0381C130.587 34.654 109.184 34.654 96.0836 48.0381L89 55.3153L81.9164 48.0635C68.841 34.654 47.4126 34.654 34.3372 48.0635L33.7278 48.6742C21.3633 61.3458 20.8301 81.5237 31.8744 95.0095H57.8729L66.9876 73.0759C68.3586 69.7935 72.9794 69.7172 74.452 72.9742L89.2285 105.875L101.669 80.9639C103.167 77.9614 107.433 77.9614 108.93 80.9639L115.938 95.0095H146.126C157.17 81.5237 156.637 61.3458 144.272 48.6742Z"/><circle cx="89" cy="89" r="86" stroke="#000" stroke-width="6"/></svg>