<svg xmlns="http://www.w3.org/2000/svg" width="280" height="219" fill="none" viewBox="0 0 280 219"><path fill="#000" d="M84.5 110C79.3283 110 74.3684 107.946 70.7114 104.289C67.0545 100.632 65 95.6717 65 90.5V54.5C65 49.3283 67.0545 44.3684 70.7114 40.7114C74.3684 37.0545 79.3283 35 84.5 35H184.569C189.74 35 194.7 37.0545 198.357 40.7114C202.014 44.3684 204.069 49.3283 204.069 54.5V90.5C204.069 95.6717 202.014 100.632 198.357 104.289C194.7 107.946 189.74 110 184.569 110H84.5ZM71.925 54.5V90.5C71.9283 93.8318 73.2538 97.0262 75.6103 99.3816C77.9669 101.737 81.1619 103.061 84.4937 103.062H184.569C187.899 103.059 191.092 101.734 193.446 99.379C195.8 97.0236 197.123 93.8302 197.125 90.5V54.5C197.122 51.1703 195.798 47.9779 193.444 45.6228C191.09 43.2678 187.898 41.9425 184.569 41.9375H84.4937C77.5562 41.9375 71.9312 47.5625 71.925 54.5ZM88.6687 94.5C86.5037 94.4918 84.4298 93.6276 82.8995 92.0961C81.3691 90.5646 80.5066 88.49 80.5 86.325V58.6563C80.5 56.4902 81.3583 54.4124 82.887 52.8778C84.4157 51.3433 86.4902 50.477 88.6562 50.4687H180.394C181.469 50.4679 182.535 50.6791 183.529 51.0902C184.523 51.5013 185.426 52.1042 186.187 52.8646C186.948 53.625 187.552 54.5278 187.964 55.5216C188.376 56.5153 188.587 57.5805 188.587 58.6563V86.325C188.574 88.4923 187.706 90.5669 186.172 92.0977C184.638 93.6285 182.561 94.4918 180.394 94.5H88.6687ZM206.606 60.6875C209.05 61.5378 211.17 63.1256 212.674 65.232C214.177 67.3383 214.99 69.8594 214.999 72.4471C215.009 75.0349 214.215 77.5619 212.727 79.6794C211.24 81.7968 209.131 83.4004 206.694 84.2687L206.606 84.2938V60.6875Z"/><path fill="#000" d="M22.5981 177V181.4H7.11813V188.84H20.9981V193.12H7.11813V205H2.39813V177H22.5981ZM25.5938 183.8H30.1938V195.52C30.1938 197.2 30.6871 198.547 31.6738 199.56C32.6871 200.573 33.9271 201.08 35.3938 201.08C37.0738 201.08 38.4338 200.48 39.4738 199.28C40.5404 198.053 41.0738 196.52 41.0738 194.68V183.8H45.6738V205H41.0738V202.2C39.4471 204.307 37.2471 205.36 34.4738 205.36C32.0471 205.36 29.9538 204.587 28.1938 203.04C26.4604 201.467 25.5938 199.387 25.5938 196.8V183.8ZM50.1688 205V177H54.7688V205H50.1688ZM59.1531 205V177H63.7531V205H59.1531ZM66.4575 183.8H71.3775L77.6575 199.48L83.6575 183.8H88.5775L76.6975 213.4H71.8975L75.2975 204.88L66.4575 183.8ZM105.912 180.84C108.685 178.04 112.045 176.64 115.992 176.64C118.845 176.64 121.392 177.427 123.632 179C125.898 180.573 127.605 182.653 128.752 185.24L124.192 186.52C123.418 184.893 122.312 183.6 120.872 182.64C119.458 181.653 117.832 181.16 115.992 181.16C113.272 181.16 111.005 182.107 109.192 184C107.405 185.867 106.512 188.187 106.512 190.96C106.512 193.68 107.405 195.987 109.192 197.88C111.005 199.747 113.272 200.68 115.992 200.68C117.858 200.68 119.485 200.227 120.872 199.32C122.285 198.387 123.365 197.107 124.112 195.48L128.712 196.72C127.592 199.28 125.898 201.347 123.632 202.92C121.392 204.467 118.845 205.24 115.992 205.24C112.045 205.24 108.685 203.853 105.912 201.08C103.138 198.28 101.752 194.907 101.752 190.96C101.752 187.013 103.138 183.64 105.912 180.84ZM132.318 177H136.918V186.6C138.571 184.493 140.785 183.44 143.558 183.44C145.985 183.44 148.065 184.227 149.798 185.8C151.558 187.347 152.438 189.413 152.438 192V205H147.838V193.24C147.838 191.56 147.331 190.227 146.318 189.24C145.305 188.227 144.078 187.72 142.638 187.72C140.958 187.72 139.585 188.333 138.518 189.56C137.451 190.76 136.918 192.267 136.918 194.08V205H132.318V177ZM158.897 186.64C160.95 184.507 163.444 183.44 166.377 183.44C169.23 183.44 171.497 184.507 173.177 186.64V183.8H177.777V205H173.177V202.16C171.497 204.267 169.23 205.32 166.377 205.32C163.47 205.32 160.977 204.253 158.897 202.12C156.844 199.96 155.817 197.387 155.817 194.4C155.817 191.36 156.844 188.773 158.897 186.64ZM160.097 194.4C160.097 196.267 160.737 197.867 162.017 199.2C163.324 200.507 164.91 201.16 166.777 201.16C168.617 201.16 170.19 200.493 171.497 199.16C172.83 197.827 173.497 196.24 173.497 194.4C173.497 192.56 172.83 190.973 171.497 189.64C170.19 188.28 168.617 187.6 166.777 187.6C164.91 187.6 163.324 188.267 162.017 189.6C160.737 190.933 160.097 192.533 160.097 194.4ZM182.159 183.8H186.759V187.28C187.426 185.947 188.332 185 189.479 184.44C190.652 183.853 191.852 183.56 193.079 183.56C193.666 183.56 194.279 183.613 194.919 183.72V188.64C194.092 188.373 193.306 188.24 192.559 188.24C191.359 188.24 190.092 188.68 188.759 189.56C187.426 190.44 186.759 192 186.759 194.24V205H182.159V183.8ZM196.442 194.08C196.442 191.013 197.442 188.48 199.442 186.48C201.442 184.453 203.882 183.44 206.762 183.44C206.842 183.44 206.922 183.44 207.002 183.44C209.855 183.467 212.122 184.52 213.802 186.6V183.8H218.402V203.4C218.402 206.76 217.389 209.4 215.362 211.32C213.362 213.24 210.882 214.2 207.922 214.2C205.469 214.2 203.255 213.52 201.282 212.16C199.309 210.8 198.015 208.813 197.402 206.2H202.002C202.455 207.48 203.229 208.413 204.322 209C205.442 209.613 206.629 209.92 207.882 209.92C209.615 209.92 211.029 209.387 212.122 208.32C213.215 207.253 213.775 205.64 213.802 203.48V201.76C212.149 203.733 209.882 204.72 207.002 204.72C203.962 204.72 201.442 203.707 199.442 201.68C197.442 199.627 196.442 197.093 196.442 194.08ZM200.722 194.08C200.722 195.92 201.375 197.467 202.682 198.72C203.989 199.973 205.562 200.6 207.402 200.6C209.242 200.6 210.815 199.973 212.122 198.72C213.455 197.44 214.122 195.893 214.122 194.08C214.122 192.267 213.469 190.733 212.162 189.48C210.855 188.2 209.269 187.56 207.402 187.56C205.535 187.56 203.949 188.187 202.642 189.44C201.362 190.693 200.722 192.24 200.722 194.08ZM225.228 186.64C227.361 184.507 229.921 183.44 232.908 183.44C235.574 183.44 237.894 184.307 239.868 186.04C241.868 187.747 243.094 189.893 243.548 192.48C243.708 193.12 243.788 193.76 243.788 194.4C243.788 194.96 243.721 195.52 243.588 196.08H226.548C226.814 197.653 227.534 198.907 228.708 199.84C229.908 200.773 231.308 201.24 232.908 201.24C235.361 201.24 237.321 200.36 238.788 198.6L242.868 199.68C242.014 201.387 240.641 202.76 238.748 203.8C236.881 204.813 234.934 205.32 232.908 205.32C229.841 205.32 227.254 204.253 225.148 202.12C223.068 199.987 222.028 197.413 222.028 194.4C222.028 191.36 223.094 188.773 225.228 186.64ZM226.548 192.56H239.108C238.841 191.147 238.134 189.96 236.988 189C235.868 188.013 234.494 187.52 232.868 187.52C231.241 187.52 229.854 188.013 228.708 189C227.561 189.96 226.841 191.147 226.548 192.56ZM249.444 186.64C251.497 184.507 253.99 183.44 256.924 183.44C259.777 183.44 262.044 184.507 263.724 186.64V177H268.324V205H263.724V202.2C262.044 204.28 259.777 205.32 256.924 205.32C254.017 205.32 251.524 204.253 249.444 202.12C247.39 199.96 246.364 197.387 246.364 194.4C246.364 191.36 247.39 188.773 249.444 186.64ZM250.644 194.4C250.644 196.267 251.284 197.867 252.564 199.2C253.844 200.507 255.43 201.16 257.324 201.16C259.164 201.16 260.737 200.493 262.044 199.16C263.377 197.827 264.044 196.24 264.044 194.4C264.044 192.56 263.377 190.973 262.044 189.64C260.737 188.28 259.164 187.6 257.324 187.6C255.457 187.6 253.87 188.267 252.564 189.6C251.284 190.933 250.644 192.533 250.644 194.4ZM272.546 177H278.026L277.386 187.88L276.786 196.4H273.786L273.146 187.76L272.546 177ZM272.306 202.36C272.306 201.533 272.586 200.84 273.146 200.28C273.706 199.693 274.399 199.4 275.226 199.4C276.053 199.4 276.746 199.693 277.306 200.28C277.893 200.84 278.186 201.533 278.186 202.36C278.186 203.187 277.906 203.88 277.346 204.44C276.759 205 276.053 205.28 275.226 205.28C274.399 205.28 273.706 205 273.146 204.44C272.586 203.88 272.306 203.187 272.306 202.36Z"/></svg>