<svg xmlns="http://www.w3.org/2000/svg" width="168" height="238" fill="none" viewBox="0 0 168 238"><path fill="#000" d="M120.628 63.0996L118.586 67.4253L114.017 68.1213C113.198 68.2454 112.87 69.3007 113.464 69.9052L116.769 73.2704L115.987 78.0242C115.847 78.8835 116.713 79.5271 117.438 79.1252L121.525 76.8807L125.613 79.1252C126.338 79.5238 127.204 78.8835 127.064 78.0242L126.282 73.2704L129.587 69.9052C130.181 69.3007 129.853 68.2454 129.034 68.1213L124.465 67.4253L122.423 63.0996C122.057 62.3285 120.997 62.3187 120.628 63.0996Z"/><path fill="#000" d="M119.056 16.2784L117.444 19.4659L113.837 19.9786C113.19 20.0701 112.931 20.8477 113.4 21.2931L116.009 23.7727L115.392 27.2755C115.281 27.9087 115.965 28.3829 116.538 28.0868L119.764 26.4329L122.991 28.0868C123.564 28.3805 124.248 27.9087 124.137 27.2755L123.519 23.7727L126.129 21.2931C126.598 20.8477 126.339 20.0701 125.692 19.9786L122.085 19.4659L120.473 16.2784C120.184 15.7103 119.347 15.7031 119.056 16.2784Z"/><path fill="#000" d="M103.614 35.9568L100.928 41.421L94.916 42.3C93.838 42.4568 93.4059 43.7899 94.1877 44.5534L98.5369 48.8042L97.5082 54.809C97.3231 55.8944 98.4628 56.7074 99.4174 56.1998L104.795 53.3645L110.173 56.1998C111.128 56.7033 112.267 55.8944 112.082 54.809L111.054 48.8042L115.403 44.5534C116.185 43.7899 115.753 42.4568 114.675 42.3L108.663 41.421L105.976 35.9568C105.495 34.9828 104.1 34.9705 103.614 35.9568Z"/><path fill="#000" d="M86.8629 119.753C105.327 119.753 122.191 111.35 133.364 97.5818C135.016 95.5451 133.214 92.5695 130.66 93.056C101.616 98.5885 74.9448 76.3149 74.9448 46.9899C74.9448 30.0977 83.9855 14.5642 98.6791 6.20049C100.944 4.91127 100.374 1.47656 97.8008 1.00106C94.1928 0.33562 90.5317 0.000546452 86.8629 0C53.8193 0 27 26.7833 27 59.8765C27 92.9276 53.7772 119.753 86.8629 119.753Z"/><path fill="#000" d="M20.8481 209.68V215.52L2.28813 224.28V219.76L17.8481 212.6L2.28813 205.32V200.88L20.8481 209.68ZM27.3091 198.48C29.1757 196.587 31.6291 195.64 34.6691 195.64C38.0024 195.64 40.6557 196.907 42.6291 199.44C44.6291 201.947 45.6291 205.4 45.6291 209.8C45.6291 214.253 44.6424 217.787 42.6691 220.4C40.7224 223.013 38.0557 224.32 34.6691 224.32C32.1624 224.32 30.0157 223.587 28.2291 222.12C26.4424 220.653 25.2691 218.72 24.7091 216.32H29.3891C29.7624 217.387 30.4291 218.293 31.3891 219.04C32.3491 219.787 33.4691 220.16 34.7491 220.16C35.7891 220.16 36.7091 219.907 37.5091 219.4C38.3357 218.893 38.9891 218.213 39.4691 217.36C39.9757 216.507 40.3624 215.6 40.6291 214.64C40.9224 213.653 41.1091 212.627 41.1891 211.56C41.1891 211.053 41.1757 210.707 41.1491 210.52C40.6691 211.72 39.7891 212.72 38.5091 213.52C37.2557 214.32 35.8291 214.72 34.2291 214.72C34.1757 214.72 34.1224 214.72 34.0691 214.72C31.2424 214.693 28.9357 213.773 27.1491 211.96C25.3891 210.147 24.5091 207.933 24.5091 205.32C24.5091 202.653 25.4424 200.373 27.3091 198.48ZM30.8291 209.16C31.9224 210.2 33.2291 210.72 34.7491 210.72C36.2691 210.72 37.5757 210.2 38.6691 209.16C39.7624 208.12 40.3091 206.827 40.3091 205.28C40.3091 203.733 39.7624 202.44 38.6691 201.4C37.5757 200.333 36.2691 199.8 34.7491 199.8C33.2291 199.8 31.9224 200.333 30.8291 201.4C29.7357 202.44 29.1891 203.733 29.1891 205.28C29.1891 206.827 29.7357 208.12 30.8291 209.16ZM60.5369 196H65.1369V205.6C66.7902 203.493 69.0035 202.44 71.7769 202.44C74.2035 202.44 76.2835 203.227 78.0169 204.8C79.7769 206.347 80.6569 208.413 80.6569 211V224H76.0569V212.24C76.0569 210.56 75.5502 209.227 74.5369 208.24C73.5235 207.227 72.2969 206.72 70.8569 206.72C69.1769 206.72 67.8035 207.333 66.7369 208.56C65.6702 209.76 65.1369 211.267 65.1369 213.08V224H60.5369V196ZM87.1156 205.64C89.249 203.507 91.8223 202.44 94.8356 202.44C97.849 202.44 100.409 203.52 102.516 205.68C104.649 207.813 105.716 210.373 105.716 213.36C105.716 216.373 104.649 218.96 102.516 221.12C100.382 223.253 97.8223 224.32 94.8356 224.32C91.8223 224.32 89.249 223.253 87.1156 221.12C84.9823 218.96 83.9156 216.373 83.9156 213.36C83.9156 210.347 84.9823 207.773 87.1156 205.64ZM88.2356 213.36C88.2356 215.2 88.8756 216.787 90.1556 218.12C91.4356 219.453 92.9956 220.12 94.8356 220.12C96.649 220.12 98.1956 219.453 99.4756 218.12C100.756 216.787 101.396 215.2 101.396 213.36C101.396 211.52 100.756 209.947 99.4756 208.64C98.2223 207.307 96.6756 206.64 94.8356 206.64C92.9956 206.64 91.4356 207.307 90.1556 208.64C88.8756 209.947 88.2356 211.52 88.2356 213.36ZM108.93 202.8H113.53V214.52C113.53 216.2 114.023 217.547 115.01 218.56C116.023 219.573 117.263 220.08 118.73 220.08C120.41 220.08 121.77 219.48 122.81 218.28C123.876 217.053 124.41 215.52 124.41 213.68V202.8H129.01V224H124.41V221.2C122.783 223.307 120.583 224.36 117.81 224.36C115.383 224.36 113.29 223.587 111.53 222.04C109.796 220.467 108.93 218.387 108.93 215.8V202.8ZM133.425 202.8H138.025V206.28C138.691 204.947 139.598 204 140.745 203.44C141.918 202.853 143.118 202.56 144.345 202.56C144.931 202.56 145.545 202.613 146.185 202.72V207.64C145.358 207.373 144.571 207.24 143.825 207.24C142.625 207.24 141.358 207.68 140.025 208.56C138.691 209.44 138.025 211 138.025 213.24V224H133.425V202.8ZM148.88 208.84C148.88 206.84 149.694 205.28 151.32 204.16C152.947 203.013 155.027 202.44 157.56 202.44C160.574 202.44 163.307 203.173 165.76 204.64V209.08C162.667 207.293 159.934 206.4 157.56 206.4C156.387 206.4 155.427 206.627 154.68 207.08C153.96 207.507 153.6 208.08 153.6 208.8C153.6 209.04 153.64 209.267 153.72 209.48C153.827 209.667 153.987 209.84 154.2 210C154.44 210.16 154.667 210.293 154.88 210.4C155.12 210.507 155.454 210.627 155.88 210.76C156.307 210.867 156.667 210.96 156.96 211.04C157.254 211.093 157.68 211.187 158.24 211.32C158.827 211.453 159.294 211.56 159.64 211.64C162.094 212.227 163.867 213.053 164.96 214.12C166.08 215.187 166.654 216.493 166.68 218.04C166.68 219.48 166.227 220.693 165.32 221.68C164.44 222.667 163.387 223.36 162.16 223.76C160.934 224.133 159.587 224.32 158.12 224.32C155.107 224.32 152.174 223.4 149.32 221.56V216.88C150.28 217.707 151.6 218.48 153.28 219.2C154.96 219.92 156.574 220.28 158.12 220.28C159.16 220.28 160.054 220.08 160.8 219.68C161.574 219.253 161.96 218.693 161.96 218C161.96 217.28 161.52 216.693 160.64 216.24C159.76 215.76 158.387 215.333 156.52 214.96C153.907 214.427 151.974 213.693 150.72 212.76C149.494 211.8 148.88 210.493 148.88 208.84Z"/></svg>