<svg xmlns="http://www.w3.org/2000/svg" width="183" height="218" fill="none" viewBox="0 0 183 218"><path stroke="#000" stroke-miterlimit="10" stroke-width="8" d="M97.2246 4H86.7853H49L66.9009 130H88.7738H95.2362H117.104L135 4H97.2246Z"/><path fill="#000" d="M4.86766 179.56C6.89432 176.947 9.64099 175.64 13.1077 175.64C16.6277 175.64 19.401 176.947 21.4277 179.56C23.4543 182.173 24.4677 185.653 24.4677 190C24.4677 194.32 23.441 197.787 21.3877 200.4C19.361 203.013 16.601 204.32 13.1077 204.32C9.58766 204.32 6.82766 203.027 4.82766 200.44C2.82766 197.853 1.82766 194.387 1.82766 190.04C1.82766 185.667 2.84099 182.173 4.86766 179.56ZM8.26766 197.16C9.46766 198.973 11.081 199.88 13.1077 199.88C15.1877 199.88 16.8277 198.96 18.0277 197.12C19.2543 195.28 19.8677 192.907 19.8677 190C19.8677 187.067 19.2543 184.68 18.0277 182.84C16.801 181 15.161 180.08 13.1077 180.08C11.0277 180.08 9.38766 181 8.18766 182.84C7.01432 184.68 6.42766 187.08 6.42766 190.04C6.42766 193 7.04099 195.373 8.26766 197.16ZM38.4692 193.08C38.4692 190.013 39.4692 187.48 41.4692 185.48C43.4692 183.453 45.9092 182.44 48.7892 182.44C48.8692 182.44 48.9492 182.44 49.0292 182.44C51.8826 182.467 54.1492 183.52 55.8292 185.6V182.8H60.4292V202.4C60.4292 205.76 59.4159 208.4 57.3892 210.32C55.3892 212.24 52.9092 213.2 49.9492 213.2C47.4959 213.2 45.2826 212.52 43.3092 211.16C41.3359 209.8 40.0426 207.813 39.4292 205.2H44.0292C44.4826 206.48 45.2559 207.413 46.3492 208C47.4692 208.613 48.6559 208.92 49.9092 208.92C51.6426 208.92 53.0559 208.387 54.1492 207.32C55.2426 206.253 55.8026 204.64 55.8292 202.48V200.76C54.1759 202.733 51.9092 203.72 49.0292 203.72C45.9892 203.72 43.4692 202.707 41.4692 200.68C39.4692 198.627 38.4692 196.093 38.4692 193.08ZM42.7492 193.08C42.7492 194.92 43.4026 196.467 44.7092 197.72C46.0159 198.973 47.5892 199.6 49.4292 199.6C51.2692 199.6 52.8426 198.973 54.1492 197.72C55.4826 196.44 56.1492 194.893 56.1492 193.08C56.1492 191.267 55.4959 189.733 54.1892 188.48C52.8826 187.2 51.2959 186.56 49.4292 186.56C47.5626 186.56 45.9759 187.187 44.6692 188.44C43.3892 189.693 42.7492 191.24 42.7492 193.08ZM64.7352 204V176H69.3352V204H64.7352ZM76.1195 185.64C78.1729 183.507 80.6662 182.44 83.5995 182.44C86.4529 182.44 88.7195 183.507 90.3995 185.64V182.8H94.9995V204H90.3995V201.16C88.7195 203.267 86.4529 204.32 83.5995 204.32C80.6929 204.32 78.1995 203.253 76.1195 201.12C74.0662 198.96 73.0395 196.387 73.0395 193.4C73.0395 190.36 74.0662 187.773 76.1195 185.64ZM77.3195 193.4C77.3195 195.267 77.9595 196.867 79.2395 198.2C80.5462 199.507 82.1329 200.16 83.9995 200.16C85.8395 200.16 87.4129 199.493 88.7195 198.16C90.0529 196.827 90.7195 195.24 90.7195 193.4C90.7195 191.56 90.0529 189.973 88.7195 188.64C87.4129 187.28 85.8395 186.6 83.9995 186.6C82.1329 186.6 80.5462 187.267 79.2395 188.6C77.9595 189.933 77.3195 191.533 77.3195 193.4ZM98.8217 188.84C98.8217 186.84 99.6351 185.28 101.262 184.16C102.888 183.013 104.968 182.44 107.502 182.44C110.515 182.44 113.248 183.173 115.702 184.64V189.08C112.608 187.293 109.875 186.4 107.502 186.4C106.328 186.4 105.368 186.627 104.622 187.08C103.902 187.507 103.542 188.08 103.542 188.8C103.542 189.04 103.582 189.267 103.662 189.48C103.768 189.667 103.928 189.84 104.142 190C104.382 190.16 104.608 190.293 104.822 190.4C105.062 190.507 105.395 190.627 105.822 190.76C106.248 190.867 106.608 190.96 106.902 191.04C107.195 191.093 107.622 191.187 108.182 191.32C108.768 191.453 109.235 191.56 109.582 191.64C112.035 192.227 113.808 193.053 114.902 194.12C116.022 195.187 116.595 196.493 116.622 198.04C116.622 199.48 116.168 200.693 115.262 201.68C114.382 202.667 113.328 203.36 112.102 203.76C110.875 204.133 109.528 204.32 108.062 204.32C105.048 204.32 102.115 203.4 99.2617 201.56V196.88C100.222 197.707 101.542 198.48 103.222 199.2C104.902 199.92 106.515 200.28 108.062 200.28C109.102 200.28 109.995 200.08 110.742 199.68C111.515 199.253 111.902 198.693 111.902 198C111.902 197.28 111.462 196.693 110.582 196.24C109.702 195.76 108.328 195.333 106.462 194.96C103.848 194.427 101.915 193.693 100.662 192.76C99.4351 191.8 98.8217 190.493 98.8217 188.84ZM119.173 188.84C119.173 186.84 119.987 185.28 121.613 184.16C123.24 183.013 125.32 182.44 127.853 182.44C130.867 182.44 133.6 183.173 136.053 184.64V189.08C132.96 187.293 130.227 186.4 127.853 186.4C126.68 186.4 125.72 186.627 124.973 187.08C124.253 187.507 123.893 188.08 123.893 188.8C123.893 189.04 123.933 189.267 124.013 189.48C124.12 189.667 124.28 189.84 124.493 190C124.733 190.16 124.96 190.293 125.173 190.4C125.413 190.507 125.747 190.627 126.173 190.76C126.6 190.867 126.96 190.96 127.253 191.04C127.547 191.093 127.973 191.187 128.533 191.32C129.12 191.453 129.587 191.56 129.933 191.64C132.387 192.227 134.16 193.053 135.253 194.12C136.373 195.187 136.947 196.493 136.973 198.04C136.973 199.48 136.52 200.693 135.613 201.68C134.733 202.667 133.68 203.36 132.453 203.76C131.227 204.133 129.88 204.32 128.413 204.32C125.4 204.32 122.467 203.4 119.613 201.56V196.88C120.573 197.707 121.893 198.48 123.573 199.2C125.253 199.92 126.867 200.28 128.413 200.28C129.453 200.28 130.347 200.08 131.093 199.68C131.867 199.253 132.253 198.693 132.253 198C132.253 197.28 131.813 196.693 130.933 196.24C130.053 195.76 128.68 195.333 126.813 194.96C124.2 194.427 122.267 193.693 121.013 192.76C119.787 191.8 119.173 190.493 119.173 188.84ZM142.49 185.64C144.623 183.507 147.183 182.44 150.17 182.44C152.836 182.44 155.156 183.307 157.13 185.04C159.13 186.747 160.356 188.893 160.81 191.48C160.97 192.12 161.05 192.76 161.05 193.4C161.05 193.96 160.983 194.52 160.85 195.08H143.81C144.076 196.653 144.796 197.907 145.97 198.84C147.17 199.773 148.57 200.24 150.17 200.24C152.623 200.24 154.583 199.36 156.05 197.6L160.13 198.68C159.276 200.387 157.903 201.76 156.01 202.8C154.143 203.813 152.196 204.32 150.17 204.32C147.103 204.32 144.516 203.253 142.41 201.12C140.33 198.987 139.29 196.413 139.29 193.4C139.29 190.36 140.356 187.773 142.49 185.64ZM143.81 191.56H156.37C156.103 190.147 155.396 188.96 154.25 188C153.13 187.013 151.756 186.52 150.13 186.52C148.503 186.52 147.116 187.013 145.97 188C144.823 188.96 144.103 190.147 143.81 191.56ZM163.861 188.84C163.861 186.84 164.674 185.28 166.301 184.16C167.927 183.013 170.007 182.44 172.541 182.44C175.554 182.44 178.287 183.173 180.741 184.64V189.08C177.647 187.293 174.914 186.4 172.541 186.4C171.367 186.4 170.407 186.627 169.661 187.08C168.941 187.507 168.581 188.08 168.581 188.8C168.581 189.04 168.621 189.267 168.701 189.48C168.807 189.667 168.967 189.84 169.181 190C169.421 190.16 169.647 190.293 169.861 190.4C170.101 190.507 170.434 190.627 170.861 190.76C171.287 190.867 171.647 190.96 171.941 191.04C172.234 191.093 172.661 191.187 173.221 191.32C173.807 191.453 174.274 191.56 174.621 191.64C177.074 192.227 178.847 193.053 179.941 194.12C181.061 195.187 181.634 196.493 181.661 198.04C181.661 199.48 181.207 200.693 180.301 201.68C179.421 202.667 178.367 203.36 177.141 203.76C175.914 204.133 174.567 204.32 173.101 204.32C170.087 204.32 167.154 203.4 164.301 201.56V196.88C165.261 197.707 166.581 198.48 168.261 199.2C169.941 199.92 171.554 200.28 173.101 200.28C174.141 200.28 175.034 200.08 175.781 199.68C176.554 199.253 176.941 198.693 176.941 198C176.941 197.28 176.501 196.693 175.621 196.24C174.741 195.76 173.367 195.333 171.501 194.96C168.887 194.427 166.954 193.693 165.701 192.76C164.474 191.8 163.861 190.493 163.861 188.84Z"/></svg>