<svg xmlns="http://www.w3.org/2000/svg" width="157" height="207" fill="none" viewBox="0 0 157 207"><path fill="#000" d="M58.3113 193V169.36H51.2713V165H62.9113V193H58.3113ZM66.8275 183.6V179.48H81.3475V183.6H66.8275ZM87.8791 167.04C89.7191 165.44 91.9457 164.64 94.5591 164.64C97.0924 164.64 99.2657 165.4 101.079 166.92C102.919 168.44 103.839 170.573 103.839 173.32C103.839 175.587 102.652 177.973 100.279 180.48L92.6391 188.56H104.039L103.999 193H85.5191V189.8L96.9591 177.68C98.4257 176.053 99.1857 174.64 99.2391 173.44C99.2391 173.36 99.2391 173.28 99.2391 173.2C99.2391 171.973 98.7991 170.933 97.9191 170.08C97.0657 169.227 95.9457 168.8 94.5591 168.8C93.1457 168.8 91.9724 169.267 91.0391 170.2C90.1324 171.133 89.6524 172.28 89.5991 173.64H84.9991C85.0791 170.84 86.0391 168.64 87.8791 167.04Z"/><path fill="#000" d="M31.8744 82.2497V66.478L41.1469 62.2204C51.4266 74.4518 55.2691 106.312 80.1563 106.312C82.767 106.312 85.2708 107.349 87.1168 109.195C88.9629 111.041 90 113.545 90 116.156C90 118.767 88.9629 121.271 87.1168 123.117C85.2708 124.963 82.767 126 80.1563 126C42.7781 126 15.0029 104.401 6.47227 89.0246L12.985 82.2497H31.8744ZM8.83125 59.6838C3.17813 49.1646 6.12071 40.6511 9.38321 36.5236C9.50766 36.3693 9.66335 36.243 9.84004 36.153C10.0167 36.0631 10.2105 36.0115 10.4085 36.0017C10.6065 35.9919 10.8044 36.0241 10.9891 36.0962C11.1738 36.1683 11.3412 36.2786 11.4803 36.4199L15.5057 40.463C15.7367 40.6979 15.8788 41.0059 15.9073 41.3341C15.9359 41.6623 15.8492 41.9902 15.6621 42.2614C14.4563 44.0825 12.665 48.4315 15.9082 54.9744C19.0769 53.5891 22.4976 52.8734 25.9559 52.872C30.8777 52.872 35.4481 54.3732 39.375 56.843L26.2494 62.8708V76.6245H10.5891L0.977348 86.6234C0.404305 84.4049 7.62939e-06 82.1179 7.62939e-06 79.7131C-0.003479 75.9437 0.780243 72.215 2.30098 68.766C3.82172 65.3169 6.04595 62.2235 8.83125 59.6838Z"/><path fill="#000" d="M71.4998 89.9969C79.227 96.9149 131.066 66.242 138.742 53.3217C142.426 47.1159 138.077 38.0107 130.963 30.7366C139.049 25.3956 146.162 42.0292 152.917 38.5193C155.987 36.8916 157.983 31.8557 156.499 28.7528C153.838 23.2592 144.985 23.2592 138.998 22.5979C143.245 21.5805 153.429 17.2568 153.633 11.1528C153.838 6.47299 147.851 1.13193 143.143 1.69147C136.951 2.40361 134.699 11.2545 132.601 16.9516C132.345 13.3401 131.577 5.40478 127.586 1.94581C122.264 -2.68311 115.867 1.69147 115.714 7.28686C115.509 14.0522 130.145 17.8164 125.539 25.9551C117.761 20.0037 108.601 16.7482 102.716 20.1563C100.208 21.7331 97.3424 24.7852 94.3744 28.7528C98.9288 33.5343 105.223 39.2823 110.187 42.5887C111.21 43.3008 111.517 44.7251 110.75 45.7425C110.033 46.8107 108.601 47.065 107.577 46.3529C102.511 42.9448 96.3189 37.2985 91.7133 32.5679C89.4105 35.976 87.0566 39.8419 84.8561 43.9113C89.2058 48.2858 94.7326 53.2199 99.1335 56.1702C100.157 56.8824 100.413 58.3067 99.6964 59.324C98.98 60.3922 97.5471 60.6466 96.4725 59.9344C92.1227 56.9841 86.9542 52.4061 82.6045 48.1332C73.5467 65.8859 66.8942 85.9276 71.4998 89.9969Z"/></svg>