<svg xmlns="http://www.w3.org/2000/svg" width="189" height="211" fill="none" viewBox="0 0 189 211"><path fill="#000" d="M54.608 74.1913L50.6134 82.3713L41.6762 83.6872C40.0734 83.922 39.4311 85.9176 40.5934 87.0605L47.0593 93.4241L45.53 102.413C45.2547 104.038 46.9492 105.255 48.3684 104.495L56.3636 100.251L64.3589 104.495C65.7781 105.249 67.4725 104.038 67.1973 102.413L65.668 93.4241L72.1339 87.0605C73.2962 85.9176 72.6538 83.922 71.0511 83.6872L62.1138 82.3713L58.1193 74.1913C57.4036 72.7333 55.3298 72.7147 54.608 74.1913Z"/><path fill="#000" d="M107.205 0.910763L103.743 7.68038L95.9978 8.76945C94.6088 8.96375 94.0521 10.6152 95.0594 11.5612L100.663 16.8275L99.3378 24.267C99.0993 25.6117 100.568 26.6189 101.798 25.99L108.727 22.4774L115.656 25.99C116.886 26.6138 118.355 25.6117 118.116 24.267L116.791 16.8275L122.395 11.5612C123.402 10.6152 122.845 8.96375 121.456 8.76945L113.71 7.68038L110.249 0.910763C109.628 -0.295906 107.831 -0.311245 107.205 0.910763Z"/><path fill="#000" d="M110.633 51.7375L105.041 63.3023L92.5284 65.1628C90.2846 65.4947 89.3853 68.316 91.0125 69.9319L100.065 78.9287L97.9238 91.6377C97.5384 93.9349 99.9107 95.6557 101.898 94.5813L113.091 88.5806L124.284 94.5813C126.271 95.6469 128.643 93.9349 128.258 91.6377L126.117 78.9287L135.169 69.9319C136.796 68.316 135.897 65.4947 133.653 65.1628L121.141 63.3023L115.549 51.7375C114.547 49.6761 111.644 49.6499 110.633 51.7375Z"/><path fill="#000" d="M63.7647 54.545C69.4122 54.545 74.5702 51.9425 77.9875 47.678C78.493 47.0471 77.9418 46.1255 77.1605 46.2762C68.2772 47.9898 60.1194 41.091 60.1194 32.0082C60.1194 26.7762 62.8846 21.9651 67.3788 19.3746C68.0715 18.9753 67.8973 17.9114 67.1101 17.7642C66.0066 17.5581 64.8868 17.4543 63.7647 17.4541C53.6578 17.4541 45.4548 25.7496 45.4548 35.9996C45.4548 46.2364 53.645 54.545 63.7647 54.545Z"/><path fill="#000" d="M12.9166 169H20.5166V187.76H24.1566V191.76H20.5166V197H15.9166V191.76H1.83656V188.36L12.9166 169ZM15.9166 187.76L15.8766 172.2L6.87656 187.76H15.9166ZM27.39 187.6V183.48H41.91V187.6H27.39ZM48.5588 172.6C50.5321 169.96 53.1721 168.64 56.4788 168.64C58.9321 168.64 61.0654 169.373 62.8788 170.84C64.6921 172.307 65.8921 174.24 66.4788 176.64H61.7588C61.4388 175.6 60.7854 174.707 59.7988 173.96C58.8388 173.187 57.7054 172.8 56.3988 172.8C54.3721 172.8 52.7854 173.68 51.6388 175.44C50.4921 177.173 49.9188 179.213 49.9188 181.56L49.9588 182.56C50.5454 181.333 51.4654 180.32 52.7188 179.52C53.9721 178.72 55.4521 178.32 57.1588 178.32C57.2121 178.32 57.2654 178.32 57.3188 178.32C60.0388 178.347 62.2654 179.28 63.9988 181.12C65.7588 182.933 66.6388 185.093 66.6388 187.6C66.6388 190.32 65.7321 192.627 63.9187 194.52C62.1321 196.387 59.7054 197.32 56.6388 197.32C53.2788 197.32 50.5854 196.08 48.5588 193.6C46.5588 191.12 45.5588 187.64 45.5588 183.16C45.5588 178.76 46.5588 175.24 48.5588 172.6ZM52.3988 191.56C53.4654 192.627 54.7854 193.16 56.3588 193.16C57.9588 193.16 59.2921 192.64 60.3588 191.6C61.4254 190.56 61.9588 189.253 61.9588 187.68C61.9588 186.107 61.4121 184.787 60.3188 183.72C59.2521 182.653 57.9321 182.12 56.3588 182.12C54.7854 182.12 53.4521 182.653 52.3588 183.72C51.2921 184.76 50.7588 186.08 50.7588 187.68C50.7588 189.227 51.3054 190.52 52.3988 191.56ZM81.3884 169H85.9884V178.6C87.6418 176.493 89.8551 175.44 92.6284 175.44C95.0551 175.44 97.1351 176.227 98.8684 177.8C100.628 179.347 101.508 181.413 101.508 184V197H96.9084V185.24C96.9084 183.56 96.4018 182.227 95.3884 181.24C94.3751 180.227 93.1484 179.72 91.7084 179.72C90.0284 179.72 88.6551 180.333 87.5884 181.56C86.5218 182.76 85.9884 184.267 85.9884 186.08V197H81.3884V169ZM107.967 178.64C110.101 176.507 112.674 175.44 115.687 175.44C118.701 175.44 121.261 176.52 123.367 178.68C125.501 180.813 126.567 183.373 126.567 186.36C126.567 189.373 125.501 191.96 123.367 194.12C121.234 196.253 118.674 197.32 115.687 197.32C112.674 197.32 110.101 196.253 107.967 194.12C105.834 191.96 104.767 189.373 104.767 186.36C104.767 183.347 105.834 180.773 107.967 178.64ZM109.087 186.36C109.087 188.2 109.727 189.787 111.007 191.12C112.287 192.453 113.847 193.12 115.687 193.12C117.501 193.12 119.047 192.453 120.327 191.12C121.607 189.787 122.247 188.2 122.247 186.36C122.247 184.52 121.607 182.947 120.327 181.64C119.074 180.307 117.527 179.64 115.687 179.64C113.847 179.64 112.287 180.307 111.007 181.64C109.727 182.947 109.087 184.52 109.087 186.36ZM129.781 175.8H134.381V187.52C134.381 189.2 134.875 190.547 135.861 191.56C136.875 192.573 138.115 193.08 139.581 193.08C141.261 193.08 142.621 192.48 143.661 191.28C144.728 190.053 145.261 188.52 145.261 186.68V175.8H149.861V197H145.261V194.2C143.635 196.307 141.435 197.36 138.661 197.36C136.235 197.36 134.141 196.587 132.381 195.04C130.648 193.467 129.781 191.387 129.781 188.8V175.8ZM154.276 175.8H158.876V179.28C159.543 177.947 160.45 177 161.596 176.44C162.77 175.853 163.97 175.56 165.196 175.56C165.783 175.56 166.396 175.613 167.036 175.72V180.64C166.21 180.373 165.423 180.24 164.676 180.24C163.476 180.24 162.21 180.68 160.876 181.56C159.543 182.44 158.876 184 158.876 186.24V197H154.276V175.8ZM169.732 181.84C169.732 179.84 170.545 178.28 172.172 177.16C173.799 176.013 175.879 175.44 178.412 175.44C181.425 175.44 184.159 176.173 186.612 177.64V182.08C183.519 180.293 180.785 179.4 178.412 179.4C177.239 179.4 176.279 179.627 175.532 180.08C174.812 180.507 174.452 181.08 174.452 181.8C174.452 182.04 174.492 182.267 174.572 182.48C174.679 182.667 174.839 182.84 175.052 183C175.292 183.16 175.519 183.293 175.732 183.4C175.972 183.507 176.305 183.627 176.732 183.76C177.159 183.867 177.519 183.96 177.812 184.04C178.105 184.093 178.532 184.187 179.092 184.32C179.679 184.453 180.145 184.56 180.492 184.64C182.945 185.227 184.719 186.053 185.812 187.12C186.932 188.187 187.505 189.493 187.532 191.04C187.532 192.48 187.079 193.693 186.172 194.68C185.292 195.667 184.239 196.36 183.012 196.76C181.785 197.133 180.439 197.32 178.972 197.32C175.959 197.32 173.025 196.4 170.172 194.56V189.88C171.132 190.707 172.452 191.48 174.132 192.2C175.812 192.92 177.425 193.28 178.972 193.28C180.012 193.28 180.905 193.08 181.652 192.68C182.425 192.253 182.812 191.693 182.812 191C182.812 190.28 182.372 189.693 181.492 189.24C180.612 188.76 179.239 188.333 177.372 187.96C174.759 187.427 172.825 186.693 171.572 185.76C170.345 184.8 169.732 183.493 169.732 181.84Z"/></svg>