<svg xmlns="http://www.w3.org/2000/svg" width="222" height="218" fill="none" viewBox="0 0 222 218"><path stroke="#000" stroke-miterlimit="10" stroke-width="8" d="M116.225 4H105.785H68L85.9009 130H107.774H114.236H136.104L154 4H116.225Z"/><path fill="#000" d="M77 56.9999C77 56.9999 98.5305 45.977 111.554 60.9927C113.727 63.5704 116.047 65.6147 118.462 67.0815C123.406 69.9498 135.201 72.1625 143 65.5L134.938 128H86.7638L77 56.9999Z"/><path fill="#000" d="M6.51922 195.32C6.59922 196.733 7.13255 197.893 8.11922 198.8C9.10589 199.707 10.3459 200.16 11.8392 200.16C13.4126 200.16 14.6659 199.72 15.5992 198.84C16.5592 197.96 17.0392 196.84 17.0392 195.48C17.0392 193.587 16.3592 192.253 14.9992 191.48C13.6392 190.707 12.2526 190.32 10.8392 190.32C10.0392 190.32 9.18589 190.413 8.27922 190.6L6.63922 188.48L15.3592 180.36H2.55922V176H20.9192L20.9592 181.08L14.0392 187.36C16.2526 187.6 18.0659 188.4 19.4792 189.76C20.9192 191.12 21.6392 192.973 21.6392 195.32C21.6392 198.173 20.6659 200.387 18.7192 201.96C16.7726 203.533 14.4792 204.32 11.8392 204.32C9.14589 204.32 6.82589 203.453 4.87922 201.72C2.93255 199.96 1.91922 197.827 1.83922 195.32H6.51922ZM25.1205 194.6V190.48H39.6405V194.6H25.1205ZM47.932 195.32C48.1187 196.76 48.732 197.907 49.772 198.76C50.8387 199.587 52.0787 200 53.492 200C55.092 200 56.3854 199.467 57.372 198.4C58.3854 197.307 58.9054 195.987 58.932 194.44C58.932 194.36 58.932 194.28 58.932 194.2C58.932 192.68 58.412 191.4 57.372 190.36C56.332 189.293 54.972 188.76 53.292 188.76C52.3054 188.76 51.3587 188.96 50.452 189.36C49.572 189.76 48.8787 190.293 48.372 190.96H43.772L44.172 176H62.452L62.492 180.36H48.572L48.412 187.2C49.932 185.653 51.8787 184.88 54.252 184.88C54.2787 184.88 54.3187 184.88 54.372 184.88C57.0387 184.907 59.2254 185.853 60.932 187.72C62.6654 189.56 63.532 191.773 63.532 194.36C63.532 194.44 63.532 194.52 63.532 194.6C63.532 197.347 62.6254 199.653 60.812 201.52C59.0254 203.387 56.7187 204.32 53.892 204.32C53.7587 204.32 53.6387 204.32 53.532 204.32C50.9454 204.32 48.6654 203.533 46.692 201.96C44.7454 200.387 43.5987 198.173 43.252 195.32H47.932ZM77.6177 193.08C77.6177 190.013 78.6177 187.48 80.6177 185.48C82.6177 183.453 85.0577 182.44 87.9377 182.44C88.0177 182.44 88.0977 182.44 88.1777 182.44C91.031 182.467 93.2977 183.52 94.9777 185.6V182.8H99.5777V202.4C99.5777 205.76 98.5643 208.4 96.5377 210.32C94.5377 212.24 92.0577 213.2 89.0977 213.2C86.6443 213.2 84.431 212.52 82.4577 211.16C80.4843 209.8 79.191 207.813 78.5777 205.2H83.1777C83.631 206.48 84.4043 207.413 85.4977 208C86.6177 208.613 87.8043 208.92 89.0577 208.92C90.791 208.92 92.2043 208.387 93.2977 207.32C94.391 206.253 94.951 204.64 94.9777 202.48V200.76C93.3243 202.733 91.0577 203.72 88.1777 203.72C85.1377 203.72 82.6177 202.707 80.6177 200.68C78.6177 198.627 77.6177 196.093 77.6177 193.08ZM81.8977 193.08C81.8977 194.92 82.551 196.467 83.8577 197.72C85.1643 198.973 86.7377 199.6 88.5777 199.6C90.4177 199.6 91.991 198.973 93.2977 197.72C94.631 196.44 95.2977 194.893 95.2977 193.08C95.2977 191.267 94.6443 189.733 93.3377 188.48C92.031 187.2 90.4443 186.56 88.5777 186.56C86.711 186.56 85.1243 187.187 83.8177 188.44C82.5377 189.693 81.8977 191.24 81.8977 193.08ZM103.884 204V176H108.484V204H103.884ZM115.268 185.64C117.321 183.507 119.815 182.44 122.748 182.44C125.601 182.44 127.868 183.507 129.548 185.64V182.8H134.148V204H129.548V201.16C127.868 203.267 125.601 204.32 122.748 204.32C119.841 204.32 117.348 203.253 115.268 201.12C113.215 198.96 112.188 196.387 112.188 193.4C112.188 190.36 113.215 187.773 115.268 185.64ZM116.468 193.4C116.468 195.267 117.108 196.867 118.388 198.2C119.695 199.507 121.281 200.16 123.148 200.16C124.988 200.16 126.561 199.493 127.868 198.16C129.201 196.827 129.868 195.24 129.868 193.4C129.868 191.56 129.201 189.973 127.868 188.64C126.561 187.28 124.988 186.6 123.148 186.6C121.281 186.6 119.695 187.267 118.388 188.6C117.108 189.933 116.468 191.533 116.468 193.4ZM137.97 188.84C137.97 186.84 138.783 185.28 140.41 184.16C142.037 183.013 144.117 182.44 146.65 182.44C149.663 182.44 152.397 183.173 154.85 184.64V189.08C151.757 187.293 149.023 186.4 146.65 186.4C145.477 186.4 144.517 186.627 143.77 187.08C143.05 187.507 142.69 188.08 142.69 188.8C142.69 189.04 142.73 189.267 142.81 189.48C142.917 189.667 143.077 189.84 143.29 190C143.53 190.16 143.757 190.293 143.97 190.4C144.21 190.507 144.543 190.627 144.97 190.76C145.397 190.867 145.757 190.96 146.05 191.04C146.343 191.093 146.77 191.187 147.33 191.32C147.917 191.453 148.383 191.56 148.73 191.64C151.183 192.227 152.957 193.053 154.05 194.12C155.17 195.187 155.743 196.493 155.77 198.04C155.77 199.48 155.317 200.693 154.41 201.68C153.53 202.667 152.477 203.36 151.25 203.76C150.023 204.133 148.677 204.32 147.21 204.32C144.197 204.32 141.263 203.4 138.41 201.56V196.88C139.37 197.707 140.69 198.48 142.37 199.2C144.05 199.92 145.663 200.28 147.21 200.28C148.25 200.28 149.143 200.08 149.89 199.68C150.663 199.253 151.05 198.693 151.05 198C151.05 197.28 150.61 196.693 149.73 196.24C148.85 195.76 147.477 195.333 145.61 194.96C142.997 194.427 141.063 193.693 139.81 192.76C138.583 191.8 137.97 190.493 137.97 188.84ZM158.322 188.84C158.322 186.84 159.135 185.28 160.762 184.16C162.388 183.013 164.468 182.44 167.002 182.44C170.015 182.44 172.748 183.173 175.202 184.64V189.08C172.108 187.293 169.375 186.4 167.002 186.4C165.828 186.4 164.868 186.627 164.122 187.08C163.402 187.507 163.042 188.08 163.042 188.8C163.042 189.04 163.082 189.267 163.162 189.48C163.268 189.667 163.428 189.84 163.642 190C163.882 190.16 164.108 190.293 164.322 190.4C164.562 190.507 164.895 190.627 165.322 190.76C165.748 190.867 166.108 190.96 166.402 191.04C166.695 191.093 167.122 191.187 167.682 191.32C168.268 191.453 168.735 191.56 169.082 191.64C171.535 192.227 173.308 193.053 174.402 194.12C175.522 195.187 176.095 196.493 176.122 198.04C176.122 199.48 175.668 200.693 174.762 201.68C173.882 202.667 172.828 203.36 171.602 203.76C170.375 204.133 169.028 204.32 167.562 204.32C164.548 204.32 161.615 203.4 158.762 201.56V196.88C159.722 197.707 161.042 198.48 162.722 199.2C164.402 199.92 166.015 200.28 167.562 200.28C168.602 200.28 169.495 200.08 170.242 199.68C171.015 199.253 171.402 198.693 171.402 198C171.402 197.28 170.962 196.693 170.082 196.24C169.202 195.76 167.828 195.333 165.962 194.96C163.348 194.427 161.415 193.693 160.162 192.76C158.935 191.8 158.322 190.493 158.322 188.84ZM181.638 185.64C183.771 183.507 186.331 182.44 189.318 182.44C191.985 182.44 194.305 183.307 196.278 185.04C198.278 186.747 199.505 188.893 199.958 191.48C200.118 192.12 200.198 192.76 200.198 193.4C200.198 193.96 200.131 194.52 199.998 195.08H182.958C183.225 196.653 183.945 197.907 185.118 198.84C186.318 199.773 187.718 200.24 189.318 200.24C191.771 200.24 193.731 199.36 195.198 197.6L199.278 198.68C198.425 200.387 197.051 201.76 195.158 202.8C193.291 203.813 191.345 204.32 189.318 204.32C186.251 204.32 183.665 203.253 181.558 201.12C179.478 198.987 178.438 196.413 178.438 193.4C178.438 190.36 179.505 187.773 181.638 185.64ZM182.958 191.56H195.518C195.251 190.147 194.545 188.96 193.398 188C192.278 187.013 190.905 186.52 189.278 186.52C187.651 186.52 186.265 187.013 185.118 188C183.971 188.96 183.251 190.147 182.958 191.56ZM203.009 188.84C203.009 186.84 203.823 185.28 205.449 184.16C207.076 183.013 209.156 182.44 211.689 182.44C214.703 182.44 217.436 183.173 219.889 184.64V189.08C216.796 187.293 214.063 186.4 211.689 186.4C210.516 186.4 209.556 186.627 208.809 187.08C208.089 187.507 207.729 188.08 207.729 188.8C207.729 189.04 207.769 189.267 207.849 189.48C207.956 189.667 208.116 189.84 208.329 190C208.569 190.16 208.796 190.293 209.009 190.4C209.249 190.507 209.583 190.627 210.009 190.76C210.436 190.867 210.796 190.96 211.089 191.04C211.383 191.093 211.809 191.187 212.369 191.32C212.956 191.453 213.423 191.56 213.769 191.64C216.223 192.227 217.996 193.053 219.089 194.12C220.209 195.187 220.783 196.493 220.809 198.04C220.809 199.48 220.356 200.693 219.449 201.68C218.569 202.667 217.516 203.36 216.289 203.76C215.063 204.133 213.716 204.32 212.249 204.32C209.236 204.32 206.303 203.4 203.449 201.56V196.88C204.409 197.707 205.729 198.48 207.409 199.2C209.089 199.92 210.703 200.28 212.249 200.28C213.289 200.28 214.183 200.08 214.929 199.68C215.703 199.253 216.089 198.693 216.089 198C216.089 197.28 215.649 196.693 214.769 196.24C213.889 195.76 212.516 195.333 210.649 194.96C208.036 194.427 206.103 193.693 204.849 192.76C203.623 191.8 203.009 190.493 203.009 188.84Z"/></svg>