<svg xmlns="http://www.w3.org/2000/svg" width="180" height="241" fill="none" viewBox="0 0 180 241"><path fill="#000" d="M176.966 94.8466C173.915 91.7953 169.779 91.029 167.044 92.6223C159.261 97.156 143.096 85.6092 124.621 104.084C106.146 122.559 117.693 138.724 113.159 146.507C111.566 149.243 112.332 153.378 115.383 156.429C118.435 159.481 122.57 160.247 125.305 158.653C133.088 154.12 149.254 165.667 167.728 147.192C186.203 128.717 174.657 112.552 179.19 104.769C180.784 102.033 180.017 97.898 176.966 94.8466ZM144.573 104.434C136.885 106.356 126.893 116.346 124.971 124.037C124.731 124.997 123.868 125.639 122.921 125.639C122.752 125.639 122.579 125.618 122.407 125.575C121.274 125.292 120.586 124.144 120.869 123.011C123.171 113.803 134.325 102.638 143.548 100.332C144.681 100.049 145.828 100.738 146.111 101.87C146.394 103.003 145.706 104.151 144.573 104.434Z"/><path fill="#000" d="M32.0884 93.6734V77.7958L41.4231 73.5096C51.7717 85.8231 55.6401 117.897 80.6942 117.897C83.3224 117.897 85.843 118.941 87.7015 120.799C89.5599 122.658 90.604 125.179 90.604 127.807C90.604 130.435 89.5599 132.956 87.7015 134.815C85.843 136.673 83.3224 137.717 80.6942 137.717C43.0653 137.717 15.1037 115.973 6.51577 100.494L13.0722 93.6734H32.0884ZM8.89058 70.956C3.19952 60.3662 6.16184 51.7956 9.44624 47.6404C9.57152 47.485 9.72825 47.3579 9.90614 47.2673C10.084 47.1768 10.279 47.1249 10.4784 47.115C10.6778 47.1051 10.877 47.1376 11.0629 47.2101C11.2489 47.2827 11.4174 47.3937 11.5574 47.536L15.6098 51.6063C15.8424 51.8427 15.9854 52.1527 16.0141 52.4831C16.0429 52.8136 15.9556 53.1437 15.7673 53.4167C14.5533 55.2501 12.7501 59.6282 16.015 66.215C19.205 64.8205 22.6486 64.0999 26.1301 64.0985C31.085 64.0985 35.686 65.6098 39.6393 68.0962L26.4256 74.1644V88.0104H10.6602L0.983971 98.0764C0.407082 95.843 6.86646e-05 93.5407 6.86646e-05 91.1197C-0.00344086 87.325 0.785538 83.5713 2.31648 80.0991C3.84742 76.6269 6.08659 73.5128 8.89058 70.956Z"/><path fill="#000" d="M92.1451 91.9947C100.085 99.0662 153.351 67.7124 161.239 54.5053C165.025 48.1618 160.555 38.8544 153.246 31.4189C161.554 25.9593 168.863 42.9621 175.804 39.3744C178.959 37.7105 181.01 32.5629 179.485 29.3911C176.751 23.7755 167.654 23.7755 161.502 23.0995C165.866 22.0596 176.33 17.6399 176.54 11.4003C176.751 6.61668 170.599 1.15706 165.761 1.72902C159.398 2.45697 157.085 11.5043 154.929 17.3279C154.666 13.6362 153.877 5.52475 149.776 1.989C144.307 -2.74267 137.734 1.72902 137.577 7.44862C137.366 14.3641 152.405 18.2119 147.673 26.5313C139.68 20.4477 130.268 17.1199 124.221 20.6037C121.644 22.2156 118.699 25.3354 115.65 29.3911C120.329 34.2787 126.797 40.1543 131.898 43.5341C132.949 44.2621 133.265 45.718 132.476 46.7579C131.74 47.8498 130.268 48.1098 129.216 47.3818C124.01 43.8981 117.648 38.1265 112.915 33.2908C110.549 36.7746 108.13 40.7263 105.869 44.886C110.339 49.3577 116.018 54.4013 120.54 57.4171C121.591 58.1451 121.854 59.601 121.118 60.6409C120.382 61.7328 118.91 61.9928 117.806 61.2649C113.336 58.2491 108.025 53.5694 103.556 49.2017C94.2484 67.3484 87.4127 87.835 92.1451 91.9947Z"/><path fill="#000" d="M53.6481 217.783C53.7281 219.196 54.2615 220.356 55.2481 221.263C56.2348 222.17 57.4748 222.623 58.9681 222.623C60.5415 222.623 61.7948 222.183 62.7281 221.303C63.6881 220.423 64.1681 219.303 64.1681 217.943C64.1681 216.05 63.4881 214.716 62.1281 213.943C60.7681 213.17 59.3815 212.783 57.9681 212.783C57.1681 212.783 56.3148 212.876 55.4081 213.063L53.7681 210.943L62.4881 202.823H49.6881V198.463H68.0481L68.0881 203.543L61.1681 209.823C63.3815 210.063 65.1948 210.863 66.6081 212.223C68.0481 213.583 68.7681 215.436 68.7681 217.783C68.7681 220.636 67.7948 222.85 65.8481 224.423C63.9015 225.996 61.6081 226.783 58.9681 226.783C56.2748 226.783 53.9548 225.916 52.0081 224.183C50.0615 222.423 49.0481 220.29 48.9681 217.783H53.6481ZM72.2494 217.063V212.943H86.7694V217.063H72.2494ZM101.838 198.463H109.438V217.223H113.078V221.223H109.438V226.463H104.838V221.223H90.7584V217.823L101.838 198.463ZM104.838 217.223L104.798 201.663L95.7984 217.223H104.838Z"/></svg>