<svg xmlns="http://www.w3.org/2000/svg" width="150" height="219" fill="none" viewBox="0 0 150 219"><path fill="#000" d="M12.9037 177L24.2638 201.28V177H28.9038V205H20.9838L9.42375 180.2V205H4.78375V177H12.9037ZM36.0872 186.64C38.2205 184.507 40.7805 183.44 43.7672 183.44C46.4339 183.44 48.7539 184.307 50.7272 186.04C52.7272 187.747 53.9539 189.893 54.4072 192.48C54.5672 193.12 54.6472 193.76 54.6472 194.4C54.6472 194.96 54.5805 195.52 54.4472 196.08H37.4072C37.6739 197.653 38.3939 198.907 39.5672 199.84C40.7672 200.773 42.1672 201.24 43.7672 201.24C46.2205 201.24 48.1805 200.36 49.6472 198.6L53.7272 199.68C52.8739 201.387 51.5005 202.76 49.6072 203.8C47.7405 204.813 45.7939 205.32 43.7672 205.32C40.7005 205.32 38.1139 204.253 36.0072 202.12C33.9272 199.987 32.8872 197.413 32.8872 194.4C32.8872 191.36 33.9539 188.773 36.0872 186.64ZM37.4072 192.56H49.9672C49.7005 191.147 48.9939 189.96 47.8472 189C46.7272 188.013 45.3539 187.52 43.7272 187.52C42.1005 187.52 40.7139 188.013 39.5672 189C38.4205 189.96 37.7005 191.147 37.4072 192.56ZM57.8984 183.8H62.4984V195.52C62.4984 197.2 62.9918 198.547 63.9784 199.56C64.9918 200.573 66.2318 201.08 67.6984 201.08C69.3784 201.08 70.7384 200.48 71.7784 199.28C72.8451 198.053 73.3784 196.52 73.3784 194.68V183.8H77.9784V205H73.3784V202.2C71.7518 204.307 69.5518 205.36 66.7784 205.36C64.3518 205.36 62.2584 204.587 60.4984 203.04C58.7651 201.467 57.8984 199.387 57.8984 196.8V183.8ZM81.4334 187.8V183.8H85.4334V178.72L89.9534 177.4V183.8H96.4734V187.8H89.9534V198.12C89.9534 199.427 90.3268 200.24 91.0734 200.56C91.8468 200.88 92.5401 201.04 93.1534 201.04C94.1134 201.04 95.2734 200.827 96.6334 200.4V204.84C95.1934 205.24 93.8734 205.44 92.6734 205.44C91.1001 205.44 89.5001 204.987 87.8734 204.08C86.2468 203.147 85.4334 201.173 85.4334 198.16V187.8H81.4334ZM100.167 183.8H104.767V187.28C105.434 185.947 106.34 185 107.487 184.44C108.66 183.853 109.86 183.56 111.087 183.56C111.674 183.56 112.287 183.613 112.927 183.72V188.64C112.1 188.373 111.314 188.24 110.567 188.24C109.367 188.24 108.1 188.68 106.767 189.56C105.434 190.44 104.767 192 104.767 194.24V205H100.167V183.8ZM117.53 186.64C119.583 184.507 122.076 183.44 125.01 183.44C127.863 183.44 130.13 184.507 131.81 186.64V183.8H136.41V205H131.81V202.16C130.13 204.267 127.863 205.32 125.01 205.32C122.103 205.32 119.61 204.253 117.53 202.12C115.476 199.96 114.45 197.387 114.45 194.4C114.45 191.36 115.476 188.773 117.53 186.64ZM118.73 194.4C118.73 196.267 119.37 197.867 120.65 199.2C121.956 200.507 123.543 201.16 125.41 201.16C127.25 201.16 128.823 200.493 130.13 199.16C131.463 197.827 132.13 196.24 132.13 194.4C132.13 192.56 131.463 190.973 130.13 189.64C128.823 188.28 127.25 187.6 125.41 187.6C123.543 187.6 121.956 188.267 120.65 189.6C119.37 190.933 118.73 192.533 118.73 194.4ZM140.872 205V177H145.472V205H140.872Z"/><g clip-path="url(#clip0_149_842)"><path fill="#000" d="M19.5 110C14.3283 110 9.36838 107.946 5.71142 104.289C2.05446 100.632 0 95.6717 0 90.5V54.5C0 49.3283 2.05446 44.3684 5.71142 40.7114C9.36838 37.0545 14.3283 35 19.5 35H119.6C124.772 35 129.732 37.0545 133.389 40.7114C137.046 44.3684 139.1 49.3283 139.1 54.5V90.5C139.1 95.6717 137.046 100.632 133.389 104.289C129.732 107.946 124.772 110 119.6 110H19.5ZM6.925 54.5V90.5C6.925 97.4375 12.55 103.063 19.4875 103.063H119.6C122.927 103.056 126.116 101.729 128.467 99.3742C130.817 97.019 132.138 93.8275 132.138 90.5V54.5C132.134 51.1703 130.81 47.9779 128.457 45.6228C126.103 43.2678 122.911 41.9425 119.581 41.9375H19.4875C12.55 41.9375 6.925 47.5625 6.91875 54.5H6.925ZM23.6625 94.5C22.5868 94.5 21.5216 94.288 20.5278 93.8762C19.5341 93.4643 18.6312 92.8607 17.8709 92.0997C17.1105 91.3388 16.5075 90.4355 16.0964 89.4414C15.6853 88.4473 15.4742 87.382 15.475 86.3063V58.6625C15.4742 57.5868 15.6853 56.5214 16.0964 55.5274C16.5075 54.5333 17.1105 53.63 17.8709 52.869C18.6312 52.1081 19.5341 51.5044 20.5278 51.0926C21.5216 50.6807 22.5868 50.4688 23.6625 50.4688H61.35C65.875 50.4688 69.5375 54.1375 69.5375 58.6563V86.3313C69.5359 88.5028 68.6729 90.585 67.138 92.1211C65.6031 93.6572 63.5215 94.5217 61.35 94.525L23.6625 94.5ZM141.606 60.6875C146.537 62.4375 150.006 67.0625 150.006 72.4938C150.006 77.925 146.537 82.55 141.694 84.275L141.606 84.3V60.6875Z"/></g><defs><clipPath id="clip0_149_842"><rect width="150" height="150" fill="#fff"/></clipPath></defs></svg>