<svg xmlns="http://www.w3.org/2000/svg" width="210" height="259" fill="none" viewBox="0 0 210 259"><path fill="#000" d="M0.768906 252.54V248.46C1.75557 248.593 2.60891 248.66 3.32891 248.66C4.36891 248.66 5.20891 248.46 5.84891 248.06C6.48891 247.687 6.80891 246.767 6.80891 245.3V223.18H11.4089V245.06C11.4089 248.26 10.6622 250.353 9.16891 251.34C7.70224 252.353 5.99557 252.86 4.04891 252.86C3.06224 252.86 1.96891 252.753 0.768906 252.54ZM6.08891 217.58C6.08891 216.753 6.38224 216.06 6.96891 215.5C7.55557 214.913 8.26224 214.62 9.08891 214.62C9.91557 214.62 10.6089 214.913 11.1689 215.5C11.7556 216.06 12.0489 216.753 12.0489 217.58C12.0489 218.407 11.7689 219.1 11.2089 219.66C10.6222 220.247 9.91557 220.54 9.08891 220.54C8.26224 220.54 7.55557 220.26 6.96891 219.7C6.38224 219.113 6.08891 218.407 6.08891 217.58ZM15.6602 223.18H20.2602V234.9C20.2602 236.58 20.7535 237.927 21.7402 238.94C22.7535 239.953 23.9935 240.46 25.4602 240.46C27.1402 240.46 28.5002 239.86 29.5402 238.66C30.6068 237.433 31.1402 235.9 31.1402 234.06V223.18H35.7402V244.38H31.1402V241.58C29.5135 243.687 27.3135 244.74 24.5402 244.74C22.1135 244.74 20.0202 243.967 18.2602 242.42C16.5268 240.847 15.6602 238.767 15.6602 236.18V223.18ZM39.5952 229.22C39.5952 227.22 40.4085 225.66 42.0352 224.54C43.6618 223.393 45.7418 222.82 48.2752 222.82C51.2885 222.82 54.0218 223.553 56.4752 225.02V229.46C53.3818 227.673 50.6485 226.78 48.2752 226.78C47.1018 226.78 46.1418 227.007 45.3952 227.46C44.6752 227.887 44.3152 228.46 44.3152 229.18C44.3152 229.42 44.3552 229.647 44.4352 229.86C44.5418 230.047 44.7018 230.22 44.9152 230.38C45.1552 230.54 45.3818 230.673 45.5952 230.78C45.8352 230.887 46.1685 231.007 46.5952 231.14C47.0218 231.247 47.3818 231.34 47.6752 231.42C47.9685 231.473 48.3952 231.567 48.9552 231.7C49.5418 231.833 50.0085 231.94 50.3552 232.02C52.8085 232.607 54.5818 233.433 55.6752 234.5C56.7952 235.567 57.3685 236.873 57.3952 238.42C57.3952 239.86 56.9418 241.073 56.0352 242.06C55.1552 243.047 54.1018 243.74 52.8752 244.14C51.6485 244.513 50.3018 244.7 48.8352 244.7C45.8218 244.7 42.8885 243.78 40.0352 241.94V237.26C40.9952 238.087 42.3152 238.86 43.9952 239.58C45.6752 240.3 47.2885 240.66 48.8352 240.66C49.8752 240.66 50.7685 240.46 51.5152 240.06C52.2885 239.633 52.6752 239.073 52.6752 238.38C52.6752 237.66 52.2352 237.073 51.3552 236.62C50.4752 236.14 49.1018 235.713 47.2352 235.34C44.6218 234.807 42.6885 234.073 41.4352 233.14C40.2085 232.18 39.5952 230.873 39.5952 229.22ZM59.1561 227.18V223.18H63.1561V218.1L67.6761 216.78V223.18H74.1961V227.18H67.6761V237.5C67.6761 238.807 68.0494 239.62 68.7961 239.94C69.5694 240.26 70.2628 240.42 70.8761 240.42C71.8361 240.42 72.9961 240.207 74.3561 239.78V244.22C72.9161 244.62 71.5961 244.82 70.3961 244.82C68.8228 244.82 67.2228 244.367 65.5961 243.46C63.9694 242.527 63.1561 240.553 63.1561 237.54V227.18H59.1561ZM88.9861 216.38H93.5861V226.06C95.3194 223.927 97.5994 222.847 100.426 222.82C100.453 222.82 100.493 222.82 100.546 222.82C103.453 222.82 105.919 223.887 107.946 226.02C109.973 228.127 110.986 230.713 110.986 233.78C110.986 236.82 109.986 239.407 107.986 241.54C105.986 243.647 103.466 244.7 100.426 244.7C97.5994 244.7 95.3194 243.66 93.5861 241.58V244.38H88.9861V216.38ZM95.3061 238.54C96.6128 239.873 98.1861 240.54 100.026 240.54C101.866 240.54 103.426 239.873 104.706 238.54C106.013 237.207 106.666 235.62 106.666 233.78C106.666 231.94 106.013 230.353 104.706 229.02C103.426 227.66 101.866 226.98 100.026 226.98C98.1861 226.98 96.5994 227.66 95.2661 229.02C93.9594 230.353 93.3061 231.94 93.3061 233.78C93.3061 235.62 93.9728 237.207 95.3061 238.54ZM116.698 226.02C118.751 223.887 121.244 222.82 124.178 222.82C127.031 222.82 129.298 223.887 130.978 226.02V223.18H135.578V244.38H130.978V241.54C129.298 243.647 127.031 244.7 124.178 244.7C121.271 244.7 118.778 243.633 116.698 241.5C114.644 239.34 113.618 236.767 113.618 233.78C113.618 230.74 114.644 228.153 116.698 226.02ZM117.898 233.78C117.898 235.647 118.538 237.247 119.818 238.58C121.124 239.887 122.711 240.54 124.578 240.54C126.418 240.54 127.991 239.873 129.298 238.54C130.631 237.207 131.298 235.62 131.298 233.78C131.298 231.94 130.631 230.353 129.298 229.02C127.991 227.66 126.418 226.98 124.578 226.98C122.711 226.98 121.124 227.647 119.818 228.98C118.538 230.313 117.898 231.913 117.898 233.78ZM139.96 223.18H144.56V226.66C145.227 225.327 146.133 224.38 147.28 223.82C148.453 223.233 149.653 222.94 150.88 222.94C151.467 222.94 152.08 222.993 152.72 223.1V228.02C151.893 227.753 151.107 227.62 150.36 227.62C149.16 227.62 147.893 228.06 146.56 228.94C145.227 229.82 144.56 231.38 144.56 233.62V244.38H139.96V223.18ZM157.443 226.02C159.576 223.887 162.136 222.82 165.123 222.82C167.789 222.82 170.109 223.687 172.083 225.42C174.083 227.127 175.309 229.273 175.763 231.86C175.923 232.5 176.003 233.14 176.003 233.78C176.003 234.34 175.936 234.9 175.803 235.46H158.763C159.029 237.033 159.749 238.287 160.923 239.22C162.123 240.153 163.523 240.62 165.123 240.62C167.576 240.62 169.536 239.74 171.003 237.98L175.083 239.06C174.229 240.767 172.856 242.14 170.963 243.18C169.096 244.193 167.149 244.7 165.123 244.7C162.056 244.7 159.469 243.633 157.363 241.5C155.283 239.367 154.243 236.793 154.243 233.78C154.243 230.74 155.309 228.153 157.443 226.02ZM158.763 231.94H171.323C171.056 230.527 170.349 229.34 169.203 228.38C168.083 227.393 166.709 226.9 165.083 226.9C163.456 226.9 162.069 227.393 160.923 228.38C159.776 229.34 159.056 230.527 158.763 231.94ZM179.649 244.38V216.38H184.249V244.38H179.649ZM186.954 223.18H191.874L198.154 238.86L204.154 223.18H209.074L197.194 252.78H192.394L195.794 244.26L186.954 223.18Z"/><path fill="#000" d="M147.344 80.5105C147.423 80.6394 147.52 80.7567 147.632 80.859C148.455 83.7703 149.588 85.6155 150.946 84.4264C149.402 86.4766 151.605 84.0368 150.946 85.5335C151.152 85.1029 151.276 84.7749 151.399 84.4879C151.939 84.8697 152.56 85.1204 153.215 85.2201C153.869 85.3198 154.537 85.2656 155.167 85.0619C155.167 85.6155 155.167 86.2305 155.167 86.9481C155.167 86.9481 155.537 85.677 155.743 84.8979L156.361 84.5699C156.246 85.0121 156.184 85.4663 156.175 85.923C156.484 86.1485 157.267 84.6724 157.802 83.3603C158.859 82.2382 159.505 80.7933 159.634 79.2599C159.675 78.1649 159.634 77.0684 159.511 75.9796C159.515 76.0107 159.529 76.0396 159.551 76.0619C159.574 76.0841 159.603 76.0984 159.634 76.1026C160.602 76.2871 160.005 75.2005 159.737 75.4876C159.625 75.6324 159.548 75.8007 159.511 75.9796C159.511 75.4055 159.428 74.8315 159.263 74.2574C159.531 72.9453 159.675 72.0022 159.408 72.0227C159.334 72.4799 159.231 72.9319 159.099 73.3759C158.996 72.9658 158.913 72.5763 158.831 72.1867C159.002 70.6752 158.715 69.1473 158.008 67.7993C158.008 67.7993 158.008 67.7993 157.699 67.9634H157.493C157.501 67.8815 157.501 67.7991 157.493 67.7173C157.655 67.6765 157.825 67.6765 157.987 67.7173C157.803 67.4729 157.563 67.2761 157.287 67.1433C157.081 66.5692 156.855 66.0157 156.649 65.4621L157.081 65.6466C157.018 65.4994 156.963 65.3489 156.917 65.1956C156.361 64.273 155.661 63.2684 155.764 63.3914C157.349 63.781 151.996 59.9061 149.588 62.6739C149.752 62.4278 149.896 62.1818 150.082 61.9563C150.267 61.7308 149.814 62.2023 149.546 62.7149C149.354 62.9488 149.188 63.2032 149.052 63.4734C149.184 63.2538 149.329 63.0416 149.485 62.8379C148.538 64.7241 146.788 68.8654 146.335 67.1638C146.162 68.676 146.162 70.2029 146.335 71.7152C146.273 71.8819 146.225 72.0533 146.191 72.2277C145.576 75.0374 145.984 77.9733 147.344 80.5105ZM148.888 83.0733L149.032 83.3603C148.846 83.3398 148.105 83.1553 148.805 83.0733H148.888ZM153.931 80.49C153.815 80.2422 153.732 79.9802 153.684 79.7109C153.883 80.0542 154.141 80.3596 154.446 80.613C154.22 80.8385 154.055 80.859 153.849 80.49H153.931ZM158.049 67.9839C158.605 68.2094 158.543 68.4144 157.864 68.5169C157.864 68.5169 157.864 68.4144 157.864 68.3939C157.868 68.2515 157.903 68.1117 157.966 67.9839H158.049ZM152.058 62.1408C151.934 62.1408 151.811 62.1408 151.708 61.7923C151.605 61.4438 152.202 62.1203 151.976 62.1408H152.058ZM152.82 63.2274C151.95 63.6807 151.164 64.2768 150.493 64.9906C150.733 64.3195 150.932 63.6349 151.09 62.9404C151.461 62.6124 152.017 62.8174 152.737 63.2274H152.82ZM150.082 63.2274C150.308 62.2433 149.855 65.0316 150.082 63.2274V63.2274ZM148.949 66.4872H149.176L149.052 66.6512C148.971 66.6227 148.905 66.5638 148.867 66.4872H148.949Z"/><path fill="#000" d="M74.1567 71.2851C73.9891 72.1706 73.6761 73.0226 73.2302 73.8068C73.0861 73.8068 74.4655 69.2759 72.9626 67.1437H72.8597C72.8597 67.1437 72.8597 67.1437 72.6538 67.2462C71.6039 66.9592 72.6538 66.8771 72.9214 66.9797C72.684 66.6775 72.3815 66.4323 72.0362 66.2621C71.9655 66.4086 71.9036 66.5593 71.8509 66.7131C71.6439 66.0133 71.3894 65.3284 71.0892 64.6629C71.4404 64.7048 71.778 64.8238 72.0774 65.0115C72.0774 64.7859 71.9127 64.3144 71.9744 64.5604L72.0774 64.7039C71.6039 63.7814 70.8833 62.6538 70.9451 62.6538C72.4685 63.0433 67.3835 59.2299 64.9954 62.3872L65.3454 61.8132C65.3454 61.8132 65.1189 62.0387 64.8925 62.5307C64.7414 62.7582 64.6105 62.9983 64.5013 63.2483L64.8101 62.7153C63.966 64.5809 62.4426 68.5173 61.8662 66.9592C61.8662 67.3692 61.5574 68.7223 61.3927 70.3215C61.3927 70.3215 61.2485 70.178 61.1662 70.3215C61.0838 70.465 61.1662 70.752 61.3515 70.834C61.0838 73.6633 61.0015 76.9846 61.9691 77.4561C60.5074 78.0302 61.3515 79.8753 62.7308 81.5565C63.1631 83.0736 63.966 84.0577 65.366 84.1602C66.2306 84.8163 66.8688 85.1238 66.8688 84.6933C66.8809 84.4543 66.8809 84.2148 66.8688 83.9757C67.2636 83.8617 67.649 83.7177 68.0217 83.5452C67.9188 83.9757 67.8158 84.4678 67.7129 85.0008C62.0309 91.5204 68.2893 84.7343 69.3599 82.8071H69.504L69.8334 82.6021L70.0598 82.4381C69.6142 83.0315 69.2603 83.688 69.0099 84.3858C69.4216 85.0008 72.6332 80.7979 72.2421 80.5519H72.1185C72.347 80.3015 72.5097 79.9986 72.592 79.6703C72.6007 80.053 72.663 80.4325 72.7773 80.7979C72.8653 80.5822 72.9 80.3485 72.8785 80.1167C72.857 79.8848 72.7799 79.6614 72.6538 79.4653C72.7861 79.0098 72.8757 78.5431 72.9214 78.0712C72.9214 78.0712 73.0244 77.4971 72.9214 77.2921C72.8185 77.0871 72.9214 76.6361 72.9214 76.267C72.9644 76.1889 72.999 76.1064 73.0244 76.021C73.0244 75.5085 73.1685 75.2829 73.2714 75.3239C74.0537 73.1097 74.6096 71.2851 74.1567 71.2851ZM73.3949 69.5424C72.9832 67.7382 73.8478 69.2554 73.3949 69.5424V69.5424ZM72.8803 67.3897C73.4155 67.6357 73.3332 67.7997 72.6538 67.9022C72.3862 67.9432 72.7979 67.4307 72.8803 67.3897ZM72.4891 69.8909V69.7064C72.6538 69.7064 72.592 69.9114 72.4891 69.8909ZM62.4838 76.0415C62.4838 76.0415 62.4838 76.185 62.4838 76.267C62.4838 76.349 62.1132 76.2055 62.4838 76.0005V76.0415ZM65.5101 76.0415C65.424 75.2253 65.5153 74.4002 65.7777 73.6223C65.6336 74.4834 65.5512 75.3444 65.5101 75.857V76.0415ZM62.5661 75.3649C62.5052 75.3415 62.4493 75.3067 62.4014 75.2624C62.4296 75.2462 62.4615 75.2377 62.4941 75.2377C62.5266 75.2377 62.5585 75.2462 62.5867 75.2624L62.5661 75.3649ZM62.5661 72.5767L62.8132 72.7817C62.9367 72.9662 62.3808 72.6382 62.4838 72.4537L62.5661 72.5767ZM69.9775 62.9408H69.854C69.8951 62.6128 70.0598 62.5717 69.8951 62.8178L69.9775 62.9408ZM67.3629 62.0182C67.26 62.0182 67.1159 62.0182 66.9718 61.7722C66.8276 61.5261 67.4659 61.8132 67.2806 61.8952L67.3629 62.0182ZM67.5276 62.7358C67.0648 63.0619 66.661 63.464 66.3336 63.9249C66.4586 63.603 66.5349 63.2645 66.56 62.9203C66.6777 62.8101 66.8173 62.7258 66.9698 62.6729C67.1223 62.6199 67.2843 62.5994 67.4453 62.6128L67.5276 62.7358ZM62.9367 71.0595C63.2249 71.2441 63.1426 71.2851 62.7308 71.2236L62.9367 71.0595ZM62.9367 71.9821C62.7308 72.1461 62.5044 72.1051 62.2573 71.8591C62.3694 71.807 62.495 71.7908 62.6167 71.8129C62.7384 71.8349 62.8502 71.8941 62.9367 71.9821ZM62.1956 73.3147C62.3808 73.4378 62.0514 73.5198 62.1956 73.3147V73.3147ZM61.9691 78.0507C63.0396 78.3992 61.2074 78.7888 61.9691 78.0507V78.0507ZM62.2367 78.9938H62.3808V79.1578C62.3808 79.1578 62.2161 79.0553 62.2161 78.9938H62.2367ZM71.295 80.7569L71.4186 80.5109H71.5627C71.3993 80.6323 71.2829 80.8061 71.2333 81.003L71.295 80.7569Z"/><path fill="#000" d="M133.138 117.086C133.201 117.193 133.294 117.279 133.406 117.332C135.135 118.808 136.906 117.578 136.062 112.35C134.127 100.398 122.742 93.8987 111.172 95.6823C105.206 96.5878 99.683 99.3593 95.4024 103.596C92.8866 106.039 91.1104 109.136 90.2762 112.535C89.8516 113.188 89.4798 113.873 89.1645 114.585C89.1645 114.585 89.3497 114.585 89.5762 114.811L89.4321 115.2C89.3134 115.046 89.21 114.882 89.1233 114.708C88.4233 116.471 88.691 117.722 90.6056 117.906C90.0634 117.898 89.5318 118.056 89.0821 118.357C90.4409 118.357 90.5644 118.562 89.4527 118.808C91.7584 118.152 92.6643 119.014 93.776 117.701C93.9116 116.619 94.1599 115.554 94.5171 114.524C95.8853 112.024 97.5512 109.697 99.4786 107.594C100.714 107.204 102.258 106.856 102.299 106.343C102.34 105.831 101.352 106.343 100.981 106.118C101.331 105.79 101.681 105.462 102.052 105.175C102.196 105.769 104.111 105.277 105.758 104.703C101.476 109.337 111.934 101.361 110.102 101.382C112.798 101.382 114.425 103.678 118.089 102.427C121.116 102.653 117.348 101.423 117.41 101.566C118.192 100.582 119.119 100.951 119.469 100.787L120.148 100.931C119.972 101.46 119.933 102.024 120.034 102.573C120.134 103.121 120.372 103.635 120.724 104.068C122.124 105.441 124.286 104.17 124.718 104.826C124.965 105.113 128.053 107.819 129.7 109.091L130.009 109.829C130.058 110.046 130.141 110.253 130.256 110.444C130.31 110.583 130.351 110.728 130.38 110.874C129.947 111.076 129.534 111.316 129.145 111.592C129.33 111.776 130.03 111.592 130.545 111.428C130.545 111.735 130.73 112.022 130.792 112.35C130.945 113.046 131.145 113.731 131.389 114.401C130.792 115.077 132.48 118.685 132.706 119.157V116.717L133.138 117.086ZM91.0585 117.086C91.0585 117.23 91.1614 117.353 91.2026 117.476H90.9761C90.9761 117.476 91.0173 117.209 91.0585 117.045V117.086ZM105.037 103.883C104.646 104.047 104.872 102.796 105.037 103.883V103.883ZM105.531 103.33C105.467 103.271 105.422 103.195 105.4 103.112C105.378 103.028 105.381 102.94 105.408 102.858C105.655 103.022 105.696 103.207 105.531 103.289V103.33ZM111.419 100.91C111.419 100.91 111.254 100.808 111.172 100.644H111.378C111.46 100.705 111.522 100.869 111.419 100.869V100.91ZM114.981 101.628C114.981 101.628 114.981 99.8852 114.981 101.628V101.628ZM116.586 101.628C116.751 101.095 116.875 101.095 116.936 101.628H116.586ZM121.054 101.177H121.26C121.26 101.3 121.095 101.669 121.26 101.587C121.269 101.45 121.269 101.313 121.26 101.177C121.279 101.313 121.279 101.451 121.26 101.587C120.333 102.612 120.766 101.607 121.054 101.218V101.177ZM121.527 101.341L122.021 101.505C121.967 101.694 121.898 101.879 121.816 102.058C121.651 102.509 121.466 101.546 121.527 101.382V101.341ZM122.31 103.391C122.31 103.391 122.31 103.391 122.474 103.514C120.766 103.248 121.733 103.207 122.31 103.514V103.391ZM122.701 101.73L123.36 102.058C123.104 102.065 122.853 101.993 122.639 101.853L122.701 101.73ZM123.401 103.781C123.401 103.781 123.401 103.637 123.401 103.781C123.565 103.125 123.874 103.904 123.401 103.801V103.781ZM131.944 116.082C131.944 116.082 131.944 115.897 132.109 115.733L132.418 116.266C132.315 117.066 132.15 117.291 131.944 116.02V116.082Z"/><path fill="#000" d="M125.089 106.404C124.595 107.101 126.057 106.548 126.077 106.404C126.022 106.324 125.949 106.258 125.863 106.213C125.777 106.167 125.681 106.144 125.583 106.144C125.486 106.144 125.39 106.167 125.303 106.213C125.217 106.258 125.144 106.324 125.089 106.404Z"/><path fill="#000" d="M121.651 105.728C121.198 106.774 123.154 105.441 123.113 105.462C123.071 105.482 121.939 105.093 121.651 105.728Z"/><path fill="#000" d="M115.516 103.699C115.392 105.749 117.328 103.145 117.286 103.186C117.245 103.227 115.537 102.961 115.516 103.699Z"/><path fill="#000" d="M186.088 60.8086C181.964 44.6832 173.418 30.0178 161.405 18.4517C154.88 12.1623 147.188 7.19747 138.759 3.83386C134.53 2.17281 130.111 1.03666 125.604 0.451042C122.511 0.0654587 119.39 -0.0443208 116.278 0.123011C114.219 1.1276 114.219 2.1732 116.278 3.2598H116.998C119.448 4.10038 132.727 10.9685 133.735 8.36477C138.512 9.02084 139.109 12.3011 145.388 12.5062C145.532 12.5062 145.594 12.5062 145.635 12.5062C147.735 13.6816 149.752 14.9322 151.687 16.258C148.785 18.1647 154.281 19.6203 157.534 20.7479L159.366 22.4086C158.889 22.7354 158.369 22.9974 157.822 23.1876C158.728 25.0738 163.299 27.288 166.057 29.4407C166.798 30.3223 167.498 31.2244 168.116 32.147C168.147 32.3164 168.147 32.4901 168.116 32.6595C167.231 34.9352 170.648 37.539 171.945 38.5231C172.748 38.3386 175.63 53.92 179.789 54.371C180.098 55.3346 180.406 56.2982 180.695 57.2618C180.115 58.9346 179.974 60.7268 180.283 62.4693C181.539 61.9567 181.724 62.3258 182.197 62.6538C182.197 62.8383 182.197 63.0228 182.342 63.2279C179.83 64.2735 182.342 67.8818 181.848 70.301C182.383 69.85 182.918 69.3989 183.433 68.9274C183.577 69.7475 183.68 70.5675 183.783 71.3876C183.2 71.034 182.53 70.8494 181.848 70.8546C182.095 72.8022 182.28 74.7294 182.383 76.6771C183.206 76.1851 183.865 76.1646 184.441 76.6771V77.5382C183.775 77.7727 183.049 77.7727 182.383 77.5382C180.962 82.5406 181.559 84.1398 184.153 82.2946C184.296 82.3251 184.443 82.3251 184.586 82.2946C184.586 83.1557 184.586 83.9963 184.586 84.8369C183.982 84.4775 183.356 84.1557 182.712 83.8733C182.712 85.6569 181.477 90.8029 184.359 90.0238C184.369 90.0918 184.369 90.1609 184.359 90.2289C183.71 90.7689 183.297 91.5378 183.205 92.3748C183.113 93.2117 183.349 94.0517 183.865 94.7188C183.659 96.1539 183.412 97.548 183.124 98.9627C181.436 99.4957 180.036 100.418 181.498 102.92C181.731 102.608 182.034 102.356 182.383 102.181C181.868 104.232 181.25 106.282 180.551 108.332C179.023 110.484 177.719 112.785 176.66 115.2L177.545 115.631L177.092 116.574C176.042 118.624 174.93 120.674 173.716 122.724C173.469 122.868 173.242 123.032 172.974 123.155C173.111 123.167 173.249 123.167 173.386 123.155C172.769 124.139 172.089 125.205 171.327 126.087C171.177 125.73 170.984 125.392 170.751 125.082C168.583 128.922 165.802 132.384 162.516 135.333C162.612 135.606 162.681 135.887 162.722 136.174C161.857 137.035 160.972 137.855 160.066 138.654C160.337 138.082 160.524 137.475 160.622 136.85C155.688 141.139 150.205 144.758 144.317 147.614C144.564 148.075 144.861 148.508 145.202 148.905L143.267 149.91C143.288 149.616 143.288 149.322 143.267 149.028C143.243 149.392 143.13 149.744 142.938 150.053C141.977 150.518 141.01 150.969 140.035 151.407C137.462 151.817 134.106 151.755 132.85 154.215C132.088 154.482 131.327 154.748 130.565 154.974C130.462 154.523 130.339 154.051 130.194 153.6C128.692 154.01 124.842 155.117 124.471 155.343C124.716 155.765 125.072 156.113 125.501 156.347L123.957 156.737C121.711 156.26 119.404 156.142 117.122 156.388C118.13 156.594 118.439 157.086 118.13 157.803C114.88 158.299 111.599 158.566 108.31 158.603C107.96 157.455 107.384 156.922 104.193 156.881C104.569 157.365 104.791 157.951 104.831 158.562C102.113 158.439 99.4049 158.158 96.7199 157.721C96.4317 156.286 86.8792 154.174 85.8293 155.015L83.9353 154.338C83.4701 153.575 82.7361 153.013 81.8766 152.76C79.8179 151.878 79.8179 152.473 78.8709 152.227L76.6886 151.161C74.2626 149.538 71.747 148.053 69.1538 146.712L68.7008 146.384C67.8568 143.616 64.7893 142.283 61.5777 140.787C56.8208 136.529 52.6036 131.71 49.0196 126.435C49.4931 126.435 49.9254 126.64 50.1519 127.747C52.0459 126.784 50.646 126.271 48.7725 126.046C48.1137 125.082 47.4755 123.995 46.8785 123.093C47.428 123.278 47.948 123.54 48.4226 123.872C47.7715 122.872 46.9156 122.02 45.9109 121.371C39.2128 109.75 35.3551 96.7215 34.6498 83.3402C35.3292 82.7457 35.6791 82.0486 34.6498 81.5361C34.5157 78.4247 34.5983 75.3077 34.8968 72.2077C35.1645 69.727 35.4733 67.3077 35.7203 65.8111C37.6344 52.9299 43.2874 40.8867 51.9841 31.1629C54.0363 28.8915 56.3123 26.831 58.7779 25.0123C58.5609 24.9495 58.3478 24.8742 58.1397 24.7868L58.8396 24.1307C59.6631 24.1307 60.6719 23.5772 62.7718 22.0805C66.2098 19.5178 70.1008 18.8002 69.1538 16.668L70.3684 15.9095L70.5537 16.4015C72.6759 15.3257 74.689 14.0487 76.5651 12.5882C78.6238 11.6041 80.6825 10.661 82.9265 9.82041C84.4294 9.22585 85.9734 8.6723 87.5174 8.13925C94.4965 6.29408 101.62 6.08906 108.207 3.2803C109.134 2.84976 108.784 2.41922 107.837 2.02969C109.443 1.41463 110.287 0.902084 108.969 0.881582C107.281 0.881582 105.634 0.881582 103.987 0.881582C101.736 0.448615 99.4603 0.154197 97.1728 0C95.0874 0.0651781 93.0334 0.524363 91.1202 1.35313H93.8171C93.3199 1.78164 92.7476 2.11524 92.129 2.33722H91.7996C91.6113 2.38282 91.4145 2.38043 91.2274 2.33026C91.0403 2.2801 90.8689 2.18377 90.729 2.05019C90.6371 1.93796 90.5609 1.81381 90.5026 1.68116C89.6151 2.15833 88.7682 2.70687 87.9704 3.32131C84.736 4.14105 81.5644 5.1893 78.4797 6.4581C78.3996 6.23258 78.3996 5.98655 78.4797 5.76103C76.5651 6.60161 67.0539 11.4606 67.4656 11.7476C67.9185 11.6041 68.3714 11.4196 68.845 11.235L68.2891 11.5631C63.2247 13.9618 55.1134 18.1852 54.4546 21.035L55.3192 21.7115L54.8869 22.1421C54.6979 21.8481 54.5327 21.5396 54.3928 21.2195C50.5842 28.3541 40.5377 35.7553 36.1732 46.0268C34.691 49.2046 28.1031 65.9751 30.5324 68.7839C30.673 68.019 30.9446 67.2839 31.3353 66.6107C31.0882 70.219 31.0059 75.98 31.0265 81.454C31.0265 82.0691 31.0265 82.6842 31.0265 83.2992C31.0265 89.3473 31.2323 94.6573 31.4176 95.7849C31.6457 95.6494 31.8595 95.4915 32.0558 95.3133C33.4236 104.124 36.204 112.659 40.2907 120.592C41.5053 126.128 48.6902 134.144 50.5842 136.44C53.6248 139.622 56.2152 143.202 58.2838 147.081C59.3337 149.131 63.7394 148.946 65.1805 150.094C64.1995 149.322 63.2646 148.494 62.3806 147.614C62.5578 147.746 62.762 147.839 62.9789 147.885C63.1958 147.931 63.4202 147.929 63.6364 147.88C64.2746 148.372 64.954 148.844 65.6951 149.295C67.4656 151.899 73.93 154.646 74.9799 155.445C75.4787 155.858 76.0588 156.163 76.6827 156.339C77.3067 156.516 77.9609 156.561 78.6032 156.471C81.944 157.893 85.3843 159.072 88.8968 159.997C89.4526 160.53 90.0085 160.755 90.4408 160.386C101.178 162.783 112.288 163.022 123.119 161.089C133.95 159.156 144.286 155.091 153.52 149.131C183.618 130.064 194.9 94.5958 186.088 60.8086ZM174.786 44.5916L175.404 43.7921L175.774 44.5301C175.444 44.511 175.112 44.5316 174.786 44.5916ZM167.931 130.577L167.539 131.048L167.931 130.577ZM148.99 146.63H149.196H148.99ZM62.0306 147.183C61.8427 146.933 61.7095 146.647 61.6395 146.343C61.7349 146.628 61.8448 146.909 61.9689 147.183H62.0306Z"/></svg>