<svg width="113" height="200" viewBox="0 0 113 200" fill="none" xmlns="http://www.w3.org/2000/svg">
<path d="M1.94803 117.688C11.9845 126.735 79.3153 86.6241 89.2853 69.7284C94.0709 61.6131 88.4212 49.7062 79.1823 40.1941C89.6841 33.2096 98.923 54.9612 107.697 50.3714C111.685 48.2428 114.277 41.6575 112.349 37.5998C108.893 30.4158 97.3942 30.4158 89.6176 29.5511C95.1344 28.2207 108.361 22.5666 108.627 14.5844C108.893 8.46468 101.116 1.48022 95.0014 2.21192C86.9589 3.14318 84.0344 14.7174 81.3093 22.1675C80.9769 17.4447 79.9799 7.06779 74.7955 2.54452C67.883 -3.50868 59.5747 2.21192 59.3753 9.52898C59.1094 18.376 78.1189 23.2983 72.1369 33.9413C62.0339 26.1586 50.1364 21.9014 42.4927 26.3582C39.2359 28.4203 35.5137 32.4114 31.6586 37.5998C37.5742 43.8526 45.7496 51.3692 52.1969 55.6929C53.5262 56.6242 53.925 58.4867 52.928 59.8171C51.9975 61.214 50.1364 61.5466 48.8071 60.6153C42.2269 56.1586 34.1844 48.775 28.2024 42.5887C25.2114 47.0455 22.1539 52.1009 19.2958 57.4224C24.9455 63.143 32.1239 69.5953 37.84 73.4534C39.1694 74.3847 39.5017 76.2472 38.5712 77.5776C37.6407 78.9744 35.7796 79.3071 34.3838 78.3758C28.7341 74.5177 22.021 68.531 16.3713 62.9435C4.6067 86.1585 -4.03398 112.367 1.94803 117.688Z" fill="black"/>
<path d="M29.7075 161.56C31.7342 158.947 34.4808 157.64 37.9475 157.64C41.4675 157.64 44.2408 158.947 46.2675 161.56C48.2942 164.173 49.3075 167.653 49.3075 172C49.3075 176.32 48.2808 179.787 46.2275 182.4C44.2008 185.013 41.4408 186.32 37.9475 186.32C34.4275 186.32 31.6675 185.027 29.6675 182.44C27.6675 179.853 26.6675 176.387 26.6675 172.04C26.6675 167.667 27.6808 164.173 29.7075 161.56ZM33.1075 179.16C34.3075 180.973 35.9208 181.88 37.9475 181.88C40.0275 181.88 41.6675 180.96 42.8675 179.12C44.0942 177.28 44.7075 174.907 44.7075 172C44.7075 169.067 44.0942 166.68 42.8675 164.84C41.6408 163 40.0008 162.08 37.9475 162.08C35.8675 162.08 34.2275 163 33.0275 164.84C31.8542 166.68 31.2675 169.08 31.2675 172.04C31.2675 175 31.8808 177.373 33.1075 179.16Z" fill="black"/>
</svg>
