<svg xmlns="http://www.w3.org/2000/svg" width="161" height="257" fill="none" viewBox="0 0 161 257"><path fill="#000" d="M19.9819 227.783C19.9819 225.783 20.7952 224.223 22.4219 223.103C24.0485 221.957 26.1285 221.383 28.6619 221.383C31.6752 221.383 34.4085 222.117 36.8619 223.583V228.023C33.7685 226.237 31.0352 225.343 28.6619 225.343C27.4885 225.343 26.5285 225.57 25.7819 226.023C25.0619 226.45 24.7019 227.023 24.7019 227.743C24.7019 227.983 24.7419 228.21 24.8219 228.423C24.9285 228.61 25.0885 228.783 25.3019 228.943C25.5419 229.103 25.7685 229.237 25.9819 229.343C26.2219 229.45 26.5552 229.57 26.9819 229.703C27.4085 229.81 27.7685 229.903 28.0619 229.983C28.3552 230.037 28.7819 230.13 29.3419 230.263C29.9285 230.397 30.3952 230.503 30.7419 230.583C33.1952 231.17 34.9685 231.997 36.0619 233.063C37.1819 234.13 37.7552 235.437 37.7819 236.983C37.7819 238.423 37.3285 239.637 36.4219 240.623C35.5419 241.61 34.4885 242.303 33.2619 242.703C32.0352 243.077 30.6885 243.263 29.2219 243.263C26.2085 243.263 23.2752 242.343 20.4219 240.503V235.823C21.3819 236.65 22.7019 237.423 24.3819 238.143C26.0619 238.863 27.6752 239.223 29.2219 239.223C30.2619 239.223 31.1552 239.023 31.9019 238.623C32.6752 238.197 33.0619 237.637 33.0619 236.943C33.0619 236.223 32.6219 235.637 31.7419 235.183C30.8619 234.703 29.4885 234.277 27.6219 233.903C25.0085 233.37 23.0752 232.637 21.8219 231.703C20.5952 230.743 19.9819 229.437 19.9819 227.783ZM43.1781 224.583C45.3115 222.45 47.8848 221.383 50.8981 221.383C53.9115 221.383 56.4715 222.463 58.5781 224.623C60.7115 226.757 61.7781 229.317 61.7781 232.303C61.7781 235.317 60.7115 237.903 58.5781 240.063C56.4448 242.197 53.8848 243.263 50.8981 243.263C47.8848 243.263 45.3115 242.197 43.1781 240.063C41.0448 237.903 39.9781 235.317 39.9781 232.303C39.9781 229.29 41.0448 226.717 43.1781 224.583ZM44.2981 232.303C44.2981 234.143 44.9381 235.73 46.2181 237.063C47.4981 238.397 49.0581 239.063 50.8981 239.063C52.7115 239.063 54.2581 238.397 55.5381 237.063C56.8181 235.73 57.4581 234.143 57.4581 232.303C57.4581 230.463 56.8181 228.89 55.5381 227.583C54.2848 226.25 52.7381 225.583 50.8981 225.583C49.0581 225.583 47.4981 226.25 46.2181 227.583C44.9381 228.89 44.2981 230.463 44.2981 232.303ZM64.9169 221.743H69.5169V225.223C70.1835 223.89 71.0902 222.943 72.2369 222.383C73.4102 221.797 74.6102 221.503 75.8369 221.503C76.4235 221.503 77.0369 221.557 77.6769 221.663V226.583C76.8502 226.317 76.0635 226.183 75.3169 226.183C74.1169 226.183 72.8502 226.623 71.5169 227.503C70.1835 228.383 69.5169 229.943 69.5169 232.183V242.943H64.9169V221.743ZM79.9725 225.743V221.743H83.9725V216.663L88.4925 215.343V221.743H95.0125V225.743H88.4925V236.063C88.4925 237.37 88.8658 238.183 89.6125 238.503C90.3858 238.823 91.0792 238.983 91.6925 238.983C92.6525 238.983 93.8125 238.77 95.1725 238.343V242.783C93.7325 243.183 92.4125 243.383 91.2125 243.383C89.6392 243.383 88.0392 242.93 86.4125 242.023C84.7858 241.09 83.9725 239.117 83.9725 236.103V225.743H79.9725ZM112.163 224.583C114.296 222.45 116.869 221.383 119.883 221.383C122.896 221.383 125.456 222.463 127.562 224.623C129.696 226.757 130.763 229.317 130.763 232.303C130.763 235.317 129.696 237.903 127.562 240.063C125.429 242.197 122.869 243.263 119.883 243.263C116.869 243.263 114.296 242.197 112.163 240.063C110.029 237.903 108.963 235.317 108.963 232.303C108.963 229.29 110.029 226.717 112.163 224.583ZM113.283 232.303C113.283 234.143 113.923 235.73 115.203 237.063C116.483 238.397 118.043 239.063 119.883 239.063C121.696 239.063 123.243 238.397 124.523 237.063C125.803 235.73 126.443 234.143 126.443 232.303C126.443 230.463 125.803 228.89 124.523 227.583C123.269 226.25 121.723 225.583 119.883 225.583C118.043 225.583 116.483 226.25 115.203 227.583C113.923 228.89 113.283 230.463 113.283 232.303ZM132.391 225.743V221.743H136.351V220.943C136.351 218.97 136.911 217.41 138.031 216.263C139.177 215.117 140.244 214.517 141.231 214.463C142.244 214.383 142.924 214.343 143.271 214.343C144.631 214.343 146.057 214.517 147.551 214.863V218.343C146.404 218.077 145.551 217.93 144.991 217.903C144.431 217.85 144.097 217.823 143.991 217.823C143.111 217.823 142.351 218.077 141.711 218.583C141.071 219.09 140.751 219.89 140.751 220.983V221.743H147.191V225.743H140.951L140.991 242.943H136.431L136.351 225.743H132.391Z"/><path fill="#000" d="M115.085 74.4351C115.248 75.6155 115.472 76.7959 115.716 77.9152C115.758 77.9458 115.793 77.9854 115.818 78.0312C115.842 78.077 115.856 78.1278 115.859 78.1798C116.089 79.5834 116.5 80.9514 117.08 82.2501H117.202L117.324 82.535H117.202C117.67 83.4101 118.159 83.9189 118.688 83.8375L118.83 84.0003C118.342 84.6108 118.83 84.3056 119.014 84.1835L119.217 84.3666C119.193 84.4713 119.159 84.5735 119.115 84.6719C119.146 84.5756 119.194 84.4859 119.258 84.4073C119.593 84.6953 119.962 84.9413 120.357 85.14C120.345 85.3162 120.345 85.4929 120.357 85.6691L120.601 85.2214C121.097 85.402 121.621 85.4917 122.148 85.4859C126.341 85.4859 127.868 82.7385 127.949 79.0345C130.371 76.226 128.763 68.8588 124.652 66.03C124.369 65.4311 124.057 64.8469 123.715 64.2797C123.899 64.2797 123.715 63.8727 123.186 63.4453C122.944 63.0838 122.672 62.7434 122.372 62.4278C122.134 62.1462 121.842 61.915 121.513 61.7479C121.184 61.5808 120.825 61.481 120.458 61.4544C120.09 61.4279 119.72 61.4751 119.371 61.5933C119.022 61.7116 118.699 61.8984 118.423 62.1428V61.8783C118.243 62.0515 118.073 62.235 117.914 62.4278C116.592 63.7858 115.56 65.3993 114.882 67.1696C114.473 68.0156 114.179 68.9122 114.007 69.8357C113.969 71.4356 114.34 73.0188 115.085 74.4351ZM121.843 78.5054C122.32 78.252 122.742 77.9061 123.084 77.4878C122.94 78.201 122.686 78.8876 122.331 79.523C122.198 79.1443 122.034 78.7769 121.843 78.424V78.5054Z"/><path fill="#000" d="M144.314 30.6394C137.377 21.4509 128.057 14.3356 117.365 10.0641C114.434 8.84299 88.1366 -0.254101 87.0986 3.2667C87.0986 3.49056 88.4623 4.12146 90.6198 4.95587C90.4773 4.95587 90.3959 4.95587 90.3756 4.95587C90.3552 4.95587 90.5791 5.30184 90.9455 5.50535C90.0258 5.10937 89.0361 4.90176 88.0349 4.89481C88.5641 4.75235 103.382 14.3379 104.746 11.5294C109.325 12.5877 110.526 16.027 116.958 15.5997C117.894 15.5997 116.144 14.5821 114.923 13.9715C117.799 15.3848 120.592 16.9612 123.288 18.6931C121.517 20.3212 125.323 21.3795 128.356 22.2342C129.231 22.9058 130.066 23.6181 130.9 24.2694C130.586 24.4485 130.26 24.605 129.923 24.7375C131.689 26.4848 133.689 27.9779 135.867 29.1741C136.355 29.7032 136.864 30.2323 137.312 30.8022C138.228 31.9012 139.103 33.0612 139.938 34.2619C139.551 36.175 141.973 38.3322 143.235 39.5329C143.398 39.8179 143.581 40.1028 143.744 40.4081C144.415 42.9927 146.98 53.5551 150.054 55.5699C150.562 57.2387 151.031 58.9279 151.438 60.617C151.218 61.7785 151.26 62.9741 151.56 64.1175L152.191 63.8529C152.333 64.5449 152.455 65.2368 152.577 65.888C152.191 67.4755 153.575 69.9583 153.351 71.7493L153.493 71.6068C153.493 71.8307 153.493 72.0749 153.493 72.3191H153.31C153.534 74.5781 153.758 76.1655 153.941 77.2645C153.941 77.7936 153.941 78.3228 153.941 78.8519H153.758C152.537 82.739 152.638 84.4689 154.063 84.1229C154.063 84.4486 154.063 84.7742 154.063 85.0998L153.86 84.9777C153.86 86.8704 153.86 88.5392 153.86 90.0859C153.86 90.8593 153.738 91.653 153.656 92.4263C153.491 95.069 153.164 97.6992 152.679 100.302C151.478 100.791 150.644 101.707 151.641 103.864L151.804 103.681C151.192 105.825 150.472 107.938 149.646 110.01C148.321 111.907 147.163 113.916 146.186 116.014L146.715 116.299C144.909 119.762 142.819 123.07 140.467 126.189C140.383 126.009 140.281 125.839 140.161 125.681C138.838 127.471 137.597 129.446 136.274 131.298C133.758 134.064 131.037 136.635 128.132 138.99C125.568 141.026 123.003 142.878 120.357 144.628C114.046 148.576 107.188 151.573 100.003 153.521C99.9918 153.474 99.9918 153.426 100.003 153.379C98.0474 153.717 96.1111 154.159 94.2021 154.702V154.824C92.5331 155.129 90.8437 155.394 89.134 155.597C88.3615 155.391 87.5707 155.262 86.7729 155.21C87.127 155.272 87.4499 155.451 87.6888 155.719C84.5849 156.028 81.4634 156.123 78.3464 156.004V155.74C76.808 155.636 75.2893 155.335 73.8278 154.844C74.0426 155.1 74.1833 155.41 74.2348 155.74C71.7204 155.526 69.2198 155.173 66.7446 154.681L65.0755 154.274C62.8867 153.38 60.617 152.699 58.2977 152.239C56.6286 151.669 55.0003 151.059 53.372 150.367C52.7003 148.963 51.6215 148.026 50.2375 148.942C40.4115 144.121 31.6799 137.335 24.5832 129.004C17.4865 120.672 12.1758 110.973 8.9799 100.506C8.38964 95.4994 7.65689 90.5133 6.27282 87.9083C5.89609 85.0806 5.68541 82.2333 5.64185 79.3811C5.47273 59.2008 13.235 39.7611 27.2578 25.2462C27.9702 24.6153 28.6826 24.0048 29.456 23.4146H29.2321C29.5578 23.1297 29.8631 22.8041 30.1684 22.5192L30.7383 22.0511C32.357 21.3151 33.848 20.3258 35.1552 19.1205C37.7605 17.0853 40.4676 16.78 39.9383 15.3554L41.0171 14.6839C41.0727 14.7746 41.1204 14.8699 41.1596 14.9688C43.3143 13.9184 45.3597 12.6572 47.2658 11.2038L49.7286 9.98267C49.7286 9.98267 49.7286 10.1251 49.7286 10.2269L51.9065 9.29072L51.703 9.06685L52.4968 8.72088C52.4968 8.72088 52.4968 8.9244 52.4968 9.0465C61.0862 4.93551 70.2455 6.50257 78.7941 3.42951C80.1375 2.90037 78.5703 2.20842 76.2499 1.59788C77.3661 1.49203 78.4871 1.44448 79.6083 1.45542C78.3056 1.45542 77.003 1.45542 75.7207 1.45542C73.2024 0.814292 70.6463 0.331695 68.0676 0.0104681C65.9843 -0.0663057 63.9071 0.279852 61.9614 1.02804L64.7092 1.1298C63.2437 2.20842 62.226 2.37123 61.6561 1.67929C61.5695 1.55055 61.4945 1.41433 61.4322 1.27226C59.6713 2.21615 57.9594 3.24861 56.303 4.36567C54.2676 4.95587 52.2322 5.60711 50.1968 6.40082C49.9932 6.03449 48.8941 6.01414 49.403 4.91516C47.5304 5.64781 37.964 10.2879 38.3507 10.5932C39.6333 10.1392 40.8903 9.61607 42.1162 9.02615C38.6968 10.6746 26.4843 15.9049 25.5074 19.731L26.6879 20.5451L26.0773 21.0946C25.8335 20.7232 25.6289 20.3277 25.4666 19.9142C22.8613 25.2462 19.5233 25.7957 16.3073 31.6773C14.3425 34.2722 12.5476 36.9914 10.9339 39.8179C9.67791 41.3341 8.61794 43.0025 7.77902 44.7836C6.61884 47.4293 1.44892 60.0065 1.50998 65.2368C1.30644 66.2544 1.14361 67.2719 0.980779 68.2692C-1.07432 81.2635 0.111402 94.5641 4.43265 106.99C8.75389 119.416 16.077 130.583 25.7516 139.499C26.9241 140.974 27.979 142.54 28.9065 144.18C29.8428 145.869 32.9773 145.991 34.7481 146.643C43.9452 152.926 54.3381 157.249 65.2791 159.342C111.747 168.398 154.979 138.197 160.495 90.4115C162.823 69.1608 157.044 47.8145 144.314 30.6394ZM42.4826 8.9651H44.2941L43.2153 9.49424L42.4826 8.9651ZM94.5074 6.92996H94.6703H94.5074ZM146.288 46.1879L146.471 45.9233L146.593 46.1675L146.288 46.1879Z"/><path fill="#000" d="M46.8382 72.136C46.7349 72.9923 46.4872 73.825 46.1055 74.5985C45.5152 74.456 47.9984 68.4931 44.4975 67.4348C44.34 67.8247 44.2439 68.2366 44.2126 68.6559C44.0131 68.0321 43.7469 67.4317 43.4188 66.8649C44.5382 68.5134 43.4188 66.173 43.2763 66.0102C43.6438 65.9738 44.0146 66.0298 44.355 66.173C44.3134 66.1021 44.2793 66.0271 44.2533 65.9491C43.773 65.3232 43.242 64.7378 42.6657 64.1989C44.9046 64.0972 39.4701 62.469 36.9665 63.0999C35.8064 64.5856 33.0789 68.5745 32.6515 67.3941C32.5044 68.6107 32.5044 69.8407 32.6515 71.0573C32.6515 70.8742 32.4072 70.6503 32.2648 70.7724C32.1223 70.8945 32.4683 71.444 32.6515 71.2609C32.8008 73.3441 33.0726 75.4168 33.4656 77.4681C32.9364 82.7798 34.2798 87.481 40.7524 85.0795C41.5584 84.728 42.2545 84.1655 42.7674 83.4514C44.4772 82.9426 46.309 81.9657 45.4134 81.4162C45.1955 81.3961 44.9768 81.444 44.7872 81.5534C44.5977 81.6627 44.4467 81.8281 44.355 82.0268C45.0741 80.3436 45.6661 78.6088 46.1258 76.8372C46.1258 76.308 46.2276 76.0638 46.3294 76.1452C46.8382 73.9065 47.225 72.1156 46.8382 72.136ZM45.3524 68.2285C45.3524 68.2285 45.4542 68.2285 45.1488 68.2285C43.7648 68.025 45.8612 67.8825 45.2913 68.2285H45.3524ZM33.5674 73.6827C33.771 73.6827 33.4656 73.8862 33.5674 73.6827V73.6827ZM33.7302 72.8076L34.0152 72.9907C34.2187 73.2757 33.6488 73.0111 33.7302 72.8076ZM40.9356 79.5032C40.8338 79.1776 40.732 78.8723 40.6506 78.5467C40.8975 78.2162 41.1219 77.8694 41.3223 77.5088C41.2999 78.1899 41.1693 78.8631 40.9356 79.5032ZM44.6807 70.0398C44.2329 68.8187 44.6807 69.1647 44.6807 70.0398V70.0398ZM42.8692 65.8474L42.6453 65.6439C42.9506 65.4403 43.032 65.5217 42.8692 65.8474ZM41.6072 64.9112C41.6072 64.9112 42.0143 64.0564 41.6072 64.9112V64.9112ZM39.0426 63.6698C38.9205 63.6698 38.8391 63.5273 38.7984 63.2424C38.9002 63.2424 39.2258 63.7105 39.0426 63.6698ZM36.9055 63.9343C37.6586 62.9778 35.9488 65.5625 36.9055 63.9343V63.9343ZM36.9055 65.8474L37.0072 65.6642V65.8067C37.4754 64.9316 38.0249 63.9954 38.0249 63.9954C38.9642 64.281 39.8713 64.6629 40.732 65.1351C40.239 65.2028 39.7705 65.3916 39.3683 65.6846C38.3506 65.3589 37.3329 65.6846 36.4373 67.0888L36.2745 67.3534C36.478 66.8242 36.6816 66.3358 36.8241 65.9898L36.1931 67.2923C36.3847 66.7929 36.6161 66.3097 36.8851 65.8474H36.9055ZM35.5621 67.0074C35.4196 67.0074 35.3382 67.0074 35.2975 66.7835C35.2568 66.5597 35.6028 66.8446 35.5418 67.0074H35.5621ZM35.5621 67.5569C35.44 67.8622 35.0736 67.1295 35.5621 67.5569V67.5569ZM34.6258 69.9787C34.7276 70.1822 34.8904 69.9787 35.094 69.7345C34.9311 70.2026 34.7479 70.7114 34.5851 71.2405C34.6258 71.2405 34.6258 70.8538 34.6258 69.9787ZM34.4019 71.5051C34.2391 71.7086 34.0966 71.6882 34.0152 71.5051C33.9338 71.3219 34.3205 71.3626 34.4833 71.5051H34.4019ZM33.832 71.5051C34.1373 71.6272 34.0763 71.6882 33.6488 71.6679L33.832 71.5051ZM34.0356 72.3802C33.8524 72.5634 33.6285 72.5634 33.3435 72.3802C33.3889 72.324 33.445 72.2774 33.5084 72.2429C33.5719 72.2084 33.6415 72.1867 33.7134 72.1792C33.7852 72.1716 33.8578 72.1783 33.9271 72.1988C33.9963 72.2193 34.0609 72.2533 34.117 72.2988L34.0356 72.3802ZM36.8851 80.6429V80.1341C37.5122 80.6324 38.1953 81.0559 38.9205 81.3959C38.7377 81.4717 38.5415 81.5102 38.3436 81.5091C38.1457 81.508 37.95 81.4675 37.7679 81.3897C37.5859 81.312 37.4213 81.1987 37.2836 81.0565C37.146 80.9142 37.0382 80.7459 36.9665 80.5615L36.8851 80.6429ZM44.8028 79.259H44.64C44.9729 77.7008 45.1299 76.1102 45.1081 74.5171C45.4949 76.5115 45.7595 78.2821 44.8028 79.259ZM45.2303 68.9611C44.9657 68.9611 45.3524 68.4931 45.4134 68.432C45.9019 68.6559 45.8409 68.839 45.1692 68.9611H45.2303ZM46.0037 70.5282C45.4745 68.778 46.3701 70.2433 45.9427 70.5282H46.0037Z"/><path fill="#000" d="M80.4225 107.446C80.0494 107.629 79.6612 107.778 79.2623 107.894H78.6313C77.0455 107.856 75.4715 107.61 73.9499 107.161C73.9499 108.281 73.3189 108.321 73.8278 107.161C72.7971 107.639 71.7192 108.007 70.6119 108.26C70.6478 108.188 70.6664 108.107 70.6664 108.026C70.6664 107.945 70.6478 107.865 70.6119 107.792C70.6119 107.67 70.2455 108.016 70.1844 108.342L69.0649 108.545C66.5614 108.545 64.3021 108.667 62.5517 108.545C61.5429 108.095 60.4369 107.906 59.3357 107.996C59.2316 107.981 59.1332 107.939 59.0508 107.874C59.0584 107.948 59.0584 108.023 59.0508 108.098C58.787 108.114 58.5243 108.05 58.2977 107.914C57.7278 107.446 55.3463 109.298 55.0817 110.499C55.2041 109.908 55.2041 109.299 55.0817 108.708C54.695 110.295 54.5322 110.438 54.5729 109.135C54.637 110.244 54.3977 111.348 53.8809 112.331C53.8809 112.168 55.4278 114.529 55.0817 114.244C55.0817 114.244 67.2941 114.488 70.9986 114.366H71.6906C66.5207 115.241 62.7349 116.055 63.0605 116.055C66.3782 116.157 95.7694 116.706 97.357 113.877C97.6507 113.668 97.877 113.379 98.0083 113.043C100.227 112.799 102.283 112.514 103.931 112.229C104.196 112.799 104.664 113.491 104.461 112.229H104.705C105.03 112.9 105.519 114.142 105.214 114.264C105.865 113.979 105.6 111.944 105.865 111.944H106.781H107.595C107.64 111.818 107.694 111.695 107.758 111.578C107.776 111.699 107.776 111.823 107.758 111.944C108.348 111.944 108.816 111.944 108.837 111.944C108.674 114.447 113.477 110.051 113.559 109.909C112.604 110.22 111.632 110.478 110.648 110.682C110.872 110.682 111.055 111.028 110.852 111.618C110.852 111.496 109 110.601 108.816 110.357C109.183 109.319 110.709 110.479 111.361 110.214C113.192 109.481 108.185 108.016 106.74 108.403C106.559 108.178 106.362 107.967 106.15 107.772L106.292 107.528C106.193 107.556 106.097 107.597 106.007 107.65C102.242 104.536 95.1384 106.083 90.8234 106.754C90.111 106.856 88.442 107.039 86.2437 107.263C85.7224 107.199 85.1934 107.255 84.6968 107.426L79.9951 107.874C80.28 107.752 80.4428 107.629 80.4225 107.446ZM55.9977 111.517C55.672 111.883 55.5702 111.679 55.7331 110.947C55.672 110.906 56.6694 111.008 55.9163 111.435L55.9977 111.517ZM58.0331 108.973H57.7278C57.8499 108.667 58.5623 107.67 58.0331 108.891V108.973ZM109.814 111.944L109.366 111.15C109.508 110.743 109.732 110.743 109.814 111.944ZM60.9641 112.209C60.9641 112.331 60.6791 113.531 60.9641 112.209V112.209ZM60.9641 110.479C60.211 111.639 60.1499 111.517 60.7402 110.133L60.9641 110.479ZM60.4349 112.046C60.2924 112.147 60.1906 112.717 60.1499 112.046H60.4349ZM59.3968 113.552C60.1705 113.76 60.9603 113.903 61.7579 113.979C60.903 114.162 59.1933 114.529 59.295 113.531L59.3968 113.552ZM62.2464 113.348C62.0835 113.511 62.2464 112.839 62.4906 113.002L62.2464 113.348ZM62.2464 111.903C62.2377 111.795 62.2377 111.686 62.2464 111.578C62.3465 111.67 62.4556 111.752 62.572 111.822L62.2464 111.903Z"/></svg>