<svg xmlns="http://www.w3.org/2000/svg" width="65" height="75" fill="none" viewBox="0 0 65 75"><path fill="#C4C4C4" d="M32.5 37.5C42.7578 37.5 51.0714 29.1064 51.0714 18.75C51.0714 8.39356 42.7578 0 32.5 0C22.2422 0 13.9286 8.39356 13.9286 18.75C13.9286 29.1064 22.2422 37.5 32.5 37.5ZM45.5 42.1875H43.077C39.856 43.6816 36.2723 44.5312 32.5 44.5312C28.7277 44.5312 25.1585 43.6816 21.923 42.1875H19.5C8.73437 42.1875 0 51.0059 0 61.875V67.9688C0 71.8506 3.11942 75 6.96429 75H58.0357C61.8806 75 65 71.8506 65 67.9688V61.875C65 51.0059 56.2656 42.1875 45.5 42.1875Z"/></svg>