<svg xmlns="http://www.w3.org/2000/svg" width="68" height="51" fill="none" viewBox="0 0 68 51"><path fill="#00CC8D" d="M15.4554 30.6613C14.6994 30.6613 13.974 30.5455 13.2519 30.4399C13.4858 31.2303 13.7265 32.0343 14.113 32.7565C14.4994 33.8058 15.1028 34.7154 15.7028 35.6319C16.2045 36.6232 17.0893 37.2944 17.7402 38.1427C18.4215 38.9671 19.3504 39.5156 20.086 40.2004C20.808 40.9158 21.7538 41.2735 22.5064 41.7778C23.2928 42.2309 23.9776 42.7317 24.7098 42.9701L26.537 43.7265L28.1438 44.3976L26.4997 51L24.4759 50.5094C23.8284 50.3459 23.0386 50.1551 22.1403 49.9269C21.2216 49.7565 20.2419 49.2898 19.1504 48.8639C18.0724 48.3802 16.8249 48.0531 15.6655 47.2764C14.4994 46.5337 13.1536 45.9136 11.9672 44.9188C10.818 43.8934 9.4315 43.0042 8.40775 41.6994C7.28908 40.4798 6.18397 39.1988 5.32632 37.7407C4.33308 36.3507 3.65848 34.8245 2.9466 33.3152C2.30252 31.806 1.78386 30.2627 1.36012 28.7637C0.556716 25.7589 0.197385 22.904 0.0583988 20.4613C-0.0568581 18.0152 0.0109401 15.9814 0.153316 14.5096C0.204165 13.8146 0.299083 13.1401 0.366881 12.6734L0.451628 12.101L0.539766 12.1214C1.1427 9.29096 2.53067 6.68986 4.54313 4.61903C6.55558 2.5482 9.11028 1.09226 11.9117 0.41964C14.7131 -0.252979 17.6468 -0.114796 20.3733 0.818207C23.0998 1.75121 25.5078 3.44091 27.3187 5.69183C29.1296 7.94275 30.2694 10.6629 30.6063 13.5377C30.9432 16.4124 30.4633 19.3243 29.2222 21.9364C27.9812 24.5485 26.0296 26.7542 23.5934 28.2982C21.1571 29.8422 18.3356 30.6615 15.4554 30.6613ZM52.7444 30.6613C51.9884 30.6613 51.263 30.5455 50.5409 30.4399C50.7748 31.2303 51.0155 32.0343 51.402 32.7565C51.7884 33.8058 52.3918 34.7154 52.9918 35.6319C53.4935 36.6232 54.3783 37.2944 55.0292 38.1427C55.7105 38.9671 56.6394 39.5156 57.375 40.2004C58.097 40.9158 59.0428 41.2735 59.7954 41.7778C60.5819 42.2309 61.2666 42.7317 61.9988 42.9701L63.826 43.7265L65.4328 44.3976L63.7887 51L61.7649 50.5094C61.1175 50.3459 60.3276 50.1551 59.4293 49.9269C58.5106 49.7565 57.5309 49.2898 56.4394 48.8639C55.3648 48.3768 54.1139 48.0531 52.9546 47.2729C51.7884 46.5303 50.4426 45.9102 49.2562 44.9154C48.107 43.89 46.7205 43.0008 45.6968 41.6994C44.5781 40.4798 43.473 39.1988 42.6153 37.7407C41.6221 36.3507 40.9475 34.8245 40.2356 33.3152C39.5915 31.806 39.0729 30.2627 38.6491 28.7637C37.8457 25.7589 37.4864 22.904 37.3474 20.4613C37.2322 18.0152 37.2999 15.9814 37.4423 14.5096C37.4932 13.8146 37.5881 13.1401 37.6559 12.6734L37.7406 12.101L37.8288 12.1214C38.4317 9.29096 39.8197 6.68986 41.8321 4.61903C43.8446 2.5482 46.3993 1.09226 49.2007 0.41964C52.0021 -0.252979 54.9358 -0.114796 57.6623 0.818207C60.3888 1.75121 62.7968 3.44091 64.6077 5.69183C66.4186 7.94275 67.5584 10.6629 67.8953 13.5377C68.2322 16.4124 67.7523 19.3243 66.5113 21.9364C65.2702 24.5485 63.3187 26.7542 60.8824 28.2982C58.4461 29.8422 55.6246 30.6615 52.7444 30.6613Z"/></svg>