<svg xmlns="http://www.w3.org/2000/svg" width="154" height="162" fill="none" viewBox="0 0 154 162"><path fill="#000" d="M147.619 48.5009C141.507 32.6109 131.847 18.9289 116.765 10.629C109.706 6.81731 102.157 3.99151 94.3301 2.23056C90.3872 1.30397 86.3457 0.574526 82.3042 0.0422304C78.7555 -0.430921 73.1171 3.21629 78.2429 3.7683C79.1104 3.7683 79.9581 3.96545 80.8256 4.08374C85.3008 6.0552 94.6258 10.3924 95.3947 8.26325C99.9685 8.97297 101.191 11.9499 107.342 11.5359C109.589 12.5808 111.738 13.7045 113.828 14.9268C113.828 15.7351 115.208 16.3463 116.923 16.8983C118.402 17.8446 119.841 18.8697 121.221 19.9146L120.984 20.0329C122.04 21.1038 123.257 22.002 124.592 22.6944C126.981 24.7682 129.221 27.0081 131.295 29.3974C131.295 31.3688 134.016 33.3403 135.238 34.2669C135.613 34.7795 135.987 35.292 136.342 35.8243C137.919 39.7673 140.285 50.5315 143.853 49.7823C144.149 50.4921 144.425 51.2215 144.701 51.9509C144.405 53.9156 144.452 55.9167 144.839 57.8653C146.14 57.1162 146.14 57.6682 146.712 57.9639L146.83 58.3779C144.524 59.5805 147.185 63.0109 147.047 65.3175L148.289 63.9572C148.467 64.6866 148.605 65.4358 148.762 66.1849C148.249 65.9311 147.678 65.8155 147.106 65.8498C147.538 67.6879 147.854 69.5513 148.053 71.429C148.267 71.2468 148.524 71.1222 148.8 71.067C149.076 71.0118 149.362 71.0278 149.63 71.1136C149.63 71.4685 149.63 71.8036 149.768 72.1585C149.254 72.3166 148.704 72.3166 148.191 72.1585C147.047 77.0477 147.652 78.5592 150.004 76.6928C150.089 76.7034 150.176 76.7034 150.261 76.6928C150.261 77.5011 150.261 78.2897 150.399 79.098C149.871 78.7759 149.325 78.4862 148.762 78.2306C148.762 79.8669 147.579 85.1701 150.418 84.145V84.2633C150.082 84.5567 149.807 84.9141 149.609 85.3147C149.412 85.7153 149.296 86.1511 149.269 86.5968C149.241 87.0425 149.303 87.4892 149.449 87.911C149.596 88.3328 149.825 88.7213 150.123 89.0539C149.985 90.3551 149.807 91.6563 149.61 92.9969C147.915 93.5883 146.357 94.4755 147.816 97.0581C148.116 96.6207 148.553 96.2949 149.058 96.1315C148.664 98.103 148.21 99.897 147.698 101.73C145.975 104.134 144.645 106.796 143.755 109.616L144.721 110.03C144.583 110.346 144.465 110.681 144.307 110.996H144.169C144.179 111.141 144.179 111.286 144.169 111.43C143.262 113.402 142.197 115.373 141.212 117.344L140.66 117.778H140.955C140.423 118.744 139.871 119.75 139.28 120.617C139.15 120.403 139.005 120.199 138.846 120.006C137.486 122.194 136.303 124.639 134.903 126.906C125.824 138.635 113.669 147.617 99.7911 152.851L97.8196 153.56C96.1439 154.171 94.4287 154.664 92.7135 155.118C91.4321 155.118 90.2886 155.335 89.8943 155.394C90.1629 155.425 90.4235 155.505 90.6632 155.63C87.4518 156.396 84.191 156.936 80.9044 157.247C80.4116 156.734 79.5047 156.537 77.2375 156.596C77.4878 156.834 77.6713 157.133 77.7698 157.464C75.0426 157.582 72.3108 157.543 69.5882 157.346C67.7745 156.182 60.3223 155.019 59.2183 155.689C58.4889 155.512 57.7397 155.315 57.0103 155.098C56.1822 153.127 54.5459 151.155 52.5942 153.679L51.5099 153.265C49.2427 151.431 44.3732 148.08 42.5594 148.888C42.4816 148.906 42.4006 148.906 42.3228 148.888L40.9822 148.099C39.0108 146.68 35.9156 143.88 35.3044 143.328C34.4283 142.467 33.3172 141.884 32.1106 141.653C30.3363 140.135 28.6014 138.538 26.906 136.783C25.2105 135.029 23.7319 133.313 22.2533 131.5C23.8502 130.494 22.687 130.08 21.0113 129.942C20.3607 129.114 19.7495 128.247 19.1581 127.399C19.513 127.534 19.8559 127.699 20.1833 127.892C19.6273 127.141 18.9629 126.476 18.2118 125.92C15.2558 121.512 12.74 116.823 10.7005 111.923C9.41905 104.964 8.11788 96.4272 5.55498 94.0023C5.20011 91.9323 4.90439 89.8228 4.70725 87.733C4.7464 87.6248 4.7464 87.5062 4.70725 87.3979C4.26366 82.4792 4.26366 77.5306 4.70725 72.6119C4.98325 71.0347 5.37755 69.9504 5.94927 69.8519C7.19129 57.1753 8.07845 52.6015 14.466 40.5361C14.466 40.5361 14.328 40.5361 14.2689 40.5361L14.7617 39.6096C14.7692 39.6751 14.7692 39.7412 14.7617 39.8067C17.017 35.7209 19.8083 31.9549 23.0616 28.6088C22.7856 28.6088 22.549 28.6088 22.2927 28.4708L23.3573 27.2288C24.5205 27.1105 25.4471 26.1247 27.5368 24.1927C30.1983 21.7481 33.3329 20.7623 31.9135 18.9486C32.2683 18.6726 32.6429 18.3769 33.0372 18.1009L33.4907 18.8106C35.4621 17.1743 40.1345 15.2225 40.3119 13.0933L41.416 12.5808C41.4926 12.8044 41.4926 13.0471 41.416 13.2708L43.3874 12.0682L42.8748 11.6345L43.8409 11.0824C43.9055 11.2933 43.9387 11.5125 43.9394 11.733C52.1999 7.3958 61.2883 7.2578 69.2136 3.17686C70.3965 2.52628 69.0165 1.97427 66.8281 1.73769C67.818 1.54487 68.8188 1.41319 69.8248 1.3434C68.6222 1.3434 67.4393 1.52083 66.2761 1.65883C63.6219 1.31841 60.948 1.15376 58.272 1.16597C56.2071 1.37055 54.2 1.96599 52.3576 2.92057L55.0782 2.72342C53.7573 3.92602 52.7716 4.20202 52.1407 3.57116C52.0378 3.45472 51.9454 3.32937 51.8647 3.19658C50.4835 4.08974 49.166 5.07785 47.9218 6.15378C45.6258 7.0688 43.3816 8.10866 41.1991 9.26869C40.8048 9.11098 40.2528 8.97297 40.5288 8.08581C38.7545 9.03212 29.8434 14.6902 30.2969 14.9465C30.7503 15.2028 33.2738 13.1131 33.8455 12.975C30.4349 15.2817 19.3158 21.4326 18.7441 25.6319L20.3213 26.4402L19.7298 27.1696C19.3327 26.768 18.9882 26.3175 18.7047 25.829C16.3192 33.3403 7.6053 41.995 4.54953 52.4241C3.48494 56.0713 -1.75916 71.981 0.606597 74.8791C0.448879 74.6819 0.941746 73.5582 1.4149 72.3359C1.4149 73.5188 1.4149 74.9579 1.4149 76.5745C1.13539 81.5511 1.26066 86.5422 1.78948 91.4986C2.00634 96.4272 2.24291 100.429 2.40063 101.356C2.7275 101.144 3.00896 100.869 3.22865 100.548C3.9019 103.757 4.76428 106.923 5.81127 110.03C5.92557 110.628 6.09045 111.215 6.30413 111.785C6.26816 111.524 6.20877 111.267 6.1267 111.016C6.21737 111.242 6.29633 111.472 6.36328 111.706C6.87942 114.377 7.93971 116.914 9.4782 119.158C10.2668 120.854 11.1342 122.529 12.0608 124.146C12.8691 129.489 21.5633 137.69 23.791 139.918C26.986 142.764 29.7842 146.026 32.1106 149.617C33.3132 151.589 37.4533 151.135 38.9713 152.18C37.5913 151.234 36.6647 150.643 36.0536 150.209L36.2901 150.327C38.2616 151.569 40.2331 152.673 42.106 153.738C43.5648 154.546 45.1815 155.315 46.4826 155.867L46.7586 155.985C47.6655 156.38 48.3555 156.675 48.7301 156.833C49.4536 157.237 50.24 157.517 51.0564 157.661C63.1035 161.904 76.0222 163.059 88.631 161.02C101.24 158.981 113.136 153.814 123.232 145.99C153.257 122.608 160.985 83.0607 147.619 48.5009ZM46.3052 10.4713L45.6743 10.0573L46.4629 9.62356C46.0489 9.86013 46.6995 10.6684 46.3052 10.4713ZM35.5016 12.699L34.8115 13.1919C34.6218 13.1118 34.4374 13.0196 34.2595 12.9159L35.5016 12.699ZM22.2533 131.421L21.4056 130.336C21.7013 130.396 22.0167 130.711 22.2533 131.421ZM2.18377 95.0472V95.1655V95.0472ZM138.215 40.2996L138.708 39.5504L139.122 40.2601C138.813 40.2325 138.501 40.2457 138.195 40.2996H138.215Z"/><path fill="#000" d="M46.8969 70.5033L47.9812 71.3905C48.1586 71.7256 48.3361 72.0608 48.4938 72.4157C48.1586 72.4157 48.3558 72.5142 48.4938 72.5931C49.657 75.2743 50.2878 78.3301 52.6339 79.3158L53.107 79.4932C53.3072 79.653 53.4981 79.8242 53.6787 80.0058C53.6663 79.8764 53.6331 79.7499 53.5802 79.6312C57.5231 80.6367 56.1234 74.8997 55.3545 72.9282C52.1607 64.6481 41.9288 57.7085 33.0572 62.3218C28.8363 64.4559 25.5663 68.0916 23.8899 72.5142C23.6735 74.1835 23.7469 75.8775 24.1068 77.5218C24.0581 77.677 24.0186 77.835 23.9885 77.9949H24.087V78.2709H23.9885C23.7519 79.4735 23.9885 80.2424 25.1713 80.2424C22.3916 80.4395 25.9796 80.2424 24.4025 81.0113C25.9796 80.3015 26.9062 80.7747 27.5568 79.9467C26.9457 80.7155 29.134 75.6094 30.7506 72.7311C31.1646 72.1199 31.5786 71.5285 32.0123 70.9568C32.1701 70.9568 32.2883 70.9568 32.3081 70.9568C32.3278 70.9568 32.1701 70.7991 32.032 70.9568L32.4855 70.4048C33.5905 69.8595 34.6346 69.1986 35.6004 68.4333C31.9138 70.6019 37.7296 67.073 36.9607 67.0927C37.1579 67.0927 41.2585 68.1376 42.2442 68.4333C43.6637 68.4333 43.644 68.2362 42.2442 67.6841C42.1457 68.1376 42.0274 68.1376 41.8894 67.6841L42.3034 67.349C42.6583 67.4673 43.0328 67.6053 43.4468 67.7827C43.3088 68.3544 43.8806 68.9853 44.61 69.5176C45.2123 69.9609 45.8765 70.313 46.5815 70.5625C46.5815 70.6808 46.7195 70.7793 46.5815 70.8385C46.6176 70.8016 46.6378 70.7521 46.6378 70.7005C46.6378 70.6489 46.6176 70.5993 46.5815 70.5625C46.8772 70.5822 46.9363 70.5625 46.8969 70.5033ZM25.4276 79.8284V79.5721C25.5174 79.6008 25.6139 79.6008 25.7036 79.5721C26.0388 79.7889 25.9205 79.8678 25.4276 79.8284ZM27.616 77.4626C27.616 77.3246 27.7934 77.1866 27.892 77.0486C27.8565 77.2169 27.7577 77.3651 27.616 77.4626ZM41.3965 67.7827C41.5542 67.3884 41.6528 67.3884 41.6331 67.7827H41.3965ZM44.2551 68.1967C44.2354 68.2953 44.2157 68.2559 44.2551 68.1376V68.1967ZM45.3 69.6162C44.1369 69.419 44.748 69.1036 45.3 69.6162V69.6162ZM45.9703 69.7345C45.9703 69.7345 45.9703 69.6359 45.9703 69.7345C46.128 69.1825 46.3055 69.7542 45.9703 69.6753V69.7345Z"/><path fill="#000" d="M45.6348 70.976C45.6348 70.976 44.8068 70.6606 44.5703 71.1338C44.3337 71.6069 45.6743 70.976 45.6348 70.976Z"/><path fill="#000" d="M40.4696 69.2212C40.1936 70.7787 41.751 68.8663 41.7313 68.9255C41.7116 68.9846 40.5681 68.6495 40.4696 69.2212Z"/><path fill="#000" d="M32.8797 71.568C33.1162 71.6863 33.1951 71.1146 32.8797 71.016C32.8402 70.9766 32.5839 71.4497 32.8797 71.568Z"/><path fill="#000" d="M117.774 68.8041L118.858 69.6913C119.036 70.0264 119.213 70.3616 119.371 70.7164C119.036 70.7164 119.233 70.815 119.371 70.8939C120.534 73.5751 121.165 76.6308 123.511 77.6166L123.984 77.794C124.184 77.9538 124.375 78.1249 124.556 78.3066C124.543 78.1772 124.51 78.0507 124.457 77.932C128.4 78.9375 127 73.2005 126.231 71.229C123.038 62.9489 112.806 56.0093 103.934 60.6225C99.7133 62.7566 96.4432 66.3923 94.7668 70.815C94.5505 72.4842 94.6239 74.1783 94.9837 75.8225C94.935 75.9778 94.8955 76.1358 94.8654 76.2957H94.964V76.5717H94.8654C94.6288 77.7743 94.8654 78.5432 96.0483 78.5432C93.2685 78.7403 96.8566 78.5432 95.2794 79.312C96.8566 78.6023 97.7832 79.0755 98.4338 78.2474C97.8226 79.0163 100.011 73.9102 101.628 71.0319C102.042 70.4207 102.456 69.8293 102.889 69.2576C103.047 69.2576 103.165 69.2576 103.185 69.2576C103.205 69.2576 103.047 69.0998 102.909 69.2576L103.362 68.7055C104.467 68.1602 105.512 67.4994 106.477 66.7341C102.791 68.9027 108.607 65.3738 107.838 65.3935C108.035 65.3935 112.135 66.4384 113.121 66.7341C114.541 66.7341 114.521 66.5369 113.121 65.9849C113.023 66.4384 112.904 66.4384 112.766 65.9849L113.18 65.6498C113.535 65.7681 113.91 65.9061 114.324 66.0835C114.186 66.6552 114.758 67.2861 115.487 67.8184C116.089 68.2617 116.754 68.6137 117.458 68.8633C117.458 68.9816 117.596 69.0801 117.458 69.1393C117.495 69.1024 117.515 69.0529 117.515 69.0013C117.515 68.9497 117.495 68.9001 117.458 68.8633C117.754 68.883 117.813 68.8633 117.774 68.8041ZM96.3046 78.1292V77.8729C96.3944 77.9016 96.4908 77.9016 96.5806 77.8729C96.9157 78.0897 96.7975 78.1686 96.3046 78.1292ZM98.4929 75.7634C98.4929 75.6254 98.6703 75.4874 98.7689 75.3494C98.7334 75.5177 98.6346 75.6659 98.4929 75.7634ZM112.273 66.0835C112.431 65.6892 112.53 65.6892 112.51 66.0835H112.273ZM115.132 66.4975C115.112 66.5961 115.093 66.5567 115.132 66.4384V66.4975ZM116.177 67.917C115.014 67.7198 115.625 67.4044 116.177 67.917V67.917ZM116.847 68.0352C116.847 68.0352 116.847 67.9367 116.847 68.0352C117.005 67.4832 117.182 68.055 116.847 67.9761V68.0352Z"/><path fill="#000" d="M116.512 69.2768C116.512 69.2768 115.684 68.9614 115.447 69.4345C115.211 69.9077 116.551 69.2768 116.512 69.2768Z"/><path fill="#000" d="M111.347 67.522C111.071 69.0795 112.628 67.1671 112.608 67.2263C112.589 67.2854 111.445 66.9503 111.347 67.522Z"/><path fill="#000" d="M103.757 69.8688C103.993 69.9871 104.072 69.4154 103.757 69.3168C103.717 69.2774 103.461 69.7505 103.757 69.8688Z"/><path fill="#000" d="M109.648 100.37C109.746 100.294 109.826 100.197 109.881 100.086C109.935 99.9749 109.964 99.8527 109.964 99.7289C109.964 99.6051 109.935 99.4829 109.881 99.3718C109.826 99.2607 109.746 99.1637 109.648 99.0882C108.879 98.1419 105.409 97.8264 101.033 97.8067L101.25 97.5701C101.04 97.6143 100.84 97.6943 100.658 97.8067C98.9628 97.8067 97.149 97.8067 95.3156 97.8067C95.1776 97.4519 94.9213 97.5701 94.7833 97.8067C87.7451 98.0433 80.4113 98.5953 78.1047 98.4573L75.5615 98.3193C75.6798 98.3193 75.7586 98.3193 75.7783 98.1419C75.4863 98.2135 75.19 98.2662 74.8912 98.2996H73.9054C72.3904 98.0091 70.9102 97.5597 69.4894 96.959C69.2134 97.8264 68.6022 97.8264 69.3711 96.959C68.5431 96.959 67.3996 97.1167 65.9801 97.1758C65.9801 97.1758 65.9801 97.0576 65.9801 97.0181C65.9801 96.9787 65.7436 97.0181 65.6056 97.1956C61.0911 97.1262 56.5792 97.4495 52.1207 98.1616H51.7856C50.3859 98.5756 49.5776 99.1867 49.8141 100.133C49.6628 99.6362 49.3841 99.1877 49.0058 98.8319C49.2621 99.9359 49.2227 100.212 48.8875 99.6205C49.0717 99.9371 49.2173 100.275 49.3213 100.626L49.0058 100.744C48.2172 99.5022 47.6258 98.9107 47.9018 100.33C47.9018 100.626 48.0201 100.902 48.0792 101.178C47.9686 101.2 47.8547 101.2 47.7441 101.178C47.6712 102.1 47.5328 103.016 47.3301 103.918C47.3301 106.028 58.3703 124.974 61.9189 124.678C62.2738 124.678 61.5641 123.909 61.1303 123.377C63.4753 125.321 66.0591 126.957 68.8191 128.246H68.2276C72.762 130.218 71.9931 129.922 69.8639 128.798C72.8378 130.071 75.9776 130.914 79.189 131.302C81.665 131.6 84.1742 131.459 86.6017 130.888C85.8797 131.126 85.2103 131.501 84.6302 131.992C84.9259 133.963 87.3114 130.868 87.5874 130.691H87.1931C92.3026 129.256 96.924 126.454 100.56 122.588C100.575 122.666 100.617 122.735 100.678 122.785C101.131 123.179 101.329 122.332 101.329 121.799C101.959 121.09 102.571 120.341 103.162 119.591C103.162 119.887 103.537 120.005 104.148 119.434C104.404 118.823 104.325 118.527 103.951 118.527C105.327 116.605 106.497 114.543 107.44 112.376C107.834 112.376 108.11 112.534 107.933 112.691C108.406 112.238 108.11 111.962 107.696 111.725C108.332 110.142 108.827 108.506 109.175 106.836C109.609 106.461 109.688 105.062 109.628 103.524C109.706 102.474 109.712 101.42 109.648 100.37ZM50.3267 108.906C50.6861 110.049 51.1756 111.147 51.7856 112.179C51.2799 111.806 50.8796 111.309 50.6239 110.735C50.3681 110.161 50.2658 109.531 50.3267 108.906ZM55.5708 98.9305H55.1765C55.1765 98.753 55.3145 98.5362 55.4328 98.2602C56.1031 97.7081 55.8862 98.1024 55.5708 98.9305ZM56.3594 98.7333C56.3594 98.4573 56.458 98.3784 56.5565 98.4179V98.6939L56.3594 98.7333ZM57.5226 98.477L57.1874 98.5756C57.1874 98.1419 57.3648 97.6293 57.6803 98.3587L57.5226 98.477ZM95.7099 103.977C95.5343 104.103 95.3418 104.202 95.1381 104.273C93.7802 106.842 91.486 108.791 88.7309 109.714C88.4415 109.949 88.1387 110.166 87.824 110.365C85.9905 110.621 82.5405 111.252 81.4364 111.37C81.6142 111.4 81.7789 111.483 81.9096 111.607C80.5493 113.164 75.5812 111.43 71.2045 109.202C67.2616 107.23 63.7524 104.707 64.0087 103.879C64.2937 103.726 64.5643 103.548 64.817 103.347C64.6813 103.191 64.5561 103.026 64.4424 102.854H65.3296H68.0699C68.1882 102.716 68.2868 102.735 68.4248 102.854H68.9965H69.1739L69.0162 102.519C68.9858 102.587 68.97 102.661 68.97 102.735C68.97 102.81 68.9858 102.884 69.0162 102.952C67.8406 102.729 66.6398 102.669 65.4479 102.775H64.5015L65.369 102.617V102.479C65.5267 102.479 65.6056 102.479 65.6253 102.578C67.3405 102.282 70.5342 101.829 70.1202 102.578C70.5038 102.497 70.8998 102.497 71.2834 102.578C71.2553 102.622 71.2404 102.673 71.2404 102.726C71.2404 102.778 71.2553 102.829 71.2834 102.873C71.4608 102.873 71.5397 102.676 71.5397 102.597L72.3086 102.696H73.2746C73.4204 102.402 73.5265 102.091 73.59 101.769C74.2209 101.355 73.8266 102.696 74.2012 102.834C76.7049 103.8 87.0551 100.291 90.3869 103.445L90.1306 103.544H91.9838L92.8709 103.327C92.0232 103.189 89.066 102.657 92.2795 102.933C93.4032 102.795 95.6704 102.933 96.5576 102.933C96.1089 103.132 95.6854 103.383 95.2959 103.682C95.2254 103.773 95.1658 103.872 95.1184 103.977H95.7099Z"/></svg>