<svg xmlns="http://www.w3.org/2000/svg" width="101" height="75" fill="none" viewBox="0 0 101 75"><path fill="#C4C4C4" d="M72.9444 26.7857C72.9444 11.9866 56.6196 0 36.4722 0C16.3248 0 0 11.9866 0 26.7857C0 32.5279 2.4724 37.8181 6.66319 42.1875C4.31354 47.2433 0.438368 51.2612 0.385764 51.3114C0 51.6964 -0.105208 52.2656 0.122743 52.7679C0.350694 53.2701 0.841667 53.5714 1.40278 53.5714C7.82049 53.5714 13.1335 51.5123 16.9561 49.3862C22.6023 52.0145 29.283 53.5714 36.4722 53.5714C56.6196 53.5714 72.9444 41.5848 72.9444 26.7857ZM94.3368 63.6161C98.5276 59.2634 101 53.9565 101 48.2143C101 37.0145 91.6189 27.4219 78.3276 23.4208C78.4854 24.5257 78.5556 25.6473 78.5556 26.7857C78.5556 44.5145 59.6707 58.9286 36.4722 58.9286C34.5785 58.9286 32.7373 58.7946 30.9137 58.6105C36.4372 68.2366 49.4128 75 64.5278 75C71.717 75 78.3977 73.4598 84.0439 70.8147C87.8665 72.9408 93.1795 75 99.5972 75C100.158 75 100.667 74.6819 100.877 74.1964C101.105 73.7109 101 73.1417 100.614 72.74C100.562 72.6897 96.6865 68.6886 94.3368 63.6161Z"/></svg>