<svg xmlns="http://www.w3.org/2000/svg" width="407" height="459" fill="none" viewBox="0 0 407 459"><path fill="#000" d="M296.296 162.236C292.913 153.183 386.319 69.5701 331.858 1.81763C319.113 -14.0176 275.87 77.6789 214.464 119.192C180.581 142.091 101.75 190.846 101.75 217.799V392.268C101.75 424.678 226.75 459 321.733 459C356.557 459 407 240.315 407 205.585C407 170.702 299.628 171.313 296.296 162.236ZM76.3125 164.658C59.5746 164.658 0 174.858 0 244.293V367.915C0 437.3 59.5746 444.95 76.3125 444.95C93.0249 444.95 50.875 430.364 50.875 387.321V224.812C50.875 179.728 93.0249 164.658 76.3125 164.658Z"/></svg>