<svg xmlns="http://www.w3.org/2000/svg" width="160" height="160" fill="none" viewBox="0 0 160 160"><path fill="#000" d="M100 106.667V93.3333C103 91.8466 111.58 81.6333 112.48 73.6533C114.84 73.4733 118.547 71.3066 119.64 62.7533C120.227 58.1599 117.893 55.5799 116.48 54.7666C116.48 54.7666 120 48.0799 120 40.0066C120 23.8199 113.647 10.0066 100 10.0066C100 10.0066 95.26 0.0065918 80 0.0065918C51.72 0.0065918 40 18.1466 40 40.0066C40 47.3666 43.52 54.7666 43.52 54.7666C42.1067 55.5799 39.7733 58.1666 40.36 62.7533C41.4533 71.3066 45.16 73.4733 47.52 73.6533C48.42 81.6333 57 91.8466 60 93.3333V106.667C53.3333 126.667 0 113.333 0 160H160C160 113.333 106.667 126.667 100 106.667Z"/></svg>