<svg xmlns="http://www.w3.org/2000/svg" width="163" height="163" fill="none" viewBox="0 0 163 163"><path stroke="#000" stroke-linecap="round" stroke-linejoin="round" stroke-width="8" d="M103.356 107.074L110.724 122.917C110.724 122.917 143.842 129.949 143.842 146.676C143.842 158.56 129.108 158.56 129.108 158.56H89.8666L70.5466 147.827"/><path stroke="#000" stroke-linecap="round" stroke-linejoin="round" stroke-width="8" d="M59.2022 107.074L51.8434 122.917C51.8434 122.917 18.7161 129.949 18.7161 146.676C18.7161 158.56 33.4508 158.56 33.4508 158.56H51.2252L70.5452 147.827L94.1585 132.8"/><path stroke="#000" stroke-linecap="round" stroke-linejoin="round" stroke-width="8" d="M3.99976 114.992C3.99976 114.992 22.401 111.033 33.4434 107.075C44.4773 51.6218 77.5875 55.5803 81.2798 55.5803C84.9634 55.5803 118.082 51.6218 129.116 107.075C140.159 111.025 158.56 114.992 158.56 114.992M81.2798 38.3468C85.8344 38.3468 90.2025 36.5375 93.4231 33.3168C96.6438 30.0962 98.4531 25.7281 98.4531 21.1734C98.4531 16.6187 96.6438 12.2506 93.4231 9.02997C90.2025 5.80933 85.8344 4 81.2798 4C76.7251 4 72.357 5.80933 69.1364 9.02997C65.9158 12.2506 64.1064 16.6187 64.1064 21.1734C64.1064 25.7281 65.9158 30.0962 69.1364 33.3168C72.357 36.5375 76.7251 38.3468 81.2798 38.3468Z"/></svg>