<svg xmlns="http://www.w3.org/2000/svg" width="564" height="121" fill="none" viewBox="0 0 564 121"><path fill="#000" d="M12.48 27.208C19.2 20.488 27.296 17.128 36.768 17.128C43.616 17.128 49.728 18.92 55.104 22.504C60.544 26.088 64.64 30.92 67.392 37L53.664 40.936C52.064 37.736 49.76 35.272 46.752 33.544C43.744 31.752 40.416 30.856 36.768 30.856C31.072 30.856 26.304 32.84 22.464 36.808C18.688 40.776 16.8 45.672 16.8 51.496C16.8 57.32 18.688 62.216 22.464 66.184C26.304 70.088 31.072 72.04 36.768 72.04C40.864 72.04 44.576 70.952 47.904 68.776C51.296 66.6 53.76 63.464 55.296 59.368L37.152 59.464L36.96 47.272H69.312V52.744C69.312 62.344 66.208 70.248 60 76.456C53.792 82.664 46.048 85.768 36.768 85.768C27.296 85.768 19.2 82.44 12.48 75.784C5.76 69.064 2.4 60.968 2.4 51.496C2.4 42.024 5.76 33.928 12.48 27.208ZM82.8548 40.84C87.9748 35.784 94.1188 33.256 101.287 33.256C107.495 33.256 112.999 35.24 117.799 39.208C122.599 43.176 125.639 48.168 126.919 54.184C127.367 56.104 127.591 57.96 127.591 59.752C127.591 61.48 127.399 63.144 127.015 64.744H88.8068C89.5748 67.56 91.0788 69.736 93.3188 71.272C95.5588 72.744 98.2148 73.48 101.287 73.48C106.151 73.48 110.151 72.04 113.287 69.16L125.383 72.616C123.399 76.584 120.103 79.784 115.495 82.216C110.887 84.584 106.151 85.768 101.287 85.768C93.9908 85.768 87.7828 83.208 82.6628 78.088C77.6068 72.904 75.0788 66.728 75.0788 59.56C75.0788 52.2 77.6708 45.96 82.8548 40.84ZM88.8068 54.184H113.479C112.711 51.752 111.239 49.704 109.063 48.04C106.887 46.376 104.263 45.544 101.191 45.544C98.1188 45.544 95.4628 46.376 93.2228 48.04C91.0468 49.704 89.5748 51.752 88.8068 54.184ZM131.974 34.12H140.614V22.984L154.342 19.048V34.12H169.03V46.12H154.342V67.912C154.342 69.256 154.886 70.376 155.974 71.272C157.062 72.168 158.214 72.68 159.43 72.808C160.71 72.872 161.478 72.904 161.734 72.904C163.91 72.904 166.566 72.296 169.702 71.08V84.52C166.054 85.544 162.662 86.056 159.526 86.056C155.622 86.056 151.494 84.936 147.142 82.696C142.79 80.392 140.614 75.496 140.614 68.008V46.12H131.974V34.12ZM210.348 22.6C215.276 18.888 221.26 17.032 228.3 17.032C236.556 17.032 244.78 19.4 252.972 24.136V38.824C249.068 36.264 244.908 34.248 240.492 32.776C236.076 31.24 232.012 30.472 228.3 30.472C225.164 30.472 222.54 31.048 220.428 32.2C218.316 33.352 217.26 34.92 217.26 36.904C217.26 38.952 218.476 40.52 220.908 41.608C223.404 42.696 227.212 43.88 232.332 45.16L233.676 45.448C234.06 45.576 234.444 45.672 234.828 45.736C248.844 49.256 255.852 56.072 255.852 66.184C255.852 72.456 253.292 77.288 248.172 80.68C243.052 84.072 237.1 85.768 230.316 85.768C230.06 85.768 229.804 85.768 229.548 85.768C219.308 85.512 210.924 82.504 204.396 76.744V61.96C212.716 68.872 221.42 72.328 230.508 72.328C233.644 72.328 236.236 71.816 238.284 70.792C240.396 69.704 241.452 68.168 241.452 66.184C241.452 64.264 240.172 62.568 237.612 61.096C235.116 59.56 230.54 57.96 223.884 56.296C209.868 52.84 202.86 46.408 202.86 37C202.86 31.176 205.356 26.376 210.348 22.6ZM260.693 34.12H269.333V22.984L283.061 19.048V34.12H297.749V46.12H283.061V67.912C283.061 69.256 283.605 70.376 284.693 71.272C285.781 72.168 286.933 72.68 288.149 72.808C289.429 72.872 290.197 72.904 290.453 72.904C292.629 72.904 295.285 72.296 298.421 71.08V84.52C294.773 85.544 291.381 86.056 288.245 86.056C284.341 86.056 280.213 84.936 275.861 82.696C271.509 80.392 269.333 75.496 269.333 68.008V46.12H260.693V34.12ZM310.658 40.84C315.586 35.784 321.506 33.256 328.418 33.256C333.858 33.256 338.53 34.984 342.434 38.44V34.12H356.354V85H342.434V80.776C338.594 84.104 333.922 85.768 328.418 85.768C321.57 85.768 315.65 83.176 310.658 77.992C305.73 72.808 303.266 66.664 303.266 59.56C303.266 52.2 305.73 45.96 310.658 40.84ZM316.226 59.56C316.226 63.272 317.506 66.472 320.066 69.16C322.69 71.848 325.922 73.192 329.762 73.192C333.474 73.192 336.674 71.848 339.362 69.16C342.05 66.408 343.394 63.208 343.394 59.56C343.394 55.912 342.05 52.712 339.362 49.96C336.674 47.208 333.474 45.832 329.762 45.832C325.922 45.832 322.69 47.208 320.066 49.96C317.506 52.648 316.226 55.848 316.226 59.56ZM366.394 34.12H380.314V40.936C383.386 36.008 388.026 33.544 394.234 33.544C395.642 33.544 397.114 33.672 398.65 33.928V48.808C396.602 48.04 394.618 47.656 392.698 47.656C390.394 47.656 387.738 48.456 384.73 50.056C381.786 51.592 380.314 54.568 380.314 58.984V85H366.394V34.12ZM404.411 34.12H413.051V22.984L426.779 19.048V34.12H441.467V46.12H426.779V67.912C426.779 69.256 427.323 70.376 428.411 71.272C429.499 72.168 430.651 72.68 431.867 72.808C433.147 72.872 433.915 72.904 434.171 72.904C436.347 72.904 439.003 72.296 442.139 71.08V84.52C438.491 85.544 435.099 86.056 431.963 86.056C428.059 86.056 423.931 84.936 419.579 82.696C415.227 80.392 413.051 75.496 413.051 68.008V46.12H404.411V34.12ZM454.761 40.84C459.881 35.784 466.025 33.256 473.193 33.256C479.401 33.256 484.905 35.24 489.705 39.208C494.505 43.176 497.545 48.168 498.825 54.184C499.273 56.104 499.497 57.96 499.497 59.752C499.497 61.48 499.305 63.144 498.921 64.744H460.713C461.481 67.56 462.985 69.736 465.225 71.272C467.465 72.744 470.121 73.48 473.193 73.48C478.057 73.48 482.057 72.04 485.193 69.16L497.289 72.616C495.305 76.584 492.009 79.784 487.401 82.216C482.793 84.584 478.057 85.768 473.193 85.768C465.897 85.768 459.689 83.208 454.569 78.088C449.513 72.904 446.985 66.728 446.985 59.56C446.985 52.2 449.577 45.96 454.761 40.84ZM460.713 54.184H485.385C484.617 51.752 483.145 49.704 480.969 48.04C478.793 46.376 476.169 45.544 473.097 45.544C470.025 45.544 467.369 46.376 465.129 48.04C462.953 49.704 461.481 51.752 460.713 54.184ZM512.69 40.84C517.618 35.784 523.538 33.256 530.45 33.256C535.89 33.256 540.562 34.984 544.466 38.44V17.8H558.385V85H544.466V80.776C540.626 84.104 535.954 85.768 530.45 85.768C523.602 85.768 517.682 83.176 512.69 77.992C507.762 72.808 505.298 66.664 505.298 59.56C505.298 52.2 507.762 45.96 512.69 40.84ZM518.258 59.56C518.258 63.272 519.538 66.472 522.098 69.16C524.722 71.848 527.954 73.192 531.794 73.192C535.506 73.192 538.706 71.848 541.394 69.16C544.082 66.408 545.426 63.208 545.426 59.56C545.426 55.912 544.082 52.712 541.394 49.96C538.706 47.208 535.506 45.832 531.794 45.832C527.954 45.832 524.722 47.208 522.098 49.96C519.538 52.648 518.258 55.848 518.258 59.56Z"/><path stroke="#00CC8D" stroke-linecap="round" stroke-width="10" d="M199.859 88.0769C267.303 115.605 340.396 115.272 412.109 115.272C426.162 115.272 439.473 113.097 453.389 111.568C460.485 110.788 467.305 107.778 474.346 107.426C480.472 107.119 485.785 104.154 491.794 103.868C500.271 103.464 508.743 100.382 516.552 97.7268C519.47 96.7348 522.305 96.4187 525.276 95.9236C526.709 95.6847 528.02 93.7633 529.711 93.3405"/></svg>