<svg xmlns="http://www.w3.org/2000/svg" width="890" height="603" fill="none" viewBox="0 0 890 603"><path fill="#000" d="M41.056 34.12H54.4L68.608 70.024L82.048 34.12H95.296L67.072 105.16H54.112L62.176 84.712L41.056 34.12ZM103.913 40.936C109.033 35.816 115.177 33.256 122.345 33.256C129.577 33.256 135.753 35.848 140.873 41.032C145.993 46.152 148.553 52.296 148.553 59.464C148.553 66.696 145.993 72.904 140.873 78.088C135.753 83.208 129.577 85.768 122.345 85.768C115.177 85.768 109.033 83.176 103.913 77.992C98.7928 72.808 96.2328 66.632 96.2328 59.464C96.2328 52.232 98.7928 46.056 103.913 40.936ZM107.849 59.464C107.849 63.56 109.257 67.08 112.073 70.024C114.889 72.904 118.313 74.344 122.345 74.344C126.441 74.344 129.897 72.904 132.713 70.024C135.529 67.08 136.937 63.56 136.937 59.464C136.937 55.368 135.529 51.88 132.713 49C129.897 46.12 126.441 44.68 122.345 44.68C118.313 44.68 114.889 46.152 112.073 49.096C109.257 51.976 107.849 55.432 107.849 59.464ZM156.175 34.12H168.655V62.248C168.655 65.832 169.743 68.744 171.919 70.984C174.095 73.16 176.751 74.248 179.887 74.248C183.599 74.248 186.607 72.936 188.911 70.312C191.279 67.624 192.463 64.296 192.463 60.328V34.12H204.943V85H192.463V79.24C188.495 83.656 183.471 85.864 177.391 85.864C171.567 85.864 166.575 84.008 162.415 80.296C158.255 76.584 156.175 71.656 156.175 65.512V34.12ZM215.146 34.12H227.626V41.704C229.29 38.824 231.466 36.744 234.154 35.464C236.842 34.184 239.594 33.544 242.41 33.544C243.754 33.544 245.162 33.672 246.634 33.928V47.272C244.65 46.632 242.73 46.312 240.874 46.312C238.25 46.312 235.37 47.24 232.234 49.096C229.162 50.888 227.626 54.216 227.626 59.08V85H215.146V34.12ZM286.725 40.936C291.845 35.816 297.989 33.256 305.157 33.256C312.389 33.256 318.565 35.848 323.685 41.032C328.805 46.152 331.365 52.296 331.365 59.464C331.365 66.696 328.805 72.904 323.685 78.088C318.565 83.208 312.389 85.768 305.157 85.768C297.989 85.768 291.845 83.176 286.725 77.992C281.605 72.808 279.045 66.632 279.045 59.464C279.045 52.232 281.605 46.056 286.725 40.936ZM290.661 59.464C290.661 63.56 292.069 67.08 294.885 70.024C297.701 72.904 301.125 74.344 305.157 74.344C309.253 74.344 312.709 72.904 315.525 70.024C318.341 67.08 319.749 63.56 319.749 59.464C319.749 55.368 318.341 51.88 315.525 49C312.709 46.12 309.253 44.68 305.157 44.68C301.125 44.68 297.701 46.152 294.885 49.096C292.069 51.976 290.661 55.432 290.661 59.464ZM334.15 34.12H346.63L354.79 73L363.718 34.12H379.366L388.294 73.096L396.358 34.12H408.934L396.742 85H380.134L371.59 44.968L362.95 85H346.246L334.15 34.12ZM416.052 34.12H428.532V39.88C432.372 35.464 437.396 33.256 443.604 33.256C449.428 33.256 454.42 35.112 458.58 38.824C462.74 42.536 464.82 47.464 464.82 53.608V85H452.34V56.872C452.34 53.288 451.252 50.408 449.076 48.232C446.9 45.992 444.244 44.872 441.108 44.872C437.396 44.872 434.356 46.216 431.988 48.904C429.684 51.528 428.532 54.824 428.532 58.792V85H416.052V34.12ZM51.136 159.84C56.256 154.784 62.432 152.256 69.664 152.256C75.04 152.256 79.904 153.792 84.256 156.864C88.608 159.872 91.744 163.872 93.664 168.864L82.24 172.032C81.088 169.472 79.392 167.424 77.152 165.888C74.976 164.288 72.48 163.488 69.664 163.488C65.632 163.488 62.208 164.992 59.392 168C56.576 170.944 55.168 174.464 55.168 178.56C55.168 182.656 56.576 186.176 59.392 189.12C62.208 192.064 65.632 193.536 69.664 193.536C72.544 193.536 75.072 192.768 77.248 191.232C79.488 189.632 81.152 187.552 82.24 184.992L93.664 188.256C91.744 193.184 88.608 197.184 84.256 200.256C79.968 203.264 75.104 204.768 69.664 204.768C62.368 204.768 56.16 202.208 51.04 197.088C45.984 191.904 43.456 185.728 43.456 178.56C43.456 171.2 46.016 164.96 51.136 159.84ZM106.819 159.936C111.939 154.816 118.083 152.256 125.251 152.256C132.483 152.256 138.659 154.848 143.779 160.032C148.899 165.152 151.459 171.296 151.459 178.464C151.459 185.696 148.899 191.904 143.779 197.088C138.659 202.208 132.483 204.768 125.251 204.768C118.083 204.768 111.939 202.176 106.819 196.992C101.699 191.808 99.139 185.632 99.139 178.464C99.139 171.232 101.699 165.056 106.819 159.936ZM110.755 178.464C110.755 182.56 112.163 186.08 114.979 189.024C117.795 191.904 121.219 193.344 125.251 193.344C129.347 193.344 132.803 191.904 135.619 189.024C138.435 186.08 139.843 182.56 139.843 178.464C139.843 174.368 138.435 170.88 135.619 168C132.803 165.12 129.347 163.68 125.251 163.68C121.219 163.68 117.795 165.152 114.979 168.096C112.163 170.976 110.755 174.432 110.755 178.464ZM159.189 153.12H171.669V158.784C175.317 154.432 179.797 152.256 185.109 152.256C188.245 152.256 191.189 153.024 193.941 154.56C196.757 156.032 199.029 158.144 200.757 160.896C202.741 158.208 205.237 156.096 208.245 154.56C211.317 153.024 214.421 152.256 217.557 152.256C222.741 152.256 227.221 154.08 230.997 157.728C234.837 161.376 236.757 166.336 236.757 172.608V204H224.277V175.488C224.277 171.84 223.477 168.96 221.877 166.848C220.277 164.672 218.005 163.584 215.061 163.584C211.733 163.584 209.141 164.672 207.285 166.848C205.493 168.96 204.469 171.712 204.213 175.104V204H191.733V175.488C191.733 171.84 190.933 168.96 189.333 166.848C187.733 164.672 185.461 163.584 182.517 163.584C178.869 163.584 176.149 164.864 174.357 167.424C172.565 169.984 171.669 173.184 171.669 177.024V204H159.189V153.12ZM245.99 153.12H258.47V158.592C262.438 154.432 267.526 152.352 273.734 152.352C280.646 152.352 286.566 154.944 291.494 160.128C296.486 165.312 298.982 171.456 298.982 178.56C298.982 185.92 296.518 192.128 291.59 197.184C286.662 202.24 280.71 204.768 273.734 204.768C267.526 204.768 262.438 202.624 258.47 198.336V224.16H245.99V153.12ZM257.702 178.56C257.702 182.592 259.142 186.112 262.022 189.12C264.966 192.064 268.454 193.536 272.486 193.536C276.646 193.536 280.134 192.064 282.95 189.12C285.83 186.176 287.27 182.656 287.27 178.56C287.27 174.464 285.83 170.944 282.95 168C280.134 165.056 276.646 163.584 272.486 163.584C268.454 163.584 264.966 165.088 262.022 168.096C259.142 171.04 257.702 174.528 257.702 178.56ZM312.317 159.84C317.245 154.784 323.197 152.256 330.173 152.256C336.253 152.256 341.341 154.4 345.437 158.688V153.12H357.917V204H345.437V198.528C341.405 202.688 336.317 204.768 330.173 204.768C323.261 204.768 317.309 202.176 312.317 196.992C307.389 191.808 304.925 185.664 304.925 178.56C304.925 171.2 307.389 164.96 312.317 159.84ZM316.637 178.56C316.637 182.656 318.045 186.176 320.861 189.12C323.741 192 327.261 193.44 331.421 193.44C335.453 193.44 338.909 191.968 341.789 189.024C344.733 186.08 346.205 182.592 346.205 178.56C346.205 174.528 344.733 171.04 341.789 168.096C338.909 165.088 335.453 163.584 331.421 163.584C327.261 163.584 323.741 165.056 320.861 168C318.045 170.944 316.637 174.464 316.637 178.56ZM368.052 153.12H380.532V158.88C384.372 154.464 389.396 152.256 395.604 152.256C401.428 152.256 406.42 154.112 410.58 157.824C414.74 161.536 416.82 166.464 416.82 172.608V204H404.34V175.872C404.34 172.288 403.252 169.408 401.076 167.232C398.9 164.992 396.244 163.872 393.108 163.872C389.396 163.872 386.356 165.216 383.988 167.904C381.684 170.528 380.532 173.824 380.532 177.792V204H368.052V153.12ZM458.569 159.936C463.689 154.816 469.833 152.256 477.001 152.256C484.233 152.256 490.409 154.848 495.529 160.032C500.649 165.152 503.209 171.296 503.209 178.464C503.209 185.696 500.649 191.904 495.529 197.088C490.409 202.208 484.233 204.768 477.001 204.768C469.833 204.768 463.689 202.176 458.569 196.992C453.449 191.808 450.889 185.632 450.889 178.464C450.889 171.232 453.449 165.056 458.569 159.936ZM462.505 178.464C462.505 182.56 463.913 186.08 466.729 189.024C469.545 191.904 472.969 193.344 477.001 193.344C481.097 193.344 484.553 191.904 487.369 189.024C490.185 186.08 491.593 182.56 491.593 178.464C491.593 174.368 490.185 170.88 487.369 168C484.553 165.12 481.097 163.68 477.001 163.68C472.969 163.68 469.545 165.152 466.729 168.096C463.913 170.976 462.505 174.432 462.505 178.464ZM510.459 153.12H522.939V158.88C526.779 154.464 531.803 152.256 538.011 152.256C543.835 152.256 548.827 154.112 552.987 157.824C557.147 161.536 559.227 166.464 559.227 172.608V204H546.747V175.872C546.747 172.288 545.659 169.408 543.483 167.232C541.307 164.992 538.651 163.872 535.515 163.872C531.803 163.872 528.763 165.216 526.395 167.904C524.091 170.528 522.939 173.824 522.939 177.792V204H510.459V153.12ZM53.632 272.12V258.296L60.256 256.28V272.12H77.344V278.072H60.256V307.448C60.256 314.168 63.328 317.528 69.472 317.528C71.648 317.528 74.24 317.112 77.248 316.28V322.808C74.112 323.576 71.264 323.96 68.704 323.96C65.12 323.96 61.696 322.936 58.432 320.888C55.232 318.84 53.632 314.392 53.632 307.544V278.072H42.592V272.12H53.632ZM90.1428 278.936C95.1988 273.816 101.343 271.256 108.575 271.256C115.871 271.256 122.047 273.848 127.103 279.032C132.159 284.152 134.687 290.296 134.687 297.464C134.687 304.696 132.159 310.872 127.103 315.992C121.983 321.176 115.807 323.768 108.575 323.768C101.343 323.768 95.1988 321.208 90.1428 316.088C85.0868 310.968 82.5588 304.76 82.5588 297.464C82.5588 290.232 85.0868 284.056 90.1428 278.936ZM94.7508 311.672C98.5268 315.576 103.135 317.528 108.575 317.528C114.079 317.528 118.719 315.576 122.495 311.672C126.335 307.768 128.255 303.032 128.255 297.464C128.255 291.896 126.335 287.192 122.495 283.352C118.719 279.448 114.079 277.496 108.575 277.496C103.071 277.496 98.4308 279.448 94.6548 283.352C90.8788 287.192 88.9908 291.896 88.9908 297.464C88.9908 303.096 90.9108 307.832 94.7508 311.672ZM170.256 255.8H176.976V281.912C178.64 278.84 181.04 276.312 184.176 274.328C187.376 272.28 191.088 271.256 195.312 271.256C201.264 271.256 206.352 273.176 210.576 277.016C214.8 280.856 216.912 286.008 216.912 292.472V323H210.192V294.584C210.192 289.272 208.656 285.112 205.584 282.104C202.512 279.096 198.736 277.592 194.256 277.592C189.264 277.592 185.136 279.416 181.872 283.064C178.608 286.712 176.976 291.384 176.976 297.08V323H170.256V255.8ZM233.116 278.936C238.172 273.816 244.284 271.256 251.452 271.256C258.044 271.256 263.74 273.464 268.54 277.88C273.404 282.296 276.22 287.736 276.988 294.2C277.244 295.416 277.372 296.536 277.372 297.56C277.372 298.392 277.276 299.192 277.084 299.96H232.156C232.604 305.144 234.652 309.4 238.3 312.728C241.948 315.992 246.332 317.624 251.452 317.624C254.972 317.624 258.268 316.824 261.34 315.224C264.412 313.56 266.876 311.32 268.732 308.504L275.068 309.752C272.956 313.976 269.724 317.368 265.372 319.928C261.084 322.488 256.444 323.768 251.452 323.768C244.156 323.768 237.98 321.208 232.924 316.088C227.932 310.968 225.436 304.76 225.436 297.464C225.436 290.232 227.996 284.056 233.116 278.936ZM232.156 294.488H270.364C269.852 289.624 267.836 285.56 264.316 282.296C260.796 279.032 256.508 277.4 251.452 277.4C246.332 277.4 241.948 279.032 238.3 282.296C234.716 285.56 232.668 289.624 232.156 294.488ZM287.079 323V255.8H293.799V323H287.079ZM305.157 272.12H311.877V282.488C313.925 279.096 316.677 276.376 320.133 274.328C323.653 272.28 327.557 271.256 331.845 271.256C338.949 271.256 344.997 273.848 349.989 279.032C354.981 284.152 357.477 290.296 357.477 297.464C357.477 304.824 354.981 311.064 349.989 316.184C345.061 321.24 339.013 323.768 331.845 323.768C327.557 323.768 323.653 322.744 320.133 320.696C316.677 318.648 313.925 315.896 311.877 312.44V343.16H305.157V272.12ZM311.589 297.464C311.589 303.032 313.509 307.768 317.349 311.672C321.189 315.64 325.861 317.624 331.365 317.624C336.869 317.624 341.509 315.672 345.285 311.768C349.125 307.864 351.045 303.096 351.045 297.464C351.045 291.96 349.125 287.256 345.285 283.352C341.509 279.384 336.869 277.4 331.365 277.4C325.925 277.4 321.253 279.384 317.349 283.352C313.509 287.256 311.589 291.96 311.589 297.464ZM53.632 391.12V377.296L60.256 375.28V391.12H77.344V397.072H60.256V426.448C60.256 433.168 63.328 436.528 69.472 436.528C71.648 436.528 74.24 436.112 77.248 435.28V441.808C74.112 442.576 71.264 442.96 68.704 442.96C65.12 442.96 61.696 441.936 58.432 439.888C55.232 437.84 53.632 433.392 53.632 426.544V397.072H42.592V391.12H53.632ZM85.9698 391.12H92.6898V401.872C94.3538 397.776 96.7538 394.896 99.8898 393.232C103.09 391.504 106.386 390.64 109.778 390.64C111.186 390.64 112.658 390.768 114.194 391.024V398.032C112.402 397.648 110.706 397.456 109.106 397.456C105.202 397.456 101.49 398.928 97.9698 401.872C94.4498 404.752 92.6898 409.648 92.6898 416.56V442H85.9698V391.12ZM125.205 397.936C130.197 392.816 136.245 390.256 143.349 390.256C147.637 390.256 151.541 391.312 155.061 393.424C158.581 395.472 161.333 398.224 163.317 401.68V391.12H170.037V442H163.317V431.44C161.333 434.896 158.581 437.648 155.061 439.696C151.541 441.744 147.637 442.768 143.349 442.768C136.245 442.768 130.197 440.208 125.205 435.088C120.213 429.904 117.717 423.696 117.717 416.464C117.717 409.232 120.213 403.056 125.205 397.936ZM124.149 416.464C124.149 422.096 126.069 426.864 129.909 430.768C133.749 434.672 138.421 436.624 143.925 436.624C149.365 436.624 154.005 434.64 157.845 430.672C161.749 426.704 163.701 421.968 163.701 416.464C163.701 410.96 161.749 406.256 157.845 402.352C154.005 398.384 149.365 396.4 143.925 396.4C138.421 396.4 133.749 398.384 129.909 402.352C126.069 406.256 124.149 410.96 124.149 416.464ZM187.179 397.936C192.235 392.816 198.347 390.256 205.515 390.256C210.891 390.256 215.723 391.76 220.011 394.768C224.299 397.776 227.403 401.712 229.323 406.576L222.891 407.92C221.355 404.464 219.019 401.68 215.883 399.568C212.811 397.456 209.355 396.4 205.515 396.4C200.075 396.4 195.435 398.384 191.595 402.352C187.819 406.256 185.931 410.96 185.931 416.464C185.931 422.096 187.819 426.864 191.595 430.768C195.435 434.672 200.075 436.624 205.515 436.624C209.419 436.624 212.907 435.568 215.979 433.456C219.051 431.344 221.355 428.56 222.891 425.104L229.323 426.544C227.403 431.408 224.299 435.344 220.011 438.352C215.787 441.296 210.955 442.768 205.515 442.768C198.219 442.768 192.043 440.176 186.987 434.992C181.995 429.808 179.499 423.632 179.499 416.464C179.499 409.232 182.059 403.056 187.179 397.936ZM244.194 374.8V421.552L272.802 391.12H281.058L259.17 414.16L282.018 442H273.954L255.042 418.672L244.194 430.096V442H237.474V374.8H244.194ZM312.288 391.12H319.584L337.536 433.744L354.528 391.12H361.824L332.928 462.16H325.728L334.08 441.808L312.288 391.12ZM371.58 397.936C376.636 392.816 382.78 390.256 390.012 390.256C397.308 390.256 403.484 392.848 408.54 398.032C413.596 403.152 416.124 409.296 416.124 416.464C416.124 423.696 413.596 429.872 408.54 434.992C403.42 440.176 397.244 442.768 390.012 442.768C382.78 442.768 376.636 440.208 371.58 435.088C366.524 429.968 363.996 423.76 363.996 416.464C363.996 409.232 366.524 403.056 371.58 397.936ZM376.188 430.672C379.964 434.576 384.572 436.528 390.012 436.528C395.516 436.528 400.156 434.576 403.932 430.672C407.772 426.768 409.692 422.032 409.692 416.464C409.692 410.896 407.772 406.192 403.932 402.352C400.156 398.448 395.516 396.496 390.012 396.496C384.508 396.496 379.868 398.448 376.092 402.352C372.316 406.192 370.428 410.896 370.428 416.464C370.428 422.096 372.348 426.832 376.188 430.672ZM424.3 391.12H431.02V419.536C431.02 424.784 432.556 428.944 435.628 432.016C438.764 435.024 442.54 436.528 446.956 436.528C451.948 436.528 456.076 434.704 459.34 431.056C462.604 427.408 464.236 422.736 464.236 417.04V391.12H470.956V442H464.236V432.208C462.572 435.28 460.14 437.84 456.94 439.888C453.804 441.872 450.124 442.864 445.9 442.864C440.012 442.864 434.924 440.944 430.636 437.104C426.412 433.264 424.3 428.112 424.3 421.648V391.12ZM481.876 391.12H488.596V401.872C490.26 397.776 492.66 394.896 495.796 393.232C498.996 391.504 502.292 390.64 505.684 390.64C507.092 390.64 508.564 390.768 510.1 391.024V398.032C508.308 397.648 506.612 397.456 505.012 397.456C501.108 397.456 497.396 398.928 493.876 401.872C490.356 404.752 488.596 409.648 488.596 416.56V442H481.876V391.12ZM45.376 510.12H57.856V515.784C61.504 511.432 65.984 509.256 71.296 509.256C74.432 509.256 77.376 510.024 80.128 511.56C82.944 513.032 85.216 515.144 86.944 517.896C88.928 515.208 91.424 513.096 94.432 511.56C97.504 510.024 100.608 509.256 103.744 509.256C108.928 509.256 113.408 511.08 117.184 514.728C121.024 518.376 122.944 523.336 122.944 529.608V561H110.464V532.488C110.464 528.84 109.664 525.96 108.064 523.848C106.464 521.672 104.192 520.584 101.248 520.584C97.92 520.584 95.328 521.672 93.472 523.848C91.68 525.96 90.656 528.712 90.4 532.104V561H77.92V532.488C77.92 528.84 77.12 525.96 75.52 523.848C73.92 521.672 71.648 520.584 68.704 520.584C65.056 520.584 62.336 521.864 60.544 524.424C58.752 526.984 57.856 530.184 57.856 534.024V561H45.376V510.12ZM137.949 516.84C143.069 511.784 149.245 509.256 156.477 509.256C162.749 509.256 168.285 511.304 173.085 515.4C177.949 519.432 180.957 524.488 182.109 530.568C182.493 532.36 182.685 534.088 182.685 535.752C182.685 537.288 182.525 538.76 182.205 540.168H142.653C143.357 543.496 144.957 546.088 147.453 547.944C149.949 549.8 152.957 550.728 156.477 550.728C161.789 550.728 166.141 548.968 169.533 545.448L180.477 548.424C178.493 552.456 175.197 555.688 170.589 558.12C166.045 560.552 161.341 561.768 156.477 561.768C149.181 561.768 142.973 559.208 137.853 554.088C132.797 548.904 130.269 542.728 130.269 535.56C130.269 528.2 132.829 521.96 137.949 516.84ZM142.653 530.664H170.013C169.309 527.72 167.741 525.256 165.309 523.272C162.877 521.288 159.901 520.296 156.381 520.296C152.861 520.296 149.853 521.288 147.357 523.272C144.925 525.256 143.357 527.72 142.653 530.664ZM190.115 510.12H202.595V515.88C206.435 511.464 211.459 509.256 217.667 509.256C223.491 509.256 228.483 511.112 232.643 514.824C236.803 518.536 238.883 523.464 238.883 529.608V561H226.403V532.872C226.403 529.288 225.315 526.408 223.139 524.232C220.963 521.992 218.307 520.872 215.171 520.872C211.459 520.872 208.419 522.216 206.051 524.904C203.747 527.528 202.595 530.824 202.595 534.792V561H190.115V510.12ZM244.253 520.872V510.12H253.373V498.408L265.757 494.856V510.12H280.925V520.872H265.757V544.2C265.757 546.824 266.621 548.456 268.349 549.096C270.077 549.736 271.581 550.056 272.861 550.056C275.165 550.056 278.013 549.544 281.405 548.52V560.616C277.885 561.576 274.621 562.056 271.613 562.056C267.773 562.056 263.773 560.936 259.613 558.696C255.453 556.456 253.373 551.656 253.373 544.296V520.872H244.253ZM293.754 516.84C298.682 511.784 304.634 509.256 311.61 509.256C317.69 509.256 322.778 511.4 326.874 515.688V510.12H339.354V561H326.874V555.528C322.842 559.688 317.754 561.768 311.61 561.768C304.698 561.768 298.746 559.176 293.754 553.992C288.826 548.808 286.362 542.664 286.362 535.56C286.362 528.2 288.826 521.96 293.754 516.84ZM298.074 535.56C298.074 539.656 299.482 543.176 302.298 546.12C305.178 549 308.698 550.44 312.858 550.44C316.89 550.44 320.346 548.968 323.226 546.024C326.17 543.08 327.642 539.592 327.642 535.56C327.642 531.528 326.17 528.04 323.226 525.096C320.346 522.088 316.89 520.584 312.858 520.584C308.698 520.584 305.178 522.056 302.298 525C299.482 527.944 298.074 531.464 298.074 535.56ZM349.682 561V493.8H362.162V561H349.682ZM398.912 493.8H405.632V519.912C407.296 516.84 409.696 514.312 412.832 512.328C416.032 510.28 419.744 509.256 423.968 509.256C429.92 509.256 435.008 511.176 439.232 515.016C443.456 518.856 445.568 524.008 445.568 530.472V561H438.848V532.584C438.848 527.272 437.312 523.112 434.24 520.104C431.168 517.096 427.392 515.592 422.912 515.592C417.92 515.592 413.792 517.416 410.528 521.064C407.264 524.712 405.632 529.384 405.632 535.08V561H398.912V493.8ZM461.772 516.936C466.828 511.816 472.94 509.256 480.108 509.256C486.7 509.256 492.396 511.464 497.196 515.88C502.06 520.296 504.876 525.736 505.644 532.2C505.9 533.416 506.028 534.536 506.028 535.56C506.028 536.392 505.932 537.192 505.74 537.96H460.812C461.26 543.144 463.308 547.4 466.956 550.728C470.604 553.992 474.988 555.624 480.108 555.624C483.628 555.624 486.924 554.824 489.996 553.224C493.068 551.56 495.532 549.32 497.388 546.504L503.724 547.752C501.612 551.976 498.38 555.368 494.028 557.928C489.74 560.488 485.1 561.768 480.108 561.768C472.812 561.768 466.636 559.208 461.58 554.088C456.588 548.968 454.092 542.76 454.092 535.464C454.092 528.232 456.652 522.056 461.772 516.936ZM460.812 532.488H499.02C498.508 527.624 496.492 523.56 492.972 520.296C489.452 517.032 485.164 515.4 480.108 515.4C474.988 515.4 470.604 517.032 466.956 520.296C463.372 523.56 461.324 527.624 460.812 532.488ZM520.174 516.936C525.166 511.816 531.214 509.256 538.318 509.256C542.606 509.256 546.51 510.312 550.03 512.424C553.55 514.472 556.302 517.224 558.286 520.68V510.12H565.006V561H558.286V550.44C556.302 553.896 553.55 556.648 550.03 558.696C546.51 560.744 542.606 561.768 538.318 561.768C531.214 561.768 525.166 559.208 520.174 554.088C515.182 548.904 512.686 542.696 512.686 535.464C512.686 528.232 515.182 522.056 520.174 516.936ZM519.118 535.464C519.118 541.096 521.038 545.864 524.878 549.768C528.718 553.672 533.39 555.624 538.894 555.624C544.334 555.624 548.974 553.64 552.814 549.672C556.718 545.704 558.67 540.968 558.67 535.464C558.67 529.96 556.718 525.256 552.814 521.352C548.974 517.384 544.334 515.4 538.894 515.4C533.39 515.4 528.718 517.384 524.878 521.352C521.038 525.256 519.118 529.96 519.118 535.464ZM576.579 561V493.8H583.299V561H576.579ZM602.913 510.12V496.296L609.537 494.28V510.12H626.625V516.072H609.537V545.448C609.537 552.168 612.609 555.528 618.753 555.528C620.929 555.528 623.521 555.112 626.529 554.28V560.808C623.393 561.576 620.545 561.96 617.985 561.96C614.401 561.96 610.977 560.936 607.713 558.888C604.513 556.84 602.913 552.392 602.913 545.544V516.072H591.873V510.12H602.913ZM635.443 493.8H642.163V519.912C643.827 516.84 646.227 514.312 649.363 512.328C652.563 510.28 656.275 509.256 660.499 509.256C666.451 509.256 671.539 511.176 675.763 515.016C679.987 518.856 682.099 524.008 682.099 530.472V561H675.379V532.584C675.379 527.272 673.843 523.112 670.771 520.104C667.699 517.096 663.923 515.592 659.443 515.592C654.451 515.592 650.323 517.416 647.059 521.064C643.795 524.712 642.163 529.384 642.163 535.08V561H635.443V493.8Z"/><circle cx="433" cy="134" r="12" fill="#00CC8D"/><line x1="433" x2="433" y1="154" y2="204" stroke="#000" stroke-width="12"/><g clip-path="url(#clip0_55_956)"><path fill="#00CC8D" d="M403.519 479.901C402.833 480.296 402.089 481.297 401.346 480.655C400.775 480.224 400.125 479.93 399.441 479.792C398.756 479.653 398.052 479.673 397.376 479.851C392.628 480.469 387.949 479.851 383.247 479.394C376.005 478.678 368.763 477.85 361.51 477.813C349.417 477.813 337.313 477.936 325.22 478.01H318.562C318.647 478.159 318.759 478.288 318.89 478.39C319.022 478.492 319.171 478.564 319.328 478.604C323.447 479.703 327.554 480.865 331.604 482.211C343.296 486.14 355.011 490.02 365.766 496.556C374.06 501.597 381.714 507.503 386.988 516.325C388.901 519.367 390.207 522.805 390.826 526.42C391.444 530.036 391.361 533.751 390.58 537.33C388.978 544.57 384.482 549.871 379.174 554.059C371.52 560.101 362.94 564.463 354.165 568.293C341.362 573.666 328.246 578.124 314.901 581.637C301.893 585.282 288.771 588.42 275.603 591.349C259.368 594.944 242.974 597.526 226.511 599.615C213.538 601.233 200.495 602.012 187.453 602.506C168.702 603.222 149.951 603.111 131.2 602.506C111.076 601.764 90.9179 601.493 70.8626 599.293C55.4407 597.563 40.2134 594.66 25.5695 588.976C17.2636 585.702 9.48406 581.501 3.52354 574.026C-0.320485 569.195 -0.858191 564.043 1.1439 558.371C3.146 552.7 6.65825 548.129 10.6052 543.952C16.2241 538.313 22.4056 533.365 29.036 529.2C46.5201 517.62 65.2956 508.486 84.9116 502.017C96.9356 498.039 109.108 494.666 121.338 491.54C132.401 488.71 143.499 486.005 154.71 483.953C170.567 481.05 186.458 478.307 202.44 476.305C203.264 476.207 204.076 476.021 204.889 475.873C204.506 475.604 204.05 475.483 203.596 475.527C179.487 475.478 155.404 476.301 131.349 477.998C114.954 479.135 98.5716 480.469 82.1544 481.705C69.5698 482.619 56.9852 483.533 44.3091 482.94C40.385 482.755 36.4609 482.533 32.2164 482.323C32.6473 481.838 33.2315 481.547 33.8524 481.507C39.2066 480.42 44.5608 479.308 49.8692 478.319C59.7538 476.478 69.6842 475.033 79.6146 473.908C91.5013 472.586 103.377 471.104 115.298 470.202C126.155 469.361 137.035 468.324 147.857 467.57C158.68 466.816 169.697 466.236 180.612 465.692C195.198 464.951 209.797 464.753 224.395 465.445C238.787 466.124 253.156 467.1 267.491 468.657C271.507 469.09 275.5 470.004 279.561 469.893C287.741 469.707 295.932 469.448 304.112 469.374C310.805 469.374 317.498 469.374 324.191 469.522C331.276 469.453 338.358 469.837 345.401 470.671C358.924 472.623 372.538 473.575 386.107 474.959C389.287 475.094 392.448 475.562 395.545 476.355C397.723 477.197 399.978 477.785 402.272 478.109C402.902 478.109 403.554 478.282 403.828 479.024C404.126 479.444 403.851 479.74 403.519 479.901ZM297.786 484.621C288.359 482.693 278.886 481.075 269.356 479.938C265.558 479.493 261.748 480.061 257.916 480.197C242.368 481.038 226.877 482.669 211.433 484.633C195.015 486.696 178.655 489.168 162.33 491.935C148.899 494.221 135.582 497.063 122.288 500.164C110.561 502.919 98.8347 505.885 87.2798 509.591C71.0113 514.805 55.0746 521.033 40.0418 529.706C33.4371 533.391 27.2873 537.957 21.7369 543.298C17.1607 547.832 13.4768 553.182 12.1383 560.015C11.6192 562.201 11.7349 564.506 12.4695 566.619C13.2042 568.732 14.5223 570.55 16.2454 571.827C20.8216 575.632 26.0729 578.005 31.4499 579.994C44.0212 584.548 57.027 587.561 70.2219 588.976C86.6048 590.978 103.068 591.447 119.531 591.88C131.944 592.189 144.368 592.597 156.793 592.856C166.711 593.066 176.619 592.856 186.538 592.572C196.457 592.288 206.662 591.843 216.707 590.978C227.644 590.051 238.558 588.766 249.427 586.987C259.471 585.344 269.539 583.812 279.538 581.822C290.155 579.722 300.703 577.288 311.206 574.619C318.939 572.655 326.639 570.517 334.258 568.095C346.008 564.389 357.666 560.311 368.385 553.763C374.643 549.933 379.014 544.162 380.341 536.378C381.759 528.026 378.968 521.008 373.259 515.374C366.532 508.702 358.592 504.167 350.184 500.547C333.263 493.035 315.667 488.278 297.786 484.621V484.621Z"/></g><defs><clipPath id="clip0_55_956"><rect width="404" height="138" fill="#fff" transform="matrix(1 0 0 -1 0 603)"/></clipPath></defs></svg>