<svg xmlns="http://www.w3.org/2000/svg" width="963" height="324" fill="none" viewBox="0 0 963 324"><path fill="#000" d="M5.46 193V134.2H18.144V193H5.46ZM27.825 148.48H40.005V152.596C43.365 149.348 47.509 147.724 52.437 147.724C57.477 147.724 61.817 149.348 65.457 152.596C69.097 155.788 70.917 160.044 70.917 165.364V193H58.737V168.472C58.737 165.672 57.869 163.404 56.133 161.668C54.453 159.932 52.381 159.064 49.917 159.064C46.949 159.064 44.541 160.128 42.693 162.256C40.901 164.328 40.005 166.904 40.005 169.984V193H27.825V148.48ZM84.0643 154.36C88.5443 149.936 93.9203 147.724 100.192 147.724C104.952 147.724 109.236 149.068 113.044 151.756C116.852 154.444 119.596 157.972 121.276 162.34L110.188 165.532C109.292 163.46 107.948 161.808 106.156 160.576C104.42 159.288 102.432 158.644 100.192 158.644C96.9443 158.644 94.2003 159.848 91.9603 162.256C89.7203 164.664 88.6003 167.492 88.6003 170.74C88.6003 173.988 89.7203 176.816 91.9603 179.224C94.2003 181.576 96.9443 182.752 100.192 182.752C102.488 182.752 104.504 182.136 106.24 180.904C107.976 179.616 109.292 177.964 110.188 175.948L121.276 179.14C119.596 183.452 116.852 186.952 113.044 189.64C109.292 192.328 105.008 193.672 100.192 193.672C93.8083 193.672 88.3763 191.432 83.8963 186.952C79.4723 182.416 77.2603 177.012 77.2603 170.74C77.2603 164.3 79.5283 158.84 84.0643 154.36ZM128.149 148.48H140.329V154.444C143.017 150.132 147.077 147.976 152.509 147.976C153.741 147.976 155.029 148.088 156.373 148.312V161.332C154.581 160.66 152.845 160.324 151.165 160.324C149.149 160.324 146.825 161.024 144.193 162.424C141.617 163.768 140.329 166.372 140.329 170.236V193H128.149V148.48ZM166.506 154.36C170.986 149.936 176.362 147.724 182.634 147.724C188.066 147.724 192.882 149.46 197.082 152.932C201.282 156.404 203.942 160.772 205.062 166.036C205.454 167.716 205.65 169.34 205.65 170.908C205.65 172.42 205.482 173.876 205.146 175.276H171.714C172.386 177.74 173.702 179.644 175.662 180.988C177.622 182.276 179.946 182.92 182.634 182.92C186.89 182.92 190.39 181.66 193.134 179.14L203.718 182.164C201.982 185.636 199.098 188.436 195.066 190.564C191.034 192.636 186.89 193.672 182.634 193.672C176.25 193.672 170.818 191.432 166.338 186.952C161.914 182.416 159.702 177.012 159.702 170.74C159.702 164.3 161.97 158.84 166.506 154.36ZM171.714 166.036H193.302C192.63 163.908 191.342 162.116 189.438 160.66C187.534 159.204 185.238 158.476 182.55 158.476C179.862 158.476 177.538 159.204 175.578 160.66C173.674 162.116 172.386 163.908 171.714 166.036ZM217.193 154.36C221.505 149.936 226.685 147.724 232.733 147.724C237.493 147.724 241.581 149.236 244.997 152.26V148.48H257.177V193H244.997V189.304C241.637 192.216 237.549 193.672 232.733 193.672C226.741 193.672 221.561 191.404 217.193 186.868C212.881 182.332 210.725 176.956 210.725 170.74C210.725 164.3 212.881 158.84 217.193 154.36ZM222.065 170.74C222.065 173.988 223.185 176.788 225.425 179.14C227.721 181.492 230.549 182.668 233.909 182.668C237.157 182.668 239.957 181.492 242.309 179.14C244.661 176.732 245.837 173.932 245.837 170.74C245.837 167.548 244.661 164.748 242.309 162.34C239.957 159.932 237.157 158.728 233.909 158.728C230.549 158.728 227.721 159.932 225.425 162.34C223.185 164.692 222.065 167.492 222.065 170.74ZM269.826 151.42C273.242 148.956 277.722 147.724 283.266 147.724C289.594 147.724 295.306 149.068 300.402 151.756V163.264C293.57 159.848 287.858 158.14 283.266 158.14C281.306 158.14 279.822 158.476 278.814 159.148C277.806 159.764 277.302 160.548 277.302 161.5C277.302 162.06 277.47 162.564 277.806 163.012C278.198 163.404 278.786 163.768 279.57 164.104C280.41 164.384 281.222 164.608 282.006 164.776C282.79 164.944 283.854 165.196 285.198 165.532C286.598 165.812 287.774 166.064 288.726 166.288C298.022 168.752 302.67 173.372 302.67 180.148C302.67 182.612 302.082 184.768 300.906 186.616C299.786 188.464 298.274 189.892 296.37 190.9C294.522 191.852 292.562 192.552 290.49 193C288.474 193.448 286.346 193.672 284.106 193.672C278.058 193.672 272.094 192.02 266.214 188.716V176.62C268.398 178.132 271.17 179.588 274.53 180.988C277.946 182.388 281.138 183.088 284.106 183.088C288.138 183.088 290.154 182.024 290.154 179.896C290.154 178.72 289.37 177.796 287.802 177.124C286.234 176.396 283.602 175.64 279.906 174.856C274.698 173.736 270.862 172.14 268.398 170.068C265.934 167.996 264.702 165.168 264.702 161.584C264.702 157.272 266.41 153.884 269.826 151.42ZM313.67 154.36C318.15 149.936 323.526 147.724 329.798 147.724C335.23 147.724 340.046 149.46 344.246 152.932C348.446 156.404 351.106 160.772 352.226 166.036C352.618 167.716 352.814 169.34 352.814 170.908C352.814 172.42 352.646 173.876 352.31 175.276H318.878C319.55 177.74 320.866 179.644 322.826 180.988C324.786 182.276 327.11 182.92 329.798 182.92C334.054 182.92 337.554 181.66 340.298 179.14L350.882 182.164C349.146 185.636 346.262 188.436 342.23 190.564C338.198 192.636 334.054 193.672 329.798 193.672C323.414 193.672 317.982 191.432 313.502 186.952C309.078 182.416 306.866 177.012 306.866 170.74C306.866 164.3 309.134 158.84 313.67 154.36ZM318.878 166.036H340.466C339.794 163.908 338.506 162.116 336.602 160.66C334.698 159.204 332.402 158.476 329.714 158.476C327.026 158.476 324.702 159.204 322.742 160.66C320.838 162.116 319.55 163.908 318.878 166.036ZM383.522 193V134.2H410.318C416.086 134.2 420.986 136.216 425.018 140.248C429.106 144.28 431.15 149.04 431.15 154.528C431.15 160.128 429.134 164.888 425.102 168.808C421.07 172.672 416.142 174.604 410.318 174.604H396.206V193H383.522ZM396.206 163.264H409.478C412.222 163.264 414.49 162.368 416.282 160.576C418.074 158.784 418.97 156.628 418.97 154.108C418.97 151.644 418.074 149.6 416.282 147.976C414.546 146.352 412.278 145.54 409.478 145.54H396.206V163.264ZM438.309 148.48H450.489V154.444C453.177 150.132 457.237 147.976 462.669 147.976C463.901 147.976 465.189 148.088 466.533 148.312V161.332C464.741 160.66 463.005 160.324 461.325 160.324C459.309 160.324 456.985 161.024 454.353 162.424C451.777 163.768 450.489 166.372 450.489 170.236V193H438.309V148.48ZM476.33 154.444C480.81 149.964 486.214 147.724 492.542 147.724C498.814 147.724 504.19 149.992 508.67 154.528C513.206 159.008 515.474 164.384 515.474 170.656C515.474 176.984 513.234 182.416 508.754 186.952C504.274 191.432 498.87 193.672 492.542 193.672C486.27 193.672 480.866 191.404 476.33 186.868C471.85 182.332 469.61 176.928 469.61 170.656C469.61 164.384 471.85 158.98 476.33 154.444ZM480.95 170.656C480.95 173.904 482.07 176.704 484.31 179.056C486.55 181.408 489.294 182.584 492.542 182.584C495.79 182.584 498.534 181.408 500.774 179.056C503.014 176.704 504.134 173.904 504.134 170.656C504.134 167.408 503.014 164.636 500.774 162.34C498.534 159.988 495.79 158.812 492.542 158.812C489.294 158.812 486.55 159.988 484.31 162.34C482.07 164.636 480.95 167.408 480.95 170.656ZM526.779 154.36C531.091 149.936 536.271 147.724 542.319 147.724C547.079 147.724 551.167 149.236 554.583 152.26V134.2H566.763V193H554.583V189.304C551.223 192.216 547.135 193.672 542.319 193.672C536.327 193.672 531.147 191.404 526.779 186.868C522.467 182.332 520.311 176.956 520.311 170.74C520.311 164.3 522.467 158.84 526.779 154.36ZM531.651 170.74C531.651 173.988 532.771 176.788 535.011 179.14C537.307 181.492 540.135 182.668 543.495 182.668C546.743 182.668 549.543 181.492 551.895 179.14C554.247 176.732 555.423 173.932 555.423 170.74C555.423 167.548 554.247 164.748 551.895 162.34C549.543 159.932 546.743 158.728 543.495 158.728C540.135 158.728 537.307 159.932 535.011 162.34C532.771 164.692 531.651 167.492 531.651 170.74ZM575.548 148.48H587.728V173.008C587.728 175.808 588.568 178.076 590.248 179.812C591.984 181.548 594.084 182.416 596.548 182.416C599.516 182.416 601.896 181.38 603.688 179.308C605.536 177.18 606.46 174.576 606.46 171.496V148.48H618.64V193H606.46V188.884C603.1 192.132 598.956 193.756 594.028 193.756C588.988 193.756 584.648 192.16 581.008 188.968C577.368 185.72 575.548 181.436 575.548 176.116V148.48ZM633.017 154.36C637.497 149.936 642.873 147.724 649.145 147.724C653.905 147.724 658.189 149.068 661.997 151.756C665.805 154.444 668.549 157.972 670.229 162.34L659.141 165.532C658.245 163.46 656.901 161.808 655.109 160.576C653.373 159.288 651.385 158.644 649.145 158.644C645.897 158.644 643.153 159.848 640.913 162.256C638.673 164.664 637.553 167.492 637.553 170.74C637.553 173.988 638.673 176.816 640.913 179.224C643.153 181.576 645.897 182.752 649.145 182.752C651.441 182.752 653.457 182.136 655.193 180.904C656.929 179.616 658.245 177.964 659.141 175.948L670.229 179.14C668.549 183.452 665.805 186.952 661.997 189.64C658.245 192.328 653.961 193.672 649.145 193.672C642.761 193.672 637.329 191.432 632.849 186.952C628.425 182.416 626.213 177.012 626.213 170.74C626.213 164.3 628.481 158.84 633.017 154.36ZM673.782 148.48H681.342V138.736L693.354 135.292V148.48H706.206V158.98H693.354V178.048C693.354 179.224 693.83 180.204 694.782 180.988C695.734 181.772 696.742 182.22 697.806 182.332C698.926 182.388 699.598 182.416 699.822 182.416C701.726 182.416 704.05 181.884 706.794 180.82V192.58C703.602 193.476 700.634 193.924 697.89 193.924C694.474 193.924 690.862 192.944 687.054 190.984C683.246 188.968 681.342 184.684 681.342 178.132V158.98H673.782V148.48ZM726.534 148.48V193H714.354V148.48H726.534ZM715.278 132.604C716.734 131.204 718.498 130.504 720.57 130.504C722.642 130.504 724.406 131.204 725.862 132.604C727.318 134.004 728.046 135.712 728.046 137.728C728.046 139.744 727.318 141.424 725.862 142.768C724.406 144.168 722.642 144.868 720.57 144.868C718.498 144.868 716.734 144.196 715.278 142.852C713.822 141.452 713.094 139.744 713.094 137.728C713.094 135.712 713.822 134.004 715.278 132.604ZM733.245 148.48H746.181L756.429 184.6L766.677 148.48H779.697L766.257 193H746.685L733.245 148.48ZM798.558 148.48V193H786.378V148.48H798.558ZM787.302 132.604C788.758 131.204 790.522 130.504 792.594 130.504C794.666 130.504 796.43 131.204 797.886 132.604C799.342 134.004 800.07 135.712 800.07 137.728C800.07 139.744 799.342 141.424 797.886 142.768C796.43 144.168 794.666 144.868 792.594 144.868C790.522 144.868 788.758 144.196 787.302 142.852C785.846 141.452 785.118 139.744 785.118 137.728C785.118 135.712 785.846 134.004 787.302 132.604ZM805.688 148.48H813.248V138.736L825.26 135.292V148.48H838.112V158.98H825.26V178.048C825.26 179.224 825.736 180.204 826.688 180.988C827.64 181.772 828.648 182.22 829.712 182.332C830.832 182.388 831.504 182.416 831.728 182.416C833.632 182.416 835.956 181.884 838.7 180.82V192.58C835.508 193.476 832.54 193.924 829.796 193.924C826.38 193.924 822.768 192.944 818.96 190.984C815.152 188.968 813.248 184.684 813.248 178.132V158.98H805.688V148.48ZM842.481 148.48H855.417L867.009 178.468L878.013 148.48H890.949L866.337 210.64H853.737L860.793 192.748L842.481 148.48Z"/><g clip-path="url(#clip0_547_677)"><path fill="#00CC8D" d="M971.464 127.575C970.34 128.029 968.963 129.434 968.043 128.218C967.318 127.385 966.44 126.749 965.467 126.352C964.494 125.955 963.448 125.806 962.399 125.916C955.211 125.68 948.468 123.491 941.646 121.552C931.143 118.546 920.671 115.363 909.963 113.438C892.093 110.327 874.171 107.41 856.28 104.417L846.441 102.704C846.525 102.963 846.654 103.197 846.821 103.393C846.987 103.589 847.187 103.744 847.409 103.847C853.19 106.66 858.937 109.569 864.548 112.758C880.736 122.032 896.971 131.232 911.049 144.422C921.906 154.595 931.577 165.982 936.922 181.407C938.904 186.749 939.881 192.567 939.791 198.492C939.701 204.417 938.546 210.32 936.399 215.826C932.022 226.96 923.907 234.256 914.899 239.569C901.911 247.235 888.021 251.983 873.99 255.833C853.578 261.108 832.958 264.842 812.262 267.011C792.027 269.477 771.764 271.106 751.492 272.387C726.503 273.944 701.559 273.845 676.651 272.939C657.03 272.182 637.54 270.068 618.129 267.501C590.221 263.82 562.542 258.818 535 253.029C505.467 246.669 475.753 241.05 446.726 232.383C424.417 225.657 402.72 217.109 382.657 204.278C371.292 196.92 360.962 188.22 354.229 174.766C349.89 166.073 350.525 157.719 355.058 149.19C359.591 140.662 366.051 134.275 373.043 128.631C382.912 121.084 393.421 114.784 404.375 109.847C433.428 95.8794 463.709 86.1443 494.493 80.8756C513.366 77.6246 532.291 75.3774 551.232 73.5389C568.367 71.8731 585.517 70.4131 602.655 70.0269C626.894 69.4761 651.138 69.1903 675.312 70.1102C676.557 70.1645 677.809 70.0779 679.051 70.0504C678.559 69.5237 677.92 69.2123 677.236 69.1662C641.622 62.8848 605.805 58.0027 569.785 54.5198C545.242 52.1147 520.662 50.0278 496.058 47.7745C477.207 45.9949 458.356 44.2153 439.788 40.0083C434.04 38.7032 428.303 37.339 422.089 35.9121C422.86 35.2503 423.805 34.9363 424.733 35.0326C432.947 34.6762 441.168 34.2804 449.287 34.0698C464.406 33.6771 479.482 33.9266 494.469 34.6885C512.402 35.6383 530.363 36.3291 548.23 37.9577C564.507 39.4111 580.874 40.5552 597.076 42.1376C613.279 43.7201 629.721 45.6285 646.001 47.5695C667.763 50.14 689.391 53.5804 710.771 58.4394C731.851 63.2258 752.815 68.4791 773.566 74.6496C779.381 76.3724 785.027 78.8576 791.06 79.7251C803.2 81.5341 815.377 83.2277 827.485 85.2139C837.376 86.9358 847.266 88.6576 857.115 90.6159C867.604 92.3291 877.964 94.7631 888.141 97.9052C907.583 104.497 927.437 109.517 947.104 115.214C951.767 116.249 956.308 117.807 960.665 119.869C963.649 121.773 966.819 123.291 970.119 124.398C971.049 124.559 971.964 125.003 972.164 126.256C972.487 127.002 971.999 127.405 971.464 127.575ZM813.903 107.9C800.507 102.401 786.958 97.3827 773.191 93.1183C767.701 91.4318 761.913 91.358 756.212 90.5887C733.003 87.9286 709.658 86.5441 686.289 85.7034C661.455 84.7702 636.593 84.5019 611.699 84.7153C591.216 84.9049 570.748 86.0106 550.241 87.5359C532.147 88.9128 513.995 90.6246 495.89 93.5628C470.401 97.6921 445.122 103.522 420.499 113.486C409.716 117.663 399.36 123.362 389.675 130.45C381.653 136.504 374.724 144.088 370.849 154.639C369.475 157.992 369.006 161.698 369.505 165.256C370.004 168.814 371.448 172.053 373.64 174.532C379.346 181.778 386.447 186.912 393.841 191.467C411.154 201.964 429.537 210.115 448.644 215.766C472.298 223.173 496.496 228.157 520.705 233.082C538.963 236.768 557.21 240.615 575.499 244.225C590.098 247.112 604.798 249.326 619.535 251.424C634.272 253.523 649.476 255.439 664.56 256.644C680.98 257.98 697.465 258.739 714.021 258.698C729.321 258.662 744.624 258.809 759.952 258.209C776.225 257.591 792.488 256.423 808.749 254.869C820.724 253.726 832.695 252.298 844.627 250.397C863.02 247.509 881.379 244.006 899.039 236.321C909.35 231.823 917.41 223.746 921.532 211.675C925.947 198.72 923.771 186.811 916.898 176.358C908.81 163.987 898.335 154.714 886.914 146.777C863.995 130.445 839.313 118.332 813.903 107.9Z"/></g><defs><clipPath id="clip0_547_677"><rect width="606.002" height="223.373" fill="#fff" transform="matrix(0.985182 0.171513 0.171513 -0.985182 340.978 220.063)"/></clipPath></defs></svg>