<svg xmlns="http://www.w3.org/2000/svg" width="851" height="125" fill="none" viewBox="0 0 851 125"><path stroke="#00CC8D" stroke-linecap="round" stroke-width="10" d="M432 86C516.445 120.416 607.963 120 697.753 120C715.349 120 732.015 117.281 749.439 115.369C758.323 114.394 766.863 110.63 775.678 110.19C783.349 109.807 790.002 106.1 797.525 105.742C808.139 105.237 818.746 101.384 828.524 98.0644C832.177 96.8242 835.727 96.429 839.447 95.81C841.241 95.5114 842.883 93.1092 845 92.5806"/><path fill="#000" d="M27.744 17.8L44.256 73.384L60.768 17.8H83.328V85H69.408V32.776L53.952 85H34.56L19.2 33.064V85H5.28V17.8H27.744ZM99.3458 40.84C104.274 35.784 110.194 33.256 117.106 33.256C122.546 33.256 127.218 34.984 131.122 38.44V34.12H145.042V85H131.122V80.776C127.282 84.104 122.61 85.768 117.106 85.768C110.258 85.768 104.338 83.176 99.3458 77.992C94.4178 72.808 91.9538 66.664 91.9538 59.56C91.9538 52.2 94.4178 45.96 99.3458 40.84ZM104.914 59.56C104.914 63.272 106.194 66.472 108.754 69.16C111.378 71.848 114.61 73.192 118.45 73.192C122.162 73.192 125.362 71.848 128.05 69.16C130.738 66.408 132.082 63.208 132.082 59.56C132.082 55.912 130.738 52.712 128.05 49.96C125.362 47.208 122.162 45.832 118.45 45.832C114.61 45.832 111.378 47.208 108.754 49.96C106.194 52.648 104.914 55.848 104.914 59.56ZM169.481 34.12V85H155.561V34.12H169.481ZM156.617 15.976C158.281 14.376 160.297 13.576 162.665 13.576C165.033 13.576 167.049 14.376 168.713 15.976C170.377 17.576 171.209 19.528 171.209 21.832C171.209 24.136 170.377 26.056 168.713 27.592C167.049 29.192 165.033 29.992 162.665 29.992C160.297 29.992 158.281 29.224 156.617 27.688C154.953 26.088 154.121 24.136 154.121 21.832C154.121 19.528 154.953 17.576 156.617 15.976ZM179.55 34.12H193.47V38.824C197.31 35.112 202.046 33.256 207.678 33.256C213.438 33.256 218.398 35.112 222.558 38.824C226.718 42.472 228.798 47.336 228.798 53.416V85H214.878V56.968C214.878 53.768 213.886 51.176 211.902 49.192C209.982 47.208 207.614 46.216 204.798 46.216C201.406 46.216 198.654 47.432 196.542 49.864C194.494 52.232 193.47 55.176 193.47 58.696V85H179.55V34.12ZM234.161 34.12H242.801V22.984L256.529 19.048V34.12H271.217V46.12H256.529V67.912C256.529 69.256 257.073 70.376 258.161 71.272C259.249 72.168 260.401 72.68 261.617 72.808C262.897 72.872 263.665 72.904 263.921 72.904C266.097 72.904 268.753 72.296 271.889 71.08V84.52C268.241 85.544 264.849 86.056 261.713 86.056C257.809 86.056 253.681 84.936 249.329 82.696C244.977 80.392 242.801 75.496 242.801 68.008V46.12H234.161V34.12ZM284.127 40.84C289.055 35.784 294.975 33.256 301.887 33.256C307.327 33.256 311.999 34.984 315.903 38.44V34.12H329.823V85H315.903V80.776C312.063 84.104 307.391 85.768 301.887 85.768C295.039 85.768 289.119 83.176 284.127 77.992C279.199 72.808 276.735 66.664 276.735 59.56C276.735 52.2 279.199 45.96 284.127 40.84ZM289.695 59.56C289.695 63.272 290.975 66.472 293.535 69.16C296.159 71.848 299.391 73.192 303.231 73.192C306.943 73.192 310.143 71.848 312.831 69.16C315.519 66.408 316.863 63.208 316.863 59.56C316.863 55.912 315.519 52.712 312.831 49.96C310.143 47.208 306.943 45.832 303.231 45.832C299.391 45.832 296.159 47.208 293.535 49.96C290.975 52.648 289.695 55.848 289.695 59.56ZM354.263 34.12V85H340.343V34.12H354.263ZM341.398 15.976C343.063 14.376 345.079 13.576 347.447 13.576C349.815 13.576 351.831 14.376 353.495 15.976C355.159 17.576 355.991 19.528 355.991 21.832C355.991 24.136 355.159 26.056 353.495 27.592C351.831 29.192 349.815 29.992 347.447 29.992C345.079 29.992 343.063 29.224 341.398 27.688C339.735 26.088 338.903 24.136 338.903 21.832C338.903 19.528 339.735 17.576 341.398 15.976ZM364.331 34.12H378.251V38.824C382.091 35.112 386.827 33.256 392.459 33.256C398.219 33.256 403.179 35.112 407.339 38.824C411.499 42.472 413.579 47.336 413.579 53.416V85H399.659V56.968C399.659 53.768 398.667 51.176 396.683 49.192C394.763 47.208 392.395 46.216 389.579 46.216C386.187 46.216 383.435 47.432 381.323 49.864C379.275 52.232 378.251 55.176 378.251 58.696V85H364.331V34.12ZM480.855 17.8C487.191 17.8 492.279 19.528 496.119 22.984C499.959 26.376 501.879 30.632 501.879 35.752C501.879 38.824 501.143 41.704 499.671 44.392C498.263 47.016 496.343 49.128 493.911 50.728C497.559 52.328 500.279 54.6 502.071 57.544C503.863 60.424 504.759 63.56 504.759 66.952C504.759 72.136 502.807 76.456 498.903 79.912C495.063 83.304 489.847 85 483.255 85H449.655V17.8H480.855ZM463.575 57.352V72.04H482.295C484.599 72.04 486.455 71.336 487.863 69.928C489.335 68.52 490.071 66.792 490.071 64.744C490.071 62.696 489.335 60.968 487.863 59.56C486.455 58.088 484.599 57.352 482.295 57.352H463.575ZM463.575 30.76V45.736H480.375C482.679 45.736 484.535 45 485.943 43.528C487.415 42.056 488.151 40.296 488.151 38.248C488.151 36.2 487.415 34.44 485.943 32.968C484.535 31.496 482.679 30.76 480.375 30.76H463.575ZM517.471 40.84C522.399 35.784 528.319 33.256 535.231 33.256C540.671 33.256 545.343 34.984 549.247 38.44V34.12H563.167V85H549.247V80.776C545.407 84.104 540.735 85.768 535.231 85.768C528.383 85.768 522.463 83.176 517.471 77.992C512.543 72.808 510.079 66.664 510.079 59.56C510.079 52.2 512.543 45.96 517.471 40.84ZM523.039 59.56C523.039 63.272 524.319 66.472 526.879 69.16C529.503 71.848 532.735 73.192 536.575 73.192C540.287 73.192 543.487 71.848 546.175 69.16C548.863 66.408 550.207 63.208 550.207 59.56C550.207 55.912 548.863 52.712 546.175 49.96C543.487 47.208 540.287 45.832 536.575 45.832C532.735 45.832 529.503 47.208 526.879 49.96C524.319 52.648 523.039 55.848 523.039 59.56ZM573.206 85V17.8H587.126V85H573.206ZM602.69 40.84C607.618 35.784 613.538 33.256 620.45 33.256C625.89 33.256 630.562 34.984 634.466 38.44V34.12H648.385V85H634.466V80.776C630.626 84.104 625.954 85.768 620.45 85.768C613.602 85.768 607.682 83.176 602.69 77.992C597.762 72.808 595.298 66.664 595.298 59.56C595.298 52.2 597.762 45.96 602.69 40.84ZM608.258 59.56C608.258 63.272 609.538 66.472 612.098 69.16C614.722 71.848 617.954 73.192 621.794 73.192C625.506 73.192 628.706 71.848 631.394 69.16C634.082 66.408 635.426 63.208 635.426 59.56C635.426 55.912 634.082 52.712 631.394 49.96C628.706 47.208 625.506 45.832 621.794 45.832C617.954 45.832 614.722 47.208 612.098 49.96C609.538 52.648 608.258 55.848 608.258 59.56ZM658.425 34.12H672.345V38.824C676.185 35.112 680.921 33.256 686.553 33.256C692.313 33.256 697.273 35.112 701.433 38.824C705.593 42.472 707.673 47.336 707.673 53.416V85H693.753V56.968C693.753 53.768 692.761 51.176 690.777 49.192C688.857 47.208 686.489 46.216 683.673 46.216C680.281 46.216 677.529 47.432 675.417 49.864C673.369 52.232 672.345 55.176 672.345 58.696V85H658.425V34.12ZM722.699 40.84C727.819 35.784 733.963 33.256 741.131 33.256C746.571 33.256 751.467 34.792 755.819 37.864C760.171 40.936 763.307 44.968 765.227 49.96L752.555 53.608C751.531 51.24 749.995 49.352 747.947 47.944C745.963 46.472 743.691 45.736 741.131 45.736C737.419 45.736 734.283 47.112 731.723 49.864C729.163 52.616 727.883 55.848 727.883 59.56C727.883 63.272 729.163 66.504 731.723 69.256C734.283 71.944 737.419 73.288 741.131 73.288C743.755 73.288 746.059 72.584 748.043 71.176C750.027 69.704 751.531 67.816 752.555 65.512L765.227 69.16C763.307 74.088 760.171 78.088 755.819 81.16C751.531 84.232 746.635 85.768 741.131 85.768C733.835 85.768 727.627 83.208 722.507 78.088C717.451 72.904 714.923 66.728 714.923 59.56C714.923 52.2 717.515 45.96 722.699 40.84ZM778.48 40.84C783.6 35.784 789.744 33.256 796.912 33.256C803.12 33.256 808.624 35.24 813.424 39.208C818.224 43.176 821.264 48.168 822.544 54.184C822.992 56.104 823.216 57.96 823.216 59.752C823.216 61.48 823.024 63.144 822.64 64.744H784.432C785.2 67.56 786.704 69.736 788.944 71.272C791.184 72.744 793.84 73.48 796.912 73.48C801.776 73.48 805.776 72.04 808.912 69.16L821.008 72.616C819.024 76.584 815.728 79.784 811.12 82.216C806.512 84.584 801.776 85.768 796.912 85.768C789.616 85.768 783.408 83.208 778.288 78.088C773.232 72.904 770.704 66.728 770.704 59.56C770.704 52.2 773.296 45.96 778.48 40.84ZM784.432 54.184H809.104C808.336 51.752 806.864 49.704 804.688 48.04C802.512 46.376 799.888 45.544 796.816 45.544C793.744 45.544 791.088 46.376 788.848 48.04C786.672 49.704 785.2 51.752 784.432 54.184Z"/></svg>