<svg xmlns="http://www.w3.org/2000/svg" width="701" height="179" fill="none" viewBox="0 0 701 179"><path fill="#000" d="M0.43125 4H12.0313V21.52C15.2313 18.4267 19.1779 16.88 23.8713 16.88C28.6713 16.88 32.8046 18.4267 36.2713 21.52C39.7379 24.56 41.4713 28.6133 41.4713 33.68V60H29.8713V36.64C29.8713 33.9733 29.0446 31.8133 27.3913 30.16C25.7913 28.5067 23.8179 27.68 21.4713 27.68C18.6446 27.68 16.3513 28.6933 14.5913 30.72C12.8846 32.6933 12.0313 35.1467 12.0313 38.08V60H0.43125V4ZM54.0538 23.28C58.3204 19.0133 63.4671 16.88 69.4938 16.88C75.4671 16.88 80.5871 19.04 84.8538 23.36C89.1738 27.6267 91.3338 32.7467 91.3338 38.72C91.3338 44.7467 89.2004 49.92 84.9338 54.24C80.6671 58.5067 75.5204 60.64 69.4938 60.64C63.5204 60.64 58.3738 58.48 54.0538 54.16C49.7871 49.84 47.6538 44.6933 47.6538 38.72C47.6538 32.7467 49.7871 27.6 54.0538 23.28ZM58.4538 38.72C58.4538 41.8133 59.5204 44.48 61.6538 46.72C63.7871 48.96 66.4004 50.08 69.4938 50.08C72.5871 50.08 75.2004 48.96 77.3338 46.72C79.4671 44.48 80.5338 41.8133 80.5338 38.72C80.5338 35.6267 79.4671 32.9867 77.3338 30.8C75.2004 28.56 72.5871 27.44 69.4938 27.44C66.4004 27.44 63.7871 28.56 61.6538 30.8C59.5204 32.9867 58.4538 35.6267 58.4538 38.72ZM93.5 17.6H105.02L110.86 48L117.82 17.6H131.74L138.7 48.08L144.46 17.6H156.06L146.46 60H131.42L124.78 28.32L118.14 60H103.1L93.5 17.6ZM189.139 23.2C193.406 18.9867 198.526 16.88 204.499 16.88C209.673 16.88 214.259 18.5333 218.259 21.84C222.259 25.1467 224.793 29.3067 225.859 34.32C226.233 35.92 226.419 37.4667 226.419 38.96C226.419 40.4 226.259 41.7867 225.939 43.12H194.099C194.739 45.4667 195.993 47.28 197.859 48.56C199.726 49.7867 201.939 50.4 204.499 50.4C208.553 50.4 211.886 49.2 214.499 46.8L224.579 49.68C222.926 52.9867 220.179 55.6533 216.339 57.68C212.499 59.6533 208.553 60.64 204.499 60.64C198.419 60.64 193.246 58.5067 188.979 54.24C184.766 49.92 182.659 44.7733 182.659 38.8C182.659 32.6667 184.819 27.4667 189.139 23.2ZM194.099 34.32H214.659C214.019 32.2933 212.793 30.5867 210.979 29.2C209.166 27.8133 206.979 27.12 204.419 27.12C201.859 27.12 199.646 27.8133 197.779 29.2C195.966 30.5867 194.739 32.2933 194.099 34.32ZM232.453 17.6H244.053V21.52C247.253 18.4267 251.2 16.88 255.893 16.88C260.693 16.88 264.826 18.4267 268.293 21.52C271.76 24.56 273.493 28.6133 273.493 33.68V60H261.893V36.64C261.893 33.9733 261.066 31.8133 259.413 30.16C257.813 28.5067 255.84 27.68 253.493 27.68C250.666 27.68 248.373 28.6933 246.613 30.72C244.906 32.6933 244.053 35.1467 244.053 38.08V60H232.453V17.6ZM286.014 23.2C290.281 18.9867 295.401 16.88 301.374 16.88C306.548 16.88 311.134 18.5333 315.134 21.84C319.134 25.1467 321.668 29.3067 322.734 34.32C323.108 35.92 323.294 37.4667 323.294 38.96C323.294 40.4 323.134 41.7867 322.814 43.12H290.974C291.614 45.4667 292.868 47.28 294.734 48.56C296.601 49.7867 298.814 50.4 301.374 50.4C305.428 50.4 308.761 49.2 311.374 46.8L321.454 49.68C319.801 52.9867 317.054 55.6533 313.214 57.68C309.374 59.6533 305.428 60.64 301.374 60.64C295.294 60.64 290.121 58.5067 285.854 54.24C281.641 49.92 279.534 44.7733 279.534 38.8C279.534 32.6667 281.694 27.4667 286.014 23.2ZM290.974 34.32H311.534C310.894 32.2933 309.668 30.5867 307.854 29.2C306.041 27.8133 303.854 27.12 301.294 27.12C298.734 27.12 296.521 27.8133 294.654 29.2C292.841 30.5867 291.614 32.2933 290.974 34.32ZM329.328 17.6H340.928V23.28C343.488 19.1733 347.355 17.12 352.528 17.12C353.701 17.12 354.928 17.2267 356.208 17.44V29.84C354.501 29.2 352.848 28.88 351.248 28.88C349.328 28.88 347.115 29.5467 344.608 30.88C342.155 32.16 340.928 34.64 340.928 38.32V60H329.328V17.6ZM359.378 38.24C359.378 32.1067 361.351 27.0133 365.298 22.96C369.298 18.9067 374.151 16.88 379.858 16.88C380.018 16.88 380.178 16.88 380.338 16.88C384.925 16.9333 388.818 18.4 392.018 21.28V17.6H403.618V57.84C403.618 63.76 401.618 68.6667 397.618 72.56C393.671 76.5067 388.631 78.48 382.498 78.48C377.485 78.48 373.005 77.0667 369.058 74.24C365.111 71.4133 362.498 67.3067 361.218 61.92H372.818C374.365 65.76 377.538 67.68 382.338 67.68C385.431 67.68 387.805 66.8267 389.458 65.12C391.165 63.4133 392.018 60.9867 392.018 57.84V55.68C388.871 58.2933 384.978 59.6 380.338 59.6C374.258 59.6 369.245 57.5467 365.298 53.44C361.351 49.3333 359.378 44.2667 359.378 38.24ZM370.178 38.24C370.178 41.28 371.298 43.8667 373.538 46C375.725 48.1867 378.365 49.28 381.458 49.28C384.551 49.28 387.218 48.2133 389.458 46.08C391.698 43.8933 392.818 41.28 392.818 38.24C392.818 35.2 391.698 32.6133 389.458 30.48C387.271 28.2933 384.605 27.2 381.458 27.2C378.365 27.2 375.698 28.2933 373.458 30.48C371.271 32.6133 370.178 35.2 370.178 38.24ZM416.874 23.2C421.14 18.9867 426.26 16.88 432.234 16.88C437.407 16.88 441.994 18.5333 445.994 21.84C449.994 25.1467 452.527 29.3067 453.594 34.32C453.967 35.92 454.154 37.4667 454.154 38.96C454.154 40.4 453.994 41.7867 453.674 43.12H421.834C422.474 45.4667 423.727 47.28 425.594 48.56C427.46 49.7867 429.674 50.4 432.234 50.4C436.287 50.4 439.62 49.2 442.234 46.8L452.314 49.68C450.66 52.9867 447.914 55.6533 444.074 57.68C440.234 59.6533 436.287 60.64 432.234 60.64C426.154 60.64 420.98 58.5067 416.714 54.24C412.5 49.92 410.394 44.7733 410.394 38.8C410.394 32.6667 412.554 27.4667 416.874 23.2ZM421.834 34.32H442.394C441.754 32.2933 440.527 30.5867 438.714 29.2C436.9 27.8133 434.714 27.12 432.154 27.12C429.594 27.12 427.38 27.8133 425.514 29.2C423.7 30.5867 422.474 32.2933 421.834 34.32ZM457.806 17.6H465.006V8.32L476.446 5.04V17.6H488.686V27.6H476.446V45.76C476.446 46.88 476.9 47.8133 477.806 48.56C478.713 49.3067 479.673 49.7333 480.686 49.84C481.753 49.8933 482.393 49.92 482.606 49.92C484.42 49.92 486.633 49.4133 489.246 48.4V59.6C486.206 60.4533 483.38 60.88 480.766 60.88C477.513 60.88 474.073 59.9467 470.446 58.08C466.82 56.16 465.006 52.08 465.006 45.84V27.6H457.806V17.6ZM508.047 17.6V60H496.447V17.6H508.047ZM497.327 2.48C498.714 1.14666 500.394 0.479999 502.367 0.479999C504.34 0.479999 506.02 1.14666 507.407 2.48C508.794 3.81333 509.487 5.44 509.487 7.36C509.487 9.28 508.794 10.88 507.407 12.16C506.02 13.4933 504.34 14.16 502.367 14.16C500.394 14.16 498.714 13.52 497.327 12.24C495.94 10.9067 495.247 9.28 495.247 7.36C495.247 5.44 495.94 3.81333 497.327 2.48ZM521.718 23.2C525.984 18.9867 531.104 16.88 537.078 16.88C541.611 16.88 545.691 18.16 549.318 20.72C552.944 23.28 555.558 26.64 557.158 30.8L546.598 33.84C545.744 31.8667 544.464 30.2933 542.758 29.12C541.104 27.8933 539.211 27.28 537.078 27.28C533.984 27.28 531.371 28.4267 529.238 30.72C527.104 33.0133 526.038 35.7067 526.038 38.8C526.038 41.8933 527.104 44.5867 529.238 46.88C531.371 49.12 533.984 50.24 537.078 50.24C539.264 50.24 541.184 49.6533 542.838 48.48C544.491 47.2533 545.744 45.68 546.598 43.76L557.158 46.8C555.558 50.9067 552.944 54.24 549.318 56.8C545.744 59.36 541.664 60.64 537.078 60.64C530.998 60.64 525.824 58.5067 521.558 54.24C517.344 49.92 515.238 44.7733 515.238 38.8C515.238 32.6667 517.398 27.4667 521.718 23.2ZM590.694 23.2C594.801 18.9867 599.734 16.88 605.494 16.88C610.028 16.88 613.921 18.32 617.174 21.2V4H628.774V60H617.174V56.48C613.974 59.2533 610.081 60.64 605.494 60.64C599.788 60.64 594.854 58.48 590.694 54.16C586.588 49.84 584.534 44.72 584.534 38.8C584.534 32.6667 586.588 27.4667 590.694 23.2ZM595.334 38.8C595.334 41.8933 596.401 44.56 598.534 46.8C600.721 49.04 603.414 50.16 606.614 50.16C609.708 50.16 612.374 49.04 614.614 46.8C616.854 44.5067 617.974 41.84 617.974 38.8C617.974 35.76 616.854 33.0933 614.614 30.8C612.374 28.5067 609.708 27.36 606.614 27.36C603.414 27.36 600.721 28.5067 598.534 30.8C596.401 33.04 595.334 35.7067 595.334 38.8ZM649.141 17.6V60H637.541V17.6H649.141ZM638.421 2.48C639.807 1.14666 641.487 0.479999 643.461 0.479999C645.434 0.479999 647.114 1.14666 648.501 2.48C649.887 3.81333 650.581 5.44 650.581 7.36C650.581 9.28 649.887 10.88 648.501 12.16C647.114 13.4933 645.434 14.16 643.461 14.16C641.487 14.16 639.807 13.52 638.421 12.24C637.034 10.9067 636.341 9.28 636.341 7.36C636.341 5.44 637.034 3.81333 638.421 2.48ZM662.491 23.2C666.598 18.9867 671.531 16.88 677.291 16.88C681.825 16.88 685.718 18.32 688.971 21.2V4H700.571V60H688.971V56.48C685.771 59.2533 681.878 60.64 677.291 60.64C671.585 60.64 666.651 58.48 662.491 54.16C658.385 49.84 656.331 44.72 656.331 38.8C656.331 32.6667 658.385 27.4667 662.491 23.2ZM667.131 38.8C667.131 41.8933 668.198 44.56 670.331 46.8C672.518 49.04 675.211 50.16 678.411 50.16C681.505 50.16 684.171 49.04 686.411 46.8C688.651 44.5067 689.771 41.84 689.771 38.8C689.771 35.76 688.651 33.0933 686.411 30.8C684.171 28.5067 681.505 27.36 678.411 27.36C675.211 27.36 672.518 28.5067 670.331 30.8C668.198 33.04 667.131 35.7067 667.131 38.8ZM53.1984 116.6H65.5184L76.5584 145.16L87.0384 116.6H99.3584L75.9184 175.8H63.9184L70.6384 158.76L53.1984 116.6ZM106.202 122.28C110.469 118.013 115.616 115.88 121.642 115.88C127.616 115.88 132.736 118.04 137.002 122.36C141.322 126.627 143.482 131.747 143.482 137.72C143.482 143.747 141.349 148.92 137.082 153.24C132.816 157.507 127.669 159.64 121.642 159.64C115.669 159.64 110.522 157.48 106.202 153.16C101.936 148.84 99.8022 143.693 99.8022 137.72C99.8022 131.747 101.936 126.6 106.202 122.28ZM110.602 137.72C110.602 140.813 111.669 143.48 113.802 145.72C115.936 147.96 118.549 149.08 121.642 149.08C124.736 149.08 127.349 147.96 129.482 145.72C131.616 143.48 132.682 140.813 132.682 137.72C132.682 134.627 131.616 131.987 129.482 129.8C127.349 127.56 124.736 126.44 121.642 126.44C118.549 126.44 115.936 127.56 113.802 129.8C111.669 131.987 110.602 134.627 110.602 137.72ZM149.68 116.6H161.28V139.96C161.28 142.627 162.08 144.787 163.68 146.44C165.333 148.093 167.333 148.92 169.68 148.92C172.506 148.92 174.773 147.933 176.48 145.96C178.24 143.933 179.12 141.453 179.12 138.52V116.6H190.72V159H179.12V155.08C175.92 158.173 171.973 159.72 167.28 159.72C162.48 159.72 158.346 158.2 154.88 155.16C151.413 152.067 149.68 147.987 149.68 142.92V116.6ZM219.164 116.6H225.964V115C225.964 111.907 226.684 109.293 228.124 107.16C229.617 105.027 231.537 103.56 233.884 102.76C236.231 101.907 238.711 101.48 241.324 101.48C241.377 101.48 242.097 101.507 243.484 101.56C244.924 101.56 246.977 101.987 249.644 102.84V111.4C247.617 110.76 246.071 110.413 245.004 110.36C243.991 110.253 243.377 110.2 243.164 110.2C241.671 110.2 240.284 110.547 239.004 111.24C237.724 111.933 237.084 113.187 237.084 115V116.6H248.844V126.6H237.564L237.644 159H226.204L225.964 126.6H219.164V116.6ZM259.725 122.2C263.992 117.987 269.112 115.88 275.085 115.88C280.259 115.88 284.845 117.533 288.845 120.84C292.845 124.147 295.379 128.307 296.445 133.32C296.819 134.92 297.005 136.467 297.005 137.96C297.005 139.4 296.845 140.787 296.525 142.12H264.685C265.325 144.467 266.579 146.28 268.445 147.56C270.312 148.787 272.525 149.4 275.085 149.4C279.139 149.4 282.472 148.2 285.085 145.8L295.165 148.68C293.512 151.987 290.765 154.653 286.925 156.68C283.085 158.653 279.139 159.64 275.085 159.64C269.005 159.64 263.832 157.507 259.565 153.24C255.352 148.92 253.245 143.773 253.245 137.8C253.245 131.667 255.405 126.467 259.725 122.2ZM264.685 133.32H285.245C284.605 131.293 283.379 129.587 281.565 128.2C279.752 126.813 277.565 126.12 275.005 126.12C272.445 126.12 270.232 126.813 268.365 128.2C266.552 129.587 265.325 131.293 264.685 133.32ZM308.319 122.2C312.586 117.987 317.706 115.88 323.679 115.88C328.852 115.88 333.439 117.533 337.439 120.84C341.439 124.147 343.972 128.307 345.039 133.32C345.412 134.92 345.599 136.467 345.599 137.96C345.599 139.4 345.439 140.787 345.119 142.12H313.279C313.919 144.467 315.172 146.28 317.039 147.56C318.906 148.787 321.119 149.4 323.679 149.4C327.732 149.4 331.066 148.2 333.679 145.8L343.759 148.68C342.106 151.987 339.359 154.653 335.519 156.68C331.679 158.653 327.732 159.64 323.679 159.64C317.599 159.64 312.426 157.507 308.159 153.24C303.946 148.92 301.839 143.773 301.839 137.8C301.839 131.667 303.999 126.467 308.319 122.2ZM313.279 133.32H333.839C333.199 131.293 331.972 129.587 330.159 128.2C328.346 126.813 326.159 126.12 323.599 126.12C321.039 126.12 318.826 126.813 316.959 128.2C315.146 129.587 313.919 131.293 313.279 133.32ZM352.414 159V103H364.014V159H352.414ZM392.455 116.6H399.655V107.32L411.095 104.04V116.6H423.335V126.6H411.095V144.76C411.095 145.88 411.548 146.813 412.455 147.56C413.361 148.307 414.321 148.733 415.335 148.84C416.401 148.893 417.041 148.92 417.255 148.92C419.068 148.92 421.281 148.413 423.895 147.4V158.6C420.855 159.453 418.028 159.88 415.415 159.88C412.161 159.88 408.721 158.947 405.095 157.08C401.468 155.16 399.655 151.08 399.655 144.84V126.6H392.455V116.6ZM434.093 122.28C438.359 118.013 443.506 115.88 449.533 115.88C455.506 115.88 460.626 118.04 464.893 122.36C469.213 126.627 471.373 131.747 471.373 137.72C471.373 143.747 469.239 148.92 464.973 153.24C460.706 157.507 455.559 159.64 449.533 159.64C443.559 159.64 438.413 157.48 434.093 153.16C429.826 148.84 427.693 143.693 427.693 137.72C427.693 131.747 429.826 126.6 434.093 122.28ZM438.493 137.72C438.493 140.813 439.559 143.48 441.693 145.72C443.826 147.96 446.439 149.08 449.533 149.08C452.626 149.08 455.239 147.96 457.373 145.72C459.506 143.48 460.573 140.813 460.573 137.72C460.573 134.627 459.506 131.987 457.373 129.8C455.239 127.56 452.626 126.44 449.533 126.44C446.439 126.44 443.826 127.56 441.693 129.8C439.559 131.987 438.493 134.627 438.493 137.72ZM482.14 122.2C486.246 117.987 491.18 115.88 496.94 115.88C501.473 115.88 505.366 117.32 508.62 120.2V103H520.22V159H508.62V155.48C505.42 158.253 501.526 159.64 496.94 159.64C491.233 159.64 486.3 157.48 482.14 153.16C478.033 148.84 475.98 143.72 475.98 137.8C475.98 131.667 478.033 126.467 482.14 122.2ZM486.78 137.8C486.78 140.893 487.846 143.56 489.98 145.8C492.166 148.04 494.86 149.16 498.06 149.16C501.153 149.16 503.82 148.04 506.06 145.8C508.3 143.507 509.42 140.84 509.42 137.8C509.42 134.76 508.3 132.093 506.06 129.8C503.82 127.507 501.153 126.36 498.06 126.36C494.86 126.36 492.166 127.507 489.98 129.8C487.846 132.04 486.78 134.707 486.78 137.8ZM533.546 122.2C537.653 117.987 542.586 115.88 548.346 115.88C552.879 115.88 556.773 117.32 560.026 120.2V116.6H571.626V159H560.026V155.48C556.826 158.253 552.933 159.64 548.346 159.64C542.639 159.64 537.706 157.48 533.546 153.16C529.439 148.84 527.386 143.72 527.386 137.8C527.386 131.667 529.439 126.467 533.546 122.2ZM538.186 137.8C538.186 140.893 539.253 143.56 541.386 145.8C543.573 148.04 546.266 149.16 549.466 149.16C552.559 149.16 555.226 148.04 557.466 145.8C559.706 143.507 560.826 140.84 560.826 137.8C560.826 134.76 559.706 132.093 557.466 129.8C555.226 127.507 552.559 126.36 549.466 126.36C546.266 126.36 543.573 127.507 541.386 129.8C539.253 132.04 538.186 134.707 538.186 137.8ZM576.792 116.6H589.112L600.152 145.16L610.632 116.6H622.952L599.512 175.8H587.512L594.232 158.76L576.792 116.6ZM628.353 121.16C628.407 115.293 630.353 110.68 634.193 107.32C638.087 103.96 642.78 102.28 648.273 102.28C653.5 102.28 657.98 103.933 661.713 107.24C665.5 110.547 667.393 114.653 667.393 119.56C667.393 121.853 666.913 123.827 665.953 125.48C664.993 127.133 663.82 128.44 662.433 129.4C661.1 130.36 659.74 131.24 658.353 132.04C656.967 132.84 655.767 133.8 654.753 134.92C653.793 135.987 653.287 137.24 653.233 138.68L653.153 141.4H641.953V136.12C641.953 133.88 642.673 131.907 644.113 130.2C645.607 128.493 647.233 127.213 648.993 126.36C650.753 125.453 652.353 124.413 653.793 123.24C655.287 122.013 656.033 120.787 656.033 119.56C656.033 117.8 655.367 116.307 654.033 115.08C652.7 113.8 650.833 113.133 648.433 113.08C648.327 113.08 648.247 113.08 648.193 113.08C645.74 113.08 643.767 113.827 642.273 115.32C640.833 116.76 640.06 118.707 639.953 121.16H628.353ZM643.153 147.48C644.487 146.147 646.14 145.48 648.113 145.48C650.087 145.48 651.74 146.173 653.073 147.56C654.46 148.893 655.153 150.547 655.153 152.52C655.153 154.493 654.487 156.147 653.153 157.48C651.767 158.813 650.087 159.48 648.113 159.48C646.14 159.48 644.46 158.813 643.073 157.48C641.74 156.147 641.073 154.493 641.073 152.52C641.073 150.547 641.767 148.867 643.153 147.48Z"/><path stroke="#00CC8D" stroke-linecap="round" stroke-width="10" d="M179 61C253.63 93.3913 334.512 92.9998 413.866 92.9998C429.417 92.9998 444.147 90.4407 459.545 88.6414C467.397 87.7239 474.944 84.1811 482.735 83.7669C489.514 83.4064 495.394 79.9172 502.042 79.5805C511.423 79.1055 520.797 75.4791 529.439 72.3548C532.667 71.1875 535.805 70.8155 539.092 70.2329C540.678 69.9519 542.129 67.691 544 67.1935"/></svg>