<svg width="905" height="275" viewBox="0 0 905 275" fill="none" xmlns="http://www.w3.org/2000/svg">
<path d="M0.454688 4H12.0547V21.52C15.2547 18.4267 19.2014 16.88 23.8947 16.88C28.6947 16.88 32.828 18.4267 36.2947 21.52C39.7614 24.56 41.4947 28.6133 41.4947 33.68V60H29.8947V36.64C29.8947 33.9733 29.068 31.8133 27.4147 30.16C25.8147 28.5067 23.8414 27.68 21.4947 27.68C18.668 27.68 16.3747 28.6933 14.6147 30.72C12.908 32.6933 12.0547 35.1467 12.0547 38.08V60H0.454688V4ZM54.0772 23.28C58.3439 19.0133 63.4905 16.88 69.5172 16.88C75.4905 16.88 80.6105 19.04 84.8772 23.36C89.1972 27.6267 91.3572 32.7467 91.3572 38.72C91.3572 44.7467 89.2239 49.92 84.9572 54.24C80.6905 58.5067 75.5439 60.64 69.5172 60.64C63.5439 60.64 58.3972 58.48 54.0772 54.16C49.8105 49.84 47.6772 44.6933 47.6772 38.72C47.6772 32.7467 49.8105 27.6 54.0772 23.28ZM58.4772 38.72C58.4772 41.8133 59.5439 44.48 61.6772 46.72C63.8105 48.96 66.4239 50.08 69.5172 50.08C72.6105 50.08 75.2239 48.96 77.3572 46.72C79.4905 44.48 80.5572 41.8133 80.5572 38.72C80.5572 35.6267 79.4905 32.9867 77.3572 30.8C75.2239 28.56 72.6105 27.44 69.5172 27.44C66.4239 27.44 63.8105 28.56 61.6772 30.8C59.5439 32.9867 58.4772 35.6267 58.4772 38.72ZM93.5234 17.6H105.043L110.883 48L117.843 17.6H131.763L138.723 48.08L144.483 17.6H156.083L146.483 60H131.443L124.803 28.32L118.163 60H103.123L93.5234 17.6ZM195.883 17.6V21.52C199.083 18.4267 202.629 16.88 206.523 16.88C211.856 16.88 216.123 19.04 219.323 23.36C221.083 21.3333 223.189 19.76 225.643 18.64C228.096 17.4667 230.576 16.88 233.083 16.88C237.349 16.88 241.083 18.4 244.283 21.44C247.483 24.4267 249.083 28.5067 249.083 33.68V60H237.483V36.24C237.483 33.52 236.896 31.3867 235.723 29.84C234.603 28.24 232.923 27.44 230.683 27.44C225.829 27.44 223.109 30.2667 222.523 35.92V60H210.923V36.24C210.923 33.52 210.336 31.3867 209.163 29.84C208.043 28.24 206.363 27.44 204.123 27.44C201.296 27.44 199.216 28.4 197.883 30.32C196.549 32.1867 195.883 34.64 195.883 37.68V60H184.283V17.6H195.883ZM256.695 17.6H268.295V40.96C268.295 43.6267 269.095 45.7867 270.695 47.44C272.349 49.0933 274.349 49.92 276.695 49.92C279.522 49.92 281.789 48.9333 283.495 46.96C285.255 44.9333 286.135 42.4533 286.135 39.52V17.6H297.735V60H286.135V56.08C282.935 59.1733 278.989 60.72 274.295 60.72C269.495 60.72 265.362 59.2 261.895 56.16C258.429 53.0667 256.695 48.9867 256.695 43.92V17.6ZM311.428 23.2C315.695 18.9867 320.815 16.88 326.788 16.88C331.322 16.88 335.402 18.16 339.028 20.72C342.655 23.28 345.268 26.64 346.868 30.8L336.308 33.84C335.455 31.8667 334.175 30.2933 332.468 29.12C330.815 27.8933 328.922 27.28 326.788 27.28C323.695 27.28 321.082 28.4267 318.948 30.72C316.815 33.0133 315.748 35.7067 315.748 38.8C315.748 41.8933 316.815 44.5867 318.948 46.88C321.082 49.12 323.695 50.24 326.788 50.24C328.975 50.24 330.895 49.6533 332.548 48.48C334.202 47.2533 335.455 45.68 336.308 43.76L346.868 46.8C345.268 50.9067 342.655 54.24 339.028 56.8C335.455 59.36 331.375 60.64 326.788 60.64C320.708 60.64 315.535 58.5067 311.268 54.24C307.055 49.92 304.948 44.7733 304.948 38.8C304.948 32.6667 307.108 27.4667 311.428 23.2ZM353.033 4H364.633V21.52C367.833 18.4267 371.779 16.88 376.473 16.88C381.273 16.88 385.406 18.4267 388.873 21.52C392.339 24.56 394.073 28.6133 394.073 33.68V60H382.473V36.64C382.473 33.9733 381.646 31.8133 379.993 30.16C378.393 28.5067 376.419 27.68 374.073 27.68C371.246 27.68 368.953 28.6933 367.193 30.72C365.486 32.6933 364.633 35.1467 364.633 38.08V60H353.033V4ZM422.517 17.6H429.717V8.32L441.157 5.04V17.6H453.397V27.6H441.157V45.76C441.157 46.88 441.611 47.8133 442.517 48.56C443.424 49.3067 444.384 49.7333 445.397 49.84C446.464 49.8933 447.104 49.92 447.317 49.92C449.131 49.92 451.344 49.4133 453.957 48.4V59.6C450.917 60.4533 448.091 60.88 445.477 60.88C442.224 60.88 438.784 59.9467 435.157 58.08C431.531 56.16 429.717 52.08 429.717 45.84V27.6H422.517V17.6ZM472.758 17.6V60H461.158V17.6H472.758ZM462.038 2.48C463.424 1.14666 465.104 0.479999 467.078 0.479999C469.051 0.479999 470.731 1.14666 472.118 2.48C473.504 3.81333 474.198 5.44 474.198 7.36C474.198 9.28 473.504 10.88 472.118 12.16C470.731 13.4933 469.051 14.16 467.078 14.16C465.104 14.16 463.424 13.52 462.038 12.24C460.651 10.9067 459.958 9.28 459.958 7.36C459.958 5.44 460.651 3.81333 462.038 2.48ZM493.148 17.6V21.52C496.348 18.4267 499.895 16.88 503.788 16.88C509.122 16.88 513.388 19.04 516.588 23.36C518.348 21.3333 520.455 19.76 522.908 18.64C525.362 17.4667 527.842 16.88 530.348 16.88C534.615 16.88 538.348 18.4 541.548 21.44C544.748 24.4267 546.348 28.5067 546.348 33.68V60H534.748V36.24C534.748 33.52 534.162 31.3867 532.988 29.84C531.868 28.24 530.188 27.44 527.948 27.44C523.095 27.44 520.375 30.2667 519.788 35.92V60H508.188V36.24C508.188 33.52 507.602 31.3867 506.428 29.84C505.308 28.24 503.628 27.44 501.388 27.44C498.562 27.44 496.482 28.4 495.148 30.32C493.815 32.1867 493.148 34.64 493.148 37.68V60H481.548V17.6H493.148ZM558.85 23.2C563.117 18.9867 568.237 16.88 574.21 16.88C579.384 16.88 583.97 18.5333 587.97 21.84C591.97 25.1467 594.504 29.3067 595.57 34.32C595.944 35.92 596.13 37.4667 596.13 38.96C596.13 40.4 595.97 41.7867 595.65 43.12H563.81C564.45 45.4667 565.704 47.28 567.57 48.56C569.437 49.7867 571.65 50.4 574.21 50.4C578.264 50.4 581.597 49.2 584.21 46.8L594.29 49.68C592.637 52.9867 589.89 55.6533 586.05 57.68C582.21 59.6533 578.264 60.64 574.21 60.64C568.13 60.64 562.957 58.5067 558.69 54.24C554.477 49.92 552.37 44.7733 552.37 38.8C552.37 32.6667 554.53 27.4667 558.85 23.2ZM563.81 34.32H584.37C583.73 32.2933 582.504 30.5867 580.69 29.2C578.877 27.8133 576.69 27.12 574.13 27.12C571.57 27.12 569.357 27.8133 567.49 29.2C565.677 30.5867 564.45 32.2933 563.81 34.32ZM629.937 23.2C634.043 18.9867 638.977 16.88 644.737 16.88C649.27 16.88 653.163 18.32 656.417 21.2V4H668.017V60H656.417V56.48C653.217 59.2533 649.323 60.64 644.737 60.64C639.03 60.64 634.097 58.48 629.937 54.16C625.83 49.84 623.777 44.72 623.777 38.8C623.777 32.6667 625.83 27.4667 629.937 23.2ZM634.577 38.8C634.577 41.8933 635.643 44.56 637.777 46.8C639.963 49.04 642.657 50.16 645.857 50.16C648.95 50.16 651.617 49.04 653.857 46.8C656.097 44.5067 657.217 41.84 657.217 38.8C657.217 35.76 656.097 33.0933 653.857 30.8C651.617 28.5067 648.95 27.36 645.857 27.36C642.657 27.36 639.963 28.5067 637.777 30.8C635.643 33.04 634.577 35.7067 634.577 38.8ZM688.383 17.6V60H676.783V17.6H688.383ZM677.663 2.48C679.049 1.14666 680.729 0.479999 682.703 0.479999C684.676 0.479999 686.356 1.14666 687.743 2.48C689.129 3.81333 689.823 5.44 689.823 7.36C689.823 9.28 689.129 10.88 687.743 12.16C686.356 13.4933 684.676 14.16 682.703 14.16C680.729 14.16 679.049 13.52 677.663 12.24C676.276 10.9067 675.583 9.28 675.583 7.36C675.583 5.44 676.276 3.81333 677.663 2.48ZM701.733 23.2C705.84 18.9867 710.773 16.88 716.533 16.88C721.067 16.88 724.96 18.32 728.213 21.2V4H739.813V60H728.213V56.48C725.013 59.2533 721.12 60.64 716.533 60.64C710.827 60.64 705.893 58.48 701.733 54.16C697.627 49.84 695.573 44.72 695.573 38.8C695.573 32.6667 697.627 27.4667 701.733 23.2ZM706.373 38.8C706.373 41.8933 707.44 44.56 709.573 46.8C711.76 49.04 714.453 50.16 717.653 50.16C720.747 50.16 723.413 49.04 725.653 46.8C727.893 44.5067 729.013 41.84 729.013 38.8C729.013 35.76 727.893 33.0933 725.653 30.8C723.413 28.5067 720.747 27.36 717.653 27.36C714.453 27.36 711.76 28.5067 709.573 30.8C707.44 33.04 706.373 35.7067 706.373 38.8ZM767.011 17.6H779.331L790.371 46.16L800.851 17.6H813.171L789.731 76.8H777.731L784.451 59.76L767.011 17.6ZM820.015 23.28C824.281 19.0133 829.428 16.88 835.455 16.88C841.428 16.88 846.548 19.04 850.815 23.36C855.135 27.6267 857.295 32.7467 857.295 38.72C857.295 44.7467 855.161 49.92 850.895 54.24C846.628 58.5067 841.481 60.64 835.455 60.64C829.481 60.64 824.335 58.48 820.015 54.16C815.748 49.84 813.615 44.6933 813.615 38.72C813.615 32.7467 815.748 27.6 820.015 23.28ZM824.415 38.72C824.415 41.8133 825.481 44.48 827.615 46.72C829.748 48.96 832.361 50.08 835.455 50.08C838.548 50.08 841.161 48.96 843.295 46.72C845.428 44.48 846.495 41.8133 846.495 38.72C846.495 35.6267 845.428 32.9867 843.295 30.8C841.161 28.56 838.548 27.44 835.455 27.44C832.361 27.44 829.748 28.56 827.615 30.8C825.481 32.9867 824.415 35.6267 824.415 38.72ZM863.492 17.6H875.092V40.96C875.092 43.6267 875.892 45.7867 877.492 47.44C879.146 49.0933 881.146 49.92 883.492 49.92C886.319 49.92 888.586 48.9333 890.292 46.96C892.052 44.9333 892.932 42.4533 892.932 39.52V17.6H904.532V60H892.932V56.08C889.732 59.1733 885.786 60.72 881.092 60.72C876.292 60.72 872.159 59.2 868.692 56.16C865.226 53.0667 863.492 48.9867 863.492 43.92V17.6ZM108.461 119.4C111.715 117.053 115.981 115.88 121.261 115.88C127.288 115.88 132.728 117.16 137.581 119.72V130.68C131.075 127.427 125.635 125.8 121.261 125.8C119.395 125.8 117.981 126.12 117.021 126.76C116.061 127.347 115.581 128.093 115.581 129C115.581 129.533 115.741 130.013 116.061 130.44C116.435 130.813 116.995 131.16 117.741 131.48C118.541 131.747 119.315 131.96 120.061 132.12C120.808 132.28 121.821 132.52 123.101 132.84C124.435 133.107 125.555 133.347 126.461 133.56C135.315 135.907 139.741 140.307 139.741 146.76C139.741 149.107 139.181 151.16 138.061 152.92C136.995 154.68 135.555 156.04 133.741 157C131.981 157.907 130.115 158.573 128.141 159C126.221 159.427 124.195 159.64 122.061 159.64C116.301 159.64 110.621 158.067 105.021 154.92V143.4C107.101 144.84 109.741 146.227 112.941 147.56C116.195 148.893 119.235 149.56 122.061 149.56C125.901 149.56 127.821 148.547 127.821 146.52C127.821 145.4 127.075 144.52 125.581 143.88C124.088 143.187 121.581 142.467 118.061 141.72C113.101 140.653 109.448 139.133 107.101 137.16C104.755 135.187 103.581 132.493 103.581 129.08C103.581 124.973 105.208 121.747 108.461 119.4ZM144.938 116.6H156.538V120.12C159.738 117.347 163.631 115.96 168.218 115.96C173.924 115.96 178.831 118.12 182.938 122.44C187.098 126.76 189.178 131.88 189.178 137.8C189.178 143.933 187.124 149.107 183.018 153.32C178.911 157.533 173.978 159.64 168.218 159.64C163.684 159.64 159.791 158.2 156.538 155.32V175.8H144.938V116.6ZM155.738 137.8C155.738 140.84 156.858 143.507 159.098 145.8C161.338 148.093 164.004 149.24 167.098 149.24C170.298 149.24 172.964 148.12 175.098 145.88C177.284 143.587 178.378 140.893 178.378 137.8C178.378 134.707 177.284 132.04 175.098 129.8C172.964 127.56 170.298 126.44 167.098 126.44C164.004 126.44 161.338 127.587 159.098 129.88C156.858 132.12 155.738 134.76 155.738 137.8ZM200.452 122.2C204.719 117.987 209.839 115.88 215.812 115.88C220.985 115.88 225.572 117.533 229.572 120.84C233.572 124.147 236.105 128.307 237.172 133.32C237.545 134.92 237.732 136.467 237.732 137.96C237.732 139.4 237.572 140.787 237.252 142.12H205.412C206.052 144.467 207.305 146.28 209.172 147.56C211.039 148.787 213.252 149.4 215.812 149.4C219.865 149.4 223.199 148.2 225.812 145.8L235.892 148.68C234.239 151.987 231.492 154.653 227.652 156.68C223.812 158.653 219.865 159.64 215.812 159.64C209.732 159.64 204.559 157.507 200.292 153.24C196.079 148.92 193.972 143.773 193.972 137.8C193.972 131.667 196.132 126.467 200.452 122.2ZM205.412 133.32H225.972C225.332 131.293 224.105 129.587 222.292 128.2C220.479 126.813 218.292 126.12 215.732 126.12C213.172 126.12 210.959 126.813 209.092 128.2C207.279 129.587 206.052 131.293 205.412 133.32ZM243.766 116.6H255.366V120.52C258.566 117.427 262.512 115.88 267.206 115.88C272.006 115.88 276.139 117.427 279.606 120.52C283.072 123.56 284.806 127.613 284.806 132.68V159H273.206V135.64C273.206 132.973 272.379 130.813 270.726 129.16C269.126 127.507 267.152 126.68 264.806 126.68C261.979 126.68 259.686 127.693 257.926 129.72C256.219 131.693 255.366 134.147 255.366 137.08V159H243.766V116.6ZM297.007 122.2C301.114 117.987 306.047 115.88 311.807 115.88C316.34 115.88 320.234 117.32 323.487 120.2V103H335.087V159H323.487V155.48C320.287 158.253 316.394 159.64 311.807 159.64C306.1 159.64 301.167 157.48 297.007 153.16C292.9 148.84 290.847 143.72 290.847 137.8C290.847 131.667 292.9 126.467 297.007 122.2ZM301.647 137.8C301.647 140.893 302.714 143.56 304.847 145.8C307.034 148.04 309.727 149.16 312.927 149.16C316.02 149.16 318.687 148.04 320.927 145.8C323.167 143.507 324.287 140.84 324.287 137.8C324.287 134.76 323.167 132.093 320.927 129.8C318.687 127.507 316.02 126.36 312.927 126.36C309.727 126.36 307.034 127.507 304.847 129.8C302.714 132.04 301.647 134.707 301.647 137.8ZM370.444 122.28C374.711 118.013 379.858 115.88 385.884 115.88C391.858 115.88 396.978 118.04 401.244 122.36C405.564 126.627 407.724 131.747 407.724 137.72C407.724 143.747 405.591 148.92 401.324 153.24C397.058 157.507 391.911 159.64 385.884 159.64C379.911 159.64 374.764 157.48 370.444 153.16C366.178 148.84 364.044 143.693 364.044 137.72C364.044 131.747 366.178 126.6 370.444 122.28ZM374.844 137.72C374.844 140.813 375.911 143.48 378.044 145.72C380.178 147.96 382.791 149.08 385.884 149.08C388.978 149.08 391.591 147.96 393.724 145.72C395.858 143.48 396.924 140.813 396.924 137.72C396.924 134.627 395.858 131.987 393.724 129.8C391.591 127.56 388.978 126.44 385.884 126.44C382.791 126.44 380.178 127.56 378.044 129.8C375.911 131.987 374.844 134.627 374.844 137.72ZM413.531 116.6H425.131V120.52C428.331 117.427 432.278 115.88 436.971 115.88C441.771 115.88 445.905 117.427 449.371 120.52C452.838 123.56 454.571 127.613 454.571 132.68V159H442.971V135.64C442.971 132.973 442.145 130.813 440.491 129.16C438.891 127.507 436.918 126.68 434.571 126.68C431.745 126.68 429.451 127.693 427.691 129.72C425.985 131.693 425.131 134.147 425.131 137.08V159H413.531V116.6ZM484.234 116.6H495.834V120.12C499.034 117.347 502.928 115.96 507.514 115.96C513.221 115.96 518.128 118.12 522.234 122.44C526.394 126.76 528.474 131.88 528.474 137.8C528.474 143.933 526.421 149.107 522.314 153.32C518.208 157.533 513.274 159.64 507.514 159.64C502.981 159.64 499.088 158.2 495.834 155.32V175.8H484.234V116.6ZM495.034 137.8C495.034 140.84 496.154 143.507 498.394 145.8C500.634 148.093 503.301 149.24 506.394 149.24C509.594 149.24 512.261 148.12 514.394 145.88C516.581 143.587 517.674 140.893 517.674 137.8C517.674 134.707 516.581 132.04 514.394 129.8C512.261 127.56 509.594 126.44 506.394 126.44C503.301 126.44 500.634 127.587 498.394 129.88C496.154 132.12 495.034 134.76 495.034 137.8ZM535.65 103H547.25V120.52C550.45 117.427 554.397 115.88 559.09 115.88C563.89 115.88 568.023 117.427 571.49 120.52C574.957 123.56 576.69 127.613 576.69 132.68V159H565.09V135.64C565.09 132.973 564.263 130.813 562.61 129.16C561.01 127.507 559.037 126.68 556.69 126.68C553.863 126.68 551.57 127.693 549.81 129.72C548.103 131.693 547.25 134.147 547.25 137.08V159H535.65V103ZM579.081 116.6H591.401L602.441 145.16L612.921 116.6H625.241L601.801 175.8H589.801L596.521 158.76L579.081 116.6ZM633.461 119.4C636.715 117.053 640.981 115.88 646.261 115.88C652.288 115.88 657.728 117.16 662.581 119.72V130.68C656.075 127.427 650.635 125.8 646.261 125.8C644.395 125.8 642.981 126.12 642.021 126.76C641.061 127.347 640.581 128.093 640.581 129C640.581 129.533 640.741 130.013 641.061 130.44C641.435 130.813 641.995 131.16 642.741 131.48C643.541 131.747 644.315 131.96 645.061 132.12C645.808 132.28 646.821 132.52 648.101 132.84C649.435 133.107 650.555 133.347 651.461 133.56C660.315 135.907 664.741 140.307 664.741 146.76C664.741 149.107 664.181 151.16 663.061 152.92C661.995 154.68 660.555 156.04 658.741 157C656.981 157.907 655.115 158.573 653.141 159C651.221 159.427 649.195 159.64 647.061 159.64C641.301 159.64 635.621 158.067 630.021 154.92V143.4C632.101 144.84 634.741 146.227 637.941 147.56C641.195 148.893 644.235 149.56 647.061 149.56C650.901 149.56 652.821 148.547 652.821 146.52C652.821 145.4 652.075 144.52 650.581 143.88C649.088 143.187 646.581 142.467 643.061 141.72C638.101 140.653 634.448 139.133 632.101 137.16C629.755 135.187 628.581 132.493 628.581 129.08C628.581 124.973 630.208 121.747 633.461 119.4ZM682.328 116.6V159H670.728V116.6H682.328ZM671.608 101.48C672.995 100.147 674.675 99.48 676.648 99.48C678.621 99.48 680.301 100.147 681.688 101.48C683.075 102.813 683.768 104.44 683.768 106.36C683.768 108.28 683.075 109.88 681.688 111.16C680.301 112.493 678.621 113.16 676.648 113.16C674.675 113.16 672.995 112.52 671.608 111.24C670.221 109.907 669.528 108.28 669.528 106.36C669.528 104.44 670.221 102.813 671.608 101.48ZM695.999 122.2C700.265 117.987 705.385 115.88 711.359 115.88C715.892 115.88 719.972 117.16 723.599 119.72C727.225 122.28 729.839 125.64 731.439 129.8L720.879 132.84C720.025 130.867 718.745 129.293 717.039 128.12C715.385 126.893 713.492 126.28 711.359 126.28C708.265 126.28 705.652 127.427 703.519 129.72C701.385 132.013 700.319 134.707 700.319 137.8C700.319 140.893 701.385 143.587 703.519 145.88C705.652 148.12 708.265 149.24 711.359 149.24C713.545 149.24 715.465 148.653 717.119 147.48C718.772 146.253 720.025 144.68 720.879 142.76L731.439 145.8C729.839 149.907 727.225 153.24 723.599 155.8C720.025 158.36 715.945 159.64 711.359 159.64C705.279 159.64 700.105 157.507 695.839 153.24C691.625 148.92 689.519 143.773 689.519 137.8C689.519 131.667 691.679 126.467 695.999 122.2ZM742.163 122.2C746.27 117.987 751.203 115.88 756.963 115.88C761.496 115.88 765.39 117.32 768.643 120.2V116.6H780.243V159H768.643V155.48C765.443 158.253 761.55 159.64 756.963 159.64C751.256 159.64 746.323 157.48 742.163 153.16C738.056 148.84 736.003 143.72 736.003 137.8C736.003 131.667 738.056 126.467 742.163 122.2ZM746.803 137.8C746.803 140.893 747.87 143.56 750.003 145.8C752.19 148.04 754.883 149.16 758.083 149.16C761.176 149.16 763.843 148.04 766.083 145.8C768.323 143.507 769.443 140.84 769.443 137.8C769.443 134.76 768.323 132.093 766.083 129.8C763.843 127.507 761.176 126.36 758.083 126.36C754.883 126.36 752.19 127.507 750.003 129.8C747.87 132.04 746.803 134.707 746.803 137.8ZM788.609 159V103H800.209V159H788.609ZM156.343 221.2C160.449 216.987 165.383 214.88 171.143 214.88C175.676 214.88 179.569 216.32 182.823 219.2V215.6H194.423V258H182.823V254.48C179.623 257.253 175.729 258.64 171.143 258.64C165.436 258.64 160.503 256.48 156.343 252.16C152.236 247.84 150.183 242.72 150.183 236.8C150.183 230.667 152.236 225.467 156.343 221.2ZM160.983 236.8C160.983 239.893 162.049 242.56 164.183 244.8C166.369 247.04 169.063 248.16 172.263 248.16C175.356 248.16 178.023 247.04 180.263 244.8C182.503 242.507 183.623 239.84 183.623 236.8C183.623 233.76 182.503 231.093 180.263 228.8C178.023 226.507 175.356 225.36 172.263 225.36C169.063 225.36 166.369 226.507 164.183 228.8C162.049 231.04 160.983 233.707 160.983 236.8ZM208.069 221.2C212.336 216.987 217.456 214.88 223.429 214.88C227.962 214.88 232.042 216.16 235.669 218.72C239.296 221.28 241.909 224.64 243.509 228.8L232.949 231.84C232.096 229.867 230.816 228.293 229.109 227.12C227.456 225.893 225.562 225.28 223.429 225.28C220.336 225.28 217.722 226.427 215.589 228.72C213.456 231.013 212.389 233.707 212.389 236.8C212.389 239.893 213.456 242.587 215.589 244.88C217.722 247.12 220.336 248.24 223.429 248.24C225.616 248.24 227.536 247.653 229.189 246.48C230.842 245.253 232.096 243.68 232.949 241.76L243.509 244.8C241.909 248.907 239.296 252.24 235.669 254.8C232.096 257.36 228.016 258.64 223.429 258.64C217.349 258.64 212.176 256.507 207.909 252.24C203.696 247.92 201.589 242.773 201.589 236.8C201.589 230.667 203.749 225.467 208.069 221.2ZM246.892 215.6H254.092V206.32L265.532 203.04V215.6H277.772V225.6H265.532V243.76C265.532 244.88 265.986 245.813 266.892 246.56C267.799 247.307 268.759 247.733 269.772 247.84C270.839 247.893 271.479 247.92 271.692 247.92C273.506 247.92 275.719 247.413 278.332 246.4V257.6C275.292 258.453 272.466 258.88 269.852 258.88C266.599 258.88 263.159 257.947 259.532 256.08C255.906 254.16 254.092 250.08 254.092 243.84V225.6H246.892V215.6ZM297.133 215.6V258H285.533V215.6H297.133ZM286.413 200.48C287.799 199.147 289.479 198.48 291.453 198.48C293.426 198.48 295.106 199.147 296.493 200.48C297.879 201.813 298.573 203.44 298.573 205.36C298.573 207.28 297.879 208.88 296.493 210.16C295.106 211.493 293.426 212.16 291.453 212.16C289.479 212.16 287.799 211.52 286.413 210.24C285.026 208.907 284.333 207.28 284.333 205.36C284.333 203.44 285.026 201.813 286.413 200.48ZM303.523 215.6H315.843L325.603 250L335.363 215.6H347.763L334.963 258H316.323L303.523 215.6ZM365.727 215.6V258H354.127V215.6H365.727ZM355.007 200.48C356.393 199.147 358.073 198.48 360.047 198.48C362.02 198.48 363.7 199.147 365.087 200.48C366.473 201.813 367.167 203.44 367.167 205.36C367.167 207.28 366.473 208.88 365.087 210.16C363.7 211.493 362.02 212.16 360.047 212.16C358.073 212.16 356.393 211.52 355.007 210.24C353.62 208.907 352.927 207.28 352.927 205.36C352.927 203.44 353.62 201.813 355.007 200.48ZM372.517 215.6H379.717V206.32L391.157 203.04V215.6H403.397V225.6H391.157V243.76C391.157 244.88 391.611 245.813 392.517 246.56C393.424 247.307 394.384 247.733 395.397 247.84C396.464 247.893 397.104 247.92 397.317 247.92C399.131 247.92 401.344 247.413 403.957 246.4V257.6C400.917 258.453 398.091 258.88 395.477 258.88C392.224 258.88 388.784 257.947 385.157 256.08C381.531 254.16 379.717 250.08 379.717 243.84V225.6H372.517V215.6ZM407.558 215.6H419.878L430.918 244.16L441.398 215.6H453.718L430.278 274.8H418.278L424.998 257.76L407.558 215.6ZM479.47 215.6H486.67V206.32L498.11 203.04V215.6H510.35V225.6H498.11V243.76C498.11 244.88 498.564 245.813 499.47 246.56C500.377 247.307 501.337 247.733 502.35 247.84C503.417 247.893 504.057 247.92 504.27 247.92C506.084 247.92 508.297 247.413 510.91 246.4V257.6C507.87 258.453 505.044 258.88 502.43 258.88C499.177 258.88 495.737 257.947 492.11 256.08C488.484 254.16 486.67 250.08 486.67 243.84V225.6H479.47V215.6ZM521.108 221.28C525.375 217.013 530.522 214.88 536.548 214.88C542.522 214.88 547.642 217.04 551.908 221.36C556.228 225.627 558.388 230.747 558.388 236.72C558.388 242.747 556.255 247.92 551.988 252.24C547.722 256.507 542.575 258.64 536.548 258.64C530.575 258.64 525.428 256.48 521.108 252.16C516.842 247.84 514.708 242.693 514.708 236.72C514.708 230.747 516.842 225.6 521.108 221.28ZM525.508 236.72C525.508 239.813 526.575 242.48 528.708 244.72C530.842 246.96 533.455 248.08 536.548 248.08C539.642 248.08 542.255 246.96 544.388 244.72C546.522 242.48 547.588 239.813 547.588 236.72C547.588 233.627 546.522 230.987 544.388 228.8C542.255 226.56 539.642 225.44 536.548 225.44C533.455 225.44 530.842 226.56 528.708 228.8C526.575 230.987 525.508 233.627 525.508 236.72ZM569.155 221.2C573.262 216.987 578.195 214.88 583.955 214.88C588.489 214.88 592.382 216.32 595.635 219.2V202H607.235V258H595.635V254.48C592.435 257.253 588.542 258.64 583.955 258.64C578.249 258.64 573.315 256.48 569.155 252.16C565.049 247.84 562.995 242.72 562.995 236.8C562.995 230.667 565.049 225.467 569.155 221.2ZM573.795 236.8C573.795 239.893 574.862 242.56 576.995 244.8C579.182 247.04 581.875 248.16 585.075 248.16C588.169 248.16 590.835 247.04 593.075 244.8C595.315 242.507 596.435 239.84 596.435 236.8C596.435 233.76 595.315 231.093 593.075 228.8C590.835 226.507 588.169 225.36 585.075 225.36C581.875 225.36 579.182 226.507 576.995 228.8C574.862 231.04 573.795 233.707 573.795 236.8ZM620.562 221.2C624.668 216.987 629.602 214.88 635.362 214.88C639.895 214.88 643.788 216.32 647.042 219.2V215.6H658.642V258H647.042V254.48C643.842 257.253 639.948 258.64 635.362 258.64C629.655 258.64 624.722 256.48 620.562 252.16C616.455 247.84 614.402 242.72 614.402 236.8C614.402 230.667 616.455 225.467 620.562 221.2ZM625.202 236.8C625.202 239.893 626.268 242.56 628.402 244.8C630.588 247.04 633.282 248.16 636.482 248.16C639.575 248.16 642.242 247.04 644.482 244.8C646.722 242.507 647.842 239.84 647.842 236.8C647.842 233.76 646.722 231.093 644.482 228.8C642.242 226.507 639.575 225.36 636.482 225.36C633.282 225.36 630.588 226.507 628.402 228.8C626.268 231.04 625.202 233.707 625.202 236.8ZM663.808 215.6H676.128L687.168 244.16L697.648 215.6H709.968L686.528 274.8H674.528L681.248 257.76L663.808 215.6ZM715.369 220.16C715.422 214.293 717.369 209.68 721.209 206.32C725.102 202.96 729.796 201.28 735.289 201.28C740.516 201.28 744.996 202.933 748.729 206.24C752.516 209.547 754.409 213.653 754.409 218.56C754.409 220.853 753.929 222.827 752.969 224.48C752.009 226.133 750.836 227.44 749.449 228.4C748.116 229.36 746.756 230.24 745.369 231.04C743.982 231.84 742.782 232.8 741.769 233.92C740.809 234.987 740.302 236.24 740.249 237.68L740.169 240.4H728.969V235.12C728.969 232.88 729.689 230.907 731.129 229.2C732.622 227.493 734.249 226.213 736.009 225.36C737.769 224.453 739.369 223.413 740.809 222.24C742.302 221.013 743.049 219.787 743.049 218.56C743.049 216.8 742.382 215.307 741.049 214.08C739.716 212.8 737.849 212.133 735.449 212.08C735.342 212.08 735.262 212.08 735.209 212.08C732.756 212.08 730.782 212.827 729.289 214.32C727.849 215.76 727.076 217.707 726.969 220.16H715.369ZM730.169 246.48C731.502 245.147 733.156 244.48 735.129 244.48C737.102 244.48 738.756 245.173 740.089 246.56C741.476 247.893 742.169 249.547 742.169 251.52C742.169 253.493 741.502 255.147 740.169 256.48C738.782 257.813 737.102 258.48 735.129 258.48C733.156 258.48 731.476 257.813 730.089 256.48C728.756 255.147 728.089 253.493 728.089 251.52C728.089 249.547 728.782 247.867 730.169 246.48Z" fill="black"/>
<g clip-path="url(#clip0_144_1356)">
<path d="M859.521 83.7412C858.836 84.0793 858.094 84.9351 857.352 84.3857C856.783 84.0177 856.135 83.7662 855.452 83.6478C854.769 83.5294 854.067 83.5468 853.392 83.699C848.656 84.2272 843.989 83.699 839.298 83.3081C832.074 82.6953 824.85 81.9875 817.615 81.9558C805.552 81.9558 793.478 82.0614 781.415 82.1248H774.773C774.858 82.2519 774.97 82.3622 775.101 82.4493C775.232 82.5363 775.381 82.5984 775.538 82.6319C779.646 83.5722 783.743 84.5653 787.783 85.7169C799.447 89.0765 811.133 92.3939 821.86 97.9828C830.134 102.293 837.769 107.343 843.03 114.887C844.938 117.488 846.242 120.427 846.858 123.519C847.475 126.61 847.392 129.787 846.613 132.847C845.016 139.038 840.531 143.571 835.235 147.152C827.601 152.318 819.041 156.048 810.288 159.323C797.517 163.917 784.433 167.729 771.121 170.733C758.146 173.85 745.056 176.533 731.92 179.037C715.727 182.112 699.373 184.32 682.951 186.105C670.009 187.489 656.999 188.155 643.989 188.577C625.285 189.19 606.58 189.095 587.875 188.577C567.801 187.943 547.693 187.711 527.687 185.83C512.304 184.351 497.114 181.869 482.506 177.009C474.221 174.209 466.461 170.617 460.515 164.225C456.68 160.094 456.144 155.689 458.141 150.839C460.138 145.99 463.642 142.081 467.579 138.51C473.184 133.688 479.35 129.457 485.964 125.895C503.405 115.994 522.134 108.184 541.701 102.653C553.696 99.2506 565.838 96.3664 578.038 93.6934C589.074 91.2741 600.143 88.9603 611.327 87.2066C627.145 84.7238 642.996 82.3784 658.939 80.6668C659.761 80.5823 660.571 80.4238 661.381 80.2971C661 80.0674 660.545 79.9633 660.092 80.0013C636.043 79.959 612.02 80.6633 588.024 82.1142C571.67 83.0862 555.328 84.2272 538.951 85.2837C526.398 86.0655 513.844 86.8473 501.199 86.3402C497.285 86.1817 493.371 85.9916 489.137 85.812C489.566 85.3977 490.149 85.1487 490.769 85.1147C496.11 84.185 501.45 83.2341 506.746 82.3889C516.606 80.8147 526.512 79.5786 536.418 78.6172C548.275 77.4868 560.121 76.219 572.012 75.4477C582.842 74.7293 593.696 73.8419 604.492 73.1974C615.287 72.553 626.277 72.0564 637.165 71.5915C651.715 70.9576 666.277 70.7886 680.839 71.3802C695.196 71.9613 709.53 72.7959 723.829 74.1271C727.835 74.4969 731.818 75.2787 735.869 75.1836C744.029 75.0252 752.2 74.8033 760.36 74.7399C767.036 74.7399 773.712 74.7399 780.388 74.8667C787.456 74.8079 794.521 75.136 801.546 75.8492C815.036 77.5185 828.616 78.332 842.151 79.5153C845.324 79.6311 848.477 80.0309 851.566 80.7091C853.739 81.4294 855.988 81.9324 858.277 82.2093C858.904 82.2093 859.555 82.3572 859.829 82.9911C860.125 83.3503 859.852 83.6039 859.521 83.7412ZM754.049 87.7771C744.645 86.1289 735.196 84.7449 725.689 83.7729C721.901 83.3926 718.1 83.8786 714.277 83.9948C698.768 84.7132 683.316 86.1078 667.909 87.7876C651.533 89.552 635.213 91.665 618.928 94.0315C605.53 95.986 592.246 98.416 578.985 101.068C567.288 103.424 555.59 105.959 544.064 109.129C527.836 113.587 511.938 118.912 496.943 126.329C490.354 129.479 484.22 133.383 478.683 137.95C474.118 141.827 470.443 146.402 469.108 152.244C468.59 154.114 468.706 156.085 469.439 157.892C470.171 159.698 471.486 161.253 473.205 162.345C477.77 165.599 483.008 167.627 488.372 169.328C500.912 173.222 513.886 175.799 527.048 177.009C543.39 178.72 559.813 179.122 576.235 179.491C588.617 179.756 601.011 180.104 613.404 180.326C623.299 180.506 633.182 180.326 643.076 180.083C652.971 179.84 663.15 179.46 673.17 178.72C684.08 177.928 694.968 176.829 705.809 175.308C715.829 173.903 725.872 172.593 735.846 170.892C746.437 169.096 756.959 167.014 767.435 164.732C775.15 163.052 782.83 161.225 790.431 159.154C802.151 155.984 813.78 152.498 824.474 146.899C830.716 143.623 835.076 138.69 836.399 132.034C837.815 124.892 835.03 118.891 829.335 114.073C822.625 108.368 814.705 104.491 806.317 101.395C789.438 94.9718 771.886 90.9043 754.049 87.7771Z" fill="#00CC8D"/>
</g>
<defs>
<clipPath id="clip0_144_1356">
<rect width="403" height="118" fill="white" transform="matrix(1 0 0 -1 457 189)"/>
</clipPath>
</defs>
</svg>
