<svg xmlns="http://www.w3.org/2000/svg" width="647" height="175" fill="none" viewBox="0 0 647 175"><path fill="#000" d="M0.673438 -3.8147e-06H12.2734V17.52C15.4734 14.4267 19.4201 12.88 24.1134 12.88C28.9134 12.88 33.0468 14.4267 36.5134 17.52C39.9801 20.56 41.7134 24.6133 41.7134 29.68V56H30.1134V32.64C30.1134 29.9733 29.2868 27.8133 27.6334 26.16C26.0334 24.5067 24.0601 23.68 21.7134 23.68C18.8868 23.68 16.5934 24.6933 14.8334 26.72C13.1268 28.6933 12.2734 31.1467 12.2734 34.08V56H0.673438V-3.8147e-06ZM54.2959 19.28C58.5626 15.0133 63.7093 12.88 69.7359 12.88C75.7093 12.88 80.8293 15.04 85.0959 19.36C89.4159 23.6267 91.5759 28.7467 91.5759 34.72C91.5759 40.7467 89.4426 45.92 85.1759 50.24C80.9093 54.5067 75.7626 56.64 69.7359 56.64C63.7626 56.64 58.6159 54.48 54.2959 50.16C50.0293 45.84 47.8959 40.6933 47.8959 34.72C47.8959 28.7467 50.0293 23.6 54.2959 19.28ZM58.6959 34.72C58.6959 37.8133 59.7626 40.48 61.8959 42.72C64.0293 44.96 66.6426 46.08 69.7359 46.08C72.8293 46.08 75.4426 44.96 77.5759 42.72C79.7093 40.48 80.7759 37.8133 80.7759 34.72C80.7759 31.6267 79.7093 28.9867 77.5759 26.8C75.4426 24.56 72.8293 23.44 69.7359 23.44C66.6426 23.44 64.0293 24.56 61.8959 26.8C59.7626 28.9867 58.6959 31.6267 58.6959 34.72ZM93.7422 13.6H105.262L111.102 44L118.062 13.6H131.982L138.942 44.08L144.702 13.6H156.302L146.702 56H131.662L125.022 24.32L118.382 56H103.342L93.7422 13.6ZM196.102 13.6V17.52C199.302 14.4267 202.848 12.88 206.742 12.88C212.075 12.88 216.342 15.04 219.542 19.36C221.302 17.3333 223.408 15.76 225.862 14.64C228.315 13.4667 230.795 12.88 233.302 12.88C237.568 12.88 241.302 14.4 244.502 17.44C247.702 20.4267 249.302 24.5067 249.302 29.68V56H237.702V32.24C237.702 29.52 237.115 27.3867 235.942 25.84C234.822 24.24 233.142 23.44 230.902 23.44C226.048 23.44 223.328 26.2667 222.742 31.92V56H211.142V32.24C211.142 29.52 210.555 27.3867 209.382 25.84C208.262 24.24 206.582 23.44 204.342 23.44C201.515 23.44 199.435 24.4 198.102 26.32C196.768 28.1867 196.102 30.64 196.102 33.68V56H184.502V13.6H196.102ZM256.914 13.6H268.514V36.96C268.514 39.6267 269.314 41.7867 270.914 43.44C272.567 45.0933 274.567 45.92 276.914 45.92C279.741 45.92 282.007 44.9333 283.714 42.96C285.474 40.9333 286.354 38.4533 286.354 35.52V13.6H297.954V56H286.354V52.08C283.154 55.1733 279.207 56.72 274.514 56.72C269.714 56.72 265.581 55.2 262.114 52.16C258.647 49.0667 256.914 44.9867 256.914 39.92V13.6ZM311.647 19.2C315.914 14.9867 321.034 12.88 327.007 12.88C331.541 12.88 335.621 14.16 339.247 16.72C342.874 19.28 345.487 22.64 347.087 26.8L336.527 29.84C335.674 27.8667 334.394 26.2933 332.687 25.12C331.034 23.8933 329.141 23.28 327.007 23.28C323.914 23.28 321.301 24.4267 319.167 26.72C317.034 29.0133 315.967 31.7067 315.967 34.8C315.967 37.8933 317.034 40.5867 319.167 42.88C321.301 45.12 323.914 46.24 327.007 46.24C329.194 46.24 331.114 45.6533 332.767 44.48C334.421 43.2533 335.674 41.68 336.527 39.76L347.087 42.8C345.487 46.9067 342.874 50.24 339.247 52.8C335.674 55.36 331.594 56.64 327.007 56.64C320.927 56.64 315.754 54.5067 311.487 50.24C307.274 45.92 305.167 40.7733 305.167 34.8C305.167 28.6667 307.327 23.4667 311.647 19.2ZM353.252 -3.8147e-06H364.852V17.52C368.052 14.4267 371.998 12.88 376.692 12.88C381.492 12.88 385.625 14.4267 389.092 17.52C392.558 20.56 394.292 24.6133 394.292 29.68V56H382.692V32.64C382.692 29.9733 381.865 27.8133 380.212 26.16C378.612 24.5067 376.638 23.68 374.292 23.68C371.465 23.68 369.172 24.6933 367.412 26.72C365.705 28.6933 364.852 31.1467 364.852 34.08V56H353.252V-3.8147e-06ZM428.016 16.4C431.269 14.0533 435.536 12.88 440.816 12.88C446.843 12.88 452.283 14.16 457.136 16.72V27.68C450.629 24.4267 445.189 22.8 440.816 22.8C438.949 22.8 437.536 23.12 436.576 23.76C435.616 24.3467 435.136 25.0933 435.136 26C435.136 26.5333 435.296 27.0133 435.616 27.44C435.989 27.8133 436.549 28.16 437.296 28.48C438.096 28.7467 438.869 28.96 439.616 29.12C440.363 29.28 441.376 29.52 442.656 29.84C443.989 30.1067 445.109 30.3467 446.016 30.56C454.869 32.9067 459.296 37.3067 459.296 43.76C459.296 46.1067 458.736 48.16 457.616 49.92C456.549 51.68 455.109 53.04 453.296 54C451.536 54.9067 449.669 55.5733 447.696 56C445.776 56.4267 443.749 56.64 441.616 56.64C435.856 56.64 430.176 55.0667 424.576 51.92V40.4C426.656 41.84 429.296 43.2267 432.496 44.56C435.749 45.8933 438.789 46.56 441.616 46.56C445.456 46.56 447.376 45.5467 447.376 43.52C447.376 42.4 446.629 41.52 445.136 40.88C443.643 40.1867 441.136 39.4667 437.616 38.72C432.656 37.6533 429.003 36.1333 426.656 34.16C424.309 32.1867 423.136 29.4933 423.136 26.08C423.136 21.9733 424.763 18.7467 428.016 16.4ZM464.883 56V-3.8147e-06H476.483V56H464.883ZM489.772 19.2C494.039 14.9867 499.159 12.88 505.132 12.88C510.306 12.88 514.892 14.5333 518.892 17.84C522.892 21.1467 525.426 25.3067 526.492 30.32C526.866 31.92 527.052 33.4667 527.052 34.96C527.052 36.4 526.892 37.7867 526.572 39.12H494.732C495.372 41.4667 496.626 43.28 498.492 44.56C500.359 45.7867 502.572 46.4 505.132 46.4C509.186 46.4 512.519 45.2 515.132 42.8L525.212 45.68C523.559 48.9867 520.812 51.6533 516.972 53.68C513.132 55.6533 509.186 56.64 505.132 56.64C499.052 56.64 493.879 54.5067 489.612 50.24C485.399 45.92 483.292 40.7733 483.292 34.8C483.292 28.6667 485.452 23.4667 489.772 19.2ZM494.732 30.32H515.292C514.652 28.2933 513.426 26.5867 511.612 25.2C509.799 23.8133 507.612 23.12 505.052 23.12C502.492 23.12 500.279 23.8133 498.412 25.2C496.599 26.5867 495.372 28.2933 494.732 30.32ZM538.366 19.2C542.633 14.9867 547.753 12.88 553.726 12.88C558.899 12.88 563.486 14.5333 567.486 17.84C571.486 21.1467 574.019 25.3067 575.086 30.32C575.459 31.92 575.646 33.4667 575.646 34.96C575.646 36.4 575.486 37.7867 575.166 39.12H543.326C543.966 41.4667 545.219 43.28 547.086 44.56C548.953 45.7867 551.166 46.4 553.726 46.4C557.779 46.4 561.113 45.2 563.726 42.8L573.806 45.68C572.153 48.9867 569.406 51.6533 565.566 53.68C561.726 55.6533 557.779 56.64 553.726 56.64C547.646 56.64 542.473 54.5067 538.206 50.24C533.993 45.92 531.886 40.7733 531.886 34.8C531.886 28.6667 534.046 23.4667 538.366 19.2ZM543.326 30.32H563.886C563.246 28.2933 562.019 26.5867 560.206 25.2C558.393 23.8133 556.206 23.12 553.646 23.12C551.086 23.12 548.873 23.8133 547.006 25.2C545.193 26.5867 543.966 28.2933 543.326 30.32ZM581.68 13.6H593.28V17.12C596.48 14.3467 600.373 12.96 604.96 12.96C610.666 12.96 615.573 15.12 619.68 19.44C623.84 23.76 625.92 28.88 625.92 34.8C625.92 40.9333 623.866 46.1067 619.76 50.32C615.653 54.5333 610.72 56.64 604.96 56.64C600.426 56.64 596.533 55.2 593.28 52.32V72.8H581.68V13.6ZM592.48 34.8C592.48 37.84 593.6 40.5067 595.84 42.8C598.08 45.0933 600.746 46.24 603.84 46.24C607.04 46.24 609.706 45.12 611.84 42.88C614.026 40.5867 615.12 37.8933 615.12 34.8C615.12 31.7067 614.026 29.04 611.84 26.8C609.706 24.56 607.04 23.44 603.84 23.44C600.746 23.44 598.08 24.5867 595.84 26.88C593.6 29.12 592.48 31.76 592.48 34.8ZM86.5616 118.2C90.6682 113.987 95.6016 111.88 101.362 111.88C105.895 111.88 109.788 113.32 113.042 116.2V99H124.642V155H113.042V151.48C109.842 154.253 105.948 155.64 101.362 155.64C95.6549 155.64 90.7216 153.48 86.5616 149.16C82.4549 144.84 80.4016 139.72 80.4016 133.8C80.4016 127.667 82.4549 122.467 86.5616 118.2ZM91.2016 133.8C91.2016 136.893 92.2682 139.56 94.4016 141.8C96.5882 144.04 99.2816 145.16 102.482 145.16C105.575 145.16 108.242 144.04 110.482 141.8C112.722 139.507 113.842 136.84 113.842 133.8C113.842 130.76 112.722 128.093 110.482 125.8C108.242 123.507 105.575 122.36 102.482 122.36C99.2816 122.36 96.5882 123.507 94.4016 125.8C92.2682 128.04 91.2016 130.707 91.2016 133.8ZM145.008 112.6V155H133.408V112.6H145.008ZM134.288 97.48C135.674 96.1467 137.354 95.48 139.328 95.48C141.301 95.48 142.981 96.1467 144.368 97.48C145.754 98.8133 146.448 100.44 146.448 102.36C146.448 104.28 145.754 105.88 144.368 107.16C142.981 108.493 141.301 109.16 139.328 109.16C137.354 109.16 135.674 108.52 134.288 107.24C132.901 105.907 132.208 104.28 132.208 102.36C132.208 100.44 132.901 98.8133 134.288 97.48ZM158.358 118.2C162.465 113.987 167.398 111.88 173.158 111.88C177.692 111.88 181.585 113.32 184.838 116.2V99H196.438V155H184.838V151.48C181.638 154.253 177.745 155.64 173.158 155.64C167.452 155.64 162.518 153.48 158.358 149.16C154.252 144.84 152.198 139.72 152.198 133.8C152.198 127.667 154.252 122.467 158.358 118.2ZM162.998 133.8C162.998 136.893 164.065 139.56 166.198 141.8C168.385 144.04 171.078 145.16 174.278 145.16C177.372 145.16 180.038 144.04 182.278 141.8C184.518 139.507 185.638 136.84 185.638 133.8C185.638 130.76 184.518 128.093 182.278 125.8C180.038 123.507 177.372 122.36 174.278 122.36C171.078 122.36 168.385 123.507 166.198 125.8C164.065 128.04 162.998 130.707 162.998 133.8ZM223.636 112.6H235.956L246.996 141.16L257.476 112.6H269.796L246.356 171.8H234.356L241.076 154.76L223.636 112.6ZM276.64 118.28C280.906 114.013 286.053 111.88 292.08 111.88C298.053 111.88 303.173 114.04 307.44 118.36C311.76 122.627 313.92 127.747 313.92 133.72C313.92 139.747 311.786 144.92 307.52 149.24C303.253 153.507 298.106 155.64 292.08 155.64C286.106 155.64 280.96 153.48 276.64 149.16C272.373 144.84 270.24 139.693 270.24 133.72C270.24 127.747 272.373 122.6 276.64 118.28ZM281.04 133.72C281.04 136.813 282.106 139.48 284.24 141.72C286.373 143.96 288.986 145.08 292.08 145.08C295.173 145.08 297.786 143.96 299.92 141.72C302.053 139.48 303.12 136.813 303.12 133.72C303.12 130.627 302.053 127.987 299.92 125.8C297.786 123.56 295.173 122.44 292.08 122.44C288.986 122.44 286.373 123.56 284.24 125.8C282.106 127.987 281.04 130.627 281.04 133.72ZM320.117 112.6H331.717V135.96C331.717 138.627 332.517 140.787 334.117 142.44C335.771 144.093 337.771 144.92 340.117 144.92C342.944 144.92 345.211 143.933 346.917 141.96C348.677 139.933 349.557 137.453 349.557 134.52V112.6H361.157V155H349.557V151.08C346.357 154.173 342.411 155.72 337.717 155.72C332.917 155.72 328.784 154.2 325.317 151.16C321.851 148.067 320.117 143.987 320.117 138.92V112.6ZM390.402 133.24C390.402 127.107 392.375 122.013 396.322 117.96C400.322 113.907 405.175 111.88 410.882 111.88C411.042 111.88 411.202 111.88 411.362 111.88C415.948 111.933 419.842 113.4 423.042 116.28V112.6H434.642V152.84C434.642 158.76 432.642 163.667 428.642 167.56C424.695 171.507 419.655 173.48 413.522 173.48C408.508 173.48 404.028 172.067 400.082 169.24C396.135 166.413 393.522 162.307 392.242 156.92H403.842C405.388 160.76 408.562 162.68 413.362 162.68C416.455 162.68 418.828 161.827 420.482 160.12C422.188 158.413 423.042 155.987 423.042 152.84V150.68C419.895 153.293 416.002 154.6 411.362 154.6C405.282 154.6 400.268 152.547 396.322 148.44C392.375 144.333 390.402 139.267 390.402 133.24ZM401.202 133.24C401.202 136.28 402.322 138.867 404.562 141C406.748 143.187 409.388 144.28 412.482 144.28C415.575 144.28 418.242 143.213 420.482 141.08C422.722 138.893 423.842 136.28 423.842 133.24C423.842 130.2 422.722 127.613 420.482 125.48C418.295 123.293 415.628 122.2 412.482 122.2C409.388 122.2 406.722 123.293 404.482 125.48C402.295 127.613 401.202 130.2 401.202 133.24ZM447.897 118.2C452.164 113.987 457.284 111.88 463.257 111.88C468.431 111.88 473.017 113.533 477.017 116.84C481.017 120.147 483.551 124.307 484.617 129.32C484.991 130.92 485.177 132.467 485.177 133.96C485.177 135.4 485.017 136.787 484.697 138.12H452.857C453.497 140.467 454.751 142.28 456.617 143.56C458.484 144.787 460.697 145.4 463.257 145.4C467.311 145.4 470.644 144.2 473.257 141.8L483.337 144.68C481.684 147.987 478.937 150.653 475.097 152.68C471.257 154.653 467.311 155.64 463.257 155.64C457.177 155.64 452.004 153.507 447.737 149.24C443.524 144.92 441.417 139.773 441.417 133.8C441.417 127.667 443.577 122.467 447.897 118.2ZM452.857 129.32H473.417C472.777 127.293 471.551 125.587 469.737 124.2C467.924 122.813 465.737 122.12 463.177 122.12C460.617 122.12 458.404 122.813 456.537 124.2C454.724 125.587 453.497 127.293 452.857 129.32ZM488.83 112.6H496.03V103.32L507.47 100.04V112.6H519.71V122.6H507.47V140.76C507.47 141.88 507.923 142.813 508.83 143.56C509.736 144.307 510.696 144.733 511.71 144.84C512.776 144.893 513.416 144.92 513.63 144.92C515.443 144.92 517.656 144.413 520.27 143.4V154.6C517.23 155.453 514.403 155.88 511.79 155.88C508.536 155.88 505.096 154.947 501.47 153.08C497.843 151.16 496.03 147.08 496.03 140.84V122.6H488.83V112.6ZM527.15 117.16C527.204 111.293 529.15 106.68 532.99 103.32C536.884 99.96 541.577 98.28 547.07 98.28C552.297 98.28 556.777 99.9333 560.51 103.24C564.297 106.547 566.19 110.653 566.19 115.56C566.19 117.853 565.71 119.827 564.75 121.48C563.79 123.133 562.617 124.44 561.23 125.4C559.897 126.36 558.537 127.24 557.15 128.04C555.764 128.84 554.564 129.8 553.55 130.92C552.59 131.987 552.084 133.24 552.03 134.68L551.95 137.4H540.75V132.12C540.75 129.88 541.47 127.907 542.91 126.2C544.404 124.493 546.03 123.213 547.79 122.36C549.55 121.453 551.15 120.413 552.59 119.24C554.084 118.013 554.83 116.787 554.83 115.56C554.83 113.8 554.164 112.307 552.83 111.08C551.497 109.8 549.63 109.133 547.23 109.08C547.124 109.08 547.044 109.08 546.99 109.08C544.537 109.08 542.564 109.827 541.07 111.32C539.63 112.76 538.857 114.707 538.75 117.16H527.15ZM541.95 143.48C543.284 142.147 544.937 141.48 546.91 141.48C548.884 141.48 550.537 142.173 551.87 143.56C553.257 144.893 553.95 146.547 553.95 148.52C553.95 150.493 553.284 152.147 551.95 153.48C550.564 154.813 548.884 155.48 546.91 155.48C544.937 155.48 543.257 154.813 541.87 153.48C540.537 152.147 539.87 150.493 539.87 148.52C539.87 146.547 540.564 144.867 541.95 143.48Z"/><path stroke="#00CC8D" stroke-linecap="round" stroke-width="10" d="M421 66C465.983 84.2201 514.733 83.9999 562.563 83.9999C571.936 83.9999 580.814 82.5604 590.096 81.5483C594.828 81.0322 599.377 79.0394 604.073 78.8064C608.159 78.6036 611.703 76.6409 615.71 76.4515C621.365 76.1843 627.015 74.1445 632.223 72.3871C634.169 71.7305 636.061 71.5212 638.042 71.1935C638.998 71.0354 639.872 69.7637 641 69.4838"/></svg>