<svg xmlns="http://www.w3.org/2000/svg" width="946" height="232" fill="none" viewBox="0 0 946 232"><path fill="#000" d="M21.3746 56.1H32.5396V72.963C35.6196 69.9857 39.4183 68.497 43.9356 68.497C48.5557 68.497 52.534 69.9857 55.8707 72.963C59.2073 75.889 60.8756 79.7903 60.8756 84.667V110H49.7106V87.516C49.7106 84.9493 48.915 82.8703 47.3236 81.279C45.7836 79.6877 43.8843 78.892 41.6256 78.892C38.905 78.892 36.6976 79.8673 35.0036 81.818C33.361 83.7173 32.5396 86.0787 32.5396 88.902V110H21.3746V56.1ZM72.9863 74.657C77.093 70.5503 82.0466 68.497 87.8473 68.497C93.5966 68.497 98.5246 70.576 102.631 74.734C106.789 78.8407 108.868 83.7687 108.868 89.518C108.868 95.3187 106.815 100.298 102.708 104.456C98.6016 108.563 93.648 110.616 87.8473 110.616C82.098 110.616 77.1443 108.537 72.9863 104.379C68.8796 100.221 66.8263 95.2673 66.8263 89.518C66.8263 83.7687 68.8796 78.815 72.9863 74.657ZM77.2213 89.518C77.2213 92.4953 78.248 95.062 80.3013 97.218C82.3546 99.374 84.87 100.452 87.8473 100.452C90.8246 100.452 93.34 99.374 95.3933 97.218C97.4466 95.062 98.4733 92.4953 98.4733 89.518C98.4733 86.5407 97.4466 83.9997 95.3933 81.895C93.34 79.739 90.8246 78.661 87.8473 78.661C84.87 78.661 82.3546 79.739 80.3013 81.895C78.248 83.9997 77.2213 86.5407 77.2213 89.518ZM110.953 69.19H122.041L127.662 98.45L134.361 69.19H147.759L154.458 98.527L160.002 69.19H171.167L161.927 110H147.451L141.06 79.508L134.669 110H120.193L110.953 69.19ZM209.474 69.19V72.963C212.554 69.9857 215.968 68.497 219.715 68.497C224.849 68.497 228.955 70.576 232.035 74.734C233.729 72.7833 235.757 71.269 238.118 70.191C240.48 69.0617 242.867 68.497 245.279 68.497C249.386 68.497 252.979 69.96 256.059 72.886C259.139 75.7607 260.679 79.6877 260.679 84.667V110H249.514V87.131C249.514 84.513 248.95 82.4597 247.82 80.971C246.742 79.431 245.125 78.661 242.969 78.661C238.298 78.661 235.68 81.3817 235.115 86.823V110H223.95V87.131C223.95 84.513 223.386 82.4597 222.256 80.971C221.178 79.431 219.561 78.661 217.405 78.661C214.685 78.661 212.683 79.585 211.399 81.433C210.116 83.2297 209.474 85.591 209.474 88.517V110H198.309V69.19H209.474ZM268.006 69.19H279.171V91.674C279.171 94.2407 279.941 96.3197 281.481 97.911C283.073 99.5023 284.998 100.298 287.256 100.298C289.977 100.298 292.159 99.3483 293.801 97.449C295.495 95.4983 296.342 93.1113 296.342 90.288V69.19H307.507V110H296.342V106.227C293.262 109.204 289.464 110.693 284.946 110.693C280.326 110.693 276.348 109.23 273.011 106.304C269.675 103.327 268.006 99.3997 268.006 94.523V69.19ZM320.687 74.58C324.794 70.5247 329.722 68.497 335.471 68.497C339.834 68.497 343.761 69.729 347.252 72.193C350.743 74.657 353.258 77.891 354.798 81.895L344.634 84.821C343.813 82.9217 342.581 81.4073 340.938 80.278C339.347 79.0973 337.524 78.507 335.471 78.507C332.494 78.507 329.978 79.6107 327.925 81.818C325.872 84.0253 324.845 86.6177 324.845 89.595C324.845 92.5723 325.872 95.1647 327.925 97.372C329.978 99.528 332.494 100.606 335.471 100.606C337.576 100.606 339.424 100.041 341.015 98.912C342.606 97.7313 343.813 96.217 344.634 94.369L354.798 97.295C353.258 101.248 350.743 104.456 347.252 106.92C343.813 109.384 339.886 110.616 335.471 110.616C329.619 110.616 324.64 108.563 320.533 104.456C316.478 100.298 314.45 95.3443 314.45 89.595C314.45 83.6917 316.529 78.6867 320.687 74.58ZM360.731 56.1H371.896V72.963C374.976 69.9857 378.775 68.497 383.292 68.497C387.912 68.497 391.89 69.9857 395.227 72.963C398.564 75.889 400.232 79.7903 400.232 84.667V110H389.067V87.516C389.067 84.9493 388.271 82.8703 386.68 81.279C385.14 79.6877 383.241 78.892 380.982 78.892C378.261 78.892 376.054 79.8673 374.36 81.818C372.717 83.7173 371.896 86.0787 371.896 88.902V110H360.731V56.1ZM427.225 69.19H439.083L448.477 102.3L457.871 69.19H469.806L457.486 110H439.545L427.225 69.19ZM478.296 74.58C482.403 70.5247 487.331 68.497 493.08 68.497C498.06 68.497 502.474 70.0883 506.324 73.271C510.174 76.4537 512.613 80.4577 513.639 85.283C513.999 86.823 514.178 88.3117 514.178 89.749C514.178 91.135 514.024 92.4697 513.716 93.753H483.07C483.686 96.0117 484.893 97.757 486.689 98.989C488.486 100.17 490.616 100.76 493.08 100.76C496.982 100.76 500.19 99.605 502.705 97.295L512.407 100.067C510.816 103.25 508.172 105.816 504.476 107.767C500.78 109.666 496.982 110.616 493.08 110.616C487.228 110.616 482.249 108.563 478.142 104.456C474.087 100.298 472.059 95.3443 472.059 89.595C472.059 83.6917 474.138 78.6867 478.296 74.58ZM483.07 85.283H502.859C502.243 83.3323 501.063 81.6897 499.317 80.355C497.572 79.0203 495.467 78.353 493.003 78.353C490.539 78.353 488.409 79.0203 486.612 80.355C484.867 81.6897 483.686 83.3323 483.07 85.283ZM518.831 89.056C518.831 83.1527 520.73 78.2503 524.529 74.349C528.379 70.4477 533.05 68.497 538.543 68.497C538.697 68.497 538.851 68.497 539.005 68.497C543.419 68.5483 547.167 69.96 550.247 72.732V69.19H561.412V107.921C561.412 113.619 559.487 118.342 555.637 122.089C551.838 125.888 546.987 127.787 541.084 127.787C536.258 127.787 531.946 126.427 528.148 123.706C524.349 120.985 521.834 117.033 520.602 111.848H531.767C533.255 115.544 536.31 117.392 540.93 117.392C543.907 117.392 546.191 116.571 547.783 114.928C549.425 113.285 550.247 110.95 550.247 107.921V105.842C547.218 108.357 543.471 109.615 539.005 109.615C533.153 109.615 528.327 107.639 524.529 103.686C520.73 99.7333 518.831 94.8567 518.831 89.056ZM529.226 89.056C529.226 91.982 530.304 94.4717 532.46 96.525C534.564 98.6297 537.105 99.682 540.083 99.682C543.06 99.682 545.627 98.6553 547.783 96.602C549.939 94.4973 551.017 91.982 551.017 89.056C551.017 86.13 549.939 83.6403 547.783 81.587C545.678 79.4823 543.111 78.43 540.083 78.43C537.105 78.43 534.539 79.4823 532.383 81.587C530.278 83.6403 529.226 86.13 529.226 89.056ZM574.17 74.58C578.277 70.5247 583.205 68.497 588.954 68.497C593.934 68.497 598.348 70.0883 602.198 73.271C606.048 76.4537 608.487 80.4577 609.513 85.283C609.873 86.823 610.052 88.3117 610.052 89.749C610.052 91.135 609.898 92.4697 609.59 93.753H578.944C579.56 96.0117 580.767 97.757 582.563 98.989C584.36 100.17 586.49 100.76 588.954 100.76C592.856 100.76 596.064 99.605 598.579 97.295L608.281 100.067C606.69 103.25 604.046 105.816 600.35 107.767C596.654 109.666 592.856 110.616 588.954 110.616C583.102 110.616 578.123 108.563 574.016 104.456C569.961 100.298 567.933 95.3443 567.933 89.595C567.933 83.6917 570.012 78.6867 574.17 74.58ZM578.944 85.283H598.733C598.117 83.3323 596.937 81.6897 595.191 80.355C593.446 79.0203 591.341 78.353 588.877 78.353C586.413 78.353 584.283 79.0203 582.486 80.355C580.741 81.6897 579.56 83.3323 578.944 85.283ZM613.568 69.19H620.498V60.258L631.509 57.101V69.19H643.29V78.815H631.509V96.294C631.509 97.372 631.945 98.2703 632.818 98.989C633.69 99.7077 634.614 100.118 635.59 100.221C636.616 100.272 637.232 100.298 637.438 100.298C639.183 100.298 641.313 99.8103 643.829 98.835V109.615C640.903 110.436 638.182 110.847 635.667 110.847C632.535 110.847 629.224 109.949 625.734 108.152C622.243 106.304 620.498 102.377 620.498 96.371V78.815H613.568V69.19ZM653.645 74.58C657.597 70.5247 662.346 68.497 667.89 68.497C672.253 68.497 676 69.883 679.132 72.655V69.19H690.297V110H679.132V106.612C676.052 109.281 672.304 110.616 667.89 110.616C662.397 110.616 657.649 108.537 653.645 104.379C649.692 100.221 647.716 95.293 647.716 89.595C647.716 83.6917 649.692 78.6867 653.645 74.58ZM658.111 89.595C658.111 92.5723 659.137 95.139 661.191 97.295C663.295 99.451 665.888 100.529 668.968 100.529C671.945 100.529 674.512 99.451 676.668 97.295C678.824 95.0877 679.902 92.521 679.902 89.595C679.902 86.669 678.824 84.1023 676.668 81.895C674.512 79.6877 671.945 78.584 668.968 78.584C665.888 78.584 663.295 79.6877 661.191 81.895C659.137 84.051 658.111 86.6177 658.111 89.595ZM698.734 56.1H709.899V72.732C712.979 69.96 716.726 68.5483 721.141 68.497C721.192 68.497 721.269 68.497 721.372 68.497C726.967 68.497 731.69 70.5247 735.54 74.58C739.39 78.6353 741.315 83.6403 741.315 89.595C741.315 95.3957 739.39 100.349 735.54 104.456C731.741 108.563 726.942 110.616 721.141 110.616C716.726 110.616 712.979 109.281 709.899 106.612V110H698.734V56.1ZM712.363 97.218C714.519 99.4253 717.086 100.529 720.063 100.529C722.989 100.529 725.53 99.451 727.686 97.295C729.842 95.0877 730.92 92.521 730.92 89.595C730.92 86.6177 729.842 84.051 727.686 81.895C725.581 79.6877 723.04 78.584 720.063 78.584C717.086 78.584 714.519 79.6877 712.363 81.895C710.207 84.1023 709.129 86.669 709.129 89.595C709.129 92.521 710.207 95.062 712.363 97.218ZM747.828 110V56.1H758.993V110H747.828ZM771.784 74.58C775.89 70.5247 780.818 68.497 786.568 68.497C791.547 68.497 795.962 70.0883 799.812 73.271C803.662 76.4537 806.1 80.4577 807.127 85.283C807.486 86.823 807.666 88.3117 807.666 89.749C807.666 91.135 807.512 92.4697 807.204 93.753H776.558C777.174 96.0117 778.38 97.757 780.177 98.989C781.973 100.17 784.104 100.76 786.568 100.76C790.469 100.76 793.677 99.605 796.193 97.295L805.895 100.067C804.303 103.25 801.66 105.816 797.964 107.767C794.268 109.666 790.469 110.616 786.568 110.616C780.716 110.616 775.736 108.563 771.63 104.456C767.574 100.298 765.547 95.3443 765.547 89.595C765.547 83.6917 767.626 78.6867 771.784 74.58ZM776.558 85.283H796.347C795.731 83.3323 794.55 81.6897 792.805 80.355C791.059 79.0203 788.955 78.353 786.491 78.353C784.027 78.353 781.896 79.0203 780.1 80.355C778.354 81.6897 777.174 83.3323 776.558 85.283ZM817.391 71.885C820.522 69.6263 824.629 68.497 829.711 68.497C835.512 68.497 840.748 69.729 845.419 72.193V82.742C839.156 79.6107 833.92 78.045 829.711 78.045C827.914 78.045 826.554 78.353 825.63 78.969C824.706 79.5337 824.244 80.2523 824.244 81.125C824.244 81.6383 824.398 82.1003 824.706 82.511C825.065 82.8703 825.604 83.204 826.323 83.512C827.093 83.7687 827.837 83.974 828.556 84.128C829.275 84.282 830.25 84.513 831.482 84.821C832.765 85.0777 833.843 85.3087 834.716 85.514C843.237 87.7727 847.498 92.0077 847.498 98.219C847.498 100.478 846.959 102.454 845.881 104.148C844.854 105.842 843.468 107.151 841.723 108.075C840.029 108.948 838.232 109.589 836.333 110C834.485 110.411 832.534 110.616 830.481 110.616C824.937 110.616 819.47 109.102 814.08 106.073V94.985C816.082 96.371 818.623 97.7057 821.703 98.989C824.834 100.272 827.76 100.914 830.481 100.914C834.177 100.914 836.025 99.9387 836.025 97.988C836.025 96.91 835.306 96.063 833.869 95.447C832.432 94.7797 830.019 94.0867 826.631 93.368C821.857 92.3413 818.341 90.8783 816.082 88.979C813.823 87.0797 812.694 84.4873 812.694 81.202C812.694 77.2493 814.26 74.1437 817.391 71.885ZM876.621 87.978C878.521 85.8733 881.216 83.9483 884.706 82.203C882.499 80.047 880.831 78.0193 879.701 76.12C878.623 74.2207 878.084 72.116 878.084 69.806C878.084 65.6993 879.676 62.2087 882.858 59.334C886.092 56.408 890.276 54.945 895.409 54.945C900.543 54.945 904.726 56.3823 907.96 59.257C911.194 62.0803 912.811 65.4683 912.811 69.421C912.811 74.7083 908.653 79.3797 900.337 83.435L908.114 91.058C910.476 87.8753 912.786 84.4103 915.044 80.663H926.748C921.974 88.4143 918.176 94.215 915.352 98.065L927.518 110L913.735 110.077L908.961 105.534C904.906 108.922 899.798 110.616 893.638 110.616C887.992 110.616 883.243 109.281 879.393 106.612C875.595 103.943 873.695 100.324 873.695 95.755C873.695 92.7263 874.671 90.134 876.621 87.978ZM884.629 95.524C884.629 97.4233 885.553 98.8863 887.401 99.913C889.301 100.888 891.457 101.376 893.869 101.376C896.949 101.376 899.567 100.426 901.723 98.527L890.558 87.824C886.606 90.1853 884.629 92.752 884.629 95.524ZM889.249 69.19C889.249 70.9353 891.072 73.7843 894.716 77.737C899.542 74.7597 901.954 72.039 901.954 69.575C901.954 68.189 901.313 66.957 900.029 65.879C898.797 64.7497 897.257 64.185 895.409 64.185C893.664 64.185 892.201 64.6983 891.02 65.725C889.84 66.7003 889.249 67.8553 889.249 69.19ZM0.716992 164.19H7.26199V162.65C7.26199 159.673 7.95499 157.157 9.34099 155.104C10.7783 153.051 12.6263 151.639 14.885 150.869C17.1437 150.048 19.5307 149.637 22.046 149.637C22.0973 149.637 22.7903 149.663 24.125 149.714C25.511 149.714 27.4873 150.125 30.054 150.946V159.185C28.1033 158.569 26.6147 158.235 25.588 158.184C24.6127 158.081 24.0223 158.03 23.817 158.03C22.3797 158.03 21.045 158.364 19.813 159.031C18.581 159.698 17.965 160.905 17.965 162.65V164.19H29.284V173.815H18.427L18.504 205H7.49299L7.26199 173.815H0.716992V164.19ZM36.1791 164.19H47.3441V169.657C49.8081 165.704 53.5298 163.728 58.5091 163.728C59.6384 163.728 60.8191 163.831 62.0511 164.036V175.971C60.4084 175.355 58.8171 175.047 57.2771 175.047C55.4291 175.047 53.2988 175.689 50.8861 176.972C48.5248 178.204 47.3441 180.591 47.3441 184.133V205H36.1791V164.19ZM68.2123 164.19H79.3773V186.674C79.3773 189.241 80.1473 191.32 81.6873 192.911C83.2786 194.502 85.2036 195.298 87.4623 195.298C90.183 195.298 92.3646 194.348 94.0073 192.449C95.7013 190.498 96.5483 188.111 96.5483 185.288V164.19H107.713V205H96.5483V201.227C93.4683 204.204 89.6696 205.693 85.1523 205.693C80.5323 205.693 76.554 204.23 73.2173 201.304C69.8806 198.327 68.2123 194.4 68.2123 189.523V164.19ZM127.361 164.19V205H116.196V164.19H127.361ZM117.043 149.637C118.378 148.354 119.995 147.712 121.894 147.712C123.793 147.712 125.41 148.354 126.745 149.637C128.08 150.92 128.747 152.486 128.747 154.334C128.747 156.182 128.08 157.722 126.745 158.954C125.41 160.237 123.793 160.879 121.894 160.879C119.995 160.879 118.378 160.263 117.043 159.031C115.708 157.748 115.041 156.182 115.041 154.334C115.041 152.486 115.708 150.92 117.043 149.637ZM133.897 164.19H140.827V155.258L151.838 152.101V164.19H163.619V173.815H151.838V191.294C151.838 192.372 152.274 193.27 153.147 193.989C154.02 194.708 154.944 195.118 155.919 195.221C156.946 195.272 157.562 195.298 157.767 195.298C159.512 195.298 161.643 194.81 164.158 193.835V204.615C161.232 205.436 158.511 205.847 155.996 205.847C152.865 205.847 149.554 204.949 146.063 203.152C142.572 201.304 140.827 197.377 140.827 191.371V173.815H133.897V164.19ZM174.246 166.885C177.377 164.626 181.484 163.497 186.566 163.497C192.366 163.497 197.602 164.729 202.274 167.193V177.742C196.011 174.611 190.775 173.045 186.566 173.045C184.769 173.045 183.409 173.353 182.485 173.969C181.561 174.534 181.099 175.252 181.099 176.125C181.099 176.638 181.253 177.1 181.561 177.511C181.92 177.87 182.459 178.204 183.178 178.512C183.948 178.769 184.692 178.974 185.411 179.128C186.129 179.282 187.105 179.513 188.337 179.821C189.62 180.078 190.698 180.309 191.571 180.514C200.092 182.773 204.353 187.008 204.353 193.219C204.353 195.478 203.814 197.454 202.736 199.148C201.709 200.842 200.323 202.151 198.578 203.075C196.884 203.948 195.087 204.589 193.188 205C191.34 205.411 189.389 205.616 187.336 205.616C181.792 205.616 176.325 204.102 170.935 201.073V189.985C172.937 191.371 175.478 192.706 178.558 193.989C181.689 195.272 184.615 195.914 187.336 195.914C191.032 195.914 192.88 194.939 192.88 192.988C192.88 191.91 192.161 191.063 190.724 190.447C189.286 189.78 186.874 189.087 183.486 188.368C178.712 187.341 175.195 185.878 172.937 183.979C170.678 182.08 169.549 179.487 169.549 176.202C169.549 172.249 171.114 169.144 174.246 166.885ZM235.709 169.58C239.662 165.525 244.41 163.497 249.954 163.497C254.317 163.497 258.065 164.883 261.196 167.655V151.1H272.361V205H261.196V201.612C258.116 204.281 254.369 205.616 249.954 205.616C244.461 205.616 239.713 203.537 235.709 199.379C231.756 195.221 229.78 190.293 229.78 184.595C229.78 178.692 231.756 173.687 235.709 169.58ZM240.175 184.595C240.175 187.572 241.202 190.139 243.255 192.295C245.36 194.451 247.952 195.529 251.032 195.529C254.009 195.529 256.576 194.451 258.732 192.295C260.888 190.088 261.966 187.521 261.966 184.595C261.966 181.669 260.888 179.102 258.732 176.895C256.576 174.688 254.009 173.584 251.032 173.584C247.952 173.584 245.36 174.688 243.255 176.895C241.202 179.051 240.175 181.618 240.175 184.595ZM291.963 164.19V205H280.798V164.19H291.963ZM281.645 149.637C282.98 148.354 284.597 147.712 286.496 147.712C288.396 147.712 290.013 148.354 291.347 149.637C292.682 150.92 293.349 152.486 293.349 154.334C293.349 156.182 292.682 157.722 291.347 158.954C290.013 160.237 288.396 160.879 286.496 160.879C284.597 160.879 282.98 160.263 281.645 159.031C280.311 157.748 279.643 156.182 279.643 154.334C279.643 152.486 280.311 150.92 281.645 149.637ZM304.813 169.58C308.766 165.525 313.514 163.497 319.058 163.497C323.422 163.497 327.169 164.883 330.3 167.655V151.1H341.465V205H330.3V201.612C327.22 204.281 323.473 205.616 319.058 205.616C313.566 205.616 308.817 203.537 304.813 199.379C300.861 195.221 298.884 190.293 298.884 184.595C298.884 178.692 300.861 173.687 304.813 169.58ZM309.279 184.595C309.279 187.572 310.306 190.139 312.359 192.295C314.464 194.451 317.056 195.529 320.136 195.529C323.114 195.529 325.68 194.451 327.836 192.295C329.992 190.088 331.07 187.521 331.07 184.595C331.07 181.669 329.992 179.102 327.836 176.895C325.68 174.688 323.114 173.584 320.136 173.584C317.056 173.584 314.464 174.688 312.359 176.895C310.306 179.051 309.279 181.618 309.279 184.595ZM367.643 164.19H379.501L390.127 191.679L400.214 164.19H412.072L389.511 221.17H377.961L384.429 204.769L367.643 164.19ZM418.659 169.657C422.766 165.55 427.719 163.497 433.52 163.497C439.269 163.497 444.197 165.576 448.304 169.734C452.462 173.841 454.541 178.769 454.541 184.518C454.541 190.319 452.488 195.298 448.381 199.456C444.274 203.563 439.321 205.616 433.52 205.616C427.771 205.616 422.817 203.537 418.659 199.379C414.552 195.221 412.499 190.267 412.499 184.518C412.499 178.769 414.552 173.815 418.659 169.657ZM422.894 184.518C422.894 187.495 423.921 190.062 425.974 192.218C428.027 194.374 430.543 195.452 433.52 195.452C436.497 195.452 439.013 194.374 441.066 192.218C443.119 190.062 444.146 187.495 444.146 184.518C444.146 181.541 443.119 179 441.066 176.895C439.013 174.739 436.497 173.661 433.52 173.661C430.543 173.661 428.027 174.739 425.974 176.895C423.921 179 422.894 181.541 422.894 184.518ZM460.506 164.19H471.671V186.674C471.671 189.241 472.441 191.32 473.981 192.911C475.573 194.502 477.498 195.298 479.756 195.298C482.477 195.298 484.659 194.348 486.301 192.449C487.995 190.498 488.842 188.111 488.842 185.288V164.19H500.007V205H488.842V201.227C485.762 204.204 481.964 205.693 477.446 205.693C472.826 205.693 468.848 204.23 465.511 201.304C462.175 198.327 460.506 194.4 460.506 189.523V164.19ZM534.392 169.58C538.499 165.525 543.427 163.497 549.176 163.497C554.155 163.497 558.57 165.088 562.42 168.271C566.27 171.454 568.708 175.458 569.735 180.283C570.094 181.823 570.274 183.312 570.274 184.749C570.274 186.135 570.12 187.47 569.812 188.753H539.166C539.782 191.012 540.988 192.757 542.785 193.989C544.582 195.17 546.712 195.76 549.176 195.76C553.077 195.76 556.286 194.605 558.801 192.295L568.503 195.067C566.912 198.25 564.268 200.816 560.572 202.767C556.876 204.666 553.077 205.616 549.176 205.616C543.324 205.616 538.345 203.563 534.238 199.456C530.183 195.298 528.155 190.344 528.155 184.595C528.155 178.692 530.234 173.687 534.392 169.58ZM539.166 180.283H558.955C558.339 178.332 557.158 176.69 555.413 175.355C553.668 174.02 551.563 173.353 549.099 173.353C546.635 173.353 544.505 174.02 542.708 175.355C540.963 176.69 539.782 178.332 539.166 180.283ZM580.855 169.58C584.808 165.525 589.556 163.497 595.1 163.497C599.464 163.497 603.211 164.883 606.342 167.655V164.19H617.507V205H606.342V201.612C603.262 204.281 599.515 205.616 595.1 205.616C589.608 205.616 584.859 203.537 580.855 199.379C576.903 195.221 574.926 190.293 574.926 184.595C574.926 178.692 576.903 173.687 580.855 169.58ZM585.321 184.595C585.321 187.572 586.348 190.139 588.401 192.295C590.506 194.451 593.098 195.529 596.178 195.529C599.156 195.529 601.722 194.451 603.878 192.295C606.034 190.088 607.112 187.521 607.112 184.595C607.112 181.669 606.034 179.102 603.878 176.895C601.722 174.688 599.156 173.584 596.178 173.584C593.098 173.584 590.506 174.688 588.401 176.895C586.348 179.051 585.321 181.618 585.321 184.595ZM624.02 164.19H630.95V155.258L641.961 152.101V164.19H653.742V173.815H641.961V191.294C641.961 192.372 642.397 193.27 643.27 193.989C644.143 194.708 645.067 195.118 646.042 195.221C647.069 195.272 647.685 195.298 647.89 195.298C649.635 195.298 651.766 194.81 654.281 193.835V204.615C651.355 205.436 648.634 205.847 646.119 205.847C642.988 205.847 639.677 204.949 636.186 203.152C632.695 201.304 630.95 197.377 630.95 191.371V173.815H624.02V164.19ZM680.492 164.19H687.422V155.258L698.433 152.101V164.19H710.214V173.815H698.433V191.294C698.433 192.372 698.869 193.27 699.742 193.989C700.614 194.708 701.538 195.118 702.514 195.221C703.54 195.272 704.156 195.298 704.362 195.298C706.107 195.298 708.237 194.81 710.753 193.835V204.615C707.827 205.436 705.106 205.847 702.591 205.847C699.459 205.847 696.148 204.949 692.658 203.152C689.167 201.304 687.422 197.377 687.422 191.371V173.815H680.492V164.19ZM720.568 169.657C724.675 165.55 729.629 163.497 735.429 163.497C741.179 163.497 746.107 165.576 750.213 169.734C754.371 173.841 756.45 178.769 756.45 184.518C756.45 190.319 754.397 195.298 750.29 199.456C746.184 203.563 741.23 205.616 735.429 205.616C729.68 205.616 724.726 203.537 720.568 199.379C716.462 195.221 714.408 190.267 714.408 184.518C714.408 178.769 716.462 173.815 720.568 169.657ZM724.803 184.518C724.803 187.495 725.83 190.062 727.883 192.218C729.937 194.374 732.452 195.452 735.429 195.452C738.407 195.452 740.922 194.374 742.975 192.218C745.029 190.062 746.055 187.495 746.055 184.518C746.055 181.541 745.029 179 742.975 176.895C740.922 174.739 738.407 173.661 735.429 173.661C732.452 173.661 729.937 174.739 727.883 176.895C725.83 179 724.803 181.541 724.803 184.518ZM766.813 169.58C770.766 165.525 775.514 163.497 781.058 163.497C785.422 163.497 789.169 164.883 792.3 167.655V151.1H803.465V205H792.3V201.612C789.22 204.281 785.473 205.616 781.058 205.616C775.566 205.616 770.817 203.537 766.813 199.379C762.861 195.221 760.884 190.293 760.884 184.595C760.884 178.692 762.861 173.687 766.813 169.58ZM771.279 184.595C771.279 187.572 772.306 190.139 774.359 192.295C776.464 194.451 779.056 195.529 782.136 195.529C785.114 195.529 787.68 194.451 789.836 192.295C791.992 190.088 793.07 187.521 793.07 184.595C793.07 181.669 791.992 179.102 789.836 176.895C787.68 174.688 785.114 173.584 782.136 173.584C779.056 173.584 776.464 174.688 774.359 176.895C772.306 179.051 771.279 181.618 771.279 184.595ZM816.292 169.58C820.245 165.525 824.993 163.497 830.537 163.497C834.9 163.497 838.648 164.883 841.779 167.655V164.19H852.944V205H841.779V201.612C838.699 204.281 834.952 205.616 830.537 205.616C825.044 205.616 820.296 203.537 816.292 199.379C812.339 195.221 810.363 190.293 810.363 184.595C810.363 178.692 812.339 173.687 816.292 169.58ZM820.758 184.595C820.758 187.572 821.785 190.139 823.838 192.295C825.943 194.451 828.535 195.529 831.615 195.529C834.592 195.529 837.159 194.451 839.315 192.295C841.471 190.088 842.549 187.521 842.549 184.595C842.549 181.669 841.471 179.102 839.315 176.895C837.159 174.688 834.592 173.584 831.615 173.584C828.535 173.584 825.943 174.688 823.838 176.895C821.785 179.051 820.758 181.618 820.758 184.595ZM857.916 164.19H869.774L880.4 191.679L890.487 164.19H902.345L879.784 221.17H868.234L874.702 204.769L857.916 164.19ZM907.544 168.579C907.596 162.932 909.469 158.492 913.165 155.258C916.913 152.024 921.43 150.407 926.717 150.407C931.748 150.407 936.06 151.998 939.653 155.181C943.298 158.364 945.12 162.316 945.12 167.039C945.12 169.246 944.658 171.146 943.734 172.737C942.81 174.328 941.681 175.586 940.346 176.51C939.063 177.434 937.754 178.281 936.419 179.051C935.085 179.821 933.93 180.745 932.954 181.823C932.03 182.85 931.543 184.056 931.491 185.442L931.414 188.06H920.634V182.978C920.634 180.822 921.327 178.923 922.713 177.28C924.151 175.637 925.716 174.405 927.41 173.584C929.104 172.711 930.644 171.71 932.03 170.581C933.468 169.4 934.186 168.22 934.186 167.039C934.186 165.345 933.545 163.908 932.261 162.727C930.978 161.495 929.181 160.853 926.871 160.802C926.769 160.802 926.692 160.802 926.64 160.802C924.279 160.802 922.38 161.521 920.942 162.958C919.556 164.344 918.812 166.218 918.709 168.579H907.544ZM921.789 193.912C923.073 192.629 924.664 191.987 926.563 191.987C928.463 191.987 930.054 192.654 931.337 193.989C932.672 195.272 933.339 196.864 933.339 198.763C933.339 200.662 932.698 202.254 931.414 203.537C930.08 204.82 928.463 205.462 926.563 205.462C924.664 205.462 923.047 204.82 921.712 203.537C920.429 202.254 919.787 200.662 919.787 198.763C919.787 196.864 920.455 195.247 921.789 193.912Z"/><g clip-path="url(#clip0_144_1300)"><path fill="#00CC8D" d="M886.423 34.7434C885.598 35.0962 884.681 36.0379 883.831 35.3735C883.175 34.9248 882.422 34.6054 881.621 34.4365C880.82 34.2676 879.989 34.253 879.184 34.3938C873.563 34.7648 868.074 33.9315 862.55 33.2541C854.044 32.1985 845.542 31.0342 836.995 30.6423C822.743 30.0493 808.471 29.5765 794.216 29.0559L786.368 28.7294C786.463 28.8789 786.589 29.0104 786.74 29.1163C786.891 29.2223 787.063 29.3006 787.248 29.3466C792.057 30.6234 796.851 31.96 801.569 33.475C815.19 37.8887 828.84 42.2553 841.249 49.1712C850.82 54.5052 859.6 60.6531 865.458 69.5344C867.588 72.6012 868.989 76.0252 869.571 79.5896C870.153 83.154 869.903 86.7809 868.837 90.2408C866.655 97.2391 861.14 102.199 854.714 106.033C845.447 111.563 835.157 115.405 824.659 118.719C809.351 123.343 793.71 127.056 777.839 129.836C762.36 132.761 746.766 135.185 731.127 137.401C711.847 140.119 692.419 141.839 672.931 143.073C657.574 144.019 642.171 144.14 626.779 143.983C604.65 143.764 582.554 142.736 560.478 141.225C536.79 139.513 513.042 138.259 489.494 135.126C471.388 132.679 453.559 129.094 436.531 122.821C426.875 119.213 417.877 114.726 411.155 107.127C406.821 102.217 406.397 97.1543 408.987 91.7093C411.578 86.2644 415.903 81.9683 420.725 78.08C427.577 72.8436 435.064 68.3106 443.048 64.5644C464.126 54.1035 486.626 46.0966 510.009 40.736C524.342 37.437 538.826 34.7371 553.368 32.2814C566.522 30.0584 579.711 27.9579 593.009 26.503C611.816 24.4426 630.657 22.5409 649.575 21.3682C650.55 21.312 651.515 21.1707 652.478 21.0656C652.038 20.7844 651.507 20.643 650.969 20.6641C622.556 19.4335 594.138 19.0576 565.717 19.5364C546.348 19.8435 526.985 20.3444 507.585 20.7469C492.716 21.0234 477.846 21.3 462.93 20.0987C458.313 19.7251 453.697 19.3153 448.703 18.9018C449.23 18.4494 449.931 18.1934 450.664 18.185C457.019 17.3848 463.374 16.5605 469.671 15.8547C481.396 14.54 493.159 13.614 504.909 13.002C518.972 12.2928 533.029 11.4259 547.116 11.129C559.947 10.8402 572.812 10.3593 585.599 10.1534C598.385 9.94745 611.394 9.92014 624.28 9.924C641.502 9.91473 658.715 10.4374 675.893 11.8296C692.828 13.1996 709.724 14.8583 726.556 17.0829C731.271 17.7025 735.94 18.792 740.732 18.8825C750.38 19.1025 760.045 19.2506 769.689 19.5793C777.577 19.9075 785.465 20.2357 793.348 20.7088C801.701 20.9891 810.033 21.7115 818.3 22.8721C834.159 25.4433 850.166 27.0409 866.102 29.0588C869.845 29.3472 873.551 29.9592 877.169 30.8864C879.702 31.8166 882.336 32.5021 885.026 32.9311C885.768 32.962 886.53 33.163 886.823 33.9011C887.157 34.3263 886.821 34.6027 886.423 34.7434ZM761.613 34.1715C750.58 31.8252 739.481 29.7787 728.295 28.2003C723.837 27.5793 719.323 27.948 714.801 27.8928C696.442 27.9516 678.118 28.7861 659.835 29.9488C640.402 31.1605 621.019 32.7736 601.665 34.6781C585.742 36.2536 569.931 38.3782 554.136 40.7575C540.203 42.8755 526.262 45.1988 512.492 48.2551C493.106 52.5536 474.069 57.8587 455.999 65.5992C448.064 68.8765 440.631 73.038 433.872 77.9858C428.294 82.1935 423.734 87.242 421.879 93.8547C421.178 95.966 421.221 98.2252 422 100.326C422.78 102.427 424.26 104.269 426.239 105.601C431.478 109.545 437.571 112.122 443.827 114.33C458.459 119.398 473.665 122.981 489.159 125.011C508.387 127.77 527.771 129.037 547.157 130.267C561.774 131.177 576.401 132.185 591.034 133.048C602.716 133.74 614.402 134.02 626.104 134.229C637.806 134.438 649.852 134.503 661.726 134.151C674.655 133.781 687.571 133.06 700.453 131.854C712.359 130.741 724.287 129.737 736.153 128.283C748.751 126.751 761.282 124.889 773.769 122.795C782.964 121.254 792.126 119.543 801.205 117.549C815.203 114.503 829.109 111.089 842.01 105.214C849.542 101.777 854.927 96.3519 856.808 88.8087C858.82 80.7145 855.815 73.7182 849.316 67.9313C841.658 61.08 832.485 56.2586 822.721 52.3078C803.084 44.1354 782.539 38.6231 761.613 34.1715Z"/></g><defs><clipPath id="clip0_144_1300"><rect width="476.571" height="135" fill="#fff" transform="matrix(0.999135 0.041572 0.041572 -0.999135 405.824 135.273)"/></clipPath></defs></svg>