<svg xmlns="http://www.w3.org/2000/svg" width="816" height="198" fill="none" viewBox="0 0 816 198"><path fill="#000" d="M23.1188 4H34.7188V21.52C37.9188 18.4267 41.8654 16.88 46.5588 16.88C51.3588 16.88 55.4921 18.4267 58.9588 21.52C62.4254 24.56 64.1588 28.6133 64.1588 33.68V60H52.5588V36.64C52.5588 33.9733 51.7321 31.8133 50.0788 30.16C48.4788 28.5067 46.5054 27.68 44.1588 27.68C41.3321 27.68 39.0388 28.6933 37.2788 30.72C35.5721 32.6933 34.7188 35.1467 34.7188 38.08V60H23.1188V4ZM76.7413 23.28C81.0079 19.0133 86.1546 16.88 92.1813 16.88C98.1546 16.88 103.275 19.04 107.541 23.36C111.861 27.6267 114.021 32.7467 114.021 38.72C114.021 44.7467 111.888 49.92 107.621 54.24C103.355 58.5067 98.2079 60.64 92.1813 60.64C86.2079 60.64 81.0613 58.48 76.7413 54.16C72.4746 49.84 70.3413 44.6933 70.3413 38.72C70.3413 32.7467 72.4746 27.6 76.7413 23.28ZM81.1413 38.72C81.1413 41.8133 82.2079 44.48 84.3413 46.72C86.4746 48.96 89.0879 50.08 92.1813 50.08C95.2746 50.08 97.8879 48.96 100.021 46.72C102.155 44.48 103.221 41.8133 103.221 38.72C103.221 35.6267 102.155 32.9867 100.021 30.8C97.8879 28.56 95.2746 27.44 92.1813 27.44C89.0879 27.44 86.4746 28.56 84.3413 30.8C82.2079 32.9867 81.1413 35.6267 81.1413 38.72ZM116.188 17.6H127.708L133.548 48L140.508 17.6H154.428L161.388 48.08L167.148 17.6H178.748L169.148 60H154.108L147.468 28.32L140.828 60H125.788L116.188 17.6ZM218.547 17.6V21.52C221.747 18.4267 225.294 16.88 229.187 16.88C234.52 16.88 238.787 19.04 241.987 23.36C243.747 21.3333 245.854 19.76 248.307 18.64C250.76 17.4667 253.24 16.88 255.747 16.88C260.014 16.88 263.747 18.4 266.947 21.44C270.147 24.4267 271.747 28.5067 271.747 33.68V60H260.147V36.24C260.147 33.52 259.56 31.3867 258.387 29.84C257.267 28.24 255.587 27.44 253.347 27.44C248.494 27.44 245.774 30.2667 245.187 35.92V60H233.587V36.24C233.587 33.52 233 31.3867 231.827 29.84C230.707 28.24 229.027 27.44 226.787 27.44C223.96 27.44 221.88 28.4 220.547 30.32C219.214 32.1867 218.547 34.64 218.547 37.68V60H206.947V17.6H218.547ZM279.359 17.6H290.959V40.96C290.959 43.6267 291.759 45.7867 293.359 47.44C295.013 49.0933 297.013 49.92 299.359 49.92C302.186 49.92 304.453 48.9333 306.159 46.96C307.919 44.9333 308.799 42.4533 308.799 39.52V17.6H320.399V60H308.799V56.08C305.599 59.1733 301.653 60.72 296.959 60.72C292.159 60.72 288.026 59.2 284.559 56.16C281.093 53.0667 279.359 48.9867 279.359 43.92V17.6ZM334.093 23.2C338.359 18.9867 343.479 16.88 349.453 16.88C353.986 16.88 358.066 18.16 361.693 20.72C365.319 23.28 367.933 26.64 369.533 30.8L358.973 33.84C358.119 31.8667 356.839 30.2933 355.133 29.12C353.479 27.8933 351.586 27.28 349.453 27.28C346.359 27.28 343.746 28.4267 341.613 30.72C339.479 33.0133 338.413 35.7067 338.413 38.8C338.413 41.8933 339.479 44.5867 341.613 46.88C343.746 49.12 346.359 50.24 349.453 50.24C351.639 50.24 353.559 49.6533 355.213 48.48C356.866 47.2533 358.119 45.68 358.973 43.76L369.533 46.8C367.933 50.9067 365.319 54.24 361.693 56.8C358.119 59.36 354.039 60.64 349.453 60.64C343.373 60.64 338.199 58.5067 333.933 54.24C329.719 49.92 327.613 44.7733 327.613 38.8C327.613 32.6667 329.773 27.4667 334.093 23.2ZM375.697 4H387.297V21.52C390.497 18.4267 394.444 16.88 399.137 16.88C403.937 16.88 408.07 18.4267 411.537 21.52C415.004 24.56 416.737 28.6133 416.737 33.68V60H405.137V36.64C405.137 33.9733 404.31 31.8133 402.657 30.16C401.057 28.5067 399.084 27.68 396.737 27.68C393.91 27.68 391.617 28.6933 389.857 30.72C388.15 32.6933 387.297 35.1467 387.297 38.08V60H375.697V4ZM444.781 17.6H456.301L462.141 48L469.101 17.6H483.021L489.981 48.08L495.741 17.6H507.341L497.741 60H482.701L476.061 28.32L469.421 60H454.381L444.781 17.6ZM515.648 23.2C519.754 18.9867 524.688 16.88 530.448 16.88C534.981 16.88 538.874 18.32 542.128 21.2V17.6H553.727V60H542.128V56.48C538.928 59.2533 535.034 60.64 530.448 60.64C524.741 60.64 519.808 58.48 515.648 54.16C511.541 49.84 509.488 44.72 509.488 38.8C509.488 32.6667 511.541 27.4667 515.648 23.2ZM520.288 38.8C520.288 41.8933 521.354 44.56 523.488 46.8C525.674 49.04 528.368 50.16 531.568 50.16C534.661 50.16 537.328 49.04 539.568 46.8C541.808 44.5067 542.928 41.84 542.928 38.8C542.928 35.76 541.808 33.0933 539.568 30.8C537.328 28.5067 534.661 27.36 531.568 27.36C528.368 27.36 525.674 28.5067 523.488 30.8C521.354 33.04 520.288 35.7067 520.288 38.8ZM560.494 17.6H567.694V8.32L579.134 5.04V17.6H591.374V27.6H579.134V45.76C579.134 46.88 579.587 47.8133 580.494 48.56C581.4 49.3067 582.36 49.7333 583.374 49.84C584.44 49.8933 585.08 49.92 585.294 49.92C587.107 49.92 589.32 49.4133 591.934 48.4V59.6C588.894 60.4533 586.067 60.88 583.454 60.88C580.2 60.88 576.76 59.9467 573.134 58.08C569.507 56.16 567.694 52.08 567.694 45.84V27.6H560.494V17.6ZM602.452 23.2C606.719 18.9867 611.839 16.88 617.812 16.88C622.985 16.88 627.572 18.5333 631.572 21.84C635.572 25.1467 638.105 29.3067 639.172 34.32C639.545 35.92 639.732 37.4667 639.732 38.96C639.732 40.4 639.572 41.7867 639.252 43.12H607.412C608.052 45.4667 609.305 47.28 611.172 48.56C613.039 49.7867 615.252 50.4 617.812 50.4C621.865 50.4 625.199 49.2 627.812 46.8L637.892 49.68C636.239 52.9867 633.492 55.6533 629.652 57.68C625.812 59.6533 621.865 60.64 617.812 60.64C611.732 60.64 606.559 58.5067 602.292 54.24C598.079 49.92 595.972 44.7733 595.972 38.8C595.972 32.6667 598.132 27.4667 602.452 23.2ZM607.412 34.32H627.972C627.332 32.2933 626.105 30.5867 624.292 29.2C622.479 27.8133 620.292 27.12 617.732 27.12C615.172 27.12 612.959 27.8133 611.092 29.2C609.279 30.5867 608.052 32.2933 607.412 34.32ZM645.766 17.6H657.366V23.28C659.926 19.1733 663.792 17.12 668.966 17.12C670.139 17.12 671.366 17.2267 672.646 17.44V29.84C670.939 29.2 669.286 28.88 667.686 28.88C665.766 28.88 663.552 29.5467 661.046 30.88C658.592 32.16 657.366 34.64 657.366 38.32V60H645.766V17.6ZM706.038 23.2C710.145 18.9867 715.078 16.88 720.838 16.88C725.371 16.88 729.265 18.32 732.518 21.2V4H744.118V60H732.518V56.48C729.318 59.2533 725.425 60.64 720.838 60.64C715.131 60.64 710.198 58.48 706.038 54.16C701.931 49.84 699.878 44.72 699.878 38.8C699.878 32.6667 701.931 27.4667 706.038 23.2ZM710.678 38.8C710.678 41.8933 711.745 44.56 713.878 46.8C716.065 49.04 718.758 50.16 721.958 50.16C725.051 50.16 727.718 49.04 729.958 46.8C732.198 44.5067 733.318 41.84 733.318 38.8C733.318 35.76 732.198 33.0933 729.958 30.8C727.718 28.5067 725.051 27.36 721.958 27.36C718.758 27.36 716.065 28.5067 713.878 30.8C711.745 33.04 710.678 35.7067 710.678 38.8ZM764.484 17.6V60H752.884V17.6H764.484ZM753.764 2.48C755.151 1.14666 756.831 0.479999 758.804 0.479999C760.778 0.479999 762.458 1.14666 763.844 2.48C765.231 3.81333 765.924 5.44 765.924 7.36C765.924 9.28 765.231 10.88 763.844 12.16C762.458 13.4933 760.778 14.16 758.804 14.16C756.831 14.16 755.151 13.52 753.764 12.24C752.378 10.9067 751.684 9.28 751.684 7.36C751.684 5.44 752.378 3.81333 753.764 2.48ZM777.835 23.2C781.942 18.9867 786.875 16.88 792.635 16.88C797.168 16.88 801.062 18.32 804.315 21.2V4H815.915V60H804.315V56.48C801.115 59.2533 797.222 60.64 792.635 60.64C786.928 60.64 781.995 58.48 777.835 54.16C773.728 49.84 771.675 44.72 771.675 38.8C771.675 32.6667 773.728 27.4667 777.835 23.2ZM782.475 38.8C782.475 41.8933 783.542 44.56 785.675 46.8C787.862 49.04 790.555 50.16 793.755 50.16C796.848 50.16 799.515 49.04 801.755 46.8C803.995 44.5067 805.115 41.84 805.115 38.8C805.115 35.76 803.995 33.0933 801.755 30.8C799.515 28.5067 796.848 27.36 793.755 27.36C790.555 27.36 787.862 28.5067 785.675 30.8C783.542 33.04 782.475 35.7067 782.475 38.8ZM86.1594 116.6H98.4794L109.519 145.16L119.999 116.6H132.319L108.879 175.8H96.8794L103.599 158.76L86.1594 116.6ZM139.163 122.28C143.43 118.013 148.576 115.88 154.603 115.88C160.576 115.88 165.696 118.04 169.963 122.36C174.283 126.627 176.443 131.747 176.443 137.72C176.443 143.747 174.31 148.92 170.043 153.24C165.776 157.507 160.63 159.64 154.603 159.64C148.63 159.64 143.483 157.48 139.163 153.16C134.896 148.84 132.763 143.693 132.763 137.72C132.763 131.747 134.896 126.6 139.163 122.28ZM143.563 137.72C143.563 140.813 144.63 143.48 146.763 145.72C148.896 147.96 151.51 149.08 154.603 149.08C157.696 149.08 160.31 147.96 162.443 145.72C164.576 143.48 165.643 140.813 165.643 137.72C165.643 134.627 164.576 131.987 162.443 129.8C160.31 127.56 157.696 126.44 154.603 126.44C151.51 126.44 148.896 127.56 146.763 129.8C144.63 131.987 143.563 134.627 143.563 137.72ZM182.641 116.6H194.241V139.96C194.241 142.627 195.041 144.787 196.641 146.44C198.294 148.093 200.294 148.92 202.641 148.92C205.467 148.92 207.734 147.933 209.441 145.96C211.201 143.933 212.081 141.453 212.081 138.52V116.6H223.681V159H212.081V155.08C208.881 158.173 204.934 159.72 200.241 159.72C195.441 159.72 191.307 158.2 187.841 155.16C184.374 152.067 182.641 147.987 182.641 142.92V116.6ZM259.085 122.2C263.192 117.987 268.125 115.88 273.885 115.88C278.418 115.88 282.312 117.32 285.565 120.2V103H297.165V159H285.565V155.48C282.365 158.253 278.472 159.64 273.885 159.64C268.178 159.64 263.245 157.48 259.085 153.16C254.978 148.84 252.925 143.72 252.925 137.8C252.925 131.667 254.978 126.467 259.085 122.2ZM263.725 137.8C263.725 140.893 264.792 143.56 266.925 145.8C269.112 148.04 271.805 149.16 275.005 149.16C278.098 149.16 280.765 148.04 283.005 145.8C285.245 143.507 286.365 140.84 286.365 137.8C286.365 134.76 285.245 132.093 283.005 129.8C280.765 127.507 278.098 126.36 275.005 126.36C271.805 126.36 269.112 127.507 266.925 129.8C264.792 132.04 263.725 134.707 263.725 137.8ZM305.531 116.6H317.131V122.28C319.691 118.173 323.558 116.12 328.731 116.12C329.905 116.12 331.131 116.227 332.411 116.44V128.84C330.705 128.2 329.051 127.88 327.451 127.88C325.531 127.88 323.318 128.547 320.811 129.88C318.358 131.16 317.131 133.64 317.131 137.32V159H305.531V116.6ZM350.813 116.6V159H339.213V116.6H350.813ZM340.092 101.48C341.479 100.147 343.159 99.48 345.133 99.48C347.106 99.48 348.786 100.147 350.173 101.48C351.559 102.813 352.253 104.44 352.253 106.36C352.253 108.28 351.559 109.88 350.173 111.16C348.786 112.493 347.106 113.16 345.133 113.16C343.159 113.16 341.479 112.52 340.092 111.24C338.706 109.907 338.013 108.28 338.013 106.36C338.013 104.44 338.706 102.813 340.092 101.48ZM359.203 116.6H370.803V120.52C374.003 117.427 377.95 115.88 382.643 115.88C387.443 115.88 391.576 117.427 395.043 120.52C398.51 123.56 400.243 127.613 400.243 132.68V159H388.643V135.64C388.643 132.973 387.816 130.813 386.163 129.16C384.563 127.507 382.59 126.68 380.243 126.68C377.416 126.68 375.123 127.693 373.363 129.72C371.656 131.693 370.803 134.147 370.803 137.08V159H359.203V116.6ZM419.484 103V133.88L435.244 116.6H449.004L430.924 136.04L449.484 159H435.964L424.044 143.48L419.484 148.44V159H407.884V103H419.484ZM475.494 116.6H482.694V107.32L494.134 104.04V116.6H506.374V126.6H494.134V144.76C494.134 145.88 494.587 146.813 495.494 147.56C496.4 148.307 497.36 148.733 498.374 148.84C499.44 148.893 500.08 148.92 500.294 148.92C502.107 148.92 504.32 148.413 506.934 147.4V158.6C503.894 159.453 501.067 159.88 498.454 159.88C495.2 159.88 491.76 158.947 488.134 157.08C484.507 155.16 482.694 151.08 482.694 144.84V126.6H475.494V116.6ZM517.132 122.28C521.399 118.013 526.545 115.88 532.572 115.88C538.545 115.88 543.665 118.04 547.932 122.36C552.252 126.627 554.412 131.747 554.412 137.72C554.412 143.747 552.279 148.92 548.012 153.24C543.745 157.507 538.599 159.64 532.572 159.64C526.599 159.64 521.452 157.48 517.132 153.16C512.865 148.84 510.732 143.693 510.732 137.72C510.732 131.747 512.865 126.6 517.132 122.28ZM521.532 137.72C521.532 140.813 522.599 143.48 524.732 145.72C526.865 147.96 529.479 149.08 532.572 149.08C535.665 149.08 538.279 147.96 540.412 145.72C542.545 143.48 543.612 140.813 543.612 137.72C543.612 134.627 542.545 131.987 540.412 129.8C538.279 127.56 535.665 126.44 532.572 126.44C529.479 126.44 526.865 127.56 524.732 129.8C522.599 131.987 521.532 134.627 521.532 137.72ZM565.179 122.2C569.285 117.987 574.219 115.88 579.979 115.88C584.512 115.88 588.405 117.32 591.659 120.2V103H603.259V159H591.659V155.48C588.459 158.253 584.565 159.64 579.979 159.64C574.272 159.64 569.339 157.48 565.179 153.16C561.072 148.84 559.019 143.72 559.019 137.8C559.019 131.667 561.072 126.467 565.179 122.2ZM569.819 137.8C569.819 140.893 570.885 143.56 573.019 145.8C575.205 148.04 577.899 149.16 581.099 149.16C584.192 149.16 586.859 148.04 589.099 145.8C591.339 143.507 592.459 140.84 592.459 137.8C592.459 134.76 591.339 132.093 589.099 129.8C586.859 127.507 584.192 126.36 581.099 126.36C577.899 126.36 575.205 127.507 573.019 129.8C570.885 132.04 569.819 134.707 569.819 137.8ZM616.585 122.2C620.692 117.987 625.625 115.88 631.385 115.88C635.918 115.88 639.812 117.32 643.065 120.2V116.6H654.665V159H643.065V155.48C639.865 158.253 635.972 159.64 631.385 159.64C625.678 159.64 620.745 157.48 616.585 153.16C612.478 148.84 610.425 143.72 610.425 137.8C610.425 131.667 612.478 126.467 616.585 122.2ZM621.225 137.8C621.225 140.893 622.292 143.56 624.425 145.8C626.612 148.04 629.305 149.16 632.505 149.16C635.598 149.16 638.265 148.04 640.505 145.8C642.745 143.507 643.865 140.84 643.865 137.8C643.865 134.76 642.745 132.093 640.505 129.8C638.265 127.507 635.598 126.36 632.505 126.36C629.305 126.36 626.612 127.507 624.425 129.8C622.292 132.04 621.225 134.707 621.225 137.8ZM659.831 116.6H672.151L683.191 145.16L693.671 116.6H705.991L682.551 175.8H670.551L677.271 158.76L659.831 116.6ZM711.393 121.16C711.446 115.293 713.393 110.68 717.233 107.32C721.126 103.96 725.819 102.28 731.313 102.28C736.539 102.28 741.019 103.933 744.753 107.24C748.539 110.547 750.433 114.653 750.433 119.56C750.433 121.853 749.953 123.827 748.993 125.48C748.033 127.133 746.859 128.44 745.473 129.4C744.139 130.36 742.779 131.24 741.393 132.04C740.006 132.84 738.806 133.8 737.793 134.92C736.833 135.987 736.326 137.24 736.273 138.68L736.193 141.4H724.993V136.12C724.993 133.88 725.713 131.907 727.153 130.2C728.646 128.493 730.273 127.213 732.033 126.36C733.793 125.453 735.393 124.413 736.833 123.24C738.326 122.013 739.073 120.787 739.073 119.56C739.073 117.8 738.406 116.307 737.073 115.08C735.739 113.8 733.873 113.133 731.473 113.08C731.366 113.08 731.286 113.08 731.233 113.08C728.779 113.08 726.806 113.827 725.313 115.32C723.873 116.76 723.099 118.707 722.993 121.16H711.393ZM726.193 147.48C727.526 146.147 729.179 145.48 731.153 145.48C733.126 145.48 734.779 146.173 736.113 147.56C737.499 148.893 738.193 150.547 738.193 152.52C738.193 154.493 737.526 156.147 736.193 157.48C734.806 158.813 733.126 159.48 731.153 159.48C729.179 159.48 727.499 158.813 726.113 157.48C724.779 156.147 724.113 154.493 724.113 152.52C724.113 150.547 724.806 148.867 726.193 147.48Z"/><g clip-path="url(#clip0_144_1217)"><path fill="#00CC8D" d="M492.414 76.6845C491.576 77.0742 490.668 78.0605 489.761 77.4273C489.064 77.0032 488.272 76.7132 487.436 76.5768C486.601 76.4403 485.742 76.4604 484.917 76.6358C479.123 77.2446 473.413 76.6358 467.675 76.1853C458.838 75.479 450 74.6632 441.149 74.6267C426.393 74.6267 411.622 74.7484 396.865 74.8215H388.74C388.844 74.968 388.98 75.0951 389.141 75.1954C389.301 75.2958 389.483 75.3673 389.676 75.406C394.701 76.4897 399.713 77.6343 404.656 78.9615C418.924 82.8337 433.219 86.6571 446.343 93.0985C456.464 98.0665 465.804 103.887 472.24 112.581C474.574 115.579 476.169 118.966 476.924 122.53C477.678 126.093 477.576 129.754 476.624 133.281C474.669 140.417 469.183 145.64 462.705 149.768C453.365 155.723 442.894 160.021 432.186 163.796C416.563 169.091 400.557 173.484 384.273 176.946C368.399 180.538 352.386 183.631 336.317 186.517C316.507 190.06 296.501 192.605 276.411 194.663C260.579 196.258 244.664 197.025 228.749 197.513C205.867 198.219 182.985 198.109 160.103 197.513C135.546 196.782 110.947 196.514 86.4734 194.347C67.6542 192.642 49.0723 189.78 31.2024 184.179C21.0668 180.952 11.5734 176.812 4.2998 169.446C-0.391047 164.685 -1.04721 159.607 1.39594 154.018C3.8391 148.429 8.12508 143.923 12.9416 139.808C19.7983 134.25 27.3415 129.374 35.4325 125.269C56.7684 113.857 79.6801 104.855 103.617 98.4805C118.29 94.5597 133.145 91.2355 148.069 88.1548C161.569 85.3664 175.111 82.6997 188.793 80.6784C208.142 77.8169 227.534 75.1137 247.037 73.1411C248.043 73.0437 249.034 72.8611 250.025 72.715C249.558 72.4503 249.002 72.3302 248.447 72.374C219.027 72.3253 189.64 73.1371 160.285 74.8093C140.279 75.9296 120.287 77.2446 100.253 78.4623C84.8959 79.3634 69.5389 80.2644 54.0703 79.6799C49.2817 79.4973 44.4931 79.2781 39.3137 79.0711C39.8394 78.5936 40.5523 78.3066 41.3101 78.2675C47.8437 77.1959 54.3774 76.1 60.8553 75.1259C72.9174 73.3116 85.0355 71.8869 97.1535 70.7789C111.659 69.476 126.15 68.0148 140.697 67.1259C153.946 66.2979 167.223 65.2751 180.43 64.5323C193.637 63.7895 207.081 63.2172 220.4 62.6815C238.2 61.9509 256.014 61.756 273.828 62.4379C291.391 63.1076 308.926 64.0696 326.419 65.6038C331.319 66.03 336.191 66.9311 341.148 66.8215C351.13 66.6388 361.126 66.3831 371.108 66.3101C379.275 66.3101 387.442 66.3101 395.609 66.4562C404.255 66.3885 412.898 66.7666 421.492 67.5886C437.994 69.5125 454.607 70.4501 471.165 71.8139C475.046 71.9474 478.903 72.4082 482.683 73.1898C485.341 74.0201 488.093 74.5997 490.892 74.9189C491.66 74.9189 492.455 75.0894 492.79 75.82C493.153 76.234 492.818 76.5262 492.414 76.6845ZM363.387 81.336C351.883 79.4364 340.324 77.8413 328.694 76.721C324.059 76.2827 319.41 76.8428 314.734 76.9767C295.761 77.8048 276.858 79.4121 258.011 81.3481C237.977 83.3816 218.013 85.8169 198.091 88.5445C181.701 90.7971 165.45 93.5977 149.228 96.6541C134.918 99.3694 120.608 102.292 106.507 105.945C86.6549 111.083 67.2075 117.22 48.8629 125.768C40.8032 129.399 33.2986 133.899 26.5255 139.162C20.9412 143.631 16.4458 148.904 14.8123 155.637C14.179 157.792 14.3201 160.064 15.2166 162.146C16.113 164.228 17.7216 166.02 19.8243 167.278C25.4086 171.028 31.8167 173.366 38.3783 175.327C53.719 179.815 69.5899 182.785 85.6916 184.179C105.684 186.152 125.773 186.614 145.863 187.041C161.011 187.345 176.172 187.747 191.334 188.003C203.438 188.21 215.528 188.003 227.632 187.723C239.736 187.442 252.189 187.004 264.447 186.152C277.793 185.239 291.112 183.972 304.375 182.219C316.632 180.599 328.918 179.089 341.12 177.129C354.075 175.059 366.947 172.66 379.763 170.03C389.201 168.094 398.597 165.987 407.894 163.601C422.232 159.948 436.458 155.93 449.54 149.476C457.176 145.701 462.509 140.015 464.129 132.344C465.86 124.112 462.454 117.196 455.487 111.643C447.278 105.068 437.589 100.599 427.328 97.0315C406.68 89.6282 385.208 84.9402 363.387 81.336Z"/></g><defs><clipPath id="clip0_144_1217"><rect width="493" height="136" fill="#fff" transform="matrix(1 0 0 -1 0 198)"/></clipPath></defs></svg>