<svg xmlns="http://www.w3.org/2000/svg" width="959" height="196" fill="none" viewBox="0 0 959 196"><path fill="#000" d="M90.2235 33.66C94.2788 29.4993 99.1505 27.419 104.838 27.419C109.315 27.419 113.16 28.841 116.372 31.685V14.7H127.827V70H116.372V66.524C113.212 69.2627 109.368 70.632 104.838 70.632C99.2032 70.632 94.3315 68.499 90.2235 64.233C86.1682 59.967 84.1405 54.911 84.1405 49.065C84.1405 43.0083 86.1682 37.8733 90.2235 33.66ZM94.8055 49.065C94.8055 52.1197 95.8588 54.753 97.9655 56.965C100.125 59.177 102.784 60.283 105.944 60.283C108.999 60.283 111.632 59.177 113.844 56.965C116.056 54.7003 117.162 52.067 117.162 49.065C117.162 46.063 116.056 43.4297 113.844 41.165C111.632 38.9003 108.999 37.768 105.944 37.768C102.784 37.768 100.125 38.9003 97.9655 41.165C95.8588 43.377 94.8055 46.0103 94.8055 49.065ZM147.939 28.13V70H136.484V28.13H147.939ZM137.353 13.199C138.722 11.8823 140.381 11.224 142.33 11.224C144.279 11.224 145.938 11.8823 147.307 13.199C148.676 14.5157 149.361 16.122 149.361 18.018C149.361 19.914 148.676 21.494 147.307 22.758C145.938 24.0747 144.279 24.733 142.33 24.733C140.381 24.733 138.722 24.101 137.353 22.837C135.984 21.5203 135.299 19.914 135.299 18.018C135.299 16.122 135.984 14.5157 137.353 13.199ZM161.123 33.66C165.178 29.4993 170.05 27.419 175.738 27.419C180.215 27.419 184.059 28.841 187.272 31.685V14.7H198.727V70H187.272V66.524C184.112 69.2627 180.267 70.632 175.738 70.632C170.103 70.632 165.231 68.499 161.123 64.233C157.068 59.967 155.04 54.911 155.04 49.065C155.04 43.0083 157.068 37.8733 161.123 33.66ZM165.705 49.065C165.705 52.1197 166.758 54.753 168.865 56.965C171.024 59.177 173.684 60.283 176.844 60.283C179.899 60.283 182.532 59.177 184.744 56.965C186.956 54.7003 188.062 52.067 188.062 49.065C188.062 46.063 186.956 43.4297 184.744 41.165C182.532 38.9003 179.899 37.768 176.844 37.768C173.684 37.768 171.024 38.9003 168.865 41.165C166.758 43.377 165.705 46.0103 165.705 49.065ZM225.584 28.13H237.75L248.652 56.333L259.001 28.13H271.167L248.02 86.59H236.17L242.806 69.763L225.584 28.13ZM277.926 33.739C282.139 29.5257 287.221 27.419 293.173 27.419C299.071 27.419 304.127 29.552 308.341 33.818C312.607 38.0313 314.74 43.0873 314.74 48.986C314.74 54.9373 312.633 60.046 308.42 64.312C304.206 68.5253 299.124 70.632 293.173 70.632C287.274 70.632 282.192 68.499 277.926 64.233C273.712 59.967 271.606 54.8847 271.606 48.986C271.606 43.0873 273.712 38.005 277.926 33.739ZM282.271 48.986C282.271 52.0407 283.324 54.674 285.431 56.886C287.537 59.098 290.118 60.204 293.173 60.204C296.227 60.204 298.808 59.098 300.915 56.886C303.021 54.674 304.075 52.0407 304.075 48.986C304.075 45.9313 303.021 43.3243 300.915 41.165C298.808 38.953 296.227 37.847 293.173 37.847C290.118 37.847 287.537 38.953 285.431 41.165C283.324 43.3243 282.271 45.9313 282.271 48.986ZM320.86 28.13H332.315V51.198C332.315 53.8313 333.105 55.9643 334.685 57.597C336.317 59.2297 338.292 60.046 340.61 60.046C343.401 60.046 345.639 59.0717 347.325 57.123C349.063 55.1217 349.932 52.6727 349.932 49.776V28.13H361.387V70H349.932V66.129C346.772 69.1837 342.874 70.711 338.24 70.711C333.5 70.711 329.418 69.21 325.995 66.208C322.571 63.1533 320.86 59.1243 320.86 54.121V28.13ZM389.87 28.13H396.98V18.966L408.277 15.727V28.13H420.364V38.005H408.277V55.938C408.277 57.044 408.725 57.9657 409.62 58.703C410.516 59.4403 411.464 59.8617 412.464 59.967C413.518 60.0197 414.15 60.046 414.36 60.046C416.151 60.046 418.337 59.5457 420.917 58.545V69.605C417.915 70.4477 415.124 70.869 412.543 70.869C409.331 70.869 405.934 69.9473 402.352 68.104C398.771 66.208 396.98 62.179 396.98 56.017V38.005H389.87V28.13ZM430.988 33.66C435.043 29.4993 439.915 27.419 445.603 27.419C450.08 27.419 453.924 28.841 457.137 31.685V28.13H468.592V70H457.137V66.524C453.977 69.2627 450.132 70.632 445.603 70.632C439.968 70.632 435.096 68.499 430.988 64.233C426.933 59.967 424.905 54.911 424.905 49.065C424.905 43.0083 426.933 37.8733 430.988 33.66ZM435.57 49.065C435.57 52.1197 436.623 54.753 438.73 56.965C440.889 59.177 443.549 60.283 446.709 60.283C449.764 60.283 452.397 59.177 454.609 56.965C456.821 54.7003 457.927 52.067 457.927 49.065C457.927 46.063 456.821 43.4297 454.609 41.165C452.397 38.9003 449.764 37.768 446.709 37.768C443.549 37.768 440.889 38.9003 438.73 41.165C436.623 43.377 435.57 46.0103 435.57 49.065ZM488.704 14.7V45.194L504.267 28.13H517.855L500.001 47.327L518.329 70H504.978L493.207 54.674L488.704 59.572V70H477.249V14.7H488.704ZM524.731 33.66C528.944 29.4993 534 27.419 539.899 27.419C545.008 27.419 549.537 29.0517 553.487 32.317C557.437 35.5823 559.939 39.6903 560.992 44.641C561.361 46.221 561.545 47.7483 561.545 49.223C561.545 50.645 561.387 52.0143 561.071 53.331H529.629C530.261 55.6483 531.499 57.439 533.342 58.703C535.185 59.9143 537.371 60.52 539.899 60.52C543.902 60.52 547.193 59.335 549.774 56.965L559.728 59.809C558.095 63.0743 555.383 65.7077 551.591 67.709C547.799 69.6577 543.902 70.632 539.899 70.632C533.895 70.632 528.786 68.5253 524.573 64.312C520.412 60.046 518.332 54.9637 518.332 49.065C518.332 43.0083 520.465 37.8733 524.731 33.66ZM529.629 44.641H549.932C549.3 42.6397 548.089 40.9543 546.298 39.585C544.507 38.2157 542.348 37.531 539.82 37.531C537.292 37.531 535.106 38.2157 533.263 39.585C531.472 40.9543 530.261 42.6397 529.629 44.641ZM595.245 33.66C599.458 29.4993 604.514 27.419 610.413 27.419C615.521 27.419 620.051 29.0517 624.001 32.317C627.951 35.5823 630.452 39.6903 631.506 44.641C631.874 46.221 632.059 47.7483 632.059 49.223C632.059 50.645 631.901 52.0143 631.585 53.331H600.143C600.775 55.6483 602.012 57.439 603.856 58.703C605.699 59.9143 607.885 60.52 610.413 60.52C614.415 60.52 617.707 59.335 620.288 56.965L630.242 59.809C628.609 63.0743 625.897 65.7077 622.105 67.709C618.313 69.6577 614.415 70.632 610.413 70.632C604.409 70.632 599.3 68.5253 595.087 64.312C590.926 60.046 588.846 54.9637 588.846 49.065C588.846 43.0083 590.979 37.8733 595.245 33.66ZM600.143 44.641H620.446C619.814 42.6397 618.602 40.9543 616.812 39.585C615.021 38.2157 612.862 37.531 610.334 37.531C607.806 37.531 605.62 38.2157 603.777 39.585C601.986 40.9543 600.775 42.6397 600.143 44.641ZM638.017 28.13H649.472V32.001C652.632 28.9463 656.529 27.419 661.164 27.419C665.904 27.419 669.986 28.9463 673.409 32.001C676.832 35.003 678.544 39.0057 678.544 44.009V70H667.089V46.932C667.089 44.2987 666.273 42.1657 664.64 40.533C663.06 38.9003 661.111 38.084 658.794 38.084C656.003 38.084 653.738 39.0847 652 41.086C650.315 43.0347 649.472 45.4573 649.472 48.354V70H638.017V28.13ZM690.593 33.739C694.806 29.5257 699.888 27.419 705.84 27.419C711.738 27.419 716.794 29.552 721.008 33.818C725.274 38.0313 727.407 43.0873 727.407 48.986C727.407 54.9373 725.3 60.046 721.087 64.312C716.873 68.5253 711.791 70.632 705.84 70.632C699.941 70.632 694.859 68.499 690.593 64.233C686.379 59.967 684.273 54.8847 684.273 48.986C684.273 43.0873 686.379 38.005 690.593 33.739ZM694.938 48.986C694.938 52.0407 695.991 54.674 698.098 56.886C700.204 59.098 702.785 60.204 705.84 60.204C708.894 60.204 711.475 59.098 713.582 56.886C715.688 54.674 716.742 52.0407 716.742 48.986C716.742 45.9313 715.688 43.3243 713.582 41.165C711.475 38.953 708.894 37.847 705.84 37.847C702.785 37.847 700.204 38.953 698.098 41.165C695.991 43.3243 694.938 45.9313 694.938 48.986ZM733.527 28.13H744.982V51.198C744.982 53.8313 745.772 55.9643 747.352 57.597C748.984 59.2297 750.959 60.046 753.277 60.046C756.068 60.046 758.306 59.0717 759.992 57.123C761.73 55.1217 762.599 52.6727 762.599 49.776V28.13H774.054V70H762.599V66.129C759.439 69.1837 755.541 70.711 750.907 70.711C746.167 70.711 742.085 69.21 738.662 66.208C735.238 63.1533 733.527 59.1243 733.527 54.121V28.13ZM781.177 48.512C781.177 42.4553 783.125 37.4257 787.023 33.423C790.973 29.4203 795.765 27.419 801.401 27.419C801.559 27.419 801.717 27.419 801.875 27.419C806.404 27.4717 810.249 28.92 813.409 31.764V28.13H824.864V67.867C824.864 73.713 822.889 78.5583 818.939 82.403C815.041 86.3003 810.064 88.249 804.008 88.249C799.057 88.249 794.633 86.8533 790.736 84.062C786.838 81.2707 784.258 77.2153 782.994 71.896H794.449C795.976 75.688 799.11 77.584 803.85 77.584C806.904 77.584 809.248 76.7413 810.881 75.056C812.566 73.3707 813.409 70.9743 813.409 67.867V65.734C810.301 68.3147 806.457 69.605 801.875 69.605C795.871 69.605 790.92 67.5773 787.023 63.522C783.125 59.4667 781.177 54.4633 781.177 48.512ZM791.842 48.512C791.842 51.514 792.948 54.0683 795.16 56.175C797.319 58.3343 799.926 59.414 802.981 59.414C806.035 59.414 808.669 58.3607 810.881 56.254C813.093 54.0947 814.199 51.514 814.199 48.512C814.199 45.51 813.093 42.9557 810.881 40.849C808.721 38.6897 806.088 37.61 802.981 37.61C799.926 37.61 797.293 38.6897 795.081 40.849C792.921 42.9557 791.842 45.51 791.842 48.512ZM833.135 14.7H844.59V32.001C847.75 28.9463 851.647 27.419 856.282 27.419C861.022 27.419 865.103 28.9463 868.527 32.001C871.95 35.003 873.662 39.0057 873.662 44.009V70H862.207V46.932C862.207 44.2987 861.39 42.1657 859.758 40.533C858.178 38.9003 856.229 38.084 853.912 38.084C851.12 38.084 848.856 39.0847 847.118 41.086C845.432 43.0347 844.59 45.4573 844.59 48.354V70H833.135V14.7ZM7.83143 126.13H14.9414V116.966L26.2384 113.727V126.13H38.3254V136.005H26.2384V153.938C26.2384 155.044 26.6861 155.966 27.5814 156.703C28.4768 157.44 29.4248 157.862 30.4254 157.967C31.4788 158.02 32.1108 158.046 32.3214 158.046C34.1121 158.046 36.2978 157.546 38.8784 156.545V167.605C35.8764 168.448 33.0851 168.869 30.5044 168.869C27.2918 168.869 23.8948 167.947 20.3134 166.104C16.7321 164.208 14.9414 160.179 14.9414 154.017V136.005H7.83143V126.13ZM57.444 126.13V168H45.989V126.13H57.444ZM46.858 111.199C48.2274 109.882 49.8864 109.224 51.835 109.224C53.7837 109.224 55.4427 109.882 56.812 111.199C58.1814 112.516 58.866 114.122 58.866 116.018C58.866 117.914 58.1814 119.494 56.812 120.758C55.4427 122.075 53.7837 122.733 51.835 122.733C49.8864 122.733 48.2274 122.101 46.858 120.837C45.4887 119.52 44.804 117.914 44.804 116.018C44.804 114.122 45.4887 112.516 46.858 111.199ZM77.5798 126.13V130.001C80.7398 126.946 84.2421 125.419 88.0868 125.419C93.3535 125.419 97.5668 127.552 100.727 131.818C102.465 129.817 104.545 128.263 106.968 127.157C109.39 125.998 111.839 125.419 114.315 125.419C118.528 125.419 122.215 126.92 125.375 129.922C128.535 132.871 130.115 136.9 130.115 142.009V168H118.66V144.537C118.66 141.851 118.08 139.744 116.922 138.217C115.816 136.637 114.157 135.847 111.945 135.847C107.152 135.847 104.466 138.638 103.887 144.221V168H92.4318V144.537C92.4318 141.851 91.8525 139.744 90.6938 138.217C89.5878 136.637 87.9288 135.847 85.7168 135.847C82.9255 135.847 80.8715 136.795 79.5548 138.691C78.2381 140.534 77.5798 142.957 77.5798 145.959V168H66.1248V126.13H77.5798ZM142.46 131.66C146.674 127.499 151.73 125.419 157.628 125.419C162.737 125.419 167.266 127.052 171.216 130.317C175.166 133.582 177.668 137.69 178.721 142.641C179.09 144.221 179.274 145.748 179.274 147.223C179.274 148.645 179.116 150.014 178.8 151.331H147.358C147.99 153.648 149.228 155.439 151.071 156.703C152.915 157.914 155.1 158.52 157.628 158.52C161.631 158.52 164.923 157.335 167.503 154.965L177.457 157.809C175.825 161.074 173.112 163.708 169.32 165.709C165.528 167.658 161.631 168.632 157.628 168.632C151.624 168.632 146.516 166.525 142.302 162.312C138.142 158.046 136.061 152.964 136.061 147.065C136.061 141.008 138.194 135.873 142.46 131.66ZM147.358 142.641H167.661C167.029 140.64 165.818 138.954 164.027 137.585C162.237 136.216 160.077 135.531 157.549 135.531C155.021 135.531 152.836 136.216 150.992 137.585C149.202 138.954 147.99 140.64 147.358 142.641ZM205.785 126.13H212.5V124.55C212.5 121.495 213.211 118.915 214.633 116.808C216.108 114.701 218.004 113.253 220.321 112.463C222.638 111.62 225.087 111.199 227.668 111.199C227.721 111.199 228.432 111.225 229.801 111.278C231.223 111.278 233.251 111.699 235.884 112.542V120.995C233.883 120.363 232.355 120.021 231.302 119.968C230.301 119.863 229.696 119.81 229.485 119.81C228.01 119.81 226.641 120.152 225.377 120.837C224.113 121.522 223.481 122.759 223.481 124.55V126.13H235.094V136.005H223.955L224.034 168H212.737L212.5 136.005H205.785V126.13ZM245.523 131.739C249.737 127.526 254.819 125.419 260.77 125.419C266.669 125.419 271.725 127.552 275.938 131.818C280.204 136.031 282.337 141.087 282.337 146.986C282.337 152.937 280.231 158.046 276.017 162.312C271.804 166.525 266.722 168.632 260.77 168.632C254.872 168.632 249.789 166.499 245.523 162.233C241.31 157.967 239.203 152.885 239.203 146.986C239.203 141.087 241.31 136.005 245.523 131.739ZM249.868 146.986C249.868 150.041 250.922 152.674 253.028 154.886C255.135 157.098 257.716 158.204 260.77 158.204C263.825 158.204 266.406 157.098 268.512 154.886C270.619 152.674 271.672 150.041 271.672 146.986C271.672 143.931 270.619 141.324 268.512 139.165C266.406 136.953 263.825 135.847 260.77 135.847C257.716 135.847 255.135 136.953 253.028 139.165C250.922 141.324 249.868 143.931 249.868 146.986ZM288.072 126.13H299.527V131.739C302.055 127.684 305.873 125.656 310.982 125.656C312.14 125.656 313.352 125.761 314.616 125.972V138.217C312.93 137.585 311.298 137.269 309.718 137.269C307.822 137.269 305.636 137.927 303.161 139.244C300.738 140.508 299.527 142.957 299.527 146.591V168H288.072V126.13ZM339.533 126.13H351.699L362.601 154.333L372.95 126.13H385.116L361.969 184.59H350.119L356.755 167.763L339.533 126.13ZM391.874 131.739C396.087 127.526 401.17 125.419 407.121 125.419C413.02 125.419 418.076 127.552 422.289 131.818C426.555 136.031 428.688 141.087 428.688 146.986C428.688 152.937 426.581 158.046 422.368 162.312C418.155 166.525 413.072 168.632 407.121 168.632C401.222 168.632 396.14 166.499 391.874 162.233C387.661 157.967 385.554 152.885 385.554 146.986C385.554 141.087 387.661 136.005 391.874 131.739ZM396.219 146.986C396.219 150.041 397.272 152.674 399.379 154.886C401.486 157.098 404.066 158.204 407.121 158.204C410.176 158.204 412.756 157.098 414.863 154.886C416.97 152.674 418.023 150.041 418.023 146.986C418.023 143.931 416.97 141.324 414.863 139.165C412.756 136.953 410.176 135.847 407.121 135.847C404.066 135.847 401.486 136.953 399.379 139.165C397.272 141.324 396.219 143.931 396.219 146.986ZM434.808 126.13H446.263V149.198C446.263 151.831 447.053 153.964 448.633 155.597C450.266 157.23 452.241 158.046 454.558 158.046C457.349 158.046 459.588 157.072 461.273 155.123C463.011 153.122 463.88 150.673 463.88 147.776V126.13H475.335V168H463.88V164.129C460.72 167.184 456.823 168.711 452.188 168.711C447.448 168.711 443.366 167.21 439.943 164.208C436.52 161.153 434.808 157.124 434.808 152.121V126.13ZM483.643 126.13H495.098V131.739C497.626 127.684 501.444 125.656 506.553 125.656C507.712 125.656 508.923 125.761 510.187 125.972V138.217C508.502 137.585 506.869 137.269 505.289 137.269C503.393 137.269 501.207 137.927 498.732 139.244C496.309 140.508 495.098 142.957 495.098 146.591V168H483.643V126.13ZM520.142 128.895C523.355 126.578 527.568 125.419 532.782 125.419C538.733 125.419 544.105 126.683 548.898 129.211V140.034C542.473 136.821 537.101 135.215 532.782 135.215C530.939 135.215 529.543 135.531 528.595 136.163C527.647 136.742 527.173 137.48 527.173 138.375C527.173 138.902 527.331 139.376 527.647 139.797C528.016 140.166 528.569 140.508 529.306 140.824C530.096 141.087 530.86 141.298 531.597 141.456C532.334 141.614 533.335 141.851 534.599 142.167C535.916 142.43 537.022 142.667 537.917 142.878C546.66 145.195 551.031 149.54 551.031 155.913C551.031 158.23 550.478 160.258 549.372 161.996C548.319 163.734 546.897 165.077 545.106 166.025C543.368 166.92 541.525 167.579 539.576 168C537.68 168.421 535.679 168.632 533.572 168.632C527.884 168.632 522.275 167.078 516.745 163.971V152.595C518.799 154.017 521.406 155.386 524.566 156.703C527.779 158.02 530.781 158.678 533.572 158.678C537.364 158.678 539.26 157.677 539.26 155.676C539.26 154.57 538.523 153.701 537.048 153.069C535.573 152.384 533.098 151.673 529.622 150.936C524.724 149.883 521.116 148.382 518.799 146.433C516.482 144.484 515.323 141.825 515.323 138.454C515.323 134.399 516.929 131.212 520.142 128.895ZM561.376 131.66C565.59 127.499 570.646 125.419 576.544 125.419C581.653 125.419 586.182 127.052 590.132 130.317C594.082 133.582 596.584 137.69 597.637 142.641C598.006 144.221 598.19 145.748 598.19 147.223C598.19 148.645 598.032 150.014 597.716 151.331H566.274C566.906 153.648 568.144 155.439 569.987 156.703C571.831 157.914 574.016 158.52 576.544 158.52C580.547 158.52 583.839 157.335 586.419 154.965L596.373 157.809C594.741 161.074 592.028 163.708 588.236 165.709C584.444 167.658 580.547 168.632 576.544 168.632C570.54 168.632 565.432 166.525 561.218 162.312C557.058 158.046 554.977 152.964 554.977 147.065C554.977 141.008 557.11 135.873 561.376 131.66ZM566.274 142.641H586.577C585.945 140.64 584.734 138.954 582.943 137.585C581.153 136.216 578.993 135.531 576.465 135.531C573.937 135.531 571.752 136.216 569.908 137.585C568.118 138.954 566.906 140.64 566.274 142.641ZM604.92 168V112.7H616.375V168H604.92ZM622.309 126.13H629.024V124.55C629.024 121.495 629.735 118.915 631.157 116.808C632.632 114.701 634.528 113.253 636.845 112.463C639.163 111.62 641.612 111.199 644.192 111.199C644.245 111.199 644.956 111.225 646.325 111.278C647.747 111.278 649.775 111.699 652.408 112.542V120.995C650.407 120.363 648.88 120.021 647.826 119.968C646.826 119.863 646.22 119.81 646.009 119.81C644.535 119.81 643.165 120.152 641.901 120.837C640.637 121.522 640.005 122.759 640.005 124.55V126.13H651.618V136.005H640.479L640.558 168H629.261L629.024 136.005H622.309V126.13ZM678.869 126.13H685.979V116.966L697.276 113.727V126.13H709.363V136.005H697.276V153.938C697.276 155.044 697.723 155.966 698.619 156.703C699.514 157.44 700.462 157.862 701.463 157.967C702.516 158.02 703.148 158.046 703.359 158.046C705.149 158.046 707.335 157.546 709.916 156.545V167.605C706.914 168.448 704.122 168.869 701.542 168.869C698.329 168.869 694.932 167.947 691.351 166.104C687.769 164.208 685.979 160.179 685.979 154.017V136.005H678.869V126.13ZM719.986 131.739C724.2 127.526 729.282 125.419 735.233 125.419C741.132 125.419 746.188 127.552 750.401 131.818C754.667 136.031 756.8 141.087 756.8 146.986C756.8 152.937 754.694 158.046 750.48 162.312C746.267 166.525 741.185 168.632 735.233 168.632C729.335 168.632 724.252 166.499 719.986 162.233C715.773 157.967 713.666 152.885 713.666 146.986C713.666 141.087 715.773 136.005 719.986 131.739ZM724.331 146.986C724.331 150.041 725.385 152.674 727.491 154.886C729.598 157.098 732.179 158.204 735.233 158.204C738.288 158.204 740.869 157.098 742.975 154.886C745.082 152.674 746.135 150.041 746.135 146.986C746.135 143.931 745.082 141.324 742.975 139.165C740.869 136.953 738.288 135.847 735.233 135.847C732.179 135.847 729.598 136.953 727.491 139.165C725.385 141.324 724.331 143.931 724.331 146.986ZM767.432 131.66C771.488 127.499 776.359 125.419 782.047 125.419C786.524 125.419 790.369 126.841 793.581 129.685V112.7H805.036V168H793.581V164.524C790.421 167.263 786.577 168.632 782.047 168.632C776.412 168.632 771.54 166.499 767.432 162.233C763.377 157.967 761.349 152.911 761.349 147.065C761.349 141.008 763.377 135.873 767.432 131.66ZM772.014 147.065C772.014 150.12 773.068 152.753 775.174 154.965C777.334 157.177 779.993 158.283 783.153 158.283C786.208 158.283 788.841 157.177 791.053 154.965C793.265 152.7 794.371 150.067 794.371 147.065C794.371 144.063 793.265 141.43 791.053 139.165C788.841 136.9 786.208 135.768 783.153 135.768C779.993 135.768 777.334 136.9 775.174 139.165C773.068 141.377 772.014 144.01 772.014 147.065ZM818.196 131.66C822.251 127.499 827.123 125.419 832.811 125.419C837.288 125.419 841.132 126.841 844.345 129.685V126.13H855.8V168H844.345V164.524C841.185 167.263 837.34 168.632 832.811 168.632C827.176 168.632 822.304 166.499 818.196 162.233C814.141 157.967 812.113 152.911 812.113 147.065C812.113 141.008 814.141 135.873 818.196 131.66ZM822.778 147.065C822.778 150.12 823.831 152.753 825.938 154.965C828.097 157.177 830.757 158.283 833.917 158.283C836.972 158.283 839.605 157.177 841.817 154.965C844.029 152.7 845.135 150.067 845.135 147.065C845.135 144.063 844.029 141.43 841.817 139.165C839.605 136.9 836.972 135.768 833.917 135.768C830.757 135.768 828.097 136.9 825.938 139.165C823.831 141.377 822.778 144.01 822.778 147.065ZM860.902 126.13H873.068L883.97 154.333L894.319 126.13H906.485L883.338 184.59H871.488L878.124 167.763L860.902 126.13ZM911.819 130.633C911.871 124.84 913.794 120.284 917.586 116.966C921.43 113.648 926.065 111.989 931.49 111.989C936.651 111.989 941.075 113.622 944.762 116.887C948.501 120.152 950.371 124.208 950.371 129.053C950.371 131.318 949.897 133.266 948.949 134.899C948.001 136.532 946.842 137.822 945.473 138.77C944.156 139.718 942.813 140.587 941.444 141.377C940.074 142.167 938.889 143.115 937.889 144.221C936.941 145.274 936.44 146.512 936.388 147.934L936.309 150.62H925.249V145.406C925.249 143.194 925.96 141.245 927.382 139.56C928.856 137.875 930.463 136.611 932.201 135.768C933.939 134.873 935.519 133.846 936.941 132.687C938.415 131.476 939.153 130.264 939.153 129.053C939.153 127.315 938.494 125.84 937.178 124.629C935.861 123.365 934.018 122.707 931.648 122.654C931.542 122.654 931.463 122.654 931.411 122.654C928.988 122.654 927.039 123.391 925.565 124.866C924.143 126.288 923.379 128.21 923.274 130.633H911.819ZM926.434 156.624C927.75 155.307 929.383 154.649 931.332 154.649C933.28 154.649 934.913 155.334 936.23 156.703C937.599 158.02 938.284 159.652 938.284 161.601C938.284 163.55 937.625 165.182 936.309 166.499C934.939 167.816 933.28 168.474 931.332 168.474C929.383 168.474 927.724 167.816 926.355 166.499C925.038 165.182 924.38 163.55 924.38 161.601C924.38 159.652 925.064 157.993 926.434 156.624Z"/><path stroke="#00CC8D" stroke-linecap="round" stroke-width="10" d="M587 72C648.34 98.318 714.818 97.9998 780.041 97.9998C792.822 97.9998 804.929 95.9206 817.585 94.4586C824.039 93.7132 830.242 90.8347 836.645 90.4981C842.217 90.2052 847.05 87.3702 852.514 87.0967C860.224 86.7107 867.929 83.7643 875.032 81.2257C877.685 80.2774 880.265 79.9751 882.966 79.5017C884.27 79.2734 885.462 77.4364 887 77.0322"/></svg>