<svg xmlns="http://www.w3.org/2000/svg" width="808" height="209" fill="none" viewBox="0 0 808 209"><path fill="#00CC8D" d="M462.183 111.009C461.528 111.278 460.787 112.023 460.135 111.469C459.631 111.093 459.047 110.819 458.422 110.667C457.798 110.515 457.147 110.487 456.513 110.585C452.095 110.777 447.808 109.996 443.491 109.34C436.842 108.32 430.2 107.213 423.505 106.73C412.339 105.973 401.156 105.314 389.986 104.616L383.838 104.2C383.908 104.322 384.005 104.431 384.121 104.52C384.237 104.609 384.37 104.675 384.514 104.716C388.258 105.843 391.988 107.019 395.655 108.337C406.241 112.174 416.85 115.975 426.43 121.815C433.819 126.319 440.57 131.467 444.967 138.772C446.57 141.296 447.593 144.096 447.97 146.993C448.348 149.89 448.071 152.822 447.159 155.603C445.292 161.227 440.857 165.136 435.731 168.116C428.34 172.413 420.184 175.325 411.876 177.804C399.767 181.251 387.417 183.955 374.907 185.898C362.701 187.966 350.416 189.626 338.1 191.117C322.918 192.945 307.642 193.961 292.329 194.582C280.263 195.05 268.179 194.849 256.11 194.424C238.757 193.818 221.449 192.557 204.168 190.905C185.626 189.06 167.027 187.584 148.627 184.591C134.48 182.259 120.575 179.01 107.358 173.601C99.864 170.493 92.9057 166.685 87.8024 160.402C84.5117 156.342 84.2912 152.235 86.4436 147.877C88.596 143.518 92.0839 140.124 95.9521 137.069C101.442 132.962 107.415 129.437 113.76 126.558C130.525 118.497 148.35 112.45 166.809 108.563C178.125 106.17 189.545 104.265 201.005 102.558C211.372 101.013 221.764 99.5684 232.226 98.6482C247.023 97.3446 261.843 96.1701 276.708 95.5874C277.473 95.5608 278.233 95.4651 278.991 95.3987C278.652 95.1624 278.238 95.0376 277.816 95.0443C255.558 93.497 233.277 92.6418 210.974 92.4785C195.775 92.3516 180.577 92.3817 165.352 92.3316C153.683 92.2672 142.014 92.2028 130.341 90.9409C126.727 90.5489 123.116 90.1276 119.208 89.6961C119.632 89.34 120.187 89.1463 120.762 89.1537C125.764 88.629 130.768 88.0848 135.722 87.6354C144.948 86.7982 154.195 86.2766 163.424 86.0088C174.471 85.7072 185.515 85.2779 196.571 85.3105C206.641 85.3254 216.742 85.1855 226.776 85.2667C236.81 85.3478 247.014 85.5779 257.12 85.8309C270.629 86.1572 284.119 86.9141 297.561 88.3744C310.814 89.812 324.029 91.4825 337.182 93.6101C340.867 94.2032 344.505 95.1758 348.261 95.342C355.824 95.7072 363.401 96.0144 370.958 96.4675C377.138 96.8862 383.318 97.3049 389.49 97.8408C396.035 98.2297 402.555 98.9761 409.013 100.076C421.395 102.465 433.915 104.069 446.369 106.012C449.299 106.318 452.192 106.886 455.01 107.706C456.976 108.509 459.026 109.115 461.127 109.514C461.708 109.554 462.301 109.731 462.515 110.334C462.767 110.685 462.498 110.902 462.183 111.009ZM364.3 108.126C355.699 106.012 347.039 104.14 338.3 102.645C334.817 102.056 331.269 102.267 327.722 102.135C313.321 101.826 298.931 102.147 284.565 102.734C269.295 103.338 254.057 104.268 238.834 105.435C226.31 106.402 213.861 107.816 201.42 109.436C190.445 110.881 179.458 112.492 168.59 114.699C153.29 117.804 138.241 121.73 123.896 127.647C117.6 130.147 111.677 133.372 106.266 137.247C101.797 140.546 98.1092 144.545 96.5073 149.864C95.911 151.559 95.8942 153.39 96.4594 155.106C97.0246 156.822 98.1443 158.342 99.667 159.459C103.689 162.754 108.41 164.958 113.269 166.867C124.633 171.254 136.48 174.45 148.588 176.394C163.608 179.001 178.784 180.403 193.962 181.774C205.407 182.795 216.857 183.895 228.316 184.877C237.463 185.663 246.623 186.117 255.797 186.513C264.97 186.909 274.417 187.196 283.738 187.14C293.887 187.092 304.034 186.759 314.164 186.032C323.527 185.361 332.905 184.779 342.245 183.832C352.16 182.836 362.03 181.571 371.871 180.118C379.117 179.049 386.341 177.841 393.506 176.403C404.554 174.207 415.536 171.713 425.785 167.206C431.769 164.569 436.113 160.281 437.755 154.21C439.513 147.695 437.311 141.972 432.342 137.161C426.488 131.465 419.399 127.383 411.829 123.995C396.607 116.998 380.615 112.136 364.3 108.126V108.126Z"/><path fill="#000" d="M23.5781 28.6H35.0981L40.9381 59L47.8981 28.6H61.8181L68.7781 59.08L74.5381 28.6H86.1381L76.5381 71H61.4981L54.8581 39.32L48.2181 71H33.1781L23.5781 28.6ZM92.3063 15H103.906V32.52C107.106 29.4267 111.053 27.88 115.746 27.88C120.546 27.88 124.68 29.4267 128.146 32.52C131.613 35.56 133.346 39.6133 133.346 44.68V71H121.746V47.64C121.746 44.9733 120.92 42.8133 119.266 41.16C117.666 39.5067 115.693 38.68 113.346 38.68C110.52 38.68 108.226 39.6933 106.466 41.72C104.76 43.6933 103.906 46.1467 103.906 49.08V71H92.3063V15ZM145.929 34.2C150.035 29.9867 154.969 27.88 160.729 27.88C165.262 27.88 169.155 29.32 172.409 32.2V28.6H184.009V71H172.409V67.48C169.209 70.2533 165.315 71.64 160.729 71.64C155.022 71.64 150.089 69.48 145.929 65.16C141.822 60.84 139.769 55.72 139.769 49.8C139.769 43.6667 141.822 38.4667 145.929 34.2ZM150.569 49.8C150.569 52.8933 151.635 55.56 153.769 57.8C155.955 60.04 158.649 61.16 161.849 61.16C164.942 61.16 167.609 60.04 169.849 57.8C172.089 55.5067 173.209 52.84 173.209 49.8C173.209 46.76 172.089 44.0933 169.849 41.8C167.609 39.5067 164.942 38.36 161.849 38.36C158.649 38.36 155.955 39.5067 153.769 41.8C151.635 44.04 150.569 46.7067 150.569 49.8ZM190.775 28.6H197.975V19.32L209.415 16.04V28.6H221.655V38.6H209.415V56.76C209.415 57.88 209.868 58.8133 210.775 59.56C211.682 60.3067 212.642 60.7333 213.655 60.84C214.722 60.8933 215.362 60.92 215.575 60.92C217.388 60.92 219.602 60.4133 222.215 59.4V70.6C219.175 71.4533 216.348 71.88 213.735 71.88C210.482 71.88 207.042 70.9467 203.415 69.08C199.788 67.16 197.975 63.08 197.975 56.84V38.6H190.775V28.6ZM229.378 37L233.458 15H244.738L238.098 37H229.378ZM255.196 31.4C258.449 29.0533 262.716 27.88 267.996 27.88C274.022 27.88 279.462 29.16 284.316 31.72V42.68C277.809 39.4267 272.369 37.8 267.996 37.8C266.129 37.8 264.716 38.12 263.756 38.76C262.796 39.3467 262.316 40.0933 262.316 41C262.316 41.5333 262.476 42.0133 262.796 42.44C263.169 42.8133 263.729 43.16 264.476 43.48C265.276 43.7467 266.049 43.96 266.796 44.12C267.542 44.28 268.556 44.52 269.836 44.84C271.169 45.1067 272.289 45.3467 273.196 45.56C282.049 47.9067 286.476 52.3067 286.476 58.76C286.476 61.1067 285.916 63.16 284.796 64.92C283.729 66.68 282.289 68.04 280.476 69C278.716 69.9067 276.849 70.5733 274.876 71C272.956 71.4267 270.929 71.64 268.796 71.64C263.036 71.64 257.356 70.0667 251.756 66.92V55.4C253.836 56.84 256.476 58.2267 259.676 59.56C262.929 60.8933 265.969 61.56 268.796 61.56C272.636 61.56 274.556 60.5467 274.556 58.52C274.556 57.4 273.809 56.52 272.316 55.88C270.822 55.1867 268.316 54.4667 264.796 53.72C259.836 52.6533 256.182 51.1333 253.836 49.16C251.489 47.1867 250.316 44.4933 250.316 41.08C250.316 36.9733 251.942 33.7467 255.196 31.4ZM312.494 28.6H319.694V19.32L331.134 16.04V28.6H343.374V38.6H331.134V56.76C331.134 57.88 331.587 58.8133 332.494 59.56C333.4 60.3067 334.36 60.7333 335.374 60.84C336.44 60.8933 337.08 60.92 337.294 60.92C339.107 60.92 341.32 60.4133 343.934 59.4V70.6C340.894 71.4533 338.067 71.88 335.454 71.88C332.2 71.88 328.76 70.9467 325.134 69.08C321.507 67.16 319.694 63.08 319.694 56.84V38.6H312.494V28.6ZM354.132 34.28C358.399 30.0133 363.545 27.88 369.572 27.88C375.545 27.88 380.665 30.04 384.932 34.36C389.252 38.6267 391.412 43.7467 391.412 49.72C391.412 55.7467 389.279 60.92 385.012 65.24C380.745 69.5067 375.599 71.64 369.572 71.64C363.599 71.64 358.452 69.48 354.132 65.16C349.865 60.84 347.732 55.6933 347.732 49.72C347.732 43.7467 349.865 38.6 354.132 34.28ZM358.532 49.72C358.532 52.8133 359.599 55.48 361.732 57.72C363.865 59.96 366.479 61.08 369.572 61.08C372.665 61.08 375.279 59.96 377.412 57.72C379.545 55.48 380.612 52.8133 380.612 49.72C380.612 46.6267 379.545 43.9867 377.412 41.8C375.279 39.56 372.665 38.44 369.572 38.44C366.479 38.44 363.865 39.56 361.732 41.8C359.599 43.9867 358.532 46.6267 358.532 49.72ZM402.179 34.2C406.285 29.9867 411.219 27.88 416.979 27.88C421.512 27.88 425.405 29.32 428.659 32.2V15H440.259V71H428.659V67.48C425.459 70.2533 421.565 71.64 416.979 71.64C411.272 71.64 406.339 69.48 402.179 65.16C398.072 60.84 396.019 55.72 396.019 49.8C396.019 43.6667 398.072 38.4667 402.179 34.2ZM406.819 49.8C406.819 52.8933 407.885 55.56 410.019 57.8C412.205 60.04 414.899 61.16 418.099 61.16C421.192 61.16 423.859 60.04 426.099 57.8C428.339 55.5067 429.459 52.84 429.459 49.8C429.459 46.76 428.339 44.0933 426.099 41.8C423.859 39.5067 421.192 38.36 418.099 38.36C414.899 38.36 412.205 39.5067 410.019 41.8C407.885 44.04 406.819 46.7067 406.819 49.8ZM453.585 34.2C457.692 29.9867 462.625 27.88 468.385 27.88C472.918 27.88 476.812 29.32 480.065 32.2V28.6H491.665V71H480.065V67.48C476.865 70.2533 472.972 71.64 468.385 71.64C462.678 71.64 457.745 69.48 453.585 65.16C449.478 60.84 447.425 55.72 447.425 49.8C447.425 43.6667 449.478 38.4667 453.585 34.2ZM458.225 49.8C458.225 52.8933 459.292 55.56 461.425 57.8C463.612 60.04 466.305 61.16 469.505 61.16C472.598 61.16 475.265 60.04 477.505 57.8C479.745 55.5067 480.865 52.84 480.865 49.8C480.865 46.76 479.745 44.0933 477.505 41.8C475.265 39.5067 472.598 38.36 469.505 38.36C466.305 38.36 463.612 39.5067 461.425 41.8C459.292 44.04 458.225 46.7067 458.225 49.8ZM496.831 28.6H509.151L520.191 57.16L530.671 28.6H542.991L519.551 87.8H507.551L514.271 70.76L496.831 28.6ZM549.534 37L553.614 15H564.894L558.254 37H549.534ZM575.352 31.4C578.605 29.0533 582.872 27.88 588.152 27.88C594.179 27.88 599.619 29.16 604.472 31.72V42.68C597.965 39.4267 592.525 37.8 588.152 37.8C586.285 37.8 584.872 38.12 583.912 38.76C582.952 39.3467 582.472 40.0933 582.472 41C582.472 41.5333 582.632 42.0133 582.952 42.44C583.325 42.8133 583.885 43.16 584.632 43.48C585.432 43.7467 586.205 43.96 586.952 44.12C587.699 44.28 588.712 44.52 589.992 44.84C591.325 45.1067 592.445 45.3467 593.352 45.56C602.205 47.9067 606.632 52.3067 606.632 58.76C606.632 61.1067 606.072 63.16 604.952 64.92C603.885 66.68 602.445 68.04 600.632 69C598.872 69.9067 597.005 70.5733 595.032 71C593.112 71.4267 591.085 71.64 588.952 71.64C583.192 71.64 577.512 70.0667 571.912 66.92V55.4C573.992 56.84 576.632 58.2267 579.832 59.56C583.085 60.8933 586.125 61.56 588.952 61.56C592.792 61.56 594.712 60.5467 594.712 58.52C594.712 57.4 593.965 56.52 592.472 55.88C590.979 55.1867 588.472 54.4667 584.952 53.72C579.992 52.6533 576.339 51.1333 573.992 49.16C571.645 47.1867 570.472 44.4933 570.472 41.08C570.472 36.9733 572.099 33.7467 575.352 31.4ZM632.65 28.6H639.85V19.32L651.29 16.04V28.6H663.53V38.6H651.29V56.76C651.29 57.88 651.743 58.8133 652.65 59.56C653.557 60.3067 654.517 60.7333 655.53 60.84C656.597 60.8933 657.237 60.92 657.45 60.92C659.263 60.92 661.477 60.4133 664.09 59.4V70.6C661.05 71.4533 658.223 71.88 655.61 71.88C652.357 71.88 648.917 70.9467 645.29 69.08C641.663 67.16 639.85 63.08 639.85 56.84V38.6H632.65V28.6ZM674.288 34.28C678.555 30.0133 683.701 27.88 689.728 27.88C695.701 27.88 700.821 30.04 705.088 34.36C709.408 38.6267 711.568 43.7467 711.568 49.72C711.568 55.7467 709.435 60.92 705.168 65.24C700.901 69.5067 695.755 71.64 689.728 71.64C683.755 71.64 678.608 69.48 674.288 65.16C670.021 60.84 667.888 55.6933 667.888 49.72C667.888 43.7467 670.021 38.6 674.288 34.28ZM678.688 49.72C678.688 52.8133 679.755 55.48 681.888 57.72C684.021 59.96 686.635 61.08 689.728 61.08C692.821 61.08 695.435 59.96 697.568 57.72C699.701 55.48 700.768 52.8133 700.768 49.72C700.768 46.6267 699.701 43.9867 697.568 41.8C695.435 39.56 692.821 38.44 689.728 38.44C686.635 38.44 684.021 39.56 681.888 41.8C679.755 43.9867 678.688 46.6267 678.688 49.72ZM717.375 28.6H728.975V32.12C732.175 29.3467 736.068 27.96 740.655 27.96C746.362 27.96 751.268 30.12 755.375 34.44C759.535 38.76 761.615 43.88 761.615 49.8C761.615 55.9333 759.562 61.1067 755.455 65.32C751.348 69.5333 746.415 71.64 740.655 71.64C736.122 71.64 732.228 70.2 728.975 67.32V87.8H717.375V28.6ZM728.175 49.8C728.175 52.84 729.295 55.5067 731.535 57.8C733.775 60.0933 736.442 61.24 739.535 61.24C742.735 61.24 745.402 60.12 747.535 57.88C749.722 55.5867 750.815 52.8933 750.815 49.8C750.815 46.7067 749.722 44.04 747.535 41.8C745.402 39.56 742.735 38.44 739.535 38.44C736.442 38.44 733.775 39.5867 731.535 41.88C729.295 44.12 728.175 46.76 728.175 49.8ZM141.242 127.6H152.842V131.12C156.042 128.347 159.936 126.96 164.522 126.96C170.229 126.96 175.136 129.12 179.242 133.44C183.402 137.76 185.482 142.88 185.482 148.8C185.482 154.933 183.429 160.107 179.322 164.32C175.216 168.533 170.282 170.64 164.522 170.64C159.989 170.64 156.096 169.2 152.842 166.32V186.8H141.242V127.6ZM152.042 148.8C152.042 151.84 153.162 154.507 155.402 156.8C157.642 159.093 160.309 160.24 163.402 160.24C166.602 160.24 169.269 159.12 171.402 156.88C173.589 154.587 174.682 151.893 174.682 148.8C174.682 145.707 173.589 143.04 171.402 140.8C169.269 138.56 166.602 137.44 163.402 137.44C160.309 137.44 157.642 138.587 155.402 140.88C153.162 143.12 152.042 145.76 152.042 148.8ZM191.477 127.6H203.077V133.28C205.637 129.173 209.503 127.12 214.677 127.12C215.85 127.12 217.077 127.227 218.357 127.44V139.84C216.65 139.2 214.997 138.88 213.397 138.88C211.477 138.88 209.263 139.547 206.757 140.88C204.303 142.16 203.077 144.64 203.077 148.32V170H191.477V127.6ZM236.758 127.6V170H225.158V127.6H236.758ZM226.038 112.48C227.424 111.147 229.104 110.48 231.078 110.48C233.051 110.48 234.731 111.147 236.118 112.48C237.504 113.813 238.198 115.44 238.198 117.36C238.198 119.28 237.504 120.88 236.118 122.16C234.731 123.493 233.051 124.16 231.078 124.16C229.104 124.16 227.424 123.52 226.038 122.24C224.651 120.907 223.958 119.28 223.958 117.36C223.958 115.44 224.651 113.813 226.038 112.48ZM250.108 133.28C254.375 129.013 259.522 126.88 265.548 126.88C271.522 126.88 276.642 129.04 280.908 133.36C285.228 137.627 287.388 142.747 287.388 148.72C287.388 154.747 285.255 159.92 280.988 164.24C276.722 168.507 271.575 170.64 265.548 170.64C259.575 170.64 254.428 168.48 250.108 164.16C245.842 159.84 243.708 154.693 243.708 148.72C243.708 142.747 245.842 137.6 250.108 133.28ZM254.508 148.72C254.508 151.813 255.575 154.48 257.708 156.72C259.842 158.96 262.455 160.08 265.548 160.08C268.642 160.08 271.255 158.96 273.388 156.72C275.522 154.48 276.588 151.813 276.588 148.72C276.588 145.627 275.522 142.987 273.388 140.8C271.255 138.56 268.642 137.44 265.548 137.44C262.455 137.44 259.842 138.56 257.708 140.8C255.575 142.987 254.508 145.627 254.508 148.72ZM293.195 127.6H304.795V133.28C307.355 129.173 311.222 127.12 316.395 127.12C317.569 127.12 318.795 127.227 320.075 127.44V139.84C318.369 139.2 316.715 138.88 315.115 138.88C313.195 138.88 310.982 139.547 308.475 140.88C306.022 142.16 304.795 144.64 304.795 148.32V170H293.195V127.6ZM338.477 127.6V170H326.877V127.6H338.477ZM327.757 112.48C329.143 111.147 330.823 110.48 332.797 110.48C334.77 110.48 336.45 111.147 337.837 112.48C339.223 113.813 339.917 115.44 339.917 117.36C339.917 119.28 339.223 120.88 337.837 122.16C336.45 123.493 334.77 124.16 332.797 124.16C330.823 124.16 329.143 123.52 327.757 122.24C326.37 120.907 325.677 119.28 325.677 117.36C325.677 115.44 326.37 113.813 327.757 112.48ZM345.267 127.6H352.467V118.32L363.907 115.04V127.6H376.147V137.6H363.907V155.76C363.907 156.88 364.361 157.813 365.267 158.56C366.174 159.307 367.134 159.733 368.147 159.84C369.214 159.893 369.854 159.92 370.067 159.92C371.881 159.92 374.094 159.413 376.707 158.4V169.6C373.667 170.453 370.841 170.88 368.227 170.88C364.974 170.88 361.534 169.947 357.907 168.08C354.281 166.16 352.467 162.08 352.467 155.84V137.6H345.267V127.6ZM380.308 127.6H392.628L403.668 156.16L414.148 127.6H426.468L403.028 186.8H391.028L397.748 169.76L380.308 127.6ZM452.22 127.6H459.42V118.32L470.86 115.04V127.6H483.1V137.6H470.86V155.76C470.86 156.88 471.314 157.813 472.22 158.56C473.127 159.307 474.087 159.733 475.1 159.84C476.167 159.893 476.807 159.92 477.02 159.92C478.834 159.92 481.047 159.413 483.66 158.4V169.6C480.62 170.453 477.794 170.88 475.18 170.88C471.927 170.88 468.487 169.947 464.86 168.08C461.234 166.16 459.42 162.08 459.42 155.84V137.6H452.22V127.6ZM493.858 133.2C497.965 128.987 502.898 126.88 508.658 126.88C513.192 126.88 517.085 128.32 520.338 131.2V127.6H531.938V170H520.338V166.48C517.138 169.253 513.245 170.64 508.658 170.64C502.952 170.64 498.018 168.48 493.858 164.16C489.752 159.84 487.698 154.72 487.698 148.8C487.698 142.667 489.752 137.467 493.858 133.2ZM498.498 148.8C498.498 151.893 499.565 154.56 501.698 156.8C503.885 159.04 506.578 160.16 509.778 160.16C512.872 160.16 515.538 159.04 517.778 156.8C520.018 154.507 521.138 151.84 521.138 148.8C521.138 145.76 520.018 143.093 517.778 140.8C515.538 138.507 512.872 137.36 509.778 137.36C506.578 137.36 503.885 138.507 501.698 140.8C499.565 143.04 498.498 145.707 498.498 148.8ZM543.985 130.4C547.238 128.053 551.505 126.88 556.785 126.88C562.811 126.88 568.251 128.16 573.105 130.72V141.68C566.598 138.427 561.158 136.8 556.785 136.8C554.918 136.8 553.505 137.12 552.545 137.76C551.585 138.347 551.105 139.093 551.105 140C551.105 140.533 551.265 141.013 551.585 141.44C551.958 141.813 552.518 142.16 553.265 142.48C554.065 142.747 554.838 142.96 555.585 143.12C556.331 143.28 557.345 143.52 558.625 143.84C559.958 144.107 561.078 144.347 561.985 144.56C570.838 146.907 575.265 151.307 575.265 157.76C575.265 160.107 574.705 162.16 573.585 163.92C572.518 165.68 571.078 167.04 569.265 168C567.505 168.907 565.638 169.573 563.665 170C561.745 170.427 559.718 170.64 557.585 170.64C551.825 170.64 546.145 169.067 540.545 165.92V154.4C542.625 155.84 545.265 157.227 548.465 158.56C551.718 159.893 554.758 160.56 557.585 160.56C561.425 160.56 563.345 159.547 563.345 157.52C563.345 156.4 562.598 155.52 561.105 154.88C559.611 154.187 557.105 153.467 553.585 152.72C548.625 151.653 544.971 150.133 542.625 148.16C540.278 146.187 539.105 143.493 539.105 140.08C539.105 135.973 540.731 132.747 543.985 130.4ZM592.852 114V144.88L608.612 127.6H622.372L604.292 147.04L622.852 170H609.332L597.412 154.48L592.852 159.44V170H581.252V114H592.852ZM628.51 132.16C628.563 126.293 630.51 121.68 634.35 118.32C638.243 114.96 642.936 113.28 648.43 113.28C653.656 113.28 658.136 114.933 661.87 118.24C665.656 121.547 667.55 125.653 667.55 130.56C667.55 132.853 667.07 134.827 666.11 136.48C665.15 138.133 663.976 139.44 662.59 140.4C661.256 141.36 659.896 142.24 658.51 143.04C657.123 143.84 655.923 144.8 654.91 145.92C653.95 146.987 653.443 148.24 653.39 149.68L653.31 152.4H642.11V147.12C642.11 144.88 642.83 142.907 644.27 141.2C645.763 139.493 647.39 138.213 649.15 137.36C650.91 136.453 652.51 135.413 653.95 134.24C655.443 133.013 656.19 131.787 656.19 130.56C656.19 128.8 655.523 127.307 654.19 126.08C652.856 124.8 650.99 124.133 648.59 124.08C648.483 124.08 648.403 124.08 648.35 124.08C645.896 124.08 643.923 124.827 642.43 126.32C640.99 127.76 640.216 129.707 640.11 132.16H628.51ZM643.31 158.48C644.643 157.147 646.296 156.48 648.27 156.48C650.243 156.48 651.896 157.173 653.23 158.56C654.616 159.893 655.31 161.547 655.31 163.52C655.31 165.493 654.643 167.147 653.31 168.48C651.923 169.813 650.243 170.48 648.27 170.48C646.296 170.48 644.616 169.813 643.23 168.48C641.896 167.147 641.23 165.493 641.23 163.52C641.23 161.547 641.923 159.867 643.31 158.48Z"/></svg>