<svg width="658" height="182" viewBox="0 0 658 182" fill="none" xmlns="http://www.w3.org/2000/svg">
<path d="M0.946524 62V4.6H27.1045C32.7352 4.6 37.5185 6.568 41.4545 10.504C45.4452 14.44 47.4405 19.0867 47.4405 24.444C47.4405 29.9107 45.4725 34.5573 41.5365 38.384C37.6005 42.156 32.7899 44.042 27.1045 44.042H13.3285V62H0.946524ZM13.3285 32.972H26.2845C28.9632 32.972 31.1772 32.0973 32.9265 30.348C34.6759 28.5987 35.5505 26.494 35.5505 24.034C35.5505 21.6287 34.6759 19.6333 32.9265 18.048C31.2319 16.4627 29.0179 15.67 26.2845 15.67H13.3285V32.972ZM57.9115 24.362C62.2849 19.9887 67.5602 17.802 73.7375 17.802C79.8602 17.802 85.1082 20.016 89.4815 24.444C93.9095 28.8173 96.1235 34.0653 96.1235 40.188C96.1235 46.3653 93.9369 51.668 89.5635 56.096C85.1902 60.4693 79.9149 62.656 73.7375 62.656C67.6149 62.656 62.3395 60.442 57.9115 56.014C53.5382 51.586 51.3515 46.3107 51.3515 40.188C51.3515 34.0653 53.5382 28.79 57.9115 24.362ZM62.4215 40.188C62.4215 43.3587 63.5149 46.092 65.7015 48.388C67.8882 50.684 70.5669 51.832 73.7375 51.832C76.9082 51.832 79.5869 50.684 81.7735 48.388C83.9602 46.092 85.0535 43.3587 85.0535 40.188C85.0535 37.0173 83.9602 34.3113 81.7735 32.07C79.5869 29.774 76.9082 28.626 73.7375 28.626C70.5669 28.626 67.8882 29.774 65.7015 32.07C63.5149 34.3113 62.4215 37.0173 62.4215 40.188ZM107.16 24.362C111.533 19.9887 116.808 17.802 122.986 17.802C129.108 17.802 134.356 20.016 138.73 24.444C143.158 28.8173 145.372 34.0653 145.372 40.188C145.372 46.3653 143.185 51.668 138.812 56.096C134.438 60.4693 129.163 62.656 122.986 62.656C116.863 62.656 111.588 60.442 107.16 56.014C102.786 51.586 100.6 46.3107 100.6 40.188C100.6 34.0653 102.786 28.79 107.16 24.362ZM111.67 40.188C111.67 43.3587 112.763 46.092 114.95 48.388C117.136 50.684 119.815 51.832 122.986 51.832C126.156 51.832 128.835 50.684 131.022 48.388C133.208 46.092 134.302 43.3587 134.302 40.188C134.302 37.0173 133.208 34.3113 131.022 32.07C128.835 29.774 126.156 28.626 122.986 28.626C119.815 28.626 117.136 29.774 114.95 32.07C112.763 34.3113 111.67 37.0173 111.67 40.188ZM151.324 18.54H163.214V24.362C165.838 20.1527 169.801 18.048 175.104 18.048C176.306 18.048 177.564 18.1573 178.876 18.376V31.086C177.126 30.43 175.432 30.102 173.792 30.102C171.824 30.102 169.555 30.7853 166.986 32.152C164.471 33.464 163.214 36.006 163.214 39.778V62H151.324V18.54ZM213.103 24.28C217.312 19.9613 222.369 17.802 228.273 17.802C232.92 17.802 236.91 19.278 240.245 22.23V18.54H252.135V62H240.245V58.392C236.965 61.2347 232.974 62.656 228.273 62.656C222.424 62.656 217.367 60.442 213.103 56.014C208.894 51.586 206.789 46.338 206.789 40.27C206.789 33.9833 208.894 28.6533 213.103 24.28ZM217.859 40.27C217.859 43.4407 218.952 46.174 221.139 48.47C223.38 50.766 226.141 51.914 229.421 51.914C232.592 51.914 235.325 50.766 237.621 48.47C239.917 46.1193 241.065 43.386 241.065 40.27C241.065 37.154 239.917 34.4207 237.621 32.07C235.325 29.7193 232.592 28.544 229.421 28.544C226.141 28.544 223.38 29.7193 221.139 32.07C218.952 34.366 217.859 37.0993 217.859 40.27ZM260.71 18.54H272.6V22.148C275.88 19.3053 279.871 17.884 284.572 17.884C290.422 17.884 295.451 20.098 299.66 24.526C303.924 28.954 306.056 34.202 306.056 40.27C306.056 46.5567 303.952 51.8593 299.742 56.178C295.533 60.4967 290.476 62.656 284.572 62.656C279.926 62.656 275.935 61.18 272.6 58.228V79.22H260.71V18.54ZM271.78 40.27C271.78 43.386 272.928 46.1193 275.224 48.47C277.52 50.8207 280.254 51.996 283.424 51.996C286.704 51.996 289.438 50.848 291.624 48.552C293.866 46.2013 294.986 43.4407 294.986 40.27C294.986 37.0993 293.866 34.366 291.624 32.07C289.438 29.774 286.704 28.626 283.424 28.626C280.254 28.626 277.52 29.8013 275.224 32.152C272.928 34.448 271.78 37.154 271.78 40.27ZM312.201 18.54H324.091V22.148C327.371 19.3053 331.361 17.884 336.063 17.884C341.912 17.884 346.941 20.098 351.151 24.526C355.415 28.954 357.547 34.202 357.547 40.27C357.547 46.5567 355.442 51.8593 351.233 56.178C347.023 60.4967 341.967 62.656 336.063 62.656C331.416 62.656 327.425 61.18 324.091 58.228V79.22H312.201V18.54ZM323.271 40.27C323.271 43.386 324.419 46.1193 326.715 48.47C329.011 50.8207 331.744 51.996 334.915 51.996C338.195 51.996 340.928 50.848 343.115 48.552C345.356 46.2013 346.477 43.4407 346.477 40.27C346.477 37.0993 345.356 34.366 343.115 32.07C340.928 29.774 338.195 28.626 334.915 28.626C331.744 28.626 329.011 29.8013 326.715 32.152C324.419 34.448 323.271 37.154 323.271 40.27ZM369.103 24.28C373.476 19.9613 378.724 17.802 384.847 17.802C390.149 17.802 394.851 19.4967 398.951 22.886C403.051 26.2753 405.647 30.5393 406.741 35.678C407.123 37.318 407.315 38.9033 407.315 40.434C407.315 41.91 407.151 43.3313 406.823 44.698H374.187C374.843 47.1033 376.127 48.962 378.041 50.274C379.954 51.5313 382.223 52.16 384.847 52.16C389.001 52.16 392.418 50.93 395.097 48.47L405.429 51.422C403.734 54.8113 400.919 57.5447 396.983 59.622C393.047 61.6447 389.001 62.656 384.847 62.656C378.615 62.656 373.312 60.4693 368.939 56.096C364.62 51.668 362.461 46.3927 362.461 40.27C362.461 33.9833 364.675 28.6533 369.103 24.28ZM374.187 35.678H395.261C394.605 33.6007 393.347 31.8513 391.489 30.43C389.63 29.0087 387.389 28.298 384.765 28.298C382.141 28.298 379.872 29.0087 377.959 30.43C376.1 31.8513 374.843 33.6007 374.187 35.678ZM411.059 18.54H418.439V9.028L430.165 5.666V18.54H442.711V28.79H430.165V47.404C430.165 48.552 430.629 49.5087 431.559 50.274C432.488 51.0393 433.472 51.4767 434.511 51.586C435.604 51.6407 436.26 51.668 436.479 51.668C438.337 51.668 440.606 51.1487 443.285 50.11V61.59C440.169 62.4647 437.271 62.902 434.593 62.902C431.258 62.902 427.732 61.9453 424.015 60.032C420.297 58.064 418.439 53.882 418.439 47.486V28.79H411.059V18.54ZM462.555 18.54V62H450.665V18.54H462.555ZM451.567 3.042C452.989 1.67533 454.711 0.991999 456.733 0.991999C458.756 0.991999 460.478 1.67533 461.899 3.042C463.321 4.40867 464.031 6.076 464.031 8.044C464.031 10.012 463.321 11.652 461.899 12.964C460.478 14.3307 458.756 15.014 456.733 15.014C454.711 15.014 452.989 14.358 451.567 13.046C450.146 11.6793 449.435 10.012 449.435 8.044C449.435 6.076 450.146 4.40867 451.567 3.042ZM469.516 18.54H476.896V9.028L488.622 5.666V18.54H501.168V28.79H488.622V47.404C488.622 48.552 489.086 49.5087 490.016 50.274C490.945 51.0393 491.929 51.4767 492.968 51.586C494.061 51.6407 494.717 51.668 494.936 51.668C496.794 51.668 499.063 51.1487 501.742 50.11V61.59C498.626 62.4647 495.728 62.902 493.05 62.902C489.715 62.902 486.189 61.9453 482.472 60.032C478.754 58.064 476.896 53.882 476.896 47.486V28.79H469.516V18.54ZM512.523 24.28C516.896 19.9613 522.144 17.802 528.267 17.802C533.569 17.802 538.271 19.4967 542.371 22.886C546.471 26.2753 549.067 30.5393 550.161 35.678C550.543 37.318 550.735 38.9033 550.735 40.434C550.735 41.91 550.571 43.3313 550.243 44.698H517.607C518.263 47.1033 519.547 48.962 521.461 50.274C523.374 51.5313 525.643 52.16 528.267 52.16C532.421 52.16 535.838 50.93 538.517 48.47L548.849 51.422C547.154 54.8113 544.339 57.5447 540.403 59.622C536.467 61.6447 532.421 62.656 528.267 62.656C522.035 62.656 516.732 60.4693 512.359 56.096C508.04 51.668 505.881 46.3927 505.881 40.27C505.881 33.9833 508.095 28.6533 512.523 24.28ZM517.607 35.678H538.681C538.025 33.6007 536.767 31.8513 534.909 30.43C533.05 29.0087 530.809 28.298 528.185 28.298C525.561 28.298 523.292 29.0087 521.379 30.43C519.52 31.8513 518.263 33.6007 517.607 35.678ZM585.386 24.362C589.759 19.9887 595.035 17.802 601.212 17.802C607.335 17.802 612.583 20.016 616.956 24.444C621.384 28.8173 623.598 34.0653 623.598 40.188C623.598 46.3653 621.411 51.668 617.038 56.096C612.665 60.4693 607.389 62.656 601.212 62.656C595.089 62.656 589.814 60.442 585.386 56.014C581.013 51.586 578.826 46.3107 578.826 40.188C578.826 34.0653 581.013 28.79 585.386 24.362ZM589.896 40.188C589.896 43.3587 590.989 46.092 593.176 48.388C595.363 50.684 598.041 51.832 601.212 51.832C604.383 51.832 607.061 50.684 609.248 48.388C611.435 46.092 612.528 43.3587 612.528 40.188C612.528 37.0173 611.435 34.3113 609.248 32.07C607.061 29.774 604.383 28.626 601.212 28.626C598.041 28.626 595.363 29.774 593.176 32.07C590.989 34.3113 589.896 37.0173 589.896 40.188ZM629.55 18.54H641.44V24.362C644.064 20.1527 648.028 18.048 653.33 18.048C654.533 18.048 655.79 18.1573 657.102 18.376V31.086C655.353 30.43 653.658 30.102 652.018 30.102C650.05 30.102 647.782 30.7853 645.212 32.152C642.698 33.464 641.44 36.006 641.44 39.778V62H629.55V18.54ZM94.7074 125.362C99.0808 120.989 104.356 118.802 110.533 118.802C116.656 118.802 121.904 121.016 126.277 125.444C130.705 129.817 132.919 135.065 132.919 141.188C132.919 147.365 130.733 152.668 126.359 157.096C121.986 161.469 116.711 163.656 110.533 163.656C104.411 163.656 99.1354 161.442 94.7074 157.014C90.3341 152.586 88.1474 147.311 88.1474 141.188C88.1474 135.065 90.3341 129.79 94.7074 125.362ZM99.2174 141.188C99.2174 144.359 100.311 147.092 102.497 149.388C104.684 151.684 107.363 152.832 110.533 152.832C113.704 152.832 116.383 151.684 118.569 149.388C120.756 147.092 121.849 144.359 121.849 141.188C121.849 138.017 120.756 135.311 118.569 133.07C116.383 130.774 113.704 129.626 110.533 129.626C107.363 129.626 104.684 130.774 102.497 133.07C100.311 135.311 99.2174 138.017 99.2174 141.188ZM135.14 119.54H147.768L157.772 154.8L167.776 119.54H180.486L167.366 163H148.26L135.14 119.54ZM189.528 125.28C193.901 120.961 199.149 118.802 205.272 118.802C210.574 118.802 215.276 120.497 219.376 123.886C223.476 127.275 226.072 131.539 227.166 136.678C227.548 138.318 227.74 139.903 227.74 141.434C227.74 142.91 227.576 144.331 227.248 145.698H194.612C195.268 148.103 196.552 149.962 198.466 151.274C200.379 152.531 202.648 153.16 205.272 153.16C209.426 153.16 212.843 151.93 215.522 149.47L225.854 152.422C224.159 155.811 221.344 158.545 217.408 160.622C213.472 162.645 209.426 163.656 205.272 163.656C199.04 163.656 193.737 161.469 189.364 157.096C185.045 152.668 182.886 147.393 182.886 141.27C182.886 134.983 185.1 129.653 189.528 125.28ZM194.612 136.678H215.686C215.03 134.601 213.772 132.851 211.914 131.43C210.055 130.009 207.814 129.298 205.19 129.298C202.566 129.298 200.297 130.009 198.384 131.43C196.525 132.851 195.268 134.601 194.612 136.678ZM233.924 119.54H245.814V125.362C248.438 121.153 252.402 119.048 257.704 119.048C258.907 119.048 260.164 119.157 261.476 119.376V132.086C259.727 131.43 258.032 131.102 256.392 131.102C254.424 131.102 252.156 131.785 249.586 133.152C247.072 134.464 245.814 137.006 245.814 140.778V163H233.924V119.54ZM271.367 125.28C275.741 120.961 280.989 118.802 287.111 118.802C292.414 118.802 297.115 120.497 301.215 123.886C305.315 127.275 307.912 131.539 309.005 136.678C309.388 138.318 309.579 139.903 309.579 141.434C309.579 142.91 309.415 144.331 309.087 145.698H276.451C277.107 148.103 278.392 149.962 280.305 151.274C282.219 152.531 284.487 153.16 287.111 153.16C291.266 153.16 294.683 151.93 297.361 149.47L307.693 152.422C305.999 155.811 303.183 158.545 299.247 160.622C295.311 162.645 291.266 163.656 287.111 163.656C280.879 163.656 275.577 161.469 271.203 157.096C266.885 152.668 264.725 147.393 264.725 141.27C264.725 134.983 266.939 129.653 271.367 125.28ZM276.451 136.678H297.525C296.869 134.601 295.612 132.851 293.753 131.43C291.895 130.009 289.653 129.298 287.029 129.298C284.405 129.298 282.137 130.009 280.223 131.43C278.365 132.851 277.107 134.601 276.451 136.678ZM320.848 125.28C325.057 120.961 330.114 118.802 336.018 118.802C340.665 118.802 344.655 120.278 347.99 123.23V119.54H359.88V163H347.99V159.392C344.71 162.235 340.719 163.656 336.018 163.656C330.169 163.656 325.112 161.442 320.848 157.014C316.639 152.586 314.534 147.338 314.534 141.27C314.534 134.983 316.639 129.653 320.848 125.28ZM325.604 141.27C325.604 144.441 326.697 147.174 328.884 149.47C331.125 151.766 333.886 152.914 337.166 152.914C340.337 152.914 343.07 151.766 345.366 149.47C347.662 147.119 348.81 144.386 348.81 141.27C348.81 138.154 347.662 135.421 345.366 133.07C343.07 130.719 340.337 129.544 337.166 129.544C333.886 129.544 331.125 130.719 328.884 133.07C326.697 135.366 325.604 138.099 325.604 141.27ZM366.815 119.54H374.195V110.028L385.921 106.666V119.54H398.467V129.79H385.921V148.404C385.921 149.552 386.386 150.509 387.315 151.274C388.245 152.039 389.229 152.477 390.267 152.586C391.361 152.641 392.017 152.668 392.235 152.668C394.094 152.668 396.363 152.149 399.041 151.11V162.59C395.925 163.465 393.028 163.902 390.349 163.902C387.015 163.902 383.489 162.945 379.771 161.032C376.054 159.064 374.195 154.882 374.195 148.486V129.79H366.815V119.54ZM418.312 119.54V163H406.422V119.54H418.312ZM407.324 104.042C408.745 102.675 410.467 101.992 412.49 101.992C414.513 101.992 416.235 102.675 417.656 104.042C419.077 105.409 419.788 107.076 419.788 109.044C419.788 111.012 419.077 112.652 417.656 113.964C416.235 115.331 414.513 116.014 412.49 116.014C410.467 116.014 408.745 115.358 407.324 114.046C405.903 112.679 405.192 111.012 405.192 109.044C405.192 107.076 405.903 105.409 407.324 104.042ZM426.913 119.54H438.803V123.558C442.083 120.387 446.128 118.802 450.939 118.802C455.859 118.802 460.095 120.387 463.649 123.558C467.202 126.674 468.979 130.829 468.979 136.022V163H457.089V139.056C457.089 136.323 456.241 134.109 454.547 132.414C452.907 130.719 450.884 129.872 448.479 129.872C445.581 129.872 443.231 130.911 441.427 132.988C439.677 135.011 438.803 137.525 438.803 140.532V163H426.913V119.54ZM475.171 140.696C475.171 134.409 477.193 129.189 481.239 125.034C485.339 120.879 490.313 118.802 496.163 118.802C496.327 118.802 496.491 118.802 496.655 118.802C501.356 118.857 505.347 120.36 508.627 123.312V119.54H520.517V160.786C520.517 166.854 518.467 171.883 514.367 175.874C510.321 179.919 505.155 181.942 498.869 181.942C493.73 181.942 489.138 180.493 485.093 177.596C481.047 174.699 478.369 170.489 477.057 164.968H488.947C490.532 168.904 493.785 170.872 498.705 170.872C501.875 170.872 504.308 169.997 506.003 168.248C507.752 166.499 508.627 164.011 508.627 160.786V158.572C505.401 161.251 501.411 162.59 496.655 162.59C490.423 162.59 485.284 160.485 481.239 156.276C477.193 152.067 475.171 146.873 475.171 140.696ZM486.241 140.696C486.241 143.812 487.389 146.463 489.685 148.65C491.926 150.891 494.632 152.012 497.803 152.012C500.973 152.012 503.707 150.919 506.003 148.732C508.299 146.491 509.447 143.812 509.447 140.696C509.447 137.58 508.299 134.929 506.003 132.742C503.761 130.501 501.028 129.38 497.803 129.38C494.632 129.38 491.899 130.501 489.603 132.742C487.361 134.929 486.241 137.58 486.241 140.696ZM527.172 124.214C527.227 118.201 529.222 113.472 533.158 110.028C537.149 106.584 541.96 104.862 547.59 104.862C552.948 104.862 557.54 106.557 561.366 109.946C565.248 113.335 567.188 117.545 567.188 122.574C567.188 124.925 566.696 126.947 565.712 128.642C564.728 130.337 563.526 131.676 562.104 132.66C560.738 133.644 559.344 134.546 557.922 135.366C556.501 136.186 555.271 137.17 554.232 138.318C553.248 139.411 552.729 140.696 552.674 142.172L552.592 144.96H541.112V139.548C541.112 137.252 541.85 135.229 543.326 133.48C544.857 131.731 546.524 130.419 548.328 129.544C550.132 128.615 551.772 127.549 553.248 126.346C554.779 125.089 555.544 123.831 555.544 122.574C555.544 120.77 554.861 119.239 553.494 117.982C552.128 116.67 550.214 115.987 547.754 115.932C547.645 115.932 547.563 115.932 547.508 115.932C544.994 115.932 542.971 116.697 541.44 118.228C539.964 119.704 539.172 121.699 539.062 124.214H527.172ZM542.342 151.192C543.709 149.825 545.404 149.142 547.426 149.142C549.449 149.142 551.144 149.853 552.51 151.274C553.932 152.641 554.642 154.335 554.642 156.358C554.642 158.381 553.959 160.075 552.592 161.442C551.171 162.809 549.449 163.492 547.426 163.492C545.404 163.492 543.682 162.809 542.26 161.442C540.894 160.075 540.21 158.381 540.21 156.358C540.21 154.335 540.921 152.613 542.342 151.192Z" fill="black"/>
<path d="M197 57C268.768 94.4525 346.547 93.9997 422.858 93.9997C437.812 93.9997 451.977 91.0409 466.785 88.9604C474.335 87.8995 481.593 83.8032 489.085 83.3242C495.604 82.9074 501.258 78.873 507.652 78.4837C516.673 77.9345 525.687 73.7414 533.997 70.1289C537.102 68.7793 540.119 68.3492 543.281 67.6756C544.805 67.3506 546.2 64.7364 548 64.1612" stroke="#00CC8D" stroke-width="10" stroke-linecap="round"/>
</svg>
