<svg xmlns="http://www.w3.org/2000/svg" width="940" height="196" fill="none" viewBox="0 0 940 196"><path fill="#000" d="M41.0555 4.4V15.242H12.4295V26.396H37.9355V36.926H12.4295V59H0.729453V4.4H41.0555ZM49.7433 23.12C53.9033 19.012 58.8953 16.958 64.7193 16.958C69.7633 16.958 74.2353 18.57 78.1353 21.794C82.0353 25.018 84.5053 29.074 85.5453 33.962C85.9093 35.522 86.0913 37.03 86.0913 38.486C86.0913 39.89 85.9353 41.242 85.6233 42.542H54.5793C55.2033 44.83 56.4253 46.598 58.2453 47.846C60.0653 49.042 62.2233 49.64 64.7193 49.64C68.6713 49.64 71.9213 48.47 74.4693 46.13L84.2973 48.938C82.6853 52.162 80.0073 54.762 76.2633 56.738C72.5193 58.662 68.6713 59.624 64.7193 59.624C58.7913 59.624 53.7473 57.544 49.5873 53.384C45.4793 49.172 43.4253 44.154 43.4253 38.33C43.4253 32.35 45.5313 27.28 49.7433 23.12ZM54.5793 33.962H74.6253C74.0013 31.986 72.8053 30.322 71.0373 28.97C69.2693 27.618 67.1373 26.942 64.6413 26.942C62.1453 26.942 59.9873 27.618 58.1673 28.97C56.3993 30.322 55.2033 31.986 54.5793 33.962ZM97.1222 23.12C101.282 19.012 106.274 16.958 112.098 16.958C117.142 16.958 121.614 18.57 125.514 21.794C129.414 25.018 131.884 29.074 132.924 33.962C133.288 35.522 133.47 37.03 133.47 38.486C133.47 39.89 133.314 41.242 133.002 42.542H101.958C102.582 44.83 103.804 46.598 105.624 47.846C107.444 49.042 109.602 49.64 112.098 49.64C116.05 49.64 119.3 48.47 121.848 46.13L131.676 48.938C130.064 52.162 127.386 54.762 123.642 56.738C119.898 58.662 116.05 59.624 112.098 59.624C106.17 59.624 101.126 57.544 96.9662 53.384C92.8582 49.172 90.8042 44.154 90.8042 38.33C90.8042 32.35 92.9102 27.28 97.1222 23.12ZM101.958 33.962H122.004C121.38 31.986 120.184 30.322 118.416 28.97C116.648 27.618 114.516 26.942 112.02 26.942C109.524 26.942 107.366 27.618 105.546 28.97C103.778 30.322 102.582 31.986 101.958 33.962ZM140.115 59V4.4H151.425V59H140.115ZM170.934 17.66V59H159.624V17.66H170.934ZM160.482 2.918C161.834 1.618 163.472 0.967999 165.396 0.967999C167.32 0.967999 168.958 1.618 170.31 2.918C171.662 4.218 172.338 5.804 172.338 7.676C172.338 9.548 171.662 11.108 170.31 12.356C168.958 13.656 167.32 14.306 165.396 14.306C163.472 14.306 161.834 13.682 160.482 12.434C159.13 11.134 158.454 9.548 158.454 7.676C158.454 5.804 159.13 4.218 160.482 2.918ZM179.115 17.66H190.425V21.482C193.545 18.466 197.393 16.958 201.969 16.958C206.649 16.958 210.679 18.466 214.059 21.482C217.439 24.446 219.129 28.398 219.129 33.338V59H207.819V36.224C207.819 33.624 207.013 31.518 205.401 29.906C203.841 28.294 201.917 27.488 199.629 27.488C196.873 27.488 194.637 28.476 192.921 30.452C191.257 32.376 190.425 34.768 190.425 37.628V59H179.115V17.66ZM225.019 37.784C225.019 31.804 226.943 26.838 230.791 22.886C234.691 18.934 239.423 16.958 244.987 16.958C245.143 16.958 245.299 16.958 245.455 16.958C249.927 17.01 253.723 18.44 256.843 21.248V17.66H268.153V56.894C268.153 62.666 266.203 67.45 262.303 71.246C258.455 75.094 253.541 77.018 247.561 77.018C242.673 77.018 238.305 75.64 234.457 72.884C230.609 70.128 228.061 66.124 226.813 60.872H238.123C239.631 64.616 242.725 66.488 247.405 66.488C250.421 66.488 252.735 65.656 254.347 63.992C256.011 62.328 256.843 59.962 256.843 56.894V54.788C253.775 57.336 249.979 58.61 245.455 58.61C239.527 58.61 234.639 56.608 230.791 52.604C226.943 48.6 225.019 43.66 225.019 37.784ZM235.549 37.784C235.549 40.748 236.641 43.27 238.825 45.35C240.957 47.482 243.531 48.548 246.547 48.548C249.563 48.548 252.163 47.508 254.347 45.428C256.531 43.296 257.623 40.748 257.623 37.784C257.623 34.82 256.531 32.298 254.347 30.218C252.215 28.086 249.615 27.02 246.547 27.02C243.531 27.02 240.931 28.086 238.747 30.218C236.615 32.298 235.549 34.82 235.549 37.784ZM302.246 23.12C306.25 19.012 311.06 16.958 316.676 16.958C321.096 16.958 324.892 18.362 328.064 21.17V4.4H339.374V59H328.064V55.568C324.944 58.272 321.148 59.624 316.676 59.624C311.112 59.624 306.302 57.518 302.246 53.306C298.242 49.094 296.24 44.102 296.24 38.33C296.24 32.35 298.242 27.28 302.246 23.12ZM306.77 38.33C306.77 41.346 307.81 43.946 309.89 46.13C312.022 48.314 314.648 49.406 317.768 49.406C320.784 49.406 323.384 48.314 325.568 46.13C327.752 43.894 328.844 41.294 328.844 38.33C328.844 35.366 327.752 32.766 325.568 30.53C323.384 28.294 320.784 27.176 317.768 27.176C314.648 27.176 312.022 28.294 309.89 30.53C307.81 32.714 306.77 35.314 306.77 38.33ZM352.367 23.198C356.527 19.038 361.545 16.958 367.421 16.958C373.245 16.958 378.237 19.064 382.397 23.276C386.609 27.436 388.715 32.428 388.715 38.252C388.715 44.128 386.635 49.172 382.475 53.384C378.315 57.544 373.297 59.624 367.421 59.624C361.597 59.624 356.579 57.518 352.367 53.306C348.207 49.094 346.127 44.076 346.127 38.252C346.127 32.428 348.207 27.41 352.367 23.198ZM356.657 38.252C356.657 41.268 357.697 43.868 359.777 46.052C361.857 48.236 364.405 49.328 367.421 49.328C370.437 49.328 372.985 48.236 375.065 46.052C377.145 43.868 378.185 41.268 378.185 38.252C378.185 35.236 377.145 32.662 375.065 30.53C372.985 28.346 370.437 27.254 367.421 27.254C364.405 27.254 361.857 28.346 359.777 30.53C357.697 32.662 356.657 35.236 356.657 38.252ZM390.827 17.66H402.059L407.753 47.3L414.539 17.66H428.111L434.897 47.378L440.513 17.66H451.823L442.463 59H427.799L421.325 28.112L414.851 59H400.187L390.827 17.66ZM457.447 17.66H468.757V21.482C471.877 18.466 475.725 16.958 480.301 16.958C484.981 16.958 489.011 18.466 492.391 21.482C495.771 24.446 497.461 28.398 497.461 33.338V59H486.151V36.224C486.151 33.624 485.345 31.518 483.733 29.906C482.173 28.294 480.249 27.488 477.961 27.488C475.205 27.488 472.969 28.476 471.253 30.452C469.589 32.376 468.757 34.768 468.757 37.628V59H457.447V17.66ZM503.418 68.36L507.396 46.91H518.394L511.92 68.36H503.418ZM551.404 23.12C555.408 19.012 560.218 16.958 565.834 16.958C570.254 16.958 574.05 18.362 577.222 21.17V4.4H588.532V59H577.222V55.568C574.102 58.272 570.306 59.624 565.834 59.624C560.27 59.624 555.46 57.518 551.404 53.306C547.4 49.094 545.398 44.102 545.398 38.33C545.398 32.35 547.4 27.28 551.404 23.12ZM555.928 38.33C555.928 41.346 556.968 43.946 559.048 46.13C561.18 48.314 563.806 49.406 566.926 49.406C569.942 49.406 572.542 48.314 574.726 46.13C576.91 43.894 578.002 41.294 578.002 38.33C578.002 35.366 576.91 32.766 574.726 30.53C572.542 28.294 569.942 27.176 566.926 27.176C563.806 27.176 561.18 28.294 559.048 30.53C556.968 32.714 555.928 35.314 555.928 38.33ZM601.837 23.12C605.997 19.012 610.989 16.958 616.813 16.958C621.857 16.958 626.329 18.57 630.229 21.794C634.129 25.018 636.599 29.074 637.639 33.962C638.003 35.522 638.185 37.03 638.185 38.486C638.185 39.89 638.029 41.242 637.717 42.542H606.673C607.297 44.83 608.519 46.598 610.339 47.846C612.159 49.042 614.317 49.64 616.813 49.64C620.765 49.64 624.015 48.47 626.563 46.13L636.391 48.938C634.779 52.162 632.101 54.762 628.357 56.738C624.613 58.662 620.765 59.624 616.813 59.624C610.885 59.624 605.841 57.544 601.681 53.384C597.573 49.172 595.519 44.154 595.519 38.33C595.519 32.35 597.625 27.28 601.837 23.12ZM606.673 33.962H626.719C626.095 31.986 624.899 30.322 623.131 28.97C621.363 27.618 619.231 26.942 616.735 26.942C614.239 26.942 612.081 27.618 610.261 28.97C608.493 30.322 607.297 31.986 606.673 33.962ZM644.068 17.66H655.378V21.092C658.498 18.388 662.294 17.036 666.766 17.036C672.33 17.036 677.114 19.142 681.118 23.354C685.174 27.566 687.202 32.558 687.202 38.33C687.202 44.31 685.2 49.354 681.196 53.462C677.192 57.57 672.382 59.624 666.766 59.624C662.346 59.624 658.55 58.22 655.378 55.412V75.38H644.068V17.66ZM654.598 38.33C654.598 41.294 655.69 43.894 657.874 46.13C660.058 48.366 662.658 49.484 665.674 49.484C668.794 49.484 671.394 48.392 673.474 46.208C675.606 43.972 676.672 41.346 676.672 38.33C676.672 35.314 675.606 32.714 673.474 30.53C671.394 28.346 668.794 27.254 665.674 27.254C662.658 27.254 660.058 28.372 657.874 30.608C655.69 32.792 654.598 35.366 654.598 38.33ZM693.046 17.66H704.356V23.198C706.852 19.194 710.622 17.192 715.666 17.192C716.81 17.192 718.006 17.296 719.254 17.504V29.594C717.59 28.97 715.978 28.658 714.418 28.658C712.546 28.658 710.388 29.308 707.944 30.608C705.552 31.856 704.356 34.274 704.356 37.862V59H693.046V17.66ZM728.663 23.12C732.823 19.012 737.815 16.958 743.639 16.958C748.683 16.958 753.155 18.57 757.055 21.794C760.955 25.018 763.425 29.074 764.465 33.962C764.829 35.522 765.011 37.03 765.011 38.486C765.011 39.89 764.855 41.242 764.543 42.542H733.499C734.123 44.83 735.345 46.598 737.165 47.846C738.985 49.042 741.143 49.64 743.639 49.64C747.591 49.64 750.841 48.47 753.389 46.13L763.217 48.938C761.605 52.162 758.927 54.762 755.183 56.738C751.439 58.662 747.591 59.624 743.639 59.624C737.711 59.624 732.667 57.544 728.507 53.384C724.399 49.172 722.345 44.154 722.345 38.33C722.345 32.35 724.451 27.28 728.663 23.12ZM733.499 33.962H753.545C752.921 31.986 751.725 30.322 749.957 28.97C748.189 27.618 746.057 26.942 743.561 26.942C741.065 26.942 738.907 27.618 737.087 28.97C735.319 30.322 734.123 31.986 733.499 33.962ZM774.863 20.39C778.035 18.102 782.195 16.958 787.343 16.958C793.219 16.958 798.523 18.206 803.255 20.702V31.388C796.911 28.216 791.607 26.63 787.343 26.63C785.523 26.63 784.145 26.942 783.209 27.566C782.273 28.138 781.805 28.866 781.805 29.75C781.805 30.27 781.961 30.738 782.273 31.154C782.637 31.518 783.183 31.856 783.911 32.168C784.691 32.428 785.445 32.636 786.173 32.792C786.901 32.948 787.889 33.182 789.137 33.494C790.437 33.754 791.529 33.988 792.413 34.196C801.045 36.484 805.361 40.774 805.361 47.066C805.361 49.354 804.815 51.356 803.723 53.072C802.683 54.788 801.279 56.114 799.511 57.05C797.795 57.934 795.975 58.584 794.051 59C792.179 59.416 790.203 59.624 788.123 59.624C782.507 59.624 776.969 58.09 771.509 55.022V43.79C773.537 45.194 776.111 46.546 779.231 47.846C782.403 49.146 785.367 49.796 788.123 49.796C791.867 49.796 793.739 48.808 793.739 46.832C793.739 45.74 793.011 44.882 791.555 44.258C790.099 43.582 787.655 42.88 784.223 42.152C779.387 41.112 775.825 39.63 773.537 37.706C771.249 35.782 770.105 33.156 770.105 29.828C770.105 25.824 771.691 22.678 774.863 20.39ZM814.396 20.39C817.568 18.102 821.728 16.958 826.876 16.958C832.752 16.958 838.056 18.206 842.788 20.702V31.388C836.444 28.216 831.14 26.63 826.876 26.63C825.056 26.63 823.678 26.942 822.742 27.566C821.806 28.138 821.338 28.866 821.338 29.75C821.338 30.27 821.494 30.738 821.806 31.154C822.17 31.518 822.716 31.856 823.444 32.168C824.224 32.428 824.978 32.636 825.706 32.792C826.434 32.948 827.422 33.182 828.67 33.494C829.97 33.754 831.062 33.988 831.946 34.196C840.578 36.484 844.894 40.774 844.894 47.066C844.894 49.354 844.348 51.356 843.256 53.072C842.216 54.788 840.812 56.114 839.044 57.05C837.328 57.934 835.508 58.584 833.584 59C831.712 59.416 829.736 59.624 827.656 59.624C822.04 59.624 816.502 58.09 811.042 55.022V43.79C813.07 45.194 815.644 46.546 818.764 47.846C821.936 49.146 824.9 49.796 827.656 49.796C831.4 49.796 833.272 48.808 833.272 46.832C833.272 45.74 832.544 44.882 831.088 44.258C829.632 43.582 827.188 42.88 823.756 42.152C818.92 41.112 815.358 39.63 813.07 37.706C810.782 35.782 809.638 33.156 809.638 29.828C809.638 25.824 811.224 22.678 814.396 20.39ZM855.109 23.12C859.269 19.012 864.261 16.958 870.085 16.958C875.129 16.958 879.601 18.57 883.501 21.794C887.401 25.018 889.871 29.074 890.911 33.962C891.275 35.522 891.457 37.03 891.457 38.486C891.457 39.89 891.301 41.242 890.989 42.542H859.945C860.569 44.83 861.791 46.598 863.611 47.846C865.431 49.042 867.589 49.64 870.085 49.64C874.037 49.64 877.287 48.47 879.835 46.13L889.663 48.938C888.051 52.162 885.373 54.762 881.629 56.738C877.885 58.662 874.037 59.624 870.085 59.624C864.157 59.624 859.113 57.544 854.953 53.384C850.845 49.172 848.791 44.154 848.791 38.33C848.791 32.35 850.897 27.28 855.109 23.12ZM859.945 33.962H879.991C879.367 31.986 878.171 30.322 876.403 28.97C874.635 27.618 872.503 26.942 870.007 26.942C867.511 26.942 865.353 27.618 863.533 28.97C861.765 30.322 860.569 31.986 859.945 33.962ZM902.175 23.12C906.179 19.012 910.989 16.958 916.605 16.958C921.025 16.958 924.821 18.362 927.993 21.17V4.4H939.303V59H927.993V55.568C924.873 58.272 921.077 59.624 916.605 59.624C911.041 59.624 906.231 57.518 902.175 53.306C898.171 49.094 896.169 44.102 896.169 38.33C896.169 32.35 898.171 27.28 902.175 23.12ZM906.699 38.33C906.699 41.346 907.739 43.946 909.819 46.13C911.951 48.314 914.577 49.406 917.697 49.406C920.713 49.406 923.313 48.314 925.497 46.13C927.681 43.894 928.773 41.294 928.773 38.33C928.773 35.366 927.681 32.766 925.497 30.53C923.313 28.294 920.713 27.176 917.697 27.176C914.577 27.176 911.951 28.294 909.819 30.53C907.739 32.714 906.699 35.314 906.699 38.33ZM236.89 119.198C241.05 115.038 246.068 112.958 251.944 112.958C257.768 112.958 262.76 115.064 266.92 119.276C271.132 123.436 273.238 128.428 273.238 134.252C273.238 140.128 271.158 145.172 266.998 149.384C262.838 153.544 257.82 155.624 251.944 155.624C246.12 155.624 241.102 153.518 236.89 149.306C232.73 145.094 230.65 140.076 230.65 134.252C230.65 128.428 232.73 123.41 236.89 119.198ZM241.18 134.252C241.18 137.268 242.22 139.868 244.3 142.052C246.38 144.236 248.928 145.328 251.944 145.328C254.96 145.328 257.508 144.236 259.588 142.052C261.668 139.868 262.708 137.268 262.708 134.252C262.708 131.236 261.668 128.662 259.588 126.53C257.508 124.346 254.96 123.254 251.944 123.254C248.928 123.254 246.38 124.346 244.3 126.53C242.22 128.662 241.18 131.236 241.18 134.252ZM278.9 113.66H290.21V119.198C292.706 115.194 296.476 113.192 301.52 113.192C302.664 113.192 303.86 113.296 305.108 113.504V125.594C303.444 124.97 301.832 124.658 300.272 124.658C298.4 124.658 296.242 125.308 293.798 126.608C291.406 127.856 290.21 130.274 290.21 133.862V155H278.9V113.66ZM333.22 100.4H344.53V117.482C347.65 114.466 351.498 112.958 356.074 112.958C360.754 112.958 364.784 114.466 368.164 117.482C371.544 120.446 373.234 124.398 373.234 129.338V155H361.924V132.224C361.924 129.624 361.118 127.518 359.506 125.906C357.946 124.294 356.022 123.488 353.734 123.488C350.978 123.488 348.742 124.476 347.026 126.452C345.362 128.376 344.53 130.768 344.53 133.628V155H333.22V100.4ZM385.502 119.198C389.662 115.038 394.68 112.958 400.556 112.958C406.38 112.958 411.372 115.064 415.532 119.276C419.744 123.436 421.85 128.428 421.85 134.252C421.85 140.128 419.77 145.172 415.61 149.384C411.45 153.544 406.432 155.624 400.556 155.624C394.732 155.624 389.714 153.518 385.502 149.306C381.342 145.094 379.262 140.076 379.262 134.252C379.262 128.428 381.342 123.41 385.502 119.198ZM389.792 134.252C389.792 137.268 390.832 139.868 392.912 142.052C394.992 144.236 397.54 145.328 400.556 145.328C403.572 145.328 406.12 144.236 408.2 142.052C410.28 139.868 411.32 137.268 411.32 134.252C411.32 131.236 410.28 128.662 408.2 126.53C406.12 124.346 403.572 123.254 400.556 123.254C397.54 123.254 394.992 124.346 392.912 126.53C390.832 128.662 389.792 131.236 389.792 134.252ZM427.511 113.66H438.821V117.092C441.941 114.388 445.737 113.036 450.209 113.036C455.773 113.036 460.557 115.142 464.561 119.354C468.617 123.566 470.645 128.558 470.645 134.33C470.645 140.31 468.643 145.354 464.639 149.462C460.635 153.57 455.825 155.624 450.209 155.624C445.789 155.624 441.993 154.22 438.821 151.412V171.38H427.511V113.66ZM438.041 134.33C438.041 137.294 439.133 139.894 441.317 142.13C443.501 144.366 446.101 145.484 449.117 145.484C452.237 145.484 454.837 144.392 456.917 142.208C459.049 139.972 460.115 137.346 460.115 134.33C460.115 131.314 459.049 128.714 456.917 126.53C454.837 124.346 452.237 123.254 449.117 123.254C446.101 123.254 443.501 124.372 441.317 126.608C439.133 128.792 438.041 131.366 438.041 134.33ZM481.638 119.12C485.798 115.012 490.79 112.958 496.614 112.958C501.658 112.958 506.13 114.57 510.03 117.794C513.93 121.018 516.4 125.074 517.44 129.962C517.804 131.522 517.986 133.03 517.986 134.486C517.986 135.89 517.83 137.242 517.518 138.542H486.474C487.098 140.83 488.32 142.598 490.14 143.846C491.96 145.042 494.118 145.64 496.614 145.64C500.566 145.64 503.816 144.47 506.364 142.13L516.192 144.938C514.58 148.162 511.902 150.762 508.158 152.738C504.414 154.662 500.566 155.624 496.614 155.624C490.686 155.624 485.642 153.544 481.482 149.384C477.374 145.172 475.32 140.154 475.32 134.33C475.32 128.35 477.426 123.28 481.638 119.12ZM486.474 129.962H506.52C505.896 127.986 504.7 126.322 502.932 124.97C501.164 123.618 499.032 122.942 496.536 122.942C494.04 122.942 491.882 123.618 490.062 124.97C488.294 126.322 487.098 127.986 486.474 129.962ZM524.63 155V100.4H535.94V155H524.63ZM548.898 119.12C553.058 115.012 558.05 112.958 563.874 112.958C568.918 112.958 573.39 114.57 577.29 117.794C581.19 121.018 583.66 125.074 584.7 129.962C585.064 131.522 585.246 133.03 585.246 134.486C585.246 135.89 585.09 137.242 584.778 138.542H553.734C554.358 140.83 555.58 142.598 557.4 143.846C559.22 145.042 561.378 145.64 563.874 145.64C567.826 145.64 571.076 144.47 573.624 142.13L583.452 144.938C581.84 148.162 579.162 150.762 575.418 152.738C571.674 154.662 567.826 155.624 563.874 155.624C557.946 155.624 552.902 153.544 548.742 149.384C544.634 145.172 542.58 140.154 542.58 134.33C542.58 128.35 544.686 123.28 548.898 119.12ZM553.734 129.962H573.78C573.156 127.986 571.96 126.322 570.192 124.97C568.424 123.618 566.292 122.942 563.796 122.942C561.3 122.942 559.142 123.618 557.322 124.97C555.554 126.322 554.358 127.986 553.734 129.962ZM595.097 116.39C598.269 114.102 602.429 112.958 607.577 112.958C613.453 112.958 618.757 114.206 623.489 116.702V127.388C617.145 124.216 611.841 122.63 607.577 122.63C605.757 122.63 604.379 122.942 603.443 123.566C602.507 124.138 602.039 124.866 602.039 125.75C602.039 126.27 602.195 126.738 602.507 127.154C602.871 127.518 603.417 127.856 604.145 128.168C604.925 128.428 605.679 128.636 606.407 128.792C607.135 128.948 608.123 129.182 609.371 129.494C610.671 129.754 611.763 129.988 612.647 130.196C621.279 132.484 625.595 136.774 625.595 143.066C625.595 145.354 625.049 147.356 623.957 149.072C622.917 150.788 621.513 152.114 619.745 153.05C618.029 153.934 616.209 154.584 614.285 155C612.413 155.416 610.437 155.624 608.357 155.624C602.741 155.624 597.203 154.09 591.743 151.022V139.79C593.771 141.194 596.345 142.546 599.465 143.846C602.637 145.146 605.601 145.796 608.357 145.796C612.101 145.796 613.973 144.808 613.973 142.832C613.973 141.74 613.245 140.882 611.789 140.258C610.333 139.582 607.889 138.88 604.457 138.152C599.621 137.112 596.059 135.63 593.771 133.706C591.483 131.782 590.339 129.156 590.339 125.828C590.339 121.824 591.925 118.678 595.097 116.39ZM634.631 116.39C637.803 114.102 641.963 112.958 647.111 112.958C652.987 112.958 658.291 114.206 663.023 116.702V127.388C656.679 124.216 651.375 122.63 647.111 122.63C645.291 122.63 643.913 122.942 642.977 123.566C642.041 124.138 641.573 124.866 641.573 125.75C641.573 126.27 641.729 126.738 642.041 127.154C642.405 127.518 642.951 127.856 643.679 128.168C644.459 128.428 645.213 128.636 645.941 128.792C646.669 128.948 647.657 129.182 648.905 129.494C650.205 129.754 651.297 129.988 652.181 130.196C660.813 132.484 665.129 136.774 665.129 143.066C665.129 145.354 664.583 147.356 663.491 149.072C662.451 150.788 661.047 152.114 659.279 153.05C657.563 153.934 655.743 154.584 653.819 155C651.947 155.416 649.971 155.624 647.891 155.624C642.275 155.624 636.737 154.09 631.277 151.022V139.79C633.305 141.194 635.879 142.546 638.999 143.846C642.171 145.146 645.135 145.796 647.891 145.796C651.635 145.796 653.507 144.808 653.507 142.832C653.507 141.74 652.779 140.882 651.323 140.258C649.867 139.582 647.423 138.88 643.991 138.152C639.155 137.112 635.593 135.63 633.305 133.706C631.017 131.782 629.873 129.156 629.873 125.828C629.873 121.824 631.459 118.678 634.631 116.39ZM670.654 118.106C670.706 112.386 672.604 107.888 676.348 104.612C680.144 101.336 684.72 99.698 690.076 99.698C695.172 99.698 699.54 101.31 703.18 104.534C706.872 107.758 708.718 111.762 708.718 116.546C708.718 118.782 708.25 120.706 707.314 122.318C706.378 123.93 705.234 125.204 703.882 126.14C702.582 127.076 701.256 127.934 699.904 128.714C698.552 129.494 697.382 130.43 696.394 131.522C695.458 132.562 694.964 133.784 694.912 135.188L694.834 137.84H683.914V132.692C683.914 130.508 684.616 128.584 686.02 126.92C687.476 125.256 689.062 124.008 690.778 123.176C692.494 122.292 694.054 121.278 695.458 120.134C696.914 118.938 697.642 117.742 697.642 116.546C697.642 114.83 696.992 113.374 695.692 112.178C694.392 110.93 692.572 110.28 690.232 110.228C690.128 110.228 690.05 110.228 689.998 110.228C687.606 110.228 685.682 110.956 684.226 112.412C682.822 113.816 682.068 115.714 681.964 118.106H670.654ZM685.084 143.768C686.384 142.468 687.996 141.818 689.92 141.818C691.844 141.818 693.456 142.494 694.756 143.846C696.108 145.146 696.784 146.758 696.784 148.682C696.784 150.606 696.134 152.218 694.834 153.518C693.482 154.818 691.844 155.468 689.92 155.468C687.996 155.468 686.358 154.818 685.006 153.518C683.706 152.218 683.056 150.606 683.056 148.682C683.056 146.758 683.732 145.12 685.084 143.768Z"/><path stroke="#00CC8D" stroke-linecap="round" stroke-width="10" d="M324 155C391.883 191.44 465.452 191 537.632 191C551.777 191 565.175 188.121 579.181 186.097C586.323 185.064 593.187 181.079 600.274 180.613C606.441 180.207 611.788 176.282 617.836 175.903C626.368 175.369 634.895 171.289 642.755 167.774C645.692 166.461 648.546 166.042 651.536 165.387C652.978 165.071 654.298 162.527 656 161.968"/></svg>