<svg xmlns="http://www.w3.org/2000/svg" width="1008" height="184" fill="none" viewBox="0 0 1008 184"><path fill="#000" d="M7.28068 2.9H43.0647V11.72H30.1497V47H20.6997V11.72H7.28068V2.9ZM45.878 13.61H55.013V18.083C57.029 14.849 60.074 13.232 64.148 13.232C65.072 13.232 66.038 13.316 67.046 13.484V23.249C65.702 22.745 64.4 22.493 63.14 22.493C61.628 22.493 59.885 23.018 57.911 24.068C55.979 25.076 55.013 27.029 55.013 29.927V47H45.878V13.61ZM74.3934 18.083C77.7534 14.723 81.8064 13.043 86.5524 13.043C91.2564 13.043 95.2884 14.744 98.6484 18.146C102.05 21.506 103.751 25.538 103.751 30.242C103.751 34.988 102.071 39.062 98.7114 42.464C95.3514 45.824 91.2984 47.504 86.5524 47.504C81.8484 47.504 77.7954 45.803 74.3934 42.401C71.0334 38.999 69.3534 34.946 69.3534 30.242C69.3534 25.538 71.0334 21.485 74.3934 18.083ZM77.8584 30.242C77.8584 32.678 78.6984 34.778 80.3784 36.542C82.0584 38.306 84.1164 39.188 86.5524 39.188C88.9884 39.188 91.0464 38.306 92.7264 36.542C94.4064 34.778 95.2464 32.678 95.2464 30.242C95.2464 27.806 94.4064 25.727 92.7264 24.005C91.0464 22.241 88.9884 21.359 86.5524 21.359C84.1164 21.359 82.0584 22.241 80.3784 24.005C78.6984 25.727 77.8584 27.806 77.8584 30.242ZM108.632 13.61H117.767V32.006C117.767 34.106 118.397 35.807 119.657 37.109C120.959 38.411 122.534 39.062 124.382 39.062C126.608 39.062 128.393 38.285 129.737 36.731C131.123 35.135 131.816 33.182 131.816 30.872V13.61H140.951V47H131.816V43.913C129.296 46.349 126.188 47.567 122.492 47.567C118.712 47.567 115.457 46.37 112.727 43.976C109.997 41.54 108.632 38.327 108.632 34.337V13.61ZM147.891 2.9H157.026V16.508C159.546 14.24 162.612 13.085 166.224 13.043C166.266 13.043 166.329 13.043 166.413 13.043C170.991 13.043 174.855 14.702 178.005 18.02C181.155 21.338 182.73 25.433 182.73 30.305C182.73 35.051 181.155 39.104 178.005 42.464C174.897 45.824 170.97 47.504 166.224 47.504C162.612 47.504 159.546 46.412 157.026 44.228V47H147.891V2.9ZM159.042 36.542C160.806 38.348 162.906 39.251 165.342 39.251C167.736 39.251 169.815 38.369 171.579 36.605C173.343 34.799 174.225 32.699 174.225 30.305C174.225 27.869 173.343 25.769 171.579 24.005C169.857 22.199 167.778 21.296 165.342 21.296C162.906 21.296 160.806 22.199 159.042 24.005C157.278 25.811 156.396 27.911 156.396 30.305C156.396 32.699 157.278 34.778 159.042 36.542ZM188.059 47V2.9H197.194V47H188.059ZM207.659 18.02C211.019 14.702 215.051 13.043 219.755 13.043C223.829 13.043 227.441 14.345 230.591 16.949C233.741 19.553 235.736 22.829 236.576 26.777C236.87 28.037 237.017 29.255 237.017 30.431C237.017 31.565 236.891 32.657 236.639 33.707H211.565C212.069 35.555 213.056 36.983 214.526 37.991C215.996 38.957 217.739 39.44 219.755 39.44C222.947 39.44 225.572 38.495 227.63 36.605L235.568 38.873C234.266 41.477 232.103 43.577 229.079 45.173C226.055 46.727 222.947 47.504 219.755 47.504C214.967 47.504 210.893 45.824 207.533 42.464C204.215 39.062 202.556 35.009 202.556 30.305C202.556 25.475 204.257 21.38 207.659 18.02ZM211.565 26.777H227.756C227.252 25.181 226.286 23.837 224.858 22.745C223.43 21.653 221.708 21.107 219.692 21.107C217.676 21.107 215.933 21.653 214.463 22.745C213.035 23.837 212.069 25.181 211.565 26.777ZM263.891 18.02C267.251 14.702 271.283 13.043 275.987 13.043C279.557 13.043 282.77 14.051 285.626 16.067C288.482 18.083 290.54 20.729 291.8 24.005L283.484 26.399C282.812 24.845 281.804 23.606 280.46 22.682C279.158 21.716 277.667 21.233 275.987 21.233C273.551 21.233 271.493 22.136 269.813 23.942C268.133 25.748 267.293 27.869 267.293 30.305C267.293 32.741 268.133 34.862 269.813 36.668C271.493 38.432 273.551 39.314 275.987 39.314C277.709 39.314 279.221 38.852 280.523 37.928C281.825 36.962 282.812 35.723 283.484 34.211L291.8 36.605C290.54 39.839 288.482 42.464 285.626 44.48C282.812 46.496 279.599 47.504 275.987 47.504C271.199 47.504 267.125 45.824 263.765 42.464C260.447 39.062 258.788 35.009 258.788 30.305C258.788 25.475 260.489 21.38 263.891 18.02ZM300.246 18.083C303.606 14.723 307.659 13.043 312.405 13.043C317.109 13.043 321.141 14.744 324.501 18.146C327.903 21.506 329.604 25.538 329.604 30.242C329.604 34.988 327.924 39.062 324.564 42.464C321.204 45.824 317.151 47.504 312.405 47.504C307.701 47.504 303.648 45.803 300.246 42.401C296.886 38.999 295.206 34.946 295.206 30.242C295.206 25.538 296.886 21.485 300.246 18.083ZM303.711 30.242C303.711 32.678 304.551 34.778 306.231 36.542C307.911 38.306 309.969 39.188 312.405 39.188C314.841 39.188 316.899 38.306 318.579 36.542C320.259 34.778 321.099 32.678 321.099 30.242C321.099 27.806 320.259 25.727 318.579 24.005C316.899 22.241 314.841 21.359 312.405 21.359C309.969 21.359 307.911 22.241 306.231 24.005C304.551 25.727 303.711 27.806 303.711 30.242ZM334.177 13.61H343.312V16.697C345.832 14.261 348.94 13.043 352.636 13.043C356.416 13.043 359.671 14.261 362.401 16.697C365.131 19.091 366.496 22.283 366.496 26.273V47H357.361V28.604C357.361 26.504 356.71 24.803 355.408 23.501C354.148 22.199 352.594 21.548 350.746 21.548C348.52 21.548 346.714 22.346 345.328 23.942C343.984 25.496 343.312 27.428 343.312 29.738V47H334.177V13.61ZM376.356 18.02C379.716 14.702 383.748 13.043 388.452 13.043C392.022 13.043 395.235 14.051 398.091 16.067C400.947 18.083 403.005 20.729 404.265 24.005L395.949 26.399C395.277 24.845 394.269 23.606 392.925 22.682C391.623 21.716 390.132 21.233 388.452 21.233C386.016 21.233 383.958 22.136 382.278 23.942C380.598 25.748 379.758 27.869 379.758 30.305C379.758 32.741 380.598 34.862 382.278 36.668C383.958 38.432 386.016 39.314 388.452 39.314C390.174 39.314 391.686 38.852 392.988 37.928C394.29 36.962 395.277 35.723 395.949 34.211L404.265 36.605C403.005 39.839 400.947 42.464 398.091 44.48C395.277 46.496 392.064 47.504 388.452 47.504C383.664 47.504 379.59 45.824 376.23 42.464C372.912 39.062 371.253 35.009 371.253 30.305C371.253 25.475 372.954 21.38 376.356 18.02ZM412.963 18.02C416.323 14.702 420.355 13.043 425.059 13.043C429.133 13.043 432.745 14.345 435.895 16.949C439.045 19.553 441.04 22.829 441.88 26.777C442.174 28.037 442.321 29.255 442.321 30.431C442.321 31.565 442.195 32.657 441.943 33.707H416.869C417.373 35.555 418.36 36.983 419.83 37.991C421.3 38.957 423.043 39.44 425.059 39.44C428.251 39.44 430.876 38.495 432.934 36.605L440.872 38.873C439.57 41.477 437.407 43.577 434.383 45.173C431.359 46.727 428.251 47.504 425.059 47.504C420.271 47.504 416.197 45.824 412.837 42.464C409.519 39.062 407.86 35.009 407.86 30.305C407.86 25.475 409.561 21.38 412.963 18.02ZM416.869 26.777H433.06C432.556 25.181 431.59 23.837 430.162 22.745C428.734 21.653 427.012 21.107 424.996 21.107C422.98 21.107 421.237 21.653 419.767 22.745C418.339 23.837 417.373 25.181 416.869 26.777ZM447.072 13.61H456.207V16.697C458.727 14.261 461.835 13.043 465.531 13.043C469.311 13.043 472.566 14.261 475.296 16.697C478.026 19.091 479.391 22.283 479.391 26.273V47H470.256V28.604C470.256 26.504 469.605 24.803 468.303 23.501C467.043 22.199 465.489 21.548 463.641 21.548C461.415 21.548 459.609 22.346 458.223 23.942C456.879 25.496 456.207 27.428 456.207 29.738V47H447.072V13.61ZM482.911 13.61H488.581V6.302L497.59 3.719V13.61H507.229V21.485H497.59V35.786C497.59 36.668 497.947 37.403 498.661 37.991C499.375 38.579 500.131 38.915 500.929 38.999C501.769 39.041 502.273 39.062 502.441 39.062C503.869 39.062 505.612 38.663 507.67 37.865V46.685C505.276 47.357 503.05 47.693 500.992 47.693C498.43 47.693 495.721 46.958 492.865 45.488C490.009 43.976 488.581 40.763 488.581 35.849V21.485H482.911V13.61ZM513.025 13.61H522.16V18.083C524.176 14.849 527.221 13.232 531.295 13.232C532.219 13.232 533.185 13.316 534.193 13.484V23.249C532.849 22.745 531.547 22.493 530.287 22.493C528.775 22.493 527.032 23.018 525.058 24.068C523.126 25.076 522.16 27.029 522.16 29.927V47H513.025V13.61ZM541.541 18.02C544.775 14.702 548.66 13.043 553.196 13.043C556.766 13.043 559.832 14.177 562.394 16.445V13.61H571.529V47H562.394V44.228C559.874 46.412 556.808 47.504 553.196 47.504C548.702 47.504 544.817 45.803 541.541 42.401C538.307 38.999 536.69 34.967 536.69 30.305C536.69 25.475 538.307 21.38 541.541 18.02ZM545.195 30.305C545.195 32.741 546.035 34.841 547.715 36.605C549.437 38.369 551.558 39.251 554.078 39.251C556.514 39.251 558.614 38.369 560.378 36.605C562.142 34.799 563.024 32.699 563.024 30.305C563.024 27.911 562.142 25.811 560.378 24.005C558.614 22.199 556.514 21.296 554.078 21.296C551.558 21.296 549.437 22.199 547.715 24.005C546.035 25.769 545.195 27.869 545.195 30.305ZM576.857 13.61H582.527V6.302L591.536 3.719V13.61H601.175V21.485H591.536V35.786C591.536 36.668 591.893 37.403 592.607 37.991C593.321 38.579 594.077 38.915 594.875 38.999C595.715 39.041 596.219 39.062 596.387 39.062C597.815 39.062 599.558 38.663 601.616 37.865V46.685C599.222 47.357 596.996 47.693 594.938 47.693C592.376 47.693 589.667 46.958 586.811 45.488C583.955 43.976 582.527 40.763 582.527 35.849V21.485H576.857V13.61ZM616.422 13.61V47H607.287V13.61H616.422ZM607.98 1.703C609.072 0.652998 610.395 0.127999 611.949 0.127999C613.503 0.127999 614.826 0.652998 615.918 1.703C617.01 2.753 617.556 4.034 617.556 5.546C617.556 7.058 617.01 8.318 615.918 9.326C614.826 10.376 613.503 10.901 611.949 10.901C610.395 10.901 609.072 10.397 607.98 9.389C606.888 8.339 606.342 7.058 606.342 5.546C606.342 4.034 606.888 2.753 607.98 1.703ZM623.029 13.61H632.164V16.697C634.684 14.261 637.792 13.043 641.488 13.043C645.268 13.043 648.523 14.261 651.253 16.697C653.983 19.091 655.348 22.283 655.348 26.273V47H646.213V28.604C646.213 26.504 645.562 24.803 644.26 23.501C643 22.199 641.446 21.548 639.598 21.548C637.372 21.548 635.566 22.346 634.18 23.942C632.836 25.496 632.164 27.428 632.164 29.738V47H623.029V13.61ZM660.106 29.864C660.106 25.034 661.66 21.023 664.768 17.831C667.918 14.639 671.74 13.043 676.234 13.043C676.36 13.043 676.486 13.043 676.612 13.043C680.224 13.085 683.29 14.24 685.81 16.508V13.61H694.945V45.299C694.945 49.961 693.37 53.825 690.22 56.891C687.112 59.999 683.143 61.553 678.313 61.553C674.365 61.553 670.837 60.44 667.729 58.214C664.621 55.988 662.563 52.754 661.555 48.512H670.69C671.908 51.536 674.407 53.048 678.187 53.048C680.623 53.048 682.492 52.376 683.794 51.032C685.138 49.688 685.81 47.777 685.81 45.299V43.598C683.332 45.656 680.266 46.685 676.612 46.685C671.824 46.685 667.876 45.068 664.768 41.834C661.66 38.6 660.106 34.61 660.106 29.864ZM668.611 29.864C668.611 32.258 669.493 34.295 671.257 35.975C672.979 37.697 675.058 38.558 677.494 38.558C679.93 38.558 682.03 37.718 683.794 36.038C685.558 34.316 686.44 32.258 686.44 29.864C686.44 27.47 685.558 25.433 683.794 23.753C682.072 22.031 679.972 21.17 677.494 21.17C675.058 21.17 672.958 22.031 671.194 23.753C669.472 25.433 668.611 27.47 668.611 29.864ZM722.481 18.083C725.841 14.723 729.894 13.043 734.64 13.043C739.344 13.043 743.376 14.744 746.736 18.146C750.138 21.506 751.839 25.538 751.839 30.242C751.839 34.988 750.159 39.062 746.799 42.464C743.439 45.824 739.386 47.504 734.64 47.504C729.936 47.504 725.883 45.803 722.481 42.401C719.121 38.999 717.441 34.946 717.441 30.242C717.441 25.538 719.121 21.485 722.481 18.083ZM725.946 30.242C725.946 32.678 726.786 34.778 728.466 36.542C730.146 38.306 732.204 39.188 734.64 39.188C737.076 39.188 739.134 38.306 740.814 36.542C742.494 34.778 743.334 32.678 743.334 30.242C743.334 27.806 742.494 25.727 740.814 24.005C739.134 22.241 737.076 21.359 734.64 21.359C732.204 21.359 730.146 22.241 728.466 24.005C726.786 25.727 725.946 27.806 725.946 30.242ZM756.412 13.61H765.547V16.697C768.067 14.261 771.175 13.043 774.871 13.043C778.651 13.043 781.906 14.261 784.636 16.697C787.366 19.091 788.731 22.283 788.731 26.273V47H779.596V28.604C779.596 26.504 778.945 24.803 777.643 23.501C776.383 22.199 774.829 21.548 772.981 21.548C770.755 21.548 768.949 22.346 767.563 23.942C766.219 25.496 765.547 27.428 765.547 29.738V47H756.412V13.61ZM810.831 13.61H816.501V6.302L825.51 3.719V13.61H835.149V21.485H825.51V35.786C825.51 36.668 825.867 37.403 826.581 37.991C827.295 38.579 828.051 38.915 828.849 38.999C829.689 39.041 830.193 39.062 830.361 39.062C831.789 39.062 833.532 38.663 835.59 37.865V46.685C833.196 47.357 830.97 47.693 828.912 47.693C826.35 47.693 823.641 46.958 820.785 45.488C817.929 43.976 816.501 40.763 816.501 35.849V21.485H810.831V13.61ZM841.26 2.9H850.395V16.697C852.915 14.261 856.023 13.043 859.719 13.043C863.499 13.043 866.754 14.261 869.484 16.697C872.214 19.091 873.579 22.283 873.579 26.273V47H864.444V28.604C864.444 26.504 863.793 24.803 862.491 23.501C861.231 22.199 859.677 21.548 857.829 21.548C855.603 21.548 853.797 22.346 852.411 23.942C851.067 25.496 850.395 27.428 850.395 29.738V47H841.26V2.9ZM889.34 13.61V47H880.205V13.61H889.34ZM880.898 1.703C881.99 0.652998 883.313 0.127999 884.867 0.127999C886.421 0.127999 887.744 0.652998 888.836 1.703C889.928 2.753 890.474 4.034 890.474 5.546C890.474 7.058 889.928 8.318 888.836 9.326C887.744 10.376 886.421 10.901 884.867 10.901C883.313 10.901 881.99 10.397 880.898 9.389C879.806 8.339 879.26 7.058 879.26 5.546C879.26 4.034 879.806 2.753 880.898 1.703ZM895.947 13.61H905.082V16.697C907.602 14.261 910.71 13.043 914.406 13.043C918.186 13.043 921.441 14.261 924.171 16.697C926.901 19.091 928.266 22.283 928.266 26.273V47H919.131V28.604C919.131 26.504 918.48 24.803 917.178 23.501C915.918 22.199 914.364 21.548 912.516 21.548C910.29 21.548 908.484 22.346 907.098 23.942C905.754 25.496 905.082 27.428 905.082 29.738V47H895.947V13.61ZM933.024 29.864C933.024 25.034 934.578 21.023 937.686 17.831C940.836 14.639 944.658 13.043 949.152 13.043C949.278 13.043 949.404 13.043 949.53 13.043C953.142 13.085 956.208 14.24 958.728 16.508V13.61H967.863V45.299C967.863 49.961 966.288 53.825 963.138 56.891C960.03 59.999 956.061 61.553 951.231 61.553C947.283 61.553 943.755 60.44 940.647 58.214C937.539 55.988 935.481 52.754 934.473 48.512H943.608C944.826 51.536 947.325 53.048 951.105 53.048C953.541 53.048 955.41 52.376 956.712 51.032C958.056 49.688 958.728 47.777 958.728 45.299V43.598C956.25 45.656 953.184 46.685 949.53 46.685C944.742 46.685 940.794 45.068 937.686 41.834C934.578 38.6 933.024 34.61 933.024 29.864ZM941.529 29.864C941.529 32.258 942.411 34.295 944.175 35.975C945.897 37.697 947.976 38.558 950.412 38.558C952.848 38.558 954.948 37.718 956.712 36.038C958.476 34.316 959.358 32.258 959.358 29.864C959.358 27.47 958.476 25.433 956.712 23.753C954.99 22.031 952.89 21.17 950.412 21.17C947.976 21.17 945.876 22.031 944.112 23.753C942.39 25.433 941.529 27.47 941.529 29.864ZM977.042 15.815C979.604 13.967 982.964 13.043 987.122 13.043C991.868 13.043 996.152 14.051 999.974 16.067V24.698C994.85 22.136 990.566 20.855 987.122 20.855C985.652 20.855 984.539 21.107 983.783 21.611C983.027 22.073 982.649 22.661 982.649 23.375C982.649 23.795 982.775 24.173 983.027 24.509C983.321 24.803 983.762 25.076 984.35 25.328C984.98 25.538 985.589 25.706 986.177 25.832C986.765 25.958 987.563 26.147 988.571 26.399C989.621 26.609 990.503 26.798 991.217 26.966C998.189 28.814 1001.67 32.279 1001.67 37.361C1001.67 39.209 1001.23 40.826 1000.35 42.212C999.512 43.598 998.378 44.669 996.95 45.425C995.564 46.139 994.094 46.664 992.54 47C991.028 47.336 989.432 47.504 987.752 47.504C983.216 47.504 978.743 46.265 974.333 43.787V34.715C975.971 35.849 978.05 36.941 980.57 37.991C983.132 39.041 985.526 39.566 987.752 39.566C990.776 39.566 992.288 38.768 992.288 37.172C992.288 36.29 991.7 35.597 990.524 35.093C989.348 34.547 987.374 33.98 984.602 33.392C980.696 32.552 977.819 31.355 975.971 29.801C974.123 28.247 973.199 26.126 973.199 23.438C973.199 20.204 974.48 17.663 977.042 15.815ZM4.14077 93.815C6.70277 91.967 10.0628 91.043 14.2208 91.043C18.9668 91.043 23.2508 92.051 27.0728 94.067V102.698C21.9488 100.136 17.6648 98.855 14.2208 98.855C12.7508 98.855 11.6378 99.107 10.8818 99.611C10.1258 100.073 9.74777 100.661 9.74777 101.375C9.74777 101.795 9.87377 102.173 10.1258 102.509C10.4198 102.803 10.8608 103.076 11.4488 103.328C12.0788 103.538 12.6878 103.706 13.2758 103.832C13.8638 103.958 14.6618 104.147 15.6698 104.399C16.7198 104.609 17.6018 104.798 18.3158 104.966C25.2878 106.814 28.7738 110.279 28.7738 115.361C28.7738 117.209 28.3328 118.826 27.4508 120.212C26.6108 121.598 25.4768 122.669 24.0488 123.425C22.6628 124.139 21.1928 124.664 19.6388 125C18.1268 125.336 16.5308 125.504 14.8508 125.504C10.3148 125.504 5.84177 124.265 1.43177 121.787V112.715C3.06977 113.849 5.14877 114.941 7.66877 115.991C10.2308 117.041 12.6248 117.566 14.8508 117.566C17.8748 117.566 19.3868 116.768 19.3868 115.172C19.3868 114.29 18.7988 113.597 17.6228 113.093C16.4468 112.547 14.4728 111.98 11.7008 111.392C7.79477 110.552 4.91777 109.355 3.06977 107.801C1.22177 106.247 0.297773 104.126 0.297773 101.438C0.297773 98.204 1.57877 95.663 4.14077 93.815ZM33.1734 91.61H42.3084V110.006C42.3084 112.106 42.9384 113.807 44.1984 115.109C45.5004 116.411 47.0754 117.062 48.9234 117.062C51.1494 117.062 52.9344 116.285 54.2784 114.731C55.6644 113.135 56.3574 111.182 56.3574 108.872V91.61H65.4924V125H56.3574V121.913C53.8374 124.349 50.7294 125.567 47.0334 125.567C43.2534 125.567 39.9984 124.37 37.2684 121.976C34.5384 119.54 33.1734 116.327 33.1734 112.337V91.61ZM76.2758 96.02C79.6358 92.702 83.6678 91.043 88.3718 91.043C91.9418 91.043 95.1548 92.051 98.0108 94.067C100.867 96.083 102.925 98.729 104.185 102.005L95.8688 104.399C95.1968 102.845 94.1888 101.606 92.8448 100.682C91.5428 99.716 90.0518 99.233 88.3718 99.233C85.9358 99.233 83.8778 100.136 82.1978 101.942C80.5178 103.748 79.6778 105.869 79.6778 108.305C79.6778 110.741 80.5178 112.862 82.1978 114.668C83.8778 116.432 85.9358 117.314 88.3718 117.314C90.0938 117.314 91.6058 116.852 92.9078 115.928C94.2098 114.962 95.1968 113.723 95.8688 112.211L104.185 114.605C102.925 117.839 100.867 120.464 98.0108 122.48C95.1968 124.496 91.9838 125.504 88.3718 125.504C83.5838 125.504 79.5098 123.824 76.1498 120.464C72.8318 117.062 71.1728 113.009 71.1728 108.305C71.1728 103.475 72.8738 99.38 76.2758 96.02ZM109.039 80.9H118.174V94.697C120.694 92.261 123.802 91.043 127.498 91.043C131.278 91.043 134.533 92.261 137.263 94.697C139.993 97.091 141.358 100.283 141.358 104.273V125H132.223V106.604C132.223 104.504 131.572 102.803 130.27 101.501C129.01 100.199 127.456 99.548 125.608 99.548C123.382 99.548 121.576 100.346 120.19 101.942C118.846 103.496 118.174 105.428 118.174 107.738V125H109.039V80.9ZM168.924 96.02C172.158 92.702 176.043 91.043 180.579 91.043C184.149 91.043 187.215 92.177 189.777 94.445V91.61H198.912V125H189.777V122.228C187.257 124.412 184.191 125.504 180.579 125.504C176.085 125.504 172.2 123.803 168.924 120.401C165.69 116.999 164.073 112.967 164.073 108.305C164.073 103.475 165.69 99.38 168.924 96.02ZM172.578 108.305C172.578 110.741 173.418 112.841 175.098 114.605C176.82 116.369 178.941 117.251 181.461 117.251C183.897 117.251 185.997 116.369 187.761 114.605C189.525 112.799 190.407 110.699 190.407 108.305C190.407 105.911 189.525 103.811 187.761 102.005C185.997 100.199 183.897 99.296 181.461 99.296C178.941 99.296 176.82 100.199 175.098 102.005C173.418 103.769 172.578 105.869 172.578 108.305ZM208.399 93.815C210.961 91.967 214.321 91.043 218.479 91.043C223.225 91.043 227.509 92.051 231.331 94.067V102.698C226.207 100.136 221.923 98.855 218.479 98.855C217.009 98.855 215.896 99.107 215.14 99.611C214.384 100.073 214.006 100.661 214.006 101.375C214.006 101.795 214.132 102.173 214.384 102.509C214.678 102.803 215.119 103.076 215.707 103.328C216.337 103.538 216.946 103.706 217.534 103.832C218.122 103.958 218.92 104.147 219.928 104.399C220.978 104.609 221.86 104.798 222.574 104.966C229.546 106.814 233.032 110.279 233.032 115.361C233.032 117.209 232.591 118.826 231.709 120.212C230.869 121.598 229.735 122.669 228.307 123.425C226.921 124.139 225.451 124.664 223.897 125C222.385 125.336 220.789 125.504 219.109 125.504C214.573 125.504 210.1 124.265 205.69 121.787V112.715C207.328 113.849 209.407 114.941 211.927 115.991C214.489 117.041 216.883 117.566 219.109 117.566C222.133 117.566 223.645 116.768 223.645 115.172C223.645 114.29 223.057 113.597 221.881 113.093C220.705 112.547 218.731 111.98 215.959 111.392C212.053 110.552 209.176 109.355 207.328 107.801C205.48 106.247 204.556 104.126 204.556 101.438C204.556 98.204 205.837 95.663 208.399 93.815ZM254.781 91.61H263.916V96.083C265.932 92.849 268.977 91.232 273.051 91.232C273.975 91.232 274.941 91.316 275.949 91.484V101.249C274.605 100.745 273.303 100.493 272.043 100.493C270.531 100.493 268.788 101.018 266.814 102.068C264.882 103.076 263.916 105.029 263.916 107.927V125H254.781V91.61ZM283.548 96.02C286.908 92.702 290.94 91.043 295.644 91.043C299.718 91.043 303.33 92.345 306.48 94.949C309.63 97.553 311.625 100.829 312.465 104.777C312.759 106.037 312.906 107.255 312.906 108.431C312.906 109.565 312.78 110.657 312.528 111.707H287.454C287.958 113.555 288.945 114.983 290.415 115.991C291.885 116.957 293.628 117.44 295.644 117.44C298.836 117.44 301.461 116.495 303.519 114.605L311.457 116.873C310.155 119.477 307.992 121.577 304.968 123.173C301.944 124.727 298.836 125.504 295.644 125.504C290.856 125.504 286.782 123.824 283.422 120.464C280.104 117.062 278.445 113.009 278.445 108.305C278.445 103.475 280.146 99.38 283.548 96.02ZM287.454 104.777H303.645C303.141 103.181 302.175 101.837 300.747 100.745C299.319 99.653 297.597 99.107 295.581 99.107C293.565 99.107 291.822 99.653 290.352 100.745C288.924 101.837 287.958 103.181 287.454 104.777ZM321.564 96.02C324.798 92.702 328.683 91.043 333.219 91.043C336.789 91.043 339.855 92.177 342.417 94.445V91.61H351.552V125H342.417V122.228C339.897 124.412 336.831 125.504 333.219 125.504C328.725 125.504 324.84 123.803 321.564 120.401C318.33 116.999 316.713 112.967 316.713 108.305C316.713 103.475 318.33 99.38 321.564 96.02ZM325.218 108.305C325.218 110.741 326.058 112.841 327.738 114.605C329.46 116.369 331.581 117.251 334.101 117.251C336.537 117.251 338.637 116.369 340.401 114.605C342.165 112.799 343.047 110.699 343.047 108.305C343.047 105.911 342.165 103.811 340.401 102.005C338.637 100.199 336.537 99.296 334.101 99.296C331.581 99.296 329.46 100.199 327.738 102.005C326.058 103.769 325.218 105.869 325.218 108.305ZM362.046 96.02C365.28 92.702 369.165 91.043 373.701 91.043C377.271 91.043 380.337 92.177 382.899 94.445V80.9H392.034V125H382.899V122.228C380.379 124.412 377.313 125.504 373.701 125.504C369.207 125.504 365.322 123.803 362.046 120.401C358.812 116.999 357.195 112.967 357.195 108.305C357.195 103.475 358.812 99.38 362.046 96.02ZM365.7 108.305C365.7 110.741 366.54 112.841 368.22 114.605C369.942 116.369 372.063 117.251 374.583 117.251C377.019 117.251 379.119 116.369 380.883 114.605C382.647 112.799 383.529 110.699 383.529 108.305C383.529 105.911 382.647 103.811 380.883 102.005C379.119 100.199 377.019 99.296 374.583 99.296C372.063 99.296 369.942 100.199 368.22 102.005C366.54 103.769 365.7 105.869 365.7 108.305ZM408.073 91.61V125H398.938V91.61H408.073ZM399.631 79.703C400.723 78.653 402.046 78.128 403.6 78.128C405.154 78.128 406.477 78.653 407.569 79.703C408.661 80.753 409.207 82.034 409.207 83.546C409.207 85.058 408.661 86.318 407.569 87.326C406.477 88.376 405.154 88.901 403.6 88.901C402.046 88.901 400.723 88.397 399.631 87.389C398.539 86.339 397.993 85.058 397.993 83.546C397.993 82.034 398.539 80.753 399.631 79.703ZM414.68 91.61H423.815V94.697C426.335 92.261 429.443 91.043 433.139 91.043C436.919 91.043 440.174 92.261 442.904 94.697C445.634 97.091 446.999 100.283 446.999 104.273V125H437.864V106.604C437.864 104.504 437.213 102.803 435.911 101.501C434.651 100.199 433.097 99.548 431.249 99.548C429.023 99.548 427.217 100.346 425.831 101.942C424.487 103.496 423.815 105.428 423.815 107.738V125H414.68V91.61ZM451.757 107.864C451.757 103.034 453.311 99.023 456.419 95.831C459.569 92.639 463.391 91.043 467.885 91.043C468.011 91.043 468.137 91.043 468.263 91.043C471.875 91.085 474.941 92.24 477.461 94.508V91.61H486.596V123.299C486.596 127.961 485.021 131.825 481.871 134.891C478.763 137.999 474.794 139.553 469.964 139.553C466.016 139.553 462.488 138.44 459.38 136.214C456.272 133.988 454.214 130.754 453.206 126.512H462.341C463.559 129.536 466.058 131.048 469.838 131.048C472.274 131.048 474.143 130.376 475.445 129.032C476.789 127.688 477.461 125.777 477.461 123.299V121.598C474.983 123.656 471.917 124.685 468.263 124.685C463.475 124.685 459.527 123.068 456.419 119.834C453.311 116.6 451.757 112.61 451.757 107.864ZM460.262 107.864C460.262 110.258 461.144 112.295 462.908 113.975C464.63 115.697 466.709 116.558 469.145 116.558C471.581 116.558 473.681 115.718 475.445 114.038C477.209 112.316 478.091 110.258 478.091 107.864C478.091 105.47 477.209 103.433 475.445 101.753C473.723 100.031 471.623 99.17 469.145 99.17C466.709 99.17 464.609 100.031 462.845 101.753C461.123 103.433 460.262 105.47 460.262 107.864ZM508.966 91.61H514.636V84.302L523.645 81.719V91.61H533.284V99.485H523.645V113.786C523.645 114.668 524.002 115.403 524.716 115.991C525.43 116.579 526.186 116.915 526.984 116.999C527.824 117.041 528.328 117.062 528.496 117.062C529.924 117.062 531.667 116.663 533.725 115.865V124.685C531.331 125.357 529.105 125.693 527.047 125.693C524.485 125.693 521.776 124.958 518.92 123.488C516.064 121.976 514.636 118.763 514.636 113.849V99.485H508.966V91.61ZM539.396 80.9H548.531V94.697C551.051 92.261 554.159 91.043 557.855 91.043C561.635 91.043 564.89 92.261 567.62 94.697C570.35 97.091 571.715 100.283 571.715 104.273V125H562.58V106.604C562.58 104.504 561.929 102.803 560.627 101.501C559.367 100.199 557.813 99.548 555.965 99.548C553.739 99.548 551.933 100.346 550.547 101.942C549.203 103.496 548.531 105.428 548.531 107.738V125H539.396V80.9ZM581.875 96.02C585.235 92.702 589.267 91.043 593.971 91.043C598.045 91.043 601.657 92.345 604.807 94.949C607.957 97.553 609.952 100.829 610.792 104.777C611.086 106.037 611.233 107.255 611.233 108.431C611.233 109.565 611.107 110.657 610.855 111.707H585.781C586.285 113.555 587.272 114.983 588.742 115.991C590.212 116.957 591.955 117.44 593.971 117.44C597.163 117.44 599.788 116.495 601.846 114.605L609.784 116.873C608.482 119.477 606.319 121.577 603.295 123.173C600.271 124.727 597.163 125.504 593.971 125.504C589.183 125.504 585.109 123.824 581.749 120.464C578.431 117.062 576.772 113.009 576.772 108.305C576.772 103.475 578.473 99.38 581.875 96.02ZM585.781 104.777H601.972C601.468 103.181 600.502 101.837 599.074 100.745C597.646 99.653 595.924 99.107 593.908 99.107C591.892 99.107 590.149 99.653 588.679 100.745C587.251 101.837 586.285 103.181 585.781 104.777ZM633.95 91.61H643.085V94.697C645.605 92.261 648.713 91.043 652.409 91.043C656.189 91.043 659.444 92.261 662.174 94.697C664.904 97.091 666.269 100.283 666.269 104.273V125H657.134V106.604C657.134 104.504 656.483 102.803 655.181 101.501C653.921 100.199 652.367 99.548 650.519 99.548C648.293 99.548 646.487 100.346 645.101 101.942C643.757 103.496 643.085 105.428 643.085 107.738V125H633.95V91.61ZM676.129 96.02C679.489 92.702 683.521 91.043 688.225 91.043C692.299 91.043 695.911 92.345 699.061 94.949C702.211 97.553 704.206 100.829 705.046 104.777C705.34 106.037 705.487 107.255 705.487 108.431C705.487 109.565 705.361 110.657 705.109 111.707H680.035C680.539 113.555 681.526 114.983 682.996 115.991C684.466 116.957 686.209 117.44 688.225 117.44C691.417 117.44 694.042 116.495 696.1 114.605L704.038 116.873C702.736 119.477 700.573 121.577 697.549 123.173C694.525 124.727 691.417 125.504 688.225 125.504C683.437 125.504 679.363 123.824 676.003 120.464C672.685 117.062 671.026 113.009 671.026 108.305C671.026 103.475 672.727 99.38 676.129 96.02ZM680.035 104.777H696.226C695.722 103.181 694.756 101.837 693.328 100.745C691.9 99.653 690.178 99.107 688.162 99.107C686.146 99.107 684.403 99.653 682.933 100.745C681.505 101.837 680.539 103.181 680.035 104.777ZM707.372 91.61H716.444L721.043 115.55L726.524 91.61H737.486L742.967 115.613L747.503 91.61H756.638L749.078 125H737.234L732.005 100.052L726.776 125H714.932L707.372 91.61ZM763.771 93.815C766.333 91.967 769.693 91.043 773.851 91.043C778.597 91.043 782.881 92.051 786.703 94.067V102.698C781.579 100.136 777.295 98.855 773.851 98.855C772.381 98.855 771.268 99.107 770.512 99.611C769.756 100.073 769.378 100.661 769.378 101.375C769.378 101.795 769.504 102.173 769.756 102.509C770.05 102.803 770.491 103.076 771.079 103.328C771.709 103.538 772.318 103.706 772.906 103.832C773.494 103.958 774.292 104.147 775.3 104.399C776.35 104.609 777.232 104.798 777.946 104.966C784.918 106.814 788.404 110.279 788.404 115.361C788.404 117.209 787.963 118.826 787.081 120.212C786.241 121.598 785.107 122.669 783.679 123.425C782.293 124.139 780.823 124.664 779.269 125C777.757 125.336 776.161 125.504 774.481 125.504C769.945 125.504 765.472 124.265 761.062 121.787V112.715C762.7 113.849 764.779 114.941 767.299 115.991C769.861 117.041 772.255 117.566 774.481 117.566C777.505 117.566 779.017 116.768 779.017 115.172C779.017 114.29 778.429 113.597 777.253 113.093C776.077 112.547 774.103 111.98 771.331 111.392C767.425 110.552 764.548 109.355 762.7 107.801C760.852 106.247 759.928 104.126 759.928 101.438C759.928 98.204 761.209 95.663 763.771 93.815ZM792.496 91.61H801.631V94.382C804.151 92.198 807.217 91.106 810.829 91.106C815.323 91.106 819.187 92.807 822.421 96.209C825.697 99.611 827.335 103.643 827.335 108.305C827.335 113.135 825.718 117.209 822.484 120.527C819.25 123.845 815.365 125.504 810.829 125.504C807.259 125.504 804.193 124.37 801.631 122.102V138.23H792.496V91.61ZM801.001 108.305C801.001 110.699 801.883 112.799 803.647 114.605C805.411 116.411 807.511 117.314 809.947 117.314C812.467 117.314 814.567 116.432 816.247 114.668C817.969 112.862 818.83 110.741 818.83 108.305C818.83 105.869 817.969 103.769 816.247 102.005C814.567 100.241 812.467 99.359 809.947 99.359C807.511 99.359 805.411 100.262 803.647 102.068C801.883 103.832 801.001 105.911 801.001 108.305ZM835.961 96.02C839.195 92.702 843.08 91.043 847.616 91.043C851.186 91.043 854.252 92.177 856.814 94.445V91.61H865.949V125H856.814V122.228C854.294 124.412 851.228 125.504 847.616 125.504C843.122 125.504 839.237 123.803 835.961 120.401C832.727 116.999 831.11 112.967 831.11 108.305C831.11 103.475 832.727 99.38 835.961 96.02ZM839.615 108.305C839.615 110.741 840.455 112.841 842.135 114.605C843.857 116.369 845.978 117.251 848.498 117.251C850.934 117.251 853.034 116.369 854.798 114.605C856.562 112.799 857.444 110.699 857.444 108.305C857.444 105.911 856.562 103.811 854.798 102.005C853.034 100.199 850.934 99.296 848.498 99.296C845.978 99.296 843.857 100.199 842.135 102.005C840.455 103.769 839.615 105.869 839.615 108.305ZM872.538 91.61H881.673V94.382C884.193 92.198 887.259 91.106 890.871 91.106C895.365 91.106 899.229 92.807 902.463 96.209C905.739 99.611 907.377 103.643 907.377 108.305C907.377 113.135 905.76 117.209 902.526 120.527C899.292 123.845 895.407 125.504 890.871 125.504C887.301 125.504 884.235 124.37 881.673 122.102V138.23H872.538V91.61ZM881.043 108.305C881.043 110.699 881.925 112.799 883.689 114.605C885.453 116.411 887.553 117.314 889.989 117.314C892.509 117.314 894.609 116.432 896.289 114.668C898.011 112.862 898.872 110.741 898.872 108.305C898.872 105.869 898.011 103.769 896.289 102.005C894.609 100.241 892.509 99.359 889.989 99.359C887.553 99.359 885.453 100.262 883.689 102.068C881.925 103.832 881.043 105.911 881.043 108.305ZM916.255 96.02C919.615 92.702 923.647 91.043 928.351 91.043C932.425 91.043 936.037 92.345 939.187 94.949C942.337 97.553 944.332 100.829 945.172 104.777C945.466 106.037 945.613 107.255 945.613 108.431C945.613 109.565 945.487 110.657 945.235 111.707H920.161C920.665 113.555 921.652 114.983 923.122 115.991C924.592 116.957 926.335 117.44 928.351 117.44C931.543 117.44 934.168 116.495 936.226 114.605L944.164 116.873C942.862 119.477 940.699 121.577 937.675 123.173C934.651 124.727 931.543 125.504 928.351 125.504C923.563 125.504 919.489 123.824 916.129 120.464C912.811 117.062 911.152 113.009 911.152 108.305C911.152 103.475 912.853 99.38 916.255 96.02ZM920.161 104.777H936.352C935.848 103.181 934.882 101.837 933.454 100.745C932.026 99.653 930.304 99.107 928.288 99.107C926.272 99.107 924.529 99.653 923.059 100.745C921.631 101.837 920.665 103.181 920.161 104.777ZM950.365 91.61H959.5V96.083C961.516 92.849 964.561 91.232 968.635 91.232C969.559 91.232 970.525 91.316 971.533 91.484V101.249C970.189 100.745 968.887 100.493 967.627 100.493C966.115 100.493 964.372 101.018 962.398 102.068C960.466 103.076 959.5 105.029 959.5 107.927V125H950.365V91.61ZM976.637 95.201C976.679 90.581 978.212 86.948 981.236 84.302C984.302 81.656 987.998 80.333 992.324 80.333C996.44 80.333 999.968 81.635 1002.91 84.239C1005.89 86.843 1007.38 90.077 1007.38 93.941C1007.38 95.747 1007 97.301 1006.25 98.603C1005.49 99.905 1004.57 100.934 1003.47 101.69C1002.42 102.446 1001.35 103.139 1000.26 103.769C999.17 104.399 998.225 105.155 997.427 106.037C996.671 106.877 996.272 107.864 996.23 108.998L996.167 111.14H987.347V106.982C987.347 105.218 987.914 103.664 989.048 102.32C990.224 100.976 991.505 99.968 992.891 99.296C994.277 98.582 995.537 97.763 996.671 96.839C997.847 95.873 998.435 94.907 998.435 93.941C998.435 92.555 997.91 91.379 996.86 90.413C995.81 89.405 994.34 88.88 992.45 88.838C992.366 88.838 992.303 88.838 992.261 88.838C990.329 88.838 988.775 89.426 987.599 90.602C986.465 91.736 985.856 93.269 985.772 95.201H976.637ZM988.292 115.928C989.342 114.878 990.644 114.353 992.198 114.353C993.752 114.353 995.054 114.899 996.104 115.991C997.196 117.041 997.742 118.343 997.742 119.897C997.742 121.451 997.217 122.753 996.167 123.803C995.075 124.853 993.752 125.378 992.198 125.378C990.644 125.378 989.321 124.853 988.229 123.803C987.179 122.753 986.654 121.451 986.654 119.897C986.654 118.343 987.2 117.02 988.292 115.928Z"/><path stroke="#00CC8D" stroke-linecap="round" stroke-width="10" d="M622.935 127.604C691.769 164.809 766.223 164.089 839.272 163.826C853.587 163.775 867.136 160.767 881.303 158.636C888.527 157.549 895.46 153.428 902.63 152.923C908.869 152.484 914.267 148.43 920.386 148.019C929.019 147.439 937.633 143.215 945.575 139.574C948.543 138.213 951.429 137.773 954.453 137.088C955.912 136.758 957.238 134.139 958.958 133.558"/></svg>