<svg xmlns="http://www.w3.org/2000/svg" width="948" height="180" fill="none" viewBox="0 0 948 180"><path fill="#000" d="M37.7465 3.6V13.608H11.3225V23.904H34.8665V33.624H11.3225V54H0.5225V3.6H37.7465ZM45.7661 20.88C49.6061 17.088 54.2141 15.192 59.5901 15.192C64.2461 15.192 68.3741 16.68 71.9741 19.656C75.5741 22.632 77.8541 26.376 78.8141 30.888C79.1501 32.328 79.3181 33.72 79.3181 35.064C79.3181 36.36 79.1741 37.608 78.8861 38.808H50.2301C50.8061 40.92 51.9341 42.552 53.6141 43.704C55.2941 44.808 57.2861 45.36 59.5901 45.36C63.2381 45.36 66.2381 44.28 68.5901 42.12L77.6621 44.712C76.1741 47.688 73.7021 50.088 70.2461 51.912C66.7901 53.688 63.2381 54.576 59.5901 54.576C54.1181 54.576 49.4621 52.656 45.6221 48.816C41.8301 44.928 39.9341 40.296 39.9341 34.92C39.9341 29.4 41.8781 24.72 45.7661 20.88ZM50.2301 30.888H68.7341C68.1581 29.064 67.0541 27.528 65.4221 26.28C63.7901 25.032 61.8221 24.408 59.5181 24.408C57.2141 24.408 55.2221 25.032 53.5421 26.28C51.9101 27.528 50.8061 29.064 50.2301 30.888ZM89.5004 20.88C93.3404 17.088 97.9484 15.192 103.324 15.192C107.98 15.192 112.108 16.68 115.708 19.656C119.308 22.632 121.588 26.376 122.548 30.888C122.884 32.328 123.052 33.72 123.052 35.064C123.052 36.36 122.908 37.608 122.62 38.808H93.9644C94.5404 40.92 95.6684 42.552 97.3484 43.704C99.0284 44.808 101.02 45.36 103.324 45.36C106.972 45.36 109.972 44.28 112.324 42.12L121.396 44.712C119.908 47.688 117.436 50.088 113.98 51.912C110.524 53.688 106.972 54.576 103.324 54.576C97.8524 54.576 93.1964 52.656 89.3564 48.816C85.5644 44.928 83.6684 40.296 83.6684 34.92C83.6684 29.4 85.6124 24.72 89.5004 20.88ZM93.9644 30.888H112.468C111.892 29.064 110.788 27.528 109.156 26.28C107.524 25.032 105.556 24.408 103.252 24.408C100.948 24.408 98.9564 25.032 97.2764 26.28C95.6444 27.528 94.5404 29.064 93.9644 30.888ZM129.186 54V3.6H139.626V54H129.186ZM157.634 15.84V54H147.194V15.84H157.634ZM147.986 2.232C149.234 1.032 150.746 0.431999 152.522 0.431999C154.298 0.431999 155.81 1.032 157.058 2.232C158.306 3.432 158.93 4.896 158.93 6.624C158.93 8.352 158.306 9.792 157.058 10.944C155.81 12.144 154.298 12.744 152.522 12.744C150.746 12.744 149.234 12.168 147.986 11.016C146.738 9.816 146.114 8.352 146.114 6.624C146.114 4.896 146.738 3.432 147.986 2.232ZM165.186 15.84H175.626V19.368C178.506 16.584 182.058 15.192 186.282 15.192C190.602 15.192 194.322 16.584 197.442 19.368C200.562 22.104 202.122 25.752 202.122 30.312V54H191.682V32.976C191.682 30.576 190.938 28.632 189.45 27.144C188.01 25.656 186.234 24.912 184.122 24.912C181.578 24.912 179.514 25.824 177.93 27.648C176.394 29.424 175.626 31.632 175.626 34.272V54H165.186V15.84ZM207.559 34.416C207.559 28.896 209.335 24.312 212.887 20.664C216.487 17.016 220.855 15.192 225.991 15.192C226.135 15.192 226.279 15.192 226.423 15.192C230.551 15.24 234.055 16.56 236.935 19.152V15.84H247.375V52.056C247.375 57.384 245.575 61.8 241.975 65.304C238.423 68.856 233.887 70.632 228.367 70.632C223.855 70.632 219.823 69.36 216.271 66.816C212.719 64.272 210.367 60.576 209.215 55.728H219.655C221.047 59.184 223.903 60.912 228.223 60.912C231.007 60.912 233.143 60.144 234.631 58.608C236.167 57.072 236.935 54.888 236.935 52.056V50.112C234.103 52.464 230.599 53.64 226.423 53.64C220.951 53.64 216.439 51.792 212.887 48.096C209.335 44.4 207.559 39.84 207.559 34.416ZM217.279 34.416C217.279 37.152 218.287 39.48 220.303 41.4C222.271 43.368 224.647 44.352 227.431 44.352C230.215 44.352 232.615 43.392 234.631 41.472C236.647 39.504 237.655 37.152 237.655 34.416C237.655 31.68 236.647 29.352 234.631 27.432C232.663 25.464 230.263 24.48 227.431 24.48C224.647 24.48 222.247 25.464 220.231 27.432C218.263 29.352 217.279 31.68 217.279 34.416ZM274.741 3.6H285.181V19.152C288.061 16.56 291.565 15.24 295.693 15.192C295.741 15.192 295.813 15.192 295.909 15.192C301.141 15.192 305.557 17.088 309.157 20.88C312.757 24.672 314.557 29.352 314.557 34.92C314.557 40.344 312.757 44.976 309.157 48.816C305.605 52.656 301.117 54.576 295.693 54.576C291.565 54.576 288.061 53.328 285.181 50.832V54H274.741V3.6ZM287.485 42.048C289.501 44.112 291.901 45.144 294.685 45.144C297.421 45.144 299.797 44.136 301.813 42.12C303.829 40.056 304.837 37.656 304.837 34.92C304.837 32.136 303.829 29.736 301.813 27.72C299.845 25.656 297.469 24.624 294.685 24.624C291.901 24.624 289.501 25.656 287.485 27.72C285.469 29.784 284.461 32.184 284.461 34.92C284.461 37.656 285.469 40.032 287.485 42.048ZM324.408 20.88C328.104 17.088 332.544 15.192 337.728 15.192C341.808 15.192 345.312 16.488 348.24 19.08V15.84H358.68V54H348.24V50.832C345.36 53.328 341.856 54.576 337.728 54.576C332.592 54.576 328.152 52.632 324.408 48.744C320.712 44.856 318.864 40.248 318.864 34.92C318.864 29.4 320.712 24.72 324.408 20.88ZM328.584 34.92C328.584 37.704 329.544 40.104 331.464 42.12C333.432 44.136 335.856 45.144 338.736 45.144C341.52 45.144 343.92 44.136 345.936 42.12C347.952 40.056 348.96 37.656 348.96 34.92C348.96 32.184 347.952 29.784 345.936 27.72C343.92 25.656 341.52 24.624 338.736 24.624C335.856 24.624 333.432 25.656 331.464 27.72C329.544 29.736 328.584 32.136 328.584 34.92ZM370.673 20.88C374.369 17.088 378.809 15.192 383.993 15.192C388.073 15.192 391.577 16.488 394.505 19.08V3.6H404.945V54H394.505V50.832C391.625 53.328 388.121 54.576 383.993 54.576C378.857 54.576 374.417 52.632 370.673 48.744C366.977 44.856 365.129 40.248 365.129 34.92C365.129 29.4 366.977 24.72 370.673 20.88ZM374.849 34.92C374.849 37.704 375.809 40.104 377.729 42.12C379.697 44.136 382.121 45.144 385.001 45.144C387.785 45.144 390.185 44.136 392.201 42.12C394.217 40.056 395.225 37.656 395.225 34.92C395.225 32.184 394.217 29.784 392.201 27.72C390.185 25.656 387.785 24.624 385.001 24.624C382.121 24.624 379.697 25.656 377.729 27.72C375.809 29.736 374.849 32.136 374.849 34.92ZM436.767 20.88C440.463 17.088 444.903 15.192 450.087 15.192C454.167 15.192 457.671 16.488 460.599 19.08V15.84H471.039V54H460.599V50.832C457.719 53.328 454.215 54.576 450.087 54.576C444.951 54.576 440.511 52.632 436.767 48.744C433.071 44.856 431.223 40.248 431.223 34.92C431.223 29.4 433.071 24.72 436.767 20.88ZM440.943 34.92C440.943 37.704 441.903 40.104 443.823 42.12C445.791 44.136 448.215 45.144 451.095 45.144C453.879 45.144 456.279 44.136 458.295 42.12C460.311 40.056 461.319 37.656 461.319 34.92C461.319 32.184 460.311 29.784 458.295 27.72C456.279 25.656 453.879 24.624 451.095 24.624C448.215 24.624 445.791 25.656 443.823 27.72C441.903 29.736 440.943 32.136 440.943 34.92ZM478.929 3.6H489.369V19.152C492.249 16.56 495.753 15.24 499.881 15.192C499.929 15.192 500.001 15.192 500.097 15.192C505.329 15.192 509.745 17.088 513.345 20.88C516.945 24.672 518.745 29.352 518.745 34.92C518.745 40.344 516.945 44.976 513.345 48.816C509.793 52.656 505.305 54.576 499.881 54.576C495.753 54.576 492.249 53.328 489.369 50.832V54H478.929V3.6ZM491.673 42.048C493.689 44.112 496.089 45.144 498.873 45.144C501.609 45.144 503.985 44.136 506.001 42.12C508.017 40.056 509.025 37.656 509.025 34.92C509.025 32.136 508.017 29.736 506.001 27.72C504.033 25.656 501.657 24.624 498.873 24.624C496.089 24.624 493.689 25.656 491.673 27.72C489.657 29.784 488.649 32.184 488.649 34.92C488.649 37.656 489.657 40.032 491.673 42.048ZM528.595 20.952C532.435 17.112 537.067 15.192 542.491 15.192C547.867 15.192 552.475 17.136 556.315 21.024C560.203 24.864 562.147 29.472 562.147 34.848C562.147 40.272 560.227 44.928 556.387 48.816C552.547 52.656 547.915 54.576 542.491 54.576C537.115 54.576 532.483 52.632 528.595 48.744C524.755 44.856 522.835 40.224 522.835 34.848C522.835 29.472 524.755 24.84 528.595 20.952ZM532.555 34.848C532.555 37.632 533.515 40.032 535.435 42.048C537.355 44.064 539.707 45.072 542.491 45.072C545.275 45.072 547.627 44.064 549.547 42.048C551.467 40.032 552.427 37.632 552.427 34.848C552.427 32.064 551.467 29.688 549.547 27.72C547.627 25.704 545.275 24.696 542.491 24.696C539.707 24.696 537.355 25.704 535.435 27.72C533.515 29.688 532.555 32.064 532.555 34.848ZM567.725 15.84H578.165V36.864C578.165 39.264 578.885 41.208 580.325 42.696C581.813 44.184 583.613 44.928 585.725 44.928C588.269 44.928 590.309 44.04 591.845 42.264C593.429 40.44 594.221 38.208 594.221 35.568V15.84H604.661V54H594.221V50.472C591.341 53.256 587.789 54.648 583.565 54.648C579.245 54.648 575.525 53.28 572.405 50.544C569.285 47.76 567.725 44.088 567.725 39.528V15.84ZM610.793 15.84H617.273V7.488L627.569 4.536V15.84H638.585V24.84H627.569V41.184C627.569 42.192 627.977 43.032 628.793 43.704C629.609 44.376 630.473 44.76 631.385 44.856C632.345 44.904 632.921 44.928 633.113 44.928C634.745 44.928 636.737 44.472 639.089 43.56V53.64C636.353 54.408 633.809 54.792 631.457 54.792C628.529 54.792 625.433 53.952 622.169 52.272C618.905 50.544 617.273 46.872 617.273 41.256V24.84H610.793V15.84ZM662.158 15.84H673.246L683.182 41.544L692.614 15.84H703.702L682.605 69.12H671.806L677.854 53.784L662.158 15.84ZM709.861 20.952C713.701 17.112 718.333 15.192 723.757 15.192C729.133 15.192 733.741 17.136 737.581 21.024C741.469 24.864 743.413 29.472 743.413 34.848C743.413 40.272 741.493 44.928 737.653 48.816C733.813 52.656 729.181 54.576 723.757 54.576C718.381 54.576 713.749 52.632 709.861 48.744C706.021 44.856 704.101 40.224 704.101 34.848C704.101 29.472 706.021 24.84 709.861 20.952ZM713.821 34.848C713.821 37.632 714.781 40.032 716.701 42.048C718.621 44.064 720.973 45.072 723.757 45.072C726.541 45.072 728.893 44.064 730.813 42.048C732.733 40.032 733.693 37.632 733.693 34.848C733.693 32.064 732.733 29.688 730.813 27.72C728.893 25.704 726.541 24.696 723.757 24.696C720.973 24.696 718.621 25.704 716.701 27.72C714.781 29.688 713.821 32.064 713.821 34.848ZM748.991 15.84H759.431V36.864C759.431 39.264 760.151 41.208 761.591 42.696C763.079 44.184 764.879 44.928 766.991 44.928C769.535 44.928 771.575 44.04 773.111 42.264C774.695 40.44 775.487 38.208 775.487 35.568V15.84H785.927V54H775.487V50.472C772.607 53.256 769.055 54.648 764.831 54.648C760.511 54.648 756.791 53.28 753.671 50.544C750.551 47.76 748.991 44.088 748.991 39.528V15.84ZM793.498 15.84H803.938V20.952C806.242 17.256 809.722 15.408 814.378 15.408C815.434 15.408 816.538 15.504 817.69 15.696V26.856C816.154 26.28 814.666 25.992 813.226 25.992C811.498 25.992 809.506 26.592 807.25 27.792C805.042 28.944 803.938 31.176 803.938 34.488V54H793.498V15.84ZM826.764 18.36C829.692 16.248 833.532 15.192 838.284 15.192C843.708 15.192 848.604 16.344 852.972 18.648V28.512C847.116 25.584 842.22 24.12 838.284 24.12C836.604 24.12 835.332 24.408 834.468 24.984C833.604 25.512 833.172 26.184 833.172 27C833.172 27.48 833.316 27.912 833.604 28.296C833.94 28.632 834.444 28.944 835.116 29.232C835.836 29.472 836.532 29.664 837.204 29.808C837.876 29.952 838.788 30.168 839.94 30.456C841.14 30.696 842.148 30.912 842.964 31.104C850.932 33.216 854.916 37.176 854.916 42.984C854.916 45.096 854.412 46.944 853.404 48.528C852.444 50.112 851.148 51.336 849.516 52.2C847.932 53.016 846.252 53.616 844.476 54C842.748 54.384 840.924 54.576 839.004 54.576C833.82 54.576 828.708 53.16 823.668 50.328V39.96C825.54 41.256 827.916 42.504 830.796 43.704C833.724 44.904 836.46 45.504 839.004 45.504C842.46 45.504 844.188 44.592 844.188 42.768C844.188 41.76 843.516 40.968 842.172 40.392C840.828 39.768 838.572 39.12 835.404 38.448C830.94 37.488 827.652 36.12 825.54 34.344C823.428 32.568 822.372 30.144 822.372 27.072C822.372 23.376 823.836 20.472 826.764 18.36ZM864.344 20.88C868.184 17.088 872.792 15.192 878.168 15.192C882.824 15.192 886.952 16.68 890.552 19.656C894.152 22.632 896.432 26.376 897.392 30.888C897.728 32.328 897.896 33.72 897.896 35.064C897.896 36.36 897.752 37.608 897.464 38.808H868.808C869.384 40.92 870.512 42.552 872.192 43.704C873.872 44.808 875.864 45.36 878.168 45.36C881.816 45.36 884.816 44.28 887.168 42.12L896.24 44.712C894.752 47.688 892.28 50.088 888.824 51.912C885.368 53.688 881.816 54.576 878.168 54.576C872.696 54.576 868.04 52.656 864.2 48.816C860.408 44.928 858.512 40.296 858.512 34.92C858.512 29.4 860.456 24.72 864.344 20.88ZM868.808 30.888H887.312C886.736 29.064 885.632 27.528 884 26.28C882.368 25.032 880.4 24.408 878.096 24.408C875.792 24.408 873.8 25.032 872.12 26.28C870.488 27.528 869.384 29.064 868.808 30.888ZM904.03 54V3.6H914.47V54H904.03ZM919.878 15.84H925.998V14.4C925.998 11.616 926.646 9.264 927.942 7.344C929.286 5.424 931.014 4.104 933.126 3.384C935.238 2.616 937.47 2.232 939.822 2.232C939.87 2.232 940.518 2.256 941.766 2.304C943.062 2.304 944.91 2.688 947.31 3.456V11.16C945.486 10.584 944.094 10.272 943.134 10.224C942.222 10.128 941.67 10.08 941.478 10.08C940.134 10.08 938.886 10.392 937.734 11.016C936.582 11.64 936.006 12.768 936.006 14.4V15.84H946.59V24.84H936.438L936.51 54H926.214L925.998 24.84H919.878V15.84ZM36.232 109.952C40.072 106.112 44.704 104.192 50.128 104.192C55.504 104.192 60.112 106.136 63.952 110.024C67.84 113.864 69.784 118.472 69.784 123.848C69.784 129.272 67.864 133.928 64.024 137.816C60.184 141.656 55.552 143.576 50.128 143.576C44.752 143.576 40.12 141.632 36.232 137.744C32.392 133.856 30.472 129.224 30.472 123.848C30.472 118.472 32.392 113.84 36.232 109.952ZM40.192 123.848C40.192 126.632 41.152 129.032 43.072 131.048C44.992 133.064 47.344 134.072 50.128 134.072C52.912 134.072 55.264 133.064 57.184 131.048C59.104 129.032 60.064 126.632 60.064 123.848C60.064 121.064 59.104 118.688 57.184 116.72C55.264 114.704 52.912 113.696 50.128 113.696C47.344 113.696 44.992 114.704 43.072 116.72C41.152 118.688 40.192 121.064 40.192 123.848ZM75.0102 104.84H85.4502V109.952C87.7542 106.256 91.2342 104.408 95.8902 104.408C96.9462 104.408 98.0502 104.504 99.2022 104.696V115.856C97.6662 115.28 96.1782 114.992 94.7382 114.992C93.0102 114.992 91.0182 115.592 88.7622 116.792C86.5542 117.944 85.4502 120.176 85.4502 123.488V143H75.0102V104.84ZM123.351 104.84H129.831V96.488L140.127 93.536V104.84H151.143V113.84H140.127V130.184C140.127 131.192 140.535 132.032 141.351 132.704C142.167 133.376 143.031 133.76 143.943 133.856C144.903 133.904 145.479 133.928 145.671 133.928C147.303 133.928 149.295 133.472 151.647 132.56V142.64C148.911 143.408 146.367 143.792 144.015 143.792C141.087 143.792 137.991 142.952 134.727 141.272C131.463 139.544 129.831 135.872 129.831 130.256V113.84H123.351V104.84ZM158.128 92.6H168.568V108.368C171.448 105.584 175 104.192 179.224 104.192C183.544 104.192 187.264 105.584 190.384 108.368C193.504 111.104 195.064 114.752 195.064 119.312V143H184.624V121.976C184.624 119.576 183.88 117.632 182.392 116.144C180.952 114.656 179.176 113.912 177.064 113.912C174.52 113.912 172.456 114.824 170.872 116.648C169.336 118.424 168.568 120.632 168.568 123.272V143H158.128V92.6ZM206.388 109.88C210.084 106.088 214.524 104.192 219.708 104.192C223.788 104.192 227.292 105.488 230.22 108.08V104.84H240.66V143H230.22V139.832C227.34 142.328 223.836 143.576 219.708 143.576C214.572 143.576 210.132 141.632 206.388 137.744C202.692 133.856 200.844 129.248 200.844 123.92C200.844 118.4 202.692 113.72 206.388 109.88ZM210.564 123.92C210.564 126.704 211.524 129.104 213.444 131.12C215.412 133.136 217.836 134.144 220.716 134.144C223.5 134.144 225.9 133.136 227.916 131.12C229.932 129.056 230.94 126.656 230.94 123.92C230.94 121.184 229.932 118.784 227.916 116.72C225.9 114.656 223.5 113.624 220.716 113.624C217.836 113.624 215.412 114.656 213.444 116.72C211.524 118.736 210.564 121.136 210.564 123.92ZM246.75 104.84H253.23V96.488L263.526 93.536V104.84H274.542V113.84H263.526V130.184C263.526 131.192 263.934 132.032 264.75 132.704C265.566 133.376 266.43 133.76 267.342 133.856C268.302 133.904 268.878 133.928 269.07 133.928C270.702 133.928 272.694 133.472 275.046 132.56V142.64C272.31 143.408 269.766 143.792 267.414 143.792C264.486 143.792 261.39 142.952 258.126 141.272C254.862 139.544 253.23 135.872 253.23 130.256V113.84H246.75V104.84ZM298.115 104.84H309.203L319.139 130.544L328.571 104.84H339.659L318.563 158.12H307.763L313.811 142.784L298.115 104.84ZM345.818 109.952C349.658 106.112 354.29 104.192 359.714 104.192C365.09 104.192 369.698 106.136 373.538 110.024C377.426 113.864 379.37 118.472 379.37 123.848C379.37 129.272 377.45 133.928 373.61 137.816C369.77 141.656 365.138 143.576 359.714 143.576C354.338 143.576 349.706 141.632 345.818 137.744C341.978 133.856 340.058 129.224 340.058 123.848C340.058 118.472 341.978 113.84 345.818 109.952ZM349.778 123.848C349.778 126.632 350.738 129.032 352.658 131.048C354.578 133.064 356.93 134.072 359.714 134.072C362.498 134.072 364.85 133.064 366.77 131.048C368.69 129.032 369.65 126.632 369.65 123.848C369.65 121.064 368.69 118.688 366.77 116.72C364.85 114.704 362.498 113.696 359.714 113.696C356.93 113.696 354.578 114.704 352.658 116.72C350.738 118.688 349.778 121.064 349.778 123.848ZM384.948 104.84H395.388V125.864C395.388 128.264 396.108 130.208 397.548 131.696C399.036 133.184 400.836 133.928 402.948 133.928C405.492 133.928 407.532 133.04 409.068 131.264C410.652 129.44 411.444 127.208 411.444 124.568V104.84H421.884V143H411.444V139.472C408.564 142.256 405.012 143.648 400.788 143.648C396.468 143.648 392.748 142.28 389.628 139.544C386.508 136.76 384.948 133.088 384.948 128.528V104.84ZM453.748 109.88C457.444 106.088 461.884 104.192 467.068 104.192C471.148 104.192 474.652 105.488 477.58 108.08V104.84H488.02V143H477.58V139.832C474.7 142.328 471.196 143.576 467.068 143.576C461.932 143.576 457.492 141.632 453.748 137.744C450.052 133.856 448.204 129.248 448.204 123.92C448.204 118.4 450.052 113.72 453.748 109.88ZM457.924 123.92C457.924 126.704 458.884 129.104 460.804 131.12C462.772 133.136 465.196 134.144 468.076 134.144C470.86 134.144 473.26 133.136 475.276 131.12C477.292 129.056 478.3 126.656 478.3 123.92C478.3 121.184 477.292 118.784 475.276 116.72C473.26 114.656 470.86 113.624 468.076 113.624C465.196 113.624 462.772 114.656 460.804 116.72C458.884 118.736 457.924 121.136 457.924 123.92ZM495.549 104.84H505.989V109.952C508.293 106.256 511.773 104.408 516.429 104.408C517.485 104.408 518.589 104.504 519.741 104.696V115.856C518.205 115.28 516.717 114.992 515.277 114.992C513.549 114.992 511.557 115.592 509.301 116.792C507.093 117.944 505.989 120.176 505.989 123.488V143H495.549V104.84ZM528.426 109.88C532.266 106.088 536.874 104.192 542.25 104.192C546.906 104.192 551.034 105.68 554.634 108.656C558.234 111.632 560.514 115.376 561.474 119.888C561.81 121.328 561.978 122.72 561.978 124.064C561.978 125.36 561.834 126.608 561.546 127.808H532.89C533.466 129.92 534.594 131.552 536.274 132.704C537.954 133.808 539.946 134.36 542.25 134.36C545.898 134.36 548.898 133.28 551.25 131.12L560.322 133.712C558.834 136.688 556.362 139.088 552.906 140.912C549.45 142.688 545.898 143.576 542.25 143.576C536.778 143.576 532.122 141.656 528.282 137.816C524.49 133.928 522.594 129.296 522.594 123.92C522.594 118.4 524.538 113.72 528.426 109.88ZM532.89 119.888H551.394C550.818 118.064 549.714 116.528 548.082 115.28C546.45 114.032 544.482 113.408 542.178 113.408C539.874 113.408 537.882 114.032 536.202 115.28C534.57 116.528 533.466 118.064 532.89 119.888ZM592.404 109.88C596.1 106.088 600.54 104.192 605.724 104.192C609.804 104.192 613.308 105.488 616.236 108.08V104.84H626.676V143H616.236V139.832C613.356 142.328 609.852 143.576 605.724 143.576C600.588 143.576 596.148 141.632 592.404 137.744C588.708 133.856 586.86 129.248 586.86 123.92C586.86 118.4 588.708 113.72 592.404 109.88ZM596.58 123.92C596.58 126.704 597.54 129.104 599.46 131.12C601.428 133.136 603.852 134.144 606.732 134.144C609.516 134.144 611.916 133.136 613.932 131.12C615.948 129.056 616.956 126.656 616.956 123.92C616.956 121.184 615.948 118.784 613.932 116.72C611.916 114.656 609.516 113.624 606.732 113.624C603.852 113.624 601.428 114.656 599.46 116.72C597.54 118.736 596.58 121.136 596.58 123.92ZM652.234 104.84H658.354V103.4C658.354 100.616 659.002 98.264 660.298 96.344C661.642 94.424 663.37 93.104 665.482 92.384C667.594 91.616 669.826 91.232 672.178 91.232C672.226 91.232 672.874 91.256 674.122 91.304C675.418 91.304 677.266 91.688 679.666 92.456V100.16C677.842 99.584 676.45 99.272 675.49 99.224C674.578 99.128 674.026 99.08 673.834 99.08C672.49 99.08 671.242 99.392 670.09 100.016C668.938 100.64 668.362 101.768 668.362 103.4V104.84H678.946V113.84H668.794L668.866 143H658.57L658.354 113.84H652.234V104.84ZM688.451 109.88C692.147 106.088 696.587 104.192 701.771 104.192C705.851 104.192 709.355 105.488 712.283 108.08V104.84H722.723V143H712.283V139.832C709.403 142.328 705.899 143.576 701.771 143.576C696.635 143.576 692.195 141.632 688.451 137.744C684.755 133.856 682.907 129.248 682.907 123.92C682.907 118.4 684.755 113.72 688.451 109.88ZM692.627 123.92C692.627 126.704 693.587 129.104 695.507 131.12C697.475 133.136 699.899 134.144 702.779 134.144C705.563 134.144 707.963 133.136 709.979 131.12C711.995 129.056 713.003 126.656 713.003 123.92C713.003 121.184 711.995 118.784 709.979 116.72C707.963 114.656 705.563 113.624 702.779 113.624C699.899 113.624 697.475 114.656 695.507 116.72C693.587 118.736 692.627 121.136 692.627 123.92ZM741.052 104.84V143H730.612V104.84H741.052ZM731.404 91.232C732.652 90.032 734.164 89.432 735.94 89.432C737.716 89.432 739.228 90.032 740.476 91.232C741.724 92.432 742.348 93.896 742.348 95.624C742.348 97.352 741.724 98.792 740.476 99.944C739.228 101.144 737.716 101.744 735.94 101.744C734.164 101.744 732.652 101.168 731.404 100.016C730.156 98.816 729.532 97.352 729.532 95.624C729.532 93.896 730.156 92.432 731.404 91.232ZM748.604 143V92.6H759.044V143H748.604ZM766.252 104.84H776.692V125.864C776.692 128.264 777.412 130.208 778.852 131.696C780.34 133.184 782.14 133.928 784.252 133.928C786.796 133.928 788.836 133.04 790.372 131.264C791.956 129.44 792.748 127.208 792.748 124.568V104.84H803.188V143H792.748V139.472C789.868 142.256 786.316 143.648 782.092 143.648C777.772 143.648 774.052 142.28 770.932 139.544C767.812 136.76 766.252 133.088 766.252 128.528V104.84ZM810.76 104.84H821.2V109.952C823.504 106.256 826.984 104.408 831.64 104.408C832.696 104.408 833.8 104.504 834.952 104.696V115.856C833.416 115.28 831.928 114.992 830.488 114.992C828.76 114.992 826.768 115.592 824.512 116.792C822.304 117.944 821.2 120.176 821.2 123.488V143H810.76V104.84ZM843.637 109.88C847.477 106.088 852.085 104.192 857.461 104.192C862.117 104.192 866.245 105.68 869.845 108.656C873.445 111.632 875.725 115.376 876.685 119.888C877.021 121.328 877.189 122.72 877.189 124.064C877.189 125.36 877.045 126.608 876.757 127.808H848.101C848.677 129.92 849.805 131.552 851.485 132.704C853.165 133.808 855.157 134.36 857.461 134.36C861.109 134.36 864.109 133.28 866.461 131.12L875.533 133.712C874.045 136.688 871.573 139.088 868.117 140.912C864.661 142.688 861.109 143.576 857.461 143.576C851.989 143.576 847.333 141.656 843.493 137.816C839.701 133.928 837.805 129.296 837.805 123.92C837.805 118.4 839.749 113.72 843.637 109.88ZM848.101 119.888H866.605C866.029 118.064 864.925 116.528 863.293 115.28C861.661 114.032 859.693 113.408 857.389 113.408C855.085 113.408 853.093 114.032 851.413 115.28C849.781 116.528 848.677 118.064 848.101 119.888ZM879.809 108.944C879.857 103.664 881.609 99.512 885.065 96.488C888.569 93.464 892.793 91.952 897.737 91.952C902.441 91.952 906.473 93.44 909.833 96.416C913.241 99.392 914.945 103.088 914.945 107.504C914.945 109.568 914.513 111.344 913.649 112.832C912.785 114.32 911.729 115.496 910.481 116.36C909.281 117.224 908.057 118.016 906.809 118.736C905.561 119.456 904.481 120.32 903.569 121.328C902.705 122.288 902.249 123.416 902.201 124.712L902.129 127.16H892.049V122.408C892.049 120.392 892.697 118.616 893.993 117.08C895.337 115.544 896.801 114.392 898.385 113.624C899.969 112.808 901.409 111.872 902.705 110.816C904.049 109.712 904.721 108.608 904.721 107.504C904.721 105.92 904.121 104.576 902.921 103.472C901.721 102.32 900.041 101.72 897.881 101.672C897.785 101.672 897.713 101.672 897.665 101.672C895.457 101.672 893.681 102.344 892.337 103.688C891.041 104.984 890.345 106.736 890.249 108.944H879.809ZM893.129 132.632C894.329 131.432 895.817 130.832 897.593 130.832C899.369 130.832 900.857 131.456 902.057 132.704C903.305 133.904 903.929 135.392 903.929 137.168C903.929 138.944 903.329 140.432 902.129 141.632C900.881 142.832 899.369 143.432 897.593 143.432C895.817 143.432 894.305 142.832 893.057 141.632C891.857 140.432 891.257 138.944 891.257 137.168C891.257 135.392 891.881 133.88 893.129 132.632Z"/><path stroke="#00CC8D" stroke-linecap="round" stroke-width="10" d="M642 143C690.254 169.318 742.55 169 793.859 169C803.914 169 813.437 166.921 823.394 165.459C828.47 164.713 833.35 161.835 838.388 161.498C842.771 161.205 846.572 158.37 850.871 158.097C856.937 157.711 862.998 154.764 868.585 152.226C870.673 151.277 872.701 150.975 874.827 150.502C875.852 150.273 876.79 148.436 878 148.032"/></svg>