<svg xmlns="http://www.w3.org/2000/svg" width="879" height="202" fill="none" viewBox="0 0 879 202"><path fill="#000" d="M41.385 4V15.12H12.025V26.56H38.185V37.36H12.025V60H0.0250003V4H41.385ZM50.2956 23.2C54.5623 18.9867 59.6823 16.88 65.6556 16.88C70.829 16.88 75.4156 18.5333 79.4156 21.84C83.4156 25.1467 85.949 29.3067 87.0156 34.32C87.389 35.92 87.5756 37.4667 87.5756 38.96C87.5756 40.4 87.4156 41.7867 87.0956 43.12H55.2556C55.8956 45.4667 57.149 47.28 59.0156 48.56C60.8823 49.7867 63.0956 50.4 65.6556 50.4C69.709 50.4 73.0423 49.2 75.6556 46.8L85.7356 49.68C84.0823 52.9867 81.3356 55.6533 77.4956 57.68C73.6556 59.6533 69.709 60.64 65.6556 60.64C59.5756 60.64 54.4023 58.5067 50.1356 54.24C45.9223 49.92 43.8156 44.7733 43.8156 38.8C43.8156 32.6667 45.9756 27.4667 50.2956 23.2ZM55.2556 34.32H75.8156C75.1756 32.2933 73.949 30.5867 72.1356 29.2C70.3223 27.8133 68.1356 27.12 65.5756 27.12C63.0156 27.12 60.8023 27.8133 58.9356 29.2C57.1223 30.5867 55.8956 32.2933 55.2556 34.32ZM98.8894 23.2C103.156 18.9867 108.276 16.88 114.249 16.88C119.423 16.88 124.009 18.5333 128.009 21.84C132.009 25.1467 134.543 29.3067 135.609 34.32C135.983 35.92 136.169 37.4667 136.169 38.96C136.169 40.4 136.009 41.7867 135.689 43.12H103.849C104.489 45.4667 105.743 47.28 107.609 48.56C109.476 49.7867 111.689 50.4 114.249 50.4C118.303 50.4 121.636 49.2 124.249 46.8L134.329 49.68C132.676 52.9867 129.929 55.6533 126.089 57.68C122.249 59.6533 118.303 60.64 114.249 60.64C108.169 60.64 102.996 58.5067 98.7294 54.24C94.516 49.92 92.4094 44.7733 92.4094 38.8C92.4094 32.6667 94.5694 27.4667 98.8894 23.2ZM103.849 34.32H124.409C123.769 32.2933 122.543 30.5867 120.729 29.2C118.916 27.8133 116.729 27.12 114.169 27.12C111.609 27.12 109.396 27.8133 107.529 29.2C105.716 30.5867 104.489 32.2933 103.849 34.32ZM142.984 60V4H154.584V60H142.984ZM174.594 17.6V60H162.994V17.6H174.594ZM163.874 2.48C165.26 1.14666 166.94 0.479999 168.914 0.479999C170.887 0.479999 172.567 1.14666 173.954 2.48C175.34 3.81333 176.034 5.44 176.034 7.36C176.034 9.28 175.34 10.88 173.954 12.16C172.567 13.4933 170.887 14.16 168.914 14.16C166.94 14.16 165.26 13.52 163.874 12.24C162.487 10.9067 161.794 9.28 161.794 7.36C161.794 5.44 162.487 3.81333 163.874 2.48ZM182.984 17.6H194.584V21.52C197.784 18.4267 201.731 16.88 206.424 16.88C211.224 16.88 215.358 18.4267 218.824 21.52C222.291 24.56 224.024 28.6133 224.024 33.68V60H212.424V36.64C212.424 33.9733 211.598 31.8133 209.944 30.16C208.344 28.5067 206.371 27.68 204.024 27.68C201.198 27.68 198.904 28.6933 197.144 30.72C195.438 32.6933 194.584 35.1467 194.584 38.08V60H182.984V17.6ZM230.066 38.24C230.066 32.1067 232.039 27.0133 235.986 22.96C239.986 18.9067 244.839 16.88 250.546 16.88C250.706 16.88 250.866 16.88 251.026 16.88C255.612 16.9333 259.506 18.4 262.706 21.28V17.6H274.306V57.84C274.306 63.76 272.306 68.6667 268.306 72.56C264.359 76.5067 259.319 78.48 253.186 78.48C248.172 78.48 243.692 77.0667 239.746 74.24C235.799 71.4133 233.186 67.3067 231.906 61.92H243.506C245.052 65.76 248.226 67.68 253.026 67.68C256.119 67.68 258.492 66.8267 260.146 65.12C261.852 63.4133 262.706 60.9867 262.706 57.84V55.68C259.559 58.2933 255.666 59.6 251.026 59.6C244.946 59.6 239.932 57.5467 235.986 53.44C232.039 49.3333 230.066 44.2667 230.066 38.24ZM240.866 38.24C240.866 41.28 241.986 43.8667 244.226 46C246.412 48.1867 249.052 49.28 252.146 49.28C255.239 49.28 257.906 48.2133 260.146 46.08C262.386 43.8933 263.506 41.28 263.506 38.24C263.506 35.2 262.386 32.6133 260.146 30.48C257.959 28.2933 255.292 27.2 252.146 27.2C249.052 27.2 246.386 28.2933 244.146 30.48C241.959 32.6133 240.866 35.2 240.866 38.24ZM302.713 17.6H309.913V8.32L321.353 5.04V17.6H333.593V27.6H321.353V45.76C321.353 46.88 321.806 47.8133 322.713 48.56C323.619 49.3067 324.579 49.7333 325.593 49.84C326.659 49.8933 327.299 49.92 327.513 49.92C329.326 49.92 331.539 49.4133 334.153 48.4V59.6C331.113 60.4533 328.286 60.88 325.673 60.88C322.419 60.88 318.979 59.9467 315.353 58.08C311.726 56.16 309.913 52.08 309.913 45.84V27.6H302.713V17.6ZM352.953 17.6V60H341.353V17.6H352.953ZM342.233 2.48C343.62 1.14666 345.3 0.479999 347.273 0.479999C349.246 0.479999 350.926 1.14666 352.313 2.48C353.7 3.81333 354.393 5.44 354.393 7.36C354.393 9.28 353.7 10.88 352.313 12.16C350.926 13.4933 349.246 14.16 347.273 14.16C345.3 14.16 343.62 13.52 342.233 12.24C340.846 10.9067 340.153 9.28 340.153 7.36C340.153 5.44 340.846 3.81333 342.233 2.48ZM361.344 17.6H372.944V23.28C375.504 19.1733 379.37 17.12 384.544 17.12C385.717 17.12 386.944 17.2267 388.224 17.44V29.84C386.517 29.2 384.864 28.88 383.264 28.88C381.344 28.88 379.13 29.5467 376.624 30.88C374.17 32.16 372.944 34.64 372.944 38.32V60H361.344V17.6ZM397.874 23.2C402.14 18.9867 407.26 16.88 413.234 16.88C418.407 16.88 422.994 18.5333 426.994 21.84C430.994 25.1467 433.527 29.3067 434.594 34.32C434.967 35.92 435.154 37.4667 435.154 38.96C435.154 40.4 434.994 41.7867 434.674 43.12H402.834C403.474 45.4667 404.727 47.28 406.594 48.56C408.46 49.7867 410.674 50.4 413.234 50.4C417.287 50.4 420.62 49.2 423.234 46.8L433.314 49.68C431.66 52.9867 428.914 55.6533 425.074 57.68C421.234 59.6533 417.287 60.64 413.234 60.64C407.154 60.64 401.98 58.5067 397.714 54.24C393.5 49.92 391.394 44.7733 391.394 38.8C391.394 32.6667 393.554 27.4667 397.874 23.2ZM402.834 34.32H423.394C422.754 32.2933 421.527 30.5867 419.714 29.2C417.9 27.8133 415.714 27.12 413.154 27.12C410.594 27.12 408.38 27.8133 406.514 29.2C404.7 30.5867 403.474 32.2933 402.834 34.32ZM446.148 23.2C450.254 18.9867 455.188 16.88 460.948 16.88C465.481 16.88 469.374 18.32 472.628 21.2V4H484.227V60H472.628V56.48C469.428 59.2533 465.534 60.64 460.948 60.64C455.241 60.64 450.308 58.48 446.148 54.16C442.041 49.84 439.988 44.72 439.988 38.8C439.988 32.6667 442.041 27.4667 446.148 23.2ZM450.788 38.8C450.788 41.8933 451.854 44.56 453.988 46.8C456.174 49.04 458.868 50.16 462.068 50.16C465.161 50.16 467.828 49.04 470.068 46.8C472.308 44.5067 473.428 41.84 473.428 38.8C473.428 35.76 472.308 33.0933 470.068 30.8C467.828 28.5067 465.161 27.36 462.068 27.36C458.868 27.36 456.174 28.5067 453.988 30.8C451.854 33.04 450.788 35.7067 450.788 38.8ZM519.585 23.28C523.852 19.0133 528.998 16.88 535.025 16.88C540.998 16.88 546.118 19.04 550.385 23.36C554.705 27.6267 556.865 32.7467 556.865 38.72C556.865 44.7467 554.732 49.92 550.465 54.24C546.198 58.5067 541.052 60.64 535.025 60.64C529.052 60.64 523.905 58.48 519.585 54.16C515.318 49.84 513.185 44.6933 513.185 38.72C513.185 32.7467 515.318 27.6 519.585 23.28ZM523.985 38.72C523.985 41.8133 525.052 44.48 527.185 46.72C529.318 48.96 531.932 50.08 535.025 50.08C538.118 50.08 540.732 48.96 542.865 46.72C544.998 44.48 546.065 41.8133 546.065 38.72C546.065 35.6267 544.998 32.9867 542.865 30.8C540.732 28.56 538.118 27.44 535.025 27.44C531.932 27.44 529.318 28.56 527.185 30.8C525.052 32.9867 523.985 35.6267 523.985 38.72ZM562.672 17.6H574.272V23.28C576.832 19.1733 580.699 17.12 585.872 17.12C587.045 17.12 588.272 17.2267 589.552 17.44V29.84C587.845 29.2 586.192 28.88 584.592 28.88C582.672 28.88 580.459 29.5467 577.952 30.88C575.499 32.16 574.272 34.64 574.272 38.32V60H562.672V17.6ZM618.384 4H629.984V21.52C633.184 18.4267 637.131 16.88 641.824 16.88C646.624 16.88 650.758 18.4267 654.224 21.52C657.691 24.56 659.424 28.6133 659.424 33.68V60H647.824V36.64C647.824 33.9733 646.998 31.8133 645.344 30.16C643.744 28.5067 641.771 27.68 639.424 27.68C636.598 27.68 634.304 28.6933 632.544 30.72C630.838 32.6933 629.984 35.1467 629.984 38.08V60H618.384V4ZM672.007 23.2C676.114 18.9867 681.047 16.88 686.807 16.88C691.34 16.88 695.234 18.32 698.487 21.2V17.6H710.087V60H698.487V56.48C695.287 59.2533 691.394 60.64 686.807 60.64C681.1 60.64 676.167 58.48 672.007 54.16C667.9 49.84 665.847 44.72 665.847 38.8C665.847 32.6667 667.9 27.4667 672.007 23.2ZM676.647 38.8C676.647 41.8933 677.714 44.56 679.847 46.8C682.034 49.04 684.727 50.16 687.927 50.16C691.02 50.16 693.687 49.04 695.927 46.8C698.167 44.5067 699.287 41.84 699.287 38.8C699.287 35.76 698.167 33.0933 695.927 30.8C693.687 28.5067 691.02 27.36 687.927 27.36C684.727 27.36 682.034 28.5067 679.847 30.8C677.714 33.04 676.647 35.7067 676.647 38.8ZM716.453 17.6H728.773L738.533 52L748.293 17.6H760.693L747.893 60H729.253L716.453 17.6ZM778.656 17.6V60H767.056V17.6H778.656ZM767.936 2.48C769.323 1.14666 771.003 0.479999 772.976 0.479999C774.95 0.479999 776.63 1.14666 778.016 2.48C779.403 3.81333 780.096 5.44 780.096 7.36C780.096 9.28 779.403 10.88 778.016 12.16C776.63 13.4933 774.95 14.16 772.976 14.16C771.003 14.16 769.323 13.52 767.936 12.24C766.55 10.9067 765.856 9.28 765.856 7.36C765.856 5.44 766.55 3.81333 767.936 2.48ZM787.047 17.6H798.647V21.52C801.847 18.4267 805.794 16.88 810.487 16.88C815.287 16.88 819.42 18.4267 822.887 21.52C826.354 24.56 828.087 28.6133 828.087 33.68V60H816.487V36.64C816.487 33.9733 815.66 31.8133 814.007 30.16C812.407 28.5067 810.434 27.68 808.087 27.68C805.26 27.68 802.967 28.6933 801.207 30.72C799.5 32.6933 798.647 35.1467 798.647 38.08V60H787.047V17.6ZM834.128 38.24C834.128 32.1067 836.101 27.0133 840.048 22.96C844.048 18.9067 848.901 16.88 854.608 16.88C854.768 16.88 854.928 16.88 855.088 16.88C859.675 16.9333 863.568 18.4 866.768 21.28V17.6H878.368V57.84C878.368 63.76 876.368 68.6667 872.368 72.56C868.421 76.5067 863.381 78.48 857.248 78.48C852.235 78.48 847.755 77.0667 843.808 74.24C839.861 71.4133 837.248 67.3067 835.968 61.92H847.568C849.115 65.76 852.288 67.68 857.088 67.68C860.181 67.68 862.555 66.8267 864.208 65.12C865.915 63.4133 866.768 60.9867 866.768 57.84V55.68C863.621 58.2933 859.728 59.6 855.088 59.6C849.008 59.6 843.995 57.5467 840.048 53.44C836.101 49.3333 834.128 44.2667 834.128 38.24ZM844.928 38.24C844.928 41.28 846.048 43.8667 848.288 46C850.475 48.1867 853.115 49.28 856.208 49.28C859.301 49.28 861.968 48.2133 864.208 46.08C866.448 43.8933 867.568 41.28 867.568 38.24C867.568 35.2 866.448 32.6133 864.208 30.48C862.021 28.2933 859.355 27.2 856.208 27.2C853.115 27.2 850.448 28.2933 848.208 30.48C846.021 32.6133 844.928 35.2 844.928 38.24ZM190.484 159V103H202.084V159H190.484ZM222.094 116.6V159H210.494V116.6H222.094ZM211.374 101.48C212.76 100.147 214.44 99.48 216.414 99.48C218.387 99.48 220.067 100.147 221.454 101.48C222.84 102.813 223.534 104.44 223.534 106.36C223.534 108.28 222.84 109.88 221.454 111.16C220.067 112.493 218.387 113.16 216.414 113.16C214.44 113.16 212.76 112.52 211.374 111.24C209.987 109.907 209.294 108.28 209.294 106.36C209.294 104.44 209.987 102.813 211.374 101.48ZM228.884 116.6H236.084V107.32L247.524 104.04V116.6H259.764V126.6H247.524V144.76C247.524 145.88 247.978 146.813 248.884 147.56C249.791 148.307 250.751 148.733 251.764 148.84C252.831 148.893 253.471 148.92 253.684 148.92C255.498 148.92 257.711 148.413 260.324 147.4V158.6C257.284 159.453 254.458 159.88 251.844 159.88C248.591 159.88 245.151 158.947 241.524 157.08C237.898 155.16 236.084 151.08 236.084 144.84V126.6H228.884V116.6ZM265.916 116.6H273.116V107.32L284.556 104.04V116.6H296.796V126.6H284.556V144.76C284.556 145.88 285.009 146.813 285.916 147.56C286.822 148.307 287.782 148.733 288.796 148.84C289.862 148.893 290.502 148.92 290.716 148.92C292.529 148.92 294.742 148.413 297.356 147.4V158.6C294.316 159.453 291.489 159.88 288.876 159.88C285.622 159.88 282.182 158.947 278.556 157.08C274.929 155.16 273.116 151.08 273.116 144.84V126.6H265.916V116.6ZM304.156 159V103H315.756V159H304.156ZM329.046 122.2C333.312 117.987 338.432 115.88 344.406 115.88C349.579 115.88 354.166 117.533 358.166 120.84C362.166 124.147 364.699 128.307 365.766 133.32C366.139 134.92 366.326 136.467 366.326 137.96C366.326 139.4 366.166 140.787 365.846 142.12H334.006C334.646 144.467 335.899 146.28 337.766 147.56C339.632 148.787 341.846 149.4 344.406 149.4C348.459 149.4 351.792 148.2 354.406 145.8L364.486 148.68C362.832 151.987 360.086 154.653 356.246 156.68C352.406 158.653 348.459 159.64 344.406 159.64C338.326 159.64 333.152 157.507 328.886 153.24C324.672 148.92 322.566 143.773 322.566 137.8C322.566 131.667 324.726 126.467 329.046 122.2ZM334.006 133.32H354.566C353.926 131.293 352.699 129.587 350.886 128.2C349.072 126.813 346.886 126.12 344.326 126.12C341.766 126.12 339.552 126.813 337.686 128.2C335.872 129.587 334.646 131.293 334.006 133.32ZM400.452 122.2C404.719 117.987 409.839 115.88 415.812 115.88C420.985 115.88 425.572 117.533 429.572 120.84C433.572 124.147 436.105 128.307 437.172 133.32C437.545 134.92 437.732 136.467 437.732 137.96C437.732 139.4 437.572 140.787 437.252 142.12H405.412C406.052 144.467 407.305 146.28 409.172 147.56C411.039 148.787 413.252 149.4 415.812 149.4C419.865 149.4 423.199 148.2 425.812 145.8L435.892 148.68C434.239 151.987 431.492 154.653 427.652 156.68C423.812 158.653 419.865 159.64 415.812 159.64C409.732 159.64 404.559 157.507 400.292 153.24C396.079 148.92 393.972 143.773 393.972 137.8C393.972 131.667 396.132 126.467 400.452 122.2ZM405.412 133.32H425.972C425.332 131.293 424.105 129.587 422.292 128.2C420.479 126.813 418.292 126.12 415.732 126.12C413.172 126.12 410.959 126.813 409.092 128.2C407.279 129.587 406.052 131.293 405.412 133.32ZM443.766 116.6H455.366V120.52C458.566 117.427 462.512 115.88 467.206 115.88C472.006 115.88 476.139 117.427 479.606 120.52C483.072 123.56 484.806 127.613 484.806 132.68V159H473.206V135.64C473.206 132.973 472.379 130.813 470.726 129.16C469.126 127.507 467.152 126.68 464.806 126.68C461.979 126.68 459.686 127.693 457.926 129.72C456.219 131.693 455.366 134.147 455.366 137.08V159H443.766V116.6ZM497.327 122.2C501.594 117.987 506.714 115.88 512.687 115.88C517.86 115.88 522.447 117.533 526.447 120.84C530.447 124.147 532.98 128.307 534.047 133.32C534.42 134.92 534.607 136.467 534.607 137.96C534.607 139.4 534.447 140.787 534.127 142.12H502.287C502.927 144.467 504.18 146.28 506.047 147.56C507.914 148.787 510.127 149.4 512.687 149.4C516.74 149.4 520.074 148.2 522.687 145.8L532.767 148.68C531.114 151.987 528.367 154.653 524.527 156.68C520.687 158.653 516.74 159.64 512.687 159.64C506.607 159.64 501.434 157.507 497.167 153.24C492.954 148.92 490.847 143.773 490.847 137.8C490.847 131.667 493.007 126.467 497.327 122.2ZM502.287 133.32H522.847C522.207 131.293 520.98 129.587 519.167 128.2C517.354 126.813 515.167 126.12 512.607 126.12C510.047 126.12 507.834 126.813 505.967 128.2C504.154 129.587 502.927 131.293 502.287 133.32ZM540.641 116.6H552.241V122.28C554.801 118.173 558.667 116.12 563.841 116.12C565.014 116.12 566.241 116.227 567.521 116.44V128.84C565.814 128.2 564.161 127.88 562.561 127.88C560.641 127.88 558.427 128.547 555.921 129.88C553.467 131.16 552.241 133.64 552.241 137.32V159H540.641V116.6ZM570.691 137.24C570.691 131.107 572.664 126.013 576.611 121.96C580.611 117.907 585.464 115.88 591.171 115.88C591.331 115.88 591.491 115.88 591.651 115.88C596.237 115.933 600.131 117.4 603.331 120.28V116.6H614.931V156.84C614.931 162.76 612.931 167.667 608.931 171.56C604.984 175.507 599.944 177.48 593.811 177.48C588.797 177.48 584.317 176.067 580.371 173.24C576.424 170.413 573.811 166.307 572.531 160.92H584.131C585.677 164.76 588.851 166.68 593.651 166.68C596.744 166.68 599.117 165.827 600.771 164.12C602.477 162.413 603.331 159.987 603.331 156.84V154.68C600.184 157.293 596.291 158.6 591.651 158.6C585.571 158.6 580.557 156.547 576.611 152.44C572.664 148.333 570.691 143.267 570.691 137.24ZM581.491 137.24C581.491 140.28 582.611 142.867 584.851 145C587.037 147.187 589.677 148.28 592.771 148.28C595.864 148.28 598.531 147.213 600.771 145.08C603.011 142.893 604.131 140.28 604.131 137.24C604.131 134.2 603.011 131.613 600.771 129.48C598.584 127.293 595.917 126.2 592.771 126.2C589.677 126.2 587.011 127.293 584.771 129.48C582.584 131.613 581.491 134.2 581.491 137.24ZM619.706 116.6H632.026L643.066 145.16L653.546 116.6H665.866L642.426 175.8H630.426L637.146 158.76L619.706 116.6ZM671.268 121.16C671.321 115.293 673.268 110.68 677.108 107.32C681.001 103.96 685.694 102.28 691.188 102.28C696.414 102.28 700.894 103.933 704.628 107.24C708.414 110.547 710.308 114.653 710.308 119.56C710.308 121.853 709.828 123.827 708.868 125.48C707.908 127.133 706.734 128.44 705.348 129.4C704.014 130.36 702.654 131.24 701.268 132.04C699.881 132.84 698.681 133.8 697.668 134.92C696.708 135.987 696.201 137.24 696.148 138.68L696.068 141.4H684.868V136.12C684.868 133.88 685.588 131.907 687.028 130.2C688.521 128.493 690.148 127.213 691.908 126.36C693.668 125.453 695.268 124.413 696.708 123.24C698.201 122.013 698.948 120.787 698.948 119.56C698.948 117.8 698.281 116.307 696.948 115.08C695.614 113.8 693.748 113.133 691.348 113.08C691.241 113.08 691.161 113.08 691.108 113.08C688.654 113.08 686.681 113.827 685.188 115.32C683.748 116.76 682.974 118.707 682.868 121.16H671.268ZM686.068 147.48C687.401 146.147 689.054 145.48 691.028 145.48C693.001 145.48 694.654 146.173 695.988 147.56C697.374 148.893 698.068 150.547 698.068 152.52C698.068 154.493 697.401 156.147 696.068 157.48C694.681 158.813 693.001 159.48 691.028 159.48C689.054 159.48 687.374 158.813 685.988 157.48C684.654 156.147 683.988 154.493 683.988 152.52C683.988 150.547 684.681 148.867 686.068 147.48Z"/><path stroke="#00CC8D" stroke-linecap="round" stroke-width="10" d="M400 168C453.775 197.355 512.054 197 569.232 197C580.438 197 591.051 194.681 602.146 193.05C607.804 192.219 613.242 189.008 618.856 188.632C623.741 188.306 627.977 185.144 632.767 184.839C639.527 184.408 646.281 181.122 652.508 178.29C654.834 177.232 657.095 176.895 659.464 176.367C660.606 176.113 661.652 174.064 663 173.613"/></svg>