<svg xmlns="http://www.w3.org/2000/svg" width="949" height="180" fill="none" viewBox="0 0 949 180"><path fill="#000" d="M0.568945 59V4.4H11.8789V59H0.568945ZM31.3881 17.66V59H20.0781V17.66H31.3881ZM20.9361 2.918C22.2881 1.618 23.9261 0.967999 25.8501 0.967999C27.7741 0.967999 29.4121 1.618 30.7641 2.918C32.1161 4.218 32.7921 5.804 32.7921 7.676C32.7921 9.548 32.1161 11.108 30.7641 12.356C29.4121 13.656 27.7741 14.306 25.8501 14.306C23.9261 14.306 22.2881 13.682 20.9361 12.434C19.5841 11.134 18.9081 9.548 18.9081 7.676C18.9081 5.804 19.5841 4.218 20.9361 2.918ZM38.0089 17.66H45.0289V8.612L56.1829 5.414V17.66H68.1169V27.41H56.1829V45.116C56.1829 46.208 56.6249 47.118 57.5089 47.846C58.3929 48.574 59.3289 48.99 60.3169 49.094C61.3569 49.146 61.9809 49.172 62.1889 49.172C63.9569 49.172 66.1149 48.678 68.6629 47.69V58.61C65.6989 59.442 62.9429 59.858 60.3949 59.858C57.2229 59.858 53.8689 58.948 50.3329 57.128C46.7969 55.256 45.0289 51.278 45.0289 45.194V27.41H38.0089V17.66ZM74.1144 17.66H81.1344V8.612L92.2884 5.414V17.66H104.222V27.41H92.2884V45.116C92.2884 46.208 92.7304 47.118 93.6144 47.846C94.4984 48.574 95.4344 48.99 96.4224 49.094C97.4624 49.146 98.0864 49.172 98.2944 49.172C100.062 49.172 102.22 48.678 104.768 47.69V58.61C101.804 59.442 99.0484 59.858 96.5004 59.858C93.3284 59.858 89.9744 58.948 86.4384 57.128C82.9024 55.256 81.1344 51.278 81.1344 45.194V27.41H74.1144V17.66ZM111.399 59V4.4H122.709V59H111.399ZM135.666 23.12C139.826 19.012 144.818 16.958 150.642 16.958C155.686 16.958 160.158 18.57 164.058 21.794C167.958 25.018 170.428 29.074 171.468 33.962C171.832 35.522 172.014 37.03 172.014 38.486C172.014 39.89 171.858 41.242 171.546 42.542H140.502C141.126 44.83 142.348 46.598 144.168 47.846C145.988 49.042 148.146 49.64 150.642 49.64C154.594 49.64 157.844 48.47 160.392 46.13L170.22 48.938C168.608 52.162 165.93 54.762 162.186 56.738C158.442 58.662 154.594 59.624 150.642 59.624C144.714 59.624 139.67 57.544 135.51 53.384C131.402 49.172 129.348 44.154 129.348 38.33C129.348 32.35 131.454 27.28 135.666 23.12ZM140.502 33.962H160.548C159.924 31.986 158.728 30.322 156.96 28.97C155.192 27.618 153.06 26.942 150.564 26.942C148.068 26.942 145.91 27.618 144.09 28.97C142.322 30.322 141.126 31.986 140.502 33.962ZM211.839 17.66V59H200.529V17.66H211.839ZM201.387 2.918C202.739 1.618 204.377 0.967999 206.301 0.967999C208.225 0.967999 209.863 1.618 211.215 2.918C212.567 4.218 213.243 5.804 213.243 7.676C213.243 9.548 212.567 11.108 211.215 12.356C209.863 13.656 208.225 14.306 206.301 14.306C204.377 14.306 202.739 13.682 201.387 12.434C200.035 11.134 199.359 9.548 199.359 7.676C199.359 5.804 200.035 4.218 201.387 2.918ZM220.02 17.66H231.33V21.482C234.45 18.466 238.298 16.958 242.874 16.958C247.554 16.958 251.584 18.466 254.964 21.482C258.344 24.446 260.034 28.398 260.034 33.338V59H248.724V36.224C248.724 33.624 247.918 31.518 246.306 29.906C244.746 28.294 242.822 27.488 240.534 27.488C237.778 27.488 235.542 28.476 233.826 30.452C232.162 32.376 231.33 34.768 231.33 37.628V59H220.02V17.66ZM264.392 17.66H271.412V8.612L282.566 5.414V17.66H294.5V27.41H282.566V45.116C282.566 46.208 283.008 47.118 283.892 47.846C284.776 48.574 285.712 48.99 286.7 49.094C287.74 49.146 288.364 49.172 288.572 49.172C290.34 49.172 292.498 48.678 295.046 47.69V58.61C292.082 59.442 289.326 59.858 286.778 59.858C283.606 59.858 280.252 58.948 276.716 57.128C273.18 55.256 271.412 51.278 271.412 45.194V27.41H264.392V17.66ZM305.301 23.12C309.461 19.012 314.453 16.958 320.277 16.958C325.321 16.958 329.793 18.57 333.693 21.794C337.593 25.018 340.063 29.074 341.103 33.962C341.467 35.522 341.649 37.03 341.649 38.486C341.649 39.89 341.493 41.242 341.181 42.542H310.137C310.761 44.83 311.983 46.598 313.803 47.846C315.623 49.042 317.781 49.64 320.277 49.64C324.229 49.64 327.479 48.47 330.027 46.13L339.855 48.938C338.243 52.162 335.565 54.762 331.821 56.738C328.077 58.662 324.229 59.624 320.277 59.624C314.349 59.624 309.305 57.544 305.145 53.384C301.037 49.172 298.983 44.154 298.983 38.33C298.983 32.35 301.089 27.28 305.301 23.12ZM310.137 33.962H330.183C329.559 31.986 328.363 30.322 326.595 28.97C324.827 27.618 322.695 26.942 320.199 26.942C317.703 26.942 315.545 27.618 313.725 28.97C311.957 30.322 310.761 31.986 310.137 33.962ZM347.532 17.66H358.842V23.198C361.338 19.194 365.108 17.192 370.152 17.192C371.296 17.192 372.492 17.296 373.74 17.504V29.594C372.076 28.97 370.464 28.658 368.904 28.658C367.032 28.658 364.874 29.308 362.43 30.608C360.038 31.856 358.842 34.274 358.842 37.862V59H347.532V17.66ZM383.149 23.12C387.309 19.012 392.301 16.958 398.125 16.958C403.169 16.958 407.641 18.57 411.541 21.794C415.441 25.018 417.911 29.074 418.951 33.962C419.315 35.522 419.497 37.03 419.497 38.486C419.497 39.89 419.341 41.242 419.029 42.542H387.985C388.609 44.83 389.831 46.598 391.651 47.846C393.471 49.042 395.629 49.64 398.125 49.64C402.077 49.64 405.327 48.47 407.875 46.13L417.703 48.938C416.091 52.162 413.413 54.762 409.669 56.738C405.925 58.662 402.077 59.624 398.125 59.624C392.197 59.624 387.153 57.544 382.993 53.384C378.885 49.172 376.831 44.154 376.831 38.33C376.831 32.35 378.937 27.28 383.149 23.12ZM387.985 33.962H408.031C407.407 31.986 406.211 30.322 404.443 28.97C402.675 27.618 400.543 26.942 398.047 26.942C395.551 26.942 393.393 27.618 391.573 28.97C389.805 30.322 388.609 31.986 387.985 33.962ZM429.348 20.39C432.52 18.102 436.68 16.958 441.828 16.958C447.704 16.958 453.008 18.206 457.74 20.702V31.388C451.396 28.216 446.092 26.63 441.828 26.63C440.008 26.63 438.63 26.942 437.694 27.566C436.758 28.138 436.29 28.866 436.29 29.75C436.29 30.27 436.446 30.738 436.758 31.154C437.122 31.518 437.668 31.856 438.396 32.168C439.176 32.428 439.93 32.636 440.658 32.792C441.386 32.948 442.374 33.182 443.622 33.494C444.922 33.754 446.014 33.988 446.898 34.196C455.53 36.484 459.846 40.774 459.846 47.066C459.846 49.354 459.3 51.356 458.208 53.072C457.168 54.788 455.764 56.114 453.996 57.05C452.28 57.934 450.46 58.584 448.536 59C446.664 59.416 444.688 59.624 442.608 59.624C436.992 59.624 431.454 58.09 425.994 55.022V43.79C428.022 45.194 430.596 46.546 433.716 47.846C436.888 49.146 439.852 49.796 442.608 49.796C446.352 49.796 448.224 48.808 448.224 46.832C448.224 45.74 447.496 44.882 446.04 44.258C444.584 43.582 442.14 42.88 438.708 42.152C433.872 41.112 430.31 39.63 428.022 37.706C425.734 35.782 424.59 33.156 424.59 29.828C424.59 25.824 426.176 22.678 429.348 20.39ZM462.972 17.66H469.992V8.612L481.146 5.414V17.66H493.08V27.41H481.146V45.116C481.146 46.208 481.588 47.118 482.472 47.846C483.356 48.574 484.292 48.99 485.28 49.094C486.32 49.146 486.944 49.172 487.152 49.172C488.92 49.172 491.078 48.678 493.626 47.69V58.61C490.662 59.442 487.906 59.858 485.358 59.858C482.186 59.858 478.832 58.948 475.296 57.128C471.76 55.256 469.992 51.278 469.992 45.194V27.41H462.972V17.66ZM526.573 23.198C530.733 19.038 535.751 16.958 541.627 16.958C547.451 16.958 552.443 19.064 556.603 23.276C560.815 27.436 562.921 32.428 562.921 38.252C562.921 44.128 560.841 49.172 556.681 53.384C552.521 57.544 547.503 59.624 541.627 59.624C535.803 59.624 530.785 57.518 526.573 53.306C522.413 49.094 520.333 44.076 520.333 38.252C520.333 32.428 522.413 27.41 526.573 23.198ZM530.863 38.252C530.863 41.268 531.903 43.868 533.983 46.052C536.063 48.236 538.611 49.328 541.627 49.328C544.643 49.328 547.191 48.236 549.271 46.052C551.351 43.868 552.391 41.268 552.391 38.252C552.391 35.236 551.351 32.662 549.271 30.53C547.191 28.346 544.643 27.254 541.627 27.254C538.611 27.254 536.063 28.346 533.983 30.53C531.903 32.662 530.863 35.236 530.863 38.252ZM568.583 17.66H579.893V23.198C582.389 19.194 586.159 17.192 591.203 17.192C592.347 17.192 593.543 17.296 594.791 17.504V29.594C593.127 28.97 591.515 28.658 589.955 28.658C588.083 28.658 585.925 29.308 583.481 30.608C581.089 31.856 579.893 34.274 579.893 37.862V59H568.583V17.66ZM622.512 17.66H633.822V21.092C636.942 18.388 640.738 17.036 645.21 17.036C650.774 17.036 655.558 19.142 659.562 23.354C663.618 27.566 665.646 32.558 665.646 38.33C665.646 44.31 663.644 49.354 659.64 53.462C655.636 57.57 650.826 59.624 645.21 59.624C640.79 59.624 636.994 58.22 633.822 55.412V75.38H622.512V17.66ZM633.042 38.33C633.042 41.294 634.134 43.894 636.318 46.13C638.502 48.366 641.102 49.484 644.118 49.484C647.238 49.484 649.838 48.392 651.918 46.208C654.05 43.972 655.116 41.346 655.116 38.33C655.116 35.314 654.05 32.714 651.918 30.53C649.838 28.346 647.238 27.254 644.118 27.254C641.102 27.254 638.502 28.372 636.318 30.608C634.134 32.792 633.042 35.366 633.042 38.33ZM672.253 59V4.4H683.563V59H672.253ZM696.52 23.12C700.68 19.012 705.672 16.958 711.496 16.958C716.54 16.958 721.012 18.57 724.912 21.794C728.812 25.018 731.282 29.074 732.322 33.962C732.686 35.522 732.868 37.03 732.868 38.486C732.868 39.89 732.712 41.242 732.4 42.542H701.356C701.98 44.83 703.202 46.598 705.022 47.846C706.842 49.042 709 49.64 711.496 49.64C715.448 49.64 718.698 48.47 721.246 46.13L731.074 48.938C729.462 52.162 726.784 54.762 723.04 56.738C719.296 58.662 715.448 59.624 711.496 59.624C705.568 59.624 700.524 57.544 696.364 53.384C692.256 49.172 690.202 44.154 690.202 38.33C690.202 32.35 692.308 27.28 696.52 23.12ZM701.356 33.962H721.402C720.778 31.986 719.582 30.322 717.814 28.97C716.046 27.618 713.914 26.942 711.418 26.942C708.922 26.942 706.764 27.618 704.944 28.97C703.176 30.322 701.98 31.986 701.356 33.962ZM743.587 23.12C747.591 19.012 752.401 16.958 758.017 16.958C762.437 16.958 766.233 18.362 769.405 21.17V17.66H780.715V59H769.405V55.568C766.285 58.272 762.489 59.624 758.017 59.624C752.453 59.624 747.643 57.518 743.587 53.306C739.583 49.094 737.581 44.102 737.581 38.33C737.581 32.35 739.583 27.28 743.587 23.12ZM748.111 38.33C748.111 41.346 749.151 43.946 751.231 46.13C753.363 48.314 755.989 49.406 759.109 49.406C762.125 49.406 764.725 48.314 766.909 46.13C769.093 43.894 770.185 41.294 770.185 38.33C770.185 35.366 769.093 32.766 766.909 30.53C764.725 28.294 762.125 27.176 759.109 27.176C755.989 27.176 753.363 28.294 751.231 30.53C749.151 32.714 748.111 35.314 748.111 38.33ZM792.46 20.39C795.632 18.102 799.792 16.958 804.94 16.958C810.816 16.958 816.12 18.206 820.852 20.702V31.388C814.508 28.216 809.204 26.63 804.94 26.63C803.12 26.63 801.742 26.942 800.806 27.566C799.87 28.138 799.402 28.866 799.402 29.75C799.402 30.27 799.558 30.738 799.87 31.154C800.234 31.518 800.78 31.856 801.508 32.168C802.288 32.428 803.042 32.636 803.77 32.792C804.498 32.948 805.486 33.182 806.734 33.494C808.034 33.754 809.126 33.988 810.01 34.196C818.642 36.484 822.958 40.774 822.958 47.066C822.958 49.354 822.412 51.356 821.32 53.072C820.28 54.788 818.876 56.114 817.108 57.05C815.392 57.934 813.572 58.584 811.648 59C809.776 59.416 807.8 59.624 805.72 59.624C800.104 59.624 794.566 58.09 789.106 55.022V43.79C791.134 45.194 793.708 46.546 796.828 47.846C800 49.146 802.964 49.796 805.72 49.796C809.464 49.796 811.336 48.808 811.336 46.832C811.336 45.74 810.608 44.882 809.152 44.258C807.696 43.582 805.252 42.88 801.82 42.152C796.984 41.112 793.422 39.63 791.134 37.706C788.846 35.782 787.702 33.156 787.702 29.828C787.702 25.824 789.288 22.678 792.46 20.39ZM828.405 17.66H839.715V40.436C839.715 43.036 840.495 45.142 842.055 46.754C843.667 48.366 845.617 49.172 847.905 49.172C850.661 49.172 852.871 48.21 854.535 46.286C856.251 44.31 857.109 41.892 857.109 39.032V17.66H868.419V59H857.109V55.178C853.989 58.194 850.141 59.702 845.565 59.702C840.885 59.702 836.855 58.22 833.475 55.256C830.095 52.24 828.405 48.262 828.405 43.322V17.66ZM876.622 17.66H887.932V23.198C890.428 19.194 894.198 17.192 899.242 17.192C900.386 17.192 901.582 17.296 902.83 17.504V29.594C901.166 28.97 899.554 28.658 897.994 28.658C896.122 28.658 893.964 29.308 891.52 30.608C889.128 31.856 887.932 34.274 887.932 37.862V59H876.622V17.66ZM912.238 23.12C916.398 19.012 921.39 16.958 927.214 16.958C932.258 16.958 936.73 18.57 940.63 21.794C944.53 25.018 947 29.074 948.04 33.962C948.404 35.522 948.586 37.03 948.586 38.486C948.586 39.89 948.43 41.242 948.118 42.542H917.074C917.698 44.83 918.92 46.598 920.74 47.846C922.56 49.042 924.718 49.64 927.214 49.64C931.166 49.64 934.416 48.47 936.964 46.13L946.792 48.938C945.18 52.162 942.502 54.762 938.758 56.738C935.014 58.662 931.166 59.624 927.214 59.624C921.286 59.624 916.242 57.544 912.082 53.384C907.974 49.172 905.92 44.154 905.92 38.33C905.92 32.35 908.026 27.28 912.238 23.12ZM917.074 33.962H937.12C936.496 31.986 935.3 30.322 933.532 28.97C931.764 27.618 929.632 26.942 927.136 26.942C924.64 26.942 922.482 27.618 920.662 28.97C918.894 30.322 917.698 31.986 917.074 33.962ZM184.76 113.66V155H173.45V113.66H184.76ZM174.308 98.918C175.66 97.618 177.298 96.968 179.222 96.968C181.146 96.968 182.784 97.618 184.136 98.918C185.488 100.218 186.164 101.804 186.164 103.676C186.164 105.548 185.488 107.108 184.136 108.356C182.784 109.656 181.146 110.306 179.222 110.306C177.298 110.306 175.66 109.682 174.308 108.434C172.956 107.134 172.28 105.548 172.28 103.676C172.28 101.804 172.956 100.218 174.308 98.918ZM192.941 113.66H204.251V117.482C207.371 114.466 211.219 112.958 215.795 112.958C220.475 112.958 224.505 114.466 227.885 117.482C231.265 120.446 232.955 124.398 232.955 129.338V155H221.645V132.224C221.645 129.624 220.839 127.518 219.227 125.906C217.667 124.294 215.743 123.488 213.455 123.488C210.699 123.488 208.463 124.476 206.747 126.452C205.083 128.376 204.251 130.768 204.251 133.628V155H192.941V113.66ZM266.713 119.12C270.717 115.012 275.527 112.958 281.143 112.958C285.563 112.958 289.359 114.362 292.531 117.17V100.4H303.841V155H292.531V151.568C289.411 154.272 285.615 155.624 281.143 155.624C275.579 155.624 270.769 153.518 266.713 149.306C262.709 145.094 260.707 140.102 260.707 134.33C260.707 128.35 262.709 123.28 266.713 119.12ZM271.237 134.33C271.237 137.346 272.277 139.946 274.357 142.13C276.489 144.314 279.115 145.406 282.235 145.406C285.251 145.406 287.851 144.314 290.035 142.13C292.219 139.894 293.311 137.294 293.311 134.33C293.311 131.366 292.219 128.766 290.035 126.53C287.851 124.294 285.251 123.176 282.235 123.176C279.115 123.176 276.489 124.294 274.357 126.53C272.277 128.714 271.237 131.314 271.237 134.33ZM316.834 119.198C320.994 115.038 326.012 112.958 331.888 112.958C337.712 112.958 342.704 115.064 346.864 119.276C351.076 123.436 353.182 128.428 353.182 134.252C353.182 140.128 351.102 145.172 346.942 149.384C342.782 153.544 337.764 155.624 331.888 155.624C326.064 155.624 321.046 153.518 316.834 149.306C312.674 145.094 310.594 140.076 310.594 134.252C310.594 128.428 312.674 123.41 316.834 119.198ZM321.124 134.252C321.124 137.268 322.164 139.868 324.244 142.052C326.324 144.236 328.872 145.328 331.888 145.328C334.904 145.328 337.452 144.236 339.532 142.052C341.612 139.868 342.652 137.268 342.652 134.252C342.652 131.236 341.612 128.662 339.532 126.53C337.452 124.346 334.904 123.254 331.888 123.254C328.872 123.254 326.324 124.346 324.244 126.53C322.164 128.662 321.124 131.236 321.124 134.252ZM370.924 113.66V155H359.614V113.66H370.924ZM360.472 98.918C361.824 97.618 363.462 96.968 365.386 96.968C367.31 96.968 368.948 97.618 370.3 98.918C371.652 100.218 372.328 101.804 372.328 103.676C372.328 105.548 371.652 107.108 370.3 108.356C368.948 109.656 367.31 110.306 365.386 110.306C363.462 110.306 361.824 109.682 360.472 108.434C359.12 107.134 358.444 105.548 358.444 103.676C358.444 101.804 359.12 100.218 360.472 98.918ZM379.105 113.66H390.415V117.482C393.535 114.466 397.383 112.958 401.959 112.958C406.639 112.958 410.669 114.466 414.049 117.482C417.429 120.446 419.119 124.398 419.119 129.338V155H407.809V132.224C407.809 129.624 407.003 127.518 405.391 125.906C403.831 124.294 401.907 123.488 399.619 123.488C396.863 123.488 394.627 124.476 392.911 126.452C391.247 128.376 390.415 130.768 390.415 133.628V155H379.105V113.66ZM425.009 133.784C425.009 127.804 426.933 122.838 430.781 118.886C434.681 114.934 439.413 112.958 444.977 112.958C445.133 112.958 445.289 112.958 445.445 112.958C449.917 113.01 453.713 114.44 456.833 117.248V113.66H468.143V152.894C468.143 158.666 466.193 163.45 462.293 167.246C458.445 171.094 453.531 173.018 447.551 173.018C442.663 173.018 438.295 171.64 434.447 168.884C430.599 166.128 428.051 162.124 426.803 156.872H438.113C439.621 160.616 442.715 162.488 447.395 162.488C450.411 162.488 452.725 161.656 454.337 159.992C456.001 158.328 456.833 155.962 456.833 152.894V150.788C453.765 153.336 449.969 154.61 445.445 154.61C439.517 154.61 434.629 152.608 430.781 148.604C426.933 144.6 425.009 139.66 425.009 133.784ZM435.539 133.784C435.539 136.748 436.631 139.27 438.815 141.35C440.947 143.482 443.521 144.548 446.537 144.548C449.553 144.548 452.153 143.508 454.337 141.428C456.521 139.296 457.613 136.748 457.613 133.784C457.613 130.82 456.521 128.298 454.337 126.218C452.205 124.086 449.605 123.02 446.537 123.02C443.521 123.02 440.921 124.086 438.737 126.218C436.605 128.298 435.539 130.82 435.539 133.784ZM495.84 113.66H502.86V104.612L514.014 101.414V113.66H525.948V123.41H514.014V141.116C514.014 142.208 514.456 143.118 515.34 143.846C516.224 144.574 517.16 144.99 518.148 145.094C519.188 145.146 519.812 145.172 520.02 145.172C521.788 145.172 523.946 144.678 526.494 143.69V154.61C523.53 155.442 520.774 155.858 518.226 155.858C515.054 155.858 511.7 154.948 508.164 153.128C504.628 151.256 502.86 147.278 502.86 141.194V123.41H495.84V113.66ZM533.515 100.4H544.825V117.482C547.945 114.466 551.793 112.958 556.369 112.958C561.049 112.958 565.079 114.466 568.459 117.482C571.839 120.446 573.529 124.398 573.529 129.338V155H562.219V132.224C562.219 129.624 561.413 127.518 559.801 125.906C558.241 124.294 556.317 123.488 554.029 123.488C551.273 123.488 549.037 124.476 547.321 126.452C545.657 128.376 544.825 130.768 544.825 133.628V155H533.515V100.4ZM593.041 113.66V155H581.731V113.66H593.041ZM582.589 98.918C583.941 97.618 585.579 96.968 587.503 96.968C589.427 96.968 591.065 97.618 592.417 98.918C593.769 100.218 594.445 101.804 594.445 103.676C594.445 105.548 593.769 107.108 592.417 108.356C591.065 109.656 589.427 110.306 587.503 110.306C585.579 110.306 583.941 109.682 582.589 108.434C581.237 107.134 580.561 105.548 580.561 103.676C580.561 101.804 581.237 100.218 582.589 98.918ZM601.222 113.66H612.532V117.482C615.652 114.466 619.5 112.958 624.076 112.958C628.756 112.958 632.786 114.466 636.166 117.482C639.546 120.446 641.236 124.398 641.236 129.338V155H629.926V132.224C629.926 129.624 629.12 127.518 627.508 125.906C625.948 124.294 624.024 123.488 621.736 123.488C618.98 123.488 616.744 124.476 615.028 126.452C613.364 128.376 612.532 130.768 612.532 133.628V155H601.222V113.66ZM647.126 133.784C647.126 127.804 649.05 122.838 652.898 118.886C656.798 114.934 661.53 112.958 667.094 112.958C667.25 112.958 667.406 112.958 667.562 112.958C672.034 113.01 675.83 114.44 678.95 117.248V113.66H690.26V152.894C690.26 158.666 688.31 163.45 684.41 167.246C680.562 171.094 675.648 173.018 669.668 173.018C664.78 173.018 660.412 171.64 656.564 168.884C652.716 166.128 650.168 162.124 648.92 156.872H660.23C661.738 160.616 664.832 162.488 669.512 162.488C672.528 162.488 674.842 161.656 676.454 159.992C678.118 158.328 678.95 155.962 678.95 152.894V150.788C675.882 153.336 672.086 154.61 667.562 154.61C661.634 154.61 656.746 152.608 652.898 148.604C649.05 144.6 647.126 139.66 647.126 133.784ZM657.656 133.784C657.656 136.748 658.748 139.27 660.932 141.35C663.064 143.482 665.638 144.548 668.654 144.548C671.67 144.548 674.27 143.508 676.454 141.428C678.638 139.296 679.73 136.748 679.73 133.784C679.73 130.82 678.638 128.298 676.454 126.218C674.322 124.086 671.722 123.02 668.654 123.02C665.638 123.02 663.038 124.086 660.854 126.218C658.722 128.298 657.656 130.82 657.656 133.784ZM701.625 116.39C704.797 114.102 708.957 112.958 714.105 112.958C719.981 112.958 725.285 114.206 730.017 116.702V127.388C723.673 124.216 718.369 122.63 714.105 122.63C712.285 122.63 710.907 122.942 709.971 123.566C709.035 124.138 708.567 124.866 708.567 125.75C708.567 126.27 708.723 126.738 709.035 127.154C709.399 127.518 709.945 127.856 710.673 128.168C711.453 128.428 712.207 128.636 712.935 128.792C713.663 128.948 714.651 129.182 715.899 129.494C717.199 129.754 718.291 129.988 719.175 130.196C727.807 132.484 732.123 136.774 732.123 143.066C732.123 145.354 731.577 147.356 730.485 149.072C729.445 150.788 728.041 152.114 726.273 153.05C724.557 153.934 722.737 154.584 720.813 155C718.941 155.416 716.965 155.624 714.885 155.624C709.269 155.624 703.731 154.09 698.271 151.022V139.79C700.299 141.194 702.873 142.546 705.993 143.846C709.165 145.146 712.129 145.796 714.885 145.796C718.629 145.796 720.501 144.808 720.501 142.832C720.501 141.74 719.773 140.882 718.317 140.258C716.861 139.582 714.417 138.88 710.985 138.152C706.149 137.112 702.587 135.63 700.299 133.706C698.011 131.782 696.867 129.156 696.867 125.828C696.867 121.824 698.453 118.678 701.625 116.39ZM737.648 118.106C737.7 112.386 739.598 107.888 743.342 104.612C747.138 101.336 751.714 99.698 757.07 99.698C762.166 99.698 766.534 101.31 770.174 104.534C773.866 107.758 775.712 111.762 775.712 116.546C775.712 118.782 775.244 120.706 774.308 122.318C773.372 123.93 772.228 125.204 770.876 126.14C769.576 127.076 768.25 127.934 766.898 128.714C765.546 129.494 764.376 130.43 763.388 131.522C762.452 132.562 761.958 133.784 761.906 135.188L761.828 137.84H750.908V132.692C750.908 130.508 751.61 128.584 753.014 126.92C754.47 125.256 756.056 124.008 757.772 123.176C759.488 122.292 761.048 121.278 762.452 120.134C763.908 118.938 764.636 117.742 764.636 116.546C764.636 114.83 763.986 113.374 762.686 112.178C761.386 110.93 759.566 110.28 757.226 110.228C757.122 110.228 757.044 110.228 756.992 110.228C754.6 110.228 752.676 110.956 751.22 112.412C749.816 113.816 749.062 115.714 748.958 118.106H737.648ZM752.078 143.768C753.378 142.468 754.99 141.818 756.914 141.818C758.838 141.818 760.45 142.494 761.75 143.846C763.102 145.146 763.778 146.758 763.778 148.682C763.778 150.606 763.128 152.218 761.828 153.518C760.476 154.818 758.838 155.468 756.914 155.468C754.99 155.468 753.352 154.818 752 153.518C750.7 152.218 750.05 150.606 750.05 148.682C750.05 146.758 750.726 145.12 752.078 143.768Z"/><path stroke="#00CC8D" stroke-linecap="round" stroke-width="10" d="M190 61C252.771 86.3057 320.801 85.9998 387.545 85.9998C400.625 85.9998 413.014 84.0006 425.965 82.5948C432.57 81.878 438.917 79.1102 445.47 78.7866C451.172 78.505 456.117 75.779 461.709 75.516C469.6 75.1449 477.484 72.3118 484.753 69.8709C487.468 68.959 490.107 68.6683 492.872 68.2132C494.206 67.9937 495.426 66.2273 497 65.8387"/></svg>