<svg xmlns="http://www.w3.org/2000/svg" width="961" height="181" fill="none" viewBox="0 0 961 181"><path fill="#000" d="M77.9965 3.8H115.485V13.04H101.955V50H92.0545V13.04H77.9965V3.8ZM118.432 15.02H128.002V19.706C130.114 16.318 133.304 14.624 137.572 14.624C138.54 14.624 139.552 14.712 140.608 14.888V25.118C139.2 24.59 137.836 24.326 136.516 24.326C134.932 24.326 133.106 24.876 131.038 25.976C129.014 27.032 128.002 29.078 128.002 32.114V50H118.432V15.02ZM148.305 19.706C151.825 16.186 156.071 14.426 161.043 14.426C165.971 14.426 170.195 16.208 173.715 19.772C177.279 23.292 179.061 27.516 179.061 32.444C179.061 37.416 177.301 41.684 173.781 45.248C170.261 48.768 166.015 50.528 161.043 50.528C156.115 50.528 151.869 48.746 148.305 45.182C144.785 41.618 143.025 37.372 143.025 32.444C143.025 27.516 144.785 23.27 148.305 19.706ZM151.935 32.444C151.935 34.996 152.815 37.196 154.575 39.044C156.335 40.892 158.491 41.816 161.043 41.816C163.595 41.816 165.751 40.892 167.511 39.044C169.271 37.196 170.151 34.996 170.151 32.444C170.151 29.892 169.271 27.714 167.511 25.91C165.751 24.062 163.595 23.138 161.043 23.138C158.491 23.138 156.335 24.062 154.575 25.91C152.815 27.714 151.935 29.892 151.935 32.444ZM184.174 15.02H193.744V34.292C193.744 36.492 194.404 38.274 195.724 39.638C197.088 41.002 198.738 41.684 200.674 41.684C203.006 41.684 204.876 40.87 206.284 39.242C207.736 37.57 208.462 35.524 208.462 33.104V15.02H218.032V50H208.462V46.766C205.822 49.318 202.566 50.594 198.694 50.594C194.734 50.594 191.324 49.34 188.464 46.832C185.604 44.28 184.174 40.914 184.174 36.734V15.02ZM225.303 3.8H234.873V18.056C237.513 15.68 240.725 14.47 244.509 14.426C244.553 14.426 244.619 14.426 244.707 14.426C249.503 14.426 253.551 16.164 256.851 19.64C260.151 23.116 261.801 27.406 261.801 32.51C261.801 37.482 260.151 41.728 256.851 45.248C253.595 48.768 249.481 50.528 244.509 50.528C240.725 50.528 237.513 49.384 234.873 47.096V50H225.303V3.8ZM236.985 39.044C238.833 40.936 241.033 41.882 243.585 41.882C246.093 41.882 248.271 40.958 250.119 39.11C251.967 37.218 252.891 35.018 252.891 32.51C252.891 29.958 251.967 27.758 250.119 25.91C248.315 24.018 246.137 23.072 243.585 23.072C241.033 23.072 238.833 24.018 236.985 25.91C235.137 27.802 234.213 30.002 234.213 32.51C234.213 35.018 235.137 37.196 236.985 39.044ZM267.383 50V3.8H276.953V50H267.383ZM287.917 19.64C291.437 16.164 295.661 14.426 300.589 14.426C304.857 14.426 308.641 15.79 311.941 18.518C315.241 21.246 317.331 24.678 318.211 28.814C318.519 30.134 318.673 31.41 318.673 32.642C318.673 33.83 318.541 34.974 318.277 36.074H292.009C292.537 38.01 293.571 39.506 295.111 40.562C296.651 41.574 298.477 42.08 300.589 42.08C303.933 42.08 306.683 41.09 308.839 39.11L317.155 41.486C315.791 44.214 313.525 46.414 310.357 48.086C307.189 49.714 303.933 50.528 300.589 50.528C295.573 50.528 291.305 48.768 287.785 45.248C284.309 41.684 282.571 37.438 282.571 32.51C282.571 27.45 284.353 23.16 287.917 19.64ZM292.009 28.814H308.971C308.443 27.142 307.431 25.734 305.935 24.59C304.439 23.446 302.635 22.874 300.523 22.874C298.411 22.874 296.585 23.446 295.045 24.59C293.549 25.734 292.537 27.142 292.009 28.814ZM340.821 15.02H346.431V13.7C346.431 11.148 347.025 8.992 348.213 7.232C349.445 5.472 351.029 4.262 352.965 3.602C354.901 2.898 356.947 2.546 359.103 2.546C359.147 2.546 359.741 2.568 360.885 2.612C362.073 2.612 363.767 2.964 365.967 3.668V10.73C364.295 10.202 363.019 9.916 362.139 9.872C361.303 9.784 360.797 9.74 360.621 9.74C359.389 9.74 358.245 10.026 357.189 10.598C356.133 11.17 355.605 12.204 355.605 13.7V15.02H365.307V23.27H356.001L356.067 50H346.629L346.431 23.27H340.821V15.02ZM374.02 19.64C377.408 16.164 381.478 14.426 386.23 14.426C389.97 14.426 393.182 15.614 395.866 17.99V15.02H405.436V50H395.866V47.096C393.226 49.384 390.014 50.528 386.23 50.528C381.522 50.528 377.452 48.746 374.02 45.182C370.632 41.618 368.938 37.394 368.938 32.51C368.938 27.45 370.632 23.16 374.02 19.64ZM377.848 32.51C377.848 35.062 378.728 37.262 380.488 39.11C382.292 40.958 384.514 41.882 387.154 41.882C389.706 41.882 391.906 40.958 393.754 39.11C395.602 37.218 396.526 35.018 396.526 32.51C396.526 30.002 395.602 27.802 393.754 25.91C391.906 24.018 389.706 23.072 387.154 23.072C384.514 23.072 382.292 24.018 380.488 25.91C378.728 27.758 377.848 29.958 377.848 32.51ZM412.338 50V3.8H421.908V50H412.338ZM428.516 50V3.8H438.086V50H428.516ZM454.594 15.02V50H445.024V15.02H454.594ZM445.75 2.546C446.894 1.446 448.28 0.895999 449.908 0.895999C451.536 0.895999 452.922 1.446 454.066 2.546C455.21 3.646 455.782 4.988 455.782 6.572C455.782 8.156 455.21 9.476 454.066 10.532C452.922 11.632 451.536 12.182 449.908 12.182C448.28 12.182 446.894 11.654 445.75 10.598C444.606 9.498 444.034 8.156 444.034 6.572C444.034 4.988 444.606 3.646 445.75 2.546ZM461.516 15.02H471.086V18.254C473.726 15.702 476.982 14.426 480.854 14.426C484.814 14.426 488.224 15.702 491.084 18.254C493.944 20.762 495.374 24.106 495.374 28.286V50H485.804V30.728C485.804 28.528 485.122 26.746 483.758 25.382C482.438 24.018 480.81 23.336 478.874 23.336C476.542 23.336 474.65 24.172 473.198 25.844C471.79 27.472 471.086 29.496 471.086 31.916V50H461.516V15.02ZM500.358 32.048C500.358 26.988 501.986 22.786 505.242 19.442C508.542 16.098 512.546 14.426 517.254 14.426C517.386 14.426 517.518 14.426 517.65 14.426C521.434 14.47 524.646 15.68 527.286 18.056V15.02H536.856V48.218C536.856 53.102 535.206 57.15 531.906 60.362C528.65 63.618 524.492 65.246 519.432 65.246C515.296 65.246 511.6 64.08 508.344 61.748C505.088 59.416 502.932 56.028 501.876 51.584H511.446C512.722 54.752 515.34 56.336 519.3 56.336C521.852 56.336 523.81 55.632 525.174 54.224C526.582 52.816 527.286 50.814 527.286 48.218V46.436C524.69 48.592 521.478 49.67 517.65 49.67C512.634 49.67 508.498 47.976 505.242 44.588C501.986 41.2 500.358 37.02 500.358 32.048ZM509.268 32.048C509.268 34.556 510.192 36.69 512.04 38.45C513.844 40.254 516.022 41.156 518.574 41.156C521.126 41.156 523.326 40.276 525.174 38.516C527.022 36.712 527.946 34.556 527.946 32.048C527.946 29.54 527.022 27.406 525.174 25.646C523.37 23.842 521.17 22.94 518.574 22.94C516.022 22.94 513.822 23.842 511.974 25.646C510.17 27.406 509.268 29.54 509.268 32.048ZM565.704 19.706C569.224 16.186 573.47 14.426 578.442 14.426C583.37 14.426 587.594 16.208 591.114 19.772C594.678 23.292 596.46 27.516 596.46 32.444C596.46 37.416 594.7 41.684 591.18 45.248C587.66 48.768 583.414 50.528 578.442 50.528C573.514 50.528 569.268 48.746 565.704 45.182C562.184 41.618 560.424 37.372 560.424 32.444C560.424 27.516 562.184 23.27 565.704 19.706ZM569.334 32.444C569.334 34.996 570.214 37.196 571.974 39.044C573.734 40.892 575.89 41.816 578.442 41.816C580.994 41.816 583.15 40.892 584.91 39.044C586.67 37.196 587.55 34.996 587.55 32.444C587.55 29.892 586.67 27.714 584.91 25.91C583.15 24.062 580.994 23.138 578.442 23.138C575.89 23.138 573.734 24.062 571.974 25.91C570.214 27.714 569.334 29.892 569.334 32.444ZM601.25 15.02H610.82V19.706C612.932 16.318 616.122 14.624 620.39 14.624C621.358 14.624 622.37 14.712 623.426 14.888V25.118C622.018 24.59 620.654 24.326 619.334 24.326C617.75 24.326 615.924 24.876 613.856 25.976C611.832 27.032 610.82 29.078 610.82 32.114V50H601.25V15.02ZM649.919 17.33C652.603 15.394 656.123 14.426 660.479 14.426C665.451 14.426 669.939 15.482 673.943 17.594V26.636C668.575 23.952 664.087 22.61 660.479 22.61C658.939 22.61 657.773 22.874 656.981 23.402C656.189 23.886 655.793 24.502 655.793 25.25C655.793 25.69 655.925 26.086 656.189 26.438C656.497 26.746 656.959 27.032 657.575 27.296C658.235 27.516 658.873 27.692 659.489 27.824C660.105 27.956 660.941 28.154 661.997 28.418C663.097 28.638 664.021 28.836 664.769 29.012C672.073 30.948 675.725 34.578 675.725 39.902C675.725 41.838 675.263 43.532 674.339 44.984C673.459 46.436 672.271 47.558 670.775 48.35C669.323 49.098 667.783 49.648 666.155 50C664.571 50.352 662.899 50.528 661.139 50.528C656.387 50.528 651.701 49.23 647.081 46.634V37.13C648.797 38.318 650.975 39.462 653.615 40.562C656.299 41.662 658.807 42.212 661.139 42.212C664.307 42.212 665.891 41.376 665.891 39.704C665.891 38.78 665.275 38.054 664.043 37.526C662.811 36.954 660.743 36.36 657.839 35.744C653.747 34.864 650.733 33.61 648.797 31.982C646.861 30.354 645.893 28.132 645.893 25.316C645.893 21.928 647.235 19.266 649.919 17.33ZM678.37 15.02H684.31V7.364L693.748 4.658V15.02H703.846V23.27H693.748V38.252C693.748 39.176 694.122 39.946 694.87 40.562C695.618 41.178 696.41 41.53 697.246 41.618C698.126 41.662 698.654 41.684 698.83 41.684C700.326 41.684 702.152 41.266 704.308 40.43V49.67C701.8 50.374 699.468 50.726 697.312 50.726C694.628 50.726 691.79 49.956 688.798 48.416C685.806 46.832 684.31 43.466 684.31 38.318V23.27H678.37V15.02ZM712.721 19.64C716.109 16.164 720.179 14.426 724.931 14.426C728.671 14.426 731.883 15.614 734.567 17.99V15.02H744.137V50H734.567V47.096C731.927 49.384 728.715 50.528 724.931 50.528C720.223 50.528 716.153 48.746 712.721 45.182C709.333 41.618 707.639 37.394 707.639 32.51C707.639 27.45 709.333 23.16 712.721 19.64ZM716.549 32.51C716.549 35.062 717.429 37.262 719.189 39.11C720.993 40.958 723.215 41.882 725.855 41.882C728.407 41.882 730.607 40.958 732.455 39.11C734.303 37.218 735.227 35.018 735.227 32.51C735.227 30.002 734.303 27.802 732.455 25.91C730.607 24.018 728.407 23.072 725.855 23.072C723.215 23.072 720.993 24.018 719.189 25.91C717.429 27.758 716.549 29.958 716.549 32.51ZM748.399 15.02H758.563L767.671 38.582L776.317 15.02H786.481L767.143 63.86H757.243L762.787 49.802L748.399 15.02ZM800.771 15.02V50H791.201V15.02H800.771ZM791.927 2.546C793.071 1.446 794.457 0.895999 796.085 0.895999C797.713 0.895999 799.099 1.446 800.243 2.546C801.387 3.646 801.959 4.988 801.959 6.572C801.959 8.156 801.387 9.476 800.243 10.532C799.099 11.632 797.713 12.182 796.085 12.182C794.457 12.182 793.071 11.654 791.927 10.598C790.783 9.498 790.211 8.156 790.211 6.572C790.211 4.988 790.783 3.646 791.927 2.546ZM807.694 15.02H817.264V18.254C819.904 15.702 823.16 14.426 827.032 14.426C830.992 14.426 834.402 15.702 837.262 18.254C840.122 20.762 841.552 24.106 841.552 28.286V50H831.982V30.728C831.982 28.528 831.3 26.746 829.936 25.382C828.616 24.018 826.988 23.336 825.052 23.336C822.72 23.336 820.828 24.172 819.376 25.844C817.968 27.472 817.264 29.496 817.264 31.916V50H807.694V15.02ZM846.536 32.048C846.536 26.988 848.164 22.786 851.42 19.442C854.72 16.098 858.724 14.426 863.432 14.426C863.564 14.426 863.696 14.426 863.828 14.426C867.612 14.47 870.824 15.68 873.464 18.056V15.02H883.034V48.218C883.034 53.102 881.384 57.15 878.084 60.362C874.828 63.618 870.67 65.246 865.61 65.246C861.474 65.246 857.778 64.08 854.522 61.748C851.266 59.416 849.11 56.028 848.054 51.584H857.624C858.9 54.752 861.518 56.336 865.478 56.336C868.03 56.336 869.988 55.632 871.352 54.224C872.76 52.816 873.464 50.814 873.464 48.218V46.436C870.868 48.592 867.656 49.67 863.828 49.67C858.812 49.67 854.676 47.976 851.42 44.588C848.164 41.2 846.536 37.02 846.536 32.048ZM855.446 32.048C855.446 34.556 856.37 36.69 858.218 38.45C860.022 40.254 862.2 41.156 864.752 41.156C867.304 41.156 869.504 40.276 871.352 38.516C873.2 36.712 874.124 34.556 874.124 32.048C874.124 29.54 873.2 27.406 871.352 25.646C869.548 23.842 867.348 22.94 864.752 22.94C862.2 22.94 860 23.842 858.152 25.646C856.348 27.406 855.446 29.54 855.446 32.048ZM5.767 101.64C9.155 98.164 13.225 96.426 17.977 96.426C21.717 96.426 24.929 97.614 27.613 99.99V97.02H37.183V132H27.613V129.096C24.973 131.384 21.761 132.528 17.977 132.528C13.269 132.528 9.199 130.746 5.767 127.182C2.379 123.618 0.685 119.394 0.685 114.51C0.685 109.45 2.379 105.16 5.767 101.64ZM9.595 114.51C9.595 117.062 10.475 119.262 12.235 121.11C14.039 122.958 16.261 123.882 18.901 123.882C21.453 123.882 23.653 122.958 25.501 121.11C27.349 119.218 28.273 117.018 28.273 114.51C28.273 112.002 27.349 109.802 25.501 107.91C23.653 106.018 21.453 105.072 18.901 105.072C16.261 105.072 14.039 106.018 12.235 107.91C10.475 109.758 9.595 111.958 9.595 114.51ZM47.1212 99.33C49.8052 97.394 53.3252 96.426 57.6812 96.426C62.6532 96.426 67.1412 97.482 71.1452 99.594V108.636C65.7772 105.952 61.2892 104.61 57.6812 104.61C56.1412 104.61 54.9752 104.874 54.1832 105.402C53.3912 105.886 52.9952 106.502 52.9952 107.25C52.9952 107.69 53.1272 108.086 53.3912 108.438C53.6992 108.746 54.1612 109.032 54.7772 109.296C55.4372 109.516 56.0752 109.692 56.6912 109.824C57.3072 109.956 58.1432 110.154 59.1992 110.418C60.2992 110.638 61.2232 110.836 61.9712 111.012C69.2752 112.948 72.9272 116.578 72.9272 121.902C72.9272 123.838 72.4652 125.532 71.5412 126.984C70.6612 128.436 69.4732 129.558 67.9772 130.35C66.5252 131.098 64.9852 131.648 63.3572 132C61.7732 132.352 60.1012 132.528 58.3412 132.528C53.5892 132.528 48.9032 131.23 44.2832 128.634V119.13C45.9992 120.318 48.1772 121.462 50.8172 122.562C53.5012 123.662 56.0092 124.212 58.3412 124.212C61.5092 124.212 63.0932 123.376 63.0932 121.704C63.0932 120.78 62.4772 120.054 61.2452 119.526C60.0132 118.954 57.9452 118.36 55.0412 117.744C50.9492 116.864 47.9352 115.61 45.9992 113.982C44.0632 112.354 43.0952 110.132 43.0952 107.316C43.0952 103.928 44.4372 101.266 47.1212 99.33ZM77.5363 132V85.8H87.1063V132H77.5363ZM98.0701 101.64C101.59 98.164 105.814 96.426 110.742 96.426C115.01 96.426 118.794 97.79 122.094 100.518C125.394 103.246 127.484 106.678 128.364 110.814C128.672 112.134 128.826 113.41 128.826 114.642C128.826 115.83 128.694 116.974 128.43 118.074H102.162C102.69 120.01 103.724 121.506 105.264 122.562C106.804 123.574 108.63 124.08 110.742 124.08C114.086 124.08 116.836 123.09 118.992 121.11L127.308 123.486C125.944 126.214 123.678 128.414 120.51 130.086C117.342 131.714 114.086 132.528 110.742 132.528C105.726 132.528 101.458 130.768 97.9381 127.248C94.4621 123.684 92.7241 119.438 92.7241 114.51C92.7241 109.45 94.5061 105.16 98.0701 101.64ZM102.162 110.814H119.124C118.596 109.142 117.584 107.734 116.088 106.59C114.592 105.446 112.788 104.874 110.676 104.874C108.564 104.874 106.738 105.446 105.198 106.59C103.702 107.734 102.69 109.142 102.162 110.814ZM138.16 101.64C141.68 98.164 145.904 96.426 150.832 96.426C155.1 96.426 158.884 97.79 162.184 100.518C165.484 103.246 167.574 106.678 168.454 110.814C168.762 112.134 168.916 113.41 168.916 114.642C168.916 115.83 168.784 116.974 168.52 118.074H142.252C142.78 120.01 143.814 121.506 145.354 122.562C146.894 123.574 148.72 124.08 150.832 124.08C154.176 124.08 156.926 123.09 159.082 121.11L167.398 123.486C166.034 126.214 163.768 128.414 160.6 130.086C157.432 131.714 154.176 132.528 150.832 132.528C145.816 132.528 141.548 130.768 138.028 127.248C134.552 123.684 132.814 119.438 132.814 114.51C132.814 109.45 134.596 105.16 138.16 101.64ZM142.252 110.814H159.214C158.686 109.142 157.674 107.734 156.178 106.59C154.682 105.446 152.878 104.874 150.766 104.874C148.654 104.874 146.828 105.446 145.288 106.59C143.792 107.734 142.78 109.142 142.252 110.814ZM173.894 97.02H183.464V99.924C186.104 97.636 189.316 96.492 193.1 96.492C197.808 96.492 201.856 98.274 205.244 101.838C208.676 105.402 210.392 109.626 210.392 114.51C210.392 119.57 208.698 123.838 205.31 127.314C201.922 130.79 197.852 132.528 193.1 132.528C189.36 132.528 186.148 131.34 183.464 128.964V145.86H173.894V97.02ZM182.804 114.51C182.804 117.018 183.728 119.218 185.576 121.11C187.424 123.002 189.624 123.948 192.176 123.948C194.816 123.948 197.016 123.024 198.776 121.176C200.58 119.284 201.482 117.062 201.482 114.51C201.482 111.958 200.58 109.758 198.776 107.91C197.016 106.062 194.816 105.138 192.176 105.138C189.624 105.138 187.424 106.084 185.576 107.976C183.728 109.824 182.804 112.002 182.804 114.51ZM214.017 139.92L217.383 121.77H226.689L221.211 139.92H214.017ZM254.621 101.706C258.141 98.186 262.387 96.426 267.359 96.426C272.287 96.426 276.511 98.208 280.031 101.772C283.595 105.292 285.377 109.516 285.377 114.444C285.377 119.416 283.617 123.684 280.097 127.248C276.577 130.768 272.331 132.528 267.359 132.528C262.431 132.528 258.185 130.746 254.621 127.182C251.101 123.618 249.341 119.372 249.341 114.444C249.341 109.516 251.101 105.27 254.621 101.706ZM258.251 114.444C258.251 116.996 259.131 119.196 260.891 121.044C262.651 122.892 264.807 123.816 267.359 123.816C269.911 123.816 272.067 122.892 273.827 121.044C275.587 119.196 276.467 116.996 276.467 114.444C276.467 111.892 275.587 109.714 273.827 107.91C272.067 106.062 269.911 105.138 267.359 105.138C264.807 105.138 262.651 106.062 260.891 107.91C259.131 109.714 258.251 111.892 258.251 114.444ZM290.167 97.02H299.737V101.706C301.849 98.318 305.039 96.624 309.307 96.624C310.275 96.624 311.287 96.712 312.343 96.888V107.118C310.935 106.59 309.571 106.326 308.251 106.326C306.667 106.326 304.841 106.876 302.773 107.976C300.749 109.032 299.737 111.078 299.737 114.114V132H290.167V97.02ZM338.836 99.33C341.52 97.394 345.04 96.426 349.396 96.426C354.368 96.426 358.856 97.482 362.86 99.594V108.636C357.492 105.952 353.004 104.61 349.396 104.61C347.856 104.61 346.69 104.874 345.898 105.402C345.106 105.886 344.71 106.502 344.71 107.25C344.71 107.69 344.842 108.086 345.106 108.438C345.414 108.746 345.876 109.032 346.492 109.296C347.152 109.516 347.79 109.692 348.406 109.824C349.022 109.956 349.858 110.154 350.914 110.418C352.014 110.638 352.938 110.836 353.686 111.012C360.99 112.948 364.642 116.578 364.642 121.902C364.642 123.838 364.18 125.532 363.256 126.984C362.376 128.436 361.188 129.558 359.692 130.35C358.24 131.098 356.7 131.648 355.072 132C353.488 132.352 351.816 132.528 350.056 132.528C345.304 132.528 340.618 131.23 335.998 128.634V119.13C337.714 120.318 339.892 121.462 342.532 122.562C345.216 123.662 347.724 124.212 350.056 124.212C353.224 124.212 354.808 123.376 354.808 121.704C354.808 120.78 354.192 120.054 352.96 119.526C351.728 118.954 349.66 118.36 346.756 117.744C342.664 116.864 339.65 115.61 337.714 113.982C335.778 112.354 334.81 110.132 334.81 107.316C334.81 103.928 336.152 101.266 338.836 99.33ZM369.251 132V85.8H378.821V132H369.251ZM389.785 101.64C393.305 98.164 397.529 96.426 402.457 96.426C406.725 96.426 410.509 97.79 413.809 100.518C417.109 103.246 419.199 106.678 420.079 110.814C420.387 112.134 420.541 113.41 420.541 114.642C420.541 115.83 420.409 116.974 420.145 118.074H393.877C394.405 120.01 395.439 121.506 396.979 122.562C398.519 123.574 400.345 124.08 402.457 124.08C405.801 124.08 408.551 123.09 410.707 121.11L419.023 123.486C417.659 126.214 415.393 128.414 412.225 130.086C409.057 131.714 405.801 132.528 402.457 132.528C397.441 132.528 393.173 130.768 389.653 127.248C386.177 123.684 384.439 119.438 384.439 114.51C384.439 109.45 386.221 105.16 389.785 101.64ZM393.877 110.814H410.839C410.311 109.142 409.299 107.734 407.803 106.59C406.307 105.446 404.503 104.874 402.391 104.874C400.279 104.874 398.453 105.446 396.913 106.59C395.417 107.734 394.405 109.142 393.877 110.814ZM429.875 101.64C433.395 98.164 437.619 96.426 442.547 96.426C446.815 96.426 450.599 97.79 453.899 100.518C457.199 103.246 459.289 106.678 460.169 110.814C460.477 112.134 460.631 113.41 460.631 114.642C460.631 115.83 460.499 116.974 460.235 118.074H433.967C434.495 120.01 435.529 121.506 437.069 122.562C438.609 123.574 440.435 124.08 442.547 124.08C445.891 124.08 448.641 123.09 450.797 121.11L459.113 123.486C457.749 126.214 455.483 128.414 452.315 130.086C449.147 131.714 445.891 132.528 442.547 132.528C437.531 132.528 433.263 130.768 429.743 127.248C426.267 123.684 424.529 119.438 424.529 114.51C424.529 109.45 426.311 105.16 429.875 101.64ZM433.967 110.814H450.929C450.401 109.142 449.389 107.734 447.893 106.59C446.397 105.446 444.593 104.874 442.481 104.874C440.369 104.874 438.543 105.446 437.003 106.59C435.507 107.734 434.495 109.142 433.967 110.814ZM465.609 97.02H475.179V99.924C477.819 97.636 481.031 96.492 484.815 96.492C489.523 96.492 493.571 98.274 496.959 101.838C500.391 105.402 502.107 109.626 502.107 114.51C502.107 119.57 500.413 123.838 497.025 127.314C493.637 130.79 489.567 132.528 484.815 132.528C481.075 132.528 477.863 131.34 475.179 128.964V145.86H465.609V97.02ZM474.519 114.51C474.519 117.018 475.443 119.218 477.291 121.11C479.139 123.002 481.339 123.948 483.891 123.948C486.531 123.948 488.731 123.024 490.491 121.176C492.295 119.284 493.197 117.062 493.197 114.51C493.197 111.958 492.295 109.758 490.491 107.91C488.731 106.062 486.531 105.138 483.891 105.138C481.339 105.138 479.139 106.084 477.291 107.976C475.443 109.824 474.519 112.002 474.519 114.51ZM517.274 97.02V132H507.704V97.02H517.274ZM508.43 84.546C509.574 83.446 510.96 82.896 512.588 82.896C514.216 82.896 515.602 83.446 516.746 84.546C517.89 85.646 518.462 86.988 518.462 88.572C518.462 90.156 517.89 91.476 516.746 92.532C515.602 93.632 514.216 94.182 512.588 94.182C510.96 94.182 509.574 93.654 508.43 92.598C507.286 91.498 506.714 90.156 506.714 88.572C506.714 86.988 507.286 85.646 508.43 84.546ZM524.196 97.02H533.766V100.254C536.406 97.702 539.662 96.426 543.534 96.426C547.494 96.426 550.904 97.702 553.764 100.254C556.624 102.762 558.054 106.106 558.054 110.286V132H548.484V112.728C548.484 110.528 547.802 108.746 546.438 107.382C545.118 106.018 543.49 105.336 541.554 105.336C539.222 105.336 537.33 106.172 535.878 107.844C534.47 109.472 533.766 111.496 533.766 113.916V132H524.196V97.02ZM563.039 114.048C563.039 108.988 564.667 104.786 567.923 101.442C571.223 98.098 575.227 96.426 579.935 96.426C580.067 96.426 580.199 96.426 580.331 96.426C584.115 96.47 587.327 97.68 589.967 100.056V97.02H599.537V130.218C599.537 135.102 597.887 139.15 594.587 142.362C591.331 145.618 587.173 147.246 582.113 147.246C577.977 147.246 574.281 146.08 571.025 143.748C567.769 141.416 565.613 138.028 564.557 133.584H574.127C575.403 136.752 578.021 138.336 581.981 138.336C584.533 138.336 586.491 137.632 587.855 136.224C589.263 134.816 589.967 132.814 589.967 130.218V128.436C587.371 130.592 584.159 131.67 580.331 131.67C575.315 131.67 571.179 129.976 567.923 126.588C564.667 123.2 563.039 119.02 563.039 114.048ZM571.949 114.048C571.949 116.556 572.873 118.69 574.721 120.45C576.525 122.254 578.703 123.156 581.255 123.156C583.807 123.156 586.007 122.276 587.855 120.516C589.703 118.712 590.627 116.556 590.627 114.048C590.627 111.54 589.703 109.406 587.855 107.646C586.051 105.842 583.851 104.94 581.255 104.94C578.703 104.94 576.503 105.842 574.655 107.646C572.851 109.406 571.949 111.54 571.949 114.048ZM622.972 97.02H628.912V89.364L638.35 86.658V97.02H648.448V105.27H638.35V120.252C638.35 121.176 638.724 121.946 639.472 122.562C640.22 123.178 641.012 123.53 641.848 123.618C642.728 123.662 643.256 123.684 643.432 123.684C644.928 123.684 646.754 123.266 648.91 122.43V131.67C646.402 132.374 644.07 132.726 641.914 132.726C639.23 132.726 636.392 131.956 633.4 130.416C630.408 128.832 628.912 125.466 628.912 120.318V105.27H622.972V97.02ZM657.324 101.706C660.844 98.186 665.09 96.426 670.062 96.426C674.99 96.426 679.214 98.208 682.734 101.772C686.298 105.292 688.08 109.516 688.08 114.444C688.08 119.416 686.32 123.684 682.8 127.248C679.28 130.768 675.034 132.528 670.062 132.528C665.134 132.528 660.888 130.746 657.324 127.182C653.804 123.618 652.044 119.372 652.044 114.444C652.044 109.516 653.804 105.27 657.324 101.706ZM660.954 114.444C660.954 116.996 661.834 119.196 663.594 121.044C665.354 122.892 667.51 123.816 670.062 123.816C672.614 123.816 674.77 122.892 676.53 121.044C678.29 119.196 679.17 116.996 679.17 114.444C679.17 111.892 678.29 109.714 676.53 107.91C674.77 106.062 672.614 105.138 670.062 105.138C667.51 105.138 665.354 106.062 663.594 107.91C661.834 109.714 660.954 111.892 660.954 114.444ZM696.962 101.706C700.482 98.186 704.728 96.426 709.7 96.426C714.628 96.426 718.852 98.208 722.372 101.772C725.936 105.292 727.718 109.516 727.718 114.444C727.718 119.416 725.958 123.684 722.438 127.248C718.918 130.768 714.672 132.528 709.7 132.528C704.772 132.528 700.526 130.746 696.962 127.182C693.442 123.618 691.682 119.372 691.682 114.444C691.682 109.516 693.442 105.27 696.962 101.706ZM700.592 114.444C700.592 116.996 701.472 119.196 703.232 121.044C704.992 122.892 707.148 123.816 709.7 123.816C712.252 123.816 714.408 122.892 716.168 121.044C717.928 119.196 718.808 116.996 718.808 114.444C718.808 111.892 717.928 109.714 716.168 107.91C714.408 106.062 712.252 105.138 709.7 105.138C707.148 105.138 704.992 106.062 703.232 107.91C701.472 109.714 700.592 111.892 700.592 114.444ZM761.229 97.02V100.254C763.869 97.702 766.795 96.426 770.007 96.426C774.407 96.426 777.927 98.208 780.567 101.772C782.019 100.1 783.757 98.802 785.781 97.878C787.805 96.91 789.851 96.426 791.919 96.426C795.439 96.426 798.519 97.68 801.159 100.188C803.799 102.652 805.119 106.018 805.119 110.286V132H795.549V112.398C795.549 110.154 795.065 108.394 794.097 107.118C793.173 105.798 791.787 105.138 789.939 105.138C785.935 105.138 783.691 107.47 783.207 112.134V132H773.637V112.398C773.637 110.154 773.153 108.394 772.185 107.118C771.261 105.798 769.875 105.138 768.027 105.138C765.695 105.138 763.979 105.93 762.879 107.514C761.779 109.054 761.229 111.078 761.229 113.586V132H751.659V97.02H761.229ZM811.4 97.02H820.97V116.292C820.97 118.492 821.63 120.274 822.95 121.638C824.314 123.002 825.964 123.684 827.9 123.684C830.232 123.684 832.102 122.87 833.51 121.242C834.962 119.57 835.688 117.524 835.688 115.104V97.02H845.258V132H835.688V128.766C833.048 131.318 829.792 132.594 825.92 132.594C821.96 132.594 818.55 131.34 815.69 128.832C812.83 126.28 811.4 122.914 811.4 118.734V97.02ZM856.554 101.64C860.074 98.164 864.298 96.426 869.226 96.426C872.966 96.426 876.332 97.482 879.324 99.594C882.316 101.706 884.472 104.478 885.792 107.91L877.08 110.418C876.376 108.79 875.32 107.492 873.912 106.524C872.548 105.512 870.986 105.006 869.226 105.006C866.674 105.006 864.518 105.952 862.758 107.844C860.998 109.736 860.118 111.958 860.118 114.51C860.118 117.062 860.998 119.284 862.758 121.176C864.518 123.024 866.674 123.948 869.226 123.948C871.03 123.948 872.614 123.464 873.978 122.496C875.342 121.484 876.376 120.186 877.08 118.602L885.792 121.11C884.472 124.498 882.316 127.248 879.324 129.36C876.376 131.472 873.01 132.528 869.226 132.528C864.21 132.528 859.942 130.768 856.422 127.248C852.946 123.684 851.208 119.438 851.208 114.51C851.208 109.45 852.99 105.16 856.554 101.64ZM890.878 85.8H900.448V100.254C903.088 97.702 906.344 96.426 910.216 96.426C914.176 96.426 917.586 97.702 920.446 100.254C923.306 102.762 924.736 106.106 924.736 110.286V132H915.166V112.728C915.166 110.528 914.484 108.746 913.12 107.382C911.8 106.018 910.172 105.336 908.236 105.336C905.904 105.336 904.012 106.172 902.56 107.844C901.152 109.472 900.448 111.496 900.448 113.916V132H890.878V85.8ZM928.77 100.782C928.814 95.942 930.42 92.136 933.588 89.364C936.8 86.592 940.672 85.206 945.204 85.206C949.516 85.206 953.212 86.57 956.292 89.298C959.416 92.026 960.978 95.414 960.978 99.462C960.978 101.354 960.582 102.982 959.79 104.346C958.998 105.71 958.03 106.788 956.886 107.58C955.786 108.372 954.664 109.098 953.52 109.758C952.376 110.418 951.386 111.21 950.55 112.134C949.758 113.014 949.34 114.048 949.296 115.236L949.23 117.48H939.99V113.124C939.99 111.276 940.584 109.648 941.772 108.24C943.004 106.832 944.346 105.776 945.798 105.072C947.25 104.324 948.57 103.466 949.758 102.498C950.99 101.486 951.606 100.474 951.606 99.462C951.606 98.01 951.056 96.778 949.956 95.766C948.856 94.71 947.316 94.16 945.336 94.116C945.248 94.116 945.182 94.116 945.138 94.116C943.114 94.116 941.486 94.732 940.254 95.964C939.066 97.152 938.428 98.758 938.34 100.782H928.77ZM940.98 122.496C942.08 121.396 943.444 120.846 945.072 120.846C946.7 120.846 948.064 121.418 949.164 122.562C950.308 123.662 950.88 125.026 950.88 126.654C950.88 128.282 950.33 129.646 949.23 130.746C948.086 131.846 946.7 132.396 945.072 132.396C943.444 132.396 942.058 131.846 940.914 130.746C939.814 129.646 939.264 128.282 939.264 126.654C939.264 125.026 939.836 123.64 940.98 122.496Z"/><path stroke="#00CC8D" stroke-linecap="round" stroke-width="10" d="M339 140C393.797 169.355 453.184 169 511.45 169C522.868 169 533.683 166.681 544.989 165.05C550.755 164.219 556.296 161.008 562.017 160.632C566.994 160.306 571.311 157.144 576.193 156.839C583.081 156.408 589.963 153.122 596.309 150.29C598.679 149.232 600.983 148.895 603.397 148.367C604.561 148.113 605.626 146.064 607 145.613"/></svg>