<svg xmlns="http://www.w3.org/2000/svg" width="1009" height="184" fill="none" viewBox="0 0 1009 184"><path fill="#000" d="M15.7957 3.8L27.1477 42.014L38.4997 3.8H54.0097V50H44.4397V14.096L33.8137 50H20.4817L9.92168 14.294V50H0.35168V3.8H15.7957ZM65.0219 19.706C68.5419 16.186 72.7879 14.426 77.7599 14.426C82.6879 14.426 86.9119 16.208 90.4319 19.772C93.9959 23.292 95.7779 27.516 95.7779 32.444C95.7779 37.416 94.0179 41.684 90.4979 45.248C86.9779 48.768 82.7319 50.528 77.7599 50.528C72.8319 50.528 68.5859 48.746 65.0219 45.182C61.5019 41.618 59.7419 37.372 59.7419 32.444C59.7419 27.516 61.5019 23.27 65.0219 19.706ZM68.6519 32.444C68.6519 34.996 69.5319 37.196 71.2919 39.044C73.0519 40.892 75.2079 41.816 77.7599 41.816C80.3119 41.816 82.4679 40.892 84.2279 39.044C85.9879 37.196 86.8679 34.996 86.8679 32.444C86.8679 29.892 85.9879 27.714 84.2279 25.91C82.4679 24.062 80.3119 23.138 77.7599 23.138C75.2079 23.138 73.0519 24.062 71.2919 25.91C69.5319 27.714 68.6519 29.892 68.6519 32.444ZM97.565 15.02H107.729L115.781 43.4L123.833 15.02H134.063L123.503 50H108.125L97.565 15.02ZM148.883 15.02V50H139.313V15.02H148.883ZM140.039 2.546C141.183 1.446 142.569 0.895999 144.197 0.895999C145.825 0.895999 147.211 1.446 148.355 2.546C149.499 3.646 150.071 4.988 150.071 6.572C150.071 8.156 149.499 9.476 148.355 10.532C147.211 11.632 145.825 12.182 144.197 12.182C142.569 12.182 141.183 11.654 140.039 10.598C138.895 9.498 138.323 8.156 138.323 6.572C138.323 4.988 138.895 3.646 140.039 2.546ZM155.805 15.02H165.375V18.254C168.015 15.702 171.271 14.426 175.143 14.426C179.103 14.426 182.513 15.702 185.373 18.254C188.233 20.762 189.663 24.106 189.663 28.286V50H180.093V30.728C180.093 28.528 179.411 26.746 178.047 25.382C176.727 24.018 175.099 23.336 173.163 23.336C170.831 23.336 168.939 24.172 167.487 25.844C166.079 27.472 165.375 29.496 165.375 31.916V50H155.805V15.02ZM194.647 32.048C194.647 26.988 196.275 22.786 199.531 19.442C202.831 16.098 206.835 14.426 211.543 14.426C211.675 14.426 211.807 14.426 211.939 14.426C215.723 14.47 218.935 15.68 221.575 18.056V15.02H231.145V48.218C231.145 53.102 229.495 57.15 226.195 60.362C222.939 63.618 218.781 65.246 213.721 65.246C209.585 65.246 205.889 64.08 202.633 61.748C199.377 59.416 197.221 56.028 196.165 51.584H205.735C207.011 54.752 209.629 56.336 213.589 56.336C216.141 56.336 218.099 55.632 219.463 54.224C220.871 52.816 221.575 50.814 221.575 48.218V46.436C218.979 48.592 215.767 49.67 211.939 49.67C206.923 49.67 202.787 47.976 199.531 44.588C196.275 41.2 194.647 37.02 194.647 32.048ZM203.557 32.048C203.557 34.556 204.481 36.69 206.329 38.45C208.133 40.254 210.311 41.156 212.863 41.156C215.415 41.156 217.615 40.276 219.463 38.516C221.311 36.712 222.235 34.556 222.235 32.048C222.235 29.54 221.311 27.406 219.463 25.646C217.659 23.842 215.459 22.94 212.863 22.94C210.311 22.94 208.111 23.842 206.263 25.646C204.459 27.406 203.557 29.54 203.557 32.048ZM259.993 19.706C263.513 16.186 267.759 14.426 272.731 14.426C277.659 14.426 281.883 16.208 285.403 19.772C288.967 23.292 290.749 27.516 290.749 32.444C290.749 37.416 288.989 41.684 285.469 45.248C281.949 48.768 277.703 50.528 272.731 50.528C267.803 50.528 263.557 48.746 259.993 45.182C256.473 41.618 254.713 37.372 254.713 32.444C254.713 27.516 256.473 23.27 259.993 19.706ZM263.623 32.444C263.623 34.996 264.503 37.196 266.263 39.044C268.023 40.892 270.179 41.816 272.731 41.816C275.283 41.816 277.439 40.892 279.199 39.044C280.959 37.196 281.839 34.996 281.839 32.444C281.839 29.892 280.959 27.714 279.199 25.91C277.439 24.062 275.283 23.138 272.731 23.138C270.179 23.138 268.023 24.062 266.263 25.91C264.503 27.714 263.623 29.892 263.623 32.444ZM295.539 15.02H305.109V19.706C307.221 16.318 310.411 14.624 314.679 14.624C315.647 14.624 316.659 14.712 317.715 14.888V25.118C316.307 24.59 314.943 24.326 313.623 24.326C312.039 24.326 310.213 24.876 308.145 25.976C306.121 27.032 305.109 29.078 305.109 32.114V50H295.539V15.02ZM344.208 17.33C346.892 15.394 350.412 14.426 354.768 14.426C359.74 14.426 364.228 15.482 368.232 17.594V26.636C362.864 23.952 358.376 22.61 354.768 22.61C353.228 22.61 352.062 22.874 351.27 23.402C350.478 23.886 350.082 24.502 350.082 25.25C350.082 25.69 350.214 26.086 350.478 26.438C350.786 26.746 351.248 27.032 351.864 27.296C352.524 27.516 353.162 27.692 353.778 27.824C354.394 27.956 355.23 28.154 356.286 28.418C357.386 28.638 358.31 28.836 359.058 29.012C366.362 30.948 370.014 34.578 370.014 39.902C370.014 41.838 369.552 43.532 368.628 44.984C367.748 46.436 366.56 47.558 365.064 48.35C363.612 49.098 362.072 49.648 360.444 50C358.86 50.352 357.188 50.528 355.428 50.528C350.676 50.528 345.99 49.23 341.37 46.634V37.13C343.086 38.318 345.264 39.462 347.904 40.562C350.588 41.662 353.096 42.212 355.428 42.212C358.596 42.212 360.18 41.376 360.18 39.704C360.18 38.78 359.564 38.054 358.332 37.526C357.1 36.954 355.032 36.36 352.128 35.744C348.036 34.864 345.022 33.61 343.086 31.982C341.15 30.354 340.182 28.132 340.182 25.316C340.182 21.928 341.524 19.266 344.208 17.33ZM374.301 15.02H383.871V17.924C386.511 15.636 389.723 14.492 393.507 14.492C398.215 14.492 402.263 16.274 405.651 19.838C409.083 23.402 410.799 27.626 410.799 32.51C410.799 37.57 409.105 41.838 405.717 45.314C402.329 48.79 398.259 50.528 393.507 50.528C389.767 50.528 386.555 49.34 383.871 46.964V63.86H374.301V15.02ZM383.211 32.51C383.211 35.018 384.135 37.218 385.983 39.11C387.831 41.002 390.031 41.948 392.583 41.948C395.223 41.948 397.423 41.024 399.183 39.176C400.987 37.284 401.889 35.062 401.889 32.51C401.889 29.958 400.987 27.758 399.183 25.91C397.423 24.062 395.223 23.138 392.583 23.138C390.031 23.138 387.831 24.084 385.983 25.976C384.135 27.824 383.211 30.002 383.211 32.51ZM420.1 19.64C423.62 16.164 427.844 14.426 432.772 14.426C437.04 14.426 440.824 15.79 444.124 18.518C447.424 21.246 449.514 24.678 450.394 28.814C450.702 30.134 450.856 31.41 450.856 32.642C450.856 33.83 450.724 34.974 450.46 36.074H424.192C424.72 38.01 425.754 39.506 427.294 40.562C428.834 41.574 430.66 42.08 432.772 42.08C436.116 42.08 438.866 41.09 441.022 39.11L449.338 41.486C447.974 44.214 445.708 46.414 442.54 48.086C439.372 49.714 436.116 50.528 432.772 50.528C427.756 50.528 423.488 48.768 419.968 45.248C416.492 41.684 414.754 37.438 414.754 32.51C414.754 27.45 416.536 23.16 420.1 19.64ZM424.192 28.814H441.154C440.626 27.142 439.614 25.734 438.118 24.59C436.622 23.446 434.818 22.874 432.706 22.874C430.594 22.874 428.768 23.446 427.228 24.59C425.732 25.734 424.72 27.142 424.192 28.814ZM459.926 19.64C463.314 16.164 467.384 14.426 472.136 14.426C475.876 14.426 479.088 15.614 481.772 17.99V15.02H491.342V50H481.772V47.096C479.132 49.384 475.92 50.528 472.136 50.528C467.428 50.528 463.358 48.746 459.926 45.182C456.538 41.618 454.844 37.394 454.844 32.51C454.844 27.45 456.538 23.16 459.926 19.64ZM463.754 32.51C463.754 35.062 464.634 37.262 466.394 39.11C468.198 40.958 470.42 41.882 473.06 41.882C475.612 41.882 477.812 40.958 479.66 39.11C481.508 37.218 482.432 35.018 482.432 32.51C482.432 30.002 481.508 27.802 479.66 25.91C477.812 24.018 475.612 23.072 473.06 23.072C470.42 23.072 468.198 24.018 466.394 25.91C464.634 27.758 463.754 29.958 463.754 32.51ZM508.144 3.8V29.276L521.146 15.02H532.498L517.582 31.058L532.894 50H521.74L511.906 37.196L508.144 41.288V50H498.574V3.8H508.144ZM547.396 15.02V50H537.826V15.02H547.396ZM538.552 2.546C539.696 1.446 541.082 0.895999 542.71 0.895999C544.338 0.895999 545.724 1.446 546.868 2.546C548.012 3.646 548.584 4.988 548.584 6.572C548.584 8.156 548.012 9.476 546.868 10.532C545.724 11.632 544.338 12.182 542.71 12.182C541.082 12.182 539.696 11.654 538.552 10.598C537.408 9.498 536.836 8.156 536.836 6.572C536.836 4.988 537.408 3.646 538.552 2.546ZM554.319 15.02H563.889V18.254C566.529 15.702 569.785 14.426 573.657 14.426C577.617 14.426 581.027 15.702 583.887 18.254C586.747 20.762 588.177 24.106 588.177 28.286V50H578.607V30.728C578.607 28.528 577.925 26.746 576.561 25.382C575.241 24.018 573.613 23.336 571.677 23.336C569.345 23.336 567.453 24.172 566.001 25.844C564.593 27.472 563.889 29.496 563.889 31.916V50H554.319V15.02ZM593.161 32.048C593.161 26.988 594.789 22.786 598.045 19.442C601.345 16.098 605.349 14.426 610.057 14.426C610.189 14.426 610.321 14.426 610.453 14.426C614.237 14.47 617.449 15.68 620.089 18.056V15.02H629.659V48.218C629.659 53.102 628.009 57.15 624.709 60.362C621.453 63.618 617.295 65.246 612.235 65.246C608.099 65.246 604.403 64.08 601.147 61.748C597.891 59.416 595.735 56.028 594.679 51.584H604.249C605.525 54.752 608.143 56.336 612.103 56.336C614.655 56.336 616.613 55.632 617.977 54.224C619.385 52.816 620.089 50.814 620.089 48.218V46.436C617.493 48.592 614.281 49.67 610.453 49.67C605.437 49.67 601.301 47.976 598.045 44.588C594.789 41.2 593.161 37.02 593.161 32.048ZM602.071 32.048C602.071 34.556 602.995 36.69 604.843 38.45C606.647 40.254 608.825 41.156 611.377 41.156C613.929 41.156 616.129 40.276 617.977 38.516C619.825 36.712 620.749 34.556 620.749 32.048C620.749 29.54 619.825 27.406 617.977 25.646C616.173 23.842 613.973 22.94 611.377 22.94C608.825 22.94 606.625 23.842 604.777 25.646C602.973 27.406 602.071 29.54 602.071 32.048ZM657.45 17.33C660.134 15.394 663.654 14.426 668.01 14.426C672.982 14.426 677.47 15.482 681.474 17.594V26.636C676.106 23.952 671.618 22.61 668.01 22.61C666.47 22.61 665.304 22.874 664.512 23.402C663.72 23.886 663.324 24.502 663.324 25.25C663.324 25.69 663.456 26.086 663.72 26.438C664.028 26.746 664.49 27.032 665.106 27.296C665.766 27.516 666.404 27.692 667.02 27.824C667.636 27.956 668.472 28.154 669.528 28.418C670.628 28.638 671.552 28.836 672.3 29.012C679.604 30.948 683.256 34.578 683.256 39.902C683.256 41.838 682.794 43.532 681.87 44.984C680.99 46.436 679.802 47.558 678.306 48.35C676.854 49.098 675.314 49.648 673.686 50C672.102 50.352 670.43 50.528 668.67 50.528C663.918 50.528 659.232 49.23 654.612 46.634V37.13C656.328 38.318 658.506 39.462 661.146 40.562C663.83 41.662 666.338 42.212 668.67 42.212C671.838 42.212 673.422 41.376 673.422 39.704C673.422 38.78 672.806 38.054 671.574 37.526C670.342 36.954 668.274 36.36 665.37 35.744C661.278 34.864 658.264 33.61 656.328 31.982C654.392 30.354 653.424 28.132 653.424 25.316C653.424 21.928 654.766 19.266 657.45 17.33ZM687.865 50V3.8H697.435V50H687.865ZM708.135 19.706C711.655 16.186 715.901 14.426 720.873 14.426C725.801 14.426 730.025 16.208 733.545 19.772C737.109 23.292 738.891 27.516 738.891 32.444C738.891 37.416 737.131 41.684 733.611 45.248C730.091 48.768 725.845 50.528 720.873 50.528C715.945 50.528 711.699 48.746 708.135 45.182C704.615 41.618 702.855 37.372 702.855 32.444C702.855 27.516 704.615 23.27 708.135 19.706ZM711.765 32.444C711.765 34.996 712.645 37.196 714.405 39.044C716.165 40.892 718.321 41.816 720.873 41.816C723.425 41.816 725.581 40.892 727.341 39.044C729.101 37.196 729.981 34.996 729.981 32.444C729.981 29.892 729.101 27.714 727.341 25.91C725.581 24.062 723.425 23.138 720.873 23.138C718.321 23.138 716.165 24.062 714.405 25.91C712.645 27.714 711.765 29.892 711.765 32.444ZM740.678 15.02H750.182L755 40.1L760.742 15.02H772.226L777.968 40.166L782.72 15.02H792.29L784.37 50H771.962L766.484 23.864L761.006 50H748.598L740.678 15.02ZM797.049 50V3.8H806.619V50H797.049ZM810.587 15.02H820.751L829.859 38.582L838.505 15.02H848.669L829.331 63.86H819.431L824.975 49.802L810.587 15.02ZM869.915 15.02H875.855V7.364L885.293 4.658V15.02H895.391V23.27H885.293V38.252C885.293 39.176 885.667 39.946 886.415 40.562C887.163 41.178 887.955 41.53 888.791 41.618C889.671 41.662 890.199 41.684 890.375 41.684C891.871 41.684 893.697 41.266 895.853 40.43V49.67C893.345 50.374 891.013 50.726 888.857 50.726C886.173 50.726 883.335 49.956 880.343 48.416C877.351 46.832 875.855 43.466 875.855 38.318V23.27H869.915V15.02ZM901.793 3.8H911.363V18.254C914.003 15.702 917.259 14.426 921.131 14.426C925.091 14.426 928.501 15.702 931.361 18.254C934.221 20.762 935.651 24.106 935.651 28.286V50H926.081V30.728C926.081 28.528 925.399 26.746 924.035 25.382C922.715 24.018 921.087 23.336 919.151 23.336C916.819 23.336 914.927 24.172 913.475 25.844C912.067 27.472 911.363 29.496 911.363 31.916V50H901.793V3.8ZM946.032 19.64C949.42 16.164 953.49 14.426 958.242 14.426C961.982 14.426 965.194 15.614 967.878 17.99V15.02H977.448V50H967.878V47.096C965.238 49.384 962.026 50.528 958.242 50.528C953.534 50.528 949.464 48.746 946.032 45.182C942.644 41.618 940.95 37.394 940.95 32.51C940.95 27.45 942.644 23.16 946.032 19.64ZM949.86 32.51C949.86 35.062 950.74 37.262 952.5 39.11C954.304 40.958 956.526 41.882 959.166 41.882C961.718 41.882 963.918 40.958 965.766 39.11C967.614 37.218 968.538 35.018 968.538 32.51C968.538 30.002 967.614 27.802 965.766 25.91C963.918 24.018 961.718 23.072 959.166 23.072C956.526 23.072 954.304 24.018 952.5 25.91C950.74 27.758 949.86 29.958 949.86 32.51ZM983.03 15.02H988.97V7.364L998.408 4.658V15.02H1008.51V23.27H998.408V38.252C998.408 39.176 998.782 39.946 999.53 40.562C1000.28 41.178 1001.07 41.53 1001.91 41.618C1002.79 41.662 1003.31 41.684 1003.49 41.684C1004.99 41.684 1006.81 41.266 1008.97 40.43V49.67C1006.46 50.374 1004.13 50.726 1001.97 50.726C999.288 50.726 996.45 49.956 993.458 48.416C990.466 46.832 988.97 43.466 988.97 38.318V23.27H983.03V15.02ZM66.7621 101.706C70.2821 98.186 74.5281 96.426 79.5001 96.426C84.4281 96.426 88.6521 98.208 92.1721 101.772C95.7361 105.292 97.5181 109.516 97.5181 114.444C97.5181 119.416 95.7581 123.684 92.2381 127.248C88.7181 130.768 84.4721 132.528 79.5001 132.528C74.5721 132.528 70.3261 130.746 66.7621 127.182C63.2421 123.618 61.4821 119.372 61.4821 114.444C61.4821 109.516 63.2421 105.27 66.7621 101.706ZM70.3921 114.444C70.3921 116.996 71.2721 119.196 73.0321 121.044C74.7921 122.892 76.9481 123.816 79.5001 123.816C82.0521 123.816 84.2081 122.892 85.9681 121.044C87.7281 119.196 88.6081 116.996 88.6081 114.444C88.6081 111.892 87.7281 109.714 85.9681 107.91C84.2081 106.062 82.0521 105.138 79.5001 105.138C76.9481 105.138 74.7921 106.062 73.0321 107.91C71.2721 109.714 70.3921 111.892 70.3921 114.444ZM100.344 97.02H106.284V89.364L115.722 86.658V97.02H125.82V105.27H115.722V120.252C115.722 121.176 116.096 121.946 116.844 122.562C117.592 123.178 118.384 123.53 119.22 123.618C120.1 123.662 120.628 123.684 120.804 123.684C122.3 123.684 124.126 123.266 126.282 122.43V131.67C123.774 132.374 121.442 132.726 119.286 132.726C116.602 132.726 113.764 131.956 110.772 130.416C107.78 128.832 106.284 125.466 106.284 120.318V105.27H100.344V97.02ZM132.223 85.8H141.793V100.254C144.433 97.702 147.689 96.426 151.561 96.426C155.521 96.426 158.931 97.702 161.791 100.254C164.651 102.762 166.081 106.106 166.081 110.286V132H156.511V112.728C156.511 110.528 155.829 108.746 154.465 107.382C153.145 106.018 151.517 105.336 149.581 105.336C147.249 105.336 145.357 106.172 143.905 107.844C142.497 109.472 141.793 111.496 141.793 113.916V132H132.223V85.8ZM176.725 101.64C180.245 98.164 184.469 96.426 189.397 96.426C193.665 96.426 197.449 97.79 200.749 100.518C204.049 103.246 206.139 106.678 207.019 110.814C207.327 112.134 207.481 113.41 207.481 114.642C207.481 115.83 207.349 116.974 207.085 118.074H180.817C181.345 120.01 182.379 121.506 183.919 122.562C185.459 123.574 187.285 124.08 189.397 124.08C192.741 124.08 195.491 123.09 197.647 121.11L205.963 123.486C204.599 126.214 202.333 128.414 199.165 130.086C195.997 131.714 192.741 132.528 189.397 132.528C184.381 132.528 180.113 130.768 176.593 127.248C173.117 123.684 171.379 119.438 171.379 114.51C171.379 109.45 173.161 105.16 176.725 101.64ZM180.817 110.814H197.779C197.251 109.142 196.239 107.734 194.743 106.59C193.247 105.446 191.443 104.874 189.331 104.874C187.219 104.874 185.393 105.446 183.853 106.59C182.357 107.734 181.345 109.142 180.817 110.814ZM212.459 97.02H222.029V101.706C224.141 98.318 227.331 96.624 231.599 96.624C232.567 96.624 233.579 96.712 234.635 96.888V107.118C233.227 106.59 231.863 106.326 230.543 106.326C228.959 106.326 227.133 106.876 225.065 107.976C223.041 109.032 222.029 111.078 222.029 114.114V132H212.459V97.02ZM242.952 99.33C245.636 97.394 249.156 96.426 253.512 96.426C258.484 96.426 262.972 97.482 266.976 99.594V108.636C261.608 105.952 257.12 104.61 253.512 104.61C251.972 104.61 250.806 104.874 250.014 105.402C249.222 105.886 248.826 106.502 248.826 107.25C248.826 107.69 248.958 108.086 249.222 108.438C249.53 108.746 249.992 109.032 250.608 109.296C251.268 109.516 251.906 109.692 252.522 109.824C253.138 109.956 253.974 110.154 255.03 110.418C256.13 110.638 257.054 110.836 257.802 111.012C265.106 112.948 268.758 116.578 268.758 121.902C268.758 123.838 268.296 125.532 267.372 126.984C266.492 128.436 265.304 129.558 263.808 130.35C262.356 131.098 260.816 131.648 259.188 132C257.604 132.352 255.932 132.528 254.172 132.528C249.42 132.528 244.734 131.23 240.114 128.634V119.13C241.83 120.318 244.008 121.462 246.648 122.562C249.332 123.662 251.84 124.212 254.172 124.212C257.34 124.212 258.924 123.376 258.924 121.704C258.924 120.78 258.308 120.054 257.076 119.526C255.844 118.954 253.776 118.36 250.872 117.744C246.78 116.864 243.766 115.61 241.83 113.982C239.894 112.354 238.926 110.132 238.926 107.316C238.926 103.928 240.268 101.266 242.952 99.33ZM295.899 101.64C299.419 98.164 303.643 96.426 308.571 96.426C312.311 96.426 315.677 97.482 318.669 99.594C321.661 101.706 323.817 104.478 325.137 107.91L316.425 110.418C315.721 108.79 314.665 107.492 313.257 106.524C311.893 105.512 310.331 105.006 308.571 105.006C306.019 105.006 303.863 105.952 302.103 107.844C300.343 109.736 299.463 111.958 299.463 114.51C299.463 117.062 300.343 119.284 302.103 121.176C303.863 123.024 306.019 123.948 308.571 123.948C310.375 123.948 311.959 123.464 313.323 122.496C314.687 121.484 315.721 120.186 316.425 118.602L325.137 121.11C323.817 124.498 321.661 127.248 318.669 129.36C315.721 131.472 312.355 132.528 308.571 132.528C303.555 132.528 299.287 130.768 295.767 127.248C292.291 123.684 290.553 119.438 290.553 114.51C290.553 109.45 292.335 105.16 295.899 101.64ZM333.985 101.706C337.505 98.186 341.751 96.426 346.723 96.426C351.651 96.426 355.875 98.208 359.395 101.772C362.959 105.292 364.741 109.516 364.741 114.444C364.741 119.416 362.981 123.684 359.461 127.248C355.941 130.768 351.695 132.528 346.723 132.528C341.795 132.528 337.549 130.746 333.985 127.182C330.465 123.618 328.705 119.372 328.705 114.444C328.705 109.516 330.465 105.27 333.985 101.706ZM337.615 114.444C337.615 116.996 338.495 119.196 340.255 121.044C342.015 122.892 344.171 123.816 346.723 123.816C349.275 123.816 351.431 122.892 353.191 121.044C354.951 119.196 355.831 116.996 355.831 114.444C355.831 111.892 354.951 109.714 353.191 107.91C351.431 106.062 349.275 105.138 346.723 105.138C344.171 105.138 342.015 106.062 340.255 107.91C338.495 109.714 337.615 111.892 337.615 114.444ZM369.854 97.02H379.424V116.292C379.424 118.492 380.084 120.274 381.404 121.638C382.768 123.002 384.418 123.684 386.354 123.684C388.686 123.684 390.556 122.87 391.964 121.242C393.416 119.57 394.142 117.524 394.142 115.104V97.02H403.712V132H394.142V128.766C391.502 131.318 388.246 132.594 384.374 132.594C380.414 132.594 377.004 131.34 374.144 128.832C371.284 126.28 369.854 122.914 369.854 118.734V97.02ZM410.653 132V85.8H420.223V132H410.653ZM430.922 101.64C434.31 98.164 438.38 96.426 443.132 96.426C446.872 96.426 450.084 97.614 452.768 99.99V85.8H462.338V132H452.768V129.096C450.128 131.384 446.916 132.528 443.132 132.528C438.424 132.528 434.354 130.746 430.922 127.182C427.534 123.618 425.84 119.394 425.84 114.51C425.84 109.45 427.534 105.16 430.922 101.64ZM434.75 114.51C434.75 117.062 435.63 119.262 437.39 121.11C439.194 122.958 441.416 123.882 444.056 123.882C446.608 123.882 448.808 122.958 450.656 121.11C452.504 119.218 453.428 117.018 453.428 114.51C453.428 112.002 452.504 109.802 450.656 107.91C448.808 106.018 446.608 105.072 444.056 105.072C441.416 105.072 439.194 106.018 437.39 107.91C435.63 109.758 434.75 111.958 434.75 114.51ZM487.746 85.8H497.316V100.254C499.956 97.702 503.212 96.426 507.084 96.426C511.044 96.426 514.454 97.702 517.314 100.254C520.174 102.762 521.604 106.106 521.604 110.286V132H512.034V112.728C512.034 110.528 511.352 108.746 509.988 107.382C508.668 106.018 507.04 105.336 505.104 105.336C502.772 105.336 500.88 106.172 499.428 107.844C498.02 109.472 497.316 111.496 497.316 113.916V132H487.746V85.8ZM531.985 101.64C535.373 98.164 539.443 96.426 544.195 96.426C547.935 96.426 551.147 97.614 553.831 99.99V97.02H563.401V132H553.831V129.096C551.191 131.384 547.979 132.528 544.195 132.528C539.487 132.528 535.417 130.746 531.985 127.182C528.597 123.618 526.903 119.394 526.903 114.51C526.903 109.45 528.597 105.16 531.985 101.64ZM535.813 114.51C535.813 117.062 536.693 119.262 538.453 121.11C540.257 122.958 542.479 123.882 545.119 123.882C547.671 123.882 549.871 122.958 551.719 121.11C553.567 119.218 554.491 117.018 554.491 114.51C554.491 112.002 553.567 109.802 551.719 107.91C549.871 106.018 547.671 105.072 545.119 105.072C542.479 105.072 540.257 106.018 538.453 107.91C536.693 109.758 535.813 111.958 535.813 114.51ZM568.653 97.02H578.817L586.869 125.4L594.921 97.02H605.151L594.591 132H579.213L568.653 97.02ZM612.428 101.64C615.948 98.164 620.172 96.426 625.1 96.426C629.368 96.426 633.152 97.79 636.452 100.518C639.752 103.246 641.842 106.678 642.722 110.814C643.03 112.134 643.184 113.41 643.184 114.642C643.184 115.83 643.052 116.974 642.788 118.074H616.52C617.048 120.01 618.082 121.506 619.622 122.562C621.162 123.574 622.988 124.08 625.1 124.08C628.444 124.08 631.194 123.09 633.35 121.11L641.666 123.486C640.302 126.214 638.036 128.414 634.868 130.086C631.7 131.714 628.444 132.528 625.1 132.528C620.084 132.528 615.816 130.768 612.296 127.248C608.82 123.684 607.082 119.438 607.082 114.51C607.082 109.45 608.864 105.16 612.428 101.64ZM616.52 110.814H633.482C632.954 109.142 631.942 107.734 630.446 106.59C628.95 105.446 627.146 104.874 625.034 104.874C622.922 104.874 621.096 105.446 619.556 106.59C618.06 107.734 617.048 109.142 616.52 110.814ZM666.983 97.02H676.553V100.254C679.193 97.702 682.449 96.426 686.321 96.426C690.281 96.426 693.691 97.702 696.551 100.254C699.411 102.762 700.841 106.106 700.841 110.286V132H691.271V112.728C691.271 110.528 690.589 108.746 689.225 107.382C687.905 106.018 686.277 105.336 684.341 105.336C682.009 105.336 680.117 106.172 678.665 107.844C677.257 109.472 676.553 111.496 676.553 113.916V132H666.983V97.02ZM710.907 101.706C714.427 98.186 718.673 96.426 723.645 96.426C728.573 96.426 732.797 98.208 736.317 101.772C739.881 105.292 741.663 109.516 741.663 114.444C741.663 119.416 739.903 123.684 736.383 127.248C732.863 130.768 728.617 132.528 723.645 132.528C718.717 132.528 714.471 130.746 710.907 127.182C707.387 123.618 705.627 119.372 705.627 114.444C705.627 109.516 707.387 105.27 710.907 101.706ZM714.537 114.444C714.537 116.996 715.417 119.196 717.177 121.044C718.937 122.892 721.093 123.816 723.645 123.816C726.197 123.816 728.353 122.892 730.113 121.044C731.873 119.196 732.753 116.996 732.753 114.444C732.753 111.892 731.873 109.714 730.113 107.91C728.353 106.062 726.197 105.138 723.645 105.138C721.093 105.138 718.937 106.062 717.177 107.91C715.417 109.714 714.537 111.892 714.537 114.444ZM744.489 97.02H750.429V89.364L759.867 86.658V97.02H769.965V105.27H759.867V120.252C759.867 121.176 760.241 121.946 760.989 122.562C761.737 123.178 762.529 123.53 763.365 123.618C764.245 123.662 764.773 123.684 764.949 123.684C766.445 123.684 768.271 123.266 770.427 122.43V131.67C767.919 132.374 765.587 132.726 763.431 132.726C760.747 132.726 757.909 131.956 754.917 130.416C751.925 128.832 750.429 125.466 750.429 120.318V105.27H744.489V97.02ZM785.937 97.02V132H776.367V97.02H785.937ZM777.093 84.546C778.237 83.446 779.623 82.896 781.251 82.896C782.879 82.896 784.265 83.446 785.409 84.546C786.553 85.646 787.125 86.988 787.125 88.572C787.125 90.156 786.553 91.476 785.409 92.532C784.265 93.632 782.879 94.182 781.251 94.182C779.623 94.182 778.237 93.654 777.093 92.598C775.949 91.498 775.377 90.156 775.377 88.572C775.377 86.988 775.949 85.646 777.093 84.546ZM797.216 101.64C800.736 98.164 804.96 96.426 809.888 96.426C813.628 96.426 816.994 97.482 819.986 99.594C822.978 101.706 825.134 104.478 826.454 107.91L817.742 110.418C817.038 108.79 815.982 107.492 814.574 106.524C813.21 105.512 811.648 105.006 809.888 105.006C807.336 105.006 805.18 105.952 803.42 107.844C801.66 109.736 800.78 111.958 800.78 114.51C800.78 117.062 801.66 119.284 803.42 121.176C805.18 123.024 807.336 123.948 809.888 123.948C811.692 123.948 813.276 123.464 814.64 122.496C816.004 121.484 817.038 120.186 817.742 118.602L826.454 121.11C825.134 124.498 822.978 127.248 819.986 129.36C817.038 131.472 813.672 132.528 809.888 132.528C804.872 132.528 800.604 130.768 797.084 127.248C793.608 123.684 791.87 119.438 791.87 114.51C791.87 109.45 793.652 105.16 797.216 101.64ZM835.565 101.64C839.085 98.164 843.309 96.426 848.237 96.426C852.505 96.426 856.289 97.79 859.589 100.518C862.889 103.246 864.979 106.678 865.859 110.814C866.167 112.134 866.321 113.41 866.321 114.642C866.321 115.83 866.189 116.974 865.925 118.074H839.657C840.185 120.01 841.219 121.506 842.759 122.562C844.299 123.574 846.125 124.08 848.237 124.08C851.581 124.08 854.331 123.09 856.487 121.11L864.803 123.486C863.439 126.214 861.173 128.414 858.005 130.086C854.837 131.714 851.581 132.528 848.237 132.528C843.221 132.528 838.953 130.768 835.433 127.248C831.957 123.684 830.219 119.438 830.219 114.51C830.219 109.45 832.001 105.16 835.565 101.64ZM839.657 110.814H856.619C856.091 109.142 855.079 107.734 853.583 106.59C852.087 105.446 850.283 104.874 848.171 104.874C846.059 104.874 844.233 105.446 842.693 106.59C841.197 107.734 840.185 109.142 839.657 110.814ZM875.391 101.64C878.779 98.164 882.849 96.426 887.601 96.426C891.341 96.426 894.553 97.614 897.237 99.99V85.8H906.807V132H897.237V129.096C894.597 131.384 891.385 132.528 887.601 132.528C882.893 132.528 878.823 130.746 875.391 127.182C872.003 123.618 870.309 119.394 870.309 114.51C870.309 109.45 872.003 105.16 875.391 101.64ZM879.219 114.51C879.219 117.062 880.099 119.262 881.859 121.11C883.663 122.958 885.885 123.882 888.525 123.882C891.077 123.882 893.277 122.958 895.125 121.11C896.973 119.218 897.897 117.018 897.897 114.51C897.897 112.002 896.973 109.802 895.125 107.91C893.277 106.018 891.077 105.072 888.525 105.072C885.885 105.072 883.663 106.018 881.859 107.91C880.099 109.758 879.219 111.958 879.219 114.51ZM913.775 100.782C913.819 95.942 915.425 92.136 918.593 89.364C921.805 86.592 925.677 85.206 930.209 85.206C934.521 85.206 938.217 86.57 941.297 89.298C944.421 92.026 945.983 95.414 945.983 99.462C945.983 101.354 945.587 102.982 944.795 104.346C944.003 105.71 943.035 106.788 941.891 107.58C940.791 108.372 939.669 109.098 938.525 109.758C937.381 110.418 936.391 111.21 935.555 112.134C934.763 113.014 934.345 114.048 934.301 115.236L934.235 117.48H924.995V113.124C924.995 111.276 925.589 109.648 926.777 108.24C928.009 106.832 929.351 105.776 930.803 105.072C932.255 104.324 933.575 103.466 934.763 102.498C935.995 101.486 936.611 100.474 936.611 99.462C936.611 98.01 936.061 96.778 934.961 95.766C933.861 94.71 932.321 94.16 930.341 94.116C930.253 94.116 930.187 94.116 930.143 94.116C928.119 94.116 926.491 94.732 925.259 95.964C924.071 97.152 923.433 98.758 923.345 100.782H913.775ZM925.985 122.496C927.085 121.396 928.449 120.846 930.077 120.846C931.705 120.846 933.069 121.418 934.169 122.562C935.313 123.662 935.885 125.026 935.885 126.654C935.885 128.282 935.335 129.646 934.235 130.746C933.091 131.846 931.705 132.396 930.077 132.396C928.449 132.396 927.063 131.846 925.919 130.746C924.819 129.646 924.269 128.282 924.269 126.654C924.269 125.026 924.841 123.64 925.985 122.496Z"/><path stroke="#00CC8D" stroke-linecap="round" stroke-width="10" d="M655 135.884C705.393 163.121 759.9 162.594 813.378 162.402C823.858 162.364 833.776 160.162 844.148 158.602C849.437 157.806 854.512 154.789 859.761 154.42C864.329 154.098 868.28 151.131 872.76 150.829C879.081 150.405 885.387 147.312 891.201 144.647C893.373 143.651 895.487 143.328 897.7 142.827C898.768 142.586 899.739 140.668 900.998 140.243"/></svg>