<svg xmlns="http://www.w3.org/2000/svg" width="1033" height="184" fill="none" viewBox="0 0 1033 184"><path fill="#000" d="M51.8513 3.2C56.0753 3.2 59.4673 4.352 62.0273 6.656C64.5873 8.91733 65.8673 11.7547 65.8673 15.168C65.8673 17.216 65.3766 19.136 64.3953 20.928C63.4566 22.6773 62.1766 24.0853 60.5553 25.152C62.9873 26.2187 64.8006 27.7333 65.9953 29.696C67.1899 31.616 67.7873 33.7067 67.7873 35.968C67.7873 39.424 66.4859 42.304 63.8833 44.608C61.3233 46.8693 57.8459 48 53.4513 48H31.0513V3.2H51.8513ZM40.3313 29.568V39.36H52.8113C54.3473 39.36 55.5846 38.8907 56.5233 37.952C57.5046 37.0133 57.9953 35.8613 57.9953 34.496C57.9953 33.1307 57.5046 31.9787 56.5233 31.04C55.5846 30.0587 54.3473 29.568 52.8113 29.568H40.3313ZM40.3313 11.84V21.824H51.5313C53.0673 21.824 54.3046 21.3333 55.2433 20.352C56.2246 19.3707 56.7153 18.1973 56.7153 16.832C56.7153 15.4667 56.2246 14.2933 55.2433 13.312C54.3046 12.3307 53.0673 11.84 51.5313 11.84H40.3313ZM76.5178 18.56C79.9311 15.1893 84.0271 13.504 88.8058 13.504C92.9444 13.504 96.6138 14.8267 99.8138 17.472C103.014 20.1173 105.04 23.4453 105.894 27.456C106.192 28.736 106.342 29.9733 106.342 31.168C106.342 32.32 106.214 33.4293 105.958 34.496H80.4858C80.9978 36.3733 82.0004 37.824 83.4938 38.848C84.9871 39.8293 86.7578 40.32 88.8058 40.32C92.0484 40.32 94.7151 39.36 96.8058 37.44L104.87 39.744C103.547 42.3893 101.35 44.5227 98.2778 46.144C95.2058 47.7227 92.0484 48.512 88.8058 48.512C83.9418 48.512 79.8031 46.8053 76.3898 43.392C73.0191 39.936 71.3338 35.8187 71.3338 31.04C71.3338 26.1333 73.0618 21.9733 76.5178 18.56ZM80.4858 27.456H96.9338C96.4218 25.8347 95.4404 24.4693 93.9898 23.36C92.5391 22.2507 90.7898 21.696 88.7418 21.696C86.6938 21.696 84.9231 22.2507 83.4298 23.36C81.9791 24.4693 80.9978 25.8347 80.4858 27.456ZM121.081 14.08V48H111.801V14.08H121.081ZM112.505 1.984C113.615 0.917332 114.959 0.383999 116.537 0.383999C118.116 0.383999 119.46 0.917332 120.569 1.984C121.679 3.05067 122.233 4.352 122.233 5.888C122.233 7.424 121.679 8.704 120.569 9.728C119.46 10.7947 118.116 11.328 116.537 11.328C114.959 11.328 113.615 10.816 112.505 9.792C111.396 8.72533 110.841 7.424 110.841 5.888C110.841 4.352 111.396 3.05067 112.505 1.984ZM127.794 14.08H137.074V17.216C139.634 14.7413 142.791 13.504 146.546 13.504C150.386 13.504 153.692 14.7413 156.466 17.216C159.239 19.648 160.626 22.8907 160.626 26.944V48H151.346V29.312C151.346 27.1787 150.684 25.4507 149.362 24.128C148.082 22.8053 146.503 22.144 144.626 22.144C142.364 22.144 140.53 22.9547 139.122 24.576C137.756 26.1547 137.074 28.1173 137.074 30.464V48H127.794V14.08ZM165.459 30.592C165.459 25.6853 167.037 21.6107 170.195 18.368C173.395 15.1253 177.277 13.504 181.843 13.504C181.971 13.504 182.099 13.504 182.227 13.504C185.896 13.5467 189.011 14.72 191.571 17.024V14.08H200.851V46.272C200.851 51.008 199.251 54.9333 196.051 58.048C192.893 61.2053 188.861 62.784 183.955 62.784C179.944 62.784 176.36 61.6533 173.203 59.392C170.045 57.1307 167.955 53.8453 166.931 49.536H176.211C177.448 52.608 179.987 54.144 183.827 54.144C186.301 54.144 188.2 53.4613 189.523 52.096C190.888 50.7307 191.571 48.7893 191.571 46.272V44.544C189.053 46.6347 185.939 47.68 182.227 47.68C177.363 47.68 173.352 46.0373 170.195 42.752C167.037 39.4667 165.459 35.4133 165.459 30.592ZM174.099 30.592C174.099 33.024 174.995 35.0933 176.787 36.8C178.536 38.5493 180.648 39.424 183.123 39.424C185.597 39.424 187.731 38.5707 189.523 36.864C191.315 35.1147 192.211 33.024 192.211 30.592C192.211 28.16 191.315 26.0907 189.523 24.384C187.773 22.6347 185.64 21.76 183.123 21.76C180.648 21.76 178.515 22.6347 176.723 24.384C174.973 26.0907 174.099 28.16 174.099 30.592ZM257.56 14.08V48H248.28V22.08H237.976L238.04 48H228.888L228.696 22.08H223.256V14.08H228.696V12.8C228.696 8.96 230.126 6.016 232.984 3.968C235.843 1.92 239.299 1.00266 243.352 1.216C247.406 1.38666 251.203 2.53866 254.744 4.672L250.968 11.136C249.219 9.984 247.491 9.216 245.784 8.832C244.078 8.448 242.648 8.42666 241.496 8.768C240.344 9.10933 239.406 9.664 238.68 10.432C237.955 11.2 237.592 12.096 237.592 13.12V14.08H257.56ZM267.074 18.56C270.36 15.1893 274.306 13.504 278.914 13.504C282.541 13.504 285.656 14.656 288.258 16.96V3.2H297.538V48H288.258V45.184C285.698 47.4027 282.584 48.512 278.914 48.512C274.349 48.512 270.402 46.784 267.074 43.328C263.789 39.872 262.146 35.776 262.146 31.04C262.146 26.1333 263.789 21.9733 267.074 18.56ZM270.786 31.04C270.786 33.5147 271.64 35.648 273.346 37.44C275.096 39.232 277.25 40.128 279.81 40.128C282.285 40.128 284.418 39.232 286.21 37.44C288.002 35.6053 288.898 33.472 288.898 31.04C288.898 28.608 288.002 26.4747 286.21 24.64C284.418 22.8053 282.285 21.888 279.81 21.888C277.25 21.888 275.096 22.8053 273.346 24.64C271.64 26.432 270.786 28.5653 270.786 31.04ZM303.271 30.592C303.271 25.6853 304.85 21.6107 308.007 18.368C311.207 15.1253 315.09 13.504 319.655 13.504C319.783 13.504 319.911 13.504 320.039 13.504C323.709 13.5467 326.823 14.72 329.383 17.024V14.08H338.663V46.272C338.663 51.008 337.063 54.9333 333.863 58.048C330.706 61.2053 326.674 62.784 321.767 62.784C317.757 62.784 314.173 61.6533 311.015 59.392C307.858 57.1307 305.767 53.8453 304.743 49.536H314.023C315.261 52.608 317.799 54.144 321.639 54.144C324.114 54.144 326.013 53.4613 327.335 52.096C328.701 50.7307 329.383 48.7893 329.383 46.272V44.544C326.866 46.6347 323.751 47.68 320.039 47.68C315.175 47.68 311.165 46.0373 308.007 42.752C304.85 39.4667 303.271 35.4133 303.271 30.592ZM311.911 30.592C311.911 33.024 312.807 35.0933 314.599 36.8C316.349 38.5493 318.461 39.424 320.935 39.424C323.41 39.424 325.543 38.5707 327.335 36.864C329.127 35.1147 330.023 33.024 330.023 30.592C330.023 28.16 329.127 26.0907 327.335 24.384C325.586 22.6347 323.453 21.76 320.935 21.76C318.461 21.76 316.327 22.6347 314.535 24.384C312.786 26.0907 311.911 28.16 311.911 30.592ZM349.268 18.56C352.681 15.1893 356.777 13.504 361.556 13.504C365.694 13.504 369.364 14.8267 372.564 17.472C375.764 20.1173 377.79 23.4453 378.644 27.456C378.942 28.736 379.092 29.9733 379.092 31.168C379.092 32.32 378.964 33.4293 378.708 34.496H353.236C353.748 36.3733 354.75 37.824 356.244 38.848C357.737 39.8293 359.508 40.32 361.556 40.32C364.798 40.32 367.465 39.36 369.556 37.44L377.62 39.744C376.297 42.3893 374.1 44.5227 371.028 46.144C367.956 47.7227 364.798 48.512 361.556 48.512C356.692 48.512 352.553 46.8053 349.14 43.392C345.769 39.936 344.084 35.8187 344.084 31.04C344.084 26.1333 345.812 21.9733 349.268 18.56ZM353.236 27.456H369.684C369.172 25.8347 368.19 24.4693 366.74 23.36C365.289 22.2507 363.54 21.696 361.492 21.696C359.444 21.696 357.673 22.2507 356.18 23.36C354.729 24.4693 353.748 25.8347 353.236 27.456ZM382.014 14.08H387.774V6.656L396.926 4.032V14.08H406.718V22.08H396.926V36.608C396.926 37.504 397.288 38.2507 398.014 38.848C398.739 39.4453 399.507 39.7867 400.318 39.872C401.171 39.9147 401.683 39.936 401.854 39.936C403.304 39.936 405.075 39.5307 407.166 38.72V47.68C404.734 48.3627 402.472 48.704 400.382 48.704C397.779 48.704 395.027 47.9573 392.126 46.464C389.224 44.928 387.774 41.664 387.774 36.672V22.08H382.014V14.08ZM410.046 14.08H419.902L428.734 36.928L437.118 14.08H446.974L428.222 61.44H418.622L423.998 47.808L410.046 14.08ZM472.824 18.624C476.238 15.2107 480.355 13.504 485.176 13.504C489.955 13.504 494.051 15.232 497.464 18.688C500.92 22.1013 502.648 26.1973 502.648 30.976C502.648 35.7973 500.942 39.936 497.528 43.392C494.115 46.8053 489.998 48.512 485.176 48.512C480.398 48.512 476.28 46.784 472.824 43.328C469.411 39.872 467.704 35.7547 467.704 30.976C467.704 26.1973 469.411 22.08 472.824 18.624ZM476.344 30.976C476.344 33.4507 477.198 35.584 478.904 37.376C480.611 39.168 482.702 40.064 485.176 40.064C487.651 40.064 489.742 39.168 491.448 37.376C493.155 35.584 494.008 33.4507 494.008 30.976C494.008 28.5013 493.155 26.3893 491.448 24.64C489.742 22.848 487.651 21.952 485.176 21.952C482.702 21.952 480.611 22.848 478.904 24.64C477.198 26.3893 476.344 28.5013 476.344 30.976ZM507.294 14.08H516.574V18.624C518.622 15.3387 521.715 13.696 525.854 13.696C526.792 13.696 527.774 13.7813 528.798 13.952V23.872C527.432 23.36 526.11 23.104 524.83 23.104C523.294 23.104 521.523 23.6373 519.518 24.704C517.555 25.728 516.574 27.712 516.574 30.656V48H507.294V14.08ZM551.544 14.08H560.824V18.624C562.872 15.3387 565.965 13.696 570.104 13.696C571.042 13.696 572.024 13.7813 573.048 13.952V23.872C571.682 23.36 570.36 23.104 569.08 23.104C567.544 23.104 565.773 23.6373 563.768 24.704C561.805 25.728 560.824 27.712 560.824 30.656V48H551.544V14.08ZM580.768 18.56C584.181 15.1893 588.277 13.504 593.056 13.504C597.194 13.504 600.864 14.8267 604.064 17.472C607.264 20.1173 609.29 23.4453 610.144 27.456C610.442 28.736 610.592 29.9733 610.592 31.168C610.592 32.32 610.464 33.4293 610.208 34.496H584.736C585.248 36.3733 586.25 37.824 587.744 38.848C589.237 39.8293 591.008 40.32 593.056 40.32C596.298 40.32 598.965 39.36 601.056 37.44L609.12 39.744C607.797 42.3893 605.6 44.5227 602.528 46.144C599.456 47.7227 596.298 48.512 593.056 48.512C588.192 48.512 584.053 46.8053 580.64 43.392C577.269 39.936 575.584 35.8187 575.584 31.04C575.584 26.1333 577.312 21.9733 580.768 18.56ZM584.736 27.456H601.184C600.672 25.8347 599.69 24.4693 598.24 23.36C596.789 22.2507 595.04 21.696 592.992 21.696C590.944 21.696 589.173 22.2507 587.68 23.36C586.229 24.4693 585.248 25.8347 584.736 27.456ZM618.675 16.32C621.278 14.4427 624.691 13.504 628.915 13.504C633.737 13.504 638.089 14.528 641.971 16.576V25.344C636.766 22.7413 632.414 21.44 628.915 21.44C627.422 21.44 626.291 21.696 625.523 22.208C624.755 22.6773 624.371 23.2747 624.371 24C624.371 24.4267 624.499 24.8107 624.755 25.152C625.054 25.4507 625.502 25.728 626.099 25.984C626.739 26.1973 627.358 26.368 627.955 26.496C628.553 26.624 629.363 26.816 630.387 27.072C631.454 27.2853 632.35 27.4773 633.075 27.648C640.158 29.5253 643.699 33.0453 643.699 38.208C643.699 40.0853 643.251 41.728 642.355 43.136C641.502 44.544 640.35 45.632 638.899 46.4C637.491 47.1253 635.998 47.6587 634.419 48C632.883 48.3413 631.262 48.512 629.555 48.512C624.947 48.512 620.403 47.2533 615.923 44.736V35.52C617.587 36.672 619.699 37.7813 622.259 38.848C624.862 39.9147 627.294 40.448 629.555 40.448C632.627 40.448 634.163 39.6373 634.163 38.016C634.163 37.12 633.566 36.416 632.371 35.904C631.177 35.3493 629.171 34.7733 626.355 34.176C622.387 33.3227 619.465 32.1067 617.587 30.528C615.71 28.9493 614.771 26.7947 614.771 24.064C614.771 20.7787 616.073 18.1973 618.675 16.32ZM646.264 14.08H652.024V6.656L661.176 4.032V14.08H670.968V22.08H661.176V36.608C661.176 37.504 661.538 38.2507 662.264 38.848C662.989 39.4453 663.757 39.7867 664.568 39.872C665.421 39.9147 665.933 39.936 666.104 39.936C667.554 39.936 669.325 39.5307 671.416 38.72V47.68C668.984 48.3627 666.722 48.704 664.632 48.704C662.029 48.704 659.277 47.9573 656.376 46.464C653.474 44.928 652.024 41.664 652.024 36.672V22.08H646.264V14.08ZM676.856 48V3.2H686.136V48H676.856ZM696.768 18.56C700.181 15.1893 704.277 13.504 709.056 13.504C713.194 13.504 716.864 14.8267 720.064 17.472C723.264 20.1173 725.29 23.4453 726.144 27.456C726.442 28.736 726.592 29.9733 726.592 31.168C726.592 32.32 726.464 33.4293 726.208 34.496H700.736C701.248 36.3733 702.25 37.824 703.744 38.848C705.237 39.8293 707.008 40.32 709.056 40.32C712.298 40.32 714.965 39.36 717.056 37.44L725.12 39.744C723.797 42.3893 721.6 44.5227 718.528 46.144C715.456 47.7227 712.298 48.512 709.056 48.512C704.192 48.512 700.053 46.8053 696.64 43.392C693.269 39.936 691.584 35.8187 691.584 31.04C691.584 26.1333 693.312 21.9733 696.768 18.56ZM700.736 27.456H717.184C716.672 25.8347 715.69 24.4693 714.24 23.36C712.789 22.2507 711.04 21.696 708.992 21.696C706.944 21.696 705.173 22.2507 703.68 23.36C702.229 24.4693 701.248 25.8347 700.736 27.456ZM734.675 16.32C737.278 14.4427 740.691 13.504 744.915 13.504C749.737 13.504 754.089 14.528 757.971 16.576V25.344C752.766 22.7413 748.414 21.44 744.915 21.44C743.422 21.44 742.291 21.696 741.523 22.208C740.755 22.6773 740.371 23.2747 740.371 24C740.371 24.4267 740.499 24.8107 740.755 25.152C741.054 25.4507 741.502 25.728 742.099 25.984C742.739 26.1973 743.358 26.368 743.955 26.496C744.553 26.624 745.363 26.816 746.387 27.072C747.454 27.2853 748.35 27.4773 749.075 27.648C756.158 29.5253 759.699 33.0453 759.699 38.208C759.699 40.0853 759.251 41.728 758.355 43.136C757.502 44.544 756.35 45.632 754.899 46.4C753.491 47.1253 751.998 47.6587 750.419 48C748.883 48.3413 747.262 48.512 745.555 48.512C740.947 48.512 736.403 47.2533 731.923 44.736V35.52C733.587 36.672 735.699 37.7813 738.259 38.848C740.862 39.9147 743.294 40.448 745.555 40.448C748.627 40.448 750.163 39.6373 750.163 38.016C750.163 37.12 749.566 36.416 748.371 35.904C747.177 35.3493 745.171 34.7733 742.355 34.176C738.387 33.3227 735.465 32.1067 733.587 30.528C731.71 28.9493 730.771 26.7947 730.771 24.064C730.771 20.7787 732.073 18.1973 734.675 16.32ZM767.113 16.32C769.715 14.4427 773.129 13.504 777.353 13.504C782.174 13.504 786.526 14.528 790.409 16.576V25.344C785.203 22.7413 780.851 21.44 777.353 21.44C775.859 21.44 774.729 21.696 773.961 22.208C773.193 22.6773 772.809 23.2747 772.809 24C772.809 24.4267 772.937 24.8107 773.193 25.152C773.491 25.4507 773.939 25.728 774.537 25.984C775.177 26.1973 775.795 26.368 776.393 26.496C776.99 26.624 777.801 26.816 778.825 27.072C779.891 27.2853 780.787 27.4773 781.513 27.648C788.595 29.5253 792.137 33.0453 792.137 38.208C792.137 40.0853 791.689 41.728 790.793 43.136C789.939 44.544 788.787 45.632 787.337 46.4C785.929 47.1253 784.435 47.6587 782.857 48C781.321 48.3413 779.699 48.512 777.993 48.512C773.385 48.512 768.841 47.2533 764.361 44.736V35.52C766.025 36.672 768.137 37.7813 770.697 38.848C773.299 39.9147 775.731 40.448 777.993 40.448C781.065 40.448 782.601 39.6373 782.601 38.016C782.601 37.12 782.003 36.416 780.809 35.904C779.614 35.3493 777.609 34.7733 774.793 34.176C770.825 33.3227 767.902 32.1067 766.025 30.528C764.147 28.9493 763.209 26.7947 763.209 24.064C763.209 20.7787 764.51 18.1973 767.113 16.32ZM814.551 3.2H823.831V17.216C826.391 14.7413 829.549 13.504 833.303 13.504C837.143 13.504 840.45 14.7413 843.223 17.216C845.997 19.648 847.383 22.8907 847.383 26.944V48H838.103V29.312C838.103 27.1787 837.442 25.4507 836.119 24.128C834.839 22.8053 833.261 22.144 831.383 22.144C829.122 22.144 827.287 22.9547 825.879 24.576C824.514 26.1547 823.831 28.1173 823.831 30.464V48H814.551V3.2ZM857.705 18.56C861.119 15.1893 865.215 13.504 869.993 13.504C874.132 13.504 877.801 14.8267 881.001 17.472C884.201 20.1173 886.228 23.4453 887.081 27.456C887.38 28.736 887.529 29.9733 887.529 31.168C887.529 32.32 887.401 33.4293 887.145 34.496H861.673C862.185 36.3733 863.188 37.824 864.681 38.848C866.175 39.8293 867.945 40.32 869.993 40.32C873.236 40.32 875.903 39.36 877.993 37.44L886.057 39.744C884.735 42.3893 882.537 44.5227 879.465 46.144C876.393 47.7227 873.236 48.512 869.993 48.512C865.129 48.512 860.991 46.8053 857.577 43.392C854.207 39.936 852.521 35.8187 852.521 31.04C852.521 26.1333 854.249 21.9733 857.705 18.56ZM861.673 27.456H878.121C877.609 25.8347 876.628 24.4693 875.177 23.36C873.727 22.2507 871.977 21.696 869.929 21.696C867.881 21.696 866.111 22.2507 864.617 23.36C863.167 24.4693 862.185 25.8347 861.673 27.456ZM892.356 14.08H901.636V17.216C904.196 14.7413 907.354 13.504 911.108 13.504C914.948 13.504 918.255 14.7413 921.028 17.216C923.802 19.648 925.188 22.8907 925.188 26.944V48H915.908V29.312C915.908 27.1787 915.247 25.4507 913.924 24.128C912.644 22.8053 911.066 22.144 909.188 22.144C906.927 22.144 905.092 22.9547 903.684 24.576C902.319 26.1547 901.636 28.1173 901.636 30.464V48H892.356V14.08ZM935.205 18.56C938.619 15.1893 942.715 13.504 947.493 13.504C951.12 13.504 954.384 14.528 957.285 16.576C960.187 18.624 962.277 21.312 963.557 24.64L955.109 27.072C954.427 25.4933 953.403 24.2347 952.037 23.296C950.715 22.3147 949.2 21.824 947.493 21.824C945.019 21.824 942.928 22.7413 941.221 24.576C939.515 26.4107 938.661 28.5653 938.661 31.04C938.661 33.5147 939.515 35.6693 941.221 37.504C942.928 39.296 945.019 40.192 947.493 40.192C949.243 40.192 950.779 39.7227 952.101 38.784C953.424 37.8027 954.427 36.544 955.109 35.008L963.557 37.44C962.277 40.7253 960.187 43.392 957.285 45.44C954.427 47.488 951.163 48.512 947.493 48.512C942.629 48.512 938.491 46.8053 935.077 43.392C931.707 39.936 930.021 35.8187 930.021 31.04C930.021 26.1333 931.749 21.9733 935.205 18.56ZM972.393 18.56C975.806 15.1893 979.902 13.504 984.681 13.504C988.819 13.504 992.489 14.8267 995.689 17.472C998.889 20.1173 1000.92 23.4453 1001.77 27.456C1002.07 28.736 1002.22 29.9733 1002.22 31.168C1002.22 32.32 1002.09 33.4293 1001.83 34.496H976.361C976.873 36.3733 977.875 37.824 979.369 38.848C980.862 39.8293 982.633 40.32 984.681 40.32C987.923 40.32 990.59 39.36 992.681 37.44L1000.74 39.744C999.422 42.3893 997.225 44.5227 994.153 46.144C991.081 47.7227 987.923 48.512 984.681 48.512C979.817 48.512 975.678 46.8053 972.265 43.392C968.894 39.936 967.209 35.8187 967.209 31.04C967.209 26.1333 968.937 21.9733 972.393 18.56ZM976.361 27.456H992.809C992.297 25.8347 991.315 24.4693 989.865 23.36C988.414 22.2507 986.665 21.696 984.617 21.696C982.569 21.696 980.798 22.2507 979.305 23.36C977.854 24.4693 976.873 25.8347 976.361 27.456ZM9.3 93.08V96.216C11.86 93.7413 14.6973 92.504 17.812 92.504C22.0787 92.504 25.492 94.232 28.052 97.688C29.46 96.0667 31.1453 94.808 33.108 93.912C35.0707 92.9733 37.0547 92.504 39.06 92.504C42.4733 92.504 45.46 93.72 48.02 96.152C50.58 98.5413 51.86 101.805 51.86 105.944V127H42.58V107.992C42.58 105.816 42.1107 104.109 41.172 102.872C40.276 101.592 38.932 100.952 37.14 100.952C33.2573 100.952 31.0813 103.213 30.612 107.736V127H21.332V107.992C21.332 105.816 20.8627 104.109 19.924 102.872C19.028 101.592 17.684 100.952 15.892 100.952C13.6307 100.952 11.9667 101.72 10.9 103.256C9.83333 104.749 9.3 106.712 9.3 109.144V127H0.0200002V93.08H9.3ZM61.6055 97.624C65.0188 94.2107 69.1362 92.504 73.9575 92.504C78.7362 92.504 82.8322 94.232 86.2455 97.688C89.7015 101.101 91.4295 105.197 91.4295 109.976C91.4295 114.797 89.7228 118.936 86.3095 122.392C82.8962 125.805 78.7788 127.512 73.9575 127.512C69.1788 127.512 65.0615 125.784 61.6055 122.328C58.1922 118.872 56.4855 114.755 56.4855 109.976C56.4855 105.197 58.1922 101.08 61.6055 97.624ZM65.1255 109.976C65.1255 112.451 65.9788 114.584 67.6855 116.376C69.3922 118.168 71.4828 119.064 73.9575 119.064C76.4322 119.064 78.5228 118.168 80.2295 116.376C81.9362 114.584 82.7895 112.451 82.7895 109.976C82.7895 107.501 81.9362 105.389 80.2295 103.64C78.5228 101.848 76.4322 100.952 73.9575 100.952C71.4828 100.952 69.3922 101.848 67.6855 103.64C65.9788 105.389 65.1255 107.501 65.1255 109.976ZM93.1625 93.08H103.019L110.827 120.6L118.635 93.08H128.555L118.315 127H103.403L93.1625 93.08ZM142.925 93.08V127H133.645V93.08H142.925ZM134.349 80.984C135.458 79.9173 136.802 79.384 138.381 79.384C139.96 79.384 141.304 79.9173 142.413 80.984C143.522 82.0507 144.077 83.352 144.077 84.888C144.077 86.424 143.522 87.704 142.413 88.728C141.304 89.7947 139.96 90.328 138.381 90.328C136.802 90.328 135.458 89.816 134.349 88.792C133.24 87.7253 132.685 86.424 132.685 84.888C132.685 83.352 133.24 82.0507 134.349 80.984ZM149.638 93.08H158.918V96.216C161.478 93.7413 164.635 92.504 168.39 92.504C172.23 92.504 175.536 93.7413 178.31 96.216C181.083 98.648 182.47 101.891 182.47 105.944V127H173.19V108.312C173.19 106.179 172.528 104.451 171.206 103.128C169.926 101.805 168.347 101.144 166.47 101.144C164.208 101.144 162.374 101.955 160.966 103.576C159.6 105.155 158.918 107.117 158.918 109.464V127H149.638V93.08ZM187.303 109.592C187.303 104.685 188.881 100.611 192.039 97.368C195.239 94.1253 199.121 92.504 203.687 92.504C203.815 92.504 203.943 92.504 204.071 92.504C207.74 92.5467 210.855 93.72 213.415 96.024V93.08H222.694V125.272C222.694 130.008 221.095 133.933 217.895 137.048C214.737 140.205 210.705 141.784 205.799 141.784C201.788 141.784 198.204 140.653 195.047 138.392C191.889 136.131 189.799 132.845 188.775 128.536H198.055C199.292 131.608 201.831 133.144 205.671 133.144C208.145 133.144 210.044 132.461 211.367 131.096C212.732 129.731 213.415 127.789 213.415 125.272V123.544C210.897 125.635 207.783 126.68 204.071 126.68C199.207 126.68 195.196 125.037 192.039 121.752C188.881 118.467 187.303 114.413 187.303 109.592ZM195.943 109.592C195.943 112.024 196.839 114.093 198.631 115.8C200.38 117.549 202.492 118.424 204.967 118.424C207.441 118.424 209.575 117.571 211.367 115.864C213.159 114.115 214.055 112.024 214.055 109.592C214.055 107.16 213.159 105.091 211.367 103.384C209.617 101.635 207.484 100.76 204.967 100.76C202.492 100.76 200.359 101.635 198.567 103.384C196.817 105.091 195.943 107.16 195.943 109.592ZM250.668 97.56C253.953 94.1893 257.9 92.504 262.508 92.504C266.135 92.504 269.249 93.656 271.852 95.96V93.08H281.132V127H271.852V124.184C269.292 126.403 266.177 127.512 262.508 127.512C257.943 127.512 253.996 125.784 250.668 122.328C247.383 118.872 245.74 114.776 245.74 110.04C245.74 105.133 247.383 100.973 250.668 97.56ZM254.38 110.04C254.38 112.515 255.233 114.648 256.94 116.44C258.689 118.232 260.844 119.128 263.404 119.128C265.879 119.128 268.012 118.232 269.804 116.44C271.596 114.605 272.492 112.472 272.492 110.04C272.492 107.608 271.596 105.475 269.804 103.64C268.012 101.805 265.879 100.888 263.404 100.888C260.844 100.888 258.689 101.805 256.94 103.64C255.233 105.432 254.38 107.565 254.38 110.04ZM287.825 93.08H297.105V97.624C299.153 94.3387 302.246 92.696 306.385 92.696C307.324 92.696 308.305 92.7813 309.329 92.952V102.872C307.964 102.36 306.641 102.104 305.361 102.104C303.825 102.104 302.054 102.637 300.049 103.704C298.086 104.728 297.105 106.712 297.105 109.656V127H287.825V93.08ZM316.793 97.624C320.206 94.2107 324.324 92.504 329.145 92.504C333.924 92.504 338.02 94.232 341.433 97.688C344.889 101.101 346.617 105.197 346.617 109.976C346.617 114.797 344.91 118.936 341.497 122.392C338.084 125.805 333.966 127.512 329.145 127.512C324.366 127.512 320.249 125.784 316.793 122.328C313.38 118.872 311.673 114.755 311.673 109.976C311.673 105.197 313.38 101.08 316.793 97.624ZM320.313 109.976C320.313 112.451 321.166 114.584 322.873 116.376C324.58 118.168 326.67 119.064 329.145 119.064C331.62 119.064 333.71 118.168 335.417 116.376C337.124 114.584 337.977 112.451 337.977 109.976C337.977 107.501 337.124 105.389 335.417 103.64C333.71 101.848 331.62 100.952 329.145 100.952C326.67 100.952 324.58 101.848 322.873 103.64C321.166 105.389 320.313 107.501 320.313 109.976ZM351.575 93.08H360.855V111.768C360.855 113.901 361.495 115.629 362.775 116.952C364.098 118.275 365.698 118.936 367.575 118.936C369.836 118.936 371.65 118.147 373.015 116.568C374.423 114.947 375.127 112.963 375.127 110.616V93.08H384.407V127H375.127V123.864C372.567 126.339 369.41 127.576 365.655 127.576C361.815 127.576 358.508 126.36 355.735 123.928C352.962 121.453 351.575 118.189 351.575 114.136V93.08ZM391.138 93.08H400.418V96.216C402.978 93.7413 406.135 92.504 409.89 92.504C413.73 92.504 417.036 93.7413 419.81 96.216C422.583 98.648 423.97 101.891 423.97 105.944V127H414.69V108.312C414.69 106.179 414.028 104.451 412.706 103.128C411.426 101.805 409.847 101.144 407.97 101.144C405.708 101.144 403.874 101.955 402.466 103.576C401.1 105.155 400.418 107.117 400.418 109.464V127H391.138V93.08ZM433.731 97.56C437.016 94.1893 440.963 92.504 445.571 92.504C449.197 92.504 452.312 93.656 454.915 95.96V82.2H464.194V127H454.915V124.184C452.355 126.403 449.24 127.512 445.571 127.512C441.005 127.512 437.059 125.784 433.731 122.328C430.445 118.872 428.803 114.776 428.803 110.04C428.803 105.133 430.445 100.973 433.731 97.56ZM437.443 110.04C437.443 112.515 438.296 114.648 440.003 116.44C441.752 118.232 443.907 119.128 446.467 119.128C448.941 119.128 451.075 118.232 452.867 116.44C454.659 114.605 455.555 112.472 455.555 110.04C455.555 107.608 454.659 105.475 452.867 103.64C451.075 101.805 448.941 100.888 446.467 100.888C443.907 100.888 441.752 101.805 440.003 103.64C438.296 105.432 437.443 107.565 437.443 110.04ZM498.113 93.08V96.216C500.673 93.7413 503.51 92.504 506.625 92.504C510.891 92.504 514.305 94.232 516.865 97.688C518.273 96.0667 519.958 94.808 521.921 93.912C523.883 92.9733 525.867 92.504 527.873 92.504C531.286 92.504 534.273 93.72 536.833 96.152C539.393 98.5413 540.673 101.805 540.673 105.944V127H531.393V107.992C531.393 105.816 530.923 104.109 529.985 102.872C529.089 101.592 527.745 100.952 525.953 100.952C522.07 100.952 519.894 103.213 519.425 107.736V127H510.145V107.992C510.145 105.816 509.675 104.109 508.737 102.872C507.841 101.592 506.497 100.952 504.705 100.952C502.443 100.952 500.779 101.72 499.713 103.256C498.646 104.749 498.113 106.712 498.113 109.144V127H488.833V93.08H498.113ZM550.418 97.624C553.831 94.2107 557.949 92.504 562.77 92.504C567.549 92.504 571.645 94.232 575.058 97.688C578.514 101.101 580.242 105.197 580.242 109.976C580.242 114.797 578.535 118.936 575.122 122.392C571.709 125.805 567.591 127.512 562.77 127.512C557.991 127.512 553.874 125.784 550.418 122.328C547.005 118.872 545.298 114.755 545.298 109.976C545.298 105.197 547.005 101.08 550.418 97.624ZM553.938 109.976C553.938 112.451 554.791 114.584 556.498 116.376C558.205 118.168 560.295 119.064 562.77 119.064C565.245 119.064 567.335 118.168 569.042 116.376C570.749 114.584 571.602 112.451 571.602 109.976C571.602 107.501 570.749 105.389 569.042 103.64C567.335 101.848 565.245 100.952 562.77 100.952C560.295 100.952 558.205 101.848 556.498 103.64C554.791 105.389 553.938 107.501 553.938 109.976ZM584.888 93.08H594.168V97.624C596.216 94.3387 599.309 92.696 603.448 92.696C604.386 92.696 605.368 92.7813 606.392 92.952V102.872C605.026 102.36 603.704 102.104 602.424 102.104C600.888 102.104 599.117 102.637 597.112 103.704C595.149 104.728 594.168 106.712 594.168 109.656V127H584.888V93.08ZM614.112 97.56C617.525 94.1893 621.621 92.504 626.4 92.504C630.538 92.504 634.208 93.8267 637.408 96.472C640.608 99.1173 642.634 102.445 643.488 106.456C643.786 107.736 643.936 108.973 643.936 110.168C643.936 111.32 643.808 112.429 643.552 113.496H618.08C618.592 115.373 619.594 116.824 621.088 117.848C622.581 118.829 624.352 119.32 626.4 119.32C629.642 119.32 632.309 118.36 634.4 116.44L642.464 118.744C641.141 121.389 638.944 123.523 635.872 125.144C632.8 126.723 629.642 127.512 626.4 127.512C621.536 127.512 617.397 125.805 613.984 122.392C610.613 118.936 608.928 114.819 608.928 110.04C608.928 105.133 610.656 100.973 614.112 97.56ZM618.08 106.456H634.528C634.016 104.835 633.034 103.469 631.584 102.36C630.133 101.251 628.384 100.696 626.336 100.696C624.288 100.696 622.517 101.251 621.024 102.36C619.573 103.469 618.592 104.835 618.08 106.456ZM665.733 93.08H671.493V85.656L680.645 83.032V93.08H690.437V101.08H680.645V115.608C680.645 116.504 681.007 117.251 681.733 117.848C682.458 118.445 683.226 118.787 684.037 118.872C684.89 118.915 685.402 118.936 685.573 118.936C687.023 118.936 688.794 118.531 690.885 117.72V126.68C688.453 127.363 686.191 127.704 684.101 127.704C681.498 127.704 678.746 126.957 675.845 125.464C672.943 123.928 671.493 120.664 671.493 115.672V101.08H665.733V93.08ZM696.645 82.2H705.925V96.216C708.485 93.7413 711.642 92.504 715.397 92.504C719.237 92.504 722.544 93.7413 725.317 96.216C728.09 98.648 729.477 101.891 729.477 105.944V127H720.197V108.312C720.197 106.179 719.536 104.451 718.213 103.128C716.933 101.805 715.354 101.144 713.477 101.144C711.216 101.144 709.381 101.955 707.973 103.576C706.608 105.155 705.925 107.117 705.925 109.464V127H696.645V82.2ZM739.543 97.56C742.828 94.1893 746.775 92.504 751.383 92.504C755.01 92.504 758.124 93.656 760.727 95.96V93.08H770.007V127H760.727V124.184C758.167 126.403 755.052 127.512 751.383 127.512C746.818 127.512 742.871 125.784 739.543 122.328C736.258 118.872 734.615 114.776 734.615 110.04C734.615 105.133 736.258 100.973 739.543 97.56ZM743.255 110.04C743.255 112.515 744.108 114.648 745.815 116.44C747.564 118.232 749.719 119.128 752.279 119.128C754.754 119.128 756.887 118.232 758.679 116.44C760.471 114.605 761.367 112.472 761.367 110.04C761.367 107.608 760.471 105.475 758.679 103.64C756.887 101.805 754.754 100.888 752.279 100.888C749.719 100.888 747.564 101.805 745.815 103.64C744.108 105.432 743.255 107.565 743.255 110.04ZM776.7 93.08H785.98V96.216C788.54 93.7413 791.697 92.504 795.452 92.504C799.292 92.504 802.599 93.7413 805.372 96.216C808.145 98.648 809.532 101.891 809.532 105.944V127H800.252V108.312C800.252 106.179 799.591 104.451 798.268 103.128C796.988 101.805 795.409 101.144 793.532 101.144C791.271 101.144 789.436 101.955 788.028 103.576C786.663 105.155 785.98 107.117 785.98 109.464V127H776.7V93.08ZM833.263 93.08H842.543V111.768C842.543 113.901 843.183 115.629 844.463 116.952C845.785 118.275 847.385 118.936 849.263 118.936C851.524 118.936 853.337 118.147 854.703 116.568C856.111 114.947 856.815 112.963 856.815 110.616V93.08H866.095V127H856.815V123.864C854.255 126.339 851.097 127.576 847.343 127.576C843.503 127.576 840.196 126.36 837.423 123.928C834.649 121.453 833.263 118.189 833.263 114.136V93.08ZM875.769 95.32C878.372 93.4427 881.785 92.504 886.009 92.504C890.83 92.504 895.182 93.528 899.065 95.576V104.344C893.86 101.741 889.508 100.44 886.009 100.44C884.516 100.44 883.385 100.696 882.617 101.208C881.849 101.677 881.465 102.275 881.465 103C881.465 103.427 881.593 103.811 881.849 104.152C882.148 104.451 882.596 104.728 883.193 104.984C883.833 105.197 884.452 105.368 885.049 105.496C885.646 105.624 886.457 105.816 887.481 106.072C888.548 106.285 889.444 106.477 890.169 106.648C897.252 108.525 900.793 112.045 900.793 117.208C900.793 119.085 900.345 120.728 899.449 122.136C898.596 123.544 897.444 124.632 895.993 125.4C894.585 126.125 893.092 126.659 891.513 127C889.977 127.341 888.356 127.512 886.649 127.512C882.041 127.512 877.497 126.253 873.017 123.736V114.52C874.681 115.672 876.793 116.781 879.353 117.848C881.956 118.915 884.388 119.448 886.649 119.448C889.721 119.448 891.257 118.637 891.257 117.016C891.257 116.12 890.66 115.416 889.465 114.904C888.27 114.349 886.265 113.773 883.449 113.176C879.481 112.323 876.558 111.107 874.681 109.528C872.804 107.949 871.865 105.795 871.865 103.064C871.865 99.7787 873.166 97.1973 875.769 95.32ZM905.263 93.08H914.543V111.768C914.543 113.901 915.183 115.629 916.463 116.952C917.785 118.275 919.385 118.936 921.263 118.936C923.524 118.936 925.337 118.147 926.703 116.568C928.111 114.947 928.815 112.963 928.815 110.616V93.08H938.095V127H928.815V123.864C926.255 126.339 923.097 127.576 919.343 127.576C915.503 127.576 912.196 126.36 909.423 123.928C906.649 121.453 905.263 118.189 905.263 114.136V93.08ZM948.793 97.56C952.078 94.1893 956.025 92.504 960.633 92.504C964.26 92.504 967.374 93.656 969.977 95.96V93.08H979.257V127H969.977V124.184C967.417 126.403 964.302 127.512 960.633 127.512C956.068 127.512 952.121 125.784 948.793 122.328C945.508 118.872 943.865 114.776 943.865 110.04C943.865 105.133 945.508 100.973 948.793 97.56ZM952.505 110.04C952.505 112.515 953.358 114.648 955.065 116.44C956.814 118.232 958.969 119.128 961.529 119.128C964.004 119.128 966.137 118.232 967.929 116.44C969.721 114.605 970.617 112.472 970.617 110.04C970.617 107.608 969.721 105.475 967.929 103.64C966.137 101.805 964.004 100.888 961.529 100.888C958.969 100.888 956.814 101.805 955.065 103.64C953.358 105.432 952.505 107.565 952.505 110.04ZM985.95 127V82.2H995.23V127H985.95ZM1001.7 96.728C1001.74 92.0347 1003.3 88.344 1006.37 85.656C1009.49 82.968 1013.24 81.624 1017.64 81.624C1021.82 81.624 1025.4 82.9467 1028.39 85.592C1031.42 88.2373 1032.93 91.5227 1032.93 95.448C1032.93 97.2827 1032.55 98.8613 1031.78 100.184C1031.01 101.507 1030.07 102.552 1028.97 103.32C1027.9 104.088 1026.81 104.792 1025.7 105.432C1024.59 106.072 1023.63 106.84 1022.82 107.736C1022.05 108.589 1021.65 109.592 1021.61 110.744L1021.54 112.92H1012.58V108.696C1012.58 106.904 1013.16 105.325 1014.31 103.96C1015.5 102.595 1016.81 101.571 1018.21 100.888C1019.62 100.163 1020.9 99.3307 1022.05 98.392C1023.25 97.4107 1023.85 96.4293 1023.85 95.448C1023.85 94.04 1023.31 92.8453 1022.25 91.864C1021.18 90.84 1019.69 90.3067 1017.77 90.264C1017.68 90.264 1017.62 90.264 1017.57 90.264C1015.61 90.264 1014.03 90.8613 1012.84 92.056C1011.69 93.208 1011.07 94.7653 1010.98 96.728H1001.7ZM1013.54 117.784C1014.61 116.717 1015.93 116.184 1017.51 116.184C1019.09 116.184 1020.41 116.739 1021.48 117.848C1022.59 118.915 1023.14 120.237 1023.14 121.816C1023.14 123.395 1022.61 124.717 1021.54 125.784C1020.43 126.851 1019.09 127.384 1017.51 127.384C1015.93 127.384 1014.59 126.851 1013.48 125.784C1012.41 124.717 1011.88 123.395 1011.88 121.816C1011.88 120.237 1012.43 118.893 1013.54 117.784Z"/><path stroke="#00CC8D" stroke-linecap="round" stroke-width="10" d="M548 47.8568C596.866 74.2692 649.721 73.758 701.579 73.5717C711.742 73.5352 721.36 71.4001 731.417 69.887C736.546 69.1155 741.467 66.1898 746.558 65.8315C750.987 65.5197 754.818 62.6418 759.162 62.3499C765.291 61.938 771.407 58.9393 777.045 56.3545C779.151 55.3888 781.201 55.0761 783.347 54.5902C784.382 54.3558 785.324 52.4966 786.545 52.0838"/></svg>