<svg xmlns="http://www.w3.org/2000/svg" width="510" height="133" fill="none" viewBox="0 0 510 133"><path fill="#000" d="M11.848 22.6C16.776 18.888 22.76 17.032 29.8 17.032C38.056 17.032 46.28 19.4 54.472 24.136V38.824C50.568 36.264 46.408 34.248 41.992 32.776C37.576 31.24 33.512 30.472 29.8 30.472C26.664 30.472 24.04 31.048 21.928 32.2C19.816 33.352 18.76 34.92 18.76 36.904C18.76 38.952 19.976 40.52 22.408 41.608C24.904 42.696 28.712 43.88 33.832 45.16L35.176 45.448C35.56 45.576 35.944 45.672 36.328 45.736C50.344 49.256 57.352 56.072 57.352 66.184C57.352 72.456 54.792 77.288 49.672 80.68C44.552 84.072 38.6 85.768 31.816 85.768C31.56 85.768 31.304 85.768 31.048 85.768C20.808 85.512 12.424 82.504 5.896 76.744V61.96C14.216 68.872 22.92 72.328 32.008 72.328C35.144 72.328 37.736 71.816 39.784 70.792C41.896 69.704 42.952 68.168 42.952 66.184C42.952 64.264 41.672 62.568 39.112 61.096C36.616 59.56 32.04 57.96 25.384 56.296C11.368 52.84 4.36 46.408 4.36 37C4.36 31.176 6.856 26.376 11.848 22.6ZM64.1125 34.12H78.0325V38.344C81.8725 35.016 86.5445 33.352 92.0485 33.352C98.8965 33.352 104.785 35.944 109.713 41.128C114.705 46.312 117.201 52.456 117.201 59.56C117.201 66.92 114.737 73.128 109.809 78.184C104.881 83.24 98.9605 85.768 92.0485 85.768C86.6085 85.768 81.9365 84.04 78.0325 80.584V105.16H64.1125V34.12ZM77.0725 59.56C77.0725 63.208 78.4165 66.408 81.1045 69.16C83.7925 71.912 86.9925 73.288 90.7045 73.288C94.5445 73.288 97.7445 71.944 100.305 69.256C102.929 66.504 104.241 63.272 104.241 59.56C104.241 55.848 102.929 52.648 100.305 49.96C97.7445 47.272 94.5445 45.928 90.7045 45.928C86.9925 45.928 83.7925 47.304 81.1045 50.056C78.4165 52.744 77.0725 55.912 77.0725 59.56ZM130.73 40.84C135.85 35.784 141.994 33.256 149.162 33.256C155.37 33.256 160.874 35.24 165.674 39.208C170.474 43.176 173.514 48.168 174.794 54.184C175.242 56.104 175.466 57.96 175.466 59.752C175.466 61.48 175.274 63.144 174.89 64.744H136.682C137.45 67.56 138.954 69.736 141.194 71.272C143.434 72.744 146.09 73.48 149.162 73.48C154.026 73.48 158.026 72.04 161.162 69.16L173.258 72.616C171.274 76.584 167.978 79.784 163.37 82.216C158.762 84.584 154.026 85.768 149.162 85.768C141.866 85.768 135.658 83.208 130.538 78.088C125.482 72.904 122.954 66.728 122.954 59.56C122.954 52.2 125.546 45.96 130.73 40.84ZM136.682 54.184H161.354C160.586 51.752 159.114 49.704 156.938 48.04C154.762 46.376 152.138 45.544 149.066 45.544C145.994 45.544 143.338 46.376 141.098 48.04C138.922 49.704 137.45 51.752 136.682 54.184ZM189.042 40.84C194.162 35.784 200.306 33.256 207.474 33.256C212.914 33.256 217.81 34.792 222.162 37.864C226.514 40.936 229.65 44.968 231.57 49.96L218.898 53.608C217.874 51.24 216.338 49.352 214.29 47.944C212.306 46.472 210.034 45.736 207.474 45.736C203.762 45.736 200.626 47.112 198.066 49.864C195.506 52.616 194.226 55.848 194.226 59.56C194.226 63.272 195.506 66.504 198.066 69.256C200.626 71.944 203.762 73.288 207.474 73.288C210.098 73.288 212.402 72.584 214.386 71.176C216.37 69.704 217.874 67.816 218.898 65.512L231.57 69.16C229.65 74.088 226.514 78.088 222.162 81.16C217.874 84.232 212.978 85.768 207.474 85.768C200.178 85.768 193.97 83.208 188.85 78.088C183.794 72.904 181.266 66.728 181.266 59.56C181.266 52.2 183.858 45.96 189.042 40.84ZM253.825 34.12V85H239.905V34.12H253.825ZM240.961 15.976C242.625 14.376 244.641 13.576 247.009 13.576C249.377 13.576 251.393 14.376 253.057 15.976C254.721 17.576 255.553 19.528 255.553 21.832C255.553 24.136 254.721 26.056 253.057 27.592C251.393 29.192 249.377 29.992 247.009 29.992C244.641 29.992 242.625 29.224 240.961 27.688C239.297 26.088 238.465 24.136 238.465 21.832C238.465 19.528 239.297 17.576 240.961 15.976ZM269.846 40.84C274.774 35.784 280.694 33.256 287.606 33.256C293.046 33.256 297.718 34.984 301.622 38.44V34.12H315.542V85H301.622V80.776C297.782 84.104 293.11 85.768 287.606 85.768C280.758 85.768 274.838 83.176 269.846 77.992C264.918 72.808 262.454 66.664 262.454 59.56C262.454 52.2 264.918 45.96 269.846 40.84ZM275.414 59.56C275.414 63.272 276.694 66.472 279.254 69.16C281.878 71.848 285.11 73.192 288.95 73.192C292.662 73.192 295.862 71.848 298.55 69.16C301.238 66.408 302.582 63.208 302.582 59.56C302.582 55.912 301.238 52.712 298.55 49.96C295.862 47.208 292.662 45.832 288.95 45.832C285.11 45.832 281.878 47.208 279.254 49.96C276.694 52.648 275.414 55.848 275.414 59.56ZM325.581 85V17.8H339.501V85H325.581ZM363.513 34.12V85H349.593V34.12H363.513ZM350.648 15.976C352.313 14.376 354.329 13.576 356.697 13.576C359.065 13.576 361.081 14.376 362.745 15.976C364.409 17.576 365.241 19.528 365.241 21.832C365.241 24.136 364.409 26.056 362.745 27.592C361.081 29.192 359.065 29.992 356.697 29.992C354.329 29.992 352.313 29.224 350.648 27.688C348.985 26.088 348.153 24.136 348.153 21.832C348.153 19.528 348.985 17.576 350.648 15.976ZM377.997 37.48C381.901 34.664 387.021 33.256 393.357 33.256C400.589 33.256 407.117 34.792 412.941 37.864V51.016C405.133 47.112 398.605 45.16 393.357 45.16C391.117 45.16 389.421 45.544 388.269 46.312C387.117 47.016 386.541 47.912 386.541 49C386.541 49.64 386.733 50.216 387.117 50.728C387.565 51.176 388.237 51.592 389.133 51.976C390.093 52.296 391.021 52.552 391.917 52.744C392.813 52.936 394.029 53.224 395.565 53.608C397.165 53.928 398.509 54.216 399.597 54.472C410.221 57.288 415.533 62.568 415.533 70.312C415.533 73.128 414.861 75.592 413.517 77.704C412.237 79.816 410.509 81.448 408.333 82.6C406.221 83.688 403.981 84.488 401.613 85C399.309 85.512 396.877 85.768 394.317 85.768C387.405 85.768 380.589 83.88 373.869 80.104V66.28C376.365 68.008 379.533 69.672 383.373 71.272C387.277 72.872 390.925 73.672 394.317 73.672C398.925 73.672 401.229 72.456 401.229 70.024C401.229 68.68 400.333 67.624 398.541 66.856C396.749 66.024 393.741 65.16 389.517 64.264C383.565 62.984 379.181 61.16 376.365 58.792C373.549 56.424 372.141 53.192 372.141 49.096C372.141 44.168 374.093 40.296 377.997 37.48ZM419.38 34.12H428.02V22.984L441.748 19.048V34.12H456.436V46.12H441.748V67.912C441.748 69.256 442.292 70.376 443.38 71.272C444.468 72.168 445.62 72.68 446.836 72.808C448.116 72.872 448.884 72.904 449.14 72.904C451.316 72.904 453.972 72.296 457.108 71.08V84.52C453.46 85.544 450.068 86.056 446.932 86.056C443.028 86.056 438.9 84.936 434.548 82.696C430.196 80.392 428.02 75.496 428.02 68.008V46.12H419.38V34.12ZM469.685 37.48C473.589 34.664 478.709 33.256 485.045 33.256C492.277 33.256 498.805 34.792 504.629 37.864V51.016C496.821 47.112 490.293 45.16 485.045 45.16C482.805 45.16 481.109 45.544 479.957 46.312C478.805 47.016 478.229 47.912 478.229 49C478.229 49.64 478.421 50.216 478.805 50.728C479.253 51.176 479.925 51.592 480.821 51.976C481.781 52.296 482.709 52.552 483.605 52.744C484.501 52.936 485.717 53.224 487.253 53.608C488.853 53.928 490.197 54.216 491.285 54.472C501.909 57.288 507.221 62.568 507.221 70.312C507.221 73.128 506.549 75.592 505.205 77.704C503.925 79.816 502.197 81.448 500.021 82.6C497.909 83.688 495.669 84.488 493.301 85C490.997 85.512 488.565 85.768 486.005 85.768C479.093 85.768 472.277 83.88 465.557 80.104V66.28C468.053 68.008 471.221 69.672 475.061 71.272C478.965 72.872 482.613 73.672 486.005 73.672C490.613 73.672 492.917 72.456 492.917 70.024C492.917 68.68 492.021 67.624 490.229 66.856C488.437 66.024 485.429 65.16 481.205 64.264C475.253 62.984 470.869 61.16 468.053 58.792C465.237 56.424 463.829 53.192 463.829 49.096C463.829 44.168 465.781 40.296 469.685 37.48Z"/><path stroke="#00CC8D" stroke-linecap="round" stroke-width="10" d="M5.7652 102.516C106.496 131.032 215.052 128.665 321.564 126.702C342.437 126.317 362.164 123.554 382.801 121.487C393.324 120.433 403.393 116.925 413.843 116.344C422.937 115.839 430.767 112.423 439.686 111.943C452.269 111.265 464.788 107.634 476.334 104.492C480.647 103.318 484.852 102.892 489.254 102.264C491.378 101.962 493.286 99.8067 495.789 99.2941"/></svg>